<svg xmlns="http://www.w3.org/2000/svg" xmlns:xlink="http://www.w3.org/1999/xlink" width="164pt" height="276" viewBox="0 0 164 207"><g id="graph0" class="graph" transform="scale(1 1) rotate(0) translate(4 203)"><title>NEGEMMMatrixVectorMultiplyKernel</title><polygon fill="#fff" stroke="none" points="-4 4 -4 -203 160 -203 160 4 -4 4"/><g id="node1" class="node"><title>Node0</title><g id="a_node1"><a xlink:title="Interface for the GEMM matrix vector multiply kernel."><polygon fill="#bfbfbf" stroke="#000" points="0 -.5 0 -30.5 156 -30.5 156 -.5 0 -.5"/><text x="8" y="-18.5" font-family="Helvetica,sans-Serif" font-size="10" text-anchor="start">NEGEMMMatrixVectorMultiply</text><text x="78" y="-7.5" font-family="Helvetica,sans-Serif" font-size="10" text-anchor="middle">Kernel</text></a></g></g><g id="node2" class="node"><title>Node1</title><g id="a_node2"><a target="_top" xlink:href="classarm__compute_1_1_i_c_p_p_simple_kernel.xhtml" xlink:title="Interface for simple C++ kernels having 1 tensor input and 1 tensor output."><polygon fill="#fff" stroke="#000" points="30.5 -67.5 30.5 -86.5 125.5 -86.5 125.5 -67.5 30.5 -67.5"/><text x="78" y="-74.5" font-family="Helvetica,sans-Serif" font-size="10" text-anchor="middle">INESimpleKernel</text></a></g></g><g id="edge1" class="edge"><title>Node1-&gt;Node0</title><path fill="none" stroke="#191970" d="M78,-57.2349C78,-48.5864 78,-38.4969 78,-30.523"/><polygon fill="#191970" stroke="#191970" points="74.5 -57.475 78 -67.475 81.5 -57.475 74.5 -57.475"/></g><g id="node3" class="node"><title>Node2</title><g id="a_node3"><a target="_top" xlink:href="classarm__compute_1_1_i_c_p_p_kernel.xhtml" xlink:title="Common interface for all kernels implemented in C++."><polygon fill="#fff" stroke="#000" points="44.5 -123.5 44.5 -142.5 111.5 -142.5 111.5 -123.5 44.5 -123.5"/><text x="78" y="-130.5" font-family="Helvetica,sans-Serif" font-size="10" text-anchor="middle">ICPPKernel</text></a></g></g><g id="edge2" class="edge"><title>Node2-&gt;Node1</title><path fill="none" stroke="#191970" d="M78,-112.805C78,-103.91 78,-93.7798 78,-86.7511"/><polygon fill="#191970" stroke="#191970" points="74.5 -113.083 78 -123.083 81.5 -113.083 74.5 -113.083"/></g><g id="node4" class="node"><title>Node3</title><g id="a_node4"><a target="_top" xlink:href="classarm__compute_1_1_i_kernel.xhtml" xlink:title="Common information for all the kernels."><polygon fill="#fff" stroke="#000" points="54 -179.5 54 -198.5 102 -198.5 102 -179.5 54 -179.5"/><text x="78" y="-186.5" font-family="Helvetica,sans-Serif" font-size="10" text-anchor="middle">IKernel</text></a></g></g><g id="edge3" class="edge"><title>Node3-&gt;Node2</title><path fill="none" stroke="#191970" d="M78,-168.805C78,-159.91 78,-149.78 78,-142.751"/><polygon fill="#191970" stroke="#191970" points="74.5 -169.083 78 -179.083 81.5 -169.083 74.5 -169.083"/></g></g></svg>