<svg xmlns="http://www.w3.org/2000/svg" xmlns:xlink="http://www.w3.org/1999/xlink" width="204" height="140pt" viewBox="0 0 153 140"><g id="graph0" class="graph" transform="scale(1 1) rotate(0) translate(4 136)"><title>CLQuantizationLayerKernel</title><polygon fill="#fff" stroke="none" points="-4 4 -4 -136 149 -136 149 4 -4 4"/><g id="node1" class="node"><title>Node0</title><g id="a_node1"><a xlink:title="Interface for the quantization layer kernel."><polygon fill="#bfbfbf" stroke="#000" points="0 -.5 0 -19.5 145 -19.5 145 -.5 0 -.5"/><text x="72.5" y="-7.5" font-family="Helvetica,sans-Serif" font-size="10" text-anchor="middle">CLQuantizationLayerKernel</text></a></g></g><g id="node2" class="node"><title>Node1</title><g id="a_node2"><a target="_top" xlink:href="classarm__compute_1_1_i_c_l_kernel.xhtml" xlink:title="Common interface for all the OpenCL kernels."><polygon fill="#fff" stroke="#000" points="42.5 -56.5 42.5 -75.5 102.5 -75.5 102.5 -56.5 42.5 -56.5"/><text x="72.5" y="-63.5" font-family="Helvetica,sans-Serif" font-size="10" text-anchor="middle">ICLKernel</text></a></g></g><g id="edge1" class="edge"><title>Node1-&gt;Node0</title><path fill="none" stroke="#191970" d="M72.5,-45.8045C72.5,-36.9102 72.5,-26.7798 72.5,-19.7511"/><polygon fill="#191970" stroke="#191970" points="69 -46.083 72.5 -56.083 76 -46.083 69 -46.083"/></g><g id="node3" class="node"><title>Node2</title><g id="a_node3"><a target="_top" xlink:href="classarm__compute_1_1_i_kernel.xhtml" xlink:title="Common information for all the kernels."><polygon fill="#fff" stroke="#000" points="48.5 -112.5 48.5 -131.5 96.5 -131.5 96.5 -112.5 48.5 -112.5"/><text x="72.5" y="-119.5" font-family="Helvetica,sans-Serif" font-size="10" text-anchor="middle">IKernel</text></a></g></g><g id="edge2" class="edge"><title>Node2-&gt;Node1</title><path fill="none" stroke="#191970" d="M72.5,-101.805C72.5,-92.9102 72.5,-82.7798 72.5,-75.7511"/><polygon fill="#191970" stroke="#191970" points="69 -102.083 72.5 -112.083 76 -102.083 69 -102.083"/></g></g></svg>