<svg xmlns="http://www.w3.org/2000/svg" xmlns:xlink="http://www.w3.org/1999/xlink" width="130pt" height="140pt" viewBox="0 0 130 140"><g id="graph0" class="graph" transform="scale(1 1) rotate(0) translate(4 136)"><title>CLDepthConvertLayer</title><polygon fill="#fff" stroke="none" points="-4 4 -4 -136 126 -136 126 4 -4 4"/><g id="node1" class="node"><title>Node0</title><g id="a_node1"><a xlink:title="Basic function to run CLDepthConvertLayerKernel."><polygon fill="#bfbfbf" stroke="#000" points="0 -.5 0 -19.5 122 -19.5 122 -.5 0 -.5"/><text x="61" y="-7.5" font-family="Helvetica,sans-Serif" font-size="10" text-anchor="middle">CLDepthConvertLayer</text></a></g></g><g id="node2" class="node"><title>Node1</title><g id="a_node2"><a target="_top" xlink:href="classarm__compute_1_1_i_c_l_simple_function.xhtml" xlink:title="Basic interface for functions which have a single OpenCL kernel."><polygon fill="#fff" stroke="#000" points="9 -56.5 9 -75.5 113 -75.5 113 -56.5 9 -56.5"/><text x="61" y="-63.5" font-family="Helvetica,sans-Serif" font-size="10" text-anchor="middle">ICLSimpleFunction</text></a></g></g><g id="edge1" class="edge"><title>Node1-&gt;Node0</title><path fill="none" stroke="#191970" d="M61,-45.8045C61,-36.9102 61,-26.7798 61,-19.7511"/><polygon fill="#191970" stroke="#191970" points="57.5 -46.083 61 -56.083 64.5 -46.083 57.5 -46.083"/></g><g id="node3" class="node"><title>Node2</title><g id="a_node3"><a target="_top" xlink:href="classarm__compute_1_1_i_function.xhtml" xlink:title="Base class for all functions."><polygon fill="#fff" stroke="#000" points="31.5 -112.5 31.5 -131.5 90.5 -131.5 90.5 -112.5 31.5 -112.5"/><text x="61" y="-119.5" font-family="Helvetica,sans-Serif" font-size="10" text-anchor="middle">IFunction</text></a></g></g><g id="edge2" class="edge"><title>Node2-&gt;Node1</title><path fill="none" stroke="#191970" d="M61,-101.805C61,-92.9102 61,-82.7798 61,-75.7511"/><polygon fill="#191970" stroke="#191970" points="57.5 -102.083 61 -112.083 64.5 -102.083 57.5 -102.083"/></g></g></svg>