<svg xmlns="http://www.w3.org/2000/svg" xmlns:xlink="http://www.w3.org/1999/xlink" width="337pt" height="163pt" viewBox="0 0 337 163"><g id="graph0" class="graph" transform="scale(1 1) rotate(0) translate(4 159)"><title>CLIm2ColKernel</title><polygon fill="#fff" stroke="none" points="-4 4 -4 -159 333 -159 333 4 -4 4"/><g id="node1" class="node"><title>Node0</title><g id="a_node1"><a xlink:title="Interface for the im2col reshape kernel."><polygon fill="#bfbfbf" stroke="#000" points="118.5 -.5 118.5 -19.5 209.5 -19.5 209.5 -.5 118.5 -.5"/><text x="164" y="-7.5" font-family="Helvetica,sans-Serif" font-size="10" text-anchor="middle">CLIm2ColKernel</text></a></g></g><g id="node2" class="node"><title>Node1</title><g id="a_node2"><a target="_top" xlink:href="classarm__compute_1_1_i_c_l_kernel.xhtml" xlink:title="Common interface for all the OpenCL kernels."><polygon fill="#fff" stroke="#000" points="0 -78.5 0 -97.5 60 -97.5 60 -78.5 0 -78.5"/><text x="30" y="-85.5" font-family="Helvetica,sans-Serif" font-size="10" text-anchor="middle">ICLKernel</text></a></g></g><g id="edge1" class="edge"><title>Node1-&gt;Node0</title><path fill="none" stroke="#191970" d="M53.0908,-73.2553C69.8997,-63.3173 93.2565,-49.6468 114,-38 125.183,-31.7212 137.902,-24.8567 147.713,-19.6205"/><polygon fill="#191970" stroke="#191970" points="51.303 -70.246 44.484 -78.356 54.871 -76.268 51.303 -70.246"/></g><g id="node3" class="node"><title>Node2</title><g id="a_node3"><a target="_top" xlink:href="classarm__compute_1_1_i_kernel.xhtml" xlink:title="Common information for all the kernels."><polygon fill="#fff" stroke="#000" points="6 -135.5 6 -154.5 54 -154.5 54 -135.5 6 -135.5"/><text x="30" y="-142.5" font-family="Helvetica,sans-Serif" font-size="10" text-anchor="middle">IKernel</text></a></g></g><g id="edge2" class="edge"><title>Node2-&gt;Node1</title><path fill="none" stroke="#191970" d="M30,-125.117C30,-115.817 30,-105.056 30,-97.7149"/><polygon fill="#191970" stroke="#191970" points="26.5 -125.406 30 -135.406 33.5 -125.406 26.5 -125.406"/></g><g id="node4" class="node"><title>Node3</title><g id="a_node4"><a target="_top" xlink:href="classarm__compute_1_1_i_c_l_tensor.xhtml" xlink:title="Interface for OpenCL tensor."><polygon fill="#fff" stroke="#000" points="78 -78.5 78 -97.5 138 -97.5 138 -78.5 78 -78.5"/><text x="108" y="-85.5" font-family="Helvetica,sans-Serif" font-size="10" text-anchor="middle">ICLTensor</text></a></g></g><g id="edge3" class="edge"><title>Node3-&gt;Node0</title><path fill="none" stroke="#9a32cd" stroke-dasharray="5 2" d="M114.714,-68.9352C118.837,-59.206 124.724,-47.3228 132,-38 137.456,-31.009 144.979,-24.5493 151.36,-19.7022"/><polygon fill="#9a32cd" stroke="#9a32cd" points="111.385 -67.838 110.951 -78.424 117.891 -70.418 111.385 -67.838"/><text x="152" y="-52" font-family="Helvetica,sans-Serif" font-size="10" text-anchor="middle">_output</text><text x="152" y="-41" font-family="Helvetica,sans-Serif" font-size="10" text-anchor="middle">_input</text></g><g id="node5" class="node"><title>Node4</title><g id="a_node5"><a target="_top" xlink:href="classarm__compute_1_1_i_tensor.xhtml" xlink:title="Interface for NEON tensor."><polygon fill="#fff" stroke="#000" points="83 -135.5 83 -154.5 133 -154.5 133 -135.5 83 -135.5"/><text x="108" y="-142.5" font-family="Helvetica,sans-Serif" font-size="10" text-anchor="middle">ITensor</text></a></g></g><g id="edge4" class="edge"><title>Node4-&gt;Node3</title><path fill="none" stroke="#191970" d="M108,-125.117C108,-115.817 108,-105.056 108,-97.7149"/><polygon fill="#191970" stroke="#191970" points="104.5 -125.406 108 -135.406 111.5 -125.406 104.5 -125.406"/></g><g id="node6" class="node"><title>Node5</title><g id="a_node6"><a target="_top" xlink:href="classarm__compute_1_1_pad_stride_info.xhtml" xlink:title="Padding and stride information class."><polygon fill="#fff" stroke="#000" points="156 -78.5 156 -97.5 236 -97.5 236 -78.5 156 -78.5"/><text x="196" y="-85.5" font-family="Helvetica,sans-Serif" font-size="10" text-anchor="middle">PadStrideInfo</text></a></g></g><g id="edge5" class="edge"><title>Node5-&gt;Node0</title><path fill="none" stroke="#9a32cd" stroke-dasharray="5 2" d="M188.284,-68.6744C181.732,-53.1127 172.62,-31.4722 167.628,-19.6165"/><polygon fill="#9a32cd" stroke="#9a32cd" points="185.223 -70.424 192.329 -78.282 191.674 -67.707 185.223 -70.424"/><text x="210" y="-46.5" font-family="Helvetica,sans-Serif" font-size="10" text-anchor="middle">_conv_info</text></g><g id="node7" class="node"><title>Node6</title><g id="a_node7"><a target="_top" xlink:href="classarm__compute_1_1_size2_d.xhtml" xlink:title="Class for specifying the size of an image or rectangle."><polygon fill="#fff" stroke="#000" points="254 -78.5 254 -97.5 304 -97.5 304 -78.5 254 -78.5"/><text x="279" y="-85.5" font-family="Helvetica,sans-Serif" font-size="10" text-anchor="middle">Size2D</text></a></g></g><g id="edge6" class="edge"><title>Node6-&gt;Node0</title><path fill="none" stroke="#9a32cd" stroke-dasharray="5 2" d="M268.958,-69.4197C262.227,-59.0129 252.503,-46.2856 241,-38 229.39,-29.6377 214.956,-23.6712 201.733,-19.5115"/><polygon fill="#9a32cd" stroke="#9a32cd" points="266.073 -71.411 274.264 -78.131 272.051 -67.769 266.073 -71.411"/><text x="295.5" y="-46.5" font-family="Helvetica,sans-Serif" font-size="10" text-anchor="middle">_kernel_dims</text></g></g></svg>