<svg xmlns="http://www.w3.org/2000/svg" xmlns:xlink="http://www.w3.org/1999/xlink" width="112" height="140pt" viewBox="0 0 84 140"><g id="graph0" class="graph" transform="scale(1 1) rotate(0) translate(4 136)"><title>CLMultiHOG</title><polygon fill="#fff" stroke="none" points="-4 4 -4 -136 80 -136 80 4 -4 4"/><g id="node1" class="node"><title>Node0</title><g id="a_node1"><a xlink:title="Basic implementation of the CL multi HOG data-objects."><polygon fill="#bfbfbf" stroke="#000" points="1 -.5 1 -19.5 75 -19.5 75 -.5 1 -.5"/><text x="38" y="-7.5" font-family="Helvetica,sans-Serif" font-size="10" text-anchor="middle">CLMultiHOG</text></a></g></g><g id="node2" class="node"><title>Node1</title><g id="a_node2"><a target="_top" xlink:href="classarm__compute_1_1_i_c_l_multi_h_o_g.xhtml" xlink:title="Interface for storing multiple HOG data-objects."><polygon fill="#fff" stroke="#000" points="0 -56.5 0 -75.5 76 -75.5 76 -56.5 0 -56.5"/><text x="38" y="-63.5" font-family="Helvetica,sans-Serif" font-size="10" text-anchor="middle">ICLMultiHOG</text></a></g></g><g id="edge1" class="edge"><title>Node1-&gt;Node0</title><path fill="none" stroke="#191970" d="M38,-45.8045C38,-36.9102 38,-26.7798 38,-19.7511"/><polygon fill="#191970" stroke="#191970" points="34.5 -46.083 38 -56.083 41.5 -46.083 34.5 -46.083"/></g><g id="node3" class="node"><title>Node2</title><g id="a_node3"><a target="_top" xlink:href="classarm__compute_1_1_i_multi_h_o_g.xhtml" xlink:title="Interface for storing multiple HOG data-objects."><polygon fill="#fff" stroke="#000" points="6 -112.5 6 -131.5 70 -131.5 70 -112.5 6 -112.5"/><text x="38" y="-119.5" font-family="Helvetica,sans-Serif" font-size="10" text-anchor="middle">IMultiHOG</text></a></g></g><g id="edge2" class="edge"><title>Node2-&gt;Node1</title><path fill="none" stroke="#191970" d="M38,-101.805C38,-92.9102 38,-82.7798 38,-75.7511"/><polygon fill="#191970" stroke="#191970" points="34.5 -102.083 38 -112.083 41.5 -102.083 34.5 -102.083"/></g></g></svg>