<svg xmlns="http://www.w3.org/2000/svg" xmlns:xlink="http://www.w3.org/1999/xlink" width="136pt" height="95pt" viewBox="0 0 135.5 95"><g id="graph0" class="graph" transform="scale(1 1) rotate(0) translate(4 91)"><title>NECropResize</title><polygon fill="#fff" stroke="none" points="-4 4 -4 -91 131.5 -91 131.5 4 -4 4"/><g id="node1" class="node"><title>Node0</title><g id="a_node1"><a xlink:title="Function to perform cropping and resizing."><polygon fill="#bfbfbf" stroke="#000" points="24 -.5 24 -19.5 107 -19.5 107 -.5 24 -.5"/><text x="65.5" y="-7.5" font-family="Helvetica,sans-Serif" font-size="10" text-anchor="middle">NECropResize</text></a></g></g><g id="node2" class="node"><title>Node1</title><g id="a_node2"><a target="_top" xlink:href="classarm__compute_1_1_i_function.xhtml" xlink:title="Base class for all functions."><polygon fill="#fff" stroke="#000" points="0 -67.5 0 -86.5 59 -86.5 59 -67.5 0 -67.5"/><text x="29.5" y="-74.5" font-family="Helvetica,sans-Serif" font-size="10" text-anchor="middle">IFunction</text></a></g></g><g id="edge1" class="edge"><title>Node1-&gt;Node0</title><path fill="none" stroke="#191970" d="M39.3787,-58.1635C46.3214,-45.6281 55.3035,-29.4104 60.7218,-19.6273"/><polygon fill="#191970" stroke="#191970" points="36.138 -56.79 34.355 -67.234 42.262 -60.182 36.138 -56.79"/></g><g id="node3" class="node"><title>Node2</title><g id="a_node3"><a target="_top" xlink:href="classarm__compute_1_1_i_tensor.xhtml" xlink:title="Interface for NEON tensor."><polygon fill="#fff" stroke="#000" points="77.5 -67.5 77.5 -86.5 127.5 -86.5 127.5 -67.5 77.5 -67.5"/><text x="102.5" y="-74.5" font-family="Helvetica,sans-Serif" font-size="10" text-anchor="middle">ITensor</text></a></g></g><g id="edge2" class="edge"><title>Node2-&gt;Node0</title><path fill="none" stroke="#9a32cd" stroke-dasharray="5 2" d="M92.5582,-58.5347C85.3945,-45.9499 76.0349,-29.5072 70.4109,-19.6273"/><polygon fill="#9a32cd" stroke="#9a32cd" points="89.521 -60.275 97.51 -67.234 95.605 -56.812 89.521 -60.275"/><text x="106.5" y="-41" font-family="Helvetica,sans-Serif" font-size="10" text-anchor="middle">_output</text></g></g></svg>