<svg xmlns="http://www.w3.org/2000/svg" xmlns:xlink="http://www.w3.org/1999/xlink" width="161pt" height="151pt" viewBox="0 0 161 151"><g id="graph0" class="graph" transform="scale(1 1) rotate(0) translate(4 147)"><title>CLNormalizePlanarYUVLayerKernel</title><polygon fill="#fff" stroke="none" points="-4 4 -4 -147 157 -147 157 4 -4 4"/><g id="node1" class="node"><title>Node0</title><g id="a_node1"><a xlink:title="Interface for the NormalizePlanarYUV layer kernel."><polygon fill="#bfbfbf" stroke="#000" points="0 -.5 0 -30.5 153 -30.5 153 -.5 0 -.5"/><text x="8" y="-18.5" font-family="Helvetica,sans-Serif" font-size="10" text-anchor="start">CLNormalizePlanarYUVLayer</text><text x="76.5" y="-7.5" font-family="Helvetica,sans-Serif" font-size="10" text-anchor="middle">Kernel</text></a></g></g><g id="node2" class="node"><title>Node1</title><g id="a_node2"><a target="_top" xlink:href="classarm__compute_1_1_i_c_l_kernel.xhtml" xlink:title="Common interface for all the OpenCL kernels."><polygon fill="#fff" stroke="#000" points="46.5 -67.5 46.5 -86.5 106.5 -86.5 106.5 -67.5 46.5 -67.5"/><text x="76.5" y="-74.5" font-family="Helvetica,sans-Serif" font-size="10" text-anchor="middle">ICLKernel</text></a></g></g><g id="edge1" class="edge"><title>Node1-&gt;Node0</title><path fill="none" stroke="#191970" d="M76.5,-57.2349C76.5,-48.5864 76.5,-38.4969 76.5,-30.523"/><polygon fill="#191970" stroke="#191970" points="73 -57.475 76.5 -67.475 80 -57.475 73 -57.475"/></g><g id="node3" class="node"><title>Node2</title><g id="a_node3"><a target="_top" xlink:href="classarm__compute_1_1_i_kernel.xhtml" xlink:title="Common information for all the kernels."><polygon fill="#fff" stroke="#000" points="52.5 -123.5 52.5 -142.5 100.5 -142.5 100.5 -123.5 52.5 -123.5"/><text x="76.5" y="-130.5" font-family="Helvetica,sans-Serif" font-size="10" text-anchor="middle">IKernel</text></a></g></g><g id="edge2" class="edge"><title>Node2-&gt;Node1</title><path fill="none" stroke="#191970" d="M76.5,-112.805C76.5,-103.91 76.5,-93.7798 76.5,-86.7511"/><polygon fill="#191970" stroke="#191970" points="73 -113.083 76.5 -123.083 80 -113.083 73 -113.083"/></g></g></svg>