<svg xmlns="http://www.w3.org/2000/svg" xmlns:xlink="http://www.w3.org/1999/xlink" width="124pt" height="140pt" viewBox="0 0 124 140"><g id="graph0" class="graph" transform="scale(1 1) rotate(0) translate(4 136)"><title>CLQuantizationLayer</title><polygon fill="#fff" stroke="none" points="-4 4 -4 -136 120 -136 120 4 -4 4"/><g id="node1" class="node"><title>Node0</title><g id="a_node1"><a xlink:title="Basic function to simulate a quantization layer."><polygon fill="#bfbfbf" stroke="#000" points="0 -.5 0 -19.5 116 -19.5 116 -.5 0 -.5"/><text x="58" y="-7.5" font-family="Helvetica,sans-Serif" font-size="10" text-anchor="middle">CLQuantizationLayer</text></a></g></g><g id="node2" class="node"><title>Node1</title><g id="a_node2"><a target="_top" xlink:href="classarm__compute_1_1_i_c_l_simple_function.xhtml" xlink:title="Basic interface for functions which have a single OpenCL kernel."><polygon fill="#fff" stroke="#000" points="6 -56.5 6 -75.5 110 -75.5 110 -56.5 6 -56.5"/><text x="58" y="-63.5" font-family="Helvetica,sans-Serif" font-size="10" text-anchor="middle">ICLSimpleFunction</text></a></g></g><g id="edge1" class="edge"><title>Node1-&gt;Node0</title><path fill="none" stroke="#191970" d="M58,-45.8045C58,-36.9102 58,-26.7798 58,-19.7511"/><polygon fill="#191970" stroke="#191970" points="54.5 -46.083 58 -56.083 61.5 -46.083 54.5 -46.083"/></g><g id="node3" class="node"><title>Node2</title><g id="a_node3"><a target="_top" xlink:href="classarm__compute_1_1_i_function.xhtml" xlink:title="Base class for all functions."><polygon fill="#fff" stroke="#000" points="28.5 -112.5 28.5 -131.5 87.5 -131.5 87.5 -112.5 28.5 -112.5"/><text x="58" y="-119.5" font-family="Helvetica,sans-Serif" font-size="10" text-anchor="middle">IFunction</text></a></g></g><g id="edge2" class="edge"><title>Node2-&gt;Node1</title><path fill="none" stroke="#191970" d="M58,-101.805C58,-92.9102 58,-82.7798 58,-75.7511"/><polygon fill="#191970" stroke="#191970" points="54.5 -102.083 58 -112.083 61.5 -102.083 54.5 -102.083"/></g></g></svg>