<svg xmlns="http://www.w3.org/2000/svg" xmlns:xlink="http://www.w3.org/1999/xlink" width="145pt" height="151pt" viewBox="0 0 145 151"><g id="graph0" class="graph" transform="scale(1 1) rotate(0) translate(4 147)"><title>GCPixelWiseMultiplicationKernel</title><polygon fill="#fff" stroke="none" points="-4 4 -4 -147 141 -147 141 4 -4 4"/><g id="node1" class="node"><title>Node0</title><g id="a_node1"><a xlink:title="Interface for the pixelwise multiplication kernel."><polygon fill="#bfbfbf" stroke="#000" points="0 -.5 0 -30.5 137 -30.5 137 -.5 0 -.5"/><text x="8" y="-18.5" font-family="Helvetica,sans-Serif" font-size="10" text-anchor="start">GCPixelWiseMultiplication</text><text x="68.5" y="-7.5" font-family="Helvetica,sans-Serif" font-size="10" text-anchor="middle">Kernel</text></a></g></g><g id="node2" class="node"><title>Node1</title><g id="a_node2"><a target="_top" xlink:href="classarm__compute_1_1_i_g_c_kernel.xhtml" xlink:title="Common interface for all the GLES kernels."><polygon fill="#fff" stroke="#000" points="37.5 -67.5 37.5 -86.5 99.5 -86.5 99.5 -67.5 37.5 -67.5"/><text x="68.5" y="-74.5" font-family="Helvetica,sans-Serif" font-size="10" text-anchor="middle">IGCKernel</text></a></g></g><g id="edge1" class="edge"><title>Node1-&gt;Node0</title><path fill="none" stroke="#191970" d="M68.5,-57.2349C68.5,-48.5864 68.5,-38.4969 68.5,-30.523"/><polygon fill="#191970" stroke="#191970" points="65 -57.475 68.5 -67.475 72 -57.475 65 -57.475"/></g><g id="node3" class="node"><title>Node2</title><g id="a_node3"><a target="_top" xlink:href="classarm__compute_1_1_i_kernel.xhtml" xlink:title="Common information for all the kernels."><polygon fill="#fff" stroke="#000" points="44.5 -123.5 44.5 -142.5 92.5 -142.5 92.5 -123.5 44.5 -123.5"/><text x="68.5" y="-130.5" font-family="Helvetica,sans-Serif" font-size="10" text-anchor="middle">IKernel</text></a></g></g><g id="edge2" class="edge"><title>Node2-&gt;Node1</title><path fill="none" stroke="#191970" d="M68.5,-112.805C68.5,-103.91 68.5,-93.7798 68.5,-86.7511"/><polygon fill="#191970" stroke="#191970" points="65 -113.083 68.5 -123.083 72 -113.083 65 -113.083"/></g></g></svg>