<svg xmlns="http://www.w3.org/2000/svg" xmlns:xlink="http://www.w3.org/1999/xlink" width="80pt" height="140pt" viewBox="0 0 80 140"><g id="graph0" class="graph" transform="scale(1 1) rotate(0) translate(4 136)"><title>CLTileKernel</title><polygon fill="#fff" stroke="none" points="-4 4 -4 -136 76 -136 76 4 -4 4"/><g id="node1" class="node"><title>Node0</title><g id="a_node1"><a xlink:title="OpenCL kernel to perform a Tile operation."><polygon fill="#bfbfbf" stroke="#000" points="0 -.5 0 -19.5 72 -19.5 72 -.5 0 -.5"/><text x="36" y="-7.5" font-family="Helvetica,sans-Serif" font-size="10" text-anchor="middle">CLTileKernel</text></a></g></g><g id="node2" class="node"><title>Node1</title><g id="a_node2"><a target="_top" xlink:href="classarm__compute_1_1_i_c_l_kernel.xhtml" xlink:title="Common interface for all the OpenCL kernels."><polygon fill="#fff" stroke="#000" points="6 -56.5 6 -75.5 66 -75.5 66 -56.5 6 -56.5"/><text x="36" y="-63.5" font-family="Helvetica,sans-Serif" font-size="10" text-anchor="middle">ICLKernel</text></a></g></g><g id="edge1" class="edge"><title>Node1-&gt;Node0</title><path fill="none" stroke="#191970" d="M36,-45.8045C36,-36.9102 36,-26.7798 36,-19.7511"/><polygon fill="#191970" stroke="#191970" points="32.5 -46.083 36 -56.083 39.5 -46.083 32.5 -46.083"/></g><g id="node3" class="node"><title>Node2</title><g id="a_node3"><a target="_top" xlink:href="classarm__compute_1_1_i_kernel.xhtml" xlink:title="Common information for all the kernels."><polygon fill="#fff" stroke="#000" points="12 -112.5 12 -131.5 60 -131.5 60 -112.5 12 -112.5"/><text x="36" y="-119.5" font-family="Helvetica,sans-Serif" font-size="10" text-anchor="middle">IKernel</text></a></g></g><g id="edge2" class="edge"><title>Node2-&gt;Node1</title><path fill="none" stroke="#191970" d="M36,-101.805C36,-92.9102 36,-82.7798 36,-75.7511"/><polygon fill="#191970" stroke="#191970" points="32.5 -102.083 36 -112.083 39.5 -102.083 32.5 -102.083"/></g></g></svg>