<svg xmlns="http://www.w3.org/2000/svg" xmlns:xlink="http://www.w3.org/1999/xlink" width="244" height="140pt" viewBox="0 0 183 140"><g id="graph0" class="graph" transform="scale(1 1) rotate(0) translate(4 136)"><title>CLDepthConcatenateLayerKernel</title><polygon fill="#fff" stroke="none" points="-4 4 -4 -136 179 -136 179 4 -4 4"/><g id="node1" class="node"><title>Node0</title><g id="a_node1"><a xlink:title="Interface for the depth concatenate kernel."><polygon fill="#bfbfbf" stroke="#000" points="0 -.5 0 -19.5 175 -19.5 175 -.5 0 -.5"/><text x="87.5" y="-7.5" font-family="Helvetica,sans-Serif" font-size="10" text-anchor="middle">CLDepthConcatenateLayerKernel</text></a></g></g><g id="node2" class="node"><title>Node1</title><g id="a_node2"><a target="_top" xlink:href="classarm__compute_1_1_i_c_l_kernel.xhtml" xlink:title="Common interface for all the OpenCL kernels."><polygon fill="#fff" stroke="#000" points="57.5 -56.5 57.5 -75.5 117.5 -75.5 117.5 -56.5 57.5 -56.5"/><text x="87.5" y="-63.5" font-family="Helvetica,sans-Serif" font-size="10" text-anchor="middle">ICLKernel</text></a></g></g><g id="edge1" class="edge"><title>Node1-&gt;Node0</title><path fill="none" stroke="#191970" d="M87.5,-45.8045C87.5,-36.9102 87.5,-26.7798 87.5,-19.7511"/><polygon fill="#191970" stroke="#191970" points="84 -46.083 87.5 -56.083 91 -46.083 84 -46.083"/></g><g id="node3" class="node"><title>Node2</title><g id="a_node3"><a target="_top" xlink:href="classarm__compute_1_1_i_kernel.xhtml" xlink:title="Common information for all the kernels."><polygon fill="#fff" stroke="#000" points="63.5 -112.5 63.5 -131.5 111.5 -131.5 111.5 -112.5 63.5 -112.5"/><text x="87.5" y="-119.5" font-family="Helvetica,sans-Serif" font-size="10" text-anchor="middle">IKernel</text></a></g></g><g id="edge2" class="edge"><title>Node2-&gt;Node1</title><path fill="none" stroke="#191970" d="M87.5,-101.805C87.5,-92.9102 87.5,-82.7798 87.5,-75.7511"/><polygon fill="#191970" stroke="#191970" points="84 -102.083 87.5 -112.083 91 -102.083 84 -102.083"/></g></g></svg>