<svg xmlns="http://www.w3.org/2000/svg" xmlns:xlink="http://www.w3.org/1999/xlink" width="107pt" height="140pt" viewBox="0 0 107 140"><g id="graph0" class="graph" transform="scale(1 1) rotate(0) translate(4 136)"><title>ICLDistribution1D</title><polygon fill="#fff" stroke="none" points="-4 4 -4 -136 103 -136 103 4 -4 4"/><g id="node1" class="node"><title>Node0</title><g id="a_node1"><a xlink:title="ICLDistribution1D interface class."><polygon fill="#bfbfbf" stroke="#000" points="0 -.5 0 -19.5 99 -19.5 99 -.5 0 -.5"/><text x="49.5" y="-7.5" font-family="Helvetica,sans-Serif" font-size="10" text-anchor="middle">ICLDistribution1D</text></a></g></g><g id="node2" class="node"><title>Node1</title><g id="a_node2"><a target="_top" xlink:href="classarm__compute_1_1_i_distribution1_d.xhtml" xlink:title="1D Distribution interface"><polygon fill="#fff" stroke="#000" points="6 -56.5 6 -75.5 93 -75.5 93 -56.5 6 -56.5"/><text x="49.5" y="-63.5" font-family="Helvetica,sans-Serif" font-size="10" text-anchor="middle">IDistribution1D</text></a></g></g><g id="edge1" class="edge"><title>Node1-&gt;Node0</title><path fill="none" stroke="#191970" d="M49.5,-45.8045C49.5,-36.9102 49.5,-26.7798 49.5,-19.7511"/><polygon fill="#191970" stroke="#191970" points="46 -46.083 49.5 -56.083 53 -46.083 46 -46.083"/></g><g id="node3" class="node"><title>Node2</title><g id="a_node3"><a target="_top" xlink:href="classarm__compute_1_1_i_distribution.xhtml" xlink:title="Interface for distribution objects."><polygon fill="#fff" stroke="#000" points="12.5 -112.5 12.5 -131.5 86.5 -131.5 86.5 -112.5 12.5 -112.5"/><text x="49.5" y="-119.5" font-family="Helvetica,sans-Serif" font-size="10" text-anchor="middle">IDistribution</text></a></g></g><g id="edge2" class="edge"><title>Node2-&gt;Node1</title><path fill="none" stroke="#191970" d="M49.5,-101.805C49.5,-92.9102 49.5,-82.7798 49.5,-75.7511"/><polygon fill="#191970" stroke="#191970" points="46 -102.083 49.5 -112.083 53 -102.083 46 -102.083"/></g></g></svg>