<svg xmlns="http://www.w3.org/2000/svg" xmlns:xlink="http://www.w3.org/1999/xlink" width="164pt" height="140pt" viewBox="0 0 164 140"><g id="graph0" class="graph" transform="scale(1 1) rotate(0) translate(4 136)"><title>CLGEMMMatrixAdditionKernel</title><polygon fill="#fff" stroke="none" points="-4 4 -4 -136 160 -136 160 4 -4 4"/><g id="node1" class="node"><title>Node0</title><g id="a_node1"><a xlink:title="OpenCL kernel to perform the in-place matrix addition between 2 matrices, taking into account that th..."><polygon fill="#bfbfbf" stroke="#000" points="0 -.5 0 -19.5 156 -19.5 156 -.5 0 -.5"/><text x="78" y="-7.5" font-family="Helvetica,sans-Serif" font-size="10" text-anchor="middle">CLGEMMMatrixAdditionKernel</text></a></g></g><g id="node2" class="node"><title>Node1</title><g id="a_node2"><a target="_top" xlink:href="classarm__compute_1_1_i_c_l_kernel.xhtml" xlink:title="Common interface for all the OpenCL kernels."><polygon fill="#fff" stroke="#000" points="48 -56.5 48 -75.5 108 -75.5 108 -56.5 48 -56.5"/><text x="78" y="-63.5" font-family="Helvetica,sans-Serif" font-size="10" text-anchor="middle">ICLKernel</text></a></g></g><g id="edge1" class="edge"><title>Node1-&gt;Node0</title><path fill="none" stroke="#191970" d="M78,-45.8045C78,-36.9102 78,-26.7798 78,-19.7511"/><polygon fill="#191970" stroke="#191970" points="74.5 -46.083 78 -56.083 81.5 -46.083 74.5 -46.083"/></g><g id="node3" class="node"><title>Node2</title><g id="a_node3"><a target="_top" xlink:href="classarm__compute_1_1_i_kernel.xhtml" xlink:title="Common information for all the kernels."><polygon fill="#fff" stroke="#000" points="54 -112.5 54 -131.5 102 -131.5 102 -112.5 54 -112.5"/><text x="78" y="-119.5" font-family="Helvetica,sans-Serif" font-size="10" text-anchor="middle">IKernel</text></a></g></g><g id="edge2" class="edge"><title>Node2-&gt;Node1</title><path fill="none" stroke="#191970" d="M78,-101.805C78,-92.9102 78,-82.7798 78,-75.7511"/><polygon fill="#191970" stroke="#191970" points="74.5 -102.083 78 -112.083 81.5 -102.083 74.5 -102.083"/></g></g></svg>