<svg xmlns="http://www.w3.org/2000/svg" xmlns:xlink="http://www.w3.org/1999/xlink" width="168" height="276" viewBox="0 0 126 207"><g id="graph0" class="graph" transform="scale(1 1) rotate(0) translate(4 203)"><title>NEHarrisScoreKernel&lt; block_size &gt;</title><polygon fill="#fff" stroke="none" points="-4 4 -4 -203 122 -203 122 4 -4 4"/><g id="node1" class="node"><title>Node0</title><g id="a_node1"><a xlink:title="Template NEON kernel to perform Harris Score."><polygon fill="#bfbfbf" stroke="#000" points="1 -.5 1 -30.5 117 -30.5 117 -.5 1 -.5"/><text x="9" y="-18.5" font-family="Helvetica,sans-Serif" font-size="10" text-anchor="start">NEHarrisScoreKernel</text><text x="59" y="-7.5" font-family="Helvetica,sans-Serif" font-size="10" text-anchor="middle">&lt; block_size &gt;</text></a></g></g><g id="node2" class="node"><title>Node1</title><g id="a_node2"><a target="_top" xlink:href="classarm__compute_1_1_i_n_e_harris_score_kernel.xhtml" xlink:title="Common interface for all Harris Score kernels."><polygon fill="#fff" stroke="#000" points="0 -67.5 0 -86.5 118 -86.5 118 -67.5 0 -67.5"/><text x="59" y="-74.5" font-family="Helvetica,sans-Serif" font-size="10" text-anchor="middle">INEHarrisScoreKernel</text></a></g></g><g id="edge1" class="edge"><title>Node1-&gt;Node0</title><path fill="none" stroke="#191970" d="M59,-57.2349C59,-48.5864 59,-38.4969 59,-30.523"/><polygon fill="#191970" stroke="#191970" points="55.5 -57.475 59 -67.475 62.5 -57.475 55.5 -57.475"/></g><g id="node3" class="node"><title>Node2</title><g id="a_node3"><a target="_top" xlink:href="classarm__compute_1_1_i_c_p_p_kernel.xhtml" xlink:title="Common interface for all kernels implemented in C++."><polygon fill="#fff" stroke="#000" points="28 -123.5 28 -142.5 90 -142.5 90 -123.5 28 -123.5"/><text x="59" y="-130.5" font-family="Helvetica,sans-Serif" font-size="10" text-anchor="middle">INEKernel</text></a></g></g><g id="edge2" class="edge"><title>Node2-&gt;Node1</title><path fill="none" stroke="#191970" d="M59,-112.805C59,-103.91 59,-93.7798 59,-86.7511"/><polygon fill="#191970" stroke="#191970" points="55.5 -113.083 59 -123.083 62.5 -113.083 55.5 -113.083"/></g><g id="node4" class="node"><title>Node3</title><g id="a_node4"><a target="_top" xlink:href="classarm__compute_1_1_i_kernel.xhtml" xlink:title="Common information for all the kernels."><polygon fill="#fff" stroke="#000" points="35 -179.5 35 -198.5 83 -198.5 83 -179.5 35 -179.5"/><text x="59" y="-186.5" font-family="Helvetica,sans-Serif" font-size="10" text-anchor="middle">IKernel</text></a></g></g><g id="edge3" class="edge"><title>Node3-&gt;Node2</title><path fill="none" stroke="#191970" d="M59,-168.805C59,-159.91 59,-149.78 59,-142.751"/><polygon fill="#191970" stroke="#191970" points="55.5 -169.083 59 -179.083 62.5 -169.083 55.5 -169.083"/></g></g></svg>