<svg xmlns="http://www.w3.org/2000/svg" xmlns:xlink="http://www.w3.org/1999/xlink" width="192" height="151pt" viewBox="0 0 144 151"><g id="graph0" class="graph" transform="scale(1 1) rotate(0) translate(4 147)"><title>NEPixelWiseMultiplicationKernel</title><polygon fill="#fff" stroke="none" points="-4 4 -4 -147 140 -147 140 4 -4 4"/><g id="node1" class="node"><title>Node0</title><g id="a_node1"><a xlink:title="Interface for the kernel to perform addition between two tensors."><polygon fill="#bfbfbf" stroke="#000" points="0 -.5 0 -30.5 136 -30.5 136 -.5 0 -.5"/><text x="8" y="-18.5" font-family="Helvetica,sans-Serif" font-size="10" text-anchor="start">NEPixelWiseMultiplication</text><text x="68" y="-7.5" font-family="Helvetica,sans-Serif" font-size="10" text-anchor="middle">Kernel</text></a></g></g><g id="node2" class="node"><title>Node1</title><g id="a_node2"><a target="_top" xlink:href="classarm__compute_1_1_i_c_p_p_kernel.xhtml" xlink:title="Common interface for all kernels implemented in C++."><polygon fill="#fff" stroke="#000" points="37 -67.5 37 -86.5 99 -86.5 99 -67.5 37 -67.5"/><text x="68" y="-74.5" font-family="Helvetica,sans-Serif" font-size="10" text-anchor="middle">INEKernel</text></a></g></g><g id="edge1" class="edge"><title>Node1-&gt;Node0</title><path fill="none" stroke="#191970" d="M68,-57.2349C68,-48.5864 68,-38.4969 68,-30.523"/><polygon fill="#191970" stroke="#191970" points="64.5 -57.475 68 -67.475 71.5 -57.475 64.5 -57.475"/></g><g id="node3" class="node"><title>Node2</title><g id="a_node3"><a target="_top" xlink:href="classarm__compute_1_1_i_kernel.xhtml" xlink:title="Common information for all the kernels."><polygon fill="#fff" stroke="#000" points="44 -123.5 44 -142.5 92 -142.5 92 -123.5 44 -123.5"/><text x="68" y="-130.5" font-family="Helvetica,sans-Serif" font-size="10" text-anchor="middle">IKernel</text></a></g></g><g id="edge2" class="edge"><title>Node2-&gt;Node1</title><path fill="none" stroke="#191970" d="M68,-112.805C68,-103.91 68,-93.7798 68,-86.7511"/><polygon fill="#191970" stroke="#191970" points="64.5 -113.083 68 -123.083 71.5 -113.083 64.5 -113.083"/></g></g></svg>