<svg xmlns="http://www.w3.org/2000/svg" xmlns:xlink="http://www.w3.org/1999/xlink" width="68pt" height="140pt" viewBox="0 0 68 140"><g id="graph0" class="graph" transform="scale(1 1) rotate(0) translate(4 136)"><title>CLTensor</title><polygon fill="#fff" stroke="none" points="-4 4 -4 -136 64 -136 64 4 -4 4"/><g id="node1" class="node"><title>Node0</title><g id="a_node1"><a xlink:title="Basic implementation of the OpenCL tensor interface."><polygon fill="#bfbfbf" stroke="#000" points="1 -.5 1 -19.5 59 -19.5 59 -.5 1 -.5"/><text x="30" y="-7.5" font-family="Helvetica,sans-Serif" font-size="10" text-anchor="middle">CLTensor</text></a></g></g><g id="node2" class="node"><title>Node1</title><g id="a_node2"><a target="_top" xlink:href="classarm__compute_1_1_i_c_l_tensor.xhtml" xlink:title="Interface for OpenCL tensor."><polygon fill="#fff" stroke="#000" points="0 -56.5 0 -75.5 60 -75.5 60 -56.5 0 -56.5"/><text x="30" y="-63.5" font-family="Helvetica,sans-Serif" font-size="10" text-anchor="middle">ICLTensor</text></a></g></g><g id="edge1" class="edge"><title>Node1-&gt;Node0</title><path fill="none" stroke="#191970" d="M30,-45.8045C30,-36.9102 30,-26.7798 30,-19.7511"/><polygon fill="#191970" stroke="#191970" points="26.5 -46.083 30 -56.083 33.5 -46.083 26.5 -46.083"/></g><g id="node3" class="node"><title>Node2</title><g id="a_node3"><a target="_top" xlink:href="classarm__compute_1_1_i_tensor.xhtml" xlink:title="Interface for NEON tensor."><polygon fill="#fff" stroke="#000" points="5 -112.5 5 -131.5 55 -131.5 55 -112.5 5 -112.5"/><text x="30" y="-119.5" font-family="Helvetica,sans-Serif" font-size="10" text-anchor="middle">ITensor</text></a></g></g><g id="edge2" class="edge"><title>Node2-&gt;Node1</title><path fill="none" stroke="#191970" d="M30,-101.805C30,-92.9102 30,-82.7798 30,-75.7511"/><polygon fill="#191970" stroke="#191970" points="26.5 -102.083 30 -112.083 33.5 -102.083 26.5 -102.083"/></g></g></svg>