<svg xmlns="http://www.w3.org/2000/svg" xmlns:xlink="http://www.w3.org/1999/xlink" width="154pt" height="140pt" viewBox="0 0 154 140"><g id="graph0" class="graph" transform="scale(1 1) rotate(0) translate(4 136)"><title>NEElementwiseSquaredDiff</title><polygon fill="#fff" stroke="none" points="-4 4 -4 -136 150 -136 150 4 -4 4"/><g id="node1" class="node"><title>Node0</title><g id="a_node1"><a xlink:title="Basic function to run NEArithmeticOperationKernel for squared difference."><polygon fill="#bfbfbf" stroke="#000" points="0 -.5 0 -19.5 146 -19.5 146 -.5 0 -.5"/><text x="73" y="-7.5" font-family="Helvetica,sans-Serif" font-size="10" text-anchor="middle">NEElementwiseSquaredDiff</text></a></g></g><g id="node2" class="node"><title>Node1</title><g id="a_node2"><a target="_top" xlink:href="classarm__compute_1_1_i_n_e_simple_function.xhtml" xlink:title="Basic interface for functions which have a single NEON kernel."><polygon fill="#fff" stroke="#000" points="20.5 -56.5 20.5 -75.5 125.5 -75.5 125.5 -56.5 20.5 -56.5"/><text x="73" y="-63.5" font-family="Helvetica,sans-Serif" font-size="10" text-anchor="middle">INESimpleFunction</text></a></g></g><g id="edge1" class="edge"><title>Node1-&gt;Node0</title><path fill="none" stroke="#191970" d="M73,-45.8045C73,-36.9102 73,-26.7798 73,-19.7511"/><polygon fill="#191970" stroke="#191970" points="69.5 -46.083 73 -56.083 76.5 -46.083 69.5 -46.083"/></g><g id="node3" class="node"><title>Node2</title><g id="a_node3"><a target="_top" xlink:href="classarm__compute_1_1_i_function.xhtml" xlink:title="Base class for all functions."><polygon fill="#fff" stroke="#000" points="43.5 -112.5 43.5 -131.5 102.5 -131.5 102.5 -112.5 43.5 -112.5"/><text x="73" y="-119.5" font-family="Helvetica,sans-Serif" font-size="10" text-anchor="middle">IFunction</text></a></g></g><g id="edge2" class="edge"><title>Node2-&gt;Node1</title><path fill="none" stroke="#191970" d="M73,-101.805C73,-92.9102 73,-82.7798 73,-75.7511"/><polygon fill="#191970" stroke="#191970" points="69.5 -102.083 73 -112.083 76.5 -102.083 69.5 -102.083"/></g></g></svg>