<svg xmlns="http://www.w3.org/2000/svg" xmlns:xlink="http://www.w3.org/1999/xlink" width="116pt" height="336" viewBox="0 0 116 252"><g id="graph0" class="graph" transform="scale(1 1) rotate(0) translate(4 248)"><title>CLBitwiseNotKernel</title><polygon fill="#fff" stroke="none" points="-4 4 -4 -248 112 -248 112 4 -4 4"/><g id="node1" class="node"><title>Node0</title><g id="a_node1"><a xlink:title="Interface for the bitwise NOT operation kernel."><polygon fill="#bfbfbf" stroke="#000" points="0 -.5 0 -19.5 108 -19.5 108 -.5 0 -.5"/><text x="54" y="-7.5" font-family="Helvetica,sans-Serif" font-size="10" text-anchor="middle">CLBitwiseNotKernel</text></a></g></g><g id="node2" class="node"><title>Node1</title><g id="a_node2"><a target="_top" xlink:href="classarm__compute_1_1_i_c_l_simple2_d_kernel.xhtml" xlink:title="Interface for simple OpenCL kernels having 1 tensor input and 1 tensor output."><polygon fill="#fff" stroke="#000" points=".5 -56.5 .5 -75.5 107.5 -75.5 107.5 -56.5 .5 -56.5"/><text x="54" y="-63.5" font-family="Helvetica,sans-Serif" font-size="10" text-anchor="middle">ICLSimple2DKernel</text></a></g></g><g id="edge1" class="edge"><title>Node1-&gt;Node0</title><path fill="none" stroke="#191970" d="M54,-45.8045C54,-36.9102 54,-26.7798 54,-19.7511"/><polygon fill="#191970" stroke="#191970" points="50.5 -46.083 54 -56.083 57.5 -46.083 50.5 -46.083"/></g><g id="node3" class="node"><title>Node2</title><g id="a_node3"><a target="_top" xlink:href="classarm__compute_1_1_i_c_l_simple_kernel.xhtml" xlink:title="Interface for simple OpenCL kernels having 1 tensor input and 1 tensor output."><polygon fill="#fff" stroke="#000" points="7.5 -112.5 7.5 -131.5 100.5 -131.5 100.5 -112.5 7.5 -112.5"/><text x="54" y="-119.5" font-family="Helvetica,sans-Serif" font-size="10" text-anchor="middle">ICLSimpleKernel</text></a></g></g><g id="edge2" class="edge"><title>Node2-&gt;Node1</title><path fill="none" stroke="#191970" d="M54,-101.805C54,-92.9102 54,-82.7798 54,-75.7511"/><polygon fill="#191970" stroke="#191970" points="50.5 -102.083 54 -112.083 57.5 -102.083 50.5 -102.083"/></g><g id="node4" class="node"><title>Node3</title><g id="a_node4"><a target="_top" xlink:href="classarm__compute_1_1_i_c_l_kernel.xhtml" xlink:title="Common interface for all the OpenCL kernels."><polygon fill="#fff" stroke="#000" points="24 -168.5 24 -187.5 84 -187.5 84 -168.5 24 -168.5"/><text x="54" y="-175.5" font-family="Helvetica,sans-Serif" font-size="10" text-anchor="middle">ICLKernel</text></a></g></g><g id="edge3" class="edge"><title>Node3-&gt;Node2</title><path fill="none" stroke="#191970" d="M54,-157.805C54,-148.91 54,-138.78 54,-131.751"/><polygon fill="#191970" stroke="#191970" points="50.5 -158.083 54 -168.083 57.5 -158.083 50.5 -158.083"/></g><g id="node5" class="node"><title>Node4</title><g id="a_node5"><a target="_top" xlink:href="classarm__compute_1_1_i_kernel.xhtml" xlink:title="Common information for all the kernels."><polygon fill="#fff" stroke="#000" points="30 -224.5 30 -243.5 78 -243.5 78 -224.5 30 -224.5"/><text x="54" y="-231.5" font-family="Helvetica,sans-Serif" font-size="10" text-anchor="middle">IKernel</text></a></g></g><g id="edge4" class="edge"><title>Node4-&gt;Node3</title><path fill="none" stroke="#191970" d="M54,-213.805C54,-204.91 54,-194.78 54,-187.751"/><polygon fill="#191970" stroke="#191970" points="50.5 -214.083 54 -224.083 57.5 -214.083 50.5 -214.083"/></g></g></svg>