<svg xmlns="http://www.w3.org/2000/svg" xmlns:xlink="http://www.w3.org/1999/xlink" width="112pt" height="140pt" viewBox="0 0 112 140"><g id="graph0" class="graph" transform="scale(1 1) rotate(0) translate(4 136)"><title>CLAbsLayer</title><polygon fill="#fff" stroke="none" points="-4 4 -4 -136 108 -136 108 4 -4 4"/><g id="node1" class="node"><title>Node0</title><g id="a_node1"><a xlink:title="Basic function to get the absolute value of an input tensor."><polygon fill="#bfbfbf" stroke="#000" points="15.5 -.5 15.5 -19.5 88.5 -19.5 88.5 -.5 15.5 -.5"/><text x="52" y="-7.5" font-family="Helvetica,sans-Serif" font-size="10" text-anchor="middle">CLAbsLayer</text></a></g></g><g id="node2" class="node"><title>Node1</title><g id="a_node2"><a target="_top" xlink:href="classarm__compute_1_1_i_c_l_simple_function.xhtml" xlink:title="Basic interface for functions which have a single OpenCL kernel."><polygon fill="#fff" stroke="#000" points="0 -56.5 0 -75.5 104 -75.5 104 -56.5 0 -56.5"/><text x="52" y="-63.5" font-family="Helvetica,sans-Serif" font-size="10" text-anchor="middle">ICLSimpleFunction</text></a></g></g><g id="edge1" class="edge"><title>Node1-&gt;Node0</title><path fill="none" stroke="#191970" d="M52,-45.8045C52,-36.9102 52,-26.7798 52,-19.7511"/><polygon fill="#191970" stroke="#191970" points="48.5 -46.083 52 -56.083 55.5 -46.083 48.5 -46.083"/></g><g id="node3" class="node"><title>Node2</title><g id="a_node3"><a target="_top" xlink:href="classarm__compute_1_1_i_function.xhtml" xlink:title="Base class for all functions."><polygon fill="#fff" stroke="#000" points="22.5 -112.5 22.5 -131.5 81.5 -131.5 81.5 -112.5 22.5 -112.5"/><text x="52" y="-119.5" font-family="Helvetica,sans-Serif" font-size="10" text-anchor="middle">IFunction</text></a></g></g><g id="edge2" class="edge"><title>Node2-&gt;Node1</title><path fill="none" stroke="#191970" d="M52,-101.805C52,-92.9102 52,-82.7798 52,-75.7511"/><polygon fill="#191970" stroke="#191970" points="48.5 -102.083 52 -112.083 55.5 -102.083 48.5 -102.083"/></g></g></svg>