<svg xmlns="http://www.w3.org/2000/svg" xmlns:xlink="http://www.w3.org/1999/xlink" width="121pt" height="140pt" viewBox="0 0 121 140"><g id="graph0" class="graph" transform="scale(1 1) rotate(0) translate(4 136)"><title>NEStackLayerKernel</title><polygon fill="#fff" stroke="none" points="-4 4 -4 -136 117 -136 117 4 -4 4"/><g id="node1" class="node"><title>Node0</title><g id="a_node1"><a xlink:title="NEON kernel to stacks a rank-R tensor into one with rank-(R+1) along the axis dimension."><polygon fill="#bfbfbf" stroke="#000" points="0 -.5 0 -19.5 113 -19.5 113 -.5 0 -.5"/><text x="56.5" y="-7.5" font-family="Helvetica,sans-Serif" font-size="10" text-anchor="middle">NEStackLayerKernel</text></a></g></g><g id="node2" class="node"><title>Node1</title><g id="a_node2"><a target="_top" xlink:href="classarm__compute_1_1_i_c_p_p_kernel.xhtml" xlink:title="Common interface for all kernels implemented in C++."><polygon fill="#fff" stroke="#000" points="25.5 -56.5 25.5 -75.5 87.5 -75.5 87.5 -56.5 25.5 -56.5"/><text x="56.5" y="-63.5" font-family="Helvetica,sans-Serif" font-size="10" text-anchor="middle">INEKernel</text></a></g></g><g id="edge1" class="edge"><title>Node1-&gt;Node0</title><path fill="none" stroke="#191970" d="M56.5,-45.8045C56.5,-36.9102 56.5,-26.7798 56.5,-19.7511"/><polygon fill="#191970" stroke="#191970" points="53 -46.083 56.5 -56.083 60 -46.083 53 -46.083"/></g><g id="node3" class="node"><title>Node2</title><g id="a_node3"><a target="_top" xlink:href="classarm__compute_1_1_i_kernel.xhtml" xlink:title="Common information for all the kernels."><polygon fill="#fff" stroke="#000" points="32.5 -112.5 32.5 -131.5 80.5 -131.5 80.5 -112.5 32.5 -112.5"/><text x="56.5" y="-119.5" font-family="Helvetica,sans-Serif" font-size="10" text-anchor="middle">IKernel</text></a></g></g><g id="edge2" class="edge"><title>Node2-&gt;Node1</title><path fill="none" stroke="#191970" d="M56.5,-101.805C56.5,-92.9102 56.5,-82.7798 56.5,-75.7511"/><polygon fill="#191970" stroke="#191970" points="53 -102.083 56.5 -112.083 60 -102.083 53 -102.083"/></g></g></svg>