<svg xmlns="http://www.w3.org/2000/svg" xmlns:xlink="http://www.w3.org/1999/xlink" width="212" height="308pt" viewBox="0 0 159 308"><g id="graph0" class="graph" transform="scale(1 1) rotate(0) translate(4 304)"><title>CLDepthConvertLayerKernel</title><polygon fill="#fff" stroke="none" points="-4 4 -4 -304 155 -304 155 4 -4 4"/><g id="node1" class="node"><title>Node0</title><g id="a_node1"><a xlink:title="Interface for the depth conversion kernel."><polygon fill="#bfbfbf" stroke="#000" points="0 -.5 0 -19.5 151 -19.5 151 -.5 0 -.5"/><text x="75.5" y="-7.5" font-family="Helvetica,sans-Serif" font-size="10" text-anchor="middle">CLDepthConvertLayerKernel</text></a></g></g><g id="node2" class="node"><title>Node1</title><g id="a_node2"><a target="_top" xlink:href="classarm__compute_1_1_i_c_l_simple3_d_kernel.xhtml" xlink:title="Interface for simple OpenCL kernels having 1 tensor input and 1 tensor output."><polygon fill="#fff" stroke="#000" points="22 -56.5 22 -75.5 129 -75.5 129 -56.5 22 -56.5"/><text x="75.5" y="-63.5" font-family="Helvetica,sans-Serif" font-size="10" text-anchor="middle">ICLSimple3DKernel</text></a></g></g><g id="edge1" class="edge"><title>Node1-&gt;Node0</title><path fill="none" stroke="#191970" d="M75.5,-45.8045C75.5,-36.9102 75.5,-26.7798 75.5,-19.7511"/><polygon fill="#191970" stroke="#191970" points="72 -46.083 75.5 -56.083 79 -46.083 72 -46.083"/></g><g id="node3" class="node"><title>Node2</title><g id="a_node3"><a target="_top" xlink:href="classarm__compute_1_1_i_c_l_simple2_d_kernel.xhtml" xlink:title="Interface for simple OpenCL kernels having 1 tensor input and 1 tensor output."><polygon fill="#fff" stroke="#000" points="22 -112.5 22 -131.5 129 -131.5 129 -112.5 22 -112.5"/><text x="75.5" y="-119.5" font-family="Helvetica,sans-Serif" font-size="10" text-anchor="middle">ICLSimple2DKernel</text></a></g></g><g id="edge2" class="edge"><title>Node2-&gt;Node1</title><path fill="none" stroke="#191970" d="M75.5,-101.805C75.5,-92.9102 75.5,-82.7798 75.5,-75.7511"/><polygon fill="#191970" stroke="#191970" points="72 -102.083 75.5 -112.083 79 -102.083 72 -102.083"/></g><g id="node4" class="node"><title>Node3</title><g id="a_node4"><a target="_top" xlink:href="classarm__compute_1_1_i_c_l_simple_kernel.xhtml" xlink:title="Interface for simple OpenCL kernels having 1 tensor input and 1 tensor output."><polygon fill="#fff" stroke="#000" points="29 -168.5 29 -187.5 122 -187.5 122 -168.5 29 -168.5"/><text x="75.5" y="-175.5" font-family="Helvetica,sans-Serif" font-size="10" text-anchor="middle">ICLSimpleKernel</text></a></g></g><g id="edge3" class="edge"><title>Node3-&gt;Node2</title><path fill="none" stroke="#191970" d="M75.5,-157.805C75.5,-148.91 75.5,-138.78 75.5,-131.751"/><polygon fill="#191970" stroke="#191970" points="72 -158.083 75.5 -168.083 79 -158.083 72 -158.083"/></g><g id="node5" class="node"><title>Node4</title><g id="a_node5"><a target="_top" xlink:href="classarm__compute_1_1_i_c_l_kernel.xhtml" xlink:title="Common interface for all the OpenCL kernels."><polygon fill="#fff" stroke="#000" points="45.5 -224.5 45.5 -243.5 105.5 -243.5 105.5 -224.5 45.5 -224.5"/><text x="75.5" y="-231.5" font-family="Helvetica,sans-Serif" font-size="10" text-anchor="middle">ICLKernel</text></a></g></g><g id="edge4" class="edge"><title>Node4-&gt;Node3</title><path fill="none" stroke="#191970" d="M75.5,-213.805C75.5,-204.91 75.5,-194.78 75.5,-187.751"/><polygon fill="#191970" stroke="#191970" points="72 -214.083 75.5 -224.083 79 -214.083 72 -214.083"/></g><g id="node6" class="node"><title>Node5</title><g id="a_node6"><a target="_top" xlink:href="classarm__compute_1_1_i_kernel.xhtml" xlink:title="Common information for all the kernels."><polygon fill="#fff" stroke="#000" points="51.5 -280.5 51.5 -299.5 99.5 -299.5 99.5 -280.5 51.5 -280.5"/><text x="75.5" y="-287.5" font-family="Helvetica,sans-Serif" font-size="10" text-anchor="middle">IKernel</text></a></g></g><g id="edge5" class="edge"><title>Node5-&gt;Node4</title><path fill="none" stroke="#191970" d="M75.5,-269.805C75.5,-260.91 75.5,-250.78 75.5,-243.751"/><polygon fill="#191970" stroke="#191970" points="72 -270.083 75.5 -280.083 79 -270.083 72 -270.083"/></g></g></svg>