<svg xmlns="http://www.w3.org/2000/svg" xmlns:xlink="http://www.w3.org/1999/xlink" width="136pt" height="140pt" viewBox="0 0 136 140"><g id="graph0" class="graph" transform="scale(1 1) rotate(0) translate(4 136)"><title>GCGEMMTranspose1xW</title><polygon fill="#fff" stroke="none" points="-4 4 -4 -136 132 -136 132 4 -4 4"/><g id="node1" class="node"><title>Node0</title><g id="a_node1"><a xlink:title="Basic function to execute GCGEMMTranspose1xWKernel."><polygon fill="#bfbfbf" stroke="#000" points="0 -.5 0 -19.5 128 -19.5 128 -.5 0 -.5"/><text x="64" y="-7.5" font-family="Helvetica,sans-Serif" font-size="10" text-anchor="middle">GCGEMMTranspose1xW</text></a></g></g><g id="node2" class="node"><title>Node1</title><g id="a_node2"><a target="_top" xlink:href="classarm__compute_1_1_i_g_c_simple_function.xhtml" xlink:title="Basic interface for functions which have a single OpenGL ES kernel."><polygon fill="#fff" stroke="#000" points="11 -56.5 11 -75.5 117 -75.5 117 -56.5 11 -56.5"/><text x="64" y="-63.5" font-family="Helvetica,sans-Serif" font-size="10" text-anchor="middle">IGCSimpleFunction</text></a></g></g><g id="edge1" class="edge"><title>Node1-&gt;Node0</title><path fill="none" stroke="#191970" d="M64,-45.8045C64,-36.9102 64,-26.7798 64,-19.7511"/><polygon fill="#191970" stroke="#191970" points="60.5 -46.083 64 -56.083 67.5 -46.083 60.5 -46.083"/></g><g id="node3" class="node"><title>Node2</title><g id="a_node3"><a target="_top" xlink:href="classarm__compute_1_1_i_function.xhtml" xlink:title="Base class for all functions."><polygon fill="#fff" stroke="#000" points="34.5 -112.5 34.5 -131.5 93.5 -131.5 93.5 -112.5 34.5 -112.5"/><text x="64" y="-119.5" font-family="Helvetica,sans-Serif" font-size="10" text-anchor="middle">IFunction</text></a></g></g><g id="edge2" class="edge"><title>Node2-&gt;Node1</title><path fill="none" stroke="#191970" d="M64,-101.805C64,-92.9102 64,-82.7798 64,-75.7511"/><polygon fill="#191970" stroke="#191970" points="60.5 -102.083 64 -112.083 67.5 -102.083 60.5 -102.083"/></g></g></svg>