<svg xmlns="http://www.w3.org/2000/svg" xmlns:xlink="http://www.w3.org/1999/xlink" width="1151pt" height="512pt" viewBox="0 0 1151 512.29"><g id="graph0" class="graph" transform="scale(1 1) rotate(0) translate(4 508.289)"><title>CommonGraphOptions</title><polygon fill="#fff" stroke="none" points="-4 4 -4 -508.289 1147 -508.289 1147 4 -4 4"/><g id="node1" class="node"><title>Node0</title><g id="a_node1"><a xlink:title="Common command line options used to configure the graph examples."><polygon fill="#bfbfbf" stroke="#000" points="1016 -229.789 1016 -248.789 1143 -248.789 1143 -229.789 1016 -229.789"/><text x="1079.5" y="-236.789" font-family="Helvetica,sans-Serif" font-size="10" text-anchor="middle">CommonGraphOptions</text></a></g></g><g id="node2" class="node"><title>Node1</title><g id="a_node2"><a target="_top" xlink:href="classarm__compute_1_1utils_1_1_toggle_option.xhtml" xlink:title="Implementation of an option that can be either true or false."><polygon fill="#fff" stroke="#000" points="781.5 -381.789 781.5 -400.789 859.5 -400.789 859.5 -381.789 781.5 -381.789"/><text x="820.5" y="-388.789" font-family="Helvetica,sans-Serif" font-size="10" text-anchor="middle">ToggleOption</text></a></g></g><g id="edge1" class="edge"><title>Node1-&gt;Node0</title><path fill="none" stroke="#9a32cd" stroke-dasharray="5 2" d="M869.711,-388.037C914.523,-384.239 977.363,-376.696 998,-363.289 1041.91,-334.763 1066.96,-272.959 1075.32,-249.028"/><polygon fill="#9a32cd" stroke="#9a32cd" points="869.28 -384.561 859.596 -388.858 869.846 -391.538 869.28 -384.561"/><text x="957" y="-419.289" font-family="Helvetica,sans-Serif" font-size="10" text-anchor="middle">enable_cl_cache</text><text x="957" y="-408.289" font-family="Helvetica,sans-Serif" font-size="10" text-anchor="middle">help</text><text x="957" y="-397.289" font-family="Helvetica,sans-Serif" font-size="10" text-anchor="middle">enable_tuner</text><text x="957" y="-386.289" font-family="Helvetica,sans-Serif" font-size="10" text-anchor="middle">fast_math_hint</text></g><g id="node3" class="node"><title>Node2</title><g id="a_node3"><a target="_top" xlink:href="classarm__compute_1_1utils_1_1_simple_option.xhtml"><polygon fill="#fff" stroke="#000" points="410 -381.789 410 -400.789 534 -400.789 534 -381.789 410 -381.789"/><text x="472" y="-388.789" font-family="Helvetica,sans-Serif" font-size="10" text-anchor="middle">SimpleOption&lt; bool &gt;</text></a></g></g><g id="edge2" class="edge"><title>Node2-&gt;Node1</title><path fill="none" stroke="#191970" d="M544.488,-391.289C616.409,-391.289 724.576,-391.289 781.448,-391.289"/><polygon fill="#191970" stroke="#191970" points="544.15 -387.789 534.15 -391.289 544.15 -394.789 544.15 -387.789"/></g><g id="node4" class="node"><title>Node3</title><g id="a_node4"><a target="_top" xlink:href="classarm__compute_1_1utils_1_1_option.xhtml" xlink:title="Abstract base class for a command line option."><polygon fill="#fff" stroke="#000" points="0 -248.789 0 -267.789 48 -267.789 48 -248.789 0 -248.789"/><text x="24" y="-255.789" font-family="Helvetica,sans-Serif" font-size="10" text-anchor="middle">Option</text></a></g></g><g id="edge3" class="edge"><title>Node3-&gt;Node2</title><path fill="none" stroke="#191970" d="M34.3154,-276.871C44.6901,-296.206 62.9379,-326.506 85,-347.289 132.716,-392.236 148.766,-405.011 212,-422.289 281.454,-441.266 302.859,-433.38 374,-422.289 400.028,-418.231 428.617,-408.395 447.969,-400.882"/><polygon fill="#191970" stroke="#191970" points="37.351 -275.122 29.629 -267.868 31.142 -278.354 37.351 -275.122"/></g><g id="node5" class="node"><title>Node4</title><g id="a_node5"><a target="_top" xlink:href="classarm__compute_1_1utils_1_1_simple_option.xhtml" xlink:title="Implementation of an option that accepts a single value."><polygon fill="#fff" stroke="#000" points="85 -248.789 85 -267.789 194 -267.789 194 -248.789 85 -248.789"/><text x="139.5" y="-255.789" font-family="Helvetica,sans-Serif" font-size="10" text-anchor="middle">SimpleOption&lt; T &gt;</text></a></g></g><g id="edge5" class="edge"><title>Node3-&gt;Node4</title><path fill="none" stroke="#191970" d="M58.2926,-258.289C66.6278,-258.289 75.7825,-258.289 84.8323,-258.289"/><polygon fill="#191970" stroke="#191970" points="58.242 -254.789 48.242 -258.289 58.242 -261.789 58.242 -254.789"/></g><g id="node6" class="node"><title>Node5</title><g id="a_node6"><a target="_top" xlink:href="classarm__compute_1_1utils_1_1_simple_option.xhtml"><polygon fill="#fff" stroke="#000" points="414 -342.789 414 -361.789 530 -361.789 530 -342.789 414 -342.789"/><text x="472" y="-349.789" font-family="Helvetica,sans-Serif" font-size="10" text-anchor="middle">SimpleOption&lt; int &gt;</text></a></g></g><g id="edge7" class="edge"><title>Node3-&gt;Node5</title><path fill="none" stroke="#191970" d="M43.0253,-274.711C54.4975,-284.641 69.9762,-297.112 85,-306.289 137.799,-338.537 151.502,-350.335 212,-363.289 283.293,-378.554 368.073,-370.094 420.721,-361.823"/><polygon fill="#191970" stroke="#191970" points="45.255 -272.011 35.444 -268.012 40.62 -277.256 45.255 -272.011"/></g><g id="node8" class="node"><title>Node7</title><g id="a_node8"><a target="_top" xlink:href="classarm__compute_1_1utils_1_1_simple_option.xhtml"><polygon fill="#fff" stroke="#000" points="392 -20.289 392 -50.289 552 -50.289 552 -20.289 392 -20.289"/><text x="400" y="-38.289" font-family="Helvetica,sans-Serif" font-size="10" text-anchor="start">SimpleOption&lt; arm_compute</text><text x="472" y="-27.289" font-family="Helvetica,sans-Serif" font-size="10" text-anchor="middle">::graph::Target &gt;</text></a></g></g><g id="edge11" class="edge"><title>Node3-&gt;Node7</title><path fill="none" stroke="#191970" d="M27.2085,-238.659C33.1876,-189.722 51.5342,-64.6962 85,-43.2886 187.482,22.2678 338.674,-1.11145 417.993,-20.2709"/><polygon fill="#191970" stroke="#191970" points="23.729 -238.284 26.035 -248.625 30.68 -239.103 23.729 -238.284"/></g><g id="node10" class="node"><title>Node9</title><g id="a_node10"><a target="_top" xlink:href="classarm__compute_1_1utils_1_1_simple_option.xhtml" xlink:title="Implementation of an option that accepts a single value."><polygon fill="#fff" stroke="#000" points="85 -52.789 85 -71.789 194 -71.789 194 -52.789 85 -52.789"/><text x="139.5" y="-59.789" font-family="Helvetica,sans-Serif" font-size="10" text-anchor="middle">SimpleOption&lt; T &gt;</text></a></g></g><g id="edge15" class="edge"><title>Node3-&gt;Node9</title><path fill="none" stroke="#191970" d="M27.3081,-238.349C32.3607,-197.977 45.6037,-108.512 66,-86.2886 71.8273,-79.9393 79.3694,-75.2671 87.3798,-71.8295"/><polygon fill="#191970" stroke="#191970" points="23.826 -237.989 26.101 -248.337 30.776 -238.829 23.826 -237.989"/></g><g id="node11" class="node"><title>Node10</title><g id="a_node11"><a target="_top" xlink:href="classarm__compute_1_1utils_1_1_simple_option.xhtml"><polygon fill="#fff" stroke="#000" points="392 -429.289 392 -459.289 552 -459.289 552 -429.289 392 -429.289"/><text x="400" y="-447.289" font-family="Helvetica,sans-Serif" font-size="10" text-anchor="start">SimpleOption&lt; arm_compute</text><text x="472" y="-436.289" font-family="Helvetica,sans-Serif" font-size="10" text-anchor="middle">::CLTunerMode &gt;</text></a></g></g><g id="edge17" class="edge"><title>Node3-&gt;Node10</title><path fill="none" stroke="#191970" d="M28.3871,-277.731C34.5236,-307.311 50.2165,-363.618 85,-396.289 166.709,-473.035 304.754,-470.433 391.717,-459.119"/><polygon fill="#191970" stroke="#191970" points="31.805 -276.97 26.483 -267.809 24.93 -278.289 31.805 -276.97"/></g><g id="node13" class="node"><title>Node12</title><g id="a_node13"><a target="_top" xlink:href="classarm__compute_1_1utils_1_1_simple_option.xhtml"><polygon fill="#fff" stroke="#000" points="392 -142.289 392 -172.289 552 -172.289 552 -142.289 392 -142.289"/><text x="400" y="-160.289" font-family="Helvetica,sans-Serif" font-size="10" text-anchor="start">SimpleOption&lt; arm_compute</text><text x="472" y="-149.289" font-family="Helvetica,sans-Serif" font-size="10" text-anchor="middle">::DataLayout &gt;</text></a></g></g><g id="edge21" class="edge"><title>Node3-&gt;Node12</title><path fill="none" stroke="#191970" d="M34.6677,-239.695C45.1289,-220.922 63.2631,-191.966 85,-172.289 132.941,-128.891 149.423,-117.593 212,-101.289 281.674,-83.135 307.481,-73.7354 374,-101.289 384.453,-105.618 382.771,-112.744 392,-119.289 404.539,-128.181 419.48,-135.971 432.977,-142.146"/><polygon fill="#191970" stroke="#191970" points="31.468 -238.254 29.794 -248.716 37.627 -241.581 31.468 -238.254"/></g><g id="node15" class="node"><title>Node14</title><g id="a_node15"><a target="_top" xlink:href="classarm__compute_1_1utils_1_1_simple_option.xhtml"><polygon fill="#fff" stroke="#000" points="392 -191.289 392 -221.289 552 -221.289 552 -191.289 392 -191.289"/><text x="400" y="-209.289" font-family="Helvetica,sans-Serif" font-size="10" text-anchor="start">SimpleOption&lt; arm_compute</text><text x="472" y="-198.289" font-family="Helvetica,sans-Serif" font-size="10" text-anchor="middle">::DataType &gt;</text></a></g></g><g id="edge26" class="edge"><title>Node3-&gt;Node14</title><path fill="none" stroke="#191970" d="M48.5014,-243.224C82.8119,-222.217 149.364,-185.146 212,-171.289 282.3,-155.736 304.302,-153.228 374,-171.289 382.859,-173.584 383.595,-177.668 392,-181.289 400.323,-184.874 409.334,-188.21 418.191,-191.2"/><polygon fill="#191970" stroke="#191970" points="46.354 -240.438 39.709 -248.69 50.05 -246.382 46.354 -240.438"/></g><g id="node16" class="node"><title>Node15</title><g id="a_node16"><a target="_top" xlink:href="classarm__compute_1_1utils_1_1_simple_option.xhtml"><polygon fill="#fff" stroke="#000" points="415.5 -243.289 415.5 -273.289 528.5 -273.289 528.5 -243.289 415.5 -243.289"/><text x="423.5" y="-261.289" font-family="Helvetica,sans-Serif" font-size="10" text-anchor="start">SimpleOption&lt; std::</text><text x="472" y="-250.289" font-family="Helvetica,sans-Serif" font-size="10" text-anchor="middle">string &gt;</text></a></g></g><g id="edge30" class="edge"><title>Node3-&gt;Node15</title><path fill="none" stroke="#191970" d="M57.7802,-270.211C120.023,-291.178 259.349,-330.096 374,-304.289 400.365,-298.354 427.983,-284.384 446.976,-273.386"/><polygon fill="#191970" stroke="#191970" points="58.714 -266.831 48.119 -266.89 56.439 -273.451 58.714 -266.831"/></g><g id="edge4" class="edge"><title>Node4-&gt;Node2</title><path fill="none" stroke="orange" stroke-dasharray="5 2" d="M153.983,-276.48C167.031,-292.77 188.276,-316.068 212,-329.289 246.582,-348.561 350.796,-369.793 416.008,-381.739"/><polygon fill="orange" stroke="orange" points="156.505 -274.021 147.614 -268.26 150.972 -278.308 156.505 -274.021"/><text x="293" y="-376.289" font-family="Helvetica,sans-Serif" font-size="10" text-anchor="middle">&lt; bool &gt;</text></g><g id="edge8" class="edge"><title>Node4-&gt;Node5</title><path fill="none" stroke="orange" stroke-dasharray="5 2" d="M191.887,-270.154C239.433,-281.448 311.924,-299.471 374,-318.289 398.592,-325.743 426.209,-335.569 445.667,-342.74"/><polygon fill="orange" stroke="orange" points="192.67 -266.743 182.133 -267.848 191.059 -273.555 192.67 -266.743"/><text x="293" y="-321.289" font-family="Helvetica,sans-Serif" font-size="10" text-anchor="middle">&lt; int &gt;</text></g><g id="edge12" class="edge"><title>Node4-&gt;Node7</title><path fill="none" stroke="orange" stroke-dasharray="5 2" d="M147.508,-239.042C157.864,-213.076 179.594,-166.907 212,-139.289 266.581,-92.7724 344.618,-65.2808 400.747,-50.3636"/><polygon fill="orange" stroke="orange" points="144.185 -237.931 143.877 -248.522 150.722 -240.435 144.185 -237.931"/><text x="235" y="-153.289" font-family="Helvetica,sans-Serif" font-size="10" text-anchor="start">&lt; arm_compute::graph</text><text x="293" y="-142.289" font-family="Helvetica,sans-Serif" font-size="10" text-anchor="middle">::Target &gt;</text></g><g id="edge18" class="edge"><title>Node4-&gt;Node10</title><path fill="none" stroke="orange" stroke-dasharray="5 2" d="M145.578,-277.68C154.18,-306.519 174.457,-360.31 212,-388.289 263.735,-426.843 336.52,-439.961 391.763,-443.942"/><polygon fill="orange" stroke="orange" points="148.919 -276.632 142.841 -267.954 142.181 -278.529 148.919 -276.632"/><text x="293" y="-445.289" font-family="Helvetica,sans-Serif" font-size="10" text-anchor="middle">&lt; arm_compute::CLTunerMode &gt;</text></g><g id="edge22" class="edge"><title>Node4-&gt;Node12</title><path fill="none" stroke="orange" stroke-dasharray="5 2" d="M157.775,-241.513C171.4,-229.265 191.472,-213.289 212,-204.289 269.131,-179.241 338.972,-167.542 391.727,-162.078"/><polygon fill="orange" stroke="orange" points="155.128 -239.195 150.178 -248.562 159.889 -244.326 155.128 -239.195"/><text x="293" y="-207.289" font-family="Helvetica,sans-Serif" font-size="10" text-anchor="middle">&lt; arm_compute::DataLayout &gt;</text></g><g id="edge27" class="edge"><title>Node4-&gt;Node14</title><path fill="none" stroke="orange" stroke-dasharray="5 2" d="M194.007,-246.669C200.065,-245.471 206.158,-244.317 212,-243.289 272.054,-232.711 340.35,-223.052 391.727,-216.257"/><polygon fill="orange" stroke="orange" points="193.003 -243.301 183.895 -248.714 194.391 -250.163 193.003 -243.301"/><text x="293" y="-246.289" font-family="Helvetica,sans-Serif" font-size="10" text-anchor="middle">&lt; arm_compute::DataType &gt;</text></g><g id="edge31" class="edge"><title>Node4-&gt;Node15</title><path fill="none" stroke="orange" stroke-dasharray="5 2" d="M204.64,-258.289C265.818,-258.289 357.028,-258.289 415.254,-258.289"/><polygon fill="orange" stroke="orange" points="204.336 -254.789 194.336 -258.289 204.336 -261.789 204.336 -254.789"/><text x="293" y="-261.289" font-family="Helvetica,sans-Serif" font-size="10" text-anchor="middle">&lt; std::string &gt;</text></g><g id="edge6" class="edge"><title>Node5-&gt;Node0</title><path fill="none" stroke="#9a32cd" stroke-dasharray="5 2" d="M540.204,-357.244C625.109,-361.603 774.993,-362.925 898,-330.289 964.484,-312.649 1034.97,-268.678 1064.36,-249.035"/><polygon fill="#9a32cd" stroke="#9a32cd" points="540.354 -353.747 530.178 -356.7 539.974 -360.737 540.354 -353.747"/><text x="820.5" y="-358.289" font-family="Helvetica,sans-Serif" font-size="10" text-anchor="middle">threads</text></g><g id="node7" class="node"><title>Node6</title><g id="a_node7"><a target="_top" xlink:href="classarm__compute_1_1utils_1_1_enum_option.xhtml"><polygon fill="#fff" stroke="#000" points="743 -53.289 743 -83.289 898 -83.289 898 -53.289 743 -53.289"/><text x="751" y="-71.289" font-family="Helvetica,sans-Serif" font-size="10" text-anchor="start">EnumOption&lt; arm_compute</text><text x="820.5" y="-60.289" font-family="Helvetica,sans-Serif" font-size="10" text-anchor="middle">::graph::Target &gt;</text></a></g></g><g id="edge9" class="edge"><title>Node6-&gt;Node0</title><path fill="none" stroke="#9a32cd" stroke-dasharray="5 2" d="M884.908,-86.5731C920.351,-98.7473 964.077,-117.161 998,-142.289 1032.29,-167.689 1061.05,-210.675 1072.81,-229.717"/><polygon fill="#9a32cd" stroke="#9a32cd" points="885.74 -83.161 875.146 -83.304 883.517 -89.799 885.74 -83.161"/><text x="957" y="-145.289" font-family="Helvetica,sans-Serif" font-size="10" text-anchor="middle">target</text></g><g id="edge10" class="edge"><title>Node7-&gt;Node6</title><path fill="none" stroke="#191970" d="M562.286,-43.1222C610.491,-47.431 671.02,-52.9694 725,-58.2886 730.829,-58.8629 736.858,-59.4703 742.92,-60.0905"/><polygon fill="#191970" stroke="#191970" points="562.465 -39.624 552.194 -42.222 561.843 -46.597 562.465 -39.624"/></g><g id="node9" class="node"><title>Node8</title><g id="a_node9"><a target="_top" xlink:href="classarm__compute_1_1utils_1_1_enum_option.xhtml" xlink:title="Implementation of a simple option that accepts a value from a fixed set."><polygon fill="#fff" stroke="#000" points="420 -90.789 420 -109.789 524 -109.789 524 -90.789 420 -90.789"/><text x="472" y="-97.789" font-family="Helvetica,sans-Serif" font-size="10" text-anchor="middle">EnumOption&lt; T &gt;</text></a></g></g><g id="edge13" class="edge"><title>Node8-&gt;Node6</title><path fill="none" stroke="orange" stroke-dasharray="5 2" d="M505.482,-87.1628C524.041,-80.3644 547.944,-72.7726 570,-69.2886 627.44,-60.2152 693.25,-60.3833 742.855,-62.5953"/><polygon fill="orange" stroke="orange" points="504.158 -83.921 496.035 -90.723 506.627 -90.472 504.158 -83.921"/><text x="589.5" y="-83.289" font-family="Helvetica,sans-Serif" font-size="10" text-anchor="start">&lt; arm_compute::graph</text><text x="647.5" y="-72.289" font-family="Helvetica,sans-Serif" font-size="10" text-anchor="middle">::Target &gt;</text></g><g id="node12" class="node"><title>Node11</title><g id="a_node12"><a target="_top" xlink:href="classarm__compute_1_1utils_1_1_enum_option.xhtml"><polygon fill="#fff" stroke="#000" points="743 -123.289 743 -153.289 898 -153.289 898 -123.289 743 -123.289"/><text x="751" y="-141.289" font-family="Helvetica,sans-Serif" font-size="10" text-anchor="start">EnumOption&lt; arm_compute</text><text x="820.5" y="-130.289" font-family="Helvetica,sans-Serif" font-size="10" text-anchor="middle">::DataLayout &gt;</text></a></g></g><g id="edge23" class="edge"><title>Node8-&gt;Node11</title><path fill="none" stroke="orange" stroke-dasharray="5 2" d="M534.705,-100.401C585.935,-101.287 660.573,-104.413 725,-114.289 739.055,-116.443 754.06,-119.768 767.88,-123.262"/><polygon fill="orange" stroke="orange" points="534.512 -96.898 524.461 -100.249 534.407 -103.897 534.512 -96.898"/><text x="647.5" y="-117.289" font-family="Helvetica,sans-Serif" font-size="10" text-anchor="middle">&lt; arm_compute::DataLayout &gt;</text></g><g id="node14" class="node"><title>Node13</title><g id="a_node14"><a target="_top" xlink:href="classarm__compute_1_1utils_1_1_enum_option.xhtml"><polygon fill="#fff" stroke="#000" points="743 -172.289 743 -202.289 898 -202.289 898 -172.289 743 -172.289"/><text x="751" y="-190.289" font-family="Helvetica,sans-Serif" font-size="10" text-anchor="start">EnumOption&lt; arm_compute</text><text x="820.5" y="-179.289" font-family="Helvetica,sans-Serif" font-size="10" text-anchor="middle">::DataType &gt;</text></a></g></g><g id="edge28" class="edge"><title>Node8-&gt;Node13</title><path fill="none" stroke="orange" stroke-dasharray="5 2" d="M519.95,-112.477C535.835,-116.577 553.681,-121.158 570,-125.289 634.254,-141.552 707.918,-159.81 758.454,-172.276"/><polygon fill="orange" stroke="orange" points="520.387 -108.975 509.83 -109.861 518.636 -115.752 520.387 -108.975"/><text x="647.5" y="-167.289" font-family="Helvetica,sans-Serif" font-size="10" text-anchor="middle">&lt; arm_compute::DataType &gt;</text></g><g id="edge14" class="edge"><title>Node9-&gt;Node8</title><path fill="none" stroke="#191970" d="M204.182,-62.9746C251.314,-64.2405 316.96,-67.5968 374,-76.2886 395.781,-79.6076 419.823,-85.5401 438.523,-90.6763"/><polygon fill="#191970" stroke="#191970" points="204.199 -59.474 194.117 -62.728 204.028 -66.472 204.199 -59.474"/></g><g id="edge16" class="edge"><title>Node10-&gt;Node0</title><path fill="none" stroke="#9a32cd" stroke-dasharray="5 2" d="M532.974,-461.928C637.577,-488.837 855.774,-527.443 998,-430.289 1061.88,-386.649 1075.24,-281.591 1077.88,-249.059"/><polygon fill="#9a32cd" stroke="#9a32cd" points="533.773 -458.519 523.212 -459.365 531.996 -465.29 533.773 -458.519"/><text x="820.5" y="-496.289" font-family="Helvetica,sans-Serif" font-size="10" text-anchor="middle">tuner_mode</text></g><g id="edge19" class="edge"><title>Node11-&gt;Node0</title><path fill="none" stroke="#9a32cd" stroke-dasharray="5 2" d="M907.994,-154.55C937.317,-161.692 969.776,-171.441 998,-184.289 1024.81,-196.49 1052.36,-217.514 1067.26,-229.73"/><polygon fill="#9a32cd" stroke="#9a32cd" points="908.718 -151.124 898.181 -152.227 907.106 -157.936 908.718 -151.124"/><text x="957" y="-187.289" font-family="Helvetica,sans-Serif" font-size="10" text-anchor="middle">data_layout</text></g><g id="edge20" class="edge"><title>Node12-&gt;Node11</title><path fill="none" stroke="#191970" d="M562.241,-163.071C610.556,-164.925 671.202,-165.194 725,-159.289 736.861,-157.987 749.412,-155.791 761.358,-153.299"/><polygon fill="#191970" stroke="#191970" points="562.261 -159.569 552.125 -162.652 561.972 -166.563 562.261 -159.569"/></g><g id="edge24" class="edge"><title>Node13-&gt;Node0</title><path fill="none" stroke="#9a32cd" stroke-dasharray="5 2" d="M908.427,-197.953C937.121,-202.172 969.087,-207.627 998,-214.289 1015.97,-218.429 1035.75,-224.55 1051.21,-229.698"/><polygon fill="#9a32cd" stroke="#9a32cd" points="908.822 -194.474 898.425 -196.513 907.824 -201.403 908.822 -194.474"/><text x="957" y="-217.289" font-family="Helvetica,sans-Serif" font-size="10" text-anchor="middle">data_type</text></g><g id="edge25" class="edge"><title>Node14-&gt;Node13</title><path fill="none" stroke="#191970" d="M562.314,-201.391C618.23,-198.325 689.527,-194.416 742.865,-191.491"/><polygon fill="#191970" stroke="#191970" points="561.853 -197.911 552.06 -201.953 562.236 -204.901 561.853 -197.911"/></g><g id="edge29" class="edge"><title>Node15-&gt;Node0</title><path fill="none" stroke="#9a32cd" stroke-dasharray="5 2" d="M538.9,-256.221C656.472,-252.531 900.832,-244.864 1015.95,-241.251"/><polygon fill="#9a32cd" stroke="#9a32cd" points="538.494 -252.732 528.609 -256.544 538.714 -259.728 538.494 -252.732"/><text x="820.5" y="-319.289" font-family="Helvetica,sans-Serif" font-size="10" text-anchor="middle">data_path</text><text x="820.5" y="-308.289" font-family="Helvetica,sans-Serif" font-size="10" text-anchor="middle">validation_range</text><text x="820.5" y="-297.289" font-family="Helvetica,sans-Serif" font-size="10" text-anchor="middle">validation_path</text><text x="820.5" y="-286.289" font-family="Helvetica,sans-Serif" font-size="10" text-anchor="middle">tuner_file</text><text x="820.5" y="-275.289" font-family="Helvetica,sans-Serif" font-size="10" text-anchor="middle">image</text><text x="820.5" y="-264.289" font-family="Helvetica,sans-Serif" font-size="10" text-anchor="middle">validation_file</text><text x="820.5" y="-253.289" font-family="Helvetica,sans-Serif" font-size="10" text-anchor="middle">labels</text></g></g></svg>