<svg xmlns="http://www.w3.org/2000/svg" xmlns:xlink="http://www.w3.org/1999/xlink" width="196" height="151pt" viewBox="0 0 147 151"><g id="graph0" class="graph" transform="scale(1 1) rotate(0) translate(4 147)"><title>NECumulativeDistributionKernel</title><polygon fill="#fff" stroke="none" points="-4 4 -4 -147 143 -147 143 4 -4 4"/><g id="node1" class="node"><title>Node0</title><g id="a_node1"><a xlink:title="Interface for the cumulative distribution (cummulative summmation) calculation kernel."><polygon fill="#bfbfbf" stroke="#000" points="0 -.5 0 -30.5 139 -30.5 139 -.5 0 -.5"/><text x="8" y="-18.5" font-family="Helvetica,sans-Serif" font-size="10" text-anchor="start">NECumulativeDistribution</text><text x="69.5" y="-7.5" font-family="Helvetica,sans-Serif" font-size="10" text-anchor="middle">Kernel</text></a></g></g><g id="node2" class="node"><title>Node1</title><g id="a_node2"><a target="_top" xlink:href="classarm__compute_1_1_i_c_p_p_kernel.xhtml" xlink:title="Common interface for all kernels implemented in C++."><polygon fill="#fff" stroke="#000" points="38.5 -67.5 38.5 -86.5 100.5 -86.5 100.5 -67.5 38.5 -67.5"/><text x="69.5" y="-74.5" font-family="Helvetica,sans-Serif" font-size="10" text-anchor="middle">INEKernel</text></a></g></g><g id="edge1" class="edge"><title>Node1-&gt;Node0</title><path fill="none" stroke="#191970" d="M69.5,-57.2349C69.5,-48.5864 69.5,-38.4969 69.5,-30.523"/><polygon fill="#191970" stroke="#191970" points="66 -57.475 69.5 -67.475 73 -57.475 66 -57.475"/></g><g id="node3" class="node"><title>Node2</title><g id="a_node3"><a target="_top" xlink:href="classarm__compute_1_1_i_kernel.xhtml" xlink:title="Common information for all the kernels."><polygon fill="#fff" stroke="#000" points="45.5 -123.5 45.5 -142.5 93.5 -142.5 93.5 -123.5 45.5 -123.5"/><text x="69.5" y="-130.5" font-family="Helvetica,sans-Serif" font-size="10" text-anchor="middle">IKernel</text></a></g></g><g id="edge2" class="edge"><title>Node2-&gt;Node1</title><path fill="none" stroke="#191970" d="M69.5,-112.805C69.5,-103.91 69.5,-93.7798 69.5,-86.7511"/><polygon fill="#191970" stroke="#191970" points="66 -113.083 69.5 -123.083 73 -113.083 66 -113.083"/></g></g></svg>