<svg xmlns="http://www.w3.org/2000/svg" xmlns:xlink="http://www.w3.org/1999/xlink" width="128" height="140pt" viewBox="0 0 96 140"><g id="graph0" class="graph" transform="scale(1 1) rotate(0) translate(4 136)"><title>CLSelectKernel</title><polygon fill="#fff" stroke="none" points="-4 4 -4 -136 92 -136 92 4 -4 4"/><g id="node1" class="node"><title>Node0</title><g id="a_node1"><a xlink:title="OpenCL interface for executing the select kernel."><polygon fill="#bfbfbf" stroke="#000" points="0 -.5 0 -19.5 88 -19.5 88 -.5 0 -.5"/><text x="44" y="-7.5" font-family="Helvetica,sans-Serif" font-size="10" text-anchor="middle">CLSelectKernel</text></a></g></g><g id="node2" class="node"><title>Node1</title><g id="a_node2"><a target="_top" xlink:href="classarm__compute_1_1_i_c_l_kernel.xhtml" xlink:title="Common interface for all the OpenCL kernels."><polygon fill="#fff" stroke="#000" points="14 -56.5 14 -75.5 74 -75.5 74 -56.5 14 -56.5"/><text x="44" y="-63.5" font-family="Helvetica,sans-Serif" font-size="10" text-anchor="middle">ICLKernel</text></a></g></g><g id="edge1" class="edge"><title>Node1-&gt;Node0</title><path fill="none" stroke="#191970" d="M44,-45.8045C44,-36.9102 44,-26.7798 44,-19.7511"/><polygon fill="#191970" stroke="#191970" points="40.5 -46.083 44 -56.083 47.5 -46.083 40.5 -46.083"/></g><g id="node3" class="node"><title>Node2</title><g id="a_node3"><a target="_top" xlink:href="classarm__compute_1_1_i_kernel.xhtml" xlink:title="Common information for all the kernels."><polygon fill="#fff" stroke="#000" points="20 -112.5 20 -131.5 68 -131.5 68 -112.5 20 -112.5"/><text x="44" y="-119.5" font-family="Helvetica,sans-Serif" font-size="10" text-anchor="middle">IKernel</text></a></g></g><g id="edge2" class="edge"><title>Node2-&gt;Node1</title><path fill="none" stroke="#191970" d="M44,-101.805C44,-92.9102 44,-82.7798 44,-75.7511"/><polygon fill="#191970" stroke="#191970" points="40.5 -102.083 44 -112.083 47.5 -102.083 40.5 -102.083"/></g></g></svg>