<svg xmlns="http://www.w3.org/2000/svg" xmlns:xlink="http://www.w3.org/1999/xlink" width="118pt" height="276" viewBox="0 0 118 207"><g id="graph0" class="graph" transform="scale(1 1) rotate(0) translate(4 203)"><title>NEWarpAffineKernel&lt; interpolation &gt;</title><polygon fill="#fff" stroke="none" points="-4 4 -4 -203 114 -203 114 4 -4 4"/><g id="node1" class="node"><title>Node0</title><g id="a_node1"><a xlink:title="Template interface for the kernel to compute warp affine."><polygon fill="#bfbfbf" stroke="#000" points="0 -.5 0 -30.5 110 -30.5 110 -.5 0 -.5"/><text x="8" y="-18.5" font-family="Helvetica,sans-Serif" font-size="10" text-anchor="start">NEWarpAffineKernel</text><text x="55" y="-7.5" font-family="Helvetica,sans-Serif" font-size="10" text-anchor="middle">&lt; interpolation &gt;</text></a></g></g><g id="node2" class="node"><title>Node1</title><g id="a_node2"><a target="_top" xlink:href="classarm__compute_1_1_i_n_e_warp_kernel.xhtml" xlink:title="Common interface for warp affine and warp perspective."><polygon fill="#fff" stroke="#000" points="12.5 -67.5 12.5 -86.5 97.5 -86.5 97.5 -67.5 12.5 -67.5"/><text x="55" y="-74.5" font-family="Helvetica,sans-Serif" font-size="10" text-anchor="middle">INEWarpKernel</text></a></g></g><g id="edge1" class="edge"><title>Node1-&gt;Node0</title><path fill="none" stroke="#191970" d="M55,-57.2349C55,-48.5864 55,-38.4969 55,-30.523"/><polygon fill="#191970" stroke="#191970" points="51.5 -57.475 55 -67.475 58.5 -57.475 51.5 -57.475"/></g><g id="node3" class="node"><title>Node2</title><g id="a_node3"><a target="_top" xlink:href="classarm__compute_1_1_i_c_p_p_kernel.xhtml" xlink:title="Common interface for all kernels implemented in C++."><polygon fill="#fff" stroke="#000" points="24 -123.5 24 -142.5 86 -142.5 86 -123.5 24 -123.5"/><text x="55" y="-130.5" font-family="Helvetica,sans-Serif" font-size="10" text-anchor="middle">INEKernel</text></a></g></g><g id="edge2" class="edge"><title>Node2-&gt;Node1</title><path fill="none" stroke="#191970" d="M55,-112.805C55,-103.91 55,-93.7798 55,-86.7511"/><polygon fill="#191970" stroke="#191970" points="51.5 -113.083 55 -123.083 58.5 -113.083 51.5 -113.083"/></g><g id="node4" class="node"><title>Node3</title><g id="a_node4"><a target="_top" xlink:href="classarm__compute_1_1_i_kernel.xhtml" xlink:title="Common information for all the kernels."><polygon fill="#fff" stroke="#000" points="31 -179.5 31 -198.5 79 -198.5 79 -179.5 31 -179.5"/><text x="55" y="-186.5" font-family="Helvetica,sans-Serif" font-size="10" text-anchor="middle">IKernel</text></a></g></g><g id="edge3" class="edge"><title>Node3-&gt;Node2</title><path fill="none" stroke="#191970" d="M55,-168.805C55,-159.91 55,-149.78 55,-142.751"/><polygon fill="#191970" stroke="#191970" points="51.5 -169.083 55 -179.083 58.5 -169.083 51.5 -169.083"/></g></g></svg>