<svg xmlns="http://www.w3.org/2000/svg" xmlns:xlink="http://www.w3.org/1999/xlink" width="172pt" height="140pt" viewBox="0 0 172 140"><g id="graph0" class="graph" transform="scale(1 1) rotate(0) translate(4 136)"><title>GCLogits1DShiftExpSumKernel</title><polygon fill="#fff" stroke="none" points="-4 4 -4 -136 168 -136 168 4 -4 4"/><g id="node1" class="node"><title>Node0</title><g id="a_node1"><a xlink:title="Interface for shifting the logits values around the max value and exponentiating the result."><polygon fill="#bfbfbf" stroke="#000" points="0 -.5 0 -19.5 164 -19.5 164 -.5 0 -.5"/><text x="82" y="-7.5" font-family="Helvetica,sans-Serif" font-size="10" text-anchor="middle">GCLogits1DShiftExpSumKernel</text></a></g></g><g id="node2" class="node"><title>Node1</title><g id="a_node2"><a target="_top" xlink:href="classarm__compute_1_1_i_g_c_kernel.xhtml" xlink:title="Common interface for all the GLES kernels."><polygon fill="#fff" stroke="#000" points="51 -56.5 51 -75.5 113 -75.5 113 -56.5 51 -56.5"/><text x="82" y="-63.5" font-family="Helvetica,sans-Serif" font-size="10" text-anchor="middle">IGCKernel</text></a></g></g><g id="edge1" class="edge"><title>Node1-&gt;Node0</title><path fill="none" stroke="#191970" d="M82,-45.8045C82,-36.9102 82,-26.7798 82,-19.7511"/><polygon fill="#191970" stroke="#191970" points="78.5 -46.083 82 -56.083 85.5 -46.083 78.5 -46.083"/></g><g id="node3" class="node"><title>Node2</title><g id="a_node3"><a target="_top" xlink:href="classarm__compute_1_1_i_kernel.xhtml" xlink:title="Common information for all the kernels."><polygon fill="#fff" stroke="#000" points="58 -112.5 58 -131.5 106 -131.5 106 -112.5 58 -112.5"/><text x="82" y="-119.5" font-family="Helvetica,sans-Serif" font-size="10" text-anchor="middle">IKernel</text></a></g></g><g id="edge2" class="edge"><title>Node2-&gt;Node1</title><path fill="none" stroke="#191970" d="M82,-101.805C82,-92.9102 82,-82.7798 82,-75.7511"/><polygon fill="#191970" stroke="#191970" points="78.5 -102.083 82 -112.083 85.5 -102.083 78.5 -102.083"/></g></g></svg>