<svg xmlns="http://www.w3.org/2000/svg" xmlns:xlink="http://www.w3.org/1999/xlink" width="115pt" height="336" viewBox="0 0 115 252"><g id="graph0" class="graph" transform="scale(1 1) rotate(0) translate(4 248)"><title>CLTransposeKernel</title><polygon fill="#fff" stroke="none" points="-4 4 -4 -248 111 -248 111 4 -4 4"/><g id="node1" class="node"><title>Node0</title><g id="a_node1"><a xlink:title="OpenCL kernel which transposes the elements of a matrix."><polygon fill="#bfbfbf" stroke="#000" points="1.5 -.5 1.5 -19.5 105.5 -19.5 105.5 -.5 1.5 -.5"/><text x="53.5" y="-7.5" font-family="Helvetica,sans-Serif" font-size="10" text-anchor="middle">CLTransposeKernel</text></a></g></g><g id="node2" class="node"><title>Node1</title><g id="a_node2"><a target="_top" xlink:href="classarm__compute_1_1_i_c_l_simple2_d_kernel.xhtml" xlink:title="Interface for simple OpenCL kernels having 1 tensor input and 1 tensor output."><polygon fill="#fff" stroke="#000" points="0 -56.5 0 -75.5 107 -75.5 107 -56.5 0 -56.5"/><text x="53.5" y="-63.5" font-family="Helvetica,sans-Serif" font-size="10" text-anchor="middle">ICLSimple2DKernel</text></a></g></g><g id="edge1" class="edge"><title>Node1-&gt;Node0</title><path fill="none" stroke="#191970" d="M53.5,-45.8045C53.5,-36.9102 53.5,-26.7798 53.5,-19.7511"/><polygon fill="#191970" stroke="#191970" points="50 -46.083 53.5 -56.083 57 -46.083 50 -46.083"/></g><g id="node3" class="node"><title>Node2</title><g id="a_node3"><a target="_top" xlink:href="classarm__compute_1_1_i_c_l_simple_kernel.xhtml" xlink:title="Interface for simple OpenCL kernels having 1 tensor input and 1 tensor output."><polygon fill="#fff" stroke="#000" points="7 -112.5 7 -131.5 100 -131.5 100 -112.5 7 -112.5"/><text x="53.5" y="-119.5" font-family="Helvetica,sans-Serif" font-size="10" text-anchor="middle">ICLSimpleKernel</text></a></g></g><g id="edge2" class="edge"><title>Node2-&gt;Node1</title><path fill="none" stroke="#191970" d="M53.5,-101.805C53.5,-92.9102 53.5,-82.7798 53.5,-75.7511"/><polygon fill="#191970" stroke="#191970" points="50 -102.083 53.5 -112.083 57 -102.083 50 -102.083"/></g><g id="node4" class="node"><title>Node3</title><g id="a_node4"><a target="_top" xlink:href="classarm__compute_1_1_i_c_l_kernel.xhtml" xlink:title="Common interface for all the OpenCL kernels."><polygon fill="#fff" stroke="#000" points="23.5 -168.5 23.5 -187.5 83.5 -187.5 83.5 -168.5 23.5 -168.5"/><text x="53.5" y="-175.5" font-family="Helvetica,sans-Serif" font-size="10" text-anchor="middle">ICLKernel</text></a></g></g><g id="edge3" class="edge"><title>Node3-&gt;Node2</title><path fill="none" stroke="#191970" d="M53.5,-157.805C53.5,-148.91 53.5,-138.78 53.5,-131.751"/><polygon fill="#191970" stroke="#191970" points="50 -158.083 53.5 -168.083 57 -158.083 50 -158.083"/></g><g id="node5" class="node"><title>Node4</title><g id="a_node5"><a target="_top" xlink:href="classarm__compute_1_1_i_kernel.xhtml" xlink:title="Common information for all the kernels."><polygon fill="#fff" stroke="#000" points="29.5 -224.5 29.5 -243.5 77.5 -243.5 77.5 -224.5 29.5 -224.5"/><text x="53.5" y="-231.5" font-family="Helvetica,sans-Serif" font-size="10" text-anchor="middle">IKernel</text></a></g></g><g id="edge4" class="edge"><title>Node4-&gt;Node3</title><path fill="none" stroke="#191970" d="M53.5,-213.805C53.5,-204.91 53.5,-194.78 53.5,-187.751"/><polygon fill="#191970" stroke="#191970" points="50 -214.083 53.5 -224.083 57 -214.083 50 -214.083"/></g></g></svg>