<svg xmlns="http://www.w3.org/2000/svg" xmlns:xlink="http://www.w3.org/1999/xlink" width="184pt" height="151pt" viewBox="0 0 184 151"><g id="graph0" class="graph" transform="scale(1 1) rotate(0) translate(4 147)"><title>CLGEMMLowpQuantizeDownInt32ToUint8ScaleKernel</title><polygon fill="#fff" stroke="none" points="-4 4 -4 -147 180 -147 180 4 -4 4"/><g id="node1" class="node"><title>Node0</title><g id="a_node1"><a xlink:title="OpenCL kernel used to quantize down the int32 accumulator values of GEMMLowp to QASYMM8."><polygon fill="#bfbfbf" stroke="#000" points="0 -.5 0 -30.5 176 -30.5 176 -.5 0 -.5"/><text x="8" y="-18.5" font-family="Helvetica,sans-Serif" font-size="10" text-anchor="start">CLGEMMLowpQuantizeDownInt32</text><text x="88" y="-7.5" font-family="Helvetica,sans-Serif" font-size="10" text-anchor="middle">ToUint8ScaleKernel</text></a></g></g><g id="node2" class="node"><title>Node1</title><g id="a_node2"><a target="_top" xlink:href="classarm__compute_1_1_i_c_l_kernel.xhtml" xlink:title="Common interface for all the OpenCL kernels."><polygon fill="#fff" stroke="#000" points="58 -67.5 58 -86.5 118 -86.5 118 -67.5 58 -67.5"/><text x="88" y="-74.5" font-family="Helvetica,sans-Serif" font-size="10" text-anchor="middle">ICLKernel</text></a></g></g><g id="edge1" class="edge"><title>Node1-&gt;Node0</title><path fill="none" stroke="#191970" d="M88,-57.2349C88,-48.5864 88,-38.4969 88,-30.523"/><polygon fill="#191970" stroke="#191970" points="84.5 -57.475 88 -67.475 91.5 -57.475 84.5 -57.475"/></g><g id="node3" class="node"><title>Node2</title><g id="a_node3"><a target="_top" xlink:href="classarm__compute_1_1_i_kernel.xhtml" xlink:title="Common information for all the kernels."><polygon fill="#fff" stroke="#000" points="64 -123.5 64 -142.5 112 -142.5 112 -123.5 64 -123.5"/><text x="88" y="-130.5" font-family="Helvetica,sans-Serif" font-size="10" text-anchor="middle">IKernel</text></a></g></g><g id="edge2" class="edge"><title>Node2-&gt;Node1</title><path fill="none" stroke="#191970" d="M88,-112.805C88,-103.91 88,-93.7798 88,-86.7511"/><polygon fill="#191970" stroke="#191970" points="84.5 -113.083 88 -123.083 91.5 -113.083 84.5 -113.083"/></g></g></svg>