<svg xmlns="http://www.w3.org/2000/svg" xmlns:xlink="http://www.w3.org/1999/xlink" width="180" height="140pt" viewBox="0 0 135 140"><g id="graph0" class="graph" transform="scale(1 1) rotate(0) translate(4 136)"><title>NEElementwiseDivision</title><polygon fill="#fff" stroke="none" points="-4 4 -4 -136 131 -136 131 4 -4 4"/><g id="node1" class="node"><title>Node0</title><g id="a_node1"><a xlink:title="Basic function to run NEArithmeticOperationKernel for division."><polygon fill="#bfbfbf" stroke="#000" points="0 -.5 0 -19.5 127 -19.5 127 -.5 0 -.5"/><text x="63.5" y="-7.5" font-family="Helvetica,sans-Serif" font-size="10" text-anchor="middle">NEElementwiseDivision</text></a></g></g><g id="node2" class="node"><title>Node1</title><g id="a_node2"><a target="_top" xlink:href="classarm__compute_1_1_i_n_e_simple_function.xhtml" xlink:title="Basic interface for functions which have a single NEON kernel."><polygon fill="#fff" stroke="#000" points="11 -56.5 11 -75.5 116 -75.5 116 -56.5 11 -56.5"/><text x="63.5" y="-63.5" font-family="Helvetica,sans-Serif" font-size="10" text-anchor="middle">INESimpleFunction</text></a></g></g><g id="edge1" class="edge"><title>Node1-&gt;Node0</title><path fill="none" stroke="#191970" d="M63.5,-45.8045C63.5,-36.9102 63.5,-26.7798 63.5,-19.7511"/><polygon fill="#191970" stroke="#191970" points="60 -46.083 63.5 -56.083 67 -46.083 60 -46.083"/></g><g id="node3" class="node"><title>Node2</title><g id="a_node3"><a target="_top" xlink:href="classarm__compute_1_1_i_function.xhtml" xlink:title="Base class for all functions."><polygon fill="#fff" stroke="#000" points="34 -112.5 34 -131.5 93 -131.5 93 -112.5 34 -112.5"/><text x="63.5" y="-119.5" font-family="Helvetica,sans-Serif" font-size="10" text-anchor="middle">IFunction</text></a></g></g><g id="edge2" class="edge"><title>Node2-&gt;Node1</title><path fill="none" stroke="#191970" d="M63.5,-101.805C63.5,-92.9102 63.5,-82.7798 63.5,-75.7511"/><polygon fill="#191970" stroke="#191970" points="60 -102.083 63.5 -112.083 67 -102.083 60 -102.083"/></g></g></svg>