<svg xmlns="http://www.w3.org/2000/svg" xmlns:xlink="http://www.w3.org/1999/xlink" width="124pt" height="140pt" viewBox="0 0 124 140"><g id="graph0" class="graph" transform="scale(1 1) rotate(0) translate(4 136)"><title>CLLWSListExhaustive</title><polygon fill="#fff" stroke="none" points="-4 4 -4 -136 120 -136 120 4 -4 4"/><g id="node1" class="node"><title>Node0</title><g id="a_node1"><a xlink:title="Exhaustive list of all possible LWS values."><polygon fill="#bfbfbf" stroke="#000" points="0 -.5 0 -19.5 116 -19.5 116 -.5 0 -.5"/><text x="58" y="-7.5" font-family="Helvetica,sans-Serif" font-size="10" text-anchor="middle">CLLWSListExhaustive</text></a></g></g><g id="node2" class="node"><title>Node1</title><g id="a_node2"><a target="_top" xlink:href="classarm__compute_1_1cl__tuner_1_1_c_l_l_w_s_list.xhtml" xlink:title="Non instantiable base class for LWS combinations that use Index2Cooard mapping."><polygon fill="#fff" stroke="#000" points="25.5 -56.5 25.5 -75.5 90.5 -75.5 90.5 -56.5 25.5 -56.5"/><text x="58" y="-63.5" font-family="Helvetica,sans-Serif" font-size="10" text-anchor="middle">CLLWSList</text></a></g></g><g id="edge1" class="edge"><title>Node1-&gt;Node0</title><path fill="none" stroke="#191970" d="M58,-45.8045C58,-36.9102 58,-26.7798 58,-19.7511"/><polygon fill="#191970" stroke="#191970" points="54.5 -46.083 58 -56.083 61.5 -46.083 54.5 -46.083"/></g><g id="node3" class="node"><title>Node2</title><g id="a_node3"><a target="_top" xlink:href="classarm__compute_1_1cl__tuner_1_1_i_c_l_l_w_s_list.xhtml" xlink:title="Interface for LWS lists."><polygon fill="#fff" stroke="#000" points="24.5 -112.5 24.5 -131.5 91.5 -131.5 91.5 -112.5 24.5 -112.5"/><text x="58" y="-119.5" font-family="Helvetica,sans-Serif" font-size="10" text-anchor="middle">ICLLWSList</text></a></g></g><g id="edge2" class="edge"><title>Node2-&gt;Node1</title><path fill="none" stroke="#191970" d="M58,-101.805C58,-92.9102 58,-82.7798 58,-75.7511"/><polygon fill="#191970" stroke="#191970" points="54.5 -102.083 58 -112.083 61.5 -102.083 54.5 -102.083"/></g></g></svg>