<svg xmlns="http://www.w3.org/2000/svg" xmlns:xlink="http://www.w3.org/1999/xlink" width="175pt" height="276" viewBox="0 0 175 207"><g id="graph0" class="graph" transform="scale(1 1) rotate(0) translate(4 203)"><title>NEGEMMLowpMatrixBReductionKernel</title><polygon fill="#fff" stroke="none" points="-4 4 -4 -203 171 -203 171 4 -4 4"/><g id="node1" class="node"><title>Node0</title><g id="a_node1"><a xlink:title="NEON kernel used to compute the row-vectors of sums of all the entries in each column of Matrix B."><polygon fill="#bfbfbf" stroke="#000" points="0 -.5 0 -30.5 167 -30.5 167 -.5 0 -.5"/><text x="8" y="-18.5" font-family="Helvetica,sans-Serif" font-size="10" text-anchor="start">NEGEMMLowpMatrixBReduction</text><text x="83.5" y="-7.5" font-family="Helvetica,sans-Serif" font-size="10" text-anchor="middle">Kernel</text></a></g></g><g id="node2" class="node"><title>Node1</title><g id="a_node2"><a target="_top" xlink:href="classarm__compute_1_1_i_n_e_g_e_m_m_lowp_reduction_kernel.xhtml" xlink:title="Common interface for all NEON reduction kernels."><polygon fill="#fff" stroke="#000" points="2.5 -67.5 2.5 -86.5 164.5 -86.5 164.5 -67.5 2.5 -67.5"/><text x="83.5" y="-74.5" font-family="Helvetica,sans-Serif" font-size="10" text-anchor="middle">INEGEMMLowpReductionKernel</text></a></g></g><g id="edge1" class="edge"><title>Node1-&gt;Node0</title><path fill="none" stroke="#191970" d="M83.5,-57.2349C83.5,-48.5864 83.5,-38.4969 83.5,-30.523"/><polygon fill="#191970" stroke="#191970" points="80 -57.475 83.5 -67.475 87 -57.475 80 -57.475"/></g><g id="node3" class="node"><title>Node2</title><g id="a_node3"><a target="_top" xlink:href="classarm__compute_1_1_i_c_p_p_kernel.xhtml" xlink:title="Common interface for all kernels implemented in C++."><polygon fill="#fff" stroke="#000" points="52.5 -123.5 52.5 -142.5 114.5 -142.5 114.5 -123.5 52.5 -123.5"/><text x="83.5" y="-130.5" font-family="Helvetica,sans-Serif" font-size="10" text-anchor="middle">INEKernel</text></a></g></g><g id="edge2" class="edge"><title>Node2-&gt;Node1</title><path fill="none" stroke="#191970" d="M83.5,-112.805C83.5,-103.91 83.5,-93.7798 83.5,-86.7511"/><polygon fill="#191970" stroke="#191970" points="80 -113.083 83.5 -123.083 87 -113.083 80 -113.083"/></g><g id="node4" class="node"><title>Node3</title><g id="a_node4"><a target="_top" xlink:href="classarm__compute_1_1_i_kernel.xhtml" xlink:title="Common information for all the kernels."><polygon fill="#fff" stroke="#000" points="59.5 -179.5 59.5 -198.5 107.5 -198.5 107.5 -179.5 59.5 -179.5"/><text x="83.5" y="-186.5" font-family="Helvetica,sans-Serif" font-size="10" text-anchor="middle">IKernel</text></a></g></g><g id="edge3" class="edge"><title>Node3-&gt;Node2</title><path fill="none" stroke="#191970" d="M83.5,-168.805C83.5,-159.91 83.5,-149.78 83.5,-142.751"/><polygon fill="#191970" stroke="#191970" points="80 -169.083 83.5 -179.083 87 -169.083 80 -169.083"/></g></g></svg>