<svg xmlns="http://www.w3.org/2000/svg" xmlns:xlink="http://www.w3.org/1999/xlink" width="156" height="336" viewBox="0 0 117 252"><g id="graph0" class="graph" transform="scale(1 1) rotate(0) translate(4 248)"><title>IGCSimple3DKernel</title><polygon fill="#fff" stroke="none" points="-4 4 -4 -248 113 -248 113 4 -4 4"/><g id="node1" class="node"><title>Node0</title><g id="a_node1"><a xlink:title="Interface for simple GLES kernels having 1 tensor input and 1 tensor output."><polygon fill="#bfbfbf" stroke="#000" points="0 -.5 0 -19.5 109 -19.5 109 -.5 0 -.5"/><text x="54.5" y="-7.5" font-family="Helvetica,sans-Serif" font-size="10" text-anchor="middle">IGCSimple3DKernel</text></a></g></g><g id="node2" class="node"><title>Node1</title><g id="a_node2"><a target="_top" xlink:href="classarm__compute_1_1_i_g_c_simple2_d_kernel.xhtml" xlink:title="Interface for simple OpenGL ES kernels having 1 tensor input and 1 tensor output."><polygon fill="#fff" stroke="#000" points="0 -56.5 0 -75.5 109 -75.5 109 -56.5 0 -56.5"/><text x="54.5" y="-63.5" font-family="Helvetica,sans-Serif" font-size="10" text-anchor="middle">IGCSimple2DKernel</text></a></g></g><g id="edge1" class="edge"><title>Node1-&gt;Node0</title><path fill="none" stroke="#191970" d="M54.5,-45.8045C54.5,-36.9102 54.5,-26.7798 54.5,-19.7511"/><polygon fill="#191970" stroke="#191970" points="51 -46.083 54.5 -56.083 58 -46.083 51 -46.083"/></g><g id="node3" class="node"><title>Node2</title><g id="a_node3"><a target="_top" xlink:href="classarm__compute_1_1_i_g_c_simple_kernel.xhtml" xlink:title="Interface for simple OpenGL ES kernels having 1 tensor input and 1 tensor output."><polygon fill="#fff" stroke="#000" points="7 -112.5 7 -131.5 102 -131.5 102 -112.5 7 -112.5"/><text x="54.5" y="-119.5" font-family="Helvetica,sans-Serif" font-size="10" text-anchor="middle">IGCSimpleKernel</text></a></g></g><g id="edge2" class="edge"><title>Node2-&gt;Node1</title><path fill="none" stroke="#191970" d="M54.5,-101.805C54.5,-92.9102 54.5,-82.7798 54.5,-75.7511"/><polygon fill="#191970" stroke="#191970" points="51 -102.083 54.5 -112.083 58 -102.083 51 -102.083"/></g><g id="node4" class="node"><title>Node3</title><g id="a_node4"><a target="_top" xlink:href="classarm__compute_1_1_i_g_c_kernel.xhtml" xlink:title="Common interface for all the GLES kernels."><polygon fill="#fff" stroke="#000" points="23.5 -168.5 23.5 -187.5 85.5 -187.5 85.5 -168.5 23.5 -168.5"/><text x="54.5" y="-175.5" font-family="Helvetica,sans-Serif" font-size="10" text-anchor="middle">IGCKernel</text></a></g></g><g id="edge3" class="edge"><title>Node3-&gt;Node2</title><path fill="none" stroke="#191970" d="M54.5,-157.805C54.5,-148.91 54.5,-138.78 54.5,-131.751"/><polygon fill="#191970" stroke="#191970" points="51 -158.083 54.5 -168.083 58 -158.083 51 -158.083"/></g><g id="node5" class="node"><title>Node4</title><g id="a_node5"><a target="_top" xlink:href="classarm__compute_1_1_i_kernel.xhtml" xlink:title="Common information for all the kernels."><polygon fill="#fff" stroke="#000" points="30.5 -224.5 30.5 -243.5 78.5 -243.5 78.5 -224.5 30.5 -224.5"/><text x="54.5" y="-231.5" font-family="Helvetica,sans-Serif" font-size="10" text-anchor="middle">IKernel</text></a></g></g><g id="edge4" class="edge"><title>Node4-&gt;Node3</title><path fill="none" stroke="#191970" d="M54.5,-213.805C54.5,-204.91 54.5,-194.78 54.5,-187.751"/><polygon fill="#191970" stroke="#191970" points="51 -214.083 54.5 -224.083 58 -214.083 51 -214.083"/></g></g></svg>