<svg xmlns="http://www.w3.org/2000/svg" xmlns:xlink="http://www.w3.org/1999/xlink" width="146pt" height="185pt" viewBox="0 0 145.5 185"><g id="graph0" class="graph" transform="scale(1 1) rotate(0) translate(4 181)"><title>CLCropResize</title><polygon fill="#fff" stroke="none" points="-4 4 -4 -181 141.5 -181 141.5 4 -4 4"/><g id="node1" class="node"><title>Node0</title><g id="a_node1"><a xlink:title="Function to perform cropping and resizing."><polygon fill="#bfbfbf" stroke="#000" points="16 -.5 16 -19.5 97 -19.5 97 -.5 16 -.5"/><text x="56.5" y="-7.5" font-family="Helvetica,sans-Serif" font-size="10" text-anchor="middle">CLCropResize</text></a></g></g><g id="node2" class="node"><title>Node1</title><g id="a_node2"><a target="_top" xlink:href="classarm__compute_1_1_i_function.xhtml" xlink:title="Base class for all functions."><polygon fill="#fff" stroke="#000" points="0 -100.5 0 -119.5 59 -119.5 59 -100.5 0 -100.5"/><text x="29.5" y="-107.5" font-family="Helvetica,sans-Serif" font-size="10" text-anchor="middle">IFunction</text></a></g></g><g id="edge1" class="edge"><title>Node1-&gt;Node0</title><path fill="none" stroke="#191970" d="M34.5932,-90.5136C40.4481,-69.2626 49.8073,-35.2919 54.1479,-19.5374"/><polygon fill="#191970" stroke="#191970" points="31.178 -89.733 31.896 -100.303 37.927 -91.592 31.178 -89.733"/></g><g id="node3" class="node"><title>Node2</title><g id="a_node3"><a target="_top" xlink:href="classarm__compute_1_1_i_c_l_tensor.xhtml" xlink:title="Interface for OpenCL tensor."><polygon fill="#fff" stroke="#000" points="77.5 -100.5 77.5 -119.5 137.5 -119.5 137.5 -100.5 77.5 -100.5"/><text x="107.5" y="-107.5" font-family="Helvetica,sans-Serif" font-size="10" text-anchor="middle">ICLTensor</text></a></g></g><g id="edge2" class="edge"><title>Node2-&gt;Node0</title><path fill="none" stroke="#9a32cd" stroke-dasharray="5 2" d="M98.3323,-91.3836C87.3087,-70.2011 69.2545,-35.5087 60.9429,-19.5374"/><polygon fill="#9a32cd" stroke="#9a32cd" points="95.253 -93.048 102.974 -100.303 101.462 -89.817 95.253 -93.048"/><text x="113" y="-74" font-family="Helvetica,sans-Serif" font-size="10" text-anchor="middle">_output</text><text x="113" y="-63" font-family="Helvetica,sans-Serif" font-size="10" text-anchor="middle">_box_ind</text><text x="113" y="-52" font-family="Helvetica,sans-Serif" font-size="10" text-anchor="middle">_boxes</text><text x="113" y="-41" font-family="Helvetica,sans-Serif" font-size="10" text-anchor="middle">_input</text></g><g id="node4" class="node"><title>Node3</title><g id="a_node4"><a target="_top" xlink:href="classarm__compute_1_1_i_tensor.xhtml" xlink:title="Interface for NEON tensor."><polygon fill="#fff" stroke="#000" points="82.5 -157.5 82.5 -176.5 132.5 -176.5 132.5 -157.5 82.5 -157.5"/><text x="107.5" y="-164.5" font-family="Helvetica,sans-Serif" font-size="10" text-anchor="middle">ITensor</text></a></g></g><g id="edge3" class="edge"><title>Node3-&gt;Node2</title><path fill="none" stroke="#191970" d="M107.5,-147.117C107.5,-137.817 107.5,-127.056 107.5,-119.715"/><polygon fill="#191970" stroke="#191970" points="104 -147.406 107.5 -157.406 111 -147.406 104 -147.406"/></g></g></svg>