<svg xmlns="http://www.w3.org/2000/svg" xmlns:xlink="http://www.w3.org/1999/xlink" width="175pt" height="320" viewBox="0 0 175 240"><g id="graph0" class="graph" transform="scale(1 1) rotate(0) translate(4 236)"><title>NEWinogradLayerTransformInputKernel&lt; T, OutputTileRows, OutputTileCols, KernelRows, KernelCols &gt;</title><polygon fill="#fff" stroke="none" points="-4 4 -4 -236 171 -236 171 4 -4 4"/><g id="node1" class="node"><title>Node0</title><g id="a_node1"><a xlink:title="NEON kernel to perform Winograd input transform."><polygon fill="#bfbfbf" stroke="#000" points="0 -.5 0 -52.5 167 -52.5 167 -.5 0 -.5"/><text x="8" y="-40.5" font-family="Helvetica,sans-Serif" font-size="10" text-anchor="start">NEWinogradLayerTransform</text><text x="8" y="-29.5" font-family="Helvetica,sans-Serif" font-size="10" text-anchor="start">InputKernel&lt; T, OutputTileRows,</text><text x="8" y="-18.5" font-family="Helvetica,sans-Serif" font-size="10" text-anchor="start">OutputTileCols, KernelRows,</text><text x="83.5" y="-7.5" font-family="Helvetica,sans-Serif" font-size="10" text-anchor="middle">KernelCols &gt;</text></a></g></g><g id="node2" class="node"><title>Node1</title><g id="a_node2"><a target="_top" xlink:href="classarm__compute_1_1_i_n_e_winograd_layer_transform_input_kernel.xhtml" xlink:title="Interface for the NEON kernel to perform Winograd input transform."><polygon fill="#fff" stroke="#000" points="8.5 -89.5 8.5 -119.5 158.5 -119.5 158.5 -89.5 8.5 -89.5"/><text x="16.5" y="-107.5" font-family="Helvetica,sans-Serif" font-size="10" text-anchor="start">INEWinogradLayerTransform</text><text x="83.5" y="-96.5" font-family="Helvetica,sans-Serif" font-size="10" text-anchor="middle">InputKernel&lt; T &gt;</text></a></g></g><g id="edge1" class="edge"><title>Node1-&gt;Node0</title><path fill="none" stroke="#191970" d="M83.5,-79.1418C83.5,-70.6306 83.5,-61.0666 83.5,-52.5037"/><polygon fill="#191970" stroke="#191970" points="80 -79.205 83.5 -89.205 87 -79.205 80 -79.205"/></g><g id="node3" class="node"><title>Node2</title><g id="a_node3"><a target="_top" xlink:href="classarm__compute_1_1_i_c_p_p_kernel.xhtml" xlink:title="Common interface for all kernels implemented in C++."><polygon fill="#fff" stroke="#000" points="52.5 -156.5 52.5 -175.5 114.5 -175.5 114.5 -156.5 52.5 -156.5"/><text x="83.5" y="-163.5" font-family="Helvetica,sans-Serif" font-size="10" text-anchor="middle">INEKernel</text></a></g></g><g id="edge2" class="edge"><title>Node2-&gt;Node1</title><path fill="none" stroke="#191970" d="M83.5,-146.235C83.5,-137.586 83.5,-127.497 83.5,-119.523"/><polygon fill="#191970" stroke="#191970" points="80 -146.475 83.5 -156.475 87 -146.475 80 -146.475"/></g><g id="node4" class="node"><title>Node3</title><g id="a_node4"><a target="_top" xlink:href="classarm__compute_1_1_i_kernel.xhtml" xlink:title="Common information for all the kernels."><polygon fill="#fff" stroke="#000" points="59.5 -212.5 59.5 -231.5 107.5 -231.5 107.5 -212.5 59.5 -212.5"/><text x="83.5" y="-219.5" font-family="Helvetica,sans-Serif" font-size="10" text-anchor="middle">IKernel</text></a></g></g><g id="edge3" class="edge"><title>Node3-&gt;Node2</title><path fill="none" stroke="#191970" d="M83.5,-201.805C83.5,-192.91 83.5,-182.78 83.5,-175.751"/><polygon fill="#191970" stroke="#191970" points="80 -202.083 83.5 -212.083 87 -202.083 80 -202.083"/></g></g></svg>