<svg xmlns="http://www.w3.org/2000/svg" xmlns:xlink="http://www.w3.org/1999/xlink" width="157pt" height="163pt" viewBox="0 0 157 163"><g id="graph0" class="graph" transform="scale(1 1) rotate(0) translate(4 159)"><title>Steps</title><polygon fill="#fff" stroke="none" points="-4 4 -4 -159 153 -159 153 4 -4 4"/><g id="node1" class="node"><title>Node0</title><g id="a_node1"><a xlink:title="Class to describe a number of elements in each dimension."><polygon fill="#bfbfbf" stroke="#000" points="42 -.5 42 -19.5 86 -19.5 86 -.5 42 -.5"/><text x="64" y="-7.5" font-family="Helvetica,sans-Serif" font-size="10" text-anchor="middle">Steps</text></a></g></g><g id="node2" class="node"><title>Node1</title><g id="a_node2"><a target="_top" xlink:href="classarm__compute_1_1_dimensions.xhtml"><polygon fill="#fff" stroke="#000" points="0 -57.5 0 -87.5 128 -87.5 128 -57.5 0 -57.5"/><text x="8" y="-75.5" font-family="Helvetica,sans-Serif" font-size="10" text-anchor="start">Dimensions&lt; unsigned</text><text x="64" y="-64.5" font-family="Helvetica,sans-Serif" font-size="10" text-anchor="middle">int &gt;</text></a></g></g><g id="edge1" class="edge"><title>Node1-&gt;Node0</title><path fill="none" stroke="#191970" d="M64,-47.3524C64,-37.5132 64,-26.7753 64,-19.5399"/><polygon fill="#191970" stroke="#191970" points="60.5 -47.468 64 -57.468 67.5 -47.468 60.5 -47.468"/></g><g id="node3" class="node"><title>Node2</title><g id="a_node3"><a target="_top" xlink:href="classarm__compute_1_1_dimensions.xhtml" xlink:title="Dimensions with dimensionality."><polygon fill="#fff" stroke="#000" points="13.5 -135.5 13.5 -154.5 114.5 -154.5 114.5 -135.5 13.5 -135.5"/><text x="64" y="-142.5" font-family="Helvetica,sans-Serif" font-size="10" text-anchor="middle">Dimensions&lt; T &gt;</text></a></g></g><g id="edge2" class="edge"><title>Node2-&gt;Node1</title><path fill="none" stroke="orange" stroke-dasharray="5 2" d="M64,-125.236C64,-113.408 64,-98.3829 64,-87.5762"/><polygon fill="orange" stroke="orange" points="60.5 -125.355 64 -135.355 67.5 -125.355 60.5 -125.355"/><text x="106.5" y="-109" font-family="Helvetica,sans-Serif" font-size="10" text-anchor="middle">&lt; unsigned int &gt;</text></g></g></svg>