<svg xmlns="http://www.w3.org/2000/svg" xmlns:xlink="http://www.w3.org/1999/xlink" width="140pt" height="140pt" viewBox="0 0 140 140"><g id="graph0" class="graph" transform="scale(1 1) rotate(0) translate(4 136)"><title>NEGaussianPyramidHalf</title><polygon fill="#fff" stroke="none" points="-4 4 -4 -136 136 -136 136 4 -4 4"/><g id="node1" class="node"><title>Node0</title><g id="a_node1"><a xlink:title="Basic function to execute gaussian pyramid with HALF scale factor."><polygon fill="#bfbfbf" stroke="#000" points="0 -.5 0 -19.5 132 -19.5 132 -.5 0 -.5"/><text x="66" y="-7.5" font-family="Helvetica,sans-Serif" font-size="10" text-anchor="middle">NEGaussianPyramidHalf</text></a></g></g><g id="node2" class="node"><title>Node1</title><g id="a_node2"><a target="_top" xlink:href="classarm__compute_1_1_n_e_gaussian_pyramid.xhtml" xlink:title="Common interface for all Gaussian pyramid functions."><polygon fill="#fff" stroke="#000" points="9.5 -56.5 9.5 -75.5 122.5 -75.5 122.5 -56.5 9.5 -56.5"/><text x="66" y="-63.5" font-family="Helvetica,sans-Serif" font-size="10" text-anchor="middle">NEGaussianPyramid</text></a></g></g><g id="edge1" class="edge"><title>Node1-&gt;Node0</title><path fill="none" stroke="#191970" d="M66,-45.8045C66,-36.9102 66,-26.7798 66,-19.7511"/><polygon fill="#191970" stroke="#191970" points="62.5 -46.083 66 -56.083 69.5 -46.083 62.5 -46.083"/></g><g id="node3" class="node"><title>Node2</title><g id="a_node3"><a target="_top" xlink:href="classarm__compute_1_1_i_function.xhtml" xlink:title="Base class for all functions."><polygon fill="#fff" stroke="#000" points="36.5 -112.5 36.5 -131.5 95.5 -131.5 95.5 -112.5 36.5 -112.5"/><text x="66" y="-119.5" font-family="Helvetica,sans-Serif" font-size="10" text-anchor="middle">IFunction</text></a></g></g><g id="edge2" class="edge"><title>Node2-&gt;Node1</title><path fill="none" stroke="#191970" d="M66,-101.805C66,-92.9102 66,-82.7798 66,-75.7511"/><polygon fill="#191970" stroke="#191970" points="62.5 -102.083 66 -112.083 69.5 -102.083 62.5 -102.083"/></g></g></svg>