<svg xmlns="http://www.w3.org/2000/svg" xmlns:xlink="http://www.w3.org/1999/xlink" width="166pt" height="151pt" viewBox="0 0 166 151"><g id="graph0" class="graph" transform="scale(1 1) rotate(0) translate(4 147)"><title>CLWidthConcatenate2TensorsKernel</title><polygon fill="#fff" stroke="none" points="-4 4 -4 -147 162 -147 162 4 -4 4"/><g id="node1" class="node"><title>Node0</title><g id="a_node1"><a xlink:title="Interface for the width concatenate kernel of 2 tensors."><polygon fill="#bfbfbf" stroke="#000" points="0 -.5 0 -30.5 158 -30.5 158 -.5 0 -.5"/><text x="8" y="-18.5" font-family="Helvetica,sans-Serif" font-size="10" text-anchor="start">CLWidthConcatenate2Tensors</text><text x="79" y="-7.5" font-family="Helvetica,sans-Serif" font-size="10" text-anchor="middle">Kernel</text></a></g></g><g id="node2" class="node"><title>Node1</title><g id="a_node2"><a target="_top" xlink:href="classarm__compute_1_1_i_c_l_kernel.xhtml" xlink:title="Common interface for all the OpenCL kernels."><polygon fill="#fff" stroke="#000" points="49 -67.5 49 -86.5 109 -86.5 109 -67.5 49 -67.5"/><text x="79" y="-74.5" font-family="Helvetica,sans-Serif" font-size="10" text-anchor="middle">ICLKernel</text></a></g></g><g id="edge1" class="edge"><title>Node1-&gt;Node0</title><path fill="none" stroke="#191970" d="M79,-57.2349C79,-48.5864 79,-38.4969 79,-30.523"/><polygon fill="#191970" stroke="#191970" points="75.5 -57.475 79 -67.475 82.5 -57.475 75.5 -57.475"/></g><g id="node3" class="node"><title>Node2</title><g id="a_node3"><a target="_top" xlink:href="classarm__compute_1_1_i_kernel.xhtml" xlink:title="Common information for all the kernels."><polygon fill="#fff" stroke="#000" points="55 -123.5 55 -142.5 103 -142.5 103 -123.5 55 -123.5"/><text x="79" y="-130.5" font-family="Helvetica,sans-Serif" font-size="10" text-anchor="middle">IKernel</text></a></g></g><g id="edge2" class="edge"><title>Node2-&gt;Node1</title><path fill="none" stroke="#191970" d="M79,-112.805C79,-103.91 79,-93.7798 79,-86.7511"/><polygon fill="#191970" stroke="#191970" points="75.5 -113.083 79 -123.083 82.5 -113.083 75.5 -113.083"/></g></g></svg>