<svg xmlns="http://www.w3.org/2000/svg" xmlns:xlink="http://www.w3.org/1999/xlink" width="152" height="140pt" viewBox="0 0 114 140"><g id="graph0" class="graph" transform="scale(1 1) rotate(0) translate(4 136)"><title>GCTranspose</title><polygon fill="#fff" stroke="none" points="-4 4 -4 -136 110 -136 110 4 -4 4"/><g id="node1" class="node"><title>Node0</title><g id="a_node1"><a xlink:title="Basic function to transpose a matrix on OpenGL ES."><polygon fill="#bfbfbf" stroke="#000" points="13.5 -.5 13.5 -19.5 92.5 -19.5 92.5 -.5 13.5 -.5"/><text x="53" y="-7.5" font-family="Helvetica,sans-Serif" font-size="10" text-anchor="middle">GCTranspose</text></a></g></g><g id="node2" class="node"><title>Node1</title><g id="a_node2"><a target="_top" xlink:href="classarm__compute_1_1_i_g_c_simple_function.xhtml" xlink:title="Basic interface for functions which have a single OpenGL ES kernel."><polygon fill="#fff" stroke="#000" points="0 -56.5 0 -75.5 106 -75.5 106 -56.5 0 -56.5"/><text x="53" y="-63.5" font-family="Helvetica,sans-Serif" font-size="10" text-anchor="middle">IGCSimpleFunction</text></a></g></g><g id="edge1" class="edge"><title>Node1-&gt;Node0</title><path fill="none" stroke="#191970" d="M53,-45.8045C53,-36.9102 53,-26.7798 53,-19.7511"/><polygon fill="#191970" stroke="#191970" points="49.5 -46.083 53 -56.083 56.5 -46.083 49.5 -46.083"/></g><g id="node3" class="node"><title>Node2</title><g id="a_node3"><a target="_top" xlink:href="classarm__compute_1_1_i_function.xhtml" xlink:title="Base class for all functions."><polygon fill="#fff" stroke="#000" points="23.5 -112.5 23.5 -131.5 82.5 -131.5 82.5 -112.5 23.5 -112.5"/><text x="53" y="-119.5" font-family="Helvetica,sans-Serif" font-size="10" text-anchor="middle">IFunction</text></a></g></g><g id="edge2" class="edge"><title>Node2-&gt;Node1</title><path fill="none" stroke="#191970" d="M53,-101.805C53,-92.9102 53,-82.7798 53,-75.7511"/><polygon fill="#191970" stroke="#191970" points="49.5 -102.083 53 -112.083 56.5 -102.083 49.5 -102.083"/></g></g></svg>