<svg xmlns="http://www.w3.org/2000/svg" xmlns:xlink="http://www.w3.org/1999/xlink" width="154pt" height="152pt" viewBox="0 0 153.5 152"><g id="graph0" class="graph" transform="scale(1 1) rotate(0) translate(4 148)"><title>ITensorInfo</title><polygon fill="#fff" stroke="none" points="-4 4 -4 -148 149.5 -148 149.5 4 -4 4"/><g id="node1" class="node"><title>Node0</title><g id="a_node1"><a xlink:title="Store the tensor's metadata."><polygon fill="#bfbfbf" stroke="#000" points="36 -.5 36 -19.5 103 -19.5 103 -.5 36 -.5"/><text x="69.5" y="-7.5" font-family="Helvetica,sans-Serif" font-size="10" text-anchor="middle">ITensorInfo</text></a></g></g><g id="node2" class="node"><title>Node1</title><g id="a_node2"><a target="_top" xlink:href="classarm__compute_1_1misc_1_1_i_cloneable.xhtml"><polygon fill="#fff" stroke="#000" points="0 -57.5 0 -76.5 139 -76.5 139 -57.5 0 -57.5"/><text x="69.5" y="-64.5" font-family="Helvetica,sans-Serif" font-size="10" text-anchor="middle">ICloneable&lt; ITensorInfo &gt;</text></a></g></g><g id="edge1" class="edge"><title>Node1-&gt;Node0</title><path fill="none" stroke="#191970" d="M69.5,-47.1166C69.5,-37.8173 69.5,-27.0557 69.5,-19.7149"/><polygon fill="#191970" stroke="#191970" points="66 -47.406 69.5 -57.406 73 -47.406 66 -47.406"/></g><g id="node3" class="node"><title>Node2</title><g id="a_node3"><a target="_top" xlink:href="classarm__compute_1_1misc_1_1_i_cloneable.xhtml" xlink:title="Clonable Interface."><polygon fill="#fff" stroke="#000" points="22.5 -124.5 22.5 -143.5 116.5 -143.5 116.5 -124.5 22.5 -124.5"/><text x="69.5" y="-131.5" font-family="Helvetica,sans-Serif" font-size="10" text-anchor="middle">ICloneable&lt; T &gt;</text></a></g></g><g id="edge2" class="edge"><title>Node2-&gt;Node1</title><path fill="none" stroke="orange" stroke-dasharray="5 2" d="M69.5,-114.037C69.5,-101.67 69.5,-86.1198 69.5,-76.6273"/><polygon fill="orange" stroke="orange" points="66 -114.234 69.5 -124.234 73 -114.234 66 -114.234"/><text x="107.5" y="-98" font-family="Helvetica,sans-Serif" font-size="10" text-anchor="middle">&lt; ITensorInfo &gt;</text></g></g></svg>