<svg xmlns="http://www.w3.org/2000/svg" xmlns:xlink="http://www.w3.org/1999/xlink" width="156" height="140pt" viewBox="0 0 117 140"><g id="graph0" class="graph" transform="scale(1 1) rotate(0) translate(4 136)"><title>NEWarpPerspective</title><polygon fill="#fff" stroke="none" points="-4 4 -4 -136 113 -136 113 4 -4 4"/><g id="node1" class="node"><title>Node0</title><g id="a_node1"><a xlink:title="Basic function to run NEWarpPerspectiveKernel."><polygon fill="#bfbfbf" stroke="#000" points="0 -.5 0 -19.5 109 -19.5 109 -.5 0 -.5"/><text x="54.5" y="-7.5" font-family="Helvetica,sans-Serif" font-size="10" text-anchor="middle">NEWarpPerspective</text></a></g></g><g id="node2" class="node"><title>Node1</title><g id="a_node2"><a target="_top" xlink:href="classarm__compute_1_1_i_n_e_simple_function.xhtml" xlink:title="Basic interface for functions which have a single NEON kernel."><polygon fill="#fff" stroke="#000" points="2 -56.5 2 -75.5 107 -75.5 107 -56.5 2 -56.5"/><text x="54.5" y="-63.5" font-family="Helvetica,sans-Serif" font-size="10" text-anchor="middle">INESimpleFunction</text></a></g></g><g id="edge1" class="edge"><title>Node1-&gt;Node0</title><path fill="none" stroke="#191970" d="M54.5,-45.8045C54.5,-36.9102 54.5,-26.7798 54.5,-19.7511"/><polygon fill="#191970" stroke="#191970" points="51 -46.083 54.5 -56.083 58 -46.083 51 -46.083"/></g><g id="node3" class="node"><title>Node2</title><g id="a_node3"><a target="_top" xlink:href="classarm__compute_1_1_i_function.xhtml" xlink:title="Base class for all functions."><polygon fill="#fff" stroke="#000" points="25 -112.5 25 -131.5 84 -131.5 84 -112.5 25 -112.5"/><text x="54.5" y="-119.5" font-family="Helvetica,sans-Serif" font-size="10" text-anchor="middle">IFunction</text></a></g></g><g id="edge2" class="edge"><title>Node2-&gt;Node1</title><path fill="none" stroke="#191970" d="M54.5,-101.805C54.5,-92.9102 54.5,-82.7798 54.5,-75.7511"/><polygon fill="#191970" stroke="#191970" points="51 -102.083 54.5 -112.083 58 -102.083 51 -102.083"/></g></g></svg>