<svg xmlns="http://www.w3.org/2000/svg" xmlns:xlink="http://www.w3.org/1999/xlink" width="96" height="140pt" viewBox="0 0 72 140"><g id="graph0" class="graph" transform="scale(1 1) rotate(0) translate(4 136)"><title>GCTensor</title><polygon fill="#fff" stroke="none" points="-4 4 -4 -136 68 -136 68 4 -4 4"/><g id="node1" class="node"><title>Node0</title><g id="a_node1"><a xlink:title="Interface for OpenGL ES tensor."><polygon fill="#bfbfbf" stroke="#000" points="1 -.5 1 -19.5 63 -19.5 63 -.5 1 -.5"/><text x="32" y="-7.5" font-family="Helvetica,sans-Serif" font-size="10" text-anchor="middle">GCTensor</text></a></g></g><g id="node2" class="node"><title>Node1</title><g id="a_node2"><a target="_top" xlink:href="classarm__compute_1_1_i_g_c_tensor.xhtml" xlink:title="Interface for GLES Compute tensor."><polygon fill="#fff" stroke="#000" points="0 -56.5 0 -75.5 64 -75.5 64 -56.5 0 -56.5"/><text x="32" y="-63.5" font-family="Helvetica,sans-Serif" font-size="10" text-anchor="middle">IGCTensor</text></a></g></g><g id="edge1" class="edge"><title>Node1-&gt;Node0</title><path fill="none" stroke="#191970" d="M32,-45.8045C32,-36.9102 32,-26.7798 32,-19.7511"/><polygon fill="#191970" stroke="#191970" points="28.5 -46.083 32 -56.083 35.5 -46.083 28.5 -46.083"/></g><g id="node3" class="node"><title>Node2</title><g id="a_node3"><a target="_top" xlink:href="classarm__compute_1_1_i_tensor.xhtml" xlink:title="Interface for NEON tensor."><polygon fill="#fff" stroke="#000" points="7 -112.5 7 -131.5 57 -131.5 57 -112.5 7 -112.5"/><text x="32" y="-119.5" font-family="Helvetica,sans-Serif" font-size="10" text-anchor="middle">ITensor</text></a></g></g><g id="edge2" class="edge"><title>Node2-&gt;Node1</title><path fill="none" stroke="#191970" d="M32,-101.805C32,-92.9102 32,-82.7798 32,-75.7511"/><polygon fill="#191970" stroke="#191970" points="28.5 -102.083 32 -112.083 35.5 -102.083 28.5 -102.083"/></g></g></svg>