<svg xmlns="http://www.w3.org/2000/svg" xmlns:xlink="http://www.w3.org/1999/xlink" width="115pt" height="152pt" viewBox="0 0 115 152"><g id="graph0" class="graph" transform="scale(1 1) rotate(0) translate(4 148)"><title>Coordinates</title><polygon fill="#fff" stroke="none" points="-4 4 -4 -148 111 -148 111 4 -4 4"/><g id="node1" class="node"><title>Node0</title><g id="a_node1"><a xlink:title="Coordinates of an item."><polygon fill="#bfbfbf" stroke="#000" points="16.5 -.5 16.5 -19.5 90.5 -19.5 90.5 -.5 16.5 -.5"/><text x="53.5" y="-7.5" font-family="Helvetica,sans-Serif" font-size="10" text-anchor="middle">Coordinates</text></a></g></g><g id="node2" class="node"><title>Node1</title><g id="a_node2"><a target="_top" xlink:href="classarm__compute_1_1_dimensions.xhtml"><polygon fill="#fff" stroke="#000" points="0 -57.5 0 -76.5 107 -76.5 107 -57.5 0 -57.5"/><text x="53.5" y="-64.5" font-family="Helvetica,sans-Serif" font-size="10" text-anchor="middle">Dimensions&lt; int &gt;</text></a></g></g><g id="edge1" class="edge"><title>Node1-&gt;Node0</title><path fill="none" stroke="#191970" d="M53.5,-47.1166C53.5,-37.8173 53.5,-27.0557 53.5,-19.7149"/><polygon fill="#191970" stroke="#191970" points="50 -47.406 53.5 -57.406 57 -47.406 50 -47.406"/></g><g id="node3" class="node"><title>Node2</title><g id="a_node3"><a target="_top" xlink:href="classarm__compute_1_1_dimensions.xhtml" xlink:title="Dimensions with dimensionality."><polygon fill="#fff" stroke="#000" points="3 -124.5 3 -143.5 104 -143.5 104 -124.5 3 -124.5"/><text x="53.5" y="-131.5" font-family="Helvetica,sans-Serif" font-size="10" text-anchor="middle">Dimensions&lt; T &gt;</text></a></g></g><g id="edge2" class="edge"><title>Node2-&gt;Node1</title><path fill="none" stroke="orange" stroke-dasharray="5 2" d="M53.5,-114.037C53.5,-101.67 53.5,-86.1198 53.5,-76.6273"/><polygon fill="orange" stroke="orange" points="50 -114.234 53.5 -124.234 57 -114.234 50 -114.234"/><text x="72.5" y="-98" font-family="Helvetica,sans-Serif" font-size="10" text-anchor="middle">&lt; int &gt;</text></g></g></svg>