<svg xmlns="http://www.w3.org/2000/svg" xmlns:xlink="http://www.w3.org/1999/xlink" width="72" height="140pt" viewBox="0 0 54 140"><g id="graph0" class="graph" transform="scale(1 1) rotate(0) translate(4 136)"><title>CLLut</title><polygon fill="#fff" stroke="none" points="-4 4 -4 -136 50 -136 50 4 -4 4"/><g id="node1" class="node"><title>Node0</title><g id="a_node1"><a xlink:title="Basic implementation of the OpenCL lut interface."><polygon fill="#bfbfbf" stroke="#000" points="1 -.5 1 -19.5 45 -19.5 45 -.5 1 -.5"/><text x="23" y="-7.5" font-family="Helvetica,sans-Serif" font-size="10" text-anchor="middle">CLLut</text></a></g></g><g id="node2" class="node"><title>Node1</title><g id="a_node2"><a target="_top" xlink:href="classarm__compute_1_1_i_c_l_lut.xhtml" xlink:title="Interface for OpenCL LUT."><polygon fill="#fff" stroke="#000" points="0 -56.5 0 -75.5 46 -75.5 46 -56.5 0 -56.5"/><text x="23" y="-63.5" font-family="Helvetica,sans-Serif" font-size="10" text-anchor="middle">ICLLut</text></a></g></g><g id="edge1" class="edge"><title>Node1-&gt;Node0</title><path fill="none" stroke="#191970" d="M23,-45.8045C23,-36.9102 23,-26.7798 23,-19.7511"/><polygon fill="#191970" stroke="#191970" points="19.5 -46.083 23 -56.083 26.5 -46.083 19.5 -46.083"/></g><g id="node3" class="node"><title>Node2</title><g id="a_node3"><a target="_top" xlink:href="classarm__compute_1_1_i_lut.xhtml" xlink:title="Lookup Table object interface."><polygon fill="#fff" stroke="#000" points="6 -112.5 6 -131.5 40 -131.5 40 -112.5 6 -112.5"/><text x="23" y="-119.5" font-family="Helvetica,sans-Serif" font-size="10" text-anchor="middle">ILut</text></a></g></g><g id="edge2" class="edge"><title>Node2-&gt;Node1</title><path fill="none" stroke="#191970" d="M23,-101.805C23,-92.9102 23,-82.7798 23,-75.7511"/><polygon fill="#191970" stroke="#191970" points="19.5 -102.083 23 -112.083 26.5 -102.083 19.5 -102.083"/></g></g></svg>