<svg xmlns="http://www.w3.org/2000/svg" xmlns:xlink="http://www.w3.org/1999/xlink" width="166pt" height="196pt" viewBox="0 0 166 196"><g id="graph0" class="graph" transform="scale(1 1) rotate(0) translate(4 192)"><title>NEGEMMMatrixAdditionKernel</title><polygon fill="#fff" stroke="none" points="-4 4 -4 -192 162 -192 162 4 -4 4"/><g id="node1" class="node"><title>Node0</title><g id="a_node1"><a xlink:title="NEON kernel to perform the in-place matrix addition between 2 matrices taking into account that the s..."><polygon fill="#bfbfbf" stroke="#000" points="0 -.5 0 -19.5 158 -19.5 158 -.5 0 -.5"/><text x="79" y="-7.5" font-family="Helvetica,sans-Serif" font-size="10" text-anchor="middle">NEGEMMMatrixAdditionKernel</text></a></g></g><g id="node2" class="node"><title>Node1</title><g id="a_node2"><a target="_top" xlink:href="classarm__compute_1_1_i_c_p_p_simple_kernel.xhtml" xlink:title="Interface for simple C++ kernels having 1 tensor input and 1 tensor output."><polygon fill="#fff" stroke="#000" points="31.5 -56.5 31.5 -75.5 126.5 -75.5 126.5 -56.5 31.5 -56.5"/><text x="79" y="-63.5" font-family="Helvetica,sans-Serif" font-size="10" text-anchor="middle">INESimpleKernel</text></a></g></g><g id="edge1" class="edge"><title>Node1-&gt;Node0</title><path fill="none" stroke="#191970" d="M79,-45.8045C79,-36.9102 79,-26.7798 79,-19.7511"/><polygon fill="#191970" stroke="#191970" points="75.5 -46.083 79 -56.083 82.5 -46.083 75.5 -46.083"/></g><g id="node3" class="node"><title>Node2</title><g id="a_node3"><a target="_top" xlink:href="classarm__compute_1_1_i_c_p_p_kernel.xhtml" xlink:title="Common interface for all kernels implemented in C++."><polygon fill="#fff" stroke="#000" points="45.5 -112.5 45.5 -131.5 112.5 -131.5 112.5 -112.5 45.5 -112.5"/><text x="79" y="-119.5" font-family="Helvetica,sans-Serif" font-size="10" text-anchor="middle">ICPPKernel</text></a></g></g><g id="edge2" class="edge"><title>Node2-&gt;Node1</title><path fill="none" stroke="#191970" d="M79,-101.805C79,-92.9102 79,-82.7798 79,-75.7511"/><polygon fill="#191970" stroke="#191970" points="75.5 -102.083 79 -112.083 82.5 -102.083 75.5 -102.083"/></g><g id="node4" class="node"><title>Node3</title><g id="a_node4"><a target="_top" xlink:href="classarm__compute_1_1_i_kernel.xhtml" xlink:title="Common information for all the kernels."><polygon fill="#fff" stroke="#000" points="55 -168.5 55 -187.5 103 -187.5 103 -168.5 55 -168.5"/><text x="79" y="-175.5" font-family="Helvetica,sans-Serif" font-size="10" text-anchor="middle">IKernel</text></a></g></g><g id="edge3" class="edge"><title>Node3-&gt;Node2</title><path fill="none" stroke="#191970" d="M79,-157.805C79,-148.91 79,-138.78 79,-131.751"/><polygon fill="#191970" stroke="#191970" points="75.5 -158.083 79 -168.083 82.5 -158.083 75.5 -158.083"/></g></g></svg>