<svg xmlns="http://www.w3.org/2000/svg" xmlns:xlink="http://www.w3.org/1999/xlink" width="208" height="151pt" viewBox="0 0 156 151"><g id="graph0" class="graph" transform="scale(1 1) rotate(0) translate(4 147)"><title>CLGEMMLowpMatrixMultiplyKernel</title><polygon fill="#fff" stroke="none" points="-4 4 -4 -147 152 -147 152 4 -4 4"/><g id="node1" class="node"><title>Node0</title><g id="a_node1"><a xlink:title="OpenCL kernel to multiply matrices."><polygon fill="#bfbfbf" stroke="#000" points="0 -.5 0 -30.5 148 -30.5 148 -.5 0 -.5"/><text x="8" y="-18.5" font-family="Helvetica,sans-Serif" font-size="10" text-anchor="start">CLGEMMLowpMatrixMultiply</text><text x="74" y="-7.5" font-family="Helvetica,sans-Serif" font-size="10" text-anchor="middle">Kernel</text></a></g></g><g id="node2" class="node"><title>Node1</title><g id="a_node2"><a target="_top" xlink:href="classarm__compute_1_1_i_c_l_kernel.xhtml" xlink:title="Common interface for all the OpenCL kernels."><polygon fill="#fff" stroke="#000" points="44 -67.5 44 -86.5 104 -86.5 104 -67.5 44 -67.5"/><text x="74" y="-74.5" font-family="Helvetica,sans-Serif" font-size="10" text-anchor="middle">ICLKernel</text></a></g></g><g id="edge1" class="edge"><title>Node1-&gt;Node0</title><path fill="none" stroke="#191970" d="M74,-57.2349C74,-48.5864 74,-38.4969 74,-30.523"/><polygon fill="#191970" stroke="#191970" points="70.5 -57.475 74 -67.475 77.5 -57.475 70.5 -57.475"/></g><g id="node3" class="node"><title>Node2</title><g id="a_node3"><a target="_top" xlink:href="classarm__compute_1_1_i_kernel.xhtml" xlink:title="Common information for all the kernels."><polygon fill="#fff" stroke="#000" points="50 -123.5 50 -142.5 98 -142.5 98 -123.5 50 -123.5"/><text x="74" y="-130.5" font-family="Helvetica,sans-Serif" font-size="10" text-anchor="middle">IKernel</text></a></g></g><g id="edge2" class="edge"><title>Node2-&gt;Node1</title><path fill="none" stroke="#191970" d="M74,-112.805C74,-103.91 74,-93.7798 74,-86.7511"/><polygon fill="#191970" stroke="#191970" points="70.5 -113.083 74 -123.083 77.5 -113.083 70.5 -113.083"/></g></g></svg>