<svg xmlns="http://www.w3.org/2000/svg" xmlns:xlink="http://www.w3.org/1999/xlink" width="136" height="140pt" viewBox="0 0 102 140"><g id="graph0" class="graph" transform="scale(1 1) rotate(0) translate(4 136)"><title>CLMinMaxKernel</title><polygon fill="#fff" stroke="none" points="-4 4 -4 -136 98 -136 98 4 -4 4"/><g id="node1" class="node"><title>Node0</title><g id="a_node1"><a xlink:title="Interface for the kernel to perform min max search on an image."><polygon fill="#bfbfbf" stroke="#000" points="0 -.5 0 -19.5 94 -19.5 94 -.5 0 -.5"/><text x="47" y="-7.5" font-family="Helvetica,sans-Serif" font-size="10" text-anchor="middle">CLMinMaxKernel</text></a></g></g><g id="node2" class="node"><title>Node1</title><g id="a_node2"><a target="_top" xlink:href="classarm__compute_1_1_i_c_l_kernel.xhtml" xlink:title="Common interface for all the OpenCL kernels."><polygon fill="#fff" stroke="#000" points="17 -56.5 17 -75.5 77 -75.5 77 -56.5 17 -56.5"/><text x="47" y="-63.5" font-family="Helvetica,sans-Serif" font-size="10" text-anchor="middle">ICLKernel</text></a></g></g><g id="edge1" class="edge"><title>Node1-&gt;Node0</title><path fill="none" stroke="#191970" d="M47,-45.8045C47,-36.9102 47,-26.7798 47,-19.7511"/><polygon fill="#191970" stroke="#191970" points="43.5 -46.083 47 -56.083 50.5 -46.083 43.5 -46.083"/></g><g id="node3" class="node"><title>Node2</title><g id="a_node3"><a target="_top" xlink:href="classarm__compute_1_1_i_kernel.xhtml" xlink:title="Common information for all the kernels."><polygon fill="#fff" stroke="#000" points="23 -112.5 23 -131.5 71 -131.5 71 -112.5 23 -112.5"/><text x="47" y="-119.5" font-family="Helvetica,sans-Serif" font-size="10" text-anchor="middle">IKernel</text></a></g></g><g id="edge2" class="edge"><title>Node2-&gt;Node1</title><path fill="none" stroke="#191970" d="M47,-101.805C47,-92.9102 47,-82.7798 47,-75.7511"/><polygon fill="#191970" stroke="#191970" points="43.5 -102.083 47 -112.083 50.5 -102.083 43.5 -102.083"/></g></g></svg>