<svg xmlns="http://www.w3.org/2000/svg" xmlns:xlink="http://www.w3.org/1999/xlink" width="264" height="151pt" viewBox="0 0 198 151"><g id="graph0" class="graph" transform="scale(1 1) rotate(0) translate(4 147)"><title>CPPBoxWithNonMaximaSuppressionLimit</title><polygon fill="#fff" stroke="none" points="-4 4 -4 -147 194 -147 194 4 -4 4"/><g id="node1" class="node"><title>Node0</title><g id="a_node1"><a xlink:title="Basic function to run CPPBoxWithNonMaximaSuppressionLimitKernel."><polygon fill="#bfbfbf" stroke="#000" points="0 -.5 0 -30.5 190 -30.5 190 -.5 0 -.5"/><text x="8" y="-18.5" font-family="Helvetica,sans-Serif" font-size="10" text-anchor="start">CPPBoxWithNonMaximaSuppression</text><text x="95" y="-7.5" font-family="Helvetica,sans-Serif" font-size="10" text-anchor="middle">Limit</text></a></g></g><g id="node2" class="node"><title>Node1</title><g id="a_node2"><a target="_top" xlink:href="classarm__compute_1_1_i_c_p_p_simple_function.xhtml" xlink:title="Basic interface for functions which have a single CPP kernel."><polygon fill="#fff" stroke="#000" points="40 -67.5 40 -86.5 150 -86.5 150 -67.5 40 -67.5"/><text x="95" y="-74.5" font-family="Helvetica,sans-Serif" font-size="10" text-anchor="middle">ICPPSimpleFunction</text></a></g></g><g id="edge1" class="edge"><title>Node1-&gt;Node0</title><path fill="none" stroke="#191970" d="M95,-57.2349C95,-48.5864 95,-38.4969 95,-30.523"/><polygon fill="#191970" stroke="#191970" points="91.5 -57.475 95 -67.475 98.5 -57.475 91.5 -57.475"/></g><g id="node3" class="node"><title>Node2</title><g id="a_node3"><a target="_top" xlink:href="classarm__compute_1_1_i_function.xhtml" xlink:title="Base class for all functions."><polygon fill="#fff" stroke="#000" points="65.5 -123.5 65.5 -142.5 124.5 -142.5 124.5 -123.5 65.5 -123.5"/><text x="95" y="-130.5" font-family="Helvetica,sans-Serif" font-size="10" text-anchor="middle">IFunction</text></a></g></g><g id="edge2" class="edge"><title>Node2-&gt;Node1</title><path fill="none" stroke="#191970" d="M95,-112.805C95,-103.91 95,-93.7798 95,-86.7511"/><polygon fill="#191970" stroke="#191970" points="91.5 -113.083 95 -123.083 98.5 -113.083 91.5 -113.083"/></g></g></svg>