<svg xmlns="http://www.w3.org/2000/svg" xmlns:xlink="http://www.w3.org/1999/xlink" width="154pt" height="140pt" viewBox="0 0 154 140"><g id="graph0" class="graph" transform="scale(1 1) rotate(0) translate(4 136)"><title>NEL2NormalizeLayerKernel</title><polygon fill="#fff" stroke="none" points="-4 4 -4 -136 150 -136 150 4 -4 4"/><g id="node1" class="node"><title>Node0</title><g id="a_node1"><a xlink:title="Interface for performing a L2 normalize on a given axis given the square sum of it in this axis."><polygon fill="#bfbfbf" stroke="#000" points="0 -.5 0 -19.5 146 -19.5 146 -.5 0 -.5"/><text x="73" y="-7.5" font-family="Helvetica,sans-Serif" font-size="10" text-anchor="middle">NEL2NormalizeLayerKernel</text></a></g></g><g id="node2" class="node"><title>Node1</title><g id="a_node2"><a target="_top" xlink:href="classarm__compute_1_1_i_c_p_p_kernel.xhtml" xlink:title="Common interface for all kernels implemented in C++."><polygon fill="#fff" stroke="#000" points="42 -56.5 42 -75.5 104 -75.5 104 -56.5 42 -56.5"/><text x="73" y="-63.5" font-family="Helvetica,sans-Serif" font-size="10" text-anchor="middle">INEKernel</text></a></g></g><g id="edge1" class="edge"><title>Node1-&gt;Node0</title><path fill="none" stroke="#191970" d="M73,-45.8045C73,-36.9102 73,-26.7798 73,-19.7511"/><polygon fill="#191970" stroke="#191970" points="69.5 -46.083 73 -56.083 76.5 -46.083 69.5 -46.083"/></g><g id="node3" class="node"><title>Node2</title><g id="a_node3"><a target="_top" xlink:href="classarm__compute_1_1_i_kernel.xhtml" xlink:title="Common information for all the kernels."><polygon fill="#fff" stroke="#000" points="49 -112.5 49 -131.5 97 -131.5 97 -112.5 49 -112.5"/><text x="73" y="-119.5" font-family="Helvetica,sans-Serif" font-size="10" text-anchor="middle">IKernel</text></a></g></g><g id="edge2" class="edge"><title>Node2-&gt;Node1</title><path fill="none" stroke="#191970" d="M73,-101.805C73,-92.9102 73,-82.7798 73,-75.7511"/><polygon fill="#191970" stroke="#191970" points="69.5 -102.083 73 -112.083 76.5 -102.083 69.5 -102.083"/></g></g></svg>