<svg xmlns="http://www.w3.org/2000/svg" xmlns:xlink="http://www.w3.org/1999/xlink" width="115pt" height="140pt" viewBox="0 0 115 140"><g id="graph0" class="graph" transform="scale(1 1) rotate(0) translate(4 136)"><title>DotGraphVisitor</title><polygon fill="#fff" stroke="none" points="-4 4 -4 -136 111 -136 111 4 -4 4"/><g id="node1" class="node"><title>Node0</title><g id="a_node1"><a xlink:title="Graph printer visitor."><polygon fill="#bfbfbf" stroke="#000" points="7 -.5 7 -19.5 100 -19.5 100 -.5 7 -.5"/><text x="53.5" y="-7.5" font-family="Helvetica,sans-Serif" font-size="10" text-anchor="middle">DotGraphVisitor</text></a></g></g><g id="node2" class="node"><title>Node1</title><g id="a_node2"><a target="_top" xlink:href="classarm__compute_1_1graph_1_1_default_node_visitor.xhtml" xlink:title="Default visitor implementation."><polygon fill="#fff" stroke="#000" points="0 -56.5 0 -75.5 107 -75.5 107 -56.5 0 -56.5"/><text x="53.5" y="-63.5" font-family="Helvetica,sans-Serif" font-size="10" text-anchor="middle">DefaultNodeVisitor</text></a></g></g><g id="edge1" class="edge"><title>Node1-&gt;Node0</title><path fill="none" stroke="#191970" d="M53.5,-45.8045C53.5,-36.9102 53.5,-26.7798 53.5,-19.7511"/><polygon fill="#191970" stroke="#191970" points="50 -46.083 53.5 -56.083 57 -46.083 50 -46.083"/></g><g id="node3" class="node"><title>Node2</title><g id="a_node3"><a target="_top" xlink:href="classarm__compute_1_1graph_1_1_i_node_visitor.xhtml" xlink:title="Node visitor interface."><polygon fill="#fff" stroke="#000" points="16.5 -112.5 16.5 -131.5 90.5 -131.5 90.5 -112.5 16.5 -112.5"/><text x="53.5" y="-119.5" font-family="Helvetica,sans-Serif" font-size="10" text-anchor="middle">INodeVisitor</text></a></g></g><g id="edge2" class="edge"><title>Node2-&gt;Node1</title><path fill="none" stroke="#191970" d="M53.5,-101.805C53.5,-92.9102 53.5,-82.7798 53.5,-75.7511"/><polygon fill="#191970" stroke="#191970" points="50 -102.083 53.5 -112.083 57 -102.083 50 -102.083"/></g></g></svg>