<svg xmlns="http://www.w3.org/2000/svg" xmlns:xlink="http://www.w3.org/1999/xlink" width="148pt" height="196pt" viewBox="0 0 148 196"><g id="graph0" class="graph" transform="scale(1 1) rotate(0) translate(4 192)"><title>CLFineSVMMemoryRegion</title><polygon fill="#fff" stroke="none" points="-4 4 -4 -192 144 -192 144 4 -4 4"/><g id="node1" class="node"><title>Node0</title><g id="a_node1"><a xlink:title="OpenCL fine-grain SVM memory region implementation."><polygon fill="#bfbfbf" stroke="#000" points="0 -.5 0 -19.5 140 -19.5 140 -.5 0 -.5"/><text x="70" y="-7.5" font-family="Helvetica,sans-Serif" font-size="10" text-anchor="middle">CLFineSVMMemoryRegion</text></a></g></g><g id="node2" class="node"><title>Node1</title><g id="a_node2"><a target="_top" xlink:href="classarm__compute_1_1_i_c_l_s_v_m_memory_region.xhtml" xlink:title="OpenCL SVM memory region interface."><polygon fill="#fff" stroke="#000" points="8.5 -56.5 8.5 -75.5 131.5 -75.5 131.5 -56.5 8.5 -56.5"/><text x="70" y="-63.5" font-family="Helvetica,sans-Serif" font-size="10" text-anchor="middle">ICLSVMMemoryRegion</text></a></g></g><g id="edge1" class="edge"><title>Node1-&gt;Node0</title><path fill="none" stroke="#191970" d="M70,-45.8045C70,-36.9102 70,-26.7798 70,-19.7511"/><polygon fill="#191970" stroke="#191970" points="66.5 -46.083 70 -56.083 73.5 -46.083 66.5 -46.083"/></g><g id="node3" class="node"><title>Node2</title><g id="a_node3"><a target="_top" xlink:href="classarm__compute_1_1_i_c_l_memory_region.xhtml" xlink:title="OpenCL memory region interface."><polygon fill="#fff" stroke="#000" points="19.5 -112.5 19.5 -131.5 120.5 -131.5 120.5 -112.5 19.5 -112.5"/><text x="70" y="-119.5" font-family="Helvetica,sans-Serif" font-size="10" text-anchor="middle">ICLMemoryRegion</text></a></g></g><g id="edge2" class="edge"><title>Node2-&gt;Node1</title><path fill="none" stroke="#191970" d="M70,-101.805C70,-92.9102 70,-82.7798 70,-75.7511"/><polygon fill="#191970" stroke="#191970" points="66.5 -102.083 70 -112.083 73.5 -102.083 66.5 -102.083"/></g><g id="node4" class="node"><title>Node3</title><g id="a_node4"><a target="_top" xlink:href="classarm__compute_1_1_i_memory_region.xhtml" xlink:title="Memory region interface."><polygon fill="#fff" stroke="#000" points="25.5 -168.5 25.5 -187.5 114.5 -187.5 114.5 -168.5 25.5 -168.5"/><text x="70" y="-175.5" font-family="Helvetica,sans-Serif" font-size="10" text-anchor="middle">IMemoryRegion</text></a></g></g><g id="edge3" class="edge"><title>Node3-&gt;Node2</title><path fill="none" stroke="#191970" d="M70,-157.805C70,-148.91 70,-138.78 70,-131.751"/><polygon fill="#191970" stroke="#191970" points="66.5 -158.083 70 -168.083 73.5 -158.083 66.5 -158.083"/></g></g></svg>