<svg xmlns="http://www.w3.org/2000/svg" xmlns:xlink="http://www.w3.org/1999/xlink" width="163pt" height="276" viewBox="0 0 163 207"><g id="graph0" class="graph" transform="scale(1 1) rotate(0) translate(4 203)"><title>NESeparableConvolutionVertKernel&lt; matrix_size &gt;</title><polygon fill="#fff" stroke="none" points="-4 4 -4 -203 159 -203 159 4 -4 4"/><g id="node1" class="node"><title>Node0</title><g id="a_node1"><a xlink:title="Kernel for the Vertical pass of a Separable Convolution."><polygon fill="#bfbfbf" stroke="#000" points="0 -.5 0 -30.5 155 -30.5 155 -.5 0 -.5"/><text x="8" y="-18.5" font-family="Helvetica,sans-Serif" font-size="10" text-anchor="start">NESeparableConvolutionVert</text><text x="77.5" y="-7.5" font-family="Helvetica,sans-Serif" font-size="10" text-anchor="middle">Kernel&lt; matrix_size &gt;</text></a></g></g><g id="node2" class="node"><title>Node1</title><g id="a_node2"><a target="_top" xlink:href="classarm__compute_1_1_i_c_p_p_simple_kernel.xhtml" xlink:title="Interface for simple C++ kernels having 1 tensor input and 1 tensor output."><polygon fill="#fff" stroke="#000" points="30 -67.5 30 -86.5 125 -86.5 125 -67.5 30 -67.5"/><text x="77.5" y="-74.5" font-family="Helvetica,sans-Serif" font-size="10" text-anchor="middle">INESimpleKernel</text></a></g></g><g id="edge1" class="edge"><title>Node1-&gt;Node0</title><path fill="none" stroke="#191970" d="M77.5,-57.2349C77.5,-48.5864 77.5,-38.4969 77.5,-30.523"/><polygon fill="#191970" stroke="#191970" points="74 -57.475 77.5 -67.475 81 -57.475 74 -57.475"/></g><g id="node3" class="node"><title>Node2</title><g id="a_node3"><a target="_top" xlink:href="classarm__compute_1_1_i_c_p_p_kernel.xhtml" xlink:title="Common interface for all kernels implemented in C++."><polygon fill="#fff" stroke="#000" points="44 -123.5 44 -142.5 111 -142.5 111 -123.5 44 -123.5"/><text x="77.5" y="-130.5" font-family="Helvetica,sans-Serif" font-size="10" text-anchor="middle">ICPPKernel</text></a></g></g><g id="edge2" class="edge"><title>Node2-&gt;Node1</title><path fill="none" stroke="#191970" d="M77.5,-112.805C77.5,-103.91 77.5,-93.7798 77.5,-86.7511"/><polygon fill="#191970" stroke="#191970" points="74 -113.083 77.5 -123.083 81 -113.083 74 -113.083"/></g><g id="node4" class="node"><title>Node3</title><g id="a_node4"><a target="_top" xlink:href="classarm__compute_1_1_i_kernel.xhtml" xlink:title="Common information for all the kernels."><polygon fill="#fff" stroke="#000" points="53.5 -179.5 53.5 -198.5 101.5 -198.5 101.5 -179.5 53.5 -179.5"/><text x="77.5" y="-186.5" font-family="Helvetica,sans-Serif" font-size="10" text-anchor="middle">IKernel</text></a></g></g><g id="edge3" class="edge"><title>Node3-&gt;Node2</title><path fill="none" stroke="#191970" d="M77.5,-168.805C77.5,-159.91 77.5,-149.78 77.5,-142.751"/><polygon fill="#191970" stroke="#191970" points="74 -169.083 77.5 -179.083 81 -169.083 74 -169.083"/></g></g></svg>