<svg xmlns="http://www.w3.org/2000/svg" xmlns:xlink="http://www.w3.org/1999/xlink" width="151pt" height="151pt" viewBox="0 0 151 151"><g id="graph0" class="graph" transform="scale(1 1) rotate(0) translate(4 147)"><title>NELocallyConnectedMatrixMultiplyKernel</title><polygon fill="#fff" stroke="none" points="-4 4 -4 -147 147 -147 147 4 -4 4"/><g id="node1" class="node"><title>Node0</title><g id="a_node1"><a xlink:title="NEON kernel to multiply each row of first tensor with low 2 dimensions of second tensor."><polygon fill="#bfbfbf" stroke="#000" points="0 -.5 0 -30.5 143 -30.5 143 -.5 0 -.5"/><text x="8" y="-18.5" font-family="Helvetica,sans-Serif" font-size="10" text-anchor="start">NELocallyConnectedMatrix</text><text x="71.5" y="-7.5" font-family="Helvetica,sans-Serif" font-size="10" text-anchor="middle">MultiplyKernel</text></a></g></g><g id="node2" class="node"><title>Node1</title><g id="a_node2"><a target="_top" xlink:href="classarm__compute_1_1_i_c_p_p_kernel.xhtml" xlink:title="Common interface for all kernels implemented in C++."><polygon fill="#fff" stroke="#000" points="40.5 -67.5 40.5 -86.5 102.5 -86.5 102.5 -67.5 40.5 -67.5"/><text x="71.5" y="-74.5" font-family="Helvetica,sans-Serif" font-size="10" text-anchor="middle">INEKernel</text></a></g></g><g id="edge1" class="edge"><title>Node1-&gt;Node0</title><path fill="none" stroke="#191970" d="M71.5,-57.2349C71.5,-48.5864 71.5,-38.4969 71.5,-30.523"/><polygon fill="#191970" stroke="#191970" points="68 -57.475 71.5 -67.475 75 -57.475 68 -57.475"/></g><g id="node3" class="node"><title>Node2</title><g id="a_node3"><a target="_top" xlink:href="classarm__compute_1_1_i_kernel.xhtml" xlink:title="Common information for all the kernels."><polygon fill="#fff" stroke="#000" points="47.5 -123.5 47.5 -142.5 95.5 -142.5 95.5 -123.5 47.5 -123.5"/><text x="71.5" y="-130.5" font-family="Helvetica,sans-Serif" font-size="10" text-anchor="middle">IKernel</text></a></g></g><g id="edge2" class="edge"><title>Node2-&gt;Node1</title><path fill="none" stroke="#191970" d="M71.5,-112.805C71.5,-103.91 71.5,-93.7798 71.5,-86.7511"/><polygon fill="#191970" stroke="#191970" points="68 -113.083 71.5 -123.083 75 -113.083 68 -113.083"/></g></g></svg>