<svg xmlns="http://www.w3.org/2000/svg" xmlns:xlink="http://www.w3.org/1999/xlink" width="142pt" height="140pt" viewBox="0 0 142 140"><g id="graph0" class="graph" transform="scale(1 1) rotate(0) translate(4 136)"><title>NEUpsampleLayerKernel</title><polygon fill="#fff" stroke="none" points="-4 4 -4 -136 138 -136 138 4 -4 4"/><g id="node1" class="node"><title>Node0</title><g id="a_node1"><a xlink:title="Interface for the Upsample layer kernel."><polygon fill="#bfbfbf" stroke="#000" points="0 -.5 0 -19.5 134 -19.5 134 -.5 0 -.5"/><text x="67" y="-7.5" font-family="Helvetica,sans-Serif" font-size="10" text-anchor="middle">NEUpsampleLayerKernel</text></a></g></g><g id="node2" class="node"><title>Node1</title><g id="a_node2"><a target="_top" xlink:href="classarm__compute_1_1_i_c_p_p_kernel.xhtml" xlink:title="Common interface for all kernels implemented in C++."><polygon fill="#fff" stroke="#000" points="36 -56.5 36 -75.5 98 -75.5 98 -56.5 36 -56.5"/><text x="67" y="-63.5" font-family="Helvetica,sans-Serif" font-size="10" text-anchor="middle">INEKernel</text></a></g></g><g id="edge1" class="edge"><title>Node1-&gt;Node0</title><path fill="none" stroke="#191970" d="M67,-45.8045C67,-36.9102 67,-26.7798 67,-19.7511"/><polygon fill="#191970" stroke="#191970" points="63.5 -46.083 67 -56.083 70.5 -46.083 63.5 -46.083"/></g><g id="node3" class="node"><title>Node2</title><g id="a_node3"><a target="_top" xlink:href="classarm__compute_1_1_i_kernel.xhtml" xlink:title="Common information for all the kernels."><polygon fill="#fff" stroke="#000" points="43 -112.5 43 -131.5 91 -131.5 91 -112.5 43 -112.5"/><text x="67" y="-119.5" font-family="Helvetica,sans-Serif" font-size="10" text-anchor="middle">IKernel</text></a></g></g><g id="edge2" class="edge"><title>Node2-&gt;Node1</title><path fill="none" stroke="#191970" d="M67,-101.805C67,-92.9102 67,-82.7798 67,-75.7511"/><polygon fill="#191970" stroke="#191970" points="63.5 -102.083 67 -112.083 70.5 -102.083 63.5 -102.083"/></g></g></svg>