<svg xmlns="http://www.w3.org/2000/svg" xmlns:xlink="http://www.w3.org/1999/xlink" width="86pt" height="140pt" viewBox="0 0 86 140"><g id="graph0" class="graph" transform="scale(1 1) rotate(0) translate(4 136)"><title>CLSubTensor</title><polygon fill="#fff" stroke="none" points="-4 4 -4 -136 82 -136 82 4 -4 4"/><g id="node1" class="node"><title>Node0</title><g id="a_node1"><a xlink:title="Basic implementation of the OpenCL sub-tensor interface."><polygon fill="#bfbfbf" stroke="#000" points="0 -.5 0 -19.5 78 -19.5 78 -.5 0 -.5"/><text x="39" y="-7.5" font-family="Helvetica,sans-Serif" font-size="10" text-anchor="middle">CLSubTensor</text></a></g></g><g id="node2" class="node"><title>Node1</title><g id="a_node2"><a target="_top" xlink:href="classarm__compute_1_1_i_c_l_tensor.xhtml" xlink:title="Interface for OpenCL tensor."><polygon fill="#fff" stroke="#000" points="9 -56.5 9 -75.5 69 -75.5 69 -56.5 9 -56.5"/><text x="39" y="-63.5" font-family="Helvetica,sans-Serif" font-size="10" text-anchor="middle">ICLTensor</text></a></g></g><g id="edge1" class="edge"><title>Node1-&gt;Node0</title><path fill="none" stroke="#191970" d="M39,-45.8045C39,-36.9102 39,-26.7798 39,-19.7511"/><polygon fill="#191970" stroke="#191970" points="35.5 -46.083 39 -56.083 42.5 -46.083 35.5 -46.083"/></g><g id="node3" class="node"><title>Node2</title><g id="a_node3"><a target="_top" xlink:href="classarm__compute_1_1_i_tensor.xhtml" xlink:title="Interface for NEON tensor."><polygon fill="#fff" stroke="#000" points="14 -112.5 14 -131.5 64 -131.5 64 -112.5 14 -112.5"/><text x="39" y="-119.5" font-family="Helvetica,sans-Serif" font-size="10" text-anchor="middle">ITensor</text></a></g></g><g id="edge2" class="edge"><title>Node2-&gt;Node1</title><path fill="none" stroke="#191970" d="M39,-101.805C39,-92.9102 39,-82.7798 39,-75.7511"/><polygon fill="#191970" stroke="#191970" points="35.5 -102.083 39 -112.083 42.5 -102.083 35.5 -102.083"/></g></g></svg>