<svg xmlns="http://www.w3.org/2000/svg" xmlns:xlink="http://www.w3.org/1999/xlink" width="140pt" height="140pt" viewBox="0 0 140 140"><g id="graph0" class="graph" transform="scale(1 1) rotate(0) translate(4 136)"><title>AccessWindowVertical</title><polygon fill="#fff" stroke="none" points="-4 4 -4 -136 136 -136 136 4 -4 4"/><g id="node1" class="node"><title>Node0</title><g id="a_node1"><a xlink:title="Implementation of a column access pattern."><polygon fill="#bfbfbf" stroke="#000" points="5.5 -.5 5.5 -19.5 126.5 -19.5 126.5 -.5 5.5 -.5"/><text x="66" y="-7.5" font-family="Helvetica,sans-Serif" font-size="10" text-anchor="middle">AccessWindowVertical</text></a></g></g><g id="node2" class="node"><title>Node1</title><g id="a_node2"><a target="_top" xlink:href="classarm__compute_1_1_access_window_rectangle.xhtml" xlink:title="Implementation of a rectangular access pattern."><polygon fill="#fff" stroke="#000" points="0 -56.5 0 -75.5 132 -75.5 132 -56.5 0 -56.5"/><text x="66" y="-63.5" font-family="Helvetica,sans-Serif" font-size="10" text-anchor="middle">AccessWindowRectangle</text></a></g></g><g id="edge1" class="edge"><title>Node1-&gt;Node0</title><path fill="none" stroke="#191970" d="M66,-45.8045C66,-36.9102 66,-26.7798 66,-19.7511"/><polygon fill="#191970" stroke="#191970" points="62.5 -46.083 66 -56.083 69.5 -46.083 62.5 -46.083"/></g><g id="node3" class="node"><title>Node2</title><g id="a_node3"><a target="_top" xlink:href="classarm__compute_1_1_i_access_window.xhtml" xlink:title="Interface describing methods to update access window and padding based on kernel parameters."><polygon fill="#fff" stroke="#000" points="22 -112.5 22 -131.5 110 -131.5 110 -112.5 22 -112.5"/><text x="66" y="-119.5" font-family="Helvetica,sans-Serif" font-size="10" text-anchor="middle">IAccessWindow</text></a></g></g><g id="edge2" class="edge"><title>Node2-&gt;Node1</title><path fill="none" stroke="#191970" d="M66,-101.805C66,-92.9102 66,-82.7798 66,-75.7511"/><polygon fill="#191970" stroke="#191970" points="62.5 -102.083 66 -112.083 69.5 -102.083 62.5 -102.083"/></g></g></svg>