<svg xmlns="http://www.w3.org/2000/svg" xmlns:xlink="http://www.w3.org/1999/xlink" width="148pt" height="151pt" viewBox="0 0 148 151"><g id="graph0" class="graph" transform="scale(1 1) rotate(0) translate(4 147)"><title>CLDirectConvolutionLayerOutputStageKernel</title><polygon fill="#fff" stroke="none" points="-4 4 -4 -147 144 -147 144 4 -4 4"/><g id="node1" class="node"><title>Node0</title><g id="a_node1"><a xlink:title="OpenCL kernel to accumulate the biases, if provided, or downscale in case of quantized input."><polygon fill="#bfbfbf" stroke="#000" points="0 -.5 0 -30.5 140 -30.5 140 -.5 0 -.5"/><text x="8" y="-18.5" font-family="Helvetica,sans-Serif" font-size="10" text-anchor="start">CLDirectConvolutionLayer</text><text x="70" y="-7.5" font-family="Helvetica,sans-Serif" font-size="10" text-anchor="middle">OutputStageKernel</text></a></g></g><g id="node2" class="node"><title>Node1</title><g id="a_node2"><a target="_top" xlink:href="classarm__compute_1_1_i_c_l_kernel.xhtml" xlink:title="Common interface for all the OpenCL kernels."><polygon fill="#fff" stroke="#000" points="40 -67.5 40 -86.5 100 -86.5 100 -67.5 40 -67.5"/><text x="70" y="-74.5" font-family="Helvetica,sans-Serif" font-size="10" text-anchor="middle">ICLKernel</text></a></g></g><g id="edge1" class="edge"><title>Node1-&gt;Node0</title><path fill="none" stroke="#191970" d="M70,-57.2349C70,-48.5864 70,-38.4969 70,-30.523"/><polygon fill="#191970" stroke="#191970" points="66.5 -57.475 70 -67.475 73.5 -57.475 66.5 -57.475"/></g><g id="node3" class="node"><title>Node2</title><g id="a_node3"><a target="_top" xlink:href="classarm__compute_1_1_i_kernel.xhtml" xlink:title="Common information for all the kernels."><polygon fill="#fff" stroke="#000" points="46 -123.5 46 -142.5 94 -142.5 94 -123.5 46 -123.5"/><text x="70" y="-130.5" font-family="Helvetica,sans-Serif" font-size="10" text-anchor="middle">IKernel</text></a></g></g><g id="edge2" class="edge"><title>Node2-&gt;Node1</title><path fill="none" stroke="#191970" d="M70,-112.805C70,-103.91 70,-93.7798 70,-86.7511"/><polygon fill="#191970" stroke="#191970" points="66.5 -113.083 70 -123.083 73.5 -113.083 66.5 -113.083"/></g></g></svg>