<svg xmlns="http://www.w3.org/2000/svg" xmlns:xlink="http://www.w3.org/1999/xlink" width="131pt" height="152pt" viewBox="0 0 131 152"><g id="graph0" class="graph" transform="scale(1 1) rotate(0) translate(4 148)"><title>Strides</title><polygon fill="#fff" stroke="none" points="-4 4 -4 -148 127 -148 127 4 -4 4"/><g id="node1" class="node"><title>Node0</title><g id="a_node1"><a xlink:title="Strides of an item in bytes."><polygon fill="#bfbfbf" stroke="#000" points="36.5 -.5 36.5 -19.5 86.5 -19.5 86.5 -.5 36.5 -.5"/><text x="61.5" y="-7.5" font-family="Helvetica,sans-Serif" font-size="10" text-anchor="middle">Strides</text></a></g></g><g id="node2" class="node"><title>Node1</title><g id="a_node2"><a target="_top" xlink:href="classarm__compute_1_1_dimensions.xhtml"><polygon fill="#fff" stroke="#000" points="0 -57.5 0 -76.5 123 -76.5 123 -57.5 0 -57.5"/><text x="61.5" y="-64.5" font-family="Helvetica,sans-Serif" font-size="10" text-anchor="middle">Dimensions&lt; size_t &gt;</text></a></g></g><g id="edge1" class="edge"><title>Node1-&gt;Node0</title><path fill="none" stroke="#191970" d="M61.5,-47.1166C61.5,-37.8173 61.5,-27.0557 61.5,-19.7149"/><polygon fill="#191970" stroke="#191970" points="58 -47.406 61.5 -57.406 65 -47.406 58 -47.406"/></g><g id="node3" class="node"><title>Node2</title><g id="a_node3"><a target="_top" xlink:href="classarm__compute_1_1_dimensions.xhtml" xlink:title="Dimensions with dimensionality."><polygon fill="#fff" stroke="#000" points="11 -124.5 11 -143.5 112 -143.5 112 -124.5 11 -124.5"/><text x="61.5" y="-131.5" font-family="Helvetica,sans-Serif" font-size="10" text-anchor="middle">Dimensions&lt; T &gt;</text></a></g></g><g id="edge2" class="edge"><title>Node2-&gt;Node1</title><path fill="none" stroke="orange" stroke-dasharray="5 2" d="M61.5,-114.037C61.5,-101.67 61.5,-86.1198 61.5,-76.6273"/><polygon fill="orange" stroke="orange" points="58 -114.234 61.5 -124.234 65 -114.234 58 -114.234"/><text x="88.5" y="-98" font-family="Helvetica,sans-Serif" font-size="10" text-anchor="middle">&lt; size_t &gt;</text></g></g></svg>