<svg xmlns="http://www.w3.org/2000/svg" xmlns:xlink="http://www.w3.org/1999/xlink" width="166pt" height="336" viewBox="0 0 166 252"><g id="graph0" class="graph" transform="scale(1 1) rotate(0) translate(4 248)"><title>CLAccumulateWeightedKernel</title><polygon fill="#fff" stroke="none" points="-4 4 -4 -248 162 -248 162 4 -4 4"/><g id="node1" class="node"><title>Node0</title><g id="a_node1"><a xlink:title="Interface for the accumulate weighted kernel."><polygon fill="#bfbfbf" stroke="#000" points="0 -.5 0 -19.5 158 -19.5 158 -.5 0 -.5"/><text x="79" y="-7.5" font-family="Helvetica,sans-Serif" font-size="10" text-anchor="middle">CLAccumulateWeightedKernel</text></a></g></g><g id="node2" class="node"><title>Node1</title><g id="a_node2"><a target="_top" xlink:href="classarm__compute_1_1_i_c_l_simple2_d_kernel.xhtml" xlink:title="Interface for simple OpenCL kernels having 1 tensor input and 1 tensor output."><polygon fill="#fff" stroke="#000" points="25.5 -56.5 25.5 -75.5 132.5 -75.5 132.5 -56.5 25.5 -56.5"/><text x="79" y="-63.5" font-family="Helvetica,sans-Serif" font-size="10" text-anchor="middle">ICLSimple2DKernel</text></a></g></g><g id="edge1" class="edge"><title>Node1-&gt;Node0</title><path fill="none" stroke="#191970" d="M79,-45.8045C79,-36.9102 79,-26.7798 79,-19.7511"/><polygon fill="#191970" stroke="#191970" points="75.5 -46.083 79 -56.083 82.5 -46.083 75.5 -46.083"/></g><g id="node3" class="node"><title>Node2</title><g id="a_node3"><a target="_top" xlink:href="classarm__compute_1_1_i_c_l_simple_kernel.xhtml" xlink:title="Interface for simple OpenCL kernels having 1 tensor input and 1 tensor output."><polygon fill="#fff" stroke="#000" points="32.5 -112.5 32.5 -131.5 125.5 -131.5 125.5 -112.5 32.5 -112.5"/><text x="79" y="-119.5" font-family="Helvetica,sans-Serif" font-size="10" text-anchor="middle">ICLSimpleKernel</text></a></g></g><g id="edge2" class="edge"><title>Node2-&gt;Node1</title><path fill="none" stroke="#191970" d="M79,-101.805C79,-92.9102 79,-82.7798 79,-75.7511"/><polygon fill="#191970" stroke="#191970" points="75.5 -102.083 79 -112.083 82.5 -102.083 75.5 -102.083"/></g><g id="node4" class="node"><title>Node3</title><g id="a_node4"><a target="_top" xlink:href="classarm__compute_1_1_i_c_l_kernel.xhtml" xlink:title="Common interface for all the OpenCL kernels."><polygon fill="#fff" stroke="#000" points="49 -168.5 49 -187.5 109 -187.5 109 -168.5 49 -168.5"/><text x="79" y="-175.5" font-family="Helvetica,sans-Serif" font-size="10" text-anchor="middle">ICLKernel</text></a></g></g><g id="edge3" class="edge"><title>Node3-&gt;Node2</title><path fill="none" stroke="#191970" d="M79,-157.805C79,-148.91 79,-138.78 79,-131.751"/><polygon fill="#191970" stroke="#191970" points="75.5 -158.083 79 -168.083 82.5 -158.083 75.5 -158.083"/></g><g id="node5" class="node"><title>Node4</title><g id="a_node5"><a target="_top" xlink:href="classarm__compute_1_1_i_kernel.xhtml" xlink:title="Common information for all the kernels."><polygon fill="#fff" stroke="#000" points="55 -224.5 55 -243.5 103 -243.5 103 -224.5 55 -224.5"/><text x="79" y="-231.5" font-family="Helvetica,sans-Serif" font-size="10" text-anchor="middle">IKernel</text></a></g></g><g id="edge4" class="edge"><title>Node4-&gt;Node3</title><path fill="none" stroke="#191970" d="M79,-213.805C79,-204.91 79,-194.78 79,-187.751"/><polygon fill="#191970" stroke="#191970" points="75.5 -214.083 79 -224.083 82.5 -214.083 75.5 -214.083"/></g></g></svg>