<svg xmlns="http://www.w3.org/2000/svg" xmlns:xlink="http://www.w3.org/1999/xlink" width="185pt" height="151pt" viewBox="0 0 185 151"><g id="graph0" class="graph" transform="scale(1 1) rotate(0) translate(4 147)"><title>NEGEMMLowpQuantizeDownInt32ToInt16ScaleByFixedPointKernel</title><polygon fill="#fff" stroke="none" points="-4 4 -4 -147 181 -147 181 4 -4 4"/><g id="node1" class="node"><title>Node0</title><g id="a_node1"><a xlink:title="NEON kernel used to quantize down the int32 accumulator values of GEMMLowp to QSYMM16."><polygon fill="#bfbfbf" stroke="#000" points="0 -.5 0 -30.5 177 -30.5 177 -.5 0 -.5"/><text x="8" y="-18.5" font-family="Helvetica,sans-Serif" font-size="10" text-anchor="start">NEGEMMLowpQuantizeDownInt32</text><text x="88.5" y="-7.5" font-family="Helvetica,sans-Serif" font-size="10" text-anchor="middle">ToInt16ScaleByFixedPointKernel</text></a></g></g><g id="node2" class="node"><title>Node1</title><g id="a_node2"><a target="_top" xlink:href="classarm__compute_1_1_i_c_p_p_kernel.xhtml" xlink:title="Common interface for all kernels implemented in C++."><polygon fill="#fff" stroke="#000" points="57.5 -67.5 57.5 -86.5 119.5 -86.5 119.5 -67.5 57.5 -67.5"/><text x="88.5" y="-74.5" font-family="Helvetica,sans-Serif" font-size="10" text-anchor="middle">INEKernel</text></a></g></g><g id="edge1" class="edge"><title>Node1-&gt;Node0</title><path fill="none" stroke="#191970" d="M88.5,-57.2349C88.5,-48.5864 88.5,-38.4969 88.5,-30.523"/><polygon fill="#191970" stroke="#191970" points="85 -57.475 88.5 -67.475 92 -57.475 85 -57.475"/></g><g id="node3" class="node"><title>Node2</title><g id="a_node3"><a target="_top" xlink:href="classarm__compute_1_1_i_kernel.xhtml" xlink:title="Common information for all the kernels."><polygon fill="#fff" stroke="#000" points="64.5 -123.5 64.5 -142.5 112.5 -142.5 112.5 -123.5 64.5 -123.5"/><text x="88.5" y="-130.5" font-family="Helvetica,sans-Serif" font-size="10" text-anchor="middle">IKernel</text></a></g></g><g id="edge2" class="edge"><title>Node2-&gt;Node1</title><path fill="none" stroke="#191970" d="M88.5,-112.805C88.5,-103.91 88.5,-93.7798 88.5,-86.7511"/><polygon fill="#191970" stroke="#191970" points="85 -113.083 88.5 -123.083 92 -113.083 85 -113.083"/></g></g></svg>