<svg xmlns="http://www.w3.org/2000/svg" xmlns:xlink="http://www.w3.org/1999/xlink" width="146pt" height="163pt" viewBox="0 0 146 163"><g id="graph0" class="graph" transform="scale(1 1) rotate(0) translate(4 159)"><title>CLFlattenLayerKernel</title><polygon fill="#fff" stroke="none" points="-4 4 -4 -159 142 -159 142 4 -4 4"/><g id="node1" class="node"><title>Node0</title><g id="a_node1"><a xlink:title="OpenCL interface for the flatten kernel."><polygon fill="#bfbfbf" stroke="#000" points="15.5 -.5 15.5 -19.5 132.5 -19.5 132.5 -.5 15.5 -.5"/><text x="74" y="-7.5" font-family="Helvetica,sans-Serif" font-size="10" text-anchor="middle">CLFlattenLayerKernel</text></a></g></g><g id="node2" class="node"><title>Node1</title><g id="a_node2"><a target="_top" xlink:href="classarm__compute_1_1_i_c_l_kernel.xhtml" xlink:title="Common interface for all the OpenCL kernels."><polygon fill="#fff" stroke="#000" points="0 -78.5 0 -97.5 60 -97.5 60 -78.5 0 -78.5"/><text x="30" y="-85.5" font-family="Helvetica,sans-Serif" font-size="10" text-anchor="middle">ICLKernel</text></a></g></g><g id="edge1" class="edge"><title>Node1-&gt;Node0</title><path fill="none" stroke="#191970" d="M40.0937,-69.5654C49.135,-53.9486 62.0157,-31.7002 69.0115,-19.6165"/><polygon fill="#191970" stroke="#191970" points="37.029 -67.874 35.047 -78.282 43.087 -71.381 37.029 -67.874"/></g><g id="node3" class="node"><title>Node2</title><g id="a_node3"><a target="_top" xlink:href="classarm__compute_1_1_i_kernel.xhtml" xlink:title="Common information for all the kernels."><polygon fill="#fff" stroke="#000" points="6 -135.5 6 -154.5 54 -154.5 54 -135.5 6 -135.5"/><text x="30" y="-142.5" font-family="Helvetica,sans-Serif" font-size="10" text-anchor="middle">IKernel</text></a></g></g><g id="edge2" class="edge"><title>Node2-&gt;Node1</title><path fill="none" stroke="#191970" d="M30,-125.117C30,-115.817 30,-105.056 30,-97.7149"/><polygon fill="#191970" stroke="#191970" points="26.5 -125.406 30 -135.406 33.5 -125.406 26.5 -125.406"/></g><g id="node4" class="node"><title>Node3</title><g id="a_node4"><a target="_top" xlink:href="classarm__compute_1_1_i_c_l_tensor.xhtml" xlink:title="Interface for OpenCL tensor."><polygon fill="#fff" stroke="#000" points="78 -78.5 78 -97.5 138 -97.5 138 -78.5 78 -78.5"/><text x="108" y="-85.5" font-family="Helvetica,sans-Serif" font-size="10" text-anchor="middle">ICLTensor</text></a></g></g><g id="edge3" class="edge"><title>Node3-&gt;Node0</title><path fill="none" stroke="#9a32cd" stroke-dasharray="5 2" d="M100.002,-69.1216C93.0265,-53.5297 83.2096,-31.5862 77.8547,-19.6165"/><polygon fill="#9a32cd" stroke="#9a32cd" points="96.821 -70.583 104.1 -78.282 103.211 -67.724 96.821 -70.583"/><text x="115" y="-52" font-family="Helvetica,sans-Serif" font-size="10" text-anchor="middle">_output</text><text x="115" y="-41" font-family="Helvetica,sans-Serif" font-size="10" text-anchor="middle">_input</text></g><g id="node5" class="node"><title>Node4</title><g id="a_node5"><a target="_top" xlink:href="classarm__compute_1_1_i_tensor.xhtml" xlink:title="Interface for NEON tensor."><polygon fill="#fff" stroke="#000" points="83 -135.5 83 -154.5 133 -154.5 133 -135.5 83 -135.5"/><text x="108" y="-142.5" font-family="Helvetica,sans-Serif" font-size="10" text-anchor="middle">ITensor</text></a></g></g><g id="edge4" class="edge"><title>Node4-&gt;Node3</title><path fill="none" stroke="#191970" d="M108,-125.117C108,-115.817 108,-105.056 108,-97.7149"/><polygon fill="#191970" stroke="#191970" points="104.5 -125.406 108 -135.406 111.5 -125.406 104.5 -125.406"/></g></g></svg>