<svg xmlns="http://www.w3.org/2000/svg" xmlns:xlink="http://www.w3.org/1999/xlink" width="253pt" height="196pt" viewBox="0 0 253 196"><g id="graph0" class="graph" transform="scale(1 1) rotate(0) translate(4 192)"><title>CLDirectConvolutionLayerKernel</title><polygon fill="#fff" stroke="none" points="-4 4 -4 -192 249 -192 249 4 -4 4"/><g id="node1" class="node"><title>Node0</title><g id="a_node1"><a xlink:title="Interface for the direct convolution kernel."><polygon fill="#bfbfbf" stroke="#000" points="38 -.5 38 -30.5 178 -30.5 178 -.5 38 -.5"/><text x="46" y="-18.5" font-family="Helvetica,sans-Serif" font-size="10" text-anchor="start">CLDirectConvolutionLayer</text><text x="108" y="-7.5" font-family="Helvetica,sans-Serif" font-size="10" text-anchor="middle">Kernel</text></a></g></g><g id="node2" class="node"><title>Node1</title><g id="a_node2"><a target="_top" xlink:href="classarm__compute_1_1_i_c_l_kernel.xhtml" xlink:title="Common interface for all the OpenCL kernels."><polygon fill="#fff" stroke="#000" points="0 -111.5 0 -130.5 60 -130.5 60 -111.5 0 -111.5"/><text x="30" y="-118.5" font-family="Helvetica,sans-Serif" font-size="10" text-anchor="middle">ICLKernel</text></a></g></g><g id="edge1" class="edge"><title>Node1-&gt;Node0</title><path fill="none" stroke="#191970" d="M42.8582,-102.938C58.0279,-82.8091 82.9772,-49.7033 97.1929,-30.8403"/><polygon fill="#191970" stroke="#191970" points="39.874 -101.083 36.65 -111.176 45.464 -105.296 39.874 -101.083"/></g><g id="node3" class="node"><title>Node2</title><g id="a_node3"><a target="_top" xlink:href="classarm__compute_1_1_i_kernel.xhtml" xlink:title="Common information for all the kernels."><polygon fill="#fff" stroke="#000" points="6 -168.5 6 -187.5 54 -187.5 54 -168.5 6 -168.5"/><text x="30" y="-175.5" font-family="Helvetica,sans-Serif" font-size="10" text-anchor="middle">IKernel</text></a></g></g><g id="edge2" class="edge"><title>Node2-&gt;Node1</title><path fill="none" stroke="#191970" d="M30,-158.117C30,-148.817 30,-138.056 30,-130.715"/><polygon fill="#191970" stroke="#191970" points="26.5 -158.406 30 -168.406 33.5 -158.406 26.5 -158.406"/></g><g id="node4" class="node"><title>Node3</title><g id="a_node4"><a target="_top" xlink:href="classarm__compute_1_1_i_c_l_tensor.xhtml" xlink:title="Interface for OpenCL tensor."><polygon fill="#fff" stroke="#000" points="78 -111.5 78 -130.5 138 -130.5 138 -111.5 78 -111.5"/><text x="108" y="-118.5" font-family="Helvetica,sans-Serif" font-size="10" text-anchor="middle">ICLTensor</text></a></g></g><g id="edge3" class="edge"><title>Node3-&gt;Node0</title><path fill="none" stroke="#9a32cd" stroke-dasharray="5 2" d="M108,-100.996C108,-80.7355 108,-49.1085 108,-30.8403"/><polygon fill="#9a32cd" stroke="#9a32cd" points="104.5 -101.176 108 -111.176 111.5 -101.176 104.5 -101.176"/><text x="129" y="-85" font-family="Helvetica,sans-Serif" font-size="10" text-anchor="middle">_output</text><text x="129" y="-74" font-family="Helvetica,sans-Serif" font-size="10" text-anchor="middle">_weights</text><text x="129" y="-63" font-family="Helvetica,sans-Serif" font-size="10" text-anchor="middle">_biases</text><text x="129" y="-52" font-family="Helvetica,sans-Serif" font-size="10" text-anchor="middle">_input</text></g><g id="node5" class="node"><title>Node4</title><g id="a_node5"><a target="_top" xlink:href="classarm__compute_1_1_i_tensor.xhtml" xlink:title="Interface for NEON tensor."><polygon fill="#fff" stroke="#000" points="83 -168.5 83 -187.5 133 -187.5 133 -168.5 83 -168.5"/><text x="108" y="-175.5" font-family="Helvetica,sans-Serif" font-size="10" text-anchor="middle">ITensor</text></a></g></g><g id="edge4" class="edge"><title>Node4-&gt;Node3</title><path fill="none" stroke="#191970" d="M108,-158.117C108,-148.817 108,-138.056 108,-130.715"/><polygon fill="#191970" stroke="#191970" points="104.5 -158.406 108 -168.406 111.5 -158.406 104.5 -158.406"/></g><g id="node6" class="node"><title>Node5</title><g id="a_node6"><a target="_top" xlink:href="structarm__compute_1_1_border_size.xhtml" xlink:title="Container for 2D border size."><polygon fill="#fff" stroke="#000" points="156.5 -111.5 156.5 -130.5 225.5 -130.5 225.5 -111.5 156.5 -111.5"/><text x="191" y="-118.5" font-family="Helvetica,sans-Serif" font-size="10" text-anchor="middle">BorderSize</text></a></g></g><g id="edge5" class="edge"><title>Node5-&gt;Node0</title><path fill="none" stroke="#9a32cd" stroke-dasharray="5 2" d="M184.417,-101.98C178.218,-86.7043 167.82,-64.8193 154,-49 147.953,-42.078 140.144,-35.8574 132.684,-30.7565"/><polygon fill="#9a32cd" stroke="#9a32cd" points="181.165 -103.274 188.029 -111.345 187.696 -100.755 181.165 -103.274"/><text x="213" y="-68.5" font-family="Helvetica,sans-Serif" font-size="10" text-anchor="middle">_border_size</text></g></g></svg>