<svg xmlns="http://www.w3.org/2000/svg" xmlns:xlink="http://www.w3.org/1999/xlink" width="106pt" height="140pt" viewBox="0 0 106 140"><g id="graph0" class="graph" transform="scale(1 1) rotate(0) translate(4 136)"><title>NEMemsetKernel</title><polygon fill="#fff" stroke="none" points="-4 4 -4 -136 102 -136 102 4 -4 4"/><g id="node1" class="node"><title>Node0</title><g id="a_node1"><a xlink:title="Interface for filling the planes of a tensor."><polygon fill="#bfbfbf" stroke="#000" points="0 -.5 0 -19.5 98 -19.5 98 -.5 0 -.5"/><text x="49" y="-7.5" font-family="Helvetica,sans-Serif" font-size="10" text-anchor="middle">NEMemsetKernel</text></a></g></g><g id="node2" class="node"><title>Node1</title><g id="a_node2"><a target="_top" xlink:href="classarm__compute_1_1_i_c_p_p_kernel.xhtml" xlink:title="Common interface for all kernels implemented in C++."><polygon fill="#fff" stroke="#000" points="18 -56.5 18 -75.5 80 -75.5 80 -56.5 18 -56.5"/><text x="49" y="-63.5" font-family="Helvetica,sans-Serif" font-size="10" text-anchor="middle">INEKernel</text></a></g></g><g id="edge1" class="edge"><title>Node1-&gt;Node0</title><path fill="none" stroke="#191970" d="M49,-45.8045C49,-36.9102 49,-26.7798 49,-19.7511"/><polygon fill="#191970" stroke="#191970" points="45.5 -46.083 49 -56.083 52.5 -46.083 45.5 -46.083"/></g><g id="node3" class="node"><title>Node2</title><g id="a_node3"><a target="_top" xlink:href="classarm__compute_1_1_i_kernel.xhtml" xlink:title="Common information for all the kernels."><polygon fill="#fff" stroke="#000" points="25 -112.5 25 -131.5 73 -131.5 73 -112.5 25 -112.5"/><text x="49" y="-119.5" font-family="Helvetica,sans-Serif" font-size="10" text-anchor="middle">IKernel</text></a></g></g><g id="edge2" class="edge"><title>Node2-&gt;Node1</title><path fill="none" stroke="#191970" d="M49,-101.805C49,-92.9102 49,-82.7798 49,-75.7511"/><polygon fill="#191970" stroke="#191970" points="45.5 -102.083 49 -112.083 52.5 -102.083 45.5 -102.083"/></g></g></svg>