<svg xmlns="http://www.w3.org/2000/svg" xmlns:xlink="http://www.w3.org/1999/xlink" width="172pt" height="151pt" viewBox="0 0 172 151"><g id="graph0" class="graph" transform="scale(1 1) rotate(0) translate(4 147)"><title>NENonMaximaSuppression3x3Kernel</title><polygon fill="#fff" stroke="none" points="-4 4 -4 -147 168 -147 168 4 -4 4"/><g id="node1" class="node"><title>Node0</title><g id="a_node1"><a xlink:title="Interface to perform Non-Maxima suppression over a 3x3 window using NEON."><polygon fill="#bfbfbf" stroke="#000" points="0 -.5 0 -30.5 164 -30.5 164 -.5 0 -.5"/><text x="8" y="-18.5" font-family="Helvetica,sans-Serif" font-size="10" text-anchor="start">NENonMaximaSuppression3x3</text><text x="82" y="-7.5" font-family="Helvetica,sans-Serif" font-size="10" text-anchor="middle">Kernel</text></a></g></g><g id="node2" class="node"><title>Node1</title><g id="a_node2"><a target="_top" xlink:href="classarm__compute_1_1_i_c_p_p_kernel.xhtml" xlink:title="Common interface for all kernels implemented in C++."><polygon fill="#fff" stroke="#000" points="51 -67.5 51 -86.5 113 -86.5 113 -67.5 51 -67.5"/><text x="82" y="-74.5" font-family="Helvetica,sans-Serif" font-size="10" text-anchor="middle">INEKernel</text></a></g></g><g id="edge1" class="edge"><title>Node1-&gt;Node0</title><path fill="none" stroke="#191970" d="M82,-57.2349C82,-48.5864 82,-38.4969 82,-30.523"/><polygon fill="#191970" stroke="#191970" points="78.5 -57.475 82 -67.475 85.5 -57.475 78.5 -57.475"/></g><g id="node3" class="node"><title>Node2</title><g id="a_node3"><a target="_top" xlink:href="classarm__compute_1_1_i_kernel.xhtml" xlink:title="Common information for all the kernels."><polygon fill="#fff" stroke="#000" points="58 -123.5 58 -142.5 106 -142.5 106 -123.5 58 -123.5"/><text x="82" y="-130.5" font-family="Helvetica,sans-Serif" font-size="10" text-anchor="middle">IKernel</text></a></g></g><g id="edge2" class="edge"><title>Node2-&gt;Node1</title><path fill="none" stroke="#191970" d="M82,-112.805C82,-103.91 82,-93.7798 82,-86.7511"/><polygon fill="#191970" stroke="#191970" points="78.5 -113.083 82 -123.083 85.5 -113.083 78.5 -113.083"/></g></g></svg>