<svg xmlns="http://www.w3.org/2000/svg" xmlns:xlink="http://www.w3.org/1999/xlink" width="140pt" height="140pt" viewBox="0 0 140 140"><g id="graph0" class="graph" transform="scale(1 1) rotate(0) translate(4 136)"><title>CLUpsampleLayerKernel</title><polygon fill="#fff" stroke="none" points="-4 4 -4 -136 136 -136 136 4 -4 4"/><g id="node1" class="node"><title>Node0</title><g id="a_node1"><a xlink:title="Interface for the UpsampleLayer kernel on OpenCL."><polygon fill="#bfbfbf" stroke="#000" points="0 -.5 0 -19.5 132 -19.5 132 -.5 0 -.5"/><text x="66" y="-7.5" font-family="Helvetica,sans-Serif" font-size="10" text-anchor="middle">CLUpsampleLayerKernel</text></a></g></g><g id="node2" class="node"><title>Node1</title><g id="a_node2"><a target="_top" xlink:href="classarm__compute_1_1_i_c_l_kernel.xhtml" xlink:title="Common interface for all the OpenCL kernels."><polygon fill="#fff" stroke="#000" points="36 -56.5 36 -75.5 96 -75.5 96 -56.5 36 -56.5"/><text x="66" y="-63.5" font-family="Helvetica,sans-Serif" font-size="10" text-anchor="middle">ICLKernel</text></a></g></g><g id="edge1" class="edge"><title>Node1-&gt;Node0</title><path fill="none" stroke="#191970" d="M66,-45.8045C66,-36.9102 66,-26.7798 66,-19.7511"/><polygon fill="#191970" stroke="#191970" points="62.5 -46.083 66 -56.083 69.5 -46.083 62.5 -46.083"/></g><g id="node3" class="node"><title>Node2</title><g id="a_node3"><a target="_top" xlink:href="classarm__compute_1_1_i_kernel.xhtml" xlink:title="Common information for all the kernels."><polygon fill="#fff" stroke="#000" points="42 -112.5 42 -131.5 90 -131.5 90 -112.5 42 -112.5"/><text x="66" y="-119.5" font-family="Helvetica,sans-Serif" font-size="10" text-anchor="middle">IKernel</text></a></g></g><g id="edge2" class="edge"><title>Node2-&gt;Node1</title><path fill="none" stroke="#191970" d="M66,-101.805C66,-92.9102 66,-82.7798 66,-75.7511"/><polygon fill="#191970" stroke="#191970" points="62.5 -102.083 66 -112.083 69.5 -102.083 62.5 -102.083"/></g></g></svg>