<svg xmlns="http://www.w3.org/2000/svg" xmlns:xlink="http://www.w3.org/1999/xlink" width="124pt" height="276" viewBox="0 0 124 207"><g id="graph0" class="graph" transform="scale(1 1) rotate(0) translate(4 203)"><title>NEConvolutionKernel&lt; matrix_size &gt;</title><polygon fill="#fff" stroke="none" points="-4 4 -4 -203 120 -203 120 4 -4 4"/><g id="node1" class="node"><title>Node0</title><g id="a_node1"><a xlink:title="Interface for the kernel to run an arbitrary size convolution on a tensor."><polygon fill="#bfbfbf" stroke="#000" points="0 -.5 0 -30.5 116 -30.5 116 -.5 0 -.5"/><text x="8" y="-18.5" font-family="Helvetica,sans-Serif" font-size="10" text-anchor="start">NEConvolutionKernel</text><text x="58" y="-7.5" font-family="Helvetica,sans-Serif" font-size="10" text-anchor="middle">&lt; matrix_size &gt;</text></a></g></g><g id="node2" class="node"><title>Node1</title><g id="a_node2"><a target="_top" xlink:href="classarm__compute_1_1_i_c_p_p_simple_kernel.xhtml" xlink:title="Interface for simple C++ kernels having 1 tensor input and 1 tensor output."><polygon fill="#fff" stroke="#000" points="10.5 -67.5 10.5 -86.5 105.5 -86.5 105.5 -67.5 10.5 -67.5"/><text x="58" y="-74.5" font-family="Helvetica,sans-Serif" font-size="10" text-anchor="middle">INESimpleKernel</text></a></g></g><g id="edge1" class="edge"><title>Node1-&gt;Node0</title><path fill="none" stroke="#191970" d="M58,-57.2349C58,-48.5864 58,-38.4969 58,-30.523"/><polygon fill="#191970" stroke="#191970" points="54.5 -57.475 58 -67.475 61.5 -57.475 54.5 -57.475"/></g><g id="node3" class="node"><title>Node2</title><g id="a_node3"><a target="_top" xlink:href="classarm__compute_1_1_i_c_p_p_kernel.xhtml" xlink:title="Common interface for all kernels implemented in C++."><polygon fill="#fff" stroke="#000" points="24.5 -123.5 24.5 -142.5 91.5 -142.5 91.5 -123.5 24.5 -123.5"/><text x="58" y="-130.5" font-family="Helvetica,sans-Serif" font-size="10" text-anchor="middle">ICPPKernel</text></a></g></g><g id="edge2" class="edge"><title>Node2-&gt;Node1</title><path fill="none" stroke="#191970" d="M58,-112.805C58,-103.91 58,-93.7798 58,-86.7511"/><polygon fill="#191970" stroke="#191970" points="54.5 -113.083 58 -123.083 61.5 -113.083 54.5 -113.083"/></g><g id="node4" class="node"><title>Node3</title><g id="a_node4"><a target="_top" xlink:href="classarm__compute_1_1_i_kernel.xhtml" xlink:title="Common information for all the kernels."><polygon fill="#fff" stroke="#000" points="34 -179.5 34 -198.5 82 -198.5 82 -179.5 34 -179.5"/><text x="58" y="-186.5" font-family="Helvetica,sans-Serif" font-size="10" text-anchor="middle">IKernel</text></a></g></g><g id="edge3" class="edge"><title>Node3-&gt;Node2</title><path fill="none" stroke="#191970" d="M58,-168.805C58,-159.91 58,-149.78 58,-142.751"/><polygon fill="#191970" stroke="#191970" points="54.5 -169.083 58 -179.083 61.5 -169.083 54.5 -169.083"/></g></g></svg>