<svg xmlns="http://www.w3.org/2000/svg" xmlns:xlink="http://www.w3.org/1999/xlink" width="118pt" height="336" viewBox="0 0 118 252"><g id="graph0" class="graph" transform="scale(1 1) rotate(0) translate(4 248)"><title>CLMedian3x3Kernel</title><polygon fill="#fff" stroke="none" points="-4 4 -4 -248 114 -248 114 4 -4 4"/><g id="node1" class="node"><title>Node0</title><g id="a_node1"><a xlink:title="Interface for the median 3x3 filter kernel."><polygon fill="#bfbfbf" stroke="#000" points="0 -.5 0 -19.5 110 -19.5 110 -.5 0 -.5"/><text x="55" y="-7.5" font-family="Helvetica,sans-Serif" font-size="10" text-anchor="middle">CLMedian3x3Kernel</text></a></g></g><g id="node2" class="node"><title>Node1</title><g id="a_node2"><a target="_top" xlink:href="classarm__compute_1_1_i_c_l_simple2_d_kernel.xhtml" xlink:title="Interface for simple OpenCL kernels having 1 tensor input and 1 tensor output."><polygon fill="#fff" stroke="#000" points="1.5 -56.5 1.5 -75.5 108.5 -75.5 108.5 -56.5 1.5 -56.5"/><text x="55" y="-63.5" font-family="Helvetica,sans-Serif" font-size="10" text-anchor="middle">ICLSimple2DKernel</text></a></g></g><g id="edge1" class="edge"><title>Node1-&gt;Node0</title><path fill="none" stroke="#191970" d="M55,-45.8045C55,-36.9102 55,-26.7798 55,-19.7511"/><polygon fill="#191970" stroke="#191970" points="51.5 -46.083 55 -56.083 58.5 -46.083 51.5 -46.083"/></g><g id="node3" class="node"><title>Node2</title><g id="a_node3"><a target="_top" xlink:href="classarm__compute_1_1_i_c_l_simple_kernel.xhtml" xlink:title="Interface for simple OpenCL kernels having 1 tensor input and 1 tensor output."><polygon fill="#fff" stroke="#000" points="8.5 -112.5 8.5 -131.5 101.5 -131.5 101.5 -112.5 8.5 -112.5"/><text x="55" y="-119.5" font-family="Helvetica,sans-Serif" font-size="10" text-anchor="middle">ICLSimpleKernel</text></a></g></g><g id="edge2" class="edge"><title>Node2-&gt;Node1</title><path fill="none" stroke="#191970" d="M55,-101.805C55,-92.9102 55,-82.7798 55,-75.7511"/><polygon fill="#191970" stroke="#191970" points="51.5 -102.083 55 -112.083 58.5 -102.083 51.5 -102.083"/></g><g id="node4" class="node"><title>Node3</title><g id="a_node4"><a target="_top" xlink:href="classarm__compute_1_1_i_c_l_kernel.xhtml" xlink:title="Common interface for all the OpenCL kernels."><polygon fill="#fff" stroke="#000" points="25 -168.5 25 -187.5 85 -187.5 85 -168.5 25 -168.5"/><text x="55" y="-175.5" font-family="Helvetica,sans-Serif" font-size="10" text-anchor="middle">ICLKernel</text></a></g></g><g id="edge3" class="edge"><title>Node3-&gt;Node2</title><path fill="none" stroke="#191970" d="M55,-157.805C55,-148.91 55,-138.78 55,-131.751"/><polygon fill="#191970" stroke="#191970" points="51.5 -158.083 55 -168.083 58.5 -158.083 51.5 -158.083"/></g><g id="node5" class="node"><title>Node4</title><g id="a_node5"><a target="_top" xlink:href="classarm__compute_1_1_i_kernel.xhtml" xlink:title="Common information for all the kernels."><polygon fill="#fff" stroke="#000" points="31 -224.5 31 -243.5 79 -243.5 79 -224.5 31 -224.5"/><text x="55" y="-231.5" font-family="Helvetica,sans-Serif" font-size="10" text-anchor="middle">IKernel</text></a></g></g><g id="edge4" class="edge"><title>Node4-&gt;Node3</title><path fill="none" stroke="#191970" d="M55,-213.805C55,-204.91 55,-194.78 55,-187.751"/><polygon fill="#191970" stroke="#191970" points="51.5 -214.083 55 -224.083 58.5 -214.083 51.5 -214.083"/></g></g></svg>