<svg xmlns="http://www.w3.org/2000/svg" xmlns:xlink="http://www.w3.org/1999/xlink" width="148pt" height="140pt" viewBox="0 0 148 140"><g id="graph0" class="graph" transform="scale(1 1) rotate(0) translate(4 136)"><title>CLHistogramBorderKernel</title><polygon fill="#fff" stroke="none" points="-4 4 -4 -136 144 -136 144 4 -4 4"/><g id="node1" class="node"><title>Node0</title><g id="a_node1"><a xlink:title="Interface to run the histogram kernel to handle the leftover part of image."><polygon fill="#bfbfbf" stroke="#000" points="0 -.5 0 -19.5 140 -19.5 140 -.5 0 -.5"/><text x="70" y="-7.5" font-family="Helvetica,sans-Serif" font-size="10" text-anchor="middle">CLHistogramBorderKernel</text></a></g></g><g id="node2" class="node"><title>Node1</title><g id="a_node2"><a target="_top" xlink:href="classarm__compute_1_1_i_c_l_kernel.xhtml" xlink:title="Common interface for all the OpenCL kernels."><polygon fill="#fff" stroke="#000" points="40 -56.5 40 -75.5 100 -75.5 100 -56.5 40 -56.5"/><text x="70" y="-63.5" font-family="Helvetica,sans-Serif" font-size="10" text-anchor="middle">ICLKernel</text></a></g></g><g id="edge1" class="edge"><title>Node1-&gt;Node0</title><path fill="none" stroke="#191970" d="M70,-45.8045C70,-36.9102 70,-26.7798 70,-19.7511"/><polygon fill="#191970" stroke="#191970" points="66.5 -46.083 70 -56.083 73.5 -46.083 66.5 -46.083"/></g><g id="node3" class="node"><title>Node2</title><g id="a_node3"><a target="_top" xlink:href="classarm__compute_1_1_i_kernel.xhtml" xlink:title="Common information for all the kernels."><polygon fill="#fff" stroke="#000" points="46 -112.5 46 -131.5 94 -131.5 94 -112.5 46 -112.5"/><text x="70" y="-119.5" font-family="Helvetica,sans-Serif" font-size="10" text-anchor="middle">IKernel</text></a></g></g><g id="edge2" class="edge"><title>Node2-&gt;Node1</title><path fill="none" stroke="#191970" d="M70,-101.805C70,-92.9102 70,-82.7798 70,-75.7511"/><polygon fill="#191970" stroke="#191970" points="66.5 -102.083 70 -112.083 73.5 -102.083 66.5 -102.083"/></g></g></svg>