<svg xmlns="http://www.w3.org/2000/svg" xmlns:xlink="http://www.w3.org/1999/xlink" width="146pt" height="276" viewBox="0 0 146 207"><g id="graph0" class="graph" transform="scale(1 1) rotate(0) translate(4 203)"><title>NEWarpPerspectiveKernel&lt; interpolation &gt;</title><polygon fill="#fff" stroke="none" points="-4 4 -4 -203 142 -203 142 4 -4 4"/><g id="node1" class="node"><title>Node0</title><g id="a_node1"><a xlink:title="Template interface for the kernel to compute warp perspective."><polygon fill="#bfbfbf" stroke="#000" points="0 -.5 0 -30.5 138 -30.5 138 -.5 0 -.5"/><text x="8" y="-18.5" font-family="Helvetica,sans-Serif" font-size="10" text-anchor="start">NEWarpPerspectiveKernel</text><text x="69" y="-7.5" font-family="Helvetica,sans-Serif" font-size="10" text-anchor="middle">&lt; interpolation &gt;</text></a></g></g><g id="node2" class="node"><title>Node1</title><g id="a_node2"><a target="_top" xlink:href="classarm__compute_1_1_i_n_e_warp_kernel.xhtml" xlink:title="Common interface for warp affine and warp perspective."><polygon fill="#fff" stroke="#000" points="26.5 -67.5 26.5 -86.5 111.5 -86.5 111.5 -67.5 26.5 -67.5"/><text x="69" y="-74.5" font-family="Helvetica,sans-Serif" font-size="10" text-anchor="middle">INEWarpKernel</text></a></g></g><g id="edge1" class="edge"><title>Node1-&gt;Node0</title><path fill="none" stroke="#191970" d="M69,-57.2349C69,-48.5864 69,-38.4969 69,-30.523"/><polygon fill="#191970" stroke="#191970" points="65.5 -57.475 69 -67.475 72.5 -57.475 65.5 -57.475"/></g><g id="node3" class="node"><title>Node2</title><g id="a_node3"><a target="_top" xlink:href="classarm__compute_1_1_i_c_p_p_kernel.xhtml" xlink:title="Common interface for all kernels implemented in C++."><polygon fill="#fff" stroke="#000" points="38 -123.5 38 -142.5 100 -142.5 100 -123.5 38 -123.5"/><text x="69" y="-130.5" font-family="Helvetica,sans-Serif" font-size="10" text-anchor="middle">INEKernel</text></a></g></g><g id="edge2" class="edge"><title>Node2-&gt;Node1</title><path fill="none" stroke="#191970" d="M69,-112.805C69,-103.91 69,-93.7798 69,-86.7511"/><polygon fill="#191970" stroke="#191970" points="65.5 -113.083 69 -123.083 72.5 -113.083 65.5 -113.083"/></g><g id="node4" class="node"><title>Node3</title><g id="a_node4"><a target="_top" xlink:href="classarm__compute_1_1_i_kernel.xhtml" xlink:title="Common information for all the kernels."><polygon fill="#fff" stroke="#000" points="45 -179.5 45 -198.5 93 -198.5 93 -179.5 45 -179.5"/><text x="69" y="-186.5" font-family="Helvetica,sans-Serif" font-size="10" text-anchor="middle">IKernel</text></a></g></g><g id="edge3" class="edge"><title>Node3-&gt;Node2</title><path fill="none" stroke="#191970" d="M69,-168.805C69,-159.91 69,-149.78 69,-142.751"/><polygon fill="#191970" stroke="#191970" points="65.5 -169.083 69 -179.083 72.5 -169.083 65.5 -169.083"/></g></g></svg>