<svg xmlns="http://www.w3.org/2000/svg" xmlns:xlink="http://www.w3.org/1999/xlink" width="172" height="140pt" viewBox="0 0 129 140"><g id="graph0" class="graph" transform="scale(1 1) rotate(0) translate(4 136)"><title>NESobel5x5HorKernel</title><polygon fill="#fff" stroke="none" points="-4 4 -4 -136 125 -136 125 4 -4 4"/><g id="node1" class="node"><title>Node0</title><g id="a_node1"><a xlink:title="Interface for the kernel to run the horizontal pass of 5x5 Sobel filter on a tensor."><polygon fill="#bfbfbf" stroke="#000" points="0 -.5 0 -19.5 121 -19.5 121 -.5 0 -.5"/><text x="60.5" y="-7.5" font-family="Helvetica,sans-Serif" font-size="10" text-anchor="middle">NESobel5x5HorKernel</text></a></g></g><g id="node2" class="node"><title>Node1</title><g id="a_node2"><a target="_top" xlink:href="classarm__compute_1_1_i_c_p_p_kernel.xhtml" xlink:title="Common interface for all kernels implemented in C++."><polygon fill="#fff" stroke="#000" points="29.5 -56.5 29.5 -75.5 91.5 -75.5 91.5 -56.5 29.5 -56.5"/><text x="60.5" y="-63.5" font-family="Helvetica,sans-Serif" font-size="10" text-anchor="middle">INEKernel</text></a></g></g><g id="edge1" class="edge"><title>Node1-&gt;Node0</title><path fill="none" stroke="#191970" d="M60.5,-45.8045C60.5,-36.9102 60.5,-26.7798 60.5,-19.7511"/><polygon fill="#191970" stroke="#191970" points="57 -46.083 60.5 -56.083 64 -46.083 57 -46.083"/></g><g id="node3" class="node"><title>Node2</title><g id="a_node3"><a target="_top" xlink:href="classarm__compute_1_1_i_kernel.xhtml" xlink:title="Common information for all the kernels."><polygon fill="#fff" stroke="#000" points="36.5 -112.5 36.5 -131.5 84.5 -131.5 84.5 -112.5 36.5 -112.5"/><text x="60.5" y="-119.5" font-family="Helvetica,sans-Serif" font-size="10" text-anchor="middle">IKernel</text></a></g></g><g id="edge2" class="edge"><title>Node2-&gt;Node1</title><path fill="none" stroke="#191970" d="M60.5,-101.805C60.5,-92.9102 60.5,-82.7798 60.5,-75.7511"/><polygon fill="#191970" stroke="#191970" points="57 -102.083 60.5 -112.083 64 -102.083 57 -102.083"/></g></g></svg>