<svg xmlns="http://www.w3.org/2000/svg" xmlns:xlink="http://www.w3.org/1999/xlink" width="140pt" height="140pt" viewBox="0 0 140 140"><g id="graph0" class="graph" transform="scale(1 1) rotate(0) translate(4 136)"><title>OffsetLifetimeManager</title><polygon fill="#fff" stroke="none" points="-4 4 -4 -136 136 -136 136 4 -4 4"/><g id="node1" class="node"><title>Node0</title><g id="a_node1"><a xlink:title="Concrete class that tracks the lifetime of registered tensors and calculates the systems memory requi..."><polygon fill="#bfbfbf" stroke="#000" points="3.5 -.5 3.5 -19.5 128.5 -19.5 128.5 -.5 3.5 -.5"/><text x="66" y="-7.5" font-family="Helvetica,sans-Serif" font-size="10" text-anchor="middle">OffsetLifetimeManager</text></a></g></g><g id="node2" class="node"><title>Node1</title><g id="a_node2"><a target="_top" xlink:href="classarm__compute_1_1_i_simple_lifetime_manager.xhtml" xlink:title="Abstract class of the simple lifetime manager interface."><polygon fill="#fff" stroke="#000" points="0 -56.5 0 -75.5 132 -75.5 132 -56.5 0 -56.5"/><text x="66" y="-63.5" font-family="Helvetica,sans-Serif" font-size="10" text-anchor="middle">ISimpleLifetimeManager</text></a></g></g><g id="edge1" class="edge"><title>Node1-&gt;Node0</title><path fill="none" stroke="#191970" d="M66,-45.8045C66,-36.9102 66,-26.7798 66,-19.7511"/><polygon fill="#191970" stroke="#191970" points="62.5 -46.083 66 -56.083 69.5 -46.083 62.5 -46.083"/></g><g id="node3" class="node"><title>Node2</title><g id="a_node3"><a target="_top" xlink:href="classarm__compute_1_1_i_lifetime_manager.xhtml" xlink:title="Interface for managing the lifetime of objects."><polygon fill="#fff" stroke="#000" points="16.5 -112.5 16.5 -131.5 115.5 -131.5 115.5 -112.5 16.5 -112.5"/><text x="66" y="-119.5" font-family="Helvetica,sans-Serif" font-size="10" text-anchor="middle">ILifetimeManager</text></a></g></g><g id="edge2" class="edge"><title>Node2-&gt;Node1</title><path fill="none" stroke="#191970" d="M66,-101.805C66,-92.9102 66,-82.7798 66,-75.7511"/><polygon fill="#191970" stroke="#191970" points="62.5 -102.083 66 -112.083 69.5 -102.083 62.5 -102.083"/></g></g></svg>