<svg xmlns="http://www.w3.org/2000/svg" xmlns:xlink="http://www.w3.org/1999/xlink" width="212" height="319pt" viewBox="0 0 159 319"><g id="graph0" class="graph" transform="scale(1 1) rotate(0) translate(4 315)"><title>CLGaussian5x5HorKernel</title><polygon fill="#fff" stroke="none" points="-4 4 -4 -315 155 -315 155 4 -4 4"/><g id="node1" class="node"><title>Node0</title><g id="a_node1"><a xlink:title="Interface for the kernel to run the horizontal pass of 5x5 Gaussian filter on a tensor."><polygon fill="#bfbfbf" stroke="#000" points="7 -.5 7 -19.5 144 -19.5 144 -.5 7 -.5"/><text x="75.5" y="-7.5" font-family="Helvetica,sans-Serif" font-size="10" text-anchor="middle">CLGaussian5x5HorKernel</text></a></g></g><g id="node2" class="node"><title>Node1</title><g id="a_node2"><a target="_top" xlink:href="classarm__compute_1_1_c_l_separable_convolution_hor_kernel.xhtml" xlink:title="Kernel for the Horizontal pass of a Separable Convolution."><polygon fill="#fff" stroke="#000" points="0 -56.5 0 -86.5 151 -86.5 151 -56.5 0 -56.5"/><text x="8" y="-74.5" font-family="Helvetica,sans-Serif" font-size="10" text-anchor="start">CLSeparableConvolution5x5</text><text x="75.5" y="-63.5" font-family="Helvetica,sans-Serif" font-size="10" text-anchor="middle">HorKernel</text></a></g></g><g id="edge1" class="edge"><title>Node1-&gt;Node0</title><path fill="none" stroke="#191970" d="M75.5,-46.2892C75.5,-36.857 75.5,-26.6548 75.5,-19.6578"/><polygon fill="#191970" stroke="#191970" points="72 -46.399 75.5 -56.399 79 -46.399 72 -46.399"/></g><g id="node3" class="node"><title>Node2</title><g id="a_node3"><a target="_top" xlink:href="classarm__compute_1_1_i_c_l_simple2_d_kernel.xhtml" xlink:title="Interface for simple OpenCL kernels having 1 tensor input and 1 tensor output."><polygon fill="#fff" stroke="#000" points="22 -123.5 22 -142.5 129 -142.5 129 -123.5 22 -123.5"/><text x="75.5" y="-130.5" font-family="Helvetica,sans-Serif" font-size="10" text-anchor="middle">ICLSimple2DKernel</text></a></g></g><g id="edge2" class="edge"><title>Node2-&gt;Node1</title><path fill="none" stroke="#191970" d="M75.5,-113.235C75.5,-104.586 75.5,-94.4969 75.5,-86.523"/><polygon fill="#191970" stroke="#191970" points="72 -113.475 75.5 -123.475 79 -113.475 72 -113.475"/></g><g id="node4" class="node"><title>Node3</title><g id="a_node4"><a target="_top" xlink:href="classarm__compute_1_1_i_c_l_simple_kernel.xhtml" xlink:title="Interface for simple OpenCL kernels having 1 tensor input and 1 tensor output."><polygon fill="#fff" stroke="#000" points="29 -179.5 29 -198.5 122 -198.5 122 -179.5 29 -179.5"/><text x="75.5" y="-186.5" font-family="Helvetica,sans-Serif" font-size="10" text-anchor="middle">ICLSimpleKernel</text></a></g></g><g id="edge3" class="edge"><title>Node3-&gt;Node2</title><path fill="none" stroke="#191970" d="M75.5,-168.805C75.5,-159.91 75.5,-149.78 75.5,-142.751"/><polygon fill="#191970" stroke="#191970" points="72 -169.083 75.5 -179.083 79 -169.083 72 -169.083"/></g><g id="node5" class="node"><title>Node4</title><g id="a_node5"><a target="_top" xlink:href="classarm__compute_1_1_i_c_l_kernel.xhtml" xlink:title="Common interface for all the OpenCL kernels."><polygon fill="#fff" stroke="#000" points="45.5 -235.5 45.5 -254.5 105.5 -254.5 105.5 -235.5 45.5 -235.5"/><text x="75.5" y="-242.5" font-family="Helvetica,sans-Serif" font-size="10" text-anchor="middle">ICLKernel</text></a></g></g><g id="edge4" class="edge"><title>Node4-&gt;Node3</title><path fill="none" stroke="#191970" d="M75.5,-224.805C75.5,-215.91 75.5,-205.78 75.5,-198.751"/><polygon fill="#191970" stroke="#191970" points="72 -225.083 75.5 -235.083 79 -225.083 72 -225.083"/></g><g id="node6" class="node"><title>Node5</title><g id="a_node6"><a target="_top" xlink:href="classarm__compute_1_1_i_kernel.xhtml" xlink:title="Common information for all the kernels."><polygon fill="#fff" stroke="#000" points="51.5 -291.5 51.5 -310.5 99.5 -310.5 99.5 -291.5 51.5 -291.5"/><text x="75.5" y="-298.5" font-family="Helvetica,sans-Serif" font-size="10" text-anchor="middle">IKernel</text></a></g></g><g id="edge5" class="edge"><title>Node5-&gt;Node4</title><path fill="none" stroke="#191970" d="M75.5,-280.805C75.5,-271.91 75.5,-261.78 75.5,-254.751"/><polygon fill="#191970" stroke="#191970" points="72 -281.083 75.5 -291.083 79 -281.083 72 -281.083"/></g></g></svg>