<svg xmlns="http://www.w3.org/2000/svg" xmlns:xlink="http://www.w3.org/1999/xlink" width="158pt" height="151pt" viewBox="0 0 158 151"><g id="graph0" class="graph" transform="scale(1 1) rotate(0) translate(4 147)"><title>INEWinogradLayerTransformWeightsKernel&lt; T &gt;</title><polygon fill="#fff" stroke="none" points="-4 4 -4 -147 154 -147 154 4 -4 4"/><g id="node1" class="node"><title>Node0</title><g id="a_node1"><a xlink:title="Interface for the NEON kernel to perform Winograd weights transform."><polygon fill="#bfbfbf" stroke="#000" points="0 -.5 0 -30.5 150 -30.5 150 -.5 0 -.5"/><text x="8" y="-18.5" font-family="Helvetica,sans-Serif" font-size="10" text-anchor="start">INEWinogradLayerTransform</text><text x="75" y="-7.5" font-family="Helvetica,sans-Serif" font-size="10" text-anchor="middle">WeightsKernel&lt; T &gt;</text></a></g></g><g id="node2" class="node"><title>Node1</title><g id="a_node2"><a target="_top" xlink:href="classarm__compute_1_1_i_c_p_p_kernel.xhtml" xlink:title="Common interface for all kernels implemented in C++."><polygon fill="#fff" stroke="#000" points="44 -67.5 44 -86.5 106 -86.5 106 -67.5 44 -67.5"/><text x="75" y="-74.5" font-family="Helvetica,sans-Serif" font-size="10" text-anchor="middle">INEKernel</text></a></g></g><g id="edge1" class="edge"><title>Node1-&gt;Node0</title><path fill="none" stroke="#191970" d="M75,-57.2349C75,-48.5864 75,-38.4969 75,-30.523"/><polygon fill="#191970" stroke="#191970" points="71.5 -57.475 75 -67.475 78.5 -57.475 71.5 -57.475"/></g><g id="node3" class="node"><title>Node2</title><g id="a_node3"><a target="_top" xlink:href="classarm__compute_1_1_i_kernel.xhtml" xlink:title="Common information for all the kernels."><polygon fill="#fff" stroke="#000" points="51 -123.5 51 -142.5 99 -142.5 99 -123.5 51 -123.5"/><text x="75" y="-130.5" font-family="Helvetica,sans-Serif" font-size="10" text-anchor="middle">IKernel</text></a></g></g><g id="edge2" class="edge"><title>Node2-&gt;Node1</title><path fill="none" stroke="#191970" d="M75,-112.805C75,-103.91 75,-93.7798 75,-86.7511"/><polygon fill="#191970" stroke="#191970" points="71.5 -113.083 75 -123.083 78.5 -113.083 71.5 -113.083"/></g></g></svg>