<svg xmlns="http://www.w3.org/2000/svg" xmlns:xlink="http://www.w3.org/1999/xlink" width="133pt" height="196pt" viewBox="0 0 133 196"><g id="graph0" class="graph" transform="scale(1 1) rotate(0) translate(4 192)"><title>NEIntegralImageKernel</title><polygon fill="#fff" stroke="none" points="-4 4 -4 -192 129 -192 129 4 -4 4"/><g id="node1" class="node"><title>Node0</title><g id="a_node1"><a xlink:title="Kernel to perform an image integral on an image."><polygon fill="#bfbfbf" stroke="#000" points="0 -.5 0 -19.5 125 -19.5 125 -.5 0 -.5"/><text x="62.5" y="-7.5" font-family="Helvetica,sans-Serif" font-size="10" text-anchor="middle">NEIntegralImageKernel</text></a></g></g><g id="node2" class="node"><title>Node1</title><g id="a_node2"><a target="_top" xlink:href="classarm__compute_1_1_i_c_p_p_simple_kernel.xhtml" xlink:title="Interface for simple C++ kernels having 1 tensor input and 1 tensor output."><polygon fill="#fff" stroke="#000" points="15 -56.5 15 -75.5 110 -75.5 110 -56.5 15 -56.5"/><text x="62.5" y="-63.5" font-family="Helvetica,sans-Serif" font-size="10" text-anchor="middle">INESimpleKernel</text></a></g></g><g id="edge1" class="edge"><title>Node1-&gt;Node0</title><path fill="none" stroke="#191970" d="M62.5,-45.8045C62.5,-36.9102 62.5,-26.7798 62.5,-19.7511"/><polygon fill="#191970" stroke="#191970" points="59 -46.083 62.5 -56.083 66 -46.083 59 -46.083"/></g><g id="node3" class="node"><title>Node2</title><g id="a_node3"><a target="_top" xlink:href="classarm__compute_1_1_i_c_p_p_kernel.xhtml" xlink:title="Common interface for all kernels implemented in C++."><polygon fill="#fff" stroke="#000" points="29 -112.5 29 -131.5 96 -131.5 96 -112.5 29 -112.5"/><text x="62.5" y="-119.5" font-family="Helvetica,sans-Serif" font-size="10" text-anchor="middle">ICPPKernel</text></a></g></g><g id="edge2" class="edge"><title>Node2-&gt;Node1</title><path fill="none" stroke="#191970" d="M62.5,-101.805C62.5,-92.9102 62.5,-82.7798 62.5,-75.7511"/><polygon fill="#191970" stroke="#191970" points="59 -102.083 62.5 -112.083 66 -102.083 59 -102.083"/></g><g id="node4" class="node"><title>Node3</title><g id="a_node4"><a target="_top" xlink:href="classarm__compute_1_1_i_kernel.xhtml" xlink:title="Common information for all the kernels."><polygon fill="#fff" stroke="#000" points="38.5 -168.5 38.5 -187.5 86.5 -187.5 86.5 -168.5 38.5 -168.5"/><text x="62.5" y="-175.5" font-family="Helvetica,sans-Serif" font-size="10" text-anchor="middle">IKernel</text></a></g></g><g id="edge3" class="edge"><title>Node3-&gt;Node2</title><path fill="none" stroke="#191970" d="M62.5,-157.805C62.5,-148.91 62.5,-138.78 62.5,-131.751"/><polygon fill="#191970" stroke="#191970" points="59 -158.083 62.5 -168.083 66 -158.083 59 -158.083"/></g></g></svg>