<svg xmlns="http://www.w3.org/2000/svg" xmlns:xlink="http://www.w3.org/1999/xlink" width="178pt" height="140pt" viewBox="0 0 178 140"><g id="graph0" class="graph" transform="scale(1 1) rotate(0) translate(4 136)"><title>NEHOGOrientationBinningKernel</title><polygon fill="#fff" stroke="none" points="-4 4 -4 -136 174 -136 174 4 -4 4"/><g id="node1" class="node"><title>Node0</title><g id="a_node1"><a xlink:title="NEON kernel to perform HOG Orientation Binning."><polygon fill="#bfbfbf" stroke="#000" points="0 -.5 0 -19.5 170 -19.5 170 -.5 0 -.5"/><text x="85" y="-7.5" font-family="Helvetica,sans-Serif" font-size="10" text-anchor="middle">NEHOGOrientationBinningKernel</text></a></g></g><g id="node2" class="node"><title>Node1</title><g id="a_node2"><a target="_top" xlink:href="classarm__compute_1_1_i_c_p_p_kernel.xhtml" xlink:title="Common interface for all kernels implemented in C++."><polygon fill="#fff" stroke="#000" points="54 -56.5 54 -75.5 116 -75.5 116 -56.5 54 -56.5"/><text x="85" y="-63.5" font-family="Helvetica,sans-Serif" font-size="10" text-anchor="middle">INEKernel</text></a></g></g><g id="edge1" class="edge"><title>Node1-&gt;Node0</title><path fill="none" stroke="#191970" d="M85,-45.8045C85,-36.9102 85,-26.7798 85,-19.7511"/><polygon fill="#191970" stroke="#191970" points="81.5 -46.083 85 -56.083 88.5 -46.083 81.5 -46.083"/></g><g id="node3" class="node"><title>Node2</title><g id="a_node3"><a target="_top" xlink:href="classarm__compute_1_1_i_kernel.xhtml" xlink:title="Common information for all the kernels."><polygon fill="#fff" stroke="#000" points="61 -112.5 61 -131.5 109 -131.5 109 -112.5 61 -112.5"/><text x="85" y="-119.5" font-family="Helvetica,sans-Serif" font-size="10" text-anchor="middle">IKernel</text></a></g></g><g id="edge2" class="edge"><title>Node2-&gt;Node1</title><path fill="none" stroke="#191970" d="M85,-101.805C85,-92.9102 85,-82.7798 85,-75.7511"/><polygon fill="#191970" stroke="#191970" points="81.5 -102.083 85 -112.083 88.5 -102.083 81.5 -102.083"/></g></g></svg>