<svg xmlns="http://www.w3.org/2000/svg" xmlns:xlink="http://www.w3.org/1999/xlink" width="175pt" height="151pt" viewBox="0 0 175 151"><g id="graph0" class="graph" transform="scale(1 1) rotate(0) translate(4 147)"><title>CLFullyConnectedLayerReshapeWeights</title><polygon fill="#fff" stroke="none" points="-4 4 -4 -147 171 -147 171 4 -4 4"/><g id="node1" class="node"><title>Node0</title><g id="a_node1"><a xlink:title="Basic function to reshape the weights of Fully Connected layer with OpenCL."><polygon fill="#bfbfbf" stroke="#000" points="0 -.5 0 -30.5 167 -30.5 167 -.5 0 -.5"/><text x="8" y="-18.5" font-family="Helvetica,sans-Serif" font-size="10" text-anchor="start">CLFullyConnectedLayerReshape</text><text x="83.5" y="-7.5" font-family="Helvetica,sans-Serif" font-size="10" text-anchor="middle">Weights</text></a></g></g><g id="node2" class="node"><title>Node1</title><g id="a_node2"><a target="_top" xlink:href="classarm__compute_1_1_i_c_l_simple_function.xhtml" xlink:title="Basic interface for functions which have a single OpenCL kernel."><polygon fill="#fff" stroke="#000" points="31.5 -67.5 31.5 -86.5 135.5 -86.5 135.5 -67.5 31.5 -67.5"/><text x="83.5" y="-74.5" font-family="Helvetica,sans-Serif" font-size="10" text-anchor="middle">ICLSimpleFunction</text></a></g></g><g id="edge1" class="edge"><title>Node1-&gt;Node0</title><path fill="none" stroke="#191970" d="M83.5,-57.2349C83.5,-48.5864 83.5,-38.4969 83.5,-30.523"/><polygon fill="#191970" stroke="#191970" points="80 -57.475 83.5 -67.475 87 -57.475 80 -57.475"/></g><g id="node3" class="node"><title>Node2</title><g id="a_node3"><a target="_top" xlink:href="classarm__compute_1_1_i_function.xhtml" xlink:title="Base class for all functions."><polygon fill="#fff" stroke="#000" points="54 -123.5 54 -142.5 113 -142.5 113 -123.5 54 -123.5"/><text x="83.5" y="-130.5" font-family="Helvetica,sans-Serif" font-size="10" text-anchor="middle">IFunction</text></a></g></g><g id="edge2" class="edge"><title>Node2-&gt;Node1</title><path fill="none" stroke="#191970" d="M83.5,-112.805C83.5,-103.91 83.5,-93.7798 83.5,-86.7511"/><polygon fill="#191970" stroke="#191970" points="80 -113.083 83.5 -123.083 87 -113.083 80 -113.083"/></g></g></svg>