<svg xmlns="http://www.w3.org/2000/svg" xmlns:xlink="http://www.w3.org/1999/xlink" width="110pt" height="140pt" viewBox="0 0 110 140"><g id="graph0" class="graph" transform="scale(1 1) rotate(0) translate(4 136)"><title>CLSobel3x3Kernel</title><polygon fill="#fff" stroke="none" points="-4 4 -4 -136 106 -136 106 4 -4 4"/><g id="node1" class="node"><title>Node0</title><g id="a_node1"><a xlink:title="Interface for the kernel to run a 3x3 Sobel filter on a tensor."><polygon fill="#bfbfbf" stroke="#000" points="0 -.5 0 -19.5 102 -19.5 102 -.5 0 -.5"/><text x="51" y="-7.5" font-family="Helvetica,sans-Serif" font-size="10" text-anchor="middle">CLSobel3x3Kernel</text></a></g></g><g id="node2" class="node"><title>Node1</title><g id="a_node2"><a target="_top" xlink:href="classarm__compute_1_1_i_c_l_kernel.xhtml" xlink:title="Common interface for all the OpenCL kernels."><polygon fill="#fff" stroke="#000" points="21 -56.5 21 -75.5 81 -75.5 81 -56.5 21 -56.5"/><text x="51" y="-63.5" font-family="Helvetica,sans-Serif" font-size="10" text-anchor="middle">ICLKernel</text></a></g></g><g id="edge1" class="edge"><title>Node1-&gt;Node0</title><path fill="none" stroke="#191970" d="M51,-45.8045C51,-36.9102 51,-26.7798 51,-19.7511"/><polygon fill="#191970" stroke="#191970" points="47.5 -46.083 51 -56.083 54.5 -46.083 47.5 -46.083"/></g><g id="node3" class="node"><title>Node2</title><g id="a_node3"><a target="_top" xlink:href="classarm__compute_1_1_i_kernel.xhtml" xlink:title="Common information for all the kernels."><polygon fill="#fff" stroke="#000" points="27 -112.5 27 -131.5 75 -131.5 75 -112.5 27 -112.5"/><text x="51" y="-119.5" font-family="Helvetica,sans-Serif" font-size="10" text-anchor="middle">IKernel</text></a></g></g><g id="edge2" class="edge"><title>Node2-&gt;Node1</title><path fill="none" stroke="#191970" d="M51,-101.805C51,-92.9102 51,-82.7798 51,-75.7511"/><polygon fill="#191970" stroke="#191970" points="47.5 -102.083 51 -112.083 54.5 -102.083 47.5 -102.083"/></g></g></svg>