<svg xmlns="http://www.w3.org/2000/svg" xmlns:xlink="http://www.w3.org/1999/xlink" width="134pt" height="140pt" viewBox="0 0 134 140"><g id="graph0" class="graph" transform="scale(1 1) rotate(0) translate(4 136)"><title>CLAccumulateSquared</title><polygon fill="#fff" stroke="none" points="-4 4 -4 -136 130 -136 130 4 -4 4"/><g id="node1" class="node"><title>Node0</title><g id="a_node1"><a xlink:title="Basic function to run CLAccumulateSquaredKernel."><polygon fill="#bfbfbf" stroke="#000" points="0 -.5 0 -19.5 126 -19.5 126 -.5 0 -.5"/><text x="63" y="-7.5" font-family="Helvetica,sans-Serif" font-size="10" text-anchor="middle">CLAccumulateSquared</text></a></g></g><g id="node2" class="node"><title>Node1</title><g id="a_node2"><a target="_top" xlink:href="classarm__compute_1_1_i_c_l_simple_function.xhtml" xlink:title="Basic interface for functions which have a single OpenCL kernel."><polygon fill="#fff" stroke="#000" points="11 -56.5 11 -75.5 115 -75.5 115 -56.5 11 -56.5"/><text x="63" y="-63.5" font-family="Helvetica,sans-Serif" font-size="10" text-anchor="middle">ICLSimpleFunction</text></a></g></g><g id="edge1" class="edge"><title>Node1-&gt;Node0</title><path fill="none" stroke="#191970" d="M63,-45.8045C63,-36.9102 63,-26.7798 63,-19.7511"/><polygon fill="#191970" stroke="#191970" points="59.5 -46.083 63 -56.083 66.5 -46.083 59.5 -46.083"/></g><g id="node3" class="node"><title>Node2</title><g id="a_node3"><a target="_top" xlink:href="classarm__compute_1_1_i_function.xhtml" xlink:title="Base class for all functions."><polygon fill="#fff" stroke="#000" points="33.5 -112.5 33.5 -131.5 92.5 -131.5 92.5 -112.5 33.5 -112.5"/><text x="63" y="-119.5" font-family="Helvetica,sans-Serif" font-size="10" text-anchor="middle">IFunction</text></a></g></g><g id="edge2" class="edge"><title>Node2-&gt;Node1</title><path fill="none" stroke="#191970" d="M63,-101.805C63,-92.9102 63,-82.7798 63,-75.7511"/><polygon fill="#191970" stroke="#191970" points="59.5 -102.083 63 -112.083 66.5 -102.083 59.5 -102.083"/></g></g></svg>