<svg xmlns="http://www.w3.org/2000/svg" xmlns:xlink="http://www.w3.org/1999/xlink" width="188" height="140pt" viewBox="0 0 141 140"><g id="graph0" class="graph" transform="scale(1 1) rotate(0) translate(4 136)"><title>NEConvolutionRectangle</title><polygon fill="#fff" stroke="none" points="-4 4 -4 -136 137 -136 137 4 -4 4"/><g id="node1" class="node"><title>Node0</title><g id="a_node1"><a xlink:title="Basic function to execute non-square convolution."><polygon fill="#bfbfbf" stroke="#000" points="0 -.5 0 -19.5 133 -19.5 133 -.5 0 -.5"/><text x="66.5" y="-7.5" font-family="Helvetica,sans-Serif" font-size="10" text-anchor="middle">NEConvolutionRectangle</text></a></g></g><g id="node2" class="node"><title>Node1</title><g id="a_node2"><a target="_top" xlink:href="classarm__compute_1_1_i_n_e_simple_function.xhtml" xlink:title="Basic interface for functions which have a single NEON kernel."><polygon fill="#fff" stroke="#000" points="14 -56.5 14 -75.5 119 -75.5 119 -56.5 14 -56.5"/><text x="66.5" y="-63.5" font-family="Helvetica,sans-Serif" font-size="10" text-anchor="middle">INESimpleFunction</text></a></g></g><g id="edge1" class="edge"><title>Node1-&gt;Node0</title><path fill="none" stroke="#191970" d="M66.5,-45.8045C66.5,-36.9102 66.5,-26.7798 66.5,-19.7511"/><polygon fill="#191970" stroke="#191970" points="63 -46.083 66.5 -56.083 70 -46.083 63 -46.083"/></g><g id="node3" class="node"><title>Node2</title><g id="a_node3"><a target="_top" xlink:href="classarm__compute_1_1_i_function.xhtml" xlink:title="Base class for all functions."><polygon fill="#fff" stroke="#000" points="37 -112.5 37 -131.5 96 -131.5 96 -112.5 37 -112.5"/><text x="66.5" y="-119.5" font-family="Helvetica,sans-Serif" font-size="10" text-anchor="middle">IFunction</text></a></g></g><g id="edge2" class="edge"><title>Node2-&gt;Node1</title><path fill="none" stroke="#191970" d="M66.5,-101.805C66.5,-92.9102 66.5,-82.7798 66.5,-75.7511"/><polygon fill="#191970" stroke="#191970" points="63 -102.083 66.5 -112.083 70 -102.083 63 -102.083"/></g></g></svg>