<svg xmlns="http://www.w3.org/2000/svg" xmlns:xlink="http://www.w3.org/1999/xlink" width="91pt" height="140pt" viewBox="0 0 91 140"><g id="graph0" class="graph" transform="scale(1 1) rotate(0) translate(4 136)"><title>CLMultiImage</title><polygon fill="#fff" stroke="none" points="-4 4 -4 -136 87 -136 87 4 -4 4"/><g id="node1" class="node"><title>Node0</title><g id="a_node1"><a xlink:title="Basic implementation of the CL multi-planar image interface."><polygon fill="#bfbfbf" stroke="#000" points="1 -.5 1 -19.5 82 -19.5 82 -.5 1 -.5"/><text x="41.5" y="-7.5" font-family="Helvetica,sans-Serif" font-size="10" text-anchor="middle">CLMultiImage</text></a></g></g><g id="node2" class="node"><title>Node1</title><g id="a_node2"><a target="_top" xlink:href="classarm__compute_1_1_i_c_l_multi_image.xhtml" xlink:title="Interface for OpenCL multi-planar images."><polygon fill="#fff" stroke="#000" points="0 -56.5 0 -75.5 83 -75.5 83 -56.5 0 -56.5"/><text x="41.5" y="-63.5" font-family="Helvetica,sans-Serif" font-size="10" text-anchor="middle">ICLMultiImage</text></a></g></g><g id="edge1" class="edge"><title>Node1-&gt;Node0</title><path fill="none" stroke="#191970" d="M41.5,-45.8045C41.5,-36.9102 41.5,-26.7798 41.5,-19.7511"/><polygon fill="#191970" stroke="#191970" points="38 -46.083 41.5 -56.083 45 -46.083 38 -46.083"/></g><g id="node3" class="node"><title>Node2</title><g id="a_node3"><a target="_top" xlink:href="classarm__compute_1_1_i_multi_image.xhtml" xlink:title="Interface for multi-planar images."><polygon fill="#fff" stroke="#000" points="6 -112.5 6 -131.5 77 -131.5 77 -112.5 6 -112.5"/><text x="41.5" y="-119.5" font-family="Helvetica,sans-Serif" font-size="10" text-anchor="middle">IMultiImage</text></a></g></g><g id="edge2" class="edge"><title>Node2-&gt;Node1</title><path fill="none" stroke="#191970" d="M41.5,-101.805C41.5,-92.9102 41.5,-82.7798 41.5,-75.7511"/><polygon fill="#191970" stroke="#191970" points="38 -102.083 41.5 -112.083 45 -102.083 38 -102.083"/></g></g></svg>