<svg xmlns="http://www.w3.org/2000/svg" xmlns:xlink="http://www.w3.org/1999/xlink" width="88pt" height="140pt" viewBox="0 0 88 140"><g id="graph0" class="graph" transform="scale(1 1) rotate(0) translate(4 136)"><title>CLCropKernel</title><polygon fill="#fff" stroke="none" points="-4 4 -4 -136 84 -136 84 4 -4 4"/><g id="node1" class="node"><title>Node0</title><g id="a_node1"><a xlink:title="OpenCL kernel to perform a copy between two tensors."><polygon fill="#bfbfbf" stroke="#000" points="0 -.5 0 -19.5 80 -19.5 80 -.5 0 -.5"/><text x="40" y="-7.5" font-family="Helvetica,sans-Serif" font-size="10" text-anchor="middle">CLCropKernel</text></a></g></g><g id="node2" class="node"><title>Node1</title><g id="a_node2"><a target="_top" xlink:href="classarm__compute_1_1_i_c_l_kernel.xhtml" xlink:title="Common interface for all the OpenCL kernels."><polygon fill="#fff" stroke="#000" points="10 -56.5 10 -75.5 70 -75.5 70 -56.5 10 -56.5"/><text x="40" y="-63.5" font-family="Helvetica,sans-Serif" font-size="10" text-anchor="middle">ICLKernel</text></a></g></g><g id="edge1" class="edge"><title>Node1-&gt;Node0</title><path fill="none" stroke="#191970" d="M40,-45.8045C40,-36.9102 40,-26.7798 40,-19.7511"/><polygon fill="#191970" stroke="#191970" points="36.5 -46.083 40 -56.083 43.5 -46.083 36.5 -46.083"/></g><g id="node3" class="node"><title>Node2</title><g id="a_node3"><a target="_top" xlink:href="classarm__compute_1_1_i_kernel.xhtml" xlink:title="Common information for all the kernels."><polygon fill="#fff" stroke="#000" points="16 -112.5 16 -131.5 64 -131.5 64 -112.5 16 -112.5"/><text x="40" y="-119.5" font-family="Helvetica,sans-Serif" font-size="10" text-anchor="middle">IKernel</text></a></g></g><g id="edge2" class="edge"><title>Node2-&gt;Node1</title><path fill="none" stroke="#191970" d="M40,-101.805C40,-92.9102 40,-82.7798 40,-75.7511"/><polygon fill="#191970" stroke="#191970" points="36.5 -102.083 40 -112.083 43.5 -102.083 36.5 -102.083"/></g></g></svg>