<svg xmlns="http://www.w3.org/2000/svg" xmlns:xlink="http://www.w3.org/1999/xlink" width="175pt" height="196pt" viewBox="0 0 175 196"><g id="graph0" class="graph" transform="scale(1 1) rotate(0) translate(4 192)"><title>NEArithmeticOperationKernel</title><polygon fill="#fff" stroke="none" points="-4 4 -4 -192 171 -192 171 4 -4 4"/><g id="node1" class="node"><title>Node0</title><g id="a_node1"><a><polygon fill="#bfbfbf" stroke="#000" points="5.5 -.5 5.5 -19.5 161.5 -19.5 161.5 -.5 5.5 -.5"/><text x="83.5" y="-7.5" font-family="Helvetica,sans-Serif" font-size="10" text-anchor="middle">NEArithmeticOperationKernel</text></a></g></g><g id="node2" class="node"><title>Node1</title><g id="a_node2"><a target="_top" xlink:href="classarm__compute_1_1_n_e_elementwise_operation_kernel.xhtml" xlink:title="Interface for an element-wise operation kernel."><polygon fill="#fff" stroke="#000" points="0 -56.5 0 -75.5 167 -75.5 167 -56.5 0 -56.5"/><text x="83.5" y="-63.5" font-family="Helvetica,sans-Serif" font-size="10" text-anchor="middle">NEElementwiseOperationKernel</text></a></g></g><g id="edge1" class="edge"><title>Node1-&gt;Node0</title><path fill="none" stroke="#191970" d="M83.5,-45.8045C83.5,-36.9102 83.5,-26.7798 83.5,-19.7511"/><polygon fill="#191970" stroke="#191970" points="80 -46.083 83.5 -56.083 87 -46.083 80 -46.083"/></g><g id="node3" class="node"><title>Node2</title><g id="a_node3"><a target="_top" xlink:href="classarm__compute_1_1_i_c_p_p_kernel.xhtml" xlink:title="Common interface for all kernels implemented in C++."><polygon fill="#fff" stroke="#000" points="52.5 -112.5 52.5 -131.5 114.5 -131.5 114.5 -112.5 52.5 -112.5"/><text x="83.5" y="-119.5" font-family="Helvetica,sans-Serif" font-size="10" text-anchor="middle">INEKernel</text></a></g></g><g id="edge2" class="edge"><title>Node2-&gt;Node1</title><path fill="none" stroke="#191970" d="M83.5,-101.805C83.5,-92.9102 83.5,-82.7798 83.5,-75.7511"/><polygon fill="#191970" stroke="#191970" points="80 -102.083 83.5 -112.083 87 -102.083 80 -102.083"/></g><g id="node4" class="node"><title>Node3</title><g id="a_node4"><a target="_top" xlink:href="classarm__compute_1_1_i_kernel.xhtml" xlink:title="Common information for all the kernels."><polygon fill="#fff" stroke="#000" points="59.5 -168.5 59.5 -187.5 107.5 -187.5 107.5 -168.5 59.5 -168.5"/><text x="83.5" y="-175.5" font-family="Helvetica,sans-Serif" font-size="10" text-anchor="middle">IKernel</text></a></g></g><g id="edge3" class="edge"><title>Node3-&gt;Node2</title><path fill="none" stroke="#191970" d="M83.5,-157.805C83.5,-148.91 83.5,-138.78 83.5,-131.751"/><polygon fill="#191970" stroke="#191970" points="80 -158.083 83.5 -168.083 87 -158.083 80 -158.083"/></g></g></svg>