<svg xmlns="http://www.w3.org/2000/svg" xmlns:xlink="http://www.w3.org/1999/xlink" width="347pt" height="163pt" viewBox="0 0 346.5 163"><g id="graph0" class="graph" transform="scale(1 1) rotate(0) translate(4 159)"><title>CLPoolingLayerKernel</title><polygon fill="#fff" stroke="none" points="-4 4 -4 -159 342.5 -159 342.5 4 -4 4"/><g id="node1" class="node"><title>Node0</title><g id="a_node1"><a xlink:title="Interface for the pooling layer kernel."><polygon fill="#bfbfbf" stroke="#000" points="99.5 -.5 99.5 -19.5 218.5 -19.5 218.5 -.5 99.5 -.5"/><text x="159" y="-7.5" font-family="Helvetica,sans-Serif" font-size="10" text-anchor="middle">CLPoolingLayerKernel</text></a></g></g><g id="node2" class="node"><title>Node1</title><g id="a_node2"><a target="_top" xlink:href="classarm__compute_1_1_i_c_l_kernel.xhtml" xlink:title="Common interface for all the OpenCL kernels."><polygon fill="#fff" stroke="#000" points="0 -78.5 0 -97.5 60 -97.5 60 -78.5 0 -78.5"/><text x="30" y="-85.5" font-family="Helvetica,sans-Serif" font-size="10" text-anchor="middle">ICLKernel</text></a></g></g><g id="edge1" class="edge"><title>Node1-&gt;Node0</title><path fill="none" stroke="#191970" d="M53.3878,-73.1715C70.0115,-63.3475 92.8688,-49.8504 113,-38 123.534,-31.7992 135.435,-24.8145 144.492,-19.5029"/><polygon fill="#191970" stroke="#191970" points="51.216 -70.39 44.388 -78.491 54.778 -76.416 51.216 -70.39"/></g><g id="node3" class="node"><title>Node2</title><g id="a_node3"><a target="_top" xlink:href="classarm__compute_1_1_i_kernel.xhtml" xlink:title="Common information for all the kernels."><polygon fill="#fff" stroke="#000" points="6 -135.5 6 -154.5 54 -154.5 54 -135.5 6 -135.5"/><text x="30" y="-142.5" font-family="Helvetica,sans-Serif" font-size="10" text-anchor="middle">IKernel</text></a></g></g><g id="edge2" class="edge"><title>Node2-&gt;Node1</title><path fill="none" stroke="#191970" d="M30,-125.117C30,-115.817 30,-105.056 30,-97.7149"/><polygon fill="#191970" stroke="#191970" points="26.5 -125.406 30 -135.406 33.5 -125.406 26.5 -125.406"/></g><g id="node4" class="node"><title>Node3</title><g id="a_node4"><a target="_top" xlink:href="classarm__compute_1_1_i_c_l_tensor.xhtml" xlink:title="Interface for OpenCL tensor."><polygon fill="#fff" stroke="#000" points="78 -78.5 78 -97.5 138 -97.5 138 -78.5 78 -78.5"/><text x="108" y="-85.5" font-family="Helvetica,sans-Serif" font-size="10" text-anchor="middle">ICLTensor</text></a></g></g><g id="edge3" class="edge"><title>Node3-&gt;Node0</title><path fill="none" stroke="#9a32cd" stroke-dasharray="5 2" d="M113.22,-68.6297C116.511,-58.9609 121.398,-47.2308 128,-38 133.066,-30.9179 140.343,-24.4539 146.575,-19.6273"/><polygon fill="#9a32cd" stroke="#9a32cd" points="109.801 -67.839 110.178 -78.427 116.486 -69.915 109.801 -67.839"/><text x="148" y="-52" font-family="Helvetica,sans-Serif" font-size="10" text-anchor="middle">_output</text><text x="148" y="-41" font-family="Helvetica,sans-Serif" font-size="10" text-anchor="middle">_input</text></g><g id="node5" class="node"><title>Node4</title><g id="a_node5"><a target="_top" xlink:href="classarm__compute_1_1_i_tensor.xhtml" xlink:title="Interface for NEON tensor."><polygon fill="#fff" stroke="#000" points="83 -135.5 83 -154.5 133 -154.5 133 -135.5 83 -135.5"/><text x="108" y="-142.5" font-family="Helvetica,sans-Serif" font-size="10" text-anchor="middle">ITensor</text></a></g></g><g id="edge4" class="edge"><title>Node4-&gt;Node3</title><path fill="none" stroke="#191970" d="M108,-125.117C108,-115.817 108,-105.056 108,-97.7149"/><polygon fill="#191970" stroke="#191970" points="104.5 -125.406 108 -135.406 111.5 -125.406 104.5 -125.406"/></g><g id="node6" class="node"><title>Node5</title><g id="a_node6"><a target="_top" xlink:href="structarm__compute_1_1_border_size.xhtml" xlink:title="Container for 2D border size."><polygon fill="#fff" stroke="#000" points="156.5 -78.5 156.5 -97.5 225.5 -97.5 225.5 -78.5 156.5 -78.5"/><text x="191" y="-85.5" font-family="Helvetica,sans-Serif" font-size="10" text-anchor="middle">BorderSize</text></a></g></g><g id="edge5" class="edge"><title>Node5-&gt;Node0</title><path fill="none" stroke="#9a32cd" stroke-dasharray="5 2" d="M183.284,-68.6744C176.732,-53.1127 167.62,-31.4722 162.628,-19.6165"/><polygon fill="#9a32cd" stroke="#9a32cd" points="180.223 -70.424 187.329 -78.282 186.674 -67.707 180.223 -70.424"/><text x="211" y="-46.5" font-family="Helvetica,sans-Serif" font-size="10" text-anchor="middle">_border_size</text></g><g id="node7" class="node"><title>Node6</title><g id="a_node7"><a target="_top" xlink:href="classarm__compute_1_1_pooling_layer_info.xhtml" xlink:title="Pooling Layer Information class."><polygon fill="#fff" stroke="#000" points="243.5 -78.5 243.5 -97.5 338.5 -97.5 338.5 -78.5 243.5 -78.5"/><text x="291" y="-85.5" font-family="Helvetica,sans-Serif" font-size="10" text-anchor="middle">PoolingLayerInfo</text></a></g></g><g id="edge6" class="edge"><title>Node6-&gt;Node0</title><path fill="none" stroke="#9a32cd" stroke-dasharray="5 2" d="M279.687,-70.2966C271.693,-59.6638 260.098,-46.3662 247,-38 233.801,-29.5698 217.812,-23.6373 203.103,-19.5255"/><polygon fill="#9a32cd" stroke="#9a32cd" points="276.844 -72.338 285.509 -78.435 282.537 -68.265 276.844 -72.338"/><text x="297" y="-46.5" font-family="Helvetica,sans-Serif" font-size="10" text-anchor="middle">_pool_info</text></g></g></svg>