<svg xmlns="http://www.w3.org/2000/svg" xmlns:xlink="http://www.w3.org/1999/xlink" width="104pt" height="140pt" viewBox="0 0 104 140"><g id="graph0" class="graph" transform="scale(1 1) rotate(0) translate(4 136)"><title>NEFillArrayKernel</title><polygon fill="#fff" stroke="none" points="-4 4 -4 -136 100 -136 100 4 -4 4"/><g id="node1" class="node"><title>Node0</title><g id="a_node1"><a xlink:title="This kernel adds all texels greater than or equal to the threshold value to the keypoint array."><polygon fill="#bfbfbf" stroke="#000" points="0 -.5 0 -19.5 96 -19.5 96 -.5 0 -.5"/><text x="48" y="-7.5" font-family="Helvetica,sans-Serif" font-size="10" text-anchor="middle">NEFillArrayKernel</text></a></g></g><g id="node2" class="node"><title>Node1</title><g id="a_node2"><a target="_top" xlink:href="classarm__compute_1_1_i_c_p_p_kernel.xhtml" xlink:title="Common interface for all kernels implemented in C++."><polygon fill="#fff" stroke="#000" points="17 -56.5 17 -75.5 79 -75.5 79 -56.5 17 -56.5"/><text x="48" y="-63.5" font-family="Helvetica,sans-Serif" font-size="10" text-anchor="middle">INEKernel</text></a></g></g><g id="edge1" class="edge"><title>Node1-&gt;Node0</title><path fill="none" stroke="#191970" d="M48,-45.8045C48,-36.9102 48,-26.7798 48,-19.7511"/><polygon fill="#191970" stroke="#191970" points="44.5 -46.083 48 -56.083 51.5 -46.083 44.5 -46.083"/></g><g id="node3" class="node"><title>Node2</title><g id="a_node3"><a target="_top" xlink:href="classarm__compute_1_1_i_kernel.xhtml" xlink:title="Common information for all the kernels."><polygon fill="#fff" stroke="#000" points="24 -112.5 24 -131.5 72 -131.5 72 -112.5 24 -112.5"/><text x="48" y="-119.5" font-family="Helvetica,sans-Serif" font-size="10" text-anchor="middle">IKernel</text></a></g></g><g id="edge2" class="edge"><title>Node2-&gt;Node1</title><path fill="none" stroke="#191970" d="M48,-101.805C48,-92.9102 48,-82.7798 48,-75.7511"/><polygon fill="#191970" stroke="#191970" points="44.5 -102.083 48 -112.083 51.5 -102.083 44.5 -102.083"/></g></g></svg>