<svg xmlns="http://www.w3.org/2000/svg" xmlns:xlink="http://www.w3.org/1999/xlink" width="168" height="196pt" viewBox="0 0 126 196"><g id="graph0" class="graph" transform="scale(1 1) rotate(0) translate(4 192)"><title>NETableLookupKernel</title><polygon fill="#fff" stroke="none" points="-4 4 -4 -192 122 -192 122 4 -4 4"/><g id="node1" class="node"><title>Node0</title><g id="a_node1"><a xlink:title="Interface for the kernel to perform table lookup calculations."><polygon fill="#bfbfbf" stroke="#000" points="0 -.5 0 -19.5 118 -19.5 118 -.5 0 -.5"/><text x="59" y="-7.5" font-family="Helvetica,sans-Serif" font-size="10" text-anchor="middle">NETableLookupKernel</text></a></g></g><g id="node2" class="node"><title>Node1</title><g id="a_node2"><a target="_top" xlink:href="classarm__compute_1_1_i_c_p_p_simple_kernel.xhtml" xlink:title="Interface for simple C++ kernels having 1 tensor input and 1 tensor output."><polygon fill="#fff" stroke="#000" points="11.5 -56.5 11.5 -75.5 106.5 -75.5 106.5 -56.5 11.5 -56.5"/><text x="59" y="-63.5" font-family="Helvetica,sans-Serif" font-size="10" text-anchor="middle">INESimpleKernel</text></a></g></g><g id="edge1" class="edge"><title>Node1-&gt;Node0</title><path fill="none" stroke="#191970" d="M59,-45.8045C59,-36.9102 59,-26.7798 59,-19.7511"/><polygon fill="#191970" stroke="#191970" points="55.5 -46.083 59 -56.083 62.5 -46.083 55.5 -46.083"/></g><g id="node3" class="node"><title>Node2</title><g id="a_node3"><a target="_top" xlink:href="classarm__compute_1_1_i_c_p_p_kernel.xhtml" xlink:title="Common interface for all kernels implemented in C++."><polygon fill="#fff" stroke="#000" points="25.5 -112.5 25.5 -131.5 92.5 -131.5 92.5 -112.5 25.5 -112.5"/><text x="59" y="-119.5" font-family="Helvetica,sans-Serif" font-size="10" text-anchor="middle">ICPPKernel</text></a></g></g><g id="edge2" class="edge"><title>Node2-&gt;Node1</title><path fill="none" stroke="#191970" d="M59,-101.805C59,-92.9102 59,-82.7798 59,-75.7511"/><polygon fill="#191970" stroke="#191970" points="55.5 -102.083 59 -112.083 62.5 -102.083 55.5 -102.083"/></g><g id="node4" class="node"><title>Node3</title><g id="a_node4"><a target="_top" xlink:href="classarm__compute_1_1_i_kernel.xhtml" xlink:title="Common information for all the kernels."><polygon fill="#fff" stroke="#000" points="35 -168.5 35 -187.5 83 -187.5 83 -168.5 35 -168.5"/><text x="59" y="-175.5" font-family="Helvetica,sans-Serif" font-size="10" text-anchor="middle">IKernel</text></a></g></g><g id="edge3" class="edge"><title>Node3-&gt;Node2</title><path fill="none" stroke="#191970" d="M59,-157.805C59,-148.91 59,-138.78 59,-131.751"/><polygon fill="#191970" stroke="#191970" points="55.5 -158.083 59 -168.083 62.5 -158.083 55.5 -158.083"/></g></g></svg>