<svg xmlns="http://www.w3.org/2000/svg" xmlns:xlink="http://www.w3.org/1999/xlink" width="170pt" height="196pt" viewBox="0 0 170 196"><g id="graph0" class="graph" transform="scale(1 1) rotate(0) translate(4 192)"><title>NEGaussianPyramidVertKernel</title><polygon fill="#fff" stroke="none" points="-4 4 -4 -192 166 -192 166 4 -4 4"/><g id="node1" class="node"><title>Node0</title><g id="a_node1"><a xlink:title="NEON kernel to perform a GaussianPyramid (vertical pass)"><polygon fill="#bfbfbf" stroke="#000" points="0 -.5 0 -19.5 162 -19.5 162 -.5 0 -.5"/><text x="81" y="-7.5" font-family="Helvetica,sans-Serif" font-size="10" text-anchor="middle">NEGaussianPyramidVertKernel</text></a></g></g><g id="node2" class="node"><title>Node1</title><g id="a_node2"><a target="_top" xlink:href="classarm__compute_1_1_i_c_p_p_simple_kernel.xhtml" xlink:title="Interface for simple C++ kernels having 1 tensor input and 1 tensor output."><polygon fill="#fff" stroke="#000" points="33.5 -56.5 33.5 -75.5 128.5 -75.5 128.5 -56.5 33.5 -56.5"/><text x="81" y="-63.5" font-family="Helvetica,sans-Serif" font-size="10" text-anchor="middle">INESimpleKernel</text></a></g></g><g id="edge1" class="edge"><title>Node1-&gt;Node0</title><path fill="none" stroke="#191970" d="M81,-45.8045C81,-36.9102 81,-26.7798 81,-19.7511"/><polygon fill="#191970" stroke="#191970" points="77.5 -46.083 81 -56.083 84.5 -46.083 77.5 -46.083"/></g><g id="node3" class="node"><title>Node2</title><g id="a_node3"><a target="_top" xlink:href="classarm__compute_1_1_i_c_p_p_kernel.xhtml" xlink:title="Common interface for all kernels implemented in C++."><polygon fill="#fff" stroke="#000" points="47.5 -112.5 47.5 -131.5 114.5 -131.5 114.5 -112.5 47.5 -112.5"/><text x="81" y="-119.5" font-family="Helvetica,sans-Serif" font-size="10" text-anchor="middle">ICPPKernel</text></a></g></g><g id="edge2" class="edge"><title>Node2-&gt;Node1</title><path fill="none" stroke="#191970" d="M81,-101.805C81,-92.9102 81,-82.7798 81,-75.7511"/><polygon fill="#191970" stroke="#191970" points="77.5 -102.083 81 -112.083 84.5 -102.083 77.5 -102.083"/></g><g id="node4" class="node"><title>Node3</title><g id="a_node4"><a target="_top" xlink:href="classarm__compute_1_1_i_kernel.xhtml" xlink:title="Common information for all the kernels."><polygon fill="#fff" stroke="#000" points="57 -168.5 57 -187.5 105 -187.5 105 -168.5 57 -168.5"/><text x="81" y="-175.5" font-family="Helvetica,sans-Serif" font-size="10" text-anchor="middle">IKernel</text></a></g></g><g id="edge3" class="edge"><title>Node3-&gt;Node2</title><path fill="none" stroke="#191970" d="M81,-157.805C81,-148.91 81,-138.78 81,-131.751"/><polygon fill="#191970" stroke="#191970" points="77.5 -158.083 81 -168.083 84.5 -158.083 77.5 -158.083"/></g></g></svg>