<svg xmlns="http://www.w3.org/2000/svg" xmlns:xlink="http://www.w3.org/1999/xlink" width="163pt" height="336" viewBox="0 0 163 252"><g id="graph0" class="graph" transform="scale(1 1) rotate(0) translate(4 248)"><title>CLAccumulateSquaredKernel</title><polygon fill="#fff" stroke="none" points="-4 4 -4 -248 159 -248 159 4 -4 4"/><g id="node1" class="node"><title>Node0</title><g id="a_node1"><a xlink:title="Interface for the accumulate squared kernel."><polygon fill="#bfbfbf" stroke="#000" points="0 -.5 0 -19.5 155 -19.5 155 -.5 0 -.5"/><text x="77.5" y="-7.5" font-family="Helvetica,sans-Serif" font-size="10" text-anchor="middle">CLAccumulateSquaredKernel</text></a></g></g><g id="node2" class="node"><title>Node1</title><g id="a_node2"><a target="_top" xlink:href="classarm__compute_1_1_i_c_l_simple2_d_kernel.xhtml" xlink:title="Interface for simple OpenCL kernels having 1 tensor input and 1 tensor output."><polygon fill="#fff" stroke="#000" points="24 -56.5 24 -75.5 131 -75.5 131 -56.5 24 -56.5"/><text x="77.5" y="-63.5" font-family="Helvetica,sans-Serif" font-size="10" text-anchor="middle">ICLSimple2DKernel</text></a></g></g><g id="edge1" class="edge"><title>Node1-&gt;Node0</title><path fill="none" stroke="#191970" d="M77.5,-45.8045C77.5,-36.9102 77.5,-26.7798 77.5,-19.7511"/><polygon fill="#191970" stroke="#191970" points="74 -46.083 77.5 -56.083 81 -46.083 74 -46.083"/></g><g id="node3" class="node"><title>Node2</title><g id="a_node3"><a target="_top" xlink:href="classarm__compute_1_1_i_c_l_simple_kernel.xhtml" xlink:title="Interface for simple OpenCL kernels having 1 tensor input and 1 tensor output."><polygon fill="#fff" stroke="#000" points="31 -112.5 31 -131.5 124 -131.5 124 -112.5 31 -112.5"/><text x="77.5" y="-119.5" font-family="Helvetica,sans-Serif" font-size="10" text-anchor="middle">ICLSimpleKernel</text></a></g></g><g id="edge2" class="edge"><title>Node2-&gt;Node1</title><path fill="none" stroke="#191970" d="M77.5,-101.805C77.5,-92.9102 77.5,-82.7798 77.5,-75.7511"/><polygon fill="#191970" stroke="#191970" points="74 -102.083 77.5 -112.083 81 -102.083 74 -102.083"/></g><g id="node4" class="node"><title>Node3</title><g id="a_node4"><a target="_top" xlink:href="classarm__compute_1_1_i_c_l_kernel.xhtml" xlink:title="Common interface for all the OpenCL kernels."><polygon fill="#fff" stroke="#000" points="47.5 -168.5 47.5 -187.5 107.5 -187.5 107.5 -168.5 47.5 -168.5"/><text x="77.5" y="-175.5" font-family="Helvetica,sans-Serif" font-size="10" text-anchor="middle">ICLKernel</text></a></g></g><g id="edge3" class="edge"><title>Node3-&gt;Node2</title><path fill="none" stroke="#191970" d="M77.5,-157.805C77.5,-148.91 77.5,-138.78 77.5,-131.751"/><polygon fill="#191970" stroke="#191970" points="74 -158.083 77.5 -168.083 81 -158.083 74 -158.083"/></g><g id="node5" class="node"><title>Node4</title><g id="a_node5"><a target="_top" xlink:href="classarm__compute_1_1_i_kernel.xhtml" xlink:title="Common information for all the kernels."><polygon fill="#fff" stroke="#000" points="53.5 -224.5 53.5 -243.5 101.5 -243.5 101.5 -224.5 53.5 -224.5"/><text x="77.5" y="-231.5" font-family="Helvetica,sans-Serif" font-size="10" text-anchor="middle">IKernel</text></a></g></g><g id="edge4" class="edge"><title>Node4-&gt;Node3</title><path fill="none" stroke="#191970" d="M77.5,-213.805C77.5,-204.91 77.5,-194.78 77.5,-187.751"/><polygon fill="#191970" stroke="#191970" points="74 -214.083 77.5 -224.083 81 -214.083 74 -214.083"/></g></g></svg>