<svg xmlns="http://www.w3.org/2000/svg" xmlns:xlink="http://www.w3.org/1999/xlink" width="172" height="196pt" viewBox="0 0 129 196"><g id="graph0" class="graph" transform="scale(1 1) rotate(0) translate(4 192)"><title>NELogits1DMaxKernel</title><polygon fill="#fff" stroke="none" points="-4 4 -4 -192 125 -192 125 4 -4 4"/><g id="node1" class="node"><title>Node0</title><g id="a_node1"><a xlink:title="Interface for the identifying the max value of 1D Logits."><polygon fill="#bfbfbf" stroke="#000" points="0 -.5 0 -19.5 121 -19.5 121 -.5 0 -.5"/><text x="60.5" y="-7.5" font-family="Helvetica,sans-Serif" font-size="10" text-anchor="middle">NELogits1DMaxKernel</text></a></g></g><g id="node2" class="node"><title>Node1</title><g id="a_node2"><a target="_top" xlink:href="classarm__compute_1_1_i_c_p_p_simple_kernel.xhtml" xlink:title="Interface for simple C++ kernels having 1 tensor input and 1 tensor output."><polygon fill="#fff" stroke="#000" points="13 -56.5 13 -75.5 108 -75.5 108 -56.5 13 -56.5"/><text x="60.5" y="-63.5" font-family="Helvetica,sans-Serif" font-size="10" text-anchor="middle">INESimpleKernel</text></a></g></g><g id="edge1" class="edge"><title>Node1-&gt;Node0</title><path fill="none" stroke="#191970" d="M60.5,-45.8045C60.5,-36.9102 60.5,-26.7798 60.5,-19.7511"/><polygon fill="#191970" stroke="#191970" points="57 -46.083 60.5 -56.083 64 -46.083 57 -46.083"/></g><g id="node3" class="node"><title>Node2</title><g id="a_node3"><a target="_top" xlink:href="classarm__compute_1_1_i_c_p_p_kernel.xhtml" xlink:title="Common interface for all kernels implemented in C++."><polygon fill="#fff" stroke="#000" points="27 -112.5 27 -131.5 94 -131.5 94 -112.5 27 -112.5"/><text x="60.5" y="-119.5" font-family="Helvetica,sans-Serif" font-size="10" text-anchor="middle">ICPPKernel</text></a></g></g><g id="edge2" class="edge"><title>Node2-&gt;Node1</title><path fill="none" stroke="#191970" d="M60.5,-101.805C60.5,-92.9102 60.5,-82.7798 60.5,-75.7511"/><polygon fill="#191970" stroke="#191970" points="57 -102.083 60.5 -112.083 64 -102.083 57 -102.083"/></g><g id="node4" class="node"><title>Node3</title><g id="a_node4"><a target="_top" xlink:href="classarm__compute_1_1_i_kernel.xhtml" xlink:title="Common information for all the kernels."><polygon fill="#fff" stroke="#000" points="36.5 -168.5 36.5 -187.5 84.5 -187.5 84.5 -168.5 36.5 -168.5"/><text x="60.5" y="-175.5" font-family="Helvetica,sans-Serif" font-size="10" text-anchor="middle">IKernel</text></a></g></g><g id="edge3" class="edge"><title>Node3-&gt;Node2</title><path fill="none" stroke="#191970" d="M60.5,-157.805C60.5,-148.91 60.5,-138.78 60.5,-131.751"/><polygon fill="#191970" stroke="#191970" points="57 -158.083 60.5 -168.083 64 -158.083 57 -158.083"/></g></g></svg>