<svg xmlns="http://www.w3.org/2000/svg" xmlns:xlink="http://www.w3.org/1999/xlink" width="248" height="140pt" viewBox="0 0 186 140"><g id="graph0" class="graph" transform="scale(1 1) rotate(0) translate(4 136)"><title>NEComplexPixelWiseMultiplication</title><polygon fill="#fff" stroke="none" points="-4 4 -4 -136 182 -136 182 4 -4 4"/><g id="node1" class="node"><title>Node0</title><g id="a_node1"><a xlink:title="Basic function to run NEComplexPixelWiseMultiplicationKernel."><polygon fill="#bfbfbf" stroke="#000" points="0 -.5 0 -19.5 178 -19.5 178 -.5 0 -.5"/><text x="89" y="-7.5" font-family="Helvetica,sans-Serif" font-size="10" text-anchor="middle">NEComplexPixelWiseMultiplication</text></a></g></g><g id="node2" class="node"><title>Node1</title><g id="a_node2"><a target="_top" xlink:href="classarm__compute_1_1_i_n_e_simple_function.xhtml" xlink:title="Basic interface for functions which have a single NEON kernel."><polygon fill="#fff" stroke="#000" points="36.5 -56.5 36.5 -75.5 141.5 -75.5 141.5 -56.5 36.5 -56.5"/><text x="89" y="-63.5" font-family="Helvetica,sans-Serif" font-size="10" text-anchor="middle">INESimpleFunction</text></a></g></g><g id="edge1" class="edge"><title>Node1-&gt;Node0</title><path fill="none" stroke="#191970" d="M89,-45.8045C89,-36.9102 89,-26.7798 89,-19.7511"/><polygon fill="#191970" stroke="#191970" points="85.5 -46.083 89 -56.083 92.5 -46.083 85.5 -46.083"/></g><g id="node3" class="node"><title>Node2</title><g id="a_node3"><a target="_top" xlink:href="classarm__compute_1_1_i_function.xhtml" xlink:title="Base class for all functions."><polygon fill="#fff" stroke="#000" points="59.5 -112.5 59.5 -131.5 118.5 -131.5 118.5 -112.5 59.5 -112.5"/><text x="89" y="-119.5" font-family="Helvetica,sans-Serif" font-size="10" text-anchor="middle">IFunction</text></a></g></g><g id="edge2" class="edge"><title>Node2-&gt;Node1</title><path fill="none" stroke="#191970" d="M89,-101.805C89,-92.9102 89,-82.7798 89,-75.7511"/><polygon fill="#191970" stroke="#191970" points="85.5 -102.083 89 -112.083 92.5 -102.083 85.5 -102.083"/></g></g></svg>