<svg xmlns="http://www.w3.org/2000/svg" xmlns:xlink="http://www.w3.org/1999/xlink" width="182pt" height="151pt" viewBox="0 0 182 151"><g id="graph0" class="graph" transform="scale(1 1) rotate(0) translate(4 147)"><title>CPPDetectionWindowNonMaximaSuppressionKernel</title><polygon fill="#fff" stroke="none" points="-4 4 -4 -147 178 -147 178 4 -4 4"/><g id="node1" class="node"><title>Node0</title><g id="a_node1"><a xlink:title="CPP kernel to perform in-place computation of euclidean distance on IDetectionWindowArray."><polygon fill="#bfbfbf" stroke="#000" points="0 -.5 0 -30.5 174 -30.5 174 -.5 0 -.5"/><text x="8" y="-18.5" font-family="Helvetica,sans-Serif" font-size="10" text-anchor="start">CPPDetectionWindowNonMaxima</text><text x="87" y="-7.5" font-family="Helvetica,sans-Serif" font-size="10" text-anchor="middle">SuppressionKernel</text></a></g></g><g id="node2" class="node"><title>Node1</title><g id="a_node2"><a target="_top" xlink:href="classarm__compute_1_1_i_c_p_p_kernel.xhtml" xlink:title="Common interface for all kernels implemented in C++."><polygon fill="#fff" stroke="#000" points="53.5 -67.5 53.5 -86.5 120.5 -86.5 120.5 -67.5 53.5 -67.5"/><text x="87" y="-74.5" font-family="Helvetica,sans-Serif" font-size="10" text-anchor="middle">ICPPKernel</text></a></g></g><g id="edge1" class="edge"><title>Node1-&gt;Node0</title><path fill="none" stroke="#191970" d="M87,-57.2349C87,-48.5864 87,-38.4969 87,-30.523"/><polygon fill="#191970" stroke="#191970" points="83.5 -57.475 87 -67.475 90.5 -57.475 83.5 -57.475"/></g><g id="node3" class="node"><title>Node2</title><g id="a_node3"><a target="_top" xlink:href="classarm__compute_1_1_i_kernel.xhtml" xlink:title="Common information for all the kernels."><polygon fill="#fff" stroke="#000" points="63 -123.5 63 -142.5 111 -142.5 111 -123.5 63 -123.5"/><text x="87" y="-130.5" font-family="Helvetica,sans-Serif" font-size="10" text-anchor="middle">IKernel</text></a></g></g><g id="edge2" class="edge"><title>Node2-&gt;Node1</title><path fill="none" stroke="#191970" d="M87,-112.805C87,-103.91 87,-93.7798 87,-86.7511"/><polygon fill="#191970" stroke="#191970" points="83.5 -113.083 87 -123.083 90.5 -113.083 83.5 -113.083"/></g></g></svg>