<svg xmlns="http://www.w3.org/2000/svg" xmlns:xlink="http://www.w3.org/1999/xlink" width="122pt" height="151pt" viewBox="0 0 122 151"><g id="graph0" class="graph" transform="scale(1 1) rotate(0) translate(4 147)"><title>CLComparisonStatic&lt; COP &gt;</title><polygon fill="#fff" stroke="none" points="-4 4 -4 -147 118 -147 118 4 -4 4"/><g id="node1" class="node"><title>Node0</title><g id="a_node1"><a xlink:title="Basic function to run CLComparisonKernel."><polygon fill="#bfbfbf" stroke="#000" points="0 -.5 0 -30.5 114 -30.5 114 -.5 0 -.5"/><text x="8" y="-18.5" font-family="Helvetica,sans-Serif" font-size="10" text-anchor="start">CLComparisonStatic</text><text x="57" y="-7.5" font-family="Helvetica,sans-Serif" font-size="10" text-anchor="middle">&lt; COP &gt;</text></a></g></g><g id="node2" class="node"><title>Node1</title><g id="a_node2"><a target="_top" xlink:href="classarm__compute_1_1_i_c_l_simple_function.xhtml" xlink:title="Basic interface for functions which have a single OpenCL kernel."><polygon fill="#fff" stroke="#000" points="5 -67.5 5 -86.5 109 -86.5 109 -67.5 5 -67.5"/><text x="57" y="-74.5" font-family="Helvetica,sans-Serif" font-size="10" text-anchor="middle">ICLSimpleFunction</text></a></g></g><g id="edge1" class="edge"><title>Node1-&gt;Node0</title><path fill="none" stroke="#191970" d="M57,-57.2349C57,-48.5864 57,-38.4969 57,-30.523"/><polygon fill="#191970" stroke="#191970" points="53.5 -57.475 57 -67.475 60.5 -57.475 53.5 -57.475"/></g><g id="node3" class="node"><title>Node2</title><g id="a_node3"><a target="_top" xlink:href="classarm__compute_1_1_i_function.xhtml" xlink:title="Base class for all functions."><polygon fill="#fff" stroke="#000" points="27.5 -123.5 27.5 -142.5 86.5 -142.5 86.5 -123.5 27.5 -123.5"/><text x="57" y="-130.5" font-family="Helvetica,sans-Serif" font-size="10" text-anchor="middle">IFunction</text></a></g></g><g id="edge2" class="edge"><title>Node2-&gt;Node1</title><path fill="none" stroke="#191970" d="M57,-112.805C57,-103.91 57,-93.7798 57,-86.7511"/><polygon fill="#191970" stroke="#191970" points="53.5 -113.083 57 -123.083 60.5 -113.083 53.5 -113.083"/></g></g></svg>