<svg xmlns="http://www.w3.org/2000/svg" xmlns:xlink="http://www.w3.org/1999/xlink" width="204" height="151pt" viewBox="0 0 153 151"><g id="graph0" class="graph" transform="scale(1 1) rotate(0) translate(4 147)"><title>CLFuseBatchNormalizationKernel</title><polygon fill="#fff" stroke="none" points="-4 4 -4 -147 149 -147 149 4 -4 4"/><g id="node1" class="node"><title>Node0</title><g id="a_node1"><a xlink:title="OpenCL kernel to fuse the batch normalization node to a preceding convolution node."><polygon fill="#bfbfbf" stroke="#000" points="0 -.5 0 -30.5 145 -30.5 145 -.5 0 -.5"/><text x="8" y="-18.5" font-family="Helvetica,sans-Serif" font-size="10" text-anchor="start">CLFuseBatchNormalization</text><text x="72.5" y="-7.5" font-family="Helvetica,sans-Serif" font-size="10" text-anchor="middle">Kernel</text></a></g></g><g id="node2" class="node"><title>Node1</title><g id="a_node2"><a target="_top" xlink:href="classarm__compute_1_1_i_c_l_kernel.xhtml" xlink:title="Common interface for all the OpenCL kernels."><polygon fill="#fff" stroke="#000" points="42.5 -67.5 42.5 -86.5 102.5 -86.5 102.5 -67.5 42.5 -67.5"/><text x="72.5" y="-74.5" font-family="Helvetica,sans-Serif" font-size="10" text-anchor="middle">ICLKernel</text></a></g></g><g id="edge1" class="edge"><title>Node1-&gt;Node0</title><path fill="none" stroke="#191970" d="M72.5,-57.2349C72.5,-48.5864 72.5,-38.4969 72.5,-30.523"/><polygon fill="#191970" stroke="#191970" points="69 -57.475 72.5 -67.475 76 -57.475 69 -57.475"/></g><g id="node3" class="node"><title>Node2</title><g id="a_node3"><a target="_top" xlink:href="classarm__compute_1_1_i_kernel.xhtml" xlink:title="Common information for all the kernels."><polygon fill="#fff" stroke="#000" points="48.5 -123.5 48.5 -142.5 96.5 -142.5 96.5 -123.5 48.5 -123.5"/><text x="72.5" y="-130.5" font-family="Helvetica,sans-Serif" font-size="10" text-anchor="middle">IKernel</text></a></g></g><g id="edge2" class="edge"><title>Node2-&gt;Node1</title><path fill="none" stroke="#191970" d="M72.5,-112.805C72.5,-103.91 72.5,-93.7798 72.5,-86.7511"/><polygon fill="#191970" stroke="#191970" points="69 -113.083 72.5 -123.083 76 -113.083 69 -113.083"/></g></g></svg>