<svg xmlns="http://www.w3.org/2000/svg" xmlns:xlink="http://www.w3.org/1999/xlink" width="216" height="196pt" viewBox="0 0 162 196"><g id="graph0" class="graph" transform="scale(1 1) rotate(0) translate(4 192)"><title>NEGEMMInterleave4x4Kernel</title><polygon fill="#fff" stroke="none" points="-4 4 -4 -192 158 -192 158 4 -4 4"/><g id="node1" class="node"><title>Node0</title><g id="a_node1"><a xlink:title="NEON kernel to interleave the elements of a matrix."><polygon fill="#bfbfbf" stroke="#000" points="0 -.5 0 -19.5 154 -19.5 154 -.5 0 -.5"/><text x="77" y="-7.5" font-family="Helvetica,sans-Serif" font-size="10" text-anchor="middle">NEGEMMInterleave4x4Kernel</text></a></g></g><g id="node2" class="node"><title>Node1</title><g id="a_node2"><a target="_top" xlink:href="classarm__compute_1_1_i_c_p_p_simple_kernel.xhtml" xlink:title="Interface for simple C++ kernels having 1 tensor input and 1 tensor output."><polygon fill="#fff" stroke="#000" points="29.5 -56.5 29.5 -75.5 124.5 -75.5 124.5 -56.5 29.5 -56.5"/><text x="77" y="-63.5" font-family="Helvetica,sans-Serif" font-size="10" text-anchor="middle">INESimpleKernel</text></a></g></g><g id="edge1" class="edge"><title>Node1-&gt;Node0</title><path fill="none" stroke="#191970" d="M77,-45.8045C77,-36.9102 77,-26.7798 77,-19.7511"/><polygon fill="#191970" stroke="#191970" points="73.5 -46.083 77 -56.083 80.5 -46.083 73.5 -46.083"/></g><g id="node3" class="node"><title>Node2</title><g id="a_node3"><a target="_top" xlink:href="classarm__compute_1_1_i_c_p_p_kernel.xhtml" xlink:title="Common interface for all kernels implemented in C++."><polygon fill="#fff" stroke="#000" points="43.5 -112.5 43.5 -131.5 110.5 -131.5 110.5 -112.5 43.5 -112.5"/><text x="77" y="-119.5" font-family="Helvetica,sans-Serif" font-size="10" text-anchor="middle">ICPPKernel</text></a></g></g><g id="edge2" class="edge"><title>Node2-&gt;Node1</title><path fill="none" stroke="#191970" d="M77,-101.805C77,-92.9102 77,-82.7798 77,-75.7511"/><polygon fill="#191970" stroke="#191970" points="73.5 -102.083 77 -112.083 80.5 -102.083 73.5 -102.083"/></g><g id="node4" class="node"><title>Node3</title><g id="a_node4"><a target="_top" xlink:href="classarm__compute_1_1_i_kernel.xhtml" xlink:title="Common information for all the kernels."><polygon fill="#fff" stroke="#000" points="53 -168.5 53 -187.5 101 -187.5 101 -168.5 53 -168.5"/><text x="77" y="-175.5" font-family="Helvetica,sans-Serif" font-size="10" text-anchor="middle">IKernel</text></a></g></g><g id="edge3" class="edge"><title>Node3-&gt;Node2</title><path fill="none" stroke="#191970" d="M77,-157.805C77,-148.91 77,-138.78 77,-131.751"/><polygon fill="#191970" stroke="#191970" points="73.5 -158.083 77 -168.083 80.5 -158.083 73.5 -158.083"/></g></g></svg>