<svg xmlns="http://www.w3.org/2000/svg" xmlns:xlink="http://www.w3.org/1999/xlink" width="137pt" height="336" viewBox="0 0 137 252"><g id="graph0" class="graph" transform="scale(1 1) rotate(0) translate(4 248)"><title>CLNonLinearFilterKernel</title><polygon fill="#fff" stroke="none" points="-4 4 -4 -248 133 -248 133 4 -4 4"/><g id="node1" class="node"><title>Node0</title><g id="a_node1"><a xlink:title="Interface for the kernel to apply a non-linear filter."><polygon fill="#bfbfbf" stroke="#000" points="0 -.5 0 -19.5 129 -19.5 129 -.5 0 -.5"/><text x="64.5" y="-7.5" font-family="Helvetica,sans-Serif" font-size="10" text-anchor="middle">CLNonLinearFilterKernel</text></a></g></g><g id="node2" class="node"><title>Node1</title><g id="a_node2"><a target="_top" xlink:href="classarm__compute_1_1_i_c_l_simple2_d_kernel.xhtml" xlink:title="Interface for simple OpenCL kernels having 1 tensor input and 1 tensor output."><polygon fill="#fff" stroke="#000" points="11 -56.5 11 -75.5 118 -75.5 118 -56.5 11 -56.5"/><text x="64.5" y="-63.5" font-family="Helvetica,sans-Serif" font-size="10" text-anchor="middle">ICLSimple2DKernel</text></a></g></g><g id="edge1" class="edge"><title>Node1-&gt;Node0</title><path fill="none" stroke="#191970" d="M64.5,-45.8045C64.5,-36.9102 64.5,-26.7798 64.5,-19.7511"/><polygon fill="#191970" stroke="#191970" points="61 -46.083 64.5 -56.083 68 -46.083 61 -46.083"/></g><g id="node3" class="node"><title>Node2</title><g id="a_node3"><a target="_top" xlink:href="classarm__compute_1_1_i_c_l_simple_kernel.xhtml" xlink:title="Interface for simple OpenCL kernels having 1 tensor input and 1 tensor output."><polygon fill="#fff" stroke="#000" points="18 -112.5 18 -131.5 111 -131.5 111 -112.5 18 -112.5"/><text x="64.5" y="-119.5" font-family="Helvetica,sans-Serif" font-size="10" text-anchor="middle">ICLSimpleKernel</text></a></g></g><g id="edge2" class="edge"><title>Node2-&gt;Node1</title><path fill="none" stroke="#191970" d="M64.5,-101.805C64.5,-92.9102 64.5,-82.7798 64.5,-75.7511"/><polygon fill="#191970" stroke="#191970" points="61 -102.083 64.5 -112.083 68 -102.083 61 -102.083"/></g><g id="node4" class="node"><title>Node3</title><g id="a_node4"><a target="_top" xlink:href="classarm__compute_1_1_i_c_l_kernel.xhtml" xlink:title="Common interface for all the OpenCL kernels."><polygon fill="#fff" stroke="#000" points="34.5 -168.5 34.5 -187.5 94.5 -187.5 94.5 -168.5 34.5 -168.5"/><text x="64.5" y="-175.5" font-family="Helvetica,sans-Serif" font-size="10" text-anchor="middle">ICLKernel</text></a></g></g><g id="edge3" class="edge"><title>Node3-&gt;Node2</title><path fill="none" stroke="#191970" d="M64.5,-157.805C64.5,-148.91 64.5,-138.78 64.5,-131.751"/><polygon fill="#191970" stroke="#191970" points="61 -158.083 64.5 -168.083 68 -158.083 61 -158.083"/></g><g id="node5" class="node"><title>Node4</title><g id="a_node5"><a target="_top" xlink:href="classarm__compute_1_1_i_kernel.xhtml" xlink:title="Common information for all the kernels."><polygon fill="#fff" stroke="#000" points="40.5 -224.5 40.5 -243.5 88.5 -243.5 88.5 -224.5 40.5 -224.5"/><text x="64.5" y="-231.5" font-family="Helvetica,sans-Serif" font-size="10" text-anchor="middle">IKernel</text></a></g></g><g id="edge4" class="edge"><title>Node4-&gt;Node3</title><path fill="none" stroke="#191970" d="M64.5,-213.805C64.5,-204.91 64.5,-194.78 64.5,-187.751"/><polygon fill="#191970" stroke="#191970" points="61 -214.083 64.5 -224.083 68 -214.083 61 -214.083"/></g></g></svg>