<svg xmlns="http://www.w3.org/2000/svg" xmlns:xlink="http://www.w3.org/1999/xlink" width="161pt" height="263pt" viewBox="0 0 161 263"><g id="graph0" class="graph" transform="scale(1 1) rotate(0) translate(4 259)"><title>CLSeparableConvolutionVertKernel&lt; matrix_size &gt;</title><polygon fill="#fff" stroke="none" points="-4 4 -4 -259 157 -259 157 4 -4 4"/><g id="node1" class="node"><title>Node0</title><g id="a_node1"><a xlink:title="Kernel for the Vertical pass of a Separable Convolution."><polygon fill="#bfbfbf" stroke="#000" points="0 -.5 0 -30.5 153 -30.5 153 -.5 0 -.5"/><text x="8" y="-18.5" font-family="Helvetica,sans-Serif" font-size="10" text-anchor="start">CLSeparableConvolutionVert</text><text x="76.5" y="-7.5" font-family="Helvetica,sans-Serif" font-size="10" text-anchor="middle">Kernel&lt; matrix_size &gt;</text></a></g></g><g id="node2" class="node"><title>Node1</title><g id="a_node2"><a target="_top" xlink:href="classarm__compute_1_1_i_c_l_simple2_d_kernel.xhtml" xlink:title="Interface for simple OpenCL kernels having 1 tensor input and 1 tensor output."><polygon fill="#fff" stroke="#000" points="23 -67.5 23 -86.5 130 -86.5 130 -67.5 23 -67.5"/><text x="76.5" y="-74.5" font-family="Helvetica,sans-Serif" font-size="10" text-anchor="middle">ICLSimple2DKernel</text></a></g></g><g id="edge1" class="edge"><title>Node1-&gt;Node0</title><path fill="none" stroke="#191970" d="M76.5,-57.2349C76.5,-48.5864 76.5,-38.4969 76.5,-30.523"/><polygon fill="#191970" stroke="#191970" points="73 -57.475 76.5 -67.475 80 -57.475 73 -57.475"/></g><g id="node3" class="node"><title>Node2</title><g id="a_node3"><a target="_top" xlink:href="classarm__compute_1_1_i_c_l_simple_kernel.xhtml" xlink:title="Interface for simple OpenCL kernels having 1 tensor input and 1 tensor output."><polygon fill="#fff" stroke="#000" points="30 -123.5 30 -142.5 123 -142.5 123 -123.5 30 -123.5"/><text x="76.5" y="-130.5" font-family="Helvetica,sans-Serif" font-size="10" text-anchor="middle">ICLSimpleKernel</text></a></g></g><g id="edge2" class="edge"><title>Node2-&gt;Node1</title><path fill="none" stroke="#191970" d="M76.5,-112.805C76.5,-103.91 76.5,-93.7798 76.5,-86.7511"/><polygon fill="#191970" stroke="#191970" points="73 -113.083 76.5 -123.083 80 -113.083 73 -113.083"/></g><g id="node4" class="node"><title>Node3</title><g id="a_node4"><a target="_top" xlink:href="classarm__compute_1_1_i_c_l_kernel.xhtml" xlink:title="Common interface for all the OpenCL kernels."><polygon fill="#fff" stroke="#000" points="46.5 -179.5 46.5 -198.5 106.5 -198.5 106.5 -179.5 46.5 -179.5"/><text x="76.5" y="-186.5" font-family="Helvetica,sans-Serif" font-size="10" text-anchor="middle">ICLKernel</text></a></g></g><g id="edge3" class="edge"><title>Node3-&gt;Node2</title><path fill="none" stroke="#191970" d="M76.5,-168.805C76.5,-159.91 76.5,-149.78 76.5,-142.751"/><polygon fill="#191970" stroke="#191970" points="73 -169.083 76.5 -179.083 80 -169.083 73 -169.083"/></g><g id="node5" class="node"><title>Node4</title><g id="a_node5"><a target="_top" xlink:href="classarm__compute_1_1_i_kernel.xhtml" xlink:title="Common information for all the kernels."><polygon fill="#fff" stroke="#000" points="52.5 -235.5 52.5 -254.5 100.5 -254.5 100.5 -235.5 52.5 -235.5"/><text x="76.5" y="-242.5" font-family="Helvetica,sans-Serif" font-size="10" text-anchor="middle">IKernel</text></a></g></g><g id="edge4" class="edge"><title>Node4-&gt;Node3</title><path fill="none" stroke="#191970" d="M76.5,-224.805C76.5,-215.91 76.5,-205.78 76.5,-198.751"/><polygon fill="#191970" stroke="#191970" points="73 -225.083 76.5 -235.083 80 -225.083 73 -225.083"/></g></g></svg>