<svg xmlns="http://www.w3.org/2000/svg" xmlns:xlink="http://www.w3.org/1999/xlink" width="144" height="140pt" viewBox="0 0 108 140"><g id="graph0" class="graph" transform="scale(1 1) rotate(0) translate(4 136)"><title>ICPPSimpleKernel</title><polygon fill="#fff" stroke="none" points="-4 4 -4 -136 104 -136 104 4 -4 4"/><g id="node1" class="node"><title>Node0</title><g id="a_node1"><a xlink:title="Interface for simple C++ kernels having 1 tensor input and 1 tensor output."><polygon fill="#bfbfbf" stroke="#000" points="0 -.5 0 -19.5 100 -19.5 100 -.5 0 -.5"/><text x="50" y="-7.5" font-family="Helvetica,sans-Serif" font-size="10" text-anchor="middle">ICPPSimpleKernel</text></a></g></g><g id="node2" class="node"><title>Node1</title><g id="a_node2"><a target="_top" xlink:href="classarm__compute_1_1_i_c_p_p_kernel.xhtml" xlink:title="Common interface for all kernels implemented in C++."><polygon fill="#fff" stroke="#000" points="16.5 -56.5 16.5 -75.5 83.5 -75.5 83.5 -56.5 16.5 -56.5"/><text x="50" y="-63.5" font-family="Helvetica,sans-Serif" font-size="10" text-anchor="middle">ICPPKernel</text></a></g></g><g id="edge1" class="edge"><title>Node1-&gt;Node0</title><path fill="none" stroke="#191970" d="M50,-45.8045C50,-36.9102 50,-26.7798 50,-19.7511"/><polygon fill="#191970" stroke="#191970" points="46.5 -46.083 50 -56.083 53.5 -46.083 46.5 -46.083"/></g><g id="node3" class="node"><title>Node2</title><g id="a_node3"><a target="_top" xlink:href="classarm__compute_1_1_i_kernel.xhtml" xlink:title="Common information for all the kernels."><polygon fill="#fff" stroke="#000" points="26 -112.5 26 -131.5 74 -131.5 74 -112.5 26 -112.5"/><text x="50" y="-119.5" font-family="Helvetica,sans-Serif" font-size="10" text-anchor="middle">IKernel</text></a></g></g><g id="edge2" class="edge"><title>Node2-&gt;Node1</title><path fill="none" stroke="#191970" d="M50,-101.805C50,-92.9102 50,-82.7798 50,-75.7511"/><polygon fill="#191970" stroke="#191970" points="46.5 -102.083 50 -112.083 53.5 -102.083 46.5 -102.083"/></g></g></svg>