<svg xmlns="http://www.w3.org/2000/svg" xmlns:xlink="http://www.w3.org/1999/xlink" width="169pt" height="151pt" viewBox="0 0 169 151"><g id="graph0" class="graph" transform="scale(1 1) rotate(0) translate(4 147)"><title>CLDepthwiseConvolutionLayerReshapeWeightsGenericKernel</title><polygon fill="#fff" stroke="none" points="-4 4 -4 -147 165 -147 165 4 -4 4"/><g id="node1" class="node"><title>Node0</title><g id="a_node1"><a xlink:title="Interface for the depthwise weights reshape kernel."><polygon fill="#bfbfbf" stroke="#000" points="0 -.5 0 -30.5 161 -30.5 161 -.5 0 -.5"/><text x="8" y="-18.5" font-family="Helvetica,sans-Serif" font-size="10" text-anchor="start">CLDepthwiseConvolutionLayer</text><text x="80.5" y="-7.5" font-family="Helvetica,sans-Serif" font-size="10" text-anchor="middle">ReshapeWeightsGenericKernel</text></a></g></g><g id="node2" class="node"><title>Node1</title><g id="a_node2"><a target="_top" xlink:href="classarm__compute_1_1_i_c_l_kernel.xhtml" xlink:title="Common interface for all the OpenCL kernels."><polygon fill="#fff" stroke="#000" points="50.5 -67.5 50.5 -86.5 110.5 -86.5 110.5 -67.5 50.5 -67.5"/><text x="80.5" y="-74.5" font-family="Helvetica,sans-Serif" font-size="10" text-anchor="middle">ICLKernel</text></a></g></g><g id="edge1" class="edge"><title>Node1-&gt;Node0</title><path fill="none" stroke="#191970" d="M80.5,-57.2349C80.5,-48.5864 80.5,-38.4969 80.5,-30.523"/><polygon fill="#191970" stroke="#191970" points="77 -57.475 80.5 -67.475 84 -57.475 77 -57.475"/></g><g id="node3" class="node"><title>Node2</title><g id="a_node3"><a target="_top" xlink:href="classarm__compute_1_1_i_kernel.xhtml" xlink:title="Common information for all the kernels."><polygon fill="#fff" stroke="#000" points="56.5 -123.5 56.5 -142.5 104.5 -142.5 104.5 -123.5 56.5 -123.5"/><text x="80.5" y="-130.5" font-family="Helvetica,sans-Serif" font-size="10" text-anchor="middle">IKernel</text></a></g></g><g id="edge2" class="edge"><title>Node2-&gt;Node1</title><path fill="none" stroke="#191970" d="M80.5,-112.805C80.5,-103.91 80.5,-93.7798 80.5,-86.7511"/><polygon fill="#191970" stroke="#191970" points="77 -113.083 80.5 -123.083 84 -113.083 77 -113.083"/></g></g></svg>