<svg xmlns="http://www.w3.org/2000/svg" xmlns:xlink="http://www.w3.org/1999/xlink" width="178pt" height="151pt" viewBox="0 0 178 151"><g id="graph0" class="graph" transform="scale(1 1) rotate(0) translate(4 147)"><title>CLGEMMMatrixMultiplyReshapedKernel</title><polygon fill="#fff" stroke="none" points="-4 4 -4 -147 174 -147 174 4 -4 4"/><g id="node1" class="node"><title>Node0</title><g id="a_node1"><a xlink:title="OpenCL kernel to multiply matrices when both the input matrices LHS (input0) and RHS (input1) have be..."><polygon fill="#bfbfbf" stroke="#000" points="0 -.5 0 -30.5 170 -30.5 170 -.5 0 -.5"/><text x="8" y="-18.5" font-family="Helvetica,sans-Serif" font-size="10" text-anchor="start">CLGEMMMatrixMultiplyReshaped</text><text x="85" y="-7.5" font-family="Helvetica,sans-Serif" font-size="10" text-anchor="middle">Kernel</text></a></g></g><g id="node2" class="node"><title>Node1</title><g id="a_node2"><a target="_top" xlink:href="classarm__compute_1_1_i_c_l_kernel.xhtml" xlink:title="Common interface for all the OpenCL kernels."><polygon fill="#fff" stroke="#000" points="55 -67.5 55 -86.5 115 -86.5 115 -67.5 55 -67.5"/><text x="85" y="-74.5" font-family="Helvetica,sans-Serif" font-size="10" text-anchor="middle">ICLKernel</text></a></g></g><g id="edge1" class="edge"><title>Node1-&gt;Node0</title><path fill="none" stroke="#191970" d="M85,-57.2349C85,-48.5864 85,-38.4969 85,-30.523"/><polygon fill="#191970" stroke="#191970" points="81.5 -57.475 85 -67.475 88.5 -57.475 81.5 -57.475"/></g><g id="node3" class="node"><title>Node2</title><g id="a_node3"><a target="_top" xlink:href="classarm__compute_1_1_i_kernel.xhtml" xlink:title="Common information for all the kernels."><polygon fill="#fff" stroke="#000" points="61 -123.5 61 -142.5 109 -142.5 109 -123.5 61 -123.5"/><text x="85" y="-130.5" font-family="Helvetica,sans-Serif" font-size="10" text-anchor="middle">IKernel</text></a></g></g><g id="edge2" class="edge"><title>Node2-&gt;Node1</title><path fill="none" stroke="#191970" d="M85,-112.805C85,-103.91 85,-93.7798 85,-86.7511"/><polygon fill="#191970" stroke="#191970" points="81.5 -113.083 85 -123.083 88.5 -113.083 81.5 -113.083"/></g></g></svg>