<svg xmlns="http://www.w3.org/2000/svg" xmlns:xlink="http://www.w3.org/1999/xlink" width="188pt" height="151pt" viewBox="0 0 188 151"><g id="graph0" class="graph" transform="scale(1 1) rotate(0) translate(4 147)"><title>ICLDepthwiseConvolutionLayer3x3Kernel</title><polygon fill="#fff" stroke="none" points="-4 4 -4 -147 184 -147 184 4 -4 4"/><g id="node1" class="node"><title>Node0</title><g id="a_node1"><a xlink:title="Interface for the kernel to run a 3x3 depthwise convolution on a tensor."><polygon fill="#bfbfbf" stroke="#000" points="0 -.5 0 -30.5 180 -30.5 180 -.5 0 -.5"/><text x="8" y="-18.5" font-family="Helvetica,sans-Serif" font-size="10" text-anchor="start">ICLDepthwiseConvolutionLayer3x3</text><text x="90" y="-7.5" font-family="Helvetica,sans-Serif" font-size="10" text-anchor="middle">Kernel</text></a></g></g><g id="node2" class="node"><title>Node1</title><g id="a_node2"><a target="_top" xlink:href="classarm__compute_1_1_i_c_l_kernel.xhtml" xlink:title="Common interface for all the OpenCL kernels."><polygon fill="#fff" stroke="#000" points="60 -67.5 60 -86.5 120 -86.5 120 -67.5 60 -67.5"/><text x="90" y="-74.5" font-family="Helvetica,sans-Serif" font-size="10" text-anchor="middle">ICLKernel</text></a></g></g><g id="edge1" class="edge"><title>Node1-&gt;Node0</title><path fill="none" stroke="#191970" d="M90,-57.2349C90,-48.5864 90,-38.4969 90,-30.523"/><polygon fill="#191970" stroke="#191970" points="86.5 -57.475 90 -67.475 93.5 -57.475 86.5 -57.475"/></g><g id="node3" class="node"><title>Node2</title><g id="a_node3"><a target="_top" xlink:href="classarm__compute_1_1_i_kernel.xhtml" xlink:title="Common information for all the kernels."><polygon fill="#fff" stroke="#000" points="66 -123.5 66 -142.5 114 -142.5 114 -123.5 66 -123.5"/><text x="90" y="-130.5" font-family="Helvetica,sans-Serif" font-size="10" text-anchor="middle">IKernel</text></a></g></g><g id="edge2" class="edge"><title>Node2-&gt;Node1</title><path fill="none" stroke="#191970" d="M90,-112.805C90,-103.91 90,-93.7798 90,-86.7511"/><polygon fill="#191970" stroke="#191970" points="86.5 -113.083 90 -123.083 93.5 -113.083 86.5 -113.083"/></g></g></svg>