<svg xmlns="http://www.w3.org/2000/svg" xmlns:xlink="http://www.w3.org/1999/xlink" width="95pt" height="140pt" viewBox="0 0 95 140"><g id="graph0" class="graph" transform="scale(1 1) rotate(0) translate(4 136)"><title>Distribution1D</title><polygon fill="#fff" stroke="none" points="-4 4 -4 -136 91 -136 91 4 -4 4"/><g id="node1" class="node"><title>Node0</title><g id="a_node1"><a xlink:title="Basic implementation of the 1D distribution interface."><polygon fill="#bfbfbf" stroke="#000" points="1 -.5 1 -19.5 86 -19.5 86 -.5 1 -.5"/><text x="43.5" y="-7.5" font-family="Helvetica,sans-Serif" font-size="10" text-anchor="middle">Distribution1D</text></a></g></g><g id="node2" class="node"><title>Node1</title><g id="a_node2"><a target="_top" xlink:href="classarm__compute_1_1_i_distribution1_d.xhtml" xlink:title="1D Distribution interface"><polygon fill="#fff" stroke="#000" points="0 -56.5 0 -75.5 87 -75.5 87 -56.5 0 -56.5"/><text x="43.5" y="-63.5" font-family="Helvetica,sans-Serif" font-size="10" text-anchor="middle">IDistribution1D</text></a></g></g><g id="edge1" class="edge"><title>Node1-&gt;Node0</title><path fill="none" stroke="#191970" d="M43.5,-45.8045C43.5,-36.9102 43.5,-26.7798 43.5,-19.7511"/><polygon fill="#191970" stroke="#191970" points="40 -46.083 43.5 -56.083 47 -46.083 40 -46.083"/></g><g id="node3" class="node"><title>Node2</title><g id="a_node3"><a target="_top" xlink:href="classarm__compute_1_1_i_distribution.xhtml" xlink:title="Interface for distribution objects."><polygon fill="#fff" stroke="#000" points="6.5 -112.5 6.5 -131.5 80.5 -131.5 80.5 -112.5 6.5 -112.5"/><text x="43.5" y="-119.5" font-family="Helvetica,sans-Serif" font-size="10" text-anchor="middle">IDistribution</text></a></g></g><g id="edge2" class="edge"><title>Node2-&gt;Node1</title><path fill="none" stroke="#191970" d="M43.5,-101.805C43.5,-92.9102 43.5,-82.7798 43.5,-75.7511"/><polygon fill="#191970" stroke="#191970" points="40 -102.083 43.5 -112.083 47 -102.083 40 -102.083"/></g></g></svg>