<svg xmlns="http://www.w3.org/2000/svg" xmlns:xlink="http://www.w3.org/1999/xlink" width="154pt" height="209pt" viewBox="0 0 153.5 209"><g id="graph0" class="graph" transform="scale(1 1) rotate(0) translate(4 205)"><title>TensorInfo</title><polygon fill="#fff" stroke="none" points="-4 4 -4 -205 149.5 -205 149.5 4 -4 4"/><g id="node1" class="node"><title>Node0</title><g id="a_node1"><a xlink:title="Store the tensor's metadata."><polygon fill="#bfbfbf" stroke="#000" points="37 -.5 37 -19.5 102 -19.5 102 -.5 37 -.5"/><text x="69.5" y="-7.5" font-family="Helvetica,sans-Serif" font-size="10" text-anchor="middle">TensorInfo</text></a></g></g><g id="node2" class="node"><title>Node1</title><g id="a_node2"><a target="_top" xlink:href="classarm__compute_1_1_i_tensor_info.xhtml" xlink:title="Store the tensor's metadata."><polygon fill="#fff" stroke="#000" points="36 -57.5 36 -76.5 103 -76.5 103 -57.5 36 -57.5"/><text x="69.5" y="-64.5" font-family="Helvetica,sans-Serif" font-size="10" text-anchor="middle">ITensorInfo</text></a></g></g><g id="edge1" class="edge"><title>Node1-&gt;Node0</title><path fill="none" stroke="#191970" d="M69.5,-47.1166C69.5,-37.8173 69.5,-27.0557 69.5,-19.7149"/><polygon fill="#191970" stroke="#191970" points="66 -47.406 69.5 -57.406 73 -47.406 66 -47.406"/></g><g id="node3" class="node"><title>Node2</title><g id="a_node3"><a target="_top" xlink:href="classarm__compute_1_1misc_1_1_i_cloneable.xhtml"><polygon fill="#fff" stroke="#000" points="0 -114.5 0 -133.5 139 -133.5 139 -114.5 0 -114.5"/><text x="69.5" y="-121.5" font-family="Helvetica,sans-Serif" font-size="10" text-anchor="middle">ICloneable&lt; ITensorInfo &gt;</text></a></g></g><g id="edge2" class="edge"><title>Node2-&gt;Node1</title><path fill="none" stroke="#191970" d="M69.5,-104.117C69.5,-94.8173 69.5,-84.0557 69.5,-76.7149"/><polygon fill="#191970" stroke="#191970" points="66 -104.406 69.5 -114.406 73 -104.406 66 -104.406"/></g><g id="node4" class="node"><title>Node3</title><g id="a_node4"><a target="_top" xlink:href="classarm__compute_1_1misc_1_1_i_cloneable.xhtml" xlink:title="Clonable Interface."><polygon fill="#fff" stroke="#000" points="22.5 -181.5 22.5 -200.5 116.5 -200.5 116.5 -181.5 22.5 -181.5"/><text x="69.5" y="-188.5" font-family="Helvetica,sans-Serif" font-size="10" text-anchor="middle">ICloneable&lt; T &gt;</text></a></g></g><g id="edge3" class="edge"><title>Node3-&gt;Node2</title><path fill="none" stroke="orange" stroke-dasharray="5 2" d="M69.5,-171.037C69.5,-158.67 69.5,-143.12 69.5,-133.627"/><polygon fill="orange" stroke="orange" points="66 -171.234 69.5 -181.234 73 -171.234 66 -171.234"/><text x="107.5" y="-155" font-family="Helvetica,sans-Serif" font-size="10" text-anchor="middle">&lt; ITensorInfo &gt;</text></g></g></svg>