<svg xmlns="http://www.w3.org/2000/svg" xmlns:xlink="http://www.w3.org/1999/xlink" width="120" height="140pt" viewBox="0 0 90 140"><g id="graph0" class="graph" transform="scale(1 1) rotate(0) translate(4 136)"><title>NECropKernel</title><polygon fill="#fff" stroke="none" points="-4 4 -4 -136 86 -136 86 4 -4 4"/><g id="node1" class="node"><title>Node0</title><g id="a_node1"><a xlink:title="Interface for the kernel to perform tensor cropping."><polygon fill="#bfbfbf" stroke="#000" points="0 -.5 0 -19.5 82 -19.5 82 -.5 0 -.5"/><text x="41" y="-7.5" font-family="Helvetica,sans-Serif" font-size="10" text-anchor="middle">NECropKernel</text></a></g></g><g id="node2" class="node"><title>Node1</title><g id="a_node2"><a target="_top" xlink:href="classarm__compute_1_1_i_c_p_p_kernel.xhtml" xlink:title="Common interface for all kernels implemented in C++."><polygon fill="#fff" stroke="#000" points="10 -56.5 10 -75.5 72 -75.5 72 -56.5 10 -56.5"/><text x="41" y="-63.5" font-family="Helvetica,sans-Serif" font-size="10" text-anchor="middle">INEKernel</text></a></g></g><g id="edge1" class="edge"><title>Node1-&gt;Node0</title><path fill="none" stroke="#191970" d="M41,-45.8045C41,-36.9102 41,-26.7798 41,-19.7511"/><polygon fill="#191970" stroke="#191970" points="37.5 -46.083 41 -56.083 44.5 -46.083 37.5 -46.083"/></g><g id="node3" class="node"><title>Node2</title><g id="a_node3"><a target="_top" xlink:href="classarm__compute_1_1_i_kernel.xhtml" xlink:title="Common information for all the kernels."><polygon fill="#fff" stroke="#000" points="17 -112.5 17 -131.5 65 -131.5 65 -112.5 17 -112.5"/><text x="41" y="-119.5" font-family="Helvetica,sans-Serif" font-size="10" text-anchor="middle">IKernel</text></a></g></g><g id="edge2" class="edge"><title>Node2-&gt;Node1</title><path fill="none" stroke="#191970" d="M41,-101.805C41,-92.9102 41,-82.7798 41,-75.7511"/><polygon fill="#191970" stroke="#191970" points="37.5 -102.083 41 -112.083 44.5 -102.083 37.5 -102.083"/></g></g></svg>