<svg xmlns="http://www.w3.org/2000/svg" xmlns:xlink="http://www.w3.org/1999/xlink" width="173pt" height="276" viewBox="0 0 173 207"><g id="graph0" class="graph" transform="scale(1 1) rotate(0) translate(4 203)"><title>CLGEMMLowpMatrixBReductionKernel</title><polygon fill="#fff" stroke="none" points="-4 4 -4 -203 169 -203 169 4 -4 4"/><g id="node1" class="node"><title>Node0</title><g id="a_node1"><a xlink:title="OpenCL kernel used to compute the row-vectors of sums of all the entries in each column of Matrix B."><polygon fill="#bfbfbf" stroke="#000" points="0 -.5 0 -30.5 165 -30.5 165 -.5 0 -.5"/><text x="8" y="-18.5" font-family="Helvetica,sans-Serif" font-size="10" text-anchor="start">CLGEMMLowpMatrixBReduction</text><text x="82.5" y="-7.5" font-family="Helvetica,sans-Serif" font-size="10" text-anchor="middle">Kernel</text></a></g></g><g id="node2" class="node"><title>Node1</title><g id="a_node2"><a target="_top" xlink:href="classarm__compute_1_1_i_c_l_g_e_m_m_lowp_reduction_kernel.xhtml" xlink:title="Common interface for all OpenCL reduction kernels."><polygon fill="#fff" stroke="#000" points="2 -67.5 2 -86.5 163 -86.5 163 -67.5 2 -67.5"/><text x="82.5" y="-74.5" font-family="Helvetica,sans-Serif" font-size="10" text-anchor="middle">ICLGEMMLowpReductionKernel</text></a></g></g><g id="edge1" class="edge"><title>Node1-&gt;Node0</title><path fill="none" stroke="#191970" d="M82.5,-57.2349C82.5,-48.5864 82.5,-38.4969 82.5,-30.523"/><polygon fill="#191970" stroke="#191970" points="79 -57.475 82.5 -67.475 86 -57.475 79 -57.475"/></g><g id="node3" class="node"><title>Node2</title><g id="a_node3"><a target="_top" xlink:href="classarm__compute_1_1_i_c_l_kernel.xhtml" xlink:title="Common interface for all the OpenCL kernels."><polygon fill="#fff" stroke="#000" points="52.5 -123.5 52.5 -142.5 112.5 -142.5 112.5 -123.5 52.5 -123.5"/><text x="82.5" y="-130.5" font-family="Helvetica,sans-Serif" font-size="10" text-anchor="middle">ICLKernel</text></a></g></g><g id="edge2" class="edge"><title>Node2-&gt;Node1</title><path fill="none" stroke="#191970" d="M82.5,-112.805C82.5,-103.91 82.5,-93.7798 82.5,-86.7511"/><polygon fill="#191970" stroke="#191970" points="79 -113.083 82.5 -123.083 86 -113.083 79 -113.083"/></g><g id="node4" class="node"><title>Node3</title><g id="a_node4"><a target="_top" xlink:href="classarm__compute_1_1_i_kernel.xhtml" xlink:title="Common information for all the kernels."><polygon fill="#fff" stroke="#000" points="58.5 -179.5 58.5 -198.5 106.5 -198.5 106.5 -179.5 58.5 -179.5"/><text x="82.5" y="-186.5" font-family="Helvetica,sans-Serif" font-size="10" text-anchor="middle">IKernel</text></a></g></g><g id="edge3" class="edge"><title>Node3-&gt;Node2</title><path fill="none" stroke="#191970" d="M82.5,-168.805C82.5,-159.91 82.5,-149.78 82.5,-142.751"/><polygon fill="#191970" stroke="#191970" points="79 -169.083 82.5 -179.083 86 -169.083 79 -169.083"/></g></g></svg>