<svg xmlns="http://www.w3.org/2000/svg" xmlns:xlink="http://www.w3.org/1999/xlink" width="145pt" height="140pt" viewBox="0 0 145 140"><g id="graph0" class="graph" transform="scale(1 1) rotate(0) translate(4 136)"><title>CLLKTrackerStage0Kernel</title><polygon fill="#fff" stroke="none" points="-4 4 -4 -136 141 -136 141 4 -4 4"/><g id="node1" class="node"><title>Node0</title><g id="a_node1"><a xlink:title="Interface to run the first stage of LKTracker, where A11, A12, A22, min_eig, ival,..."><polygon fill="#bfbfbf" stroke="#000" points="0 -.5 0 -19.5 137 -19.5 137 -.5 0 -.5"/><text x="68.5" y="-7.5" font-family="Helvetica,sans-Serif" font-size="10" text-anchor="middle">CLLKTrackerStage0Kernel</text></a></g></g><g id="node2" class="node"><title>Node1</title><g id="a_node2"><a target="_top" xlink:href="classarm__compute_1_1_i_c_l_kernel.xhtml" xlink:title="Common interface for all the OpenCL kernels."><polygon fill="#fff" stroke="#000" points="38.5 -56.5 38.5 -75.5 98.5 -75.5 98.5 -56.5 38.5 -56.5"/><text x="68.5" y="-63.5" font-family="Helvetica,sans-Serif" font-size="10" text-anchor="middle">ICLKernel</text></a></g></g><g id="edge1" class="edge"><title>Node1-&gt;Node0</title><path fill="none" stroke="#191970" d="M68.5,-45.8045C68.5,-36.9102 68.5,-26.7798 68.5,-19.7511"/><polygon fill="#191970" stroke="#191970" points="65 -46.083 68.5 -56.083 72 -46.083 65 -46.083"/></g><g id="node3" class="node"><title>Node2</title><g id="a_node3"><a target="_top" xlink:href="classarm__compute_1_1_i_kernel.xhtml" xlink:title="Common information for all the kernels."><polygon fill="#fff" stroke="#000" points="44.5 -112.5 44.5 -131.5 92.5 -131.5 92.5 -112.5 44.5 -112.5"/><text x="68.5" y="-119.5" font-family="Helvetica,sans-Serif" font-size="10" text-anchor="middle">IKernel</text></a></g></g><g id="edge2" class="edge"><title>Node2-&gt;Node1</title><path fill="none" stroke="#191970" d="M68.5,-101.805C68.5,-92.9102 68.5,-82.7798 68.5,-75.7511"/><polygon fill="#191970" stroke="#191970" points="65 -102.083 68.5 -112.083 72 -102.083 65 -102.083"/></g></g></svg>