<svg xmlns="http://www.w3.org/2000/svg" xmlns:xlink="http://www.w3.org/1999/xlink" width="158pt" height="140pt" viewBox="0 0 158 140"><g id="graph0" class="graph" transform="scale(1 1) rotate(0) translate(4 136)"><title>NEAbsoluteDifferenceKernel</title><polygon fill="#fff" stroke="none" points="-4 4 -4 -136 154 -136 154 4 -4 4"/><g id="node1" class="node"><title>Node0</title><g id="a_node1"><a xlink:title="Interface for the absolute difference kernel."><polygon fill="#bfbfbf" stroke="#000" points="0 -.5 0 -19.5 150 -19.5 150 -.5 0 -.5"/><text x="75" y="-7.5" font-family="Helvetica,sans-Serif" font-size="10" text-anchor="middle">NEAbsoluteDifferenceKernel</text></a></g></g><g id="node2" class="node"><title>Node1</title><g id="a_node2"><a target="_top" xlink:href="classarm__compute_1_1_i_c_p_p_kernel.xhtml" xlink:title="Common interface for all kernels implemented in C++."><polygon fill="#fff" stroke="#000" points="44 -56.5 44 -75.5 106 -75.5 106 -56.5 44 -56.5"/><text x="75" y="-63.5" font-family="Helvetica,sans-Serif" font-size="10" text-anchor="middle">INEKernel</text></a></g></g><g id="edge1" class="edge"><title>Node1-&gt;Node0</title><path fill="none" stroke="#191970" d="M75,-45.8045C75,-36.9102 75,-26.7798 75,-19.7511"/><polygon fill="#191970" stroke="#191970" points="71.5 -46.083 75 -56.083 78.5 -46.083 71.5 -46.083"/></g><g id="node3" class="node"><title>Node2</title><g id="a_node3"><a target="_top" xlink:href="classarm__compute_1_1_i_kernel.xhtml" xlink:title="Common information for all the kernels."><polygon fill="#fff" stroke="#000" points="51 -112.5 51 -131.5 99 -131.5 99 -112.5 51 -112.5"/><text x="75" y="-119.5" font-family="Helvetica,sans-Serif" font-size="10" text-anchor="middle">IKernel</text></a></g></g><g id="edge2" class="edge"><title>Node2-&gt;Node1</title><path fill="none" stroke="#191970" d="M75,-101.805C75,-92.9102 75,-82.7798 75,-75.7511"/><polygon fill="#191970" stroke="#191970" points="71.5 -102.083 75 -112.083 78.5 -102.083 71.5 -102.083"/></g></g></svg>