<svg xmlns="http://www.w3.org/2000/svg" xmlns:xlink="http://www.w3.org/1999/xlink" width="176pt" height="140pt" viewBox="0 0 176 140"><g id="graph0" class="graph" transform="scale(1 1) rotate(0) translate(4 136)"><title>CLBoundingBoxTransformKernel</title><polygon fill="#fff" stroke="none" points="-4 4 -4 -136 172 -136 172 4 -4 4"/><g id="node1" class="node"><title>Node0</title><g id="a_node1"><a xlink:title="Interface for the bounding box kernel."><polygon fill="#bfbfbf" stroke="#000" points="0 -.5 0 -19.5 168 -19.5 168 -.5 0 -.5"/><text x="84" y="-7.5" font-family="Helvetica,sans-Serif" font-size="10" text-anchor="middle">CLBoundingBoxTransformKernel</text></a></g></g><g id="node2" class="node"><title>Node1</title><g id="a_node2"><a target="_top" xlink:href="classarm__compute_1_1_i_c_l_kernel.xhtml" xlink:title="Common interface for all the OpenCL kernels."><polygon fill="#fff" stroke="#000" points="54 -56.5 54 -75.5 114 -75.5 114 -56.5 54 -56.5"/><text x="84" y="-63.5" font-family="Helvetica,sans-Serif" font-size="10" text-anchor="middle">ICLKernel</text></a></g></g><g id="edge1" class="edge"><title>Node1-&gt;Node0</title><path fill="none" stroke="#191970" d="M84,-45.8045C84,-36.9102 84,-26.7798 84,-19.7511"/><polygon fill="#191970" stroke="#191970" points="80.5 -46.083 84 -56.083 87.5 -46.083 80.5 -46.083"/></g><g id="node3" class="node"><title>Node2</title><g id="a_node3"><a target="_top" xlink:href="classarm__compute_1_1_i_kernel.xhtml" xlink:title="Common information for all the kernels."><polygon fill="#fff" stroke="#000" points="60 -112.5 60 -131.5 108 -131.5 108 -112.5 60 -112.5"/><text x="84" y="-119.5" font-family="Helvetica,sans-Serif" font-size="10" text-anchor="middle">IKernel</text></a></g></g><g id="edge2" class="edge"><title>Node2-&gt;Node1</title><path fill="none" stroke="#191970" d="M84,-101.805C84,-92.9102 84,-82.7798 84,-75.7511"/><polygon fill="#191970" stroke="#191970" points="80.5 -102.083 84 -112.083 87.5 -102.083 80.5 -102.083"/></g></g></svg>