<svg xmlns="http://www.w3.org/2000/svg" xmlns:xlink="http://www.w3.org/1999/xlink" width="240" height="151pt" viewBox="0 0 180 151"><g id="graph0" class="graph" transform="scale(1 1) rotate(0) translate(4 147)"><title>CLDeconvolutionLayerUpsampleKernel</title><polygon fill="#fff" stroke="none" points="-4 4 -4 -147 176 -147 176 4 -4 4"/><g id="node1" class="node"><title>Node0</title><g id="a_node1"><a xlink:title="Interface for the Deconvolution layer kernel on OpenCL."><polygon fill="#bfbfbf" stroke="#000" points="0 -.5 0 -30.5 172 -30.5 172 -.5 0 -.5"/><text x="8" y="-18.5" font-family="Helvetica,sans-Serif" font-size="10" text-anchor="start">CLDeconvolutionLayerUpsample</text><text x="86" y="-7.5" font-family="Helvetica,sans-Serif" font-size="10" text-anchor="middle">Kernel</text></a></g></g><g id="node2" class="node"><title>Node1</title><g id="a_node2"><a target="_top" xlink:href="classarm__compute_1_1_i_c_l_kernel.xhtml" xlink:title="Common interface for all the OpenCL kernels."><polygon fill="#fff" stroke="#000" points="56 -67.5 56 -86.5 116 -86.5 116 -67.5 56 -67.5"/><text x="86" y="-74.5" font-family="Helvetica,sans-Serif" font-size="10" text-anchor="middle">ICLKernel</text></a></g></g><g id="edge1" class="edge"><title>Node1-&gt;Node0</title><path fill="none" stroke="#191970" d="M86,-57.2349C86,-48.5864 86,-38.4969 86,-30.523"/><polygon fill="#191970" stroke="#191970" points="82.5 -57.475 86 -67.475 89.5 -57.475 82.5 -57.475"/></g><g id="node3" class="node"><title>Node2</title><g id="a_node3"><a target="_top" xlink:href="classarm__compute_1_1_i_kernel.xhtml" xlink:title="Common information for all the kernels."><polygon fill="#fff" stroke="#000" points="62 -123.5 62 -142.5 110 -142.5 110 -123.5 62 -123.5"/><text x="86" y="-130.5" font-family="Helvetica,sans-Serif" font-size="10" text-anchor="middle">IKernel</text></a></g></g><g id="edge2" class="edge"><title>Node2-&gt;Node1</title><path fill="none" stroke="#191970" d="M86,-112.805C86,-103.91 86,-93.7798 86,-86.7511"/><polygon fill="#191970" stroke="#191970" points="82.5 -113.083 86 -123.083 89.5 -113.083 82.5 -113.083"/></g></g></svg>