<svg xmlns="http://www.w3.org/2000/svg" xmlns:xlink="http://www.w3.org/1999/xlink" width="122pt" height="140pt" viewBox="0 0 122 140"><g id="graph0" class="graph" transform="scale(1 1) rotate(0) translate(4 136)"><title>CLHarrisScoreKernel</title><polygon fill="#fff" stroke="none" points="-4 4 -4 -136 118 -136 118 4 -4 4"/><g id="node1" class="node"><title>Node0</title><g id="a_node1"><a xlink:title="Interface for the harris score kernel."><polygon fill="#bfbfbf" stroke="#000" points="0 -.5 0 -19.5 114 -19.5 114 -.5 0 -.5"/><text x="57" y="-7.5" font-family="Helvetica,sans-Serif" font-size="10" text-anchor="middle">CLHarrisScoreKernel</text></a></g></g><g id="node2" class="node"><title>Node1</title><g id="a_node2"><a target="_top" xlink:href="classarm__compute_1_1_i_c_l_kernel.xhtml" xlink:title="Common interface for all the OpenCL kernels."><polygon fill="#fff" stroke="#000" points="27 -56.5 27 -75.5 87 -75.5 87 -56.5 27 -56.5"/><text x="57" y="-63.5" font-family="Helvetica,sans-Serif" font-size="10" text-anchor="middle">ICLKernel</text></a></g></g><g id="edge1" class="edge"><title>Node1-&gt;Node0</title><path fill="none" stroke="#191970" d="M57,-45.8045C57,-36.9102 57,-26.7798 57,-19.7511"/><polygon fill="#191970" stroke="#191970" points="53.5 -46.083 57 -56.083 60.5 -46.083 53.5 -46.083"/></g><g id="node3" class="node"><title>Node2</title><g id="a_node3"><a target="_top" xlink:href="classarm__compute_1_1_i_kernel.xhtml" xlink:title="Common information for all the kernels."><polygon fill="#fff" stroke="#000" points="33 -112.5 33 -131.5 81 -131.5 81 -112.5 33 -112.5"/><text x="57" y="-119.5" font-family="Helvetica,sans-Serif" font-size="10" text-anchor="middle">IKernel</text></a></g></g><g id="edge2" class="edge"><title>Node2-&gt;Node1</title><path fill="none" stroke="#191970" d="M57,-101.805C57,-92.9102 57,-82.7798 57,-75.7511"/><polygon fill="#191970" stroke="#191970" points="53.5 -102.083 57 -112.083 60.5 -102.083 53.5 -102.083"/></g></g></svg>