<svg xmlns="http://www.w3.org/2000/svg" xmlns:xlink="http://www.w3.org/1999/xlink" width="170pt" height="263pt" viewBox="0 0 170 263"><g id="graph0" class="graph" transform="scale(1 1) rotate(0) translate(4 259)"><title>CLNonMaximaSuppression3x3Kernel</title><polygon fill="#fff" stroke="none" points="-4 4 -4 -259 166 -259 166 4 -4 4"/><g id="node1" class="node"><title>Node0</title><g id="a_node1"><a xlink:title="Interface to perform Non-Maxima suppression over a 3x3 window using OpenCL."><polygon fill="#bfbfbf" stroke="#000" points="0 -.5 0 -30.5 162 -30.5 162 -.5 0 -.5"/><text x="8" y="-18.5" font-family="Helvetica,sans-Serif" font-size="10" text-anchor="start">CLNonMaximaSuppression3x3</text><text x="81" y="-7.5" font-family="Helvetica,sans-Serif" font-size="10" text-anchor="middle">Kernel</text></a></g></g><g id="node2" class="node"><title>Node1</title><g id="a_node2"><a target="_top" xlink:href="classarm__compute_1_1_i_c_l_simple2_d_kernel.xhtml" xlink:title="Interface for simple OpenCL kernels having 1 tensor input and 1 tensor output."><polygon fill="#fff" stroke="#000" points="27.5 -67.5 27.5 -86.5 134.5 -86.5 134.5 -67.5 27.5 -67.5"/><text x="81" y="-74.5" font-family="Helvetica,sans-Serif" font-size="10" text-anchor="middle">ICLSimple2DKernel</text></a></g></g><g id="edge1" class="edge"><title>Node1-&gt;Node0</title><path fill="none" stroke="#191970" d="M81,-57.2349C81,-48.5864 81,-38.4969 81,-30.523"/><polygon fill="#191970" stroke="#191970" points="77.5 -57.475 81 -67.475 84.5 -57.475 77.5 -57.475"/></g><g id="node3" class="node"><title>Node2</title><g id="a_node3"><a target="_top" xlink:href="classarm__compute_1_1_i_c_l_simple_kernel.xhtml" xlink:title="Interface for simple OpenCL kernels having 1 tensor input and 1 tensor output."><polygon fill="#fff" stroke="#000" points="34.5 -123.5 34.5 -142.5 127.5 -142.5 127.5 -123.5 34.5 -123.5"/><text x="81" y="-130.5" font-family="Helvetica,sans-Serif" font-size="10" text-anchor="middle">ICLSimpleKernel</text></a></g></g><g id="edge2" class="edge"><title>Node2-&gt;Node1</title><path fill="none" stroke="#191970" d="M81,-112.805C81,-103.91 81,-93.7798 81,-86.7511"/><polygon fill="#191970" stroke="#191970" points="77.5 -113.083 81 -123.083 84.5 -113.083 77.5 -113.083"/></g><g id="node4" class="node"><title>Node3</title><g id="a_node4"><a target="_top" xlink:href="classarm__compute_1_1_i_c_l_kernel.xhtml" xlink:title="Common interface for all the OpenCL kernels."><polygon fill="#fff" stroke="#000" points="51 -179.5 51 -198.5 111 -198.5 111 -179.5 51 -179.5"/><text x="81" y="-186.5" font-family="Helvetica,sans-Serif" font-size="10" text-anchor="middle">ICLKernel</text></a></g></g><g id="edge3" class="edge"><title>Node3-&gt;Node2</title><path fill="none" stroke="#191970" d="M81,-168.805C81,-159.91 81,-149.78 81,-142.751"/><polygon fill="#191970" stroke="#191970" points="77.5 -169.083 81 -179.083 84.5 -169.083 77.5 -169.083"/></g><g id="node5" class="node"><title>Node4</title><g id="a_node5"><a target="_top" xlink:href="classarm__compute_1_1_i_kernel.xhtml" xlink:title="Common information for all the kernels."><polygon fill="#fff" stroke="#000" points="57 -235.5 57 -254.5 105 -254.5 105 -235.5 57 -235.5"/><text x="81" y="-242.5" font-family="Helvetica,sans-Serif" font-size="10" text-anchor="middle">IKernel</text></a></g></g><g id="edge4" class="edge"><title>Node4-&gt;Node3</title><path fill="none" stroke="#191970" d="M81,-224.805C81,-215.91 81,-205.78 81,-198.751"/><polygon fill="#191970" stroke="#191970" points="77.5 -225.083 81 -235.083 84.5 -225.083 77.5 -225.083"/></g></g></svg>