<svg xmlns="http://www.w3.org/2000/svg" xmlns:xlink="http://www.w3.org/1999/xlink" width="146pt" height="196pt" viewBox="0 0 146 196"><g id="graph0" class="graph" transform="scale(1 1) rotate(0) translate(4 192)"><title>NEGaussian5x5HorKernel</title><polygon fill="#fff" stroke="none" points="-4 4 -4 -192 142 -192 142 4 -4 4"/><g id="node1" class="node"><title>Node0</title><g id="a_node1"><a xlink:title="NEON kernel to perform a Gaussian 5x5 filter (horizontal pass)"><polygon fill="#bfbfbf" stroke="#000" points="0 -.5 0 -19.5 138 -19.5 138 -.5 0 -.5"/><text x="69" y="-7.5" font-family="Helvetica,sans-Serif" font-size="10" text-anchor="middle">NEGaussian5x5HorKernel</text></a></g></g><g id="node2" class="node"><title>Node1</title><g id="a_node2"><a target="_top" xlink:href="classarm__compute_1_1_i_c_p_p_simple_kernel.xhtml" xlink:title="Interface for simple C++ kernels having 1 tensor input and 1 tensor output."><polygon fill="#fff" stroke="#000" points="21.5 -56.5 21.5 -75.5 116.5 -75.5 116.5 -56.5 21.5 -56.5"/><text x="69" y="-63.5" font-family="Helvetica,sans-Serif" font-size="10" text-anchor="middle">INESimpleKernel</text></a></g></g><g id="edge1" class="edge"><title>Node1-&gt;Node0</title><path fill="none" stroke="#191970" d="M69,-45.8045C69,-36.9102 69,-26.7798 69,-19.7511"/><polygon fill="#191970" stroke="#191970" points="65.5 -46.083 69 -56.083 72.5 -46.083 65.5 -46.083"/></g><g id="node3" class="node"><title>Node2</title><g id="a_node3"><a target="_top" xlink:href="classarm__compute_1_1_i_c_p_p_kernel.xhtml" xlink:title="Common interface for all kernels implemented in C++."><polygon fill="#fff" stroke="#000" points="35.5 -112.5 35.5 -131.5 102.5 -131.5 102.5 -112.5 35.5 -112.5"/><text x="69" y="-119.5" font-family="Helvetica,sans-Serif" font-size="10" text-anchor="middle">ICPPKernel</text></a></g></g><g id="edge2" class="edge"><title>Node2-&gt;Node1</title><path fill="none" stroke="#191970" d="M69,-101.805C69,-92.9102 69,-82.7798 69,-75.7511"/><polygon fill="#191970" stroke="#191970" points="65.5 -102.083 69 -112.083 72.5 -102.083 65.5 -102.083"/></g><g id="node4" class="node"><title>Node3</title><g id="a_node4"><a target="_top" xlink:href="classarm__compute_1_1_i_kernel.xhtml" xlink:title="Common information for all the kernels."><polygon fill="#fff" stroke="#000" points="45 -168.5 45 -187.5 93 -187.5 93 -168.5 45 -168.5"/><text x="69" y="-175.5" font-family="Helvetica,sans-Serif" font-size="10" text-anchor="middle">IKernel</text></a></g></g><g id="edge3" class="edge"><title>Node3-&gt;Node2</title><path fill="none" stroke="#191970" d="M69,-157.805C69,-148.91 69,-138.78 69,-131.751"/><polygon fill="#191970" stroke="#191970" points="65.5 -158.083 69 -168.083 72.5 -158.083 65.5 -158.083"/></g></g></svg>