<svg xmlns="http://www.w3.org/2000/svg" xmlns:xlink="http://www.w3.org/1999/xlink" width="131pt" height="140pt" viewBox="0 0 131 140"><g id="graph0" class="graph" transform="scale(1 1) rotate(0) translate(4 136)"><title>ICLSVMMemoryRegion</title><polygon fill="#fff" stroke="none" points="-4 4 -4 -136 127 -136 127 4 -4 4"/><g id="node1" class="node"><title>Node0</title><g id="a_node1"><a xlink:title="OpenCL SVM memory region interface."><polygon fill="#bfbfbf" stroke="#000" points="0 -.5 0 -19.5 123 -19.5 123 -.5 0 -.5"/><text x="61.5" y="-7.5" font-family="Helvetica,sans-Serif" font-size="10" text-anchor="middle">ICLSVMMemoryRegion</text></a></g></g><g id="node2" class="node"><title>Node1</title><g id="a_node2"><a target="_top" xlink:href="classarm__compute_1_1_i_c_l_memory_region.xhtml" xlink:title="OpenCL memory region interface."><polygon fill="#fff" stroke="#000" points="11 -56.5 11 -75.5 112 -75.5 112 -56.5 11 -56.5"/><text x="61.5" y="-63.5" font-family="Helvetica,sans-Serif" font-size="10" text-anchor="middle">ICLMemoryRegion</text></a></g></g><g id="edge1" class="edge"><title>Node1-&gt;Node0</title><path fill="none" stroke="#191970" d="M61.5,-45.8045C61.5,-36.9102 61.5,-26.7798 61.5,-19.7511"/><polygon fill="#191970" stroke="#191970" points="58 -46.083 61.5 -56.083 65 -46.083 58 -46.083"/></g><g id="node3" class="node"><title>Node2</title><g id="a_node3"><a target="_top" xlink:href="classarm__compute_1_1_i_memory_region.xhtml" xlink:title="Memory region interface."><polygon fill="#fff" stroke="#000" points="17 -112.5 17 -131.5 106 -131.5 106 -112.5 17 -112.5"/><text x="61.5" y="-119.5" font-family="Helvetica,sans-Serif" font-size="10" text-anchor="middle">IMemoryRegion</text></a></g></g><g id="edge2" class="edge"><title>Node2-&gt;Node1</title><path fill="none" stroke="#191970" d="M61.5,-101.805C61.5,-92.9102 61.5,-82.7798 61.5,-75.7511"/><polygon fill="#191970" stroke="#191970" points="58 -102.083 61.5 -112.083 65 -102.083 58 -102.083"/></g></g></svg>