<svg xmlns="http://www.w3.org/2000/svg" xmlns:xlink="http://www.w3.org/1999/xlink" width="122pt" height="263pt" viewBox="0 0 122 263"><g id="graph0" class="graph" transform="scale(1 1) rotate(0) translate(4 259)"><title>CLConvolutionKernel&lt; matrix_size &gt;</title><polygon fill="#fff" stroke="none" points="-4 4 -4 -259 118 -259 118 4 -4 4"/><g id="node1" class="node"><title>Node0</title><g id="a_node1"><a xlink:title="Interface for the kernel to run an arbitrary size convolution on a tensor."><polygon fill="#bfbfbf" stroke="#000" points="0 -.5 0 -30.5 114 -30.5 114 -.5 0 -.5"/><text x="8" y="-18.5" font-family="Helvetica,sans-Serif" font-size="10" text-anchor="start">CLConvolutionKernel</text><text x="57" y="-7.5" font-family="Helvetica,sans-Serif" font-size="10" text-anchor="middle">&lt; matrix_size &gt;</text></a></g></g><g id="node2" class="node"><title>Node1</title><g id="a_node2"><a target="_top" xlink:href="classarm__compute_1_1_i_c_l_simple2_d_kernel.xhtml" xlink:title="Interface for simple OpenCL kernels having 1 tensor input and 1 tensor output."><polygon fill="#fff" stroke="#000" points="3.5 -67.5 3.5 -86.5 110.5 -86.5 110.5 -67.5 3.5 -67.5"/><text x="57" y="-74.5" font-family="Helvetica,sans-Serif" font-size="10" text-anchor="middle">ICLSimple2DKernel</text></a></g></g><g id="edge1" class="edge"><title>Node1-&gt;Node0</title><path fill="none" stroke="#191970" d="M57,-57.2349C57,-48.5864 57,-38.4969 57,-30.523"/><polygon fill="#191970" stroke="#191970" points="53.5 -57.475 57 -67.475 60.5 -57.475 53.5 -57.475"/></g><g id="node3" class="node"><title>Node2</title><g id="a_node3"><a target="_top" xlink:href="classarm__compute_1_1_i_c_l_simple_kernel.xhtml" xlink:title="Interface for simple OpenCL kernels having 1 tensor input and 1 tensor output."><polygon fill="#fff" stroke="#000" points="10.5 -123.5 10.5 -142.5 103.5 -142.5 103.5 -123.5 10.5 -123.5"/><text x="57" y="-130.5" font-family="Helvetica,sans-Serif" font-size="10" text-anchor="middle">ICLSimpleKernel</text></a></g></g><g id="edge2" class="edge"><title>Node2-&gt;Node1</title><path fill="none" stroke="#191970" d="M57,-112.805C57,-103.91 57,-93.7798 57,-86.7511"/><polygon fill="#191970" stroke="#191970" points="53.5 -113.083 57 -123.083 60.5 -113.083 53.5 -113.083"/></g><g id="node4" class="node"><title>Node3</title><g id="a_node4"><a target="_top" xlink:href="classarm__compute_1_1_i_c_l_kernel.xhtml" xlink:title="Common interface for all the OpenCL kernels."><polygon fill="#fff" stroke="#000" points="27 -179.5 27 -198.5 87 -198.5 87 -179.5 27 -179.5"/><text x="57" y="-186.5" font-family="Helvetica,sans-Serif" font-size="10" text-anchor="middle">ICLKernel</text></a></g></g><g id="edge3" class="edge"><title>Node3-&gt;Node2</title><path fill="none" stroke="#191970" d="M57,-168.805C57,-159.91 57,-149.78 57,-142.751"/><polygon fill="#191970" stroke="#191970" points="53.5 -169.083 57 -179.083 60.5 -169.083 53.5 -169.083"/></g><g id="node5" class="node"><title>Node4</title><g id="a_node5"><a target="_top" xlink:href="classarm__compute_1_1_i_kernel.xhtml" xlink:title="Common information for all the kernels."><polygon fill="#fff" stroke="#000" points="33 -235.5 33 -254.5 81 -254.5 81 -235.5 33 -235.5"/><text x="57" y="-242.5" font-family="Helvetica,sans-Serif" font-size="10" text-anchor="middle">IKernel</text></a></g></g><g id="edge4" class="edge"><title>Node4-&gt;Node3</title><path fill="none" stroke="#191970" d="M57,-224.805C57,-215.91 57,-205.78 57,-198.751"/><polygon fill="#191970" stroke="#191970" points="53.5 -225.083 57 -235.083 60.5 -225.083 53.5 -225.083"/></g></g></svg>