<svg xmlns="http://www.w3.org/2000/svg" xmlns:xlink="http://www.w3.org/1999/xlink" width="248" height="151pt" viewBox="0 0 186 151"><g id="graph0" class="graph" transform="scale(1 1) rotate(0) translate(4 147)"><title>NEGEMMMatrixAccumulateBiasesKernel</title><polygon fill="#fff" stroke="none" points="-4 4 -4 -147 182 -147 182 4 -4 4"/><g id="node1" class="node"><title>Node0</title><g id="a_node1"><a xlink:title="NEON kernel to add a bias to each row of the input tensor."><polygon fill="#bfbfbf" stroke="#000" points="0 -.5 0 -30.5 178 -30.5 178 -.5 0 -.5"/><text x="8" y="-18.5" font-family="Helvetica,sans-Serif" font-size="10" text-anchor="start">NEGEMMMatrixAccumulateBiases</text><text x="89" y="-7.5" font-family="Helvetica,sans-Serif" font-size="10" text-anchor="middle">Kernel</text></a></g></g><g id="node2" class="node"><title>Node1</title><g id="a_node2"><a target="_top" xlink:href="classarm__compute_1_1_i_c_p_p_kernel.xhtml" xlink:title="Common interface for all kernels implemented in C++."><polygon fill="#fff" stroke="#000" points="58 -67.5 58 -86.5 120 -86.5 120 -67.5 58 -67.5"/><text x="89" y="-74.5" font-family="Helvetica,sans-Serif" font-size="10" text-anchor="middle">INEKernel</text></a></g></g><g id="edge1" class="edge"><title>Node1-&gt;Node0</title><path fill="none" stroke="#191970" d="M89,-57.2349C89,-48.5864 89,-38.4969 89,-30.523"/><polygon fill="#191970" stroke="#191970" points="85.5 -57.475 89 -67.475 92.5 -57.475 85.5 -57.475"/></g><g id="node3" class="node"><title>Node2</title><g id="a_node3"><a target="_top" xlink:href="classarm__compute_1_1_i_kernel.xhtml" xlink:title="Common information for all the kernels."><polygon fill="#fff" stroke="#000" points="65 -123.5 65 -142.5 113 -142.5 113 -123.5 65 -123.5"/><text x="89" y="-130.5" font-family="Helvetica,sans-Serif" font-size="10" text-anchor="middle">IKernel</text></a></g></g><g id="edge2" class="edge"><title>Node2-&gt;Node1</title><path fill="none" stroke="#191970" d="M89,-112.805C89,-103.91 89,-93.7798 89,-86.7511"/><polygon fill="#191970" stroke="#191970" points="85.5 -113.083 89 -123.083 92.5 -113.083 85.5 -113.083"/></g></g></svg>