<svg xmlns="http://www.w3.org/2000/svg" xmlns:xlink="http://www.w3.org/1999/xlink" width="181pt" height="140pt" viewBox="0 0 181 140"><g id="graph0" class="graph" transform="scale(1 1) rotate(0) translate(4 136)"><title>NEWidthConcatenateLayerKernel</title><polygon fill="#fff" stroke="none" points="-4 4 -4 -136 177 -136 177 4 -4 4"/><g id="node1" class="node"><title>Node0</title><g id="a_node1"><a xlink:title="Interface for the width concatenate kernel."><polygon fill="#bfbfbf" stroke="#000" points="0 -.5 0 -19.5 173 -19.5 173 -.5 0 -.5"/><text x="86.5" y="-7.5" font-family="Helvetica,sans-Serif" font-size="10" text-anchor="middle">NEWidthConcatenateLayerKernel</text></a></g></g><g id="node2" class="node"><title>Node1</title><g id="a_node2"><a target="_top" xlink:href="classarm__compute_1_1_i_c_p_p_kernel.xhtml" xlink:title="Common interface for all kernels implemented in C++."><polygon fill="#fff" stroke="#000" points="55.5 -56.5 55.5 -75.5 117.5 -75.5 117.5 -56.5 55.5 -56.5"/><text x="86.5" y="-63.5" font-family="Helvetica,sans-Serif" font-size="10" text-anchor="middle">INEKernel</text></a></g></g><g id="edge1" class="edge"><title>Node1-&gt;Node0</title><path fill="none" stroke="#191970" d="M86.5,-45.8045C86.5,-36.9102 86.5,-26.7798 86.5,-19.7511"/><polygon fill="#191970" stroke="#191970" points="83 -46.083 86.5 -56.083 90 -46.083 83 -46.083"/></g><g id="node3" class="node"><title>Node2</title><g id="a_node3"><a target="_top" xlink:href="classarm__compute_1_1_i_kernel.xhtml" xlink:title="Common information for all the kernels."><polygon fill="#fff" stroke="#000" points="62.5 -112.5 62.5 -131.5 110.5 -131.5 110.5 -112.5 62.5 -112.5"/><text x="86.5" y="-119.5" font-family="Helvetica,sans-Serif" font-size="10" text-anchor="middle">IKernel</text></a></g></g><g id="edge2" class="edge"><title>Node2-&gt;Node1</title><path fill="none" stroke="#191970" d="M86.5,-101.805C86.5,-92.9102 86.5,-82.7798 86.5,-75.7511"/><polygon fill="#191970" stroke="#191970" points="83 -102.083 86.5 -112.083 90 -102.083 83 -102.083"/></g></g></svg>