<svg xmlns="http://www.w3.org/2000/svg" xmlns:xlink="http://www.w3.org/1999/xlink" width="184" height="140pt" viewBox="0 0 138 140"><g id="graph0" class="graph" transform="scale(1 1) rotate(0) translate(4 136)"><title>GCBufferMemoryRegion</title><polygon fill="#fff" stroke="none" points="-4 4 -4 -136 134 -136 134 4 -4 4"/><g id="node1" class="node"><title>Node0</title><g id="a_node1"><a xlink:title="GLES buffer memory region implementation."><polygon fill="#bfbfbf" stroke="#000" points="0 -.5 0 -19.5 130 -19.5 130 -.5 0 -.5"/><text x="65" y="-7.5" font-family="Helvetica,sans-Serif" font-size="10" text-anchor="middle">GCBufferMemoryRegion</text></a></g></g><g id="node2" class="node"><title>Node1</title><g id="a_node2"><a target="_top" xlink:href="classarm__compute_1_1_i_g_c_memory_region.xhtml" xlink:title="GLES memory region interface."><polygon fill="#fff" stroke="#000" points="13 -56.5 13 -75.5 117 -75.5 117 -56.5 13 -56.5"/><text x="65" y="-63.5" font-family="Helvetica,sans-Serif" font-size="10" text-anchor="middle">IGCMemoryRegion</text></a></g></g><g id="edge1" class="edge"><title>Node1-&gt;Node0</title><path fill="none" stroke="#191970" d="M65,-45.8045C65,-36.9102 65,-26.7798 65,-19.7511"/><polygon fill="#191970" stroke="#191970" points="61.5 -46.083 65 -56.083 68.5 -46.083 61.5 -46.083"/></g><g id="node3" class="node"><title>Node2</title><g id="a_node3"><a target="_top" xlink:href="classarm__compute_1_1_i_memory_region.xhtml" xlink:title="Memory region interface."><polygon fill="#fff" stroke="#000" points="20.5 -112.5 20.5 -131.5 109.5 -131.5 109.5 -112.5 20.5 -112.5"/><text x="65" y="-119.5" font-family="Helvetica,sans-Serif" font-size="10" text-anchor="middle">IMemoryRegion</text></a></g></g><g id="edge2" class="edge"><title>Node2-&gt;Node1</title><path fill="none" stroke="#191970" d="M65,-101.805C65,-92.9102 65,-82.7798 65,-75.7511"/><polygon fill="#191970" stroke="#191970" points="61.5 -102.083 65 -112.083 68.5 -102.083 61.5 -102.083"/></g></g></svg>