<svg xmlns="http://www.w3.org/2000/svg" xmlns:xlink="http://www.w3.org/1999/xlink" width="140" height="140pt" viewBox="0 0 105 140"><g id="graph0" class="graph" transform="scale(1 1) rotate(0) translate(4 136)"><title>CLMemsetKernel</title><polygon fill="#fff" stroke="none" points="-4 4 -4 -136 101 -136 101 4 -4 4"/><g id="node1" class="node"><title>Node0</title><g id="a_node1"><a xlink:title="Interface for filling the planes of a tensor."><polygon fill="#bfbfbf" stroke="#000" points="0 -.5 0 -19.5 97 -19.5 97 -.5 0 -.5"/><text x="48.5" y="-7.5" font-family="Helvetica,sans-Serif" font-size="10" text-anchor="middle">CLMemsetKernel</text></a></g></g><g id="node2" class="node"><title>Node1</title><g id="a_node2"><a target="_top" xlink:href="classarm__compute_1_1_i_c_l_kernel.xhtml" xlink:title="Common interface for all the OpenCL kernels."><polygon fill="#fff" stroke="#000" points="18.5 -56.5 18.5 -75.5 78.5 -75.5 78.5 -56.5 18.5 -56.5"/><text x="48.5" y="-63.5" font-family="Helvetica,sans-Serif" font-size="10" text-anchor="middle">ICLKernel</text></a></g></g><g id="edge1" class="edge"><title>Node1-&gt;Node0</title><path fill="none" stroke="#191970" d="M48.5,-45.8045C48.5,-36.9102 48.5,-26.7798 48.5,-19.7511"/><polygon fill="#191970" stroke="#191970" points="45 -46.083 48.5 -56.083 52 -46.083 45 -46.083"/></g><g id="node3" class="node"><title>Node2</title><g id="a_node3"><a target="_top" xlink:href="classarm__compute_1_1_i_kernel.xhtml" xlink:title="Common information for all the kernels."><polygon fill="#fff" stroke="#000" points="24.5 -112.5 24.5 -131.5 72.5 -131.5 72.5 -112.5 24.5 -112.5"/><text x="48.5" y="-119.5" font-family="Helvetica,sans-Serif" font-size="10" text-anchor="middle">IKernel</text></a></g></g><g id="edge2" class="edge"><title>Node2-&gt;Node1</title><path fill="none" stroke="#191970" d="M48.5,-101.805C48.5,-92.9102 48.5,-82.7798 48.5,-75.7511"/><polygon fill="#191970" stroke="#191970" points="45 -102.083 48.5 -112.083 52 -102.083 45 -102.083"/></g></g></svg>