<svg xmlns="http://www.w3.org/2000/svg" xmlns:xlink="http://www.w3.org/1999/xlink" width="240" height="106pt" viewBox="0 0 180 106"><g id="graph0" class="graph" transform="scale(1 1) rotate(0) translate(4 102)"><title>FusedDepthwiseConvolutionBatchNormalizationFunction&lt; TargetInfo, FusedLayerTypes &gt;</title><polygon fill="#fff" stroke="none" points="-4 4 -4 -102 176 -102 176 4 -4 4"/><g id="node1" class="node"><title>Node0</title><g id="a_node1"><a xlink:title="Wrapper function to first apply {NE, CL}BatchNormalizationLayer on the weights and then run {NE,..."><polygon fill="#bfbfbf" stroke="#000" points="0 -.5 0 -41.5 172 -41.5 172 -.5 0 -.5"/><text x="8" y="-29.5" font-family="Helvetica,sans-Serif" font-size="10" text-anchor="start">FusedDepthwiseConvolution</text><text x="8" y="-18.5" font-family="Helvetica,sans-Serif" font-size="10" text-anchor="start">BatchNormalizationFunction</text><text x="86" y="-7.5" font-family="Helvetica,sans-Serif" font-size="10" text-anchor="middle">&lt; TargetInfo, FusedLayerTypes &gt;</text></a></g></g><g id="node2" class="node"><title>Node1</title><g id="a_node2"><a target="_top" xlink:href="classarm__compute_1_1_i_function.xhtml" xlink:title="Base class for all functions."><polygon fill="#fff" stroke="#000" points="56.5 -78.5 56.5 -97.5 115.5 -97.5 115.5 -78.5 56.5 -78.5"/><text x="86" y="-85.5" font-family="Helvetica,sans-Serif" font-size="10" text-anchor="middle">IFunction</text></a></g></g><g id="edge1" class="edge"><title>Node1-&gt;Node0</title><path fill="none" stroke="#191970" d="M86,-68.037C86,-59.7084 86,-49.9358 86,-41.5421"/><polygon fill="#191970" stroke="#191970" points="82.5 -68.234 86 -78.234 89.5 -68.234 82.5 -68.234"/></g></g></svg>