<svg xmlns="http://www.w3.org/2000/svg" xmlns:xlink="http://www.w3.org/1999/xlink" width="169pt" height="140pt" viewBox="0 0 169 140"><g id="graph0" class="graph" transform="scale(1 1) rotate(0) translate(4 136)"><title>CPPNonMaximumSuppression</title><polygon fill="#fff" stroke="none" points="-4 4 -4 -136 165 -136 165 4 -4 4"/><g id="node1" class="node"><title>Node0</title><g id="a_node1"><a xlink:title="CPP Function to perform non maximum suppression on the bounding boxes and scores."><polygon fill="#bfbfbf" stroke="#000" points="0 -.5 0 -19.5 161 -19.5 161 -.5 0 -.5"/><text x="80.5" y="-7.5" font-family="Helvetica,sans-Serif" font-size="10" text-anchor="middle">CPPNonMaximumSuppression</text></a></g></g><g id="node2" class="node"><title>Node1</title><g id="a_node2"><a target="_top" xlink:href="classarm__compute_1_1_i_c_p_p_simple_function.xhtml" xlink:title="Basic interface for functions which have a single CPP kernel."><polygon fill="#fff" stroke="#000" points="25.5 -56.5 25.5 -75.5 135.5 -75.5 135.5 -56.5 25.5 -56.5"/><text x="80.5" y="-63.5" font-family="Helvetica,sans-Serif" font-size="10" text-anchor="middle">ICPPSimpleFunction</text></a></g></g><g id="edge1" class="edge"><title>Node1-&gt;Node0</title><path fill="none" stroke="#191970" d="M80.5,-45.8045C80.5,-36.9102 80.5,-26.7798 80.5,-19.7511"/><polygon fill="#191970" stroke="#191970" points="77 -46.083 80.5 -56.083 84 -46.083 77 -46.083"/></g><g id="node3" class="node"><title>Node2</title><g id="a_node3"><a target="_top" xlink:href="classarm__compute_1_1_i_function.xhtml" xlink:title="Base class for all functions."><polygon fill="#fff" stroke="#000" points="51 -112.5 51 -131.5 110 -131.5 110 -112.5 51 -112.5"/><text x="80.5" y="-119.5" font-family="Helvetica,sans-Serif" font-size="10" text-anchor="middle">IFunction</text></a></g></g><g id="edge2" class="edge"><title>Node2-&gt;Node1</title><path fill="none" stroke="#191970" d="M80.5,-101.805C80.5,-92.9102 80.5,-82.7798 80.5,-75.7511"/><polygon fill="#191970" stroke="#191970" points="77 -102.083 80.5 -112.083 84 -102.083 77 -102.083"/></g></g></svg>