<svg xmlns="http://www.w3.org/2000/svg" xmlns:xlink="http://www.w3.org/1999/xlink" width="161pt" height="185pt" viewBox="0 0 161 185"><g id="graph0" class="graph" transform="scale(1 1) rotate(0) translate(4 181)"><title>CLGEMMMatrixMultiplyKernel</title><polygon fill="#fff" stroke="none" points="-4 4 -4 -181 157 -181 157 4 -4 4"/><g id="node1" class="node"><title>Node0</title><g id="a_node1"><a xlink:title="OpenCL kernel to multiply two input matrices &quot;A&quot; and &quot;B&quot; and add a martix &quot;C&quot; if provided."><polygon fill="#bfbfbf" stroke="#000" points="0 -.5 0 -19.5 153 -19.5 153 -.5 0 -.5"/><text x="76.5" y="-7.5" font-family="Helvetica,sans-Serif" font-size="10" text-anchor="middle">CLGEMMMatrixMultiplyKernel</text></a></g></g><g id="node2" class="node"><title>Node1</title><g id="a_node2"><a target="_top" xlink:href="classarm__compute_1_1_i_c_l_kernel.xhtml" xlink:title="Common interface for all the OpenCL kernels."><polygon fill="#fff" stroke="#000" points="2.5 -100.5 2.5 -119.5 62.5 -119.5 62.5 -100.5 2.5 -100.5"/><text x="32.5" y="-107.5" font-family="Helvetica,sans-Serif" font-size="10" text-anchor="middle">ICLKernel</text></a></g></g><g id="edge1" class="edge"><title>Node1-&gt;Node0</title><path fill="none" stroke="#191970" d="M40.5389,-91.0952C50.0607,-69.8875 65.5285,-35.4365 72.6669,-19.5374"/><polygon fill="#191970" stroke="#191970" points="37.308 -89.747 36.405 -100.303 43.694 -92.614 37.308 -89.747"/></g><g id="node3" class="node"><title>Node2</title><g id="a_node3"><a target="_top" xlink:href="classarm__compute_1_1_i_kernel.xhtml" xlink:title="Common information for all the kernels."><polygon fill="#fff" stroke="#000" points="8.5 -157.5 8.5 -176.5 56.5 -176.5 56.5 -157.5 8.5 -157.5"/><text x="32.5" y="-164.5" font-family="Helvetica,sans-Serif" font-size="10" text-anchor="middle">IKernel</text></a></g></g><g id="edge2" class="edge"><title>Node2-&gt;Node1</title><path fill="none" stroke="#191970" d="M32.5,-147.117C32.5,-137.817 32.5,-127.056 32.5,-119.715"/><polygon fill="#191970" stroke="#191970" points="29 -147.406 32.5 -157.406 36 -147.406 29 -147.406"/></g><g id="node4" class="node"><title>Node3</title><g id="a_node4"><a target="_top" xlink:href="classarm__compute_1_1_i_c_l_tensor.xhtml" xlink:title="Interface for OpenCL tensor."><polygon fill="#fff" stroke="#000" points="80.5 -100.5 80.5 -119.5 140.5 -119.5 140.5 -100.5 80.5 -100.5"/><text x="110.5" y="-107.5" font-family="Helvetica,sans-Serif" font-size="10" text-anchor="middle">ICLTensor</text></a></g></g><g id="edge3" class="edge"><title>Node3-&gt;Node0</title><path fill="none" stroke="#9a32cd" stroke-dasharray="5 2" d="M104.188,-90.8052C96.8218,-69.5747 84.9529,-35.3642 79.462,-19.5374"/><polygon fill="#9a32cd" stroke="#9a32cd" points="100.898 -92.003 107.483 -100.303 107.512 -89.708 100.898 -92.003"/><text x="119" y="-74" font-family="Helvetica,sans-Serif" font-size="10" text-anchor="middle">_input2</text><text x="119" y="-63" font-family="Helvetica,sans-Serif" font-size="10" text-anchor="middle">_output</text><text x="119" y="-52" font-family="Helvetica,sans-Serif" font-size="10" text-anchor="middle">_input0</text><text x="119" y="-41" font-family="Helvetica,sans-Serif" font-size="10" text-anchor="middle">_input1</text></g><g id="node5" class="node"><title>Node4</title><g id="a_node5"><a target="_top" xlink:href="classarm__compute_1_1_i_tensor.xhtml" xlink:title="Interface for NEON tensor."><polygon fill="#fff" stroke="#000" points="85.5 -157.5 85.5 -176.5 135.5 -176.5 135.5 -157.5 85.5 -157.5"/><text x="110.5" y="-164.5" font-family="Helvetica,sans-Serif" font-size="10" text-anchor="middle">ITensor</text></a></g></g><g id="edge4" class="edge"><title>Node4-&gt;Node3</title><path fill="none" stroke="#191970" d="M110.5,-147.117C110.5,-137.817 110.5,-127.056 110.5,-119.715"/><polygon fill="#191970" stroke="#191970" points="107 -147.406 110.5 -157.406 114 -147.406 107 -147.406"/></g></g></svg>