<svg xmlns="http://www.w3.org/2000/svg" xmlns:xlink="http://www.w3.org/1999/xlink" width="116pt" height="140pt" viewBox="0 0 116 140"><g id="graph0" class="graph" transform="scale(1 1) rotate(0) translate(4 136)"><title>CLElementwiseMax</title><polygon fill="#fff" stroke="none" points="-4 4 -4 -136 112 -136 112 4 -4 4"/><g id="node1" class="node"><title>Node0</title><g id="a_node1"><a xlink:title="Basic function to run CLArithmeticOperationKernel for max."><polygon fill="#bfbfbf" stroke="#000" points="0 -.5 0 -19.5 108 -19.5 108 -.5 0 -.5"/><text x="54" y="-7.5" font-family="Helvetica,sans-Serif" font-size="10" text-anchor="middle">CLElementwiseMax</text></a></g></g><g id="node2" class="node"><title>Node1</title><g id="a_node2"><a target="_top" xlink:href="classarm__compute_1_1_i_c_l_simple_function.xhtml" xlink:title="Basic interface for functions which have a single OpenCL kernel."><polygon fill="#fff" stroke="#000" points="2 -56.5 2 -75.5 106 -75.5 106 -56.5 2 -56.5"/><text x="54" y="-63.5" font-family="Helvetica,sans-Serif" font-size="10" text-anchor="middle">ICLSimpleFunction</text></a></g></g><g id="edge1" class="edge"><title>Node1-&gt;Node0</title><path fill="none" stroke="#191970" d="M54,-45.8045C54,-36.9102 54,-26.7798 54,-19.7511"/><polygon fill="#191970" stroke="#191970" points="50.5 -46.083 54 -56.083 57.5 -46.083 50.5 -46.083"/></g><g id="node3" class="node"><title>Node2</title><g id="a_node3"><a target="_top" xlink:href="classarm__compute_1_1_i_function.xhtml" xlink:title="Base class for all functions."><polygon fill="#fff" stroke="#000" points="24.5 -112.5 24.5 -131.5 83.5 -131.5 83.5 -112.5 24.5 -112.5"/><text x="54" y="-119.5" font-family="Helvetica,sans-Serif" font-size="10" text-anchor="middle">IFunction</text></a></g></g><g id="edge2" class="edge"><title>Node2-&gt;Node1</title><path fill="none" stroke="#191970" d="M54,-101.805C54,-92.9102 54,-82.7798 54,-75.7511"/><polygon fill="#191970" stroke="#191970" points="50.5 -102.083 54 -112.083 57.5 -102.083 50.5 -102.083"/></g></g></svg>