<svg xmlns="http://www.w3.org/2000/svg" xmlns:xlink="http://www.w3.org/1999/xlink" width="160pt" height="151pt" viewBox="0 0 160 151"><g id="graph0" class="graph" transform="scale(1 1) rotate(0) translate(4 147)"><title>CLLogits1DMaxShiftExpSumKernel</title><polygon fill="#fff" stroke="none" points="-4 4 -4 -147 156 -147 156 4 -4 4"/><g id="node1" class="node"><title>Node0</title><g id="a_node1"><a xlink:title="Interface for max, shifting, exponentiating and summing the logits."><polygon fill="#bfbfbf" stroke="#000" points="0 -.5 0 -30.5 152 -30.5 152 -.5 0 -.5"/><text x="8" y="-18.5" font-family="Helvetica,sans-Serif" font-size="10" text-anchor="start">CLLogits1DMaxShiftExpSum</text><text x="76" y="-7.5" font-family="Helvetica,sans-Serif" font-size="10" text-anchor="middle">Kernel</text></a></g></g><g id="node2" class="node"><title>Node1</title><g id="a_node2"><a target="_top" xlink:href="classarm__compute_1_1_i_c_l_kernel.xhtml" xlink:title="Common interface for all the OpenCL kernels."><polygon fill="#fff" stroke="#000" points="46 -67.5 46 -86.5 106 -86.5 106 -67.5 46 -67.5"/><text x="76" y="-74.5" font-family="Helvetica,sans-Serif" font-size="10" text-anchor="middle">ICLKernel</text></a></g></g><g id="edge1" class="edge"><title>Node1-&gt;Node0</title><path fill="none" stroke="#191970" d="M76,-57.2349C76,-48.5864 76,-38.4969 76,-30.523"/><polygon fill="#191970" stroke="#191970" points="72.5 -57.475 76 -67.475 79.5 -57.475 72.5 -57.475"/></g><g id="node3" class="node"><title>Node2</title><g id="a_node3"><a target="_top" xlink:href="classarm__compute_1_1_i_kernel.xhtml" xlink:title="Common information for all the kernels."><polygon fill="#fff" stroke="#000" points="52 -123.5 52 -142.5 100 -142.5 100 -123.5 52 -123.5"/><text x="76" y="-130.5" font-family="Helvetica,sans-Serif" font-size="10" text-anchor="middle">IKernel</text></a></g></g><g id="edge2" class="edge"><title>Node2-&gt;Node1</title><path fill="none" stroke="#191970" d="M76,-112.805C76,-103.91 76,-93.7798 76,-86.7511"/><polygon fill="#191970" stroke="#191970" points="72.5 -113.083 76 -123.083 79.5 -113.083 72.5 -113.083"/></g></g></svg>