<svg xmlns="http://www.w3.org/2000/svg" xmlns:xlink="http://www.w3.org/1999/xlink" width="89pt" height="140pt" viewBox="0 0 89 140"><g id="graph0" class="graph" transform="scale(1 1) rotate(0) translate(4 136)"><title>CLFloorKernel</title><polygon fill="#fff" stroke="none" points="-4 4 -4 -136 85 -136 85 4 -4 4"/><g id="node1" class="node"><title>Node0</title><g id="a_node1"><a xlink:title="OpenCL kernel to perform a floor operation."><polygon fill="#bfbfbf" stroke="#000" points="0 -.5 0 -19.5 81 -19.5 81 -.5 0 -.5"/><text x="40.5" y="-7.5" font-family="Helvetica,sans-Serif" font-size="10" text-anchor="middle">CLFloorKernel</text></a></g></g><g id="node2" class="node"><title>Node1</title><g id="a_node2"><a target="_top" xlink:href="classarm__compute_1_1_i_c_l_kernel.xhtml" xlink:title="Common interface for all the OpenCL kernels."><polygon fill="#fff" stroke="#000" points="10.5 -56.5 10.5 -75.5 70.5 -75.5 70.5 -56.5 10.5 -56.5"/><text x="40.5" y="-63.5" font-family="Helvetica,sans-Serif" font-size="10" text-anchor="middle">ICLKernel</text></a></g></g><g id="edge1" class="edge"><title>Node1-&gt;Node0</title><path fill="none" stroke="#191970" d="M40.5,-45.8045C40.5,-36.9102 40.5,-26.7798 40.5,-19.7511"/><polygon fill="#191970" stroke="#191970" points="37 -46.083 40.5 -56.083 44 -46.083 37 -46.083"/></g><g id="node3" class="node"><title>Node2</title><g id="a_node3"><a target="_top" xlink:href="classarm__compute_1_1_i_kernel.xhtml" xlink:title="Common information for all the kernels."><polygon fill="#fff" stroke="#000" points="16.5 -112.5 16.5 -131.5 64.5 -131.5 64.5 -112.5 16.5 -112.5"/><text x="40.5" y="-119.5" font-family="Helvetica,sans-Serif" font-size="10" text-anchor="middle">IKernel</text></a></g></g><g id="edge2" class="edge"><title>Node2-&gt;Node1</title><path fill="none" stroke="#191970" d="M40.5,-101.805C40.5,-92.9102 40.5,-82.7798 40.5,-75.7511"/><polygon fill="#191970" stroke="#191970" points="37 -102.083 40.5 -112.083 44 -102.083 37 -102.083"/></g></g></svg>