<svg xmlns="http://www.w3.org/2000/svg" xmlns:xlink="http://www.w3.org/1999/xlink" width="178pt" height="276" viewBox="0 0 178 207"><g id="graph0" class="graph" transform="scale(1 1) rotate(0) translate(4 203)"><title>CLDeconvolutionReshapeOutputKernel</title><polygon fill="#fff" stroke="none" points="-4 4 -4 -203 174 -203 174 4 -4 4"/><g id="node1" class="node"><title>Node0</title><g id="a_node1"><a xlink:title="Interface for the OpenCL kernel to be used for reshaping the tensor before returning the result of de..."><polygon fill="#bfbfbf" stroke="#000" points="0 -.5 0 -30.5 170 -30.5 170 -.5 0 -.5"/><text x="8" y="-18.5" font-family="Helvetica,sans-Serif" font-size="10" text-anchor="start">CLDeconvolutionReshapeOutput</text><text x="85" y="-7.5" font-family="Helvetica,sans-Serif" font-size="10" text-anchor="middle">Kernel</text></a></g></g><g id="node2" class="node"><title>Node1</title><g id="a_node2"><a target="_top" xlink:href="classarm__compute_1_1_i_c_l_simple_kernel.xhtml" xlink:title="Interface for simple OpenCL kernels having 1 tensor input and 1 tensor output."><polygon fill="#fff" stroke="#000" points="38.5 -67.5 38.5 -86.5 131.5 -86.5 131.5 -67.5 38.5 -67.5"/><text x="85" y="-74.5" font-family="Helvetica,sans-Serif" font-size="10" text-anchor="middle">ICLSimpleKernel</text></a></g></g><g id="edge1" class="edge"><title>Node1-&gt;Node0</title><path fill="none" stroke="#191970" d="M85,-57.2349C85,-48.5864 85,-38.4969 85,-30.523"/><polygon fill="#191970" stroke="#191970" points="81.5 -57.475 85 -67.475 88.5 -57.475 81.5 -57.475"/></g><g id="node3" class="node"><title>Node2</title><g id="a_node3"><a target="_top" xlink:href="classarm__compute_1_1_i_c_l_kernel.xhtml" xlink:title="Common interface for all the OpenCL kernels."><polygon fill="#fff" stroke="#000" points="55 -123.5 55 -142.5 115 -142.5 115 -123.5 55 -123.5"/><text x="85" y="-130.5" font-family="Helvetica,sans-Serif" font-size="10" text-anchor="middle">ICLKernel</text></a></g></g><g id="edge2" class="edge"><title>Node2-&gt;Node1</title><path fill="none" stroke="#191970" d="M85,-112.805C85,-103.91 85,-93.7798 85,-86.7511"/><polygon fill="#191970" stroke="#191970" points="81.5 -113.083 85 -123.083 88.5 -113.083 81.5 -113.083"/></g><g id="node4" class="node"><title>Node3</title><g id="a_node4"><a target="_top" xlink:href="classarm__compute_1_1_i_kernel.xhtml" xlink:title="Common information for all the kernels."><polygon fill="#fff" stroke="#000" points="61 -179.5 61 -198.5 109 -198.5 109 -179.5 61 -179.5"/><text x="85" y="-186.5" font-family="Helvetica,sans-Serif" font-size="10" text-anchor="middle">IKernel</text></a></g></g><g id="edge3" class="edge"><title>Node3-&gt;Node2</title><path fill="none" stroke="#191970" d="M85,-168.805C85,-159.91 85,-149.78 85,-142.751"/><polygon fill="#191970" stroke="#191970" points="81.5 -169.083 85 -179.083 88.5 -169.083 81.5 -169.083"/></g></g></svg>