<svg xmlns="http://www.w3.org/2000/svg" xmlns:xlink="http://www.w3.org/1999/xlink" width="184pt" height="151pt" viewBox="0 0 184 151"><g id="graph0" class="graph" transform="scale(1 1) rotate(0) translate(4 147)"><title>NEElementwiseComparisonStatic&lt; op &gt;</title><polygon fill="#fff" stroke="none" points="-4 4 -4 -147 180 -147 180 4 -4 4"/><g id="node1" class="node"><title>Node0</title><g id="a_node1"><a xlink:title="Basic function to run NEComparisonOperationKernel."><polygon fill="#bfbfbf" stroke="#000" points="0 -.5 0 -30.5 176 -30.5 176 -.5 0 -.5"/><text x="8" y="-18.5" font-family="Helvetica,sans-Serif" font-size="10" text-anchor="start">NEElementwiseComparisonStatic</text><text x="88" y="-7.5" font-family="Helvetica,sans-Serif" font-size="10" text-anchor="middle">&lt; op &gt;</text></a></g></g><g id="node2" class="node"><title>Node1</title><g id="a_node2"><a target="_top" xlink:href="classarm__compute_1_1_i_n_e_simple_function.xhtml" xlink:title="Basic interface for functions which have a single NEON kernel."><polygon fill="#fff" stroke="#000" points="35.5 -67.5 35.5 -86.5 140.5 -86.5 140.5 -67.5 35.5 -67.5"/><text x="88" y="-74.5" font-family="Helvetica,sans-Serif" font-size="10" text-anchor="middle">INESimpleFunction</text></a></g></g><g id="edge1" class="edge"><title>Node1-&gt;Node0</title><path fill="none" stroke="#191970" d="M88,-57.2349C88,-48.5864 88,-38.4969 88,-30.523"/><polygon fill="#191970" stroke="#191970" points="84.5 -57.475 88 -67.475 91.5 -57.475 84.5 -57.475"/></g><g id="node3" class="node"><title>Node2</title><g id="a_node3"><a target="_top" xlink:href="classarm__compute_1_1_i_function.xhtml" xlink:title="Base class for all functions."><polygon fill="#fff" stroke="#000" points="58.5 -123.5 58.5 -142.5 117.5 -142.5 117.5 -123.5 58.5 -123.5"/><text x="88" y="-130.5" font-family="Helvetica,sans-Serif" font-size="10" text-anchor="middle">IFunction</text></a></g></g><g id="edge2" class="edge"><title>Node2-&gt;Node1</title><path fill="none" stroke="#191970" d="M88,-112.805C88,-103.91 88,-93.7798 88,-86.7511"/><polygon fill="#191970" stroke="#191970" points="84.5 -113.083 88 -123.083 91.5 -113.083 84.5 -113.083"/></g></g></svg>