<svg xmlns="http://www.w3.org/2000/svg" xmlns:xlink="http://www.w3.org/1999/xlink" width="236" height="151pt" viewBox="0 0 177 151"><g id="graph0" class="graph" transform="scale(1 1) rotate(0) translate(4 147)"><title>NEFullyConnectedLayerReshapeWeights</title><polygon fill="#fff" stroke="none" points="-4 4 -4 -147 173 -147 173 4 -4 4"/><g id="node1" class="node"><title>Node0</title><g id="a_node1"><a xlink:title="Basic function to reshape the weights of Fully Connected layer with NEON."><polygon fill="#bfbfbf" stroke="#000" points="0 -.5 0 -30.5 169 -30.5 169 -.5 0 -.5"/><text x="8" y="-18.5" font-family="Helvetica,sans-Serif" font-size="10" text-anchor="start">NEFullyConnectedLayerReshape</text><text x="84.5" y="-7.5" font-family="Helvetica,sans-Serif" font-size="10" text-anchor="middle">Weights</text></a></g></g><g id="node2" class="node"><title>Node1</title><g id="a_node2"><a target="_top" xlink:href="classarm__compute_1_1_i_n_e_simple_function_no_border.xhtml" xlink:title="Basic interface for functions which have a single NEON kernel and no border."><polygon fill="#fff" stroke="#000" points="9 -67.5 9 -86.5 160 -86.5 160 -67.5 9 -67.5"/><text x="84.5" y="-74.5" font-family="Helvetica,sans-Serif" font-size="10" text-anchor="middle">INESimpleFunctionNoBorder</text></a></g></g><g id="edge1" class="edge"><title>Node1-&gt;Node0</title><path fill="none" stroke="#191970" d="M84.5,-57.2349C84.5,-48.5864 84.5,-38.4969 84.5,-30.523"/><polygon fill="#191970" stroke="#191970" points="81 -57.475 84.5 -67.475 88 -57.475 81 -57.475"/></g><g id="node3" class="node"><title>Node2</title><g id="a_node3"><a target="_top" xlink:href="classarm__compute_1_1_i_function.xhtml" xlink:title="Base class for all functions."><polygon fill="#fff" stroke="#000" points="55 -123.5 55 -142.5 114 -142.5 114 -123.5 55 -123.5"/><text x="84.5" y="-130.5" font-family="Helvetica,sans-Serif" font-size="10" text-anchor="middle">IFunction</text></a></g></g><g id="edge2" class="edge"><title>Node2-&gt;Node1</title><path fill="none" stroke="#191970" d="M84.5,-112.805C84.5,-103.91 84.5,-93.7798 84.5,-86.7511"/><polygon fill="#191970" stroke="#191970" points="81 -113.083 84.5 -123.083 88 -113.083 81 -113.083"/></g></g></svg>