<svg xmlns="http://www.w3.org/2000/svg" xmlns:xlink="http://www.w3.org/1999/xlink" width="176" height="140pt" viewBox="0 0 132 140"><g id="graph0" class="graph" transform="scale(1 1) rotate(0) translate(4 136)"><title>NEHOGDetectorKernel</title><polygon fill="#fff" stroke="none" points="-4 4 -4 -136 128 -136 128 4 -4 4"/><g id="node1" class="node"><title>Node0</title><g id="a_node1"><a xlink:title="NEON kernel to perform HOG detector kernel using linear SVM."><polygon fill="#bfbfbf" stroke="#000" points="0 -.5 0 -19.5 124 -19.5 124 -.5 0 -.5"/><text x="62" y="-7.5" font-family="Helvetica,sans-Serif" font-size="10" text-anchor="middle">NEHOGDetectorKernel</text></a></g></g><g id="node2" class="node"><title>Node1</title><g id="a_node2"><a target="_top" xlink:href="classarm__compute_1_1_i_c_p_p_kernel.xhtml" xlink:title="Common interface for all kernels implemented in C++."><polygon fill="#fff" stroke="#000" points="31 -56.5 31 -75.5 93 -75.5 93 -56.5 31 -56.5"/><text x="62" y="-63.5" font-family="Helvetica,sans-Serif" font-size="10" text-anchor="middle">INEKernel</text></a></g></g><g id="edge1" class="edge"><title>Node1-&gt;Node0</title><path fill="none" stroke="#191970" d="M62,-45.8045C62,-36.9102 62,-26.7798 62,-19.7511"/><polygon fill="#191970" stroke="#191970" points="58.5 -46.083 62 -56.083 65.5 -46.083 58.5 -46.083"/></g><g id="node3" class="node"><title>Node2</title><g id="a_node3"><a target="_top" xlink:href="classarm__compute_1_1_i_kernel.xhtml" xlink:title="Common information for all the kernels."><polygon fill="#fff" stroke="#000" points="38 -112.5 38 -131.5 86 -131.5 86 -112.5 38 -112.5"/><text x="62" y="-119.5" font-family="Helvetica,sans-Serif" font-size="10" text-anchor="middle">IKernel</text></a></g></g><g id="edge2" class="edge"><title>Node2-&gt;Node1</title><path fill="none" stroke="#191970" d="M62,-101.805C62,-92.9102 62,-82.7798 62,-75.7511"/><polygon fill="#191970" stroke="#191970" points="58.5 -102.083 62 -112.083 65.5 -102.083 58.5 -102.083"/></g></g></svg>