<svg xmlns="http://www.w3.org/2000/svg" xmlns:xlink="http://www.w3.org/1999/xlink" width="192" height="336" viewBox="0 0 144 252"><g id="graph0" class="graph" transform="scale(1 1) rotate(0) translate(4 248)"><title>CLWarpPerspectiveKernel</title><polygon fill="#fff" stroke="none" points="-4 4 -4 -248 140 -248 140 4 -4 4"/><g id="node1" class="node"><title>Node0</title><g id="a_node1"><a xlink:title="Interface for the warp perspective kernel."><polygon fill="#bfbfbf" stroke="#000" points="0 -.5 0 -19.5 136 -19.5 136 -.5 0 -.5"/><text x="68" y="-7.5" font-family="Helvetica,sans-Serif" font-size="10" text-anchor="middle">CLWarpPerspectiveKernel</text></a></g></g><g id="node2" class="node"><title>Node1</title><g id="a_node2"><a target="_top" xlink:href="classarm__compute_1_1_i_c_l_simple2_d_kernel.xhtml" xlink:title="Interface for simple OpenCL kernels having 1 tensor input and 1 tensor output."><polygon fill="#fff" stroke="#000" points="14.5 -56.5 14.5 -75.5 121.5 -75.5 121.5 -56.5 14.5 -56.5"/><text x="68" y="-63.5" font-family="Helvetica,sans-Serif" font-size="10" text-anchor="middle">ICLSimple2DKernel</text></a></g></g><g id="edge1" class="edge"><title>Node1-&gt;Node0</title><path fill="none" stroke="#191970" d="M68,-45.8045C68,-36.9102 68,-26.7798 68,-19.7511"/><polygon fill="#191970" stroke="#191970" points="64.5 -46.083 68 -56.083 71.5 -46.083 64.5 -46.083"/></g><g id="node3" class="node"><title>Node2</title><g id="a_node3"><a target="_top" xlink:href="classarm__compute_1_1_i_c_l_simple_kernel.xhtml" xlink:title="Interface for simple OpenCL kernels having 1 tensor input and 1 tensor output."><polygon fill="#fff" stroke="#000" points="21.5 -112.5 21.5 -131.5 114.5 -131.5 114.5 -112.5 21.5 -112.5"/><text x="68" y="-119.5" font-family="Helvetica,sans-Serif" font-size="10" text-anchor="middle">ICLSimpleKernel</text></a></g></g><g id="edge2" class="edge"><title>Node2-&gt;Node1</title><path fill="none" stroke="#191970" d="M68,-101.805C68,-92.9102 68,-82.7798 68,-75.7511"/><polygon fill="#191970" stroke="#191970" points="64.5 -102.083 68 -112.083 71.5 -102.083 64.5 -102.083"/></g><g id="node4" class="node"><title>Node3</title><g id="a_node4"><a target="_top" xlink:href="classarm__compute_1_1_i_c_l_kernel.xhtml" xlink:title="Common interface for all the OpenCL kernels."><polygon fill="#fff" stroke="#000" points="38 -168.5 38 -187.5 98 -187.5 98 -168.5 38 -168.5"/><text x="68" y="-175.5" font-family="Helvetica,sans-Serif" font-size="10" text-anchor="middle">ICLKernel</text></a></g></g><g id="edge3" class="edge"><title>Node3-&gt;Node2</title><path fill="none" stroke="#191970" d="M68,-157.805C68,-148.91 68,-138.78 68,-131.751"/><polygon fill="#191970" stroke="#191970" points="64.5 -158.083 68 -168.083 71.5 -158.083 64.5 -158.083"/></g><g id="node5" class="node"><title>Node4</title><g id="a_node5"><a target="_top" xlink:href="classarm__compute_1_1_i_kernel.xhtml" xlink:title="Common information for all the kernels."><polygon fill="#fff" stroke="#000" points="44 -224.5 44 -243.5 92 -243.5 92 -224.5 44 -224.5"/><text x="68" y="-231.5" font-family="Helvetica,sans-Serif" font-size="10" text-anchor="middle">IKernel</text></a></g></g><g id="edge4" class="edge"><title>Node4-&gt;Node3</title><path fill="none" stroke="#191970" d="M68,-213.805C68,-204.91 68,-194.78 68,-187.751"/><polygon fill="#191970" stroke="#191970" points="64.5 -214.083 68 -224.083 71.5 -214.083 64.5 -214.083"/></g></g></svg>