<svg xmlns="http://www.w3.org/2000/svg" xmlns:xlink="http://www.w3.org/1999/xlink" width="244" height="151pt" viewBox="0 0 183 151"><g id="graph0" class="graph" transform="scale(1 1) rotate(0) translate(4 147)"><title>CLConvertFullyConnectedWeightsKernel</title><polygon fill="#fff" stroke="none" points="-4 4 -4 -147 179 -147 179 4 -4 4"/><g id="node1" class="node"><title>Node0</title><g id="a_node1"><a xlink:title="Interface to convert the 2D Fully Connected weights from NCHW to NHWC or vice versa."><polygon fill="#bfbfbf" stroke="#000" points="0 -.5 0 -30.5 175 -30.5 175 -.5 0 -.5"/><text x="8" y="-18.5" font-family="Helvetica,sans-Serif" font-size="10" text-anchor="start">CLConvertFullyConnectedWeights</text><text x="87.5" y="-7.5" font-family="Helvetica,sans-Serif" font-size="10" text-anchor="middle">Kernel</text></a></g></g><g id="node2" class="node"><title>Node1</title><g id="a_node2"><a target="_top" xlink:href="classarm__compute_1_1_i_c_l_kernel.xhtml" xlink:title="Common interface for all the OpenCL kernels."><polygon fill="#fff" stroke="#000" points="57.5 -67.5 57.5 -86.5 117.5 -86.5 117.5 -67.5 57.5 -67.5"/><text x="87.5" y="-74.5" font-family="Helvetica,sans-Serif" font-size="10" text-anchor="middle">ICLKernel</text></a></g></g><g id="edge1" class="edge"><title>Node1-&gt;Node0</title><path fill="none" stroke="#191970" d="M87.5,-57.2349C87.5,-48.5864 87.5,-38.4969 87.5,-30.523"/><polygon fill="#191970" stroke="#191970" points="84 -57.475 87.5 -67.475 91 -57.475 84 -57.475"/></g><g id="node3" class="node"><title>Node2</title><g id="a_node3"><a target="_top" xlink:href="classarm__compute_1_1_i_kernel.xhtml" xlink:title="Common information for all the kernels."><polygon fill="#fff" stroke="#000" points="63.5 -123.5 63.5 -142.5 111.5 -142.5 111.5 -123.5 63.5 -123.5"/><text x="87.5" y="-130.5" font-family="Helvetica,sans-Serif" font-size="10" text-anchor="middle">IKernel</text></a></g></g><g id="edge2" class="edge"><title>Node2-&gt;Node1</title><path fill="none" stroke="#191970" d="M87.5,-112.805C87.5,-103.91 87.5,-93.7798 87.5,-86.7511"/><polygon fill="#191970" stroke="#191970" points="84 -113.083 87.5 -123.083 91 -113.083 84 -113.083"/></g></g></svg>