<svg xmlns="http://www.w3.org/2000/svg" xmlns:xlink="http://www.w3.org/1999/xlink" width="152" height="140pt" viewBox="0 0 114 140"><g id="graph0" class="graph" transform="scale(1 1) rotate(0) translate(4 136)"><title>CLDerivativeKernel</title><polygon fill="#fff" stroke="none" points="-4 4 -4 -136 110 -136 110 4 -4 4"/><g id="node1" class="node"><title>Node0</title><g id="a_node1"><a xlink:title="Interface for the derivative kernel."><polygon fill="#bfbfbf" stroke="#000" points="0 -.5 0 -19.5 106 -19.5 106 -.5 0 -.5"/><text x="53" y="-7.5" font-family="Helvetica,sans-Serif" font-size="10" text-anchor="middle">CLDerivativeKernel</text></a></g></g><g id="node2" class="node"><title>Node1</title><g id="a_node2"><a target="_top" xlink:href="classarm__compute_1_1_i_c_l_kernel.xhtml" xlink:title="Common interface for all the OpenCL kernels."><polygon fill="#fff" stroke="#000" points="23 -56.5 23 -75.5 83 -75.5 83 -56.5 23 -56.5"/><text x="53" y="-63.5" font-family="Helvetica,sans-Serif" font-size="10" text-anchor="middle">ICLKernel</text></a></g></g><g id="edge1" class="edge"><title>Node1-&gt;Node0</title><path fill="none" stroke="#191970" d="M53,-45.8045C53,-36.9102 53,-26.7798 53,-19.7511"/><polygon fill="#191970" stroke="#191970" points="49.5 -46.083 53 -56.083 56.5 -46.083 49.5 -46.083"/></g><g id="node3" class="node"><title>Node2</title><g id="a_node3"><a target="_top" xlink:href="classarm__compute_1_1_i_kernel.xhtml" xlink:title="Common information for all the kernels."><polygon fill="#fff" stroke="#000" points="29 -112.5 29 -131.5 77 -131.5 77 -112.5 29 -112.5"/><text x="53" y="-119.5" font-family="Helvetica,sans-Serif" font-size="10" text-anchor="middle">IKernel</text></a></g></g><g id="edge2" class="edge"><title>Node2-&gt;Node1</title><path fill="none" stroke="#191970" d="M53,-101.805C53,-92.9102 53,-82.7798 53,-75.7511"/><polygon fill="#191970" stroke="#191970" points="49.5 -102.083 53 -112.083 56.5 -102.083 49.5 -102.083"/></g></g></svg>