<svg xmlns="http://www.w3.org/2000/svg" xmlns:xlink="http://www.w3.org/1999/xlink" width="260pt" height="163pt" viewBox="0 0 260 163"><g id="graph0" class="graph" transform="scale(1 1) rotate(0) translate(4 159)"><title>CLCol2ImKernel</title><polygon fill="#fff" stroke="none" points="-4 4 -4 -159 256 -159 256 4 -4 4"/><g id="node1" class="node"><title>Node0</title><g id="a_node1"><a xlink:title="Interface for the col2im reshaping kernel."><polygon fill="#bfbfbf" stroke="#000" points="62.5 -.5 62.5 -19.5 153.5 -19.5 153.5 -.5 62.5 -.5"/><text x="108" y="-7.5" font-family="Helvetica,sans-Serif" font-size="10" text-anchor="middle">CLCol2ImKernel</text></a></g></g><g id="node2" class="node"><title>Node1</title><g id="a_node2"><a target="_top" xlink:href="classarm__compute_1_1_i_c_l_kernel.xhtml" xlink:title="Common interface for all the OpenCL kernels."><polygon fill="#fff" stroke="#000" points="0 -78.5 0 -97.5 60 -97.5 60 -78.5 0 -78.5"/><text x="30" y="-85.5" font-family="Helvetica,sans-Serif" font-size="10" text-anchor="middle">ICLKernel</text></a></g></g><g id="edge1" class="edge"><title>Node1-&gt;Node0</title><path fill="none" stroke="#191970" d="M46.5493,-70.875C62.6203,-55.2161 86.4041,-32.0422 99.1568,-19.6165"/><polygon fill="#191970" stroke="#191970" points="43.667 -68.796 38.948 -78.282 48.553 -73.81 43.667 -68.796"/></g><g id="node3" class="node"><title>Node2</title><g id="a_node3"><a target="_top" xlink:href="classarm__compute_1_1_i_kernel.xhtml" xlink:title="Common information for all the kernels."><polygon fill="#fff" stroke="#000" points="6 -135.5 6 -154.5 54 -154.5 54 -135.5 6 -135.5"/><text x="30" y="-142.5" font-family="Helvetica,sans-Serif" font-size="10" text-anchor="middle">IKernel</text></a></g></g><g id="edge2" class="edge"><title>Node2-&gt;Node1</title><path fill="none" stroke="#191970" d="M30,-125.117C30,-115.817 30,-105.056 30,-97.7149"/><polygon fill="#191970" stroke="#191970" points="26.5 -125.406 30 -135.406 33.5 -125.406 26.5 -125.406"/></g><g id="node4" class="node"><title>Node3</title><g id="a_node4"><a target="_top" xlink:href="classarm__compute_1_1_i_c_l_tensor.xhtml" xlink:title="Interface for OpenCL tensor."><polygon fill="#fff" stroke="#000" points="78 -78.5 78 -97.5 138 -97.5 138 -78.5 78 -78.5"/><text x="108" y="-85.5" font-family="Helvetica,sans-Serif" font-size="10" text-anchor="middle">ICLTensor</text></a></g></g><g id="edge3" class="edge"><title>Node3-&gt;Node0</title><path fill="none" stroke="#9a32cd" stroke-dasharray="5 2" d="M108,-68.2239C108,-52.6974 108,-31.3582 108,-19.6165"/><polygon fill="#9a32cd" stroke="#9a32cd" points="104.5 -68.282 108 -78.282 111.5 -68.282 104.5 -68.282"/><text x="128" y="-52" font-family="Helvetica,sans-Serif" font-size="10" text-anchor="middle">_output</text><text x="128" y="-41" font-family="Helvetica,sans-Serif" font-size="10" text-anchor="middle">_input</text></g><g id="node5" class="node"><title>Node4</title><g id="a_node5"><a target="_top" xlink:href="classarm__compute_1_1_i_tensor.xhtml" xlink:title="Interface for NEON tensor."><polygon fill="#fff" stroke="#000" points="83 -135.5 83 -154.5 133 -154.5 133 -135.5 83 -135.5"/><text x="108" y="-142.5" font-family="Helvetica,sans-Serif" font-size="10" text-anchor="middle">ITensor</text></a></g></g><g id="edge4" class="edge"><title>Node4-&gt;Node3</title><path fill="none" stroke="#191970" d="M108,-125.117C108,-115.817 108,-105.056 108,-97.7149"/><polygon fill="#191970" stroke="#191970" points="104.5 -125.406 108 -135.406 111.5 -125.406 104.5 -125.406"/></g><g id="node6" class="node"><title>Node5</title><g id="a_node6"><a target="_top" xlink:href="classarm__compute_1_1_size2_d.xhtml" xlink:title="Class for specifying the size of an image or rectangle."><polygon fill="#fff" stroke="#000" points="156 -78.5 156 -97.5 206 -97.5 206 -78.5 156 -78.5"/><text x="181" y="-85.5" font-family="Helvetica,sans-Serif" font-size="10" text-anchor="middle">Size2D</text></a></g></g><g id="edge5" class="edge"><title>Node5-&gt;Node0</title><path fill="none" stroke="#9a32cd" stroke-dasharray="5 2" d="M172.939,-68.8341C167.918,-58.919 160.748,-46.8895 152,-38 144.582,-30.4623 134.654,-24.1369 126.106,-19.5077"/><polygon fill="#9a32cd" stroke="#9a32cd" points="169.924 -70.645 177.371 -78.181 176.249 -67.646 169.924 -70.645"/><text x="209.5" y="-46.5" font-family="Helvetica,sans-Serif" font-size="10" text-anchor="middle">_convolved_dims</text></g></g></svg>