<svg xmlns="http://www.w3.org/2000/svg" xmlns:xlink="http://www.w3.org/1999/xlink" width="212" height="140pt" viewBox="0 0 159 140"><g id="graph0" class="graph" transform="scale(1 1) rotate(0) translate(4 136)"><title>NEBitwiseAnd</title><polygon fill="#fff" stroke="none" points="-4 4 -4 -136 155 -136 155 4 -4 4"/><g id="node1" class="node"><title>Node0</title><g id="a_node1"><a xlink:title="Basic function to run NEBitwiseAndKernel."><polygon fill="#bfbfbf" stroke="#000" points="34.5 -.5 34.5 -19.5 116.5 -19.5 116.5 -.5 34.5 -.5"/><text x="75.5" y="-7.5" font-family="Helvetica,sans-Serif" font-size="10" text-anchor="middle">NEBitwiseAnd</text></a></g></g><g id="node2" class="node"><title>Node1</title><g id="a_node2"><a target="_top" xlink:href="classarm__compute_1_1_i_n_e_simple_function_no_border.xhtml" xlink:title="Basic interface for functions which have a single NEON kernel and no border."><polygon fill="#fff" stroke="#000" points="0 -56.5 0 -75.5 151 -75.5 151 -56.5 0 -56.5"/><text x="75.5" y="-63.5" font-family="Helvetica,sans-Serif" font-size="10" text-anchor="middle">INESimpleFunctionNoBorder</text></a></g></g><g id="edge1" class="edge"><title>Node1-&gt;Node0</title><path fill="none" stroke="#191970" d="M75.5,-45.8045C75.5,-36.9102 75.5,-26.7798 75.5,-19.7511"/><polygon fill="#191970" stroke="#191970" points="72 -46.083 75.5 -56.083 79 -46.083 72 -46.083"/></g><g id="node3" class="node"><title>Node2</title><g id="a_node3"><a target="_top" xlink:href="classarm__compute_1_1_i_function.xhtml" xlink:title="Base class for all functions."><polygon fill="#fff" stroke="#000" points="46 -112.5 46 -131.5 105 -131.5 105 -112.5 46 -112.5"/><text x="75.5" y="-119.5" font-family="Helvetica,sans-Serif" font-size="10" text-anchor="middle">IFunction</text></a></g></g><g id="edge2" class="edge"><title>Node2-&gt;Node1</title><path fill="none" stroke="#191970" d="M75.5,-101.805C75.5,-92.9102 75.5,-82.7798 75.5,-75.7511"/><polygon fill="#191970" stroke="#191970" points="72 -102.083 75.5 -112.083 79 -102.083 72 -102.083"/></g></g></svg>