<svg xmlns="http://www.w3.org/2000/svg" xmlns:xlink="http://www.w3.org/1999/xlink" width="169pt" height="196pt" viewBox="0 0 169 196"><g id="graph0" class="graph" transform="scale(1 1) rotate(0) translate(4 192)"><title>CLGaussianPyramidVertKernel</title><polygon fill="#fff" stroke="none" points="-4 4 -4 -192 165 -192 165 4 -4 4"/><g id="node1" class="node"><title>Node0</title><g id="a_node1"><a xlink:title="OpenCL kernel to perform a Gaussian filter and half scaling across height (vertical pass)"><polygon fill="#bfbfbf" stroke="#000" points="0 -.5 0 -19.5 161 -19.5 161 -.5 0 -.5"/><text x="80.5" y="-7.5" font-family="Helvetica,sans-Serif" font-size="10" text-anchor="middle">CLGaussianPyramidVertKernel</text></a></g></g><g id="node2" class="node"><title>Node1</title><g id="a_node2"><a target="_top" xlink:href="classarm__compute_1_1_i_c_l_simple_kernel.xhtml" xlink:title="Interface for simple OpenCL kernels having 1 tensor input and 1 tensor output."><polygon fill="#fff" stroke="#000" points="34 -56.5 34 -75.5 127 -75.5 127 -56.5 34 -56.5"/><text x="80.5" y="-63.5" font-family="Helvetica,sans-Serif" font-size="10" text-anchor="middle">ICLSimpleKernel</text></a></g></g><g id="edge1" class="edge"><title>Node1-&gt;Node0</title><path fill="none" stroke="#191970" d="M80.5,-45.8045C80.5,-36.9102 80.5,-26.7798 80.5,-19.7511"/><polygon fill="#191970" stroke="#191970" points="77 -46.083 80.5 -56.083 84 -46.083 77 -46.083"/></g><g id="node3" class="node"><title>Node2</title><g id="a_node3"><a target="_top" xlink:href="classarm__compute_1_1_i_c_l_kernel.xhtml" xlink:title="Common interface for all the OpenCL kernels."><polygon fill="#fff" stroke="#000" points="50.5 -112.5 50.5 -131.5 110.5 -131.5 110.5 -112.5 50.5 -112.5"/><text x="80.5" y="-119.5" font-family="Helvetica,sans-Serif" font-size="10" text-anchor="middle">ICLKernel</text></a></g></g><g id="edge2" class="edge"><title>Node2-&gt;Node1</title><path fill="none" stroke="#191970" d="M80.5,-101.805C80.5,-92.9102 80.5,-82.7798 80.5,-75.7511"/><polygon fill="#191970" stroke="#191970" points="77 -102.083 80.5 -112.083 84 -102.083 77 -102.083"/></g><g id="node4" class="node"><title>Node3</title><g id="a_node4"><a target="_top" xlink:href="classarm__compute_1_1_i_kernel.xhtml" xlink:title="Common information for all the kernels."><polygon fill="#fff" stroke="#000" points="56.5 -168.5 56.5 -187.5 104.5 -187.5 104.5 -168.5 56.5 -168.5"/><text x="80.5" y="-175.5" font-family="Helvetica,sans-Serif" font-size="10" text-anchor="middle">IKernel</text></a></g></g><g id="edge3" class="edge"><title>Node3-&gt;Node2</title><path fill="none" stroke="#191970" d="M80.5,-157.805C80.5,-148.91 80.5,-138.78 80.5,-131.751"/><polygon fill="#191970" stroke="#191970" points="77 -158.083 80.5 -168.083 84 -158.083 77 -158.083"/></g></g></svg>