<svg xmlns="http://www.w3.org/2000/svg" xmlns:xlink="http://www.w3.org/1999/xlink" width="256" height="209pt" viewBox="0 0 191.5 209"><g id="graph0" class="graph" transform="scale(1 1) rotate(0) translate(4 205)"><title>ToggleOption</title><polygon fill="#fff" stroke="none" points="-4 4 -4 -205 187.5 -205 187.5 4 -4 4"/><g id="node1" class="node"><title>Node0</title><g id="a_node1"><a xlink:title="Implementation of an option that can be either true or false."><polygon fill="#bfbfbf" stroke="#000" points="23 -.5 23 -19.5 101 -19.5 101 -.5 23 -.5"/><text x="62" y="-7.5" font-family="Helvetica,sans-Serif" font-size="10" text-anchor="middle">ToggleOption</text></a></g></g><g id="node2" class="node"><title>Node1</title><g id="a_node2"><a target="_top" xlink:href="classarm__compute_1_1utils_1_1_simple_option.xhtml"><polygon fill="#fff" stroke="#000" points="0 -57.5 0 -76.5 124 -76.5 124 -57.5 0 -57.5"/><text x="62" y="-64.5" font-family="Helvetica,sans-Serif" font-size="10" text-anchor="middle">SimpleOption&lt; bool &gt;</text></a></g></g><g id="edge1" class="edge"><title>Node1-&gt;Node0</title><path fill="none" stroke="#191970" d="M62,-47.1166C62,-37.8173 62,-27.0557 62,-19.7149"/><polygon fill="#191970" stroke="#191970" points="58.5 -47.406 62 -57.406 65.5 -47.406 58.5 -47.406"/></g><g id="node3" class="node"><title>Node2</title><g id="a_node3"><a target="_top" xlink:href="classarm__compute_1_1utils_1_1_option.xhtml" xlink:title="Abstract base class for a command line option."><polygon fill="#fff" stroke="#000" points="49 -181.5 49 -200.5 97 -200.5 97 -181.5 49 -181.5"/><text x="73" y="-188.5" font-family="Helvetica,sans-Serif" font-size="10" text-anchor="middle">Option</text></a></g></g><g id="edge2" class="edge"><title>Node2-&gt;Node1</title><path fill="none" stroke="#191970" d="M69.1381,-171.14C67.5916,-162.85 65.9536,-152.978 65,-144 62.4337,-119.839 62.0066,-91.1478 61.9694,-76.9201"/><polygon fill="#191970" stroke="#191970" points="65.758 -172.091 71.117 -181.23 72.627 -170.744 65.758 -172.091"/></g><g id="node4" class="node"><title>Node3</title><g id="a_node4"><a target="_top" xlink:href="classarm__compute_1_1utils_1_1_simple_option.xhtml" xlink:title="Implementation of an option that accepts a single value."><polygon fill="#fff" stroke="#000" points="74.5 -124.5 74.5 -143.5 183.5 -143.5 183.5 -124.5 74.5 -124.5"/><text x="129" y="-131.5" font-family="Helvetica,sans-Serif" font-size="10" text-anchor="middle">SimpleOption&lt; T &gt;</text></a></g></g><g id="edge4" class="edge"><title>Node2-&gt;Node3</title><path fill="none" stroke="#191970" d="M89.1658,-174.123C99.2448,-164.224 111.831,-151.862 120.127,-143.715"/><polygon fill="#191970" stroke="#191970" points="86.432 -171.902 81.75 -181.406 91.337 -176.896 86.432 -171.902"/></g><g id="edge3" class="edge"><title>Node3-&gt;Node1</title><path fill="none" stroke="orange" stroke-dasharray="5 2" d="M112.504,-116.997C99.365,-104.25 81.4761,-86.8947 70.8928,-76.6273"/><polygon fill="orange" stroke="orange" points="110.35 -119.783 119.964 -124.234 115.224 -114.759 110.35 -119.783"/><text x="122" y="-98" font-family="Helvetica,sans-Serif" font-size="10" text-anchor="middle">&lt; bool &gt;</text></g></g></svg>