<svg xmlns="http://www.w3.org/2000/svg" xmlns:xlink="http://www.w3.org/1999/xlink" width="190pt" height="140pt" viewBox="0 0 190 140"><g id="graph0" class="graph" transform="scale(1 1) rotate(0) translate(4 136)"><title>NEEdgeNonMaxSuppressionKernel</title><polygon fill="#fff" stroke="none" points="-4 4 -4 -136 186 -136 186 4 -4 4"/><g id="node1" class="node"><title>Node0</title><g id="a_node1"><a xlink:title="NEON kernel to perform Non-Maxima suppression for Canny Edge."><polygon fill="#bfbfbf" stroke="#000" points="0 -.5 0 -19.5 182 -19.5 182 -.5 0 -.5"/><text x="91" y="-7.5" font-family="Helvetica,sans-Serif" font-size="10" text-anchor="middle">NEEdgeNonMaxSuppressionKernel</text></a></g></g><g id="node2" class="node"><title>Node1</title><g id="a_node2"><a target="_top" xlink:href="classarm__compute_1_1_i_c_p_p_kernel.xhtml" xlink:title="Common interface for all kernels implemented in C++."><polygon fill="#fff" stroke="#000" points="60 -56.5 60 -75.5 122 -75.5 122 -56.5 60 -56.5"/><text x="91" y="-63.5" font-family="Helvetica,sans-Serif" font-size="10" text-anchor="middle">INEKernel</text></a></g></g><g id="edge1" class="edge"><title>Node1-&gt;Node0</title><path fill="none" stroke="#191970" d="M91,-45.8045C91,-36.9102 91,-26.7798 91,-19.7511"/><polygon fill="#191970" stroke="#191970" points="87.5 -46.083 91 -56.083 94.5 -46.083 87.5 -46.083"/></g><g id="node3" class="node"><title>Node2</title><g id="a_node3"><a target="_top" xlink:href="classarm__compute_1_1_i_kernel.xhtml" xlink:title="Common information for all the kernels."><polygon fill="#fff" stroke="#000" points="67 -112.5 67 -131.5 115 -131.5 115 -112.5 67 -112.5"/><text x="91" y="-119.5" font-family="Helvetica,sans-Serif" font-size="10" text-anchor="middle">IKernel</text></a></g></g><g id="edge2" class="edge"><title>Node2-&gt;Node1</title><path fill="none" stroke="#191970" d="M91,-101.805C91,-92.9102 91,-82.7798 91,-75.7511"/><polygon fill="#191970" stroke="#191970" points="87.5 -102.083 91 -112.083 94.5 -102.083 87.5 -102.083"/></g></g></svg>