<svg xmlns="http://www.w3.org/2000/svg" xmlns:xlink="http://www.w3.org/1999/xlink" width="92pt" height="140pt" viewBox="0 0 92 140"><g id="graph0" class="graph" transform="scale(1 1) rotate(0) translate(4 136)"><title>CLArray&lt; T &gt;</title><polygon fill="#fff" stroke="none" points="-4 4 -4 -136 88 -136 88 4 -4 4"/><g id="node1" class="node"><title>Node0</title><g id="a_node1"><a xlink:title="CLArray implementation."><polygon fill="#bfbfbf" stroke="#000" points="1 -.5 1 -19.5 83 -19.5 83 -.5 1 -.5"/><text x="42" y="-7.5" font-family="Helvetica,sans-Serif" font-size="10" text-anchor="middle">CLArray&lt; T &gt;</text></a></g></g><g id="node2" class="node"><title>Node1</title><g id="a_node2"><a target="_top" xlink:href="classarm__compute_1_1_i_c_l_array.xhtml" xlink:title="Interface for OpenCL Array."><polygon fill="#fff" stroke="#000" points="0 -56.5 0 -75.5 84 -75.5 84 -56.5 0 -56.5"/><text x="42" y="-63.5" font-family="Helvetica,sans-Serif" font-size="10" text-anchor="middle">ICLArray&lt; T &gt;</text></a></g></g><g id="edge1" class="edge"><title>Node1-&gt;Node0</title><path fill="none" stroke="#191970" d="M42,-45.8045C42,-36.9102 42,-26.7798 42,-19.7511"/><polygon fill="#191970" stroke="#191970" points="38.5 -46.083 42 -56.083 45.5 -46.083 38.5 -46.083"/></g><g id="node3" class="node"><title>Node2</title><g id="a_node3"><a target="_top" xlink:href="classarm__compute_1_1_i_array.xhtml" xlink:title="Array of type T."><polygon fill="#fff" stroke="#000" points="6 -112.5 6 -131.5 78 -131.5 78 -112.5 6 -112.5"/><text x="42" y="-119.5" font-family="Helvetica,sans-Serif" font-size="10" text-anchor="middle">IArray&lt; T &gt;</text></a></g></g><g id="edge2" class="edge"><title>Node2-&gt;Node1</title><path fill="none" stroke="#191970" d="M42,-101.805C42,-92.9102 42,-82.7798 42,-75.7511"/><polygon fill="#191970" stroke="#191970" points="38.5 -102.083 42 -112.083 45.5 -102.083 38.5 -102.083"/></g></g></svg>