<svg xmlns="http://www.w3.org/2000/svg" xmlns:xlink="http://www.w3.org/1999/xlink" width="181pt" height="276" viewBox="0 0 181 207"><g id="graph0" class="graph" transform="scale(1 1) rotate(0) translate(4 203)"><title>CLSaturatedArithmeticOperationKernel</title><polygon fill="#fff" stroke="none" points="-4 4 -4 -203 177 -203 177 4 -4 4"/><g id="node1" class="node"><title>Node0</title><g id="a_node1"><a xlink:title="Addition operation."><polygon fill="#bfbfbf" stroke="#000" points="0 -.5 0 -30.5 173 -30.5 173 -.5 0 -.5"/><text x="8" y="-18.5" font-family="Helvetica,sans-Serif" font-size="10" text-anchor="start">CLSaturatedArithmeticOperation</text><text x="86.5" y="-7.5" font-family="Helvetica,sans-Serif" font-size="10" text-anchor="middle">Kernel</text></a></g></g><g id="node2" class="node"><title>Node1</title><g id="a_node2"><a target="_top" xlink:href="classarm__compute_1_1_c_l_elementwise_operation_kernel.xhtml" xlink:title="Interface for an element-wise operation kernel."><polygon fill="#fff" stroke="#000" points="4 -67.5 4 -86.5 169 -86.5 169 -67.5 4 -67.5"/><text x="86.5" y="-74.5" font-family="Helvetica,sans-Serif" font-size="10" text-anchor="middle">CLElementwiseOperationKernel</text></a></g></g><g id="edge1" class="edge"><title>Node1-&gt;Node0</title><path fill="none" stroke="#191970" d="M86.5,-57.2349C86.5,-48.5864 86.5,-38.4969 86.5,-30.523"/><polygon fill="#191970" stroke="#191970" points="83 -57.475 86.5 -67.475 90 -57.475 83 -57.475"/></g><g id="node3" class="node"><title>Node2</title><g id="a_node3"><a target="_top" xlink:href="classarm__compute_1_1_i_c_l_kernel.xhtml" xlink:title="Common interface for all the OpenCL kernels."><polygon fill="#fff" stroke="#000" points="56.5 -123.5 56.5 -142.5 116.5 -142.5 116.5 -123.5 56.5 -123.5"/><text x="86.5" y="-130.5" font-family="Helvetica,sans-Serif" font-size="10" text-anchor="middle">ICLKernel</text></a></g></g><g id="edge2" class="edge"><title>Node2-&gt;Node1</title><path fill="none" stroke="#191970" d="M86.5,-112.805C86.5,-103.91 86.5,-93.7798 86.5,-86.7511"/><polygon fill="#191970" stroke="#191970" points="83 -113.083 86.5 -123.083 90 -113.083 83 -113.083"/></g><g id="node4" class="node"><title>Node3</title><g id="a_node4"><a target="_top" xlink:href="classarm__compute_1_1_i_kernel.xhtml" xlink:title="Common information for all the kernels."><polygon fill="#fff" stroke="#000" points="62.5 -179.5 62.5 -198.5 110.5 -198.5 110.5 -179.5 62.5 -179.5"/><text x="86.5" y="-186.5" font-family="Helvetica,sans-Serif" font-size="10" text-anchor="middle">IKernel</text></a></g></g><g id="edge3" class="edge"><title>Node3-&gt;Node2</title><path fill="none" stroke="#191970" d="M86.5,-168.805C86.5,-159.91 86.5,-149.78 86.5,-142.751"/><polygon fill="#191970" stroke="#191970" points="83 -169.083 86.5 -179.083 90 -169.083 83 -169.083"/></g></g></svg>