<svg xmlns="http://www.w3.org/2000/svg" xmlns:xlink="http://www.w3.org/1999/xlink" width="130pt" height="308pt" viewBox="0 0 130 308"><g id="graph0" class="graph" transform="scale(1 1) rotate(0) translate(4 304)"><title>GCLogits1DMaxKernel</title><polygon fill="#fff" stroke="none" points="-4 4 -4 -304 126 -304 126 4 -4 4"/><g id="node1" class="node"><title>Node0</title><g id="a_node1"><a xlink:title="Interface for the identifying the max value of 1D Logits."><polygon fill="#bfbfbf" stroke="#000" points="0 -.5 0 -19.5 122 -19.5 122 -.5 0 -.5"/><text x="61" y="-7.5" font-family="Helvetica,sans-Serif" font-size="10" text-anchor="middle">GCLogits1DMaxKernel</text></a></g></g><g id="node2" class="node"><title>Node1</title><g id="a_node2"><a target="_top" xlink:href="classarm__compute_1_1_i_g_c_simple3_d_kernel.xhtml" xlink:title="Interface for simple GLES kernels having 1 tensor input and 1 tensor output."><polygon fill="#fff" stroke="#000" points="6.5 -56.5 6.5 -75.5 115.5 -75.5 115.5 -56.5 6.5 -56.5"/><text x="61" y="-63.5" font-family="Helvetica,sans-Serif" font-size="10" text-anchor="middle">IGCSimple3DKernel</text></a></g></g><g id="edge1" class="edge"><title>Node1-&gt;Node0</title><path fill="none" stroke="#191970" d="M61,-45.8045C61,-36.9102 61,-26.7798 61,-19.7511"/><polygon fill="#191970" stroke="#191970" points="57.5 -46.083 61 -56.083 64.5 -46.083 57.5 -46.083"/></g><g id="node3" class="node"><title>Node2</title><g id="a_node3"><a target="_top" xlink:href="classarm__compute_1_1_i_g_c_simple2_d_kernel.xhtml" xlink:title="Interface for simple OpenGL ES kernels having 1 tensor input and 1 tensor output."><polygon fill="#fff" stroke="#000" points="6.5 -112.5 6.5 -131.5 115.5 -131.5 115.5 -112.5 6.5 -112.5"/><text x="61" y="-119.5" font-family="Helvetica,sans-Serif" font-size="10" text-anchor="middle">IGCSimple2DKernel</text></a></g></g><g id="edge2" class="edge"><title>Node2-&gt;Node1</title><path fill="none" stroke="#191970" d="M61,-101.805C61,-92.9102 61,-82.7798 61,-75.7511"/><polygon fill="#191970" stroke="#191970" points="57.5 -102.083 61 -112.083 64.5 -102.083 57.5 -102.083"/></g><g id="node4" class="node"><title>Node3</title><g id="a_node4"><a target="_top" xlink:href="classarm__compute_1_1_i_g_c_simple_kernel.xhtml" xlink:title="Interface for simple OpenGL ES kernels having 1 tensor input and 1 tensor output."><polygon fill="#fff" stroke="#000" points="13.5 -168.5 13.5 -187.5 108.5 -187.5 108.5 -168.5 13.5 -168.5"/><text x="61" y="-175.5" font-family="Helvetica,sans-Serif" font-size="10" text-anchor="middle">IGCSimpleKernel</text></a></g></g><g id="edge3" class="edge"><title>Node3-&gt;Node2</title><path fill="none" stroke="#191970" d="M61,-157.805C61,-148.91 61,-138.78 61,-131.751"/><polygon fill="#191970" stroke="#191970" points="57.5 -158.083 61 -168.083 64.5 -158.083 57.5 -158.083"/></g><g id="node5" class="node"><title>Node4</title><g id="a_node5"><a target="_top" xlink:href="classarm__compute_1_1_i_g_c_kernel.xhtml" xlink:title="Common interface for all the GLES kernels."><polygon fill="#fff" stroke="#000" points="30 -224.5 30 -243.5 92 -243.5 92 -224.5 30 -224.5"/><text x="61" y="-231.5" font-family="Helvetica,sans-Serif" font-size="10" text-anchor="middle">IGCKernel</text></a></g></g><g id="edge4" class="edge"><title>Node4-&gt;Node3</title><path fill="none" stroke="#191970" d="M61,-213.805C61,-204.91 61,-194.78 61,-187.751"/><polygon fill="#191970" stroke="#191970" points="57.5 -214.083 61 -224.083 64.5 -214.083 57.5 -214.083"/></g><g id="node6" class="node"><title>Node5</title><g id="a_node6"><a target="_top" xlink:href="classarm__compute_1_1_i_kernel.xhtml" xlink:title="Common information for all the kernels."><polygon fill="#fff" stroke="#000" points="37 -280.5 37 -299.5 85 -299.5 85 -280.5 37 -280.5"/><text x="61" y="-287.5" font-family="Helvetica,sans-Serif" font-size="10" text-anchor="middle">IKernel</text></a></g></g><g id="edge5" class="edge"><title>Node5-&gt;Node4</title><path fill="none" stroke="#191970" d="M61,-269.805C61,-260.91 61,-250.78 61,-243.751"/><polygon fill="#191970" stroke="#191970" points="57.5 -270.083 61 -280.083 64.5 -270.083 57.5 -270.083"/></g></g></svg>