<svg xmlns="http://www.w3.org/2000/svg" xmlns:xlink="http://www.w3.org/1999/xlink" width="152pt" height="308" viewBox="0 0 152 231"><g id="graph0" class="graph" transform="scale(1 1) rotate(0) translate(4 227)"><title>arm_compute/runtime/GLES_COMPUTE</title><polygon fill="#fff" stroke="none" points="-4 4 -4 -227 148 -227 148 4 -4 4"/><g id="clust1" class="cluster"><title>clusterdir_8bc26130589aa16388b5a02f17abf2c2</title><g id="a_clust1"><a target="_top" xlink:href="dir_8bc26130589aa16388b5a02f17abf2c2.xhtml" xlink:title="runtime"><polygon fill="#dde" stroke="#000" points="8 -56 8 -215 136 -215 136 -56 8 -56"/><text x="72" y="-203" font-family="Helvetica,sans-Serif" font-size="10" text-anchor="middle">runtime</text></a></g></g><g id="clust2" class="cluster"><title>clusterdir_e83fa7cb9796f3ad7be03e3d9fcd3249</title><g id="a_clust2"><a target="_top" xlink:href="dir_e83fa7cb9796f3ad7be03e3d9fcd3249.xhtml"><polygon fill="#eef" stroke="#000" points="16 -64 16 -188 128 -188 128 -64 16 -64"/></a></g></g><g id="node1" class="node"><title>dir_e83fa7cb9796f3ad7be03e3d9fcd3249</title><text x="72" y="-159.5" font-family="Helvetica,sans-Serif" font-size="10" text-anchor="middle">GLES_COMPUTE</text></g><g id="node2" class="node"><title>dir_b2d75812ef27339cb07aa08923a4a042</title><g id="a_node2"><a target="_top" xlink:href="dir_b2d75812ef27339cb07aa08923a4a042.xhtml" xlink:title="functions"><polygon fill="#fff" stroke="#000" points="102 -108 42 -108 42 -72 102 -72 102 -108"/><text x="72" y="-87.5" font-family="Helvetica,sans-Serif" font-size="10" text-anchor="middle">functions</text></a></g></g><g id="edge1" class="edge"><title>dir_e83fa7cb9796f3ad7be03e3d9fcd3249-&gt;dir_b2d75812ef27339cb07aa08923a4a042</title><path fill="none" stroke="#000" d="M72,-143.697C72,-135.983 72,-126.712 72,-118.112"/><polygon fill="#000" stroke="#000" points="75.5 -118.104 72 -108.104 68.5 -118.104 75.5 -118.104"/><g id="a_edge1-headlabel"><a target="_top" xlink:href="dir_000052_000053.xhtml" xlink:title="22"><text x="78.339" y="-119.199" font-family="Helvetica,sans-Serif" font-size="10" text-anchor="middle">22</text></a></g></g><g id="node3" class="node"><title>dir_1fb090f0c6070330bfaccc4236d3ca0d</title><g id="a_node3"><a target="_top" xlink:href="dir_1fb090f0c6070330bfaccc4236d3ca0d.xhtml" xlink:title="core"><polygon fill="#fff" stroke="red" points="99 -36 45 -36 45 0 99 0 99 -36"/><text x="72" y="-15.5" font-family="Helvetica,sans-Serif" font-size="10" text-anchor="middle">core</text></a></g></g><g id="edge2" class="edge"><title>dir_b2d75812ef27339cb07aa08923a4a042-&gt;dir_1fb090f0c6070330bfaccc4236d3ca0d</title><path fill="none" stroke="#000" d="M72,-71.6966C72,-63.9827 72,-54.7125 72,-46.1124"/><polygon fill="#000" stroke="#000" points="75.5 -46.104 72 -36.104 68.5 -46.104 75.5 -46.104"/><g id="a_edge2-headlabel"><a target="_top" xlink:href="dir_000053_000001.xhtml" xlink:title="49"><text x="78.339" y="-47.199" font-family="Helvetica,sans-Serif" font-size="10" text-anchor="middle">49</text></a></g></g></g></svg>