<svg xmlns="http://www.w3.org/2000/svg" xmlns:xlink="http://www.w3.org/1999/xlink" width="408" height="596" viewBox="0 0 306 447"><g id="graph0" class="graph" transform="scale(1 1) rotate(0) translate(4 443)"><title>tests/framework</title><polygon fill="#fff" stroke="none" points="-4 4 -4 -443 302 -443 302 4 -4 4"/><g id="clust1" class="cluster"><title>clusterdir_59425e443f801f1f2fd8bbe4959a3ccf</title><g id="a_clust1"><a target="_top" xlink:href="dir_59425e443f801f1f2fd8bbe4959a3ccf.xhtml" xlink:title="tests"><polygon fill="#dde" stroke="#000" points="8 -200 8 -431 290 -431 290 -200 8 -200"/><text x="149" y="-419" font-family="Helvetica,sans-Serif" font-size="10" text-anchor="middle">tests</text></a></g></g><g id="clust2" class="cluster"><title>clusterdir_9e71e2da941d3cafc4d98a9f6ae3de4f</title><g id="a_clust2"><a target="_top" xlink:href="dir_9e71e2da941d3cafc4d98a9f6ae3de4f.xhtml"><polygon fill="#eef" stroke="#000" points="16 -208 16 -404 282 -404 282 -208 16 -208"/></a></g></g><g id="node1" class="node"><title>dir_9e71e2da941d3cafc4d98a9f6ae3de4f</title><text x="163" y="-375.5" font-family="Helvetica,sans-Serif" font-size="10" text-anchor="middle">framework</text></g><g id="node7" class="node"><title>dir_214608ef36d61442cb2b0c1c4e9a7def</title><g id="a_node7"><a target="_top" xlink:href="dir_214608ef36d61442cb2b0c1c4e9a7def.xhtml" xlink:title="arm_compute"><polygon fill="#fff" stroke="red" points="103 -180 19 -180 19 -144 103 -144 103 -180"/><text x="61" y="-159.5" font-family="Helvetica,sans-Serif" font-size="10" text-anchor="middle">arm_compute</text></a></g></g><g id="edge7" class="edge"><title>dir_9e71e2da941d3cafc4d98a9f6ae3de4f-&gt;dir_214608ef36d61442cb2b0c1c4e9a7def</title><path fill="none" stroke="#000" d="M160.949,-359.964C156.259,-326.646 142.301,-251.609 107,-200 103.818,-195.347 99.8793,-190.986 95.6569,-187.006"/><polygon fill="#000" stroke="#000" points="97.71 -184.154 87.852 -180.272 93.137 -189.454 97.71 -184.154"/><g id="a_edge7-headlabel"><a target="_top" xlink:href="dir_000032_000000.xhtml" xlink:title="14"><text x="102.286" y="-181.852" font-family="Helvetica,sans-Serif" font-size="10" text-anchor="middle">14</text></a></g></g><g id="node2" class="node"><title>dir_d247c927d0dc22626cf668ab2bd7f080</title><g id="a_node2"><a target="_top" xlink:href="dir_d247c927d0dc22626cf668ab2bd7f080.xhtml" xlink:title="command_line"><polygon fill="#fff" stroke="#000" points="111.5 -396 24.5 -396 24.5 -360 111.5 -360 111.5 -396"/><text x="68" y="-375.5" font-family="Helvetica,sans-Serif" font-size="10" text-anchor="middle">command_line</text></a></g></g><g id="node4" class="node"><title>dir_4efd0ee2ecda32567e74991b08d544ea</title><g id="a_node4"><a target="_top" xlink:href="dir_4efd0ee2ecda32567e74991b08d544ea.xhtml" xlink:title="instruments"><polygon fill="#fff" stroke="#000" points="98 -252 24 -252 24 -216 98 -216 98 -252"/><text x="61" y="-231.5" font-family="Helvetica,sans-Serif" font-size="10" text-anchor="middle">instruments</text></a></g></g><g id="edge4" class="edge"><title>dir_d247c927d0dc22626cf668ab2bd7f080-&gt;dir_4efd0ee2ecda32567e74991b08d544ea</title><path fill="none" stroke="#000" d="M54.8544,-359.908C48.0775,-350.006 40.5129,-336.964 37,-324 32.8153,-308.557 33.6239,-303.64 37,-288 38.9608,-278.916 42.6119,-269.517 46.4851,-261.201"/><polygon fill="#000" stroke="#000" points="49.731 -262.534 51.046 -252.022 43.462 -259.42 49.731 -262.534"/><g id="a_edge4-headlabel"><a target="_top" xlink:href="dir_000154_000156.xhtml" xlink:title="1"><text x="50.674" y="-264.517" font-family="Helvetica,sans-Serif" font-size="10" text-anchor="middle">1</text></a></g></g><g id="node5" class="node"><title>dir_68cb0bded1cc5601c88ddaacbb31e482</title><g id="a_node5"><a target="_top" xlink:href="dir_68cb0bded1cc5601c88ddaacbb31e482.xhtml" xlink:title="printers"><polygon fill="#fff" stroke="#000" points="100 -324 46 -324 46 -288 100 -288 100 -324"/><text x="73" y="-303.5" font-family="Helvetica,sans-Serif" font-size="10" text-anchor="middle">printers</text></a></g></g><g id="edge2" class="edge"><title>dir_d247c927d0dc22626cf668ab2bd7f080-&gt;dir_68cb0bded1cc5601c88ddaacbb31e482</title><path fill="none" stroke="#000" d="M69.236,-359.697C69.7869,-351.983 70.4491,-342.712 71.0634,-334.112"/><polygon fill="#000" stroke="#000" points="74.557 -334.328 71.778 -324.104 67.575 -333.83 74.557 -334.328"/><g id="a_edge2-headlabel"><a target="_top" xlink:href="dir_000154_000038.xhtml" xlink:title="1"><text x="77.133" y="-335.616" font-family="Helvetica,sans-Serif" font-size="10" text-anchor="middle">1</text></a></g></g><g id="node6" class="node"><title>dir_cbdb8362360e11eafe2fa3bc74cf0ffd</title><g id="a_node6"><a target="_top" xlink:href="dir_cbdb8362360e11eafe2fa3bc74cf0ffd.xhtml" xlink:title="utils"><polygon fill="#fff" stroke="red" points="151 -108 97 -108 97 -72 151 -72 151 -108"/><text x="124" y="-87.5" font-family="Helvetica,sans-Serif" font-size="10" text-anchor="middle">utils</text></a></g></g><g id="edge3" class="edge"><title>dir_d247c927d0dc22626cf668ab2bd7f080-&gt;dir_cbdb8362360e11eafe2fa3bc74cf0ffd</title><path fill="none" stroke="#000" d="M85.816,-359.55C94.4355,-349.935 103.982,-337.276 109,-324 135.611,-253.592 131.509,-162.736 127.249,-118.14"/><polygon fill="#000" stroke="#000" points="130.72 -117.676 126.209 -108.09 123.757 -118.397 130.72 -117.676"/><g id="a_edge3-headlabel"><a target="_top" xlink:href="dir_000154_000034.xhtml" xlink:title="2"><text x="133.914" y="-118.46" font-family="Helvetica,sans-Serif" font-size="10" text-anchor="middle">2</text></a></g></g><g id="node3" class="node"><title>dir_0dd7887818bb8d90732685575a13f58a</title><g id="a_node3"><a target="_top" xlink:href="dir_0dd7887818bb8d90732685575a13f58a.xhtml" xlink:title="datasets"><polygon fill="#fff" stroke="#000" points="273.5 -396 214.5 -396 214.5 -360 273.5 -360 273.5 -396"/><text x="244" y="-375.5" font-family="Helvetica,sans-Serif" font-size="10" text-anchor="middle">datasets</text></a></g></g><g id="edge11" class="edge"><title>dir_0dd7887818bb8d90732685575a13f58a-&gt;dir_cbdb8362360e11eafe2fa3bc74cf0ffd</title><path fill="none" stroke="#000" d="M236.853,-359.966C216.725,-311.994 159.453,-175.496 135.137,-117.543"/><polygon fill="#000" stroke="#000" points="138.358 -116.173 131.261 -108.306 131.903 -118.882 138.358 -116.173"/><g id="a_edge11-headlabel"><a target="_top" xlink:href="dir_000155_000034.xhtml" xlink:title="1"><text x="142.367" y="-115.89" font-family="Helvetica,sans-Serif" font-size="10" text-anchor="middle">1</text></a></g></g><g id="node8" class="node"><title>dir_5815af820a9cc9481f1d0990a0d60286</title><g id="a_node8"><a target="_top" xlink:href="dir_5815af820a9cc9481f1d0990a0d60286.xhtml" xlink:title="support"><polygon fill="none" stroke="#000" points="151 -36 97 -36 97 0 151 0 151 -36"/><text x="124" y="-15.5" font-family="Helvetica,sans-Serif" font-size="10" text-anchor="middle">support</text></a></g></g><g id="edge12" class="edge"><title>dir_0dd7887818bb8d90732685575a13f58a-&gt;dir_5815af820a9cc9481f1d0990a0d60286</title><path fill="none" stroke="#000" d="M244,-359.951C244,-333.292 244,-280.115 244,-235 244,-235 244,-235 244,-161 244,-108.333 195.248,-65.1154 159.892,-40.6977"/><polygon fill="#000" stroke="#000" points="161.487 -37.554 151.23 -34.901 157.594 -43.371 161.487 -37.554"/><g id="a_edge12-headlabel"><a target="_top" xlink:href="dir_000155_000150.xhtml" xlink:title="3"><text x="166.054" y="-34.693" font-family="Helvetica,sans-Serif" font-size="10" text-anchor="middle">3</text></a></g></g><g id="edge10" class="edge"><title>dir_4efd0ee2ecda32567e74991b08d544ea-&gt;dir_214608ef36d61442cb2b0c1c4e9a7def</title><path fill="none" stroke="#000" d="M61,-215.697C61,-207.983 61,-198.712 61,-190.112"/><polygon fill="#000" stroke="#000" points="64.5 -190.104 61 -180.104 57.5 -190.104 64.5 -190.104"/><g id="a_edge10-headlabel"><a target="_top" xlink:href="dir_000156_000000.xhtml" xlink:title="13"><text x="67.339" y="-191.199" font-family="Helvetica,sans-Serif" font-size="10" text-anchor="middle">13</text></a></g></g><g id="edge1" class="edge"><title>dir_68cb0bded1cc5601c88ddaacbb31e482-&gt;dir_4efd0ee2ecda32567e74991b08d544ea</title><path fill="none" stroke="#000" d="M70.0337,-287.697C68.7113,-279.983 67.1221,-270.712 65.6478,-262.112"/><polygon fill="#000" stroke="#000" points="69.072 -261.369 63.932 -252.104 62.172 -262.552 69.072 -261.369"/><g id="a_edge1-headlabel"><a target="_top" xlink:href="dir_000038_000156.xhtml" xlink:title="3"><text x="72.477" y="-261.932" font-family="Helvetica,sans-Serif" font-size="10" text-anchor="middle">3</text></a></g></g><g id="edge5" class="edge"><title>dir_cbdb8362360e11eafe2fa3bc74cf0ffd-&gt;dir_214608ef36d61442cb2b0c1c4e9a7def</title><path fill="none" stroke="#000" d="M114.501,-108.104C107.717,-116.636 98.4843,-127.108 89.5439,-136.478"/><polygon fill="#000" stroke="#000" points="86.975 -134.098 82.489 -143.697 91.981 -138.991 86.975 -134.098"/><g id="a_edge5-headlabel"><a target="_top" xlink:href="dir_000034_000000.xhtml" xlink:title="37"><text x="87.457" y="-127.043" font-family="Helvetica,sans-Serif" font-size="10" text-anchor="middle">37</text></a></g></g><g id="edge6" class="edge"><title>dir_cbdb8362360e11eafe2fa3bc74cf0ffd-&gt;dir_5815af820a9cc9481f1d0990a0d60286</title><path fill="none" stroke="#000" d="M124,-71.6966C124,-63.9827 124,-54.7125 124,-46.1124"/><polygon fill="#000" stroke="#000" points="127.5 -46.104 124 -36.104 120.5 -46.104 127.5 -46.104"/><g id="a_edge6-headlabel"><a target="_top" xlink:href="dir_000034_000150.xhtml" xlink:title="3"><text x="130.339" y="-47.199" font-family="Helvetica,sans-Serif" font-size="10" text-anchor="middle">3</text></a></g></g><g id="edge8" class="edge"><title>dir_214608ef36d61442cb2b0c1c4e9a7def-&gt;dir_cbdb8362360e11eafe2fa3bc74cf0ffd</title><path fill="none" stroke="#000" d="M70.6573,-143.697C77.4796,-135.135 86.7285,-124.656 95.6643,-115.304"/><polygon fill="#000" stroke="#000" points="98.218 -117.699 102.711 -108.104 93.215 -112.803 98.218 -117.699"/><g id="a_edge8-headlabel"><a target="_top" xlink:href="dir_000000_000034.xhtml" xlink:title="1"><text x="97.733" y="-119.754" font-family="Helvetica,sans-Serif" font-size="10" text-anchor="middle">1</text></a></g></g><g id="edge9" class="edge"><title>dir_214608ef36d61442cb2b0c1c4e9a7def-&gt;dir_5815af820a9cc9481f1d0990a0d60286</title><path fill="none" stroke="#000" d="M64.6097,-143.7C68.812,-125.337 76.6563,-95.7492 88,-72 92.4833,-62.6137 98.495,-53.0126 104.32,-44.6061"/><polygon fill="#000" stroke="#000" points="107.267 -46.503 110.251 -36.337 101.579 -42.423 107.267 -46.503"/><g id="a_edge9-headlabel"><a target="_top" xlink:href="dir_000000_000150.xhtml" xlink:title="22"><text x="107.479" y="-48.579" font-family="Helvetica,sans-Serif" font-size="10" text-anchor="middle">22</text></a></g></g></g></svg>