<svg xmlns="http://www.w3.org/2000/svg" xmlns:xlink="http://www.w3.org/1999/xlink" width="275pt" height="367pt" viewBox="0 0 275.34 367"><g id="graph0" class="graph" transform="scale(1 1) rotate(0) translate(4 363)"><title>tests/validation/CL/UNIT</title><polygon fill="#fff" stroke="none" points="-4 4 -4 -363 271.338 -363 271.338 4 -4 4"/><g id="clust1" class="cluster"><title>clusterdir_f7024513cd67abef53e86ee9382ac5ce</title><g id="a_clust1"><a target="_top" xlink:href="dir_f7024513cd67abef53e86ee9382ac5ce.xhtml" xlink:title="CL"><polygon fill="#dde" stroke="#000" points="74.338 -280 74.338 -351 144.338 -351 144.338 -280 74.338 -280"/><text x="109.338" y="-339" font-family="Helvetica,sans-Serif" font-size="10" text-anchor="middle">CL</text></a></g></g><g id="node1" class="node"><title>dir_4fe3055359cf5438733b5e64b064b197</title><g id="a_node1"><a target="_top" xlink:href="dir_4fe3055359cf5438733b5e64b064b197.xhtml" xlink:title="UNIT"><polygon fill="#eef" stroke="#000" points="136.338 -324 82.338 -324 82.338 -288 136.338 -288 136.338 -324"/><text x="109.338" y="-303.5" font-family="Helvetica,sans-Serif" font-size="10" text-anchor="middle">UNIT</text></a></g></g><g id="node2" class="node"><title>dir_46fdb196cebdbffe77dac340cde62f29</title><g id="a_node2"><a target="_top" xlink:href="dir_46fdb196cebdbffe77dac340cde62f29.xhtml" xlink:title="reference"><polygon fill="none" stroke="#000" points="140.338 -252 78.338 -252 78.338 -216 140.338 -216 140.338 -252"/><text x="109.338" y="-231.5" font-family="Helvetica,sans-Serif" font-size="10" text-anchor="middle">reference</text></a></g></g><g id="edge4" class="edge"><title>dir_4fe3055359cf5438733b5e64b064b197-&gt;dir_46fdb196cebdbffe77dac340cde62f29</title><path fill="none" stroke="#000" d="M109.338,-287.697C109.338,-279.983 109.338,-270.712 109.338,-262.112"/><polygon fill="#000" stroke="#000" points="112.838 -262.104 109.338 -252.104 105.838 -262.104 112.838 -262.104"/><g id="a_edge4-headlabel"><a target="_top" xlink:href="dir_000148_000033.xhtml" xlink:title="1"><text x="115.677" y="-263.199" font-family="Helvetica,sans-Serif" font-size="10" text-anchor="middle">1</text></a></g></g><g id="node3" class="node"><title>dir_9e71e2da941d3cafc4d98a9f6ae3de4f</title><g id="a_node3"><a target="_top" xlink:href="dir_9e71e2da941d3cafc4d98a9f6ae3de4f.xhtml" xlink:title="framework"><polygon fill="#fff" stroke="red" points="80.838 -180 13.838 -180 13.838 -144 80.838 -144 80.838 -180"/><text x="47.338" y="-159.5" font-family="Helvetica,sans-Serif" font-size="10" text-anchor="middle">framework</text></a></g></g><g id="edge5" class="edge"><title>dir_4fe3055359cf5438733b5e64b064b197-&gt;dir_9e71e2da941d3cafc4d98a9f6ae3de4f</title><path fill="none" stroke="#000" d="M93.3027,-287.552C85.0605,-277.744 75.4837,-264.906 69.338,-252 59.9565,-232.299 54.3138,-208.175 51.0959,-190.015"/><polygon fill="#000" stroke="#000" points="54.541 -189.394 49.471 -180.09 47.633 -190.524 54.541 -189.394"/><g id="a_edge5-headlabel"><a target="_top" xlink:href="dir_000148_000032.xhtml" xlink:title="8"><text x="57.923" y="-189.983" font-family="Helvetica,sans-Serif" font-size="10" text-anchor="middle">8</text></a></g></g><g id="node4" class="node"><title>dir_214608ef36d61442cb2b0c1c4e9a7def</title><g id="a_node4"><a target="_top" xlink:href="dir_214608ef36d61442cb2b0c1c4e9a7def.xhtml" xlink:title="arm_compute"><polygon fill="#fff" stroke="red" points="221.338 -108 137.338 -108 137.338 -72 221.338 -72 221.338 -108"/><text x="179.338" y="-87.5" font-family="Helvetica,sans-Serif" font-size="10" text-anchor="middle">arm_compute</text></a></g></g><g id="edge6" class="edge"><title>dir_4fe3055359cf5438733b5e64b064b197-&gt;dir_214608ef36d61442cb2b0c1c4e9a7def</title><path fill="none" stroke="#000" d="M125.674,-287.69C134.005,-277.923 143.57,-265.079 149.338,-252 168.82,-207.826 175.656,-151.418 178.051,-118.442"/><polygon fill="#000" stroke="#000" points="181.56 -118.411 178.705 -108.208 174.574 -117.964 181.56 -118.411"/><g id="a_edge6-headlabel"><a target="_top" xlink:href="dir_000148_000000.xhtml" xlink:title="14"><text x="184.165" y="-119.679" font-family="Helvetica,sans-Serif" font-size="10" text-anchor="middle">14</text></a></g></g><g id="node5" class="node"><title>dir_896191444cf08ec8ade6f88256cb2bdd</title><g id="a_node5"><a target="_top" xlink:href="dir_896191444cf08ec8ade6f88256cb2bdd.xhtml" xlink:title="CL"><polygon fill="none" stroke="#000" points="267.338 -180 213.338 -180 213.338 -144 267.338 -144 267.338 -180"/><text x="240.338" y="-159.5" font-family="Helvetica,sans-Serif" font-size="10" text-anchor="middle">CL</text></a></g></g><g id="edge7" class="edge"><title>dir_4fe3055359cf5438733b5e64b064b197-&gt;dir_896191444cf08ec8ade6f88256cb2bdd</title><path fill="none" stroke="#000" d="M136.711,-294.192C156.266,-285.317 182.068,-271.099 199.338,-252 215.49,-234.137 226.315,-208.816 232.766,-189.747"/><polygon fill="#000" stroke="#000" points="236.123 -190.741 235.826 -180.151 229.454 -188.615 236.123 -190.741"/><g id="a_edge7-headlabel"><a target="_top" xlink:href="dir_000148_000151.xhtml" xlink:title="3"><text x="237.736" y="-192.528" font-family="Helvetica,sans-Serif" font-size="10" text-anchor="middle">3</text></a></g></g><g id="node6" class="node"><title>dir_5815af820a9cc9481f1d0990a0d60286</title><g id="a_node6"><a target="_top" xlink:href="dir_5815af820a9cc9481f1d0990a0d60286.xhtml" xlink:title="support"><polygon fill="none" stroke="#000" points="136.338 -36 82.338 -36 82.338 0 136.338 0 136.338 -36"/><text x="109.338" y="-15.5" font-family="Helvetica,sans-Serif" font-size="10" text-anchor="middle">support</text></a></g></g><g id="edge8" class="edge"><title>dir_4fe3055359cf5438733b5e64b064b197-&gt;dir_5815af820a9cc9481f1d0990a0d60286</title><path fill="none" stroke="#000" d="M84.4096,-287.876C47.1051,-259.94 -16.7349,-201.85 4.33797,-144 19.3707,-102.732 54.6801,-65.6213 80.2086,-42.7571"/><polygon fill="#000" stroke="#000" points="82.562 -45.349 87.784 -36.13 77.953 -40.08 82.562 -45.349"/><g id="a_edge8-headlabel"><a target="_top" xlink:href="dir_000148_000150.xhtml" xlink:title="3"><text x="81.726" y="-47.352" font-family="Helvetica,sans-Serif" font-size="10" text-anchor="middle">3</text></a></g></g><g id="edge1" class="edge"><title>dir_46fdb196cebdbffe77dac340cde62f29-&gt;dir_9e71e2da941d3cafc4d98a9f6ae3de4f</title><path fill="none" stroke="#000" d="M94.0121,-215.697C86.5792,-207.305 77.5147,-197.07 69.358,-187.861"/><polygon fill="#000" stroke="#000" points="71.738 -185.27 62.487 -180.104 66.498 -189.911 71.738 -185.27"/><g id="a_edge1-headlabel"><a target="_top" xlink:href="dir_000033_000032.xhtml" xlink:title="3"><text x="76.247" y="-183.578" font-family="Helvetica,sans-Serif" font-size="10" text-anchor="middle">3</text></a></g></g><g id="edge2" class="edge"><title>dir_46fdb196cebdbffe77dac340cde62f29-&gt;dir_214608ef36d61442cb2b0c1c4e9a7def</title><path fill="none" stroke="#000" d="M117.782,-215.871C129.869,-191.35 152.209,-146.032 166.393,-117.259"/><polygon fill="#000" stroke="#000" points="169.582 -118.706 170.864 -108.189 163.304 -115.611 169.582 -118.706"/><g id="a_edge2-headlabel"><a target="_top" xlink:href="dir_000033_000000.xhtml" xlink:title="86"><text x="170.539" y="-120.686" font-family="Helvetica,sans-Serif" font-size="10" text-anchor="middle">86</text></a></g></g><g id="edge3" class="edge"><title>dir_46fdb196cebdbffe77dac340cde62f29-&gt;dir_5815af820a9cc9481f1d0990a0d60286</title><path fill="none" stroke="#000" d="M109.338,-215.849C109.338,-178.832 109.338,-91.1809 109.338,-46.3863"/><polygon fill="#000" stroke="#000" points="112.838 -46.232 109.338 -36.233 105.838 -46.233 112.838 -46.232"/><g id="a_edge3-headlabel"><a target="_top" xlink:href="dir_000033_000150.xhtml" xlink:title="2"><text x="115.677" y="-47.327" font-family="Helvetica,sans-Serif" font-size="10" text-anchor="middle">2</text></a></g></g><g id="edge9" class="edge"><title>dir_9e71e2da941d3cafc4d98a9f6ae3de4f-&gt;dir_214608ef36d61442cb2b0c1c4e9a7def</title><path fill="none" stroke="#000" d="M79.6288,-143.876C97.2074,-134.554 119.147,-122.919 137.967,-112.939"/><polygon fill="#000" stroke="#000" points="139.728 -115.967 146.923 -108.19 136.449 -109.783 139.728 -115.967"/><g id="a_edge9-headlabel"><a target="_top" xlink:href="dir_000032_000000.xhtml" xlink:title="14"><text x="137.883" y="-117.659" font-family="Helvetica,sans-Serif" font-size="10" text-anchor="middle">14</text></a></g></g><g id="edge10" class="edge"><title>dir_9e71e2da941d3cafc4d98a9f6ae3de4f-&gt;dir_5815af820a9cc9481f1d0990a0d60286</title><path fill="none" stroke="#000" d="M54.8166,-143.871C65.4765,-119.457 85.138,-74.4258 97.7085,-45.6351"/><polygon fill="#000" stroke="#000" points="101.039 -46.754 101.833 -36.189 94.624 -43.953 101.039 -46.754"/><g id="a_edge10-headlabel"><a target="_top" xlink:href="dir_000032_000150.xhtml" xlink:title="7"><text x="102.203" y="-48.685" font-family="Helvetica,sans-Serif" font-size="10" text-anchor="middle">7</text></a></g></g><g id="edge11" class="edge"><title>dir_214608ef36d61442cb2b0c1c4e9a7def-&gt;dir_5815af820a9cc9481f1d0990a0d60286</title><path fill="none" stroke="#000" d="M162.035,-71.6966C153.473,-63.135 142.994,-52.6562 133.642,-43.3045"/><polygon fill="#000" stroke="#000" points="135.988 -40.7 126.442 -36.104 131.039 -45.65 135.988 -40.7"/><g id="a_edge11-headlabel"><a target="_top" xlink:href="dir_000000_000150.xhtml" xlink:title="22"><text x="140.538" y="-38.735" font-family="Helvetica,sans-Serif" font-size="10" text-anchor="middle">22</text></a></g></g><g id="edge12" class="edge"><title>dir_896191444cf08ec8ade6f88256cb2bdd-&gt;dir_214608ef36d61442cb2b0c1c4e9a7def</title><path fill="none" stroke="#000" d="M225.259,-143.697C217.946,-135.305 209.028,-125.07 201.003,-115.861"/><polygon fill="#000" stroke="#000" points="203.452 -113.344 194.243 -108.104 198.174 -117.943 203.452 -113.344"/><g id="a_edge12-headlabel"><a target="_top" xlink:href="dir_000151_000000.xhtml" xlink:title="10"><text x="207.954" y="-111.689" font-family="Helvetica,sans-Serif" font-size="10" text-anchor="middle">10</text></a></g></g><g id="edge13" class="edge"><title>dir_896191444cf08ec8ade6f88256cb2bdd-&gt;dir_5815af820a9cc9481f1d0990a0d60286</title><path fill="none" stroke="#000" d="M243.137,-143.789C245.302,-124.41 245.739,-92.9059 230.338,-72 210.47,-45.0305 173.884,-31.5829 146.125,-25.0067"/><polygon fill="#000" stroke="#000" points="146.859 -21.585 136.344 -22.882 145.374 -28.425 146.859 -21.585"/><g id="a_edge13-headlabel"><a target="_top" xlink:href="dir_000151_000150.xhtml" xlink:title="1"><text x="150.975" y="-17.073" font-family="Helvetica,sans-Serif" font-size="10" text-anchor="middle">1</text></a></g></g></g></svg>