<svg xmlns="http://www.w3.org/2000/svg" xmlns:xlink="http://www.w3.org/1999/xlink" width="656" height="308" viewBox="0 0 492 231"><g id="graph0" class="graph" transform="scale(1 1) rotate(0) translate(4 227)"><title>src/core/utils</title><polygon fill="#fff" stroke="none" points="-4 4 -4 -227 488 -227 488 4 -4 4"/><g id="clust1" class="cluster"><title>clusterdir_aebb8dcc11953d78e620bbef0b9e2183</title><g id="a_clust1"><a target="_top" xlink:href="dir_aebb8dcc11953d78e620bbef0b9e2183.xhtml" xlink:title="core"><polygon fill="#dde" stroke="#000" points="8 -128 8 -215 476 -215 476 -128 8 -128"/><text x="242" y="-203" font-family="Helvetica,sans-Serif" font-size="10" text-anchor="middle">core</text></a></g></g><g id="clust2" class="cluster"><title>clusterdir_a8053b3d69cfefb2b2e6ec7bf9dd5c1a</title><g id="a_clust2"><a target="_top" xlink:href="dir_a8053b3d69cfefb2b2e6ec7bf9dd5c1a.xhtml"><polygon fill="#eef" stroke="#000" points="16 -136 16 -188 468 -188 468 -136 16 -136"/></a></g></g><g id="node1" class="node"><title>dir_a8053b3d69cfefb2b2e6ec7bf9dd5c1a</title><text x="433" y="-159.5" font-family="Helvetica,sans-Serif" font-size="10" text-anchor="middle">utils</text></g><g id="node2" class="node"><title>dir_3ce11c95fd532b87aa3e6777b412b94b</title><g id="a_node2"><a target="_top" xlink:href="dir_3ce11c95fd532b87aa3e6777b412b94b.xhtml" xlink:title="helpers"><polygon fill="#fff" stroke="#000" points="150 -180 96 -180 96 -144 150 -144 150 -180"/><text x="123" y="-159.5" font-family="Helvetica,sans-Serif" font-size="10" text-anchor="middle">helpers</text></a></g></g><g id="node7" class="node"><title>dir_214608ef36d61442cb2b0c1c4e9a7def</title><g id="a_node7"><a target="_top" xlink:href="dir_214608ef36d61442cb2b0c1c4e9a7def.xhtml" xlink:title="arm_compute"><polygon fill="#fff" stroke="red" points="255 -108 171 -108 171 -72 255 -72 255 -108"/><text x="213" y="-87.5" font-family="Helvetica,sans-Serif" font-size="10" text-anchor="middle">arm_compute</text></a></g></g><g id="edge1" class="edge"><title>dir_3ce11c95fd532b87aa3e6777b412b94b-&gt;dir_214608ef36d61442cb2b0c1c4e9a7def</title><path fill="none" stroke="#000" d="M140.874,-143.696C146.525,-138.479 152.892,-132.852 159,-128 164.934,-123.286 171.441,-118.517 177.82,-114.042"/><polygon fill="#000" stroke="#000" points="180.12 -116.707 186.372 -108.154 176.151 -110.941 180.12 -116.707"/><g id="a_edge1-headlabel"><a target="_top" xlink:href="dir_000117_000000.xhtml" xlink:title="3"><text x="178.769" y="-118.584" font-family="Helvetica,sans-Serif" font-size="10" text-anchor="middle">3</text></a></g></g><g id="node3" class="node"><title>dir_6915c5d185ea48a4b1716c1cd2b4d90a</title><g id="a_node3"><a target="_top" xlink:href="dir_6915c5d185ea48a4b1716c1cd2b4d90a.xhtml" xlink:title="io"><polygon fill="#fff" stroke="#000" points="316 -180 262 -180 262 -144 316 -144 316 -180"/><text x="289" y="-159.5" font-family="Helvetica,sans-Serif" font-size="10" text-anchor="middle">io</text></a></g></g><g id="edge6" class="edge"><title>dir_6915c5d185ea48a4b1716c1cd2b4d90a-&gt;dir_214608ef36d61442cb2b0c1c4e9a7def</title><path fill="none" stroke="#000" d="M270.213,-143.697C260.826,-135.05 249.316,-124.449 239.087,-115.027"/><polygon fill="#000" stroke="#000" points="241.297 -112.305 231.57 -108.104 236.555 -117.454 241.297 -112.305"/><g id="a_edge6-headlabel"><a target="_top" xlink:href="dir_000123_000000.xhtml" xlink:title="2"><text x="245.865" y="-110.152" font-family="Helvetica,sans-Serif" font-size="10" text-anchor="middle">2</text></a></g></g><g id="node8" class="node"><title>dir_5815af820a9cc9481f1d0990a0d60286</title><g id="a_node8"><a target="_top" xlink:href="dir_5815af820a9cc9481f1d0990a0d60286.xhtml" xlink:title="support"><polygon fill="none" stroke="#000" points="316 -36 262 -36 262 0 316 0 316 -36"/><text x="289" y="-15.5" font-family="Helvetica,sans-Serif" font-size="10" text-anchor="middle">support</text></a></g></g><g id="edge7" class="edge"><title>dir_6915c5d185ea48a4b1716c1cd2b4d90a-&gt;dir_5815af820a9cc9481f1d0990a0d60286</title><path fill="none" stroke="#000" d="M289,-143.871C289,-119.67 289,-75.2108 289,-46.3932"/><polygon fill="#000" stroke="#000" points="292.5 -46.189 289 -36.189 285.5 -46.189 292.5 -46.189"/><g id="a_edge7-headlabel"><a target="_top" xlink:href="dir_000123_000150.xhtml" xlink:title="1"><text x="295.339" y="-47.284" font-family="Helvetica,sans-Serif" font-size="10" text-anchor="middle">1</text></a></g></g><g id="node4" class="node"><title>dir_dbfe0e4196f53fa51766229f36f19f00</title><g id="a_node4"><a target="_top" xlink:href="dir_dbfe0e4196f53fa51766229f36f19f00.xhtml" xlink:title="logging"><polygon fill="#fff" stroke="#000" points="388 -180 334 -180 334 -144 388 -144 388 -180"/><text x="361" y="-159.5" font-family="Helvetica,sans-Serif" font-size="10" text-anchor="middle">logging</text></a></g></g><g id="edge2" class="edge"><title>dir_dbfe0e4196f53fa51766229f36f19f00-&gt;dir_214608ef36d61442cb2b0c1c4e9a7def</title><path fill="none" stroke="#000" d="M345.335,-143.951C339.406,-138.264 332.313,-132.29 325,-128 306.565,-117.186 284.547,-109.04 264.93,-103.184"/><polygon fill="#000" stroke="#000" points="265.799 -99.792 255.222 -100.41 263.876 -106.522 265.799 -99.792"/><g id="a_edge2-headlabel"><a target="_top" xlink:href="dir_000073_000000.xhtml" xlink:title="6"><text x="270.035" y="-95.549" font-family="Helvetica,sans-Serif" font-size="10" text-anchor="middle">6</text></a></g></g><g id="edge3" class="edge"><title>dir_dbfe0e4196f53fa51766229f36f19f00-&gt;dir_5815af820a9cc9481f1d0990a0d60286</title><path fill="none" stroke="#000" d="M352.315,-143.871C339.882,-119.35 316.904,-74.0321 302.314,-45.2589"/><polygon fill="#000" stroke="#000" points="305.36 -43.526 297.716 -36.189 299.116 -46.691 305.36 -43.526"/><g id="a_edge3-headlabel"><a target="_top" xlink:href="dir_000073_000150.xhtml" xlink:title="2"><text x="309.518" y="-42.947" font-family="Helvetica,sans-Serif" font-size="10" text-anchor="middle">2</text></a></g></g><g id="node5" class="node"><title>dir_683639b01107be110e7081378aa84a8b</title><g id="a_node5"><a target="_top" xlink:href="dir_683639b01107be110e7081378aa84a8b.xhtml" xlink:title="misc"><polygon fill="#fff" stroke="#000" points="78 -180 24 -180 24 -144 78 -144 78 -180"/><text x="51" y="-159.5" font-family="Helvetica,sans-Serif" font-size="10" text-anchor="middle">misc</text></a></g></g><g id="edge5" class="edge"><title>dir_683639b01107be110e7081378aa84a8b-&gt;dir_214608ef36d61442cb2b0c1c4e9a7def</title><path fill="none" stroke="#000" d="M66.5863,-143.814C72.5077,-138.114 79.6161,-132.167 87,-128 109.759,-115.156 137.398,-106.396 160.984,-100.638"/><polygon fill="#000" stroke="#000" points="161.871 -104.025 170.818 -98.351 160.285 -97.207 161.871 -104.025"/><g id="a_edge5-headlabel"><a target="_top" xlink:href="dir_000124_000000.xhtml" xlink:title="1"><text x="159.013" y="-105.105" font-family="Helvetica,sans-Serif" font-size="10" text-anchor="middle">1</text></a></g></g><g id="node6" class="node"><title>dir_dfd177d17fe198b2123c626051c4d924</title><g id="a_node6"><a target="_top" xlink:href="dir_dfd177d17fe198b2123c626051c4d924.xhtml" xlink:title="quantization"><polygon fill="#fff" stroke="#000" points="244 -180 168 -180 168 -144 244 -144 244 -180"/><text x="206" y="-159.5" font-family="Helvetica,sans-Serif" font-size="10" text-anchor="middle">quantization</text></a></g></g><g id="edge8" class="edge"><title>dir_dfd177d17fe198b2123c626051c4d924-&gt;dir_214608ef36d61442cb2b0c1c4e9a7def</title><path fill="none" stroke="#000" d="M207.73,-143.697C208.502,-135.983 209.429,-126.712 210.289,-118.112"/><polygon fill="#000" stroke="#000" points="213.777 -118.403 211.29 -108.104 206.812 -117.706 213.777 -118.403"/><g id="a_edge8-headlabel"><a target="_top" xlink:href="dir_000125_000000.xhtml" xlink:title="1"><text x="216.245" y="-119.762" font-family="Helvetica,sans-Serif" font-size="10" text-anchor="middle">1</text></a></g></g><g id="edge4" class="edge"><title>dir_214608ef36d61442cb2b0c1c4e9a7def-&gt;dir_5815af820a9cc9481f1d0990a0d60286</title><path fill="none" stroke="#000" d="M231.787,-71.6966C241.174,-63.0503 252.684,-52.4486 262.913,-43.027"/><polygon fill="#000" stroke="#000" points="265.445 -45.453 270.43 -36.104 260.703 -40.305 265.445 -45.453"/><g id="a_edge4-headlabel"><a target="_top" xlink:href="dir_000000_000150.xhtml" xlink:title="22"><text x="264.725" y="-47.477" font-family="Helvetica,sans-Serif" font-size="10" text-anchor="middle">22</text></a></g></g></g></svg>