<svg xmlns="http://www.w3.org/2000/svg" xmlns:xlink="http://www.w3.org/1999/xlink" width="118pt" height="308" viewBox="0 0 118 231"><g id="graph0" class="graph" transform="scale(1 1) rotate(0) translate(4 227)"><title>arm_compute/runtime/CPP</title><polygon fill="#fff" stroke="none" points="-4 4 -4 -227 114 -227 114 4 -4 4"/><g id="clust1" class="cluster"><title>clusterdir_8bc26130589aa16388b5a02f17abf2c2</title><g id="a_clust1"><a target="_top" xlink:href="dir_8bc26130589aa16388b5a02f17abf2c2.xhtml" xlink:title="runtime"><polygon fill="#dde" stroke="#000" points="8 -56 8 -215 100 -215 100 -56 8 -56"/><text x="54" y="-203" font-family="Helvetica,sans-Serif" font-size="10" text-anchor="middle">runtime</text></a></g></g><g id="clust2" class="cluster"><title>clusterdir_b496024afd63bafbf4e8da80d7d3a81a</title><g id="a_clust2"><a target="_top" xlink:href="dir_b496024afd63bafbf4e8da80d7d3a81a.xhtml"><polygon fill="#eef" stroke="#000" points="16 -64 16 -188 92 -188 92 -64 16 -64"/></a></g></g><g id="node1" class="node"><title>dir_b496024afd63bafbf4e8da80d7d3a81a</title><text x="55" y="-159.5" font-family="Helvetica,sans-Serif" font-size="10" text-anchor="middle">CPP</text></g><g id="node2" class="node"><title>dir_0f1ff859406f1a8b0006aceabacdc4c4</title><g id="a_node2"><a target="_top" xlink:href="dir_0f1ff859406f1a8b0006aceabacdc4c4.xhtml" xlink:title="functions"><polygon fill="#fff" stroke="#000" points="84 -108 24 -108 24 -72 84 -72 84 -108"/><text x="54" y="-87.5" font-family="Helvetica,sans-Serif" font-size="10" text-anchor="middle">functions</text></a></g></g><g id="edge2" class="edge"><title>dir_b496024afd63bafbf4e8da80d7d3a81a-&gt;dir_0f1ff859406f1a8b0006aceabacdc4c4</title><path fill="none" stroke="#000" d="M54.7528,-143.697C54.6426,-135.983 54.5102,-126.712 54.3873,-118.112"/><polygon fill="#000" stroke="#000" points="57.887 -118.053 54.244 -108.104 50.888 -118.153 57.887 -118.053"/><g id="a_edge2-headlabel"><a target="_top" xlink:href="dir_000050_000051.xhtml" xlink:title="7"><text x="60.777" y="-119.107" font-family="Helvetica,sans-Serif" font-size="10" text-anchor="middle">7</text></a></g></g><g id="node3" class="node"><title>dir_1fb090f0c6070330bfaccc4236d3ca0d</title><g id="a_node3"><a target="_top" xlink:href="dir_1fb090f0c6070330bfaccc4236d3ca0d.xhtml" xlink:title="core"><polygon fill="#fff" stroke="red" points="110 -36 56 -36 56 0 110 0 110 -36"/><text x="83" y="-15.5" font-family="Helvetica,sans-Serif" font-size="10" text-anchor="middle">core</text></a></g></g><g id="edge1" class="edge"><title>dir_b496024afd63bafbf4e8da80d7d3a81a-&gt;dir_1fb090f0c6070330bfaccc4236d3ca0d</title><path fill="none" stroke="#000" d="M71.4635,-143.919C79.6538,-134.218 88.7036,-121.366 93,-108 99.4835,-87.8302 96.2323,-63.918 91.7723,-45.9612"/><polygon fill="#000" stroke="#000" points="95.1 -44.862 89.071 -36.15 88.351 -46.72 95.1 -44.862"/><g id="a_edge1-headlabel"><a target="_top" xlink:href="dir_000050_000001.xhtml" xlink:title="8"><text x="98.791" y="-45.074" font-family="Helvetica,sans-Serif" font-size="10" text-anchor="middle">8</text></a></g></g><g id="edge3" class="edge"><title>dir_0f1ff859406f1a8b0006aceabacdc4c4-&gt;dir_1fb090f0c6070330bfaccc4236d3ca0d</title><path fill="none" stroke="#000" d="M61.1685,-71.6966C64.4345,-63.8132 68.374,-54.3042 72.0022,-45.5464"/><polygon fill="#000" stroke="#000" points="75.32 -46.682 75.914 -36.104 68.853 -44.003 75.32 -46.682"/><g id="a_edge3-headlabel"><a target="_top" xlink:href="dir_000051_000001.xhtml" xlink:title="7"><text x="76.567" y="-48.59" font-family="Helvetica,sans-Serif" font-size="10" text-anchor="middle">7</text></a></g></g></g></svg>