<svg xmlns="http://www.w3.org/2000/svg" xmlns:xlink="http://www.w3.org/1999/xlink" width="94pt" height="151pt" viewBox="0 0 94 151"><g id="graph0" class="graph" transform="scale(1 1) rotate(0) translate(4 147)"><title>arm_compute/graph/nodes</title><polygon fill="#fff" stroke="none" points="-4 4 -4 -147 90 -147 90 4 -4 4"/><g id="clust1" class="cluster"><title>clusterdir_99ae3712d1eecd2a93fc4d38b59a99ba</title><g id="a_clust1"><a target="_top" xlink:href="dir_99ae3712d1eecd2a93fc4d38b59a99ba.xhtml" xlink:title="graph"><polygon fill="#dde" stroke="#000" points="8 -64 8 -135 78 -135 78 -64 8 -64"/><text x="43" y="-123" font-family="Helvetica,sans-Serif" font-size="10" text-anchor="middle">graph</text></a></g></g><g id="node1" class="node"><title>dir_b30607d43e07fadf88f4c95a88a6c88e</title><g id="a_node1"><a target="_top" xlink:href="dir_b30607d43e07fadf88f4c95a88a6c88e.xhtml" xlink:title="nodes"><polygon fill="#eef" stroke="#000" points="70 -108 16 -108 16 -72 70 -72 70 -108"/><text x="43" y="-87.5" font-family="Helvetica,sans-Serif" font-size="10" text-anchor="middle">nodes</text></a></g></g><g id="node2" class="node"><title>dir_1fb090f0c6070330bfaccc4236d3ca0d</title><g id="a_node2"><a target="_top" xlink:href="dir_1fb090f0c6070330bfaccc4236d3ca0d.xhtml" xlink:title="core"><polygon fill="#fff" stroke="red" points="70 -36 16 -36 16 0 70 0 70 -36"/><text x="43" y="-15.5" font-family="Helvetica,sans-Serif" font-size="10" text-anchor="middle">core</text></a></g></g><g id="edge1" class="edge"><title>dir_b30607d43e07fadf88f4c95a88a6c88e-&gt;dir_1fb090f0c6070330bfaccc4236d3ca0d</title><path fill="none" stroke="#000" d="M43,-71.6966C43,-63.9827 43,-54.7125 43,-46.1124"/><polygon fill="#000" stroke="#000" points="46.5 -46.104 43 -36.104 39.5 -46.104 46.5 -46.104"/><g id="a_edge1-headlabel"><a target="_top" xlink:href="dir_000046_000001.xhtml" xlink:title="1"><text x="49.339" y="-47.199" font-family="Helvetica,sans-Serif" font-size="10" text-anchor="middle">1</text></a></g></g></g></svg>