<svg xmlns="http://www.w3.org/2000/svg" xmlns:xlink="http://www.w3.org/1999/xlink" width="440pt" height="404" viewBox="0 0 440 303"><g id="graph0" class="graph" transform="scale(1 1) rotate(0) translate(4 299)"><title>arm_compute/runtime</title><polygon fill="#fff" stroke="none" points="-4 4 -4 -299 436 -299 436 4 -4 4"/><g id="clust1" class="cluster"><title>clusterdir_214608ef36d61442cb2b0c1c4e9a7def</title><g id="a_clust1"><a target="_top" xlink:href="dir_214608ef36d61442cb2b0c1c4e9a7def.xhtml" xlink:title="arm_compute"><polygon fill="#dde" stroke="#000" points="8 -128 8 -287 424 -287 424 -128 8 -128"/><text x="216" y="-275" font-family="Helvetica,sans-Serif" font-size="10" text-anchor="middle">arm_compute</text></a></g></g><g id="clust2" class="cluster"><title>clusterdir_8bc26130589aa16388b5a02f17abf2c2</title><g id="a_clust2"><a target="_top" xlink:href="dir_8bc26130589aa16388b5a02f17abf2c2.xhtml"><polygon fill="#eef" stroke="#000" points="16 -136 16 -260 416 -260 416 -136 16 -136"/></a></g></g><g id="node1" class="node"><title>dir_8bc26130589aa16388b5a02f17abf2c2</title><text x="381" y="-231.5" font-family="Helvetica,sans-Serif" font-size="10" text-anchor="middle">runtime</text></g><g id="node9" class="node"><title>dir_5815af820a9cc9481f1d0990a0d60286</title><g id="a_node9"><a target="_top" xlink:href="dir_5815af820a9cc9481f1d0990a0d60286.xhtml" xlink:title="support"><polygon fill="none" stroke="#000" points="287 -36 233 -36 233 0 287 0 287 -36"/><text x="260" y="-15.5" font-family="Helvetica,sans-Serif" font-size="10" text-anchor="middle">support</text></a></g></g><g id="edge4" class="edge"><title>dir_8bc26130589aa16388b5a02f17abf2c2-&gt;dir_5815af820a9cc9481f1d0990a0d60286</title><path fill="none" stroke="#000" d="M371.303,-215.849C350.151,-178.44 299.762,-89.3222 274.69,-44.9802"/><polygon fill="#000" stroke="#000" points="277.712 -43.215 269.744 -36.233 271.619 -46.66 277.712 -43.215"/><g id="a_edge4-headlabel"><a target="_top" xlink:href="dir_000003_000150.xhtml" xlink:title="5"><text x="281.953" y="-42.446" font-family="Helvetica,sans-Serif" font-size="10" text-anchor="middle">5</text></a></g></g><g id="node2" class="node"><title>dir_b986aa98f9b6490bb4fc7918500346fb</title><g id="a_node2"><a target="_top" xlink:href="dir_b986aa98f9b6490bb4fc7918500346fb.xhtml" xlink:title="CL"><polygon fill="#fff" stroke="red" points="222 -252 168 -252 168 -216 222 -216 222 -252"/><text x="195" y="-231.5" font-family="Helvetica,sans-Serif" font-size="10" text-anchor="middle">CL</text></a></g></g><g id="node3" class="node"><title>dir_b9621ae687ab229876c54f8c2df20e15</title><g id="a_node3"><a target="_top" xlink:href="dir_b9621ae687ab229876c54f8c2df20e15.xhtml" xlink:title="common"><polygon fill="#fff" stroke="#000" points="155.5 -180 96.5 -180 96.5 -144 155.5 -144 155.5 -180"/><text x="126" y="-159.5" font-family="Helvetica,sans-Serif" font-size="10" text-anchor="middle">common</text></a></g></g><g id="edge13" class="edge"><title>dir_b986aa98f9b6490bb4fc7918500346fb-&gt;dir_b9621ae687ab229876c54f8c2df20e15</title><path fill="none" stroke="#000" d="M177.944,-215.697C169.505,-207.135 159.175,-196.656 149.957,-187.304"/><polygon fill="#000" stroke="#000" points="152.373 -184.769 142.86 -180.104 147.387 -189.683 152.373 -184.769"/><g id="a_edge13-headlabel"><a target="_top" xlink:href="dir_000004_000049.xhtml" xlink:title="2"><text x="156.918" y="-182.836" font-family="Helvetica,sans-Serif" font-size="10" text-anchor="middle">2</text></a></g></g><g id="node4" class="node"><title>dir_b496024afd63bafbf4e8da80d7d3a81a</title><g id="a_node4"><a target="_top" xlink:href="dir_b496024afd63bafbf4e8da80d7d3a81a.xhtml" xlink:title="CPP"><polygon fill="#fff" stroke="red" points="78 -180 24 -180 24 -144 78 -144 78 -180"/><text x="51" y="-159.5" font-family="Helvetica,sans-Serif" font-size="10" text-anchor="middle">CPP</text></a></g></g><g id="edge10" class="edge"><title>dir_b986aa98f9b6490bb4fc7918500346fb-&gt;dir_b496024afd63bafbf4e8da80d7d3a81a</title><path fill="none" stroke="#000" d="M167.915,-219.834C145.231,-208.807 112.643,-192.966 87.6319,-180.807"/><polygon fill="#000" stroke="#000" points="88.977 -177.57 78.453 -176.345 85.917 -183.865 88.977 -177.57"/><g id="a_edge10-headlabel"><a target="_top" xlink:href="dir_000004_000050.xhtml" xlink:title="1"><text x="93.451" y="-174.088" font-family="Helvetica,sans-Serif" font-size="10" text-anchor="middle">1</text></a></g></g><g id="node8" class="node"><title>dir_1fb090f0c6070330bfaccc4236d3ca0d</title><g id="a_node8"><a target="_top" xlink:href="dir_1fb090f0c6070330bfaccc4236d3ca0d.xhtml" xlink:title="core"><polygon fill="#fff" stroke="red" points="222 -108 168 -108 168 -72 222 -72 222 -108"/><text x="195" y="-87.5" font-family="Helvetica,sans-Serif" font-size="10" text-anchor="middle">core</text></a></g></g><g id="edge11" class="edge"><title>dir_b986aa98f9b6490bb4fc7918500346fb-&gt;dir_1fb090f0c6070330bfaccc4236d3ca0d</title><path fill="none" stroke="#000" d="M196.219,-215.825C196.893,-205.456 197.661,-191.976 198,-180 198.653,-156.898 198.935,-151.092 198,-128 197.874,-124.881 197.688,-121.618 197.469,-118.376"/><polygon fill="#000" stroke="#000" points="200.951 -118.002 196.694 -108.3 193.972 -118.539 200.951 -118.002"/><g id="a_edge11-headlabel"><a target="_top" xlink:href="dir_000004_000001.xhtml" xlink:title="265"><text x="204.058" y="-118.868" font-family="Helvetica,sans-Serif" font-size="10" text-anchor="middle">265</text></a></g></g><g id="edge12" class="edge"><title>dir_b986aa98f9b6490bb4fc7918500346fb-&gt;dir_5815af820a9cc9481f1d0990a0d60286</title><path fill="none" stroke="#000" d="M201.026,-215.876C204.615,-205.526 209.198,-192.047 213,-180 227.724,-133.348 243.365,-78.5861 252.378,-46.4524"/><polygon fill="#000" stroke="#000" points="255.847 -47.04 255.169 -36.467 249.106 -45.155 255.847 -47.04"/><g id="a_edge12-headlabel"><a target="_top" xlink:href="dir_000004_000150.xhtml" xlink:title="1"><text x="257.614" y="-48.766" font-family="Helvetica,sans-Serif" font-size="10" text-anchor="middle">1</text></a></g></g><g id="edge9" class="edge"><title>dir_b9621ae687ab229876c54f8c2df20e15-&gt;dir_1fb090f0c6070330bfaccc4236d3ca0d</title><path fill="none" stroke="#000" d="M143.056,-143.697C151.495,-135.135 161.825,-124.656 171.043,-115.304"/><polygon fill="#000" stroke="#000" points="173.613 -117.683 178.14 -108.104 168.627 -112.769 173.613 -117.683"/><g id="a_edge9-headlabel"><a target="_top" xlink:href="dir_000049_000001.xhtml" xlink:title="3"><text x="173.111" y="-119.736" font-family="Helvetica,sans-Serif" font-size="10" text-anchor="middle">3</text></a></g></g><g id="edge5" class="edge"><title>dir_b496024afd63bafbf4e8da80d7d3a81a-&gt;dir_1fb090f0c6070330bfaccc4236d3ca0d</title><path fill="none" stroke="#000" d="M58.2279,-143.996C63.6228,-138.313 70.7105,-132.33 78,-128 102.602,-113.386 133.805,-103.488 157.953,-97.6339"/><polygon fill="#000" stroke="#000" points="158.864 -101.016 167.83 -95.371 157.301 -94.193 158.864 -101.016"/><g id="a_edge5-headlabel"><a target="_top" xlink:href="dir_000050_000001.xhtml" xlink:title="8"><text x="155.994" y="-102.086" font-family="Helvetica,sans-Serif" font-size="10" text-anchor="middle">8</text></a></g></g><g id="node5" class="node"><title>dir_e83fa7cb9796f3ad7be03e3d9fcd3249</title><g id="a_node5"><a target="_top" xlink:href="dir_e83fa7cb9796f3ad7be03e3d9fcd3249.xhtml" xlink:title="GLES_COMPUTE"><polygon fill="#fff" stroke="red" points="335.5 -252 240.5 -252 240.5 -216 335.5 -216 335.5 -252"/><text x="288" y="-231.5" font-family="Helvetica,sans-Serif" font-size="10" text-anchor="middle">GLES_COMPUTE</text></a></g></g><g id="edge8" class="edge"><title>dir_e83fa7cb9796f3ad7be03e3d9fcd3249-&gt;dir_1fb090f0c6070330bfaccc4236d3ca0d</title><path fill="none" stroke="#000" d="M276.782,-215.871C260.653,-191.244 230.784,-145.638 211.953,-116.885"/><polygon fill="#000" stroke="#000" points="214.665 -114.637 206.258 -108.189 208.809 -118.472 214.665 -114.637"/><g id="a_edge8-headlabel"><a target="_top" xlink:href="dir_000052_000001.xhtml" xlink:title="59"><text x="219.009" y="-113.589" font-family="Helvetica,sans-Serif" font-size="10" text-anchor="middle">59</text></a></g></g><g id="node6" class="node"><title>dir_65e289039e1347f87d412b0a1b1a312c</title><g id="a_node6"><a target="_top" xlink:href="dir_65e289039e1347f87d412b0a1b1a312c.xhtml" xlink:title="NEON"><polygon fill="#fff" stroke="red" points="150 -252 96 -252 96 -216 150 -216 150 -252"/><text x="123" y="-231.5" font-family="Helvetica,sans-Serif" font-size="10" text-anchor="middle">NEON</text></a></g></g><g id="edge3" class="edge"><title>dir_65e289039e1347f87d412b0a1b1a312c-&gt;dir_b9621ae687ab229876c54f8c2df20e15</title><path fill="none" stroke="#000" d="M123.742,-215.697C124.072,-207.983 124.469,-198.712 124.838,-190.112"/><polygon fill="#000" stroke="#000" points="128.335 -190.245 125.267 -180.104 121.342 -189.945 128.335 -190.245"/><g id="a_edge3-headlabel"><a target="_top" xlink:href="dir_000054_000049.xhtml" xlink:title="2"><text x="131.018" y="-191.458" font-family="Helvetica,sans-Serif" font-size="10" text-anchor="middle">2</text></a></g></g><g id="edge1" class="edge"><title>dir_65e289039e1347f87d412b0a1b1a312c-&gt;dir_b496024afd63bafbf4e8da80d7d3a81a</title><path fill="none" stroke="#000" d="M105.202,-215.697C96.396,-207.135 85.6179,-196.656 75.9989,-187.304"/><polygon fill="#000" stroke="#000" points="78.203 -184.566 68.593 -180.104 73.323 -189.585 78.203 -184.566"/><g id="a_edge1-headlabel"><a target="_top" xlink:href="dir_000054_000050.xhtml" xlink:title="2"><text x="82.759" y="-182.536" font-family="Helvetica,sans-Serif" font-size="10" text-anchor="middle">2</text></a></g></g><g id="edge2" class="edge"><title>dir_65e289039e1347f87d412b0a1b1a312c-&gt;dir_1fb090f0c6070330bfaccc4236d3ca0d</title><path fill="none" stroke="#000" d="M138.576,-215.848C146.973,-205.926 157.014,-192.886 164,-180 174.741,-160.188 182.898,-135.932 188.142,-117.749"/><polygon fill="#000" stroke="#000" points="191.523 -118.653 190.822 -108.082 184.777 -116.783 191.523 -118.653"/><g id="a_edge2-headlabel"><a target="_top" xlink:href="dir_000054_000001.xhtml" xlink:title="221"><text x="193.299" y="-120.376" font-family="Helvetica,sans-Serif" font-size="10" text-anchor="middle">221</text></a></g></g><g id="node7" class="node"><title>dir_b88a6d23833cc7e200916be8af5e3057</title><g id="a_node7"><a target="_top" xlink:href="dir_b88a6d23833cc7e200916be8af5e3057.xhtml" xlink:title="OMP"><polygon fill="#fff" stroke="#000" points="78 -252 24 -252 24 -216 78 -216 78 -252"/><text x="51" y="-231.5" font-family="Helvetica,sans-Serif" font-size="10" text-anchor="middle">OMP</text></a></g></g><g id="edge6" class="edge"><title>dir_1fb090f0c6070330bfaccc4236d3ca0d-&gt;dir_b496024afd63bafbf4e8da80d7d3a81a</title><path fill="none" stroke="#000" d="M167.596,-99.0932C146.929,-105.077 118.663,-114.538 96,-128 91.558,-130.639 87.1909,-133.891 82.9933,-137.315"/><polygon fill="#000" stroke="#000" points="80.495 -134.845 75.155 -143.996 85.036 -140.173 80.495 -134.845"/><g id="a_edge6-headlabel"><a target="_top" xlink:href="dir_000001_000050.xhtml" xlink:title="1"><text x="81.389" y="-127.853" font-family="Helvetica,sans-Serif" font-size="10" text-anchor="middle">1</text></a></g></g><g id="edge7" class="edge"><title>dir_1fb090f0c6070330bfaccc4236d3ca0d-&gt;dir_5815af820a9cc9481f1d0990a0d60286</title><path fill="none" stroke="#000" d="M211.067,-71.6966C218.939,-63.2198 228.555,-52.8636 237.173,-43.5826"/><polygon fill="#000" stroke="#000" points="239.878 -45.814 244.117 -36.104 234.748 -41.051 239.878 -45.814"/><g id="a_edge7-headlabel"><a target="_top" xlink:href="dir_000001_000150.xhtml" xlink:title="14"><text x="239.512" y="-47.88" font-family="Helvetica,sans-Serif" font-size="10" text-anchor="middle">14</text></a></g></g></g></svg>