<svg xmlns="http://www.w3.org/2000/svg" xmlns:xlink="http://www.w3.org/1999/xlink" width="204" height="295pt" viewBox="0 0 152.8 295"><g id="graph0" class="graph" transform="scale(1 1) rotate(0) translate(4 291)"><title>tests/validation/reference</title><polygon fill="#fff" stroke="none" points="-4 4 -4 -291 148.803 -291 148.803 4 -4 4"/><g id="clust1" class="cluster"><title>clusterdir_e7c7b16542faa38cb4655ff1750d3604</title><g id="a_clust1"><a target="_top" xlink:href="dir_e7c7b16542faa38cb4655ff1750d3604.xhtml" xlink:title="validation"><polygon fill="#dde" stroke="#000" points="57 -208 57 -279 135 -279 135 -208 57 -208"/><text x="96" y="-267" font-family="Helvetica,sans-Serif" font-size="10" text-anchor="middle">validation</text></a></g></g><g id="node1" class="node"><title>dir_46fdb196cebdbffe77dac340cde62f29</title><g id="a_node1"><a target="_top" xlink:href="dir_46fdb196cebdbffe77dac340cde62f29.xhtml" xlink:title="reference"><polygon fill="#eef" stroke="#000" points="127 -252 65 -252 65 -216 127 -216 127 -252"/><text x="96" y="-231.5" font-family="Helvetica,sans-Serif" font-size="10" text-anchor="middle">reference</text></a></g></g><g id="node2" class="node"><title>dir_9e71e2da941d3cafc4d98a9f6ae3de4f</title><g id="a_node2"><a target="_top" xlink:href="dir_9e71e2da941d3cafc4d98a9f6ae3de4f.xhtml" xlink:title="framework"><polygon fill="#fff" stroke="red" points="129.5 -180 62.5 -180 62.5 -144 129.5 -144 129.5 -180"/><text x="96" y="-159.5" font-family="Helvetica,sans-Serif" font-size="10" text-anchor="middle">framework</text></a></g></g><g id="edge1" class="edge"><title>dir_46fdb196cebdbffe77dac340cde62f29-&gt;dir_9e71e2da941d3cafc4d98a9f6ae3de4f</title><path fill="none" stroke="#000" d="M96,-215.697C96,-207.983 96,-198.712 96,-190.112"/><polygon fill="#000" stroke="#000" points="99.5 -190.104 96 -180.104 92.5 -190.104 99.5 -190.104"/><g id="a_edge1-headlabel"><a target="_top" xlink:href="dir_000033_000032.xhtml" xlink:title="3"><text x="102.339" y="-191.199" font-family="Helvetica,sans-Serif" font-size="10" text-anchor="middle">3</text></a></g></g><g id="node3" class="node"><title>dir_214608ef36d61442cb2b0c1c4e9a7def</title><g id="a_node3"><a target="_top" xlink:href="dir_214608ef36d61442cb2b0c1c4e9a7def.xhtml" xlink:title="arm_compute"><polygon fill="#fff" stroke="red" points="84 -108 0 -108 0 -72 84 -72 84 -108"/><text x="42" y="-87.5" font-family="Helvetica,sans-Serif" font-size="10" text-anchor="middle">arm_compute</text></a></g></g><g id="edge2" class="edge"><title>dir_46fdb196cebdbffe77dac340cde62f29-&gt;dir_214608ef36d61442cb2b0c1c4e9a7def</title><path fill="none" stroke="#000" d="M77.6415,-215.571C68.6909,-205.962 58.6597,-193.302 53,-180 44.6823,-160.452 42.1064,-136.457 41.5144,-118.31"/><polygon fill="#000" stroke="#000" points="45.011 -118.067 41.368 -108.119 38.012 -118.168 45.011 -118.067"/><g id="a_edge2-headlabel"><a target="_top" xlink:href="dir_000033_000000.xhtml" xlink:title="86"><text x="47.902" y="-119.12" font-family="Helvetica,sans-Serif" font-size="10" text-anchor="middle">86</text></a></g></g><g id="node4" class="node"><title>dir_5815af820a9cc9481f1d0990a0d60286</title><g id="a_node4"><a target="_top" xlink:href="dir_5815af820a9cc9481f1d0990a0d60286.xhtml" xlink:title="support"><polygon fill="none" stroke="#000" points="139 -36 85 -36 85 0 139 0 139 -36"/><text x="112" y="-15.5" font-family="Helvetica,sans-Serif" font-size="10" text-anchor="middle">support</text></a></g></g><g id="edge3" class="edge"><title>dir_46fdb196cebdbffe77dac340cde62f29-&gt;dir_5815af820a9cc9481f1d0990a0d60286</title><path fill="none" stroke="#000" d="M114.604,-215.756C123.531,-206.198 133.29,-193.527 138,-180 153.862,-134.443 137.095,-78.2139 124.104,-45.696"/><polygon fill="#000" stroke="#000" points="127.31 -44.289 120.234 -36.404 120.848 -46.981 127.31 -44.289"/><g id="a_edge3-headlabel"><a target="_top" xlink:href="dir_000033_000150.xhtml" xlink:title="2"><text x="131.313" y="-44.016" font-family="Helvetica,sans-Serif" font-size="10" text-anchor="middle">2</text></a></g></g><g id="edge4" class="edge"><title>dir_9e71e2da941d3cafc4d98a9f6ae3de4f-&gt;dir_214608ef36d61442cb2b0c1c4e9a7def</title><path fill="none" stroke="#000" d="M82.6517,-143.697C76.2432,-135.389 68.4423,-125.277 61.3943,-116.141"/><polygon fill="#000" stroke="#000" points="64.074 -113.884 55.195 -108.104 58.532 -118.16 64.074 -113.884"/><g id="a_edge4-headlabel"><a target="_top" xlink:href="dir_000032_000000.xhtml" xlink:title="14"><text x="68.518" y="-112.496" font-family="Helvetica,sans-Serif" font-size="10" text-anchor="middle">14</text></a></g></g><g id="edge5" class="edge"><title>dir_9e71e2da941d3cafc4d98a9f6ae3de4f-&gt;dir_5815af820a9cc9481f1d0990a0d60286</title><path fill="none" stroke="#000" d="M97.93,-143.871C100.657,-119.67 105.666,-75.2108 108.913,-46.3932"/><polygon fill="#000" stroke="#000" points="112.421 -46.518 110.063 -36.189 105.465 -45.734 112.421 -46.518"/><g id="a_edge5-headlabel"><a target="_top" xlink:href="dir_000032_000150.xhtml" xlink:title="7"><text x="114.84" y="-47.908" font-family="Helvetica,sans-Serif" font-size="10" text-anchor="middle">7</text></a></g></g><g id="edge6" class="edge"><title>dir_214608ef36d61442cb2b0c1c4e9a7def-&gt;dir_5815af820a9cc9481f1d0990a0d60286</title><path fill="none" stroke="#000" d="M59.3034,-71.6966C67.865,-63.135 78.3438,-52.6562 87.6955,-43.3045"/><polygon fill="#000" stroke="#000" points="90.299 -45.65 94.896 -36.104 85.35 -40.7 90.299 -45.65"/><g id="a_edge6-headlabel"><a target="_top" xlink:href="dir_000000_000150.xhtml" xlink:title="22"><text x="89.765" y="-47.7" font-family="Helvetica,sans-Serif" font-size="10" text-anchor="middle">22</text></a></g></g></g></svg>