<svg xmlns="http://www.w3.org/2000/svg" xmlns:xlink="http://www.w3.org/1999/xlink" width="245pt" height="295pt" viewBox="0 0 245.24 295"><g id="graph0" class="graph" transform="scale(1 1) rotate(0) translate(4 291)"><title>tests/validation/GLES_COMPUTE/UNIT</title><polygon fill="#fff" stroke="none" points="-4 4 -4 -291 241.237 -291 241.237 4 -4 4"/><g id="clust1" class="cluster"><title>clusterdir_fbdf7bf92663091dc4d5520df638c068</title><g id="a_clust1"><a target="_top" xlink:href="dir_fbdf7bf92663091dc4d5520df638c068.xhtml" xlink:title="GLES_COMPUTE"><polygon fill="#dde" stroke="#000" points="107.5 -208 107.5 -279 202.5 -279 202.5 -208 107.5 -208"/><text x="155" y="-267" font-family="Helvetica,sans-Serif" font-size="10" text-anchor="middle">GLES_COMPUTE</text></a></g></g><g id="node1" class="node"><title>dir_3cbe5b6455504b72bdad57647abe41ab</title><g id="a_node1"><a target="_top" xlink:href="dir_3cbe5b6455504b72bdad57647abe41ab.xhtml" xlink:title="UNIT"><polygon fill="#eef" stroke="#000" points="181.5 -252 127.5 -252 127.5 -216 181.5 -216 181.5 -252"/><text x="154.5" y="-231.5" font-family="Helvetica,sans-Serif" font-size="10" text-anchor="middle">UNIT</text></a></g></g><g id="node2" class="node"><title>dir_9e71e2da941d3cafc4d98a9f6ae3de4f</title><g id="a_node2"><a target="_top" xlink:href="dir_9e71e2da941d3cafc4d98a9f6ae3de4f.xhtml" xlink:title="framework"><polygon fill="#fff" stroke="red" points="219 -180 152 -180 152 -144 219 -144 219 -180"/><text x="185.5" y="-159.5" font-family="Helvetica,sans-Serif" font-size="10" text-anchor="middle">framework</text></a></g></g><g id="edge5" class="edge"><title>dir_3cbe5b6455504b72bdad57647abe41ab-&gt;dir_9e71e2da941d3cafc4d98a9f6ae3de4f</title><path fill="none" stroke="#000" d="M162.163,-215.697C165.692,-207.728 169.956,-198.1 173.869,-189.264"/><polygon fill="#000" stroke="#000" points="177.076 -190.665 177.925 -180.104 170.676 -187.831 177.076 -190.665"/><g id="a_edge5-headlabel"><a target="_top" xlink:href="dir_000158_000032.xhtml" xlink:title="2"><text x="178.217" y="-192.602" font-family="Helvetica,sans-Serif" font-size="10" text-anchor="middle">2</text></a></g></g><g id="node3" class="node"><title>dir_7365e77196b52ca311bb83f181e59b8c</title><g id="a_node3"><a target="_top" xlink:href="dir_7365e77196b52ca311bb83f181e59b8c.xhtml" xlink:title="GLES_COMPUTE"><polygon fill="none" stroke="#000" points="95 -180 0 -180 0 -144 95 -144 95 -180"/><text x="47.5" y="-159.5" font-family="Helvetica,sans-Serif" font-size="10" text-anchor="middle">GLES_COMPUTE</text></a></g></g><g id="edge6" class="edge"><title>dir_3cbe5b6455504b72bdad57647abe41ab-&gt;dir_7365e77196b52ca311bb83f181e59b8c</title><path fill="none" stroke="#000" d="M128.325,-215.876C114.464,-206.808 97.2586,-195.552 82.289,-185.759"/><polygon fill="#000" stroke="#000" points="84.06 -182.735 73.776 -180.19 80.228 -188.593 84.06 -182.735"/><g id="a_edge6-headlabel"><a target="_top" xlink:href="dir_000158_000152.xhtml" xlink:title="1"><text x="88.623" y="-179.827" font-family="Helvetica,sans-Serif" font-size="10" text-anchor="middle">1</text></a></g></g><g id="node4" class="node"><title>dir_214608ef36d61442cb2b0c1c4e9a7def</title><g id="a_node4"><a target="_top" xlink:href="dir_214608ef36d61442cb2b0c1c4e9a7def.xhtml" xlink:title="arm_compute"><polygon fill="#fff" stroke="red" points="165.5 -108 81.5 -108 81.5 -72 165.5 -72 165.5 -108"/><text x="123.5" y="-87.5" font-family="Helvetica,sans-Serif" font-size="10" text-anchor="middle">arm_compute</text></a></g></g><g id="edge7" class="edge"><title>dir_3cbe5b6455504b72bdad57647abe41ab-&gt;dir_214608ef36d61442cb2b0c1c4e9a7def</title><path fill="none" stroke="#000" d="M150.555,-215.826C148.188,-205.458 145.135,-191.978 142.5,-180 137.947,-159.299 132.948,-135.853 129.221,-118.224"/><polygon fill="#000" stroke="#000" points="132.569 -117.138 127.08 -108.075 125.72 -118.583 132.569 -117.138"/><g id="a_edge7-headlabel"><a target="_top" xlink:href="dir_000158_000000.xhtml" xlink:title="5"><text x="136.089" y="-117.569" font-family="Helvetica,sans-Serif" font-size="10" text-anchor="middle">5</text></a></g></g><g id="node5" class="node"><title>dir_5815af820a9cc9481f1d0990a0d60286</title><g id="a_node5"><a target="_top" xlink:href="dir_5815af820a9cc9481f1d0990a0d60286.xhtml" xlink:title="support"><polygon fill="none" stroke="#000" points="220.5 -36 166.5 -36 166.5 0 220.5 0 220.5 -36"/><text x="193.5" y="-15.5" font-family="Helvetica,sans-Serif" font-size="10" text-anchor="middle">support</text></a></g></g><g id="edge8" class="edge"><title>dir_3cbe5b6455504b72bdad57647abe41ab-&gt;dir_5815af820a9cc9481f1d0990a0d60286</title><path fill="none" stroke="#000" d="M181.573,-221.296C198.122,-212.546 217.898,-198.837 227.5,-180 249.818,-136.218 226.791,-78.58 209.281,-45.4758"/><polygon fill="#000" stroke="#000" points="212.191 -43.503 204.306 -36.426 206.057 -46.876 212.191 -43.503"/><g id="a_edge8-headlabel"><a target="_top" xlink:href="dir_000158_000150.xhtml" xlink:title="1"><text x="216.411" y="-42.785" font-family="Helvetica,sans-Serif" font-size="10" text-anchor="middle">1</text></a></g></g><g id="edge1" class="edge"><title>dir_9e71e2da941d3cafc4d98a9f6ae3de4f-&gt;dir_214608ef36d61442cb2b0c1c4e9a7def</title><path fill="none" stroke="#000" d="M170.174,-143.697C162.741,-135.305 153.677,-125.07 145.52,-115.861"/><polygon fill="#000" stroke="#000" points="147.9 -113.27 138.65 -108.104 142.66 -117.911 147.9 -113.27"/><g id="a_edge1-headlabel"><a target="_top" xlink:href="dir_000032_000000.xhtml" xlink:title="14"><text x="152.409" y="-111.578" font-family="Helvetica,sans-Serif" font-size="10" text-anchor="middle">14</text></a></g></g><g id="edge2" class="edge"><title>dir_9e71e2da941d3cafc4d98a9f6ae3de4f-&gt;dir_5815af820a9cc9481f1d0990a0d60286</title><path fill="none" stroke="#000" d="M186.465,-143.871C187.828,-119.67 190.333,-75.2108 191.957,-46.3932"/><polygon fill="#000" stroke="#000" points="195.463 -46.37 192.532 -36.189 188.475 -45.977 195.463 -46.37"/><g id="a_edge2-headlabel"><a target="_top" xlink:href="dir_000032_000150.xhtml" xlink:title="7"><text x="198.096" y="-47.619" font-family="Helvetica,sans-Serif" font-size="10" text-anchor="middle">7</text></a></g></g><g id="edge3" class="edge"><title>dir_7365e77196b52ca311bb83f181e59b8c-&gt;dir_214608ef36d61442cb2b0c1c4e9a7def</title><path fill="none" stroke="#000" d="M66.2865,-143.697C75.674,-135.05 87.1844,-124.449 97.4135,-115.027"/><polygon fill="#000" stroke="#000" points="99.945 -117.454 104.93 -108.104 95.203 -112.305 99.945 -117.454"/><g id="a_edge3-headlabel"><a target="_top" xlink:href="dir_000152_000000.xhtml" xlink:title="3"><text x="99.225" y="-119.477" font-family="Helvetica,sans-Serif" font-size="10" text-anchor="middle">3</text></a></g></g><g id="edge4" class="edge"><title>dir_214608ef36d61442cb2b0c1c4e9a7def-&gt;dir_5815af820a9cc9481f1d0990a0d60286</title><path fill="none" stroke="#000" d="M140.803,-71.6966C149.365,-63.135 159.844,-52.6562 169.196,-43.3045"/><polygon fill="#000" stroke="#000" points="171.799 -45.65 176.396 -36.104 166.85 -40.7 171.799 -45.65"/><g id="a_edge4-headlabel"><a target="_top" xlink:href="dir_000000_000150.xhtml" xlink:title="22"><text x="171.265" y="-47.7" font-family="Helvetica,sans-Serif" font-size="10" text-anchor="middle">22</text></a></g></g></g></svg>