<svg xmlns="http://www.w3.org/2000/svg" xmlns:xlink="http://www.w3.org/1999/xlink" width="310pt" height="368" viewBox="0 0 310 276"><g id="graph0" class="graph" transform="scale(1 1) rotate(0) translate(4 272)"><title>src</title><polygon fill="#fff" stroke="none" points="-4 4 -4 -272 306 -272 306 4 -4 4"/><g id="clust1" class="cluster"><title>clusterdir_68267d1309a1af8e8297ef4c3efbcdba</title><g id="a_clust1"><a target="_top" xlink:href="dir_68267d1309a1af8e8297ef4c3efbcdba.xhtml"><polygon fill="#eef" stroke="#000" points="8 -208 8 -260 294 -260 294 -208 8 -208"/></a></g></g><g id="node1" class="node"><title>dir_68267d1309a1af8e8297ef4c3efbcdba</title><text x="259" y="-231.5" font-family="Helvetica,sans-Serif" font-size="10" text-anchor="middle">src</text></g><g id="node2" class="node"><title>dir_aebb8dcc11953d78e620bbef0b9e2183</title><g id="a_node2"><a target="_top" xlink:href="dir_aebb8dcc11953d78e620bbef0b9e2183.xhtml" xlink:title="core"><polygon fill="#fff" stroke="red" points="70 -252 16 -252 16 -216 70 -216 70 -252"/><text x="43" y="-231.5" font-family="Helvetica,sans-Serif" font-size="10" text-anchor="middle">core</text></a></g></g><g id="node5" class="node"><title>dir_cbdb8362360e11eafe2fa3bc74cf0ffd</title><g id="a_node5"><a target="_top" xlink:href="dir_cbdb8362360e11eafe2fa3bc74cf0ffd.xhtml" xlink:title="utils"><polygon fill="#fff" stroke="red" points="85 -180 31 -180 31 -144 85 -144 85 -180"/><text x="58" y="-159.5" font-family="Helvetica,sans-Serif" font-size="10" text-anchor="middle">utils</text></a></g></g><g id="edge7" class="edge"><title>dir_aebb8dcc11953d78e620bbef0b9e2183-&gt;dir_cbdb8362360e11eafe2fa3bc74cf0ffd</title><path fill="none" stroke="#000" d="M46.7079,-215.697C48.3608,-207.983 50.3473,-198.712 52.1902,-190.112"/><polygon fill="#000" stroke="#000" points="55.662 -190.616 54.335 -180.104 48.817 -189.149 55.662 -190.616"/><g id="a_edge7-headlabel"><a target="_top" xlink:href="dir_000017_000034.xhtml" xlink:title="2"><text x="57.685" y="-192.225" font-family="Helvetica,sans-Serif" font-size="10" text-anchor="middle">2</text></a></g></g><g id="node6" class="node"><title>dir_214608ef36d61442cb2b0c1c4e9a7def</title><g id="a_node6"><a target="_top" xlink:href="dir_214608ef36d61442cb2b0c1c4e9a7def.xhtml" xlink:title="arm_compute"><polygon fill="#fff" stroke="red" points="123 -108 39 -108 39 -72 123 -72 123 -108"/><text x="81" y="-87.5" font-family="Helvetica,sans-Serif" font-size="10" text-anchor="middle">arm_compute</text></a></g></g><g id="edge8" class="edge"><title>dir_aebb8dcc11953d78e620bbef0b9e2183-&gt;dir_214608ef36d61442cb2b0c1c4e9a7def</title><path fill="none" stroke="#000" d="M32.7045,-215.992C22.997,-197.617 11.3964,-167.779 22,-144 27.0819,-132.604 35.9596,-122.634 45.3088,-114.509"/><polygon fill="#000" stroke="#000" points="47.625 -117.137 53.2 -108.128 43.224 -111.694 47.625 -117.137"/><g id="a_edge8-headlabel"><a target="_top" xlink:href="dir_000017_000000.xhtml" xlink:title="2937"><text x="46.616" y="-119.105" font-family="Helvetica,sans-Serif" font-size="10" text-anchor="middle">2937</text></a></g></g><g id="node7" class="node"><title>dir_5815af820a9cc9481f1d0990a0d60286</title><g id="a_node7"><a target="_top" xlink:href="dir_5815af820a9cc9481f1d0990a0d60286.xhtml" xlink:title="support"><polygon fill="none" stroke="#000" points="108 -36 54 -36 54 0 108 0 108 -36"/><text x="81" y="-15.5" font-family="Helvetica,sans-Serif" font-size="10" text-anchor="middle">support</text></a></g></g><g id="edge9" class="edge"><title>dir_aebb8dcc11953d78e620bbef0b9e2183-&gt;dir_5815af820a9cc9481f1d0990a0d60286</title><path fill="none" stroke="#000" d="M30.693,-215.784C24.3503,-205.843 17.2739,-192.804 14,-180 2.06787,-133.335 0.869615,-114.781 23,-72 28.7775,-60.8312 37.9153,-50.8334 47.244,-42.6116"/><polygon fill="#000" stroke="#000" points="49.59 -45.213 55.055 -36.136 45.123 -39.824 49.59 -45.213"/><g id="a_edge9-headlabel"><a target="_top" xlink:href="dir_000017_000150.xhtml" xlink:title="65"><text x="48.635" y="-47.193" font-family="Helvetica,sans-Serif" font-size="10" text-anchor="middle">65</text></a></g></g><g id="node3" class="node"><title>dir_d182250f0c231765fc862e69db210731</title><g id="a_node3"><a target="_top" xlink:href="dir_d182250f0c231765fc862e69db210731.xhtml" xlink:title="graph"><polygon fill="#fff" stroke="red" points="214 -252 160 -252 160 -216 214 -216 214 -252"/><text x="187" y="-231.5" font-family="Helvetica,sans-Serif" font-size="10" text-anchor="middle">graph</text></a></g></g><g id="edge3" class="edge"><title>dir_d182250f0c231765fc862e69db210731-&gt;dir_214608ef36d61442cb2b0c1c4e9a7def</title><path fill="none" stroke="#000" d="M174.214,-215.871C155.75,-191.137 121.491,-145.242 100.044,-116.512"/><polygon fill="#000" stroke="#000" points="102.618 -114.109 93.831 -108.189 97.009 -118.296 102.618 -114.109"/><g id="a_edge3-headlabel"><a target="_top" xlink:href="dir_000116_000000.xhtml" xlink:title="375"><text x="107.044" y="-112.791" font-family="Helvetica,sans-Serif" font-size="10" text-anchor="middle">375</text></a></g></g><g id="edge4" class="edge"><title>dir_d182250f0c231765fc862e69db210731-&gt;dir_5815af820a9cc9481f1d0990a0d60286</title><path fill="none" stroke="#000" d="M186.761,-215.557C185.563,-184.328 179.444,-117.852 150,-72 141.578,-58.8847 128.735,-47.7314 116.403,-39.0893"/><polygon fill="#000" stroke="#000" points="118.275 -36.131 108.008 -33.514 114.402 -41.962 118.275 -36.131"/><g id="a_edge4-headlabel"><a target="_top" xlink:href="dir_000116_000150.xhtml" xlink:title="5"><text x="122.84" y="-33.254" font-family="Helvetica,sans-Serif" font-size="10" text-anchor="middle">5</text></a></g></g><g id="node4" class="node"><title>dir_bf9f26469d00835ba20ff8d80ee5a804</title><g id="a_node4"><a target="_top" xlink:href="dir_bf9f26469d00835ba20ff8d80ee5a804.xhtml" xlink:title="runtime"><polygon fill="#fff" stroke="red" points="142 -252 88 -252 88 -216 142 -216 142 -252"/><text x="115" y="-231.5" font-family="Helvetica,sans-Serif" font-size="10" text-anchor="middle">runtime</text></a></g></g><g id="edge10" class="edge"><title>dir_bf9f26469d00835ba20ff8d80ee5a804-&gt;dir_cbdb8362360e11eafe2fa3bc74cf0ffd</title><path fill="none" stroke="#000" d="M100.91,-215.697C94.0766,-207.305 85.7431,-197.07 78.2442,-187.861"/><polygon fill="#000" stroke="#000" points="80.956 -185.649 71.928 -180.104 75.528 -190.069 80.956 -185.649"/><g id="a_edge10-headlabel"><a target="_top" xlink:href="dir_000060_000034.xhtml" xlink:title="2"><text x="85.427" y="-184.143" font-family="Helvetica,sans-Serif" font-size="10" text-anchor="middle">2</text></a></g></g><g id="edge11" class="edge"><title>dir_bf9f26469d00835ba20ff8d80ee5a804-&gt;dir_214608ef36d61442cb2b0c1c4e9a7def</title><path fill="none" stroke="#000" d="M111.019,-215.927C106.828,-198.003 100.017,-169.005 94,-144 91.9741,-135.58 89.7376,-126.416 87.6991,-118.113"/><polygon fill="#000" stroke="#000" points="91.042 -117.05 85.254 -108.176 84.245 -118.723 91.042 -117.05"/><g id="a_edge11-headlabel"><a target="_top" xlink:href="dir_000060_000000.xhtml" xlink:title="1516"><text x="94.658" y="-117.362" font-family="Helvetica,sans-Serif" font-size="10" text-anchor="middle">1516</text></a></g></g><g id="edge12" class="edge"><title>dir_bf9f26469d00835ba20ff8d80ee5a804-&gt;dir_5815af820a9cc9481f1d0990a0d60286</title><path fill="none" stroke="#000" d="M121.964,-215.813C133.127,-185.545 151.856,-121.271 132,-72 127.651,-61.209 119.938,-51.3859 111.806,-43.2085"/><polygon fill="#000" stroke="#000" points="113.996 -40.464 104.305 -36.181 109.21 -45.572 113.996 -40.464"/><g id="a_edge12-headlabel"><a target="_top" xlink:href="dir_000060_000150.xhtml" xlink:title="203"><text x="118.56" y="-38.349" font-family="Helvetica,sans-Serif" font-size="10" text-anchor="middle">203</text></a></g></g><g id="edge1" class="edge"><title>dir_cbdb8362360e11eafe2fa3bc74cf0ffd-&gt;dir_214608ef36d61442cb2b0c1c4e9a7def</title><path fill="none" stroke="#000" d="M57.7697,-143.697C59.5468,-135.813 62.4524,-126.304 65.7058,-117.546"/><polygon fill="#000" stroke="#000" points="69.018 -118.689 69.485 -108.104 62.52 -116.088 69.018 -118.689"/><g id="a_edge1-headlabel"><a target="_top" xlink:href="dir_000034_000000.xhtml" xlink:title="37"><text x="70.319" y="-120.581" font-family="Helvetica,sans-Serif" font-size="10" text-anchor="middle">37</text></a></g></g><g id="edge2" class="edge"><title>dir_cbdb8362360e11eafe2fa3bc74cf0ffd-&gt;dir_5815af820a9cc9481f1d0990a0d60286</title><path fill="none" stroke="#000" d="M45.6918,-143.993C34.1811,-125.874 20.1311,-96.489 30,-72 34.3487,-61.209 42.0618,-51.3859 50.1937,-43.2085"/><polygon fill="#000" stroke="#000" points="52.79 -45.572 57.695 -36.181 48.004 -40.464 52.79 -45.572"/><g id="a_edge2-headlabel"><a target="_top" xlink:href="dir_000034_000150.xhtml" xlink:title="3"><text x="52.108" y="-47.602" font-family="Helvetica,sans-Serif" font-size="10" text-anchor="middle">3</text></a></g></g><g id="edge5" class="edge"><title>dir_214608ef36d61442cb2b0c1c4e9a7def-&gt;dir_cbdb8362360e11eafe2fa3bc74cf0ffd</title><path fill="none" stroke="#000" d="M81.275,-108.104C79.517,-115.96 76.6239,-125.462 73.3765,-134.232"/><polygon fill="#000" stroke="#000" points="70.055 -133.112 69.601 -143.697 76.557 -135.705 70.055 -133.112"/><g id="a_edge5-headlabel"><a target="_top" xlink:href="dir_000000_000034.xhtml" xlink:title="1"><text x="68.75" y="-126.221" font-family="Helvetica,sans-Serif" font-size="10" text-anchor="middle">1</text></a></g></g><g id="edge6" class="edge"><title>dir_214608ef36d61442cb2b0c1c4e9a7def-&gt;dir_5815af820a9cc9481f1d0990a0d60286</title><path fill="none" stroke="#000" d="M81,-71.6966C81,-63.9827 81,-54.7125 81,-46.1124"/><polygon fill="#000" stroke="#000" points="84.5 -46.104 81 -36.104 77.5 -46.104 84.5 -46.104"/><g id="a_edge6-headlabel"><a target="_top" xlink:href="dir_000000_000150.xhtml" xlink:title="22"><text x="87.339" y="-47.199" font-family="Helvetica,sans-Serif" font-size="10" text-anchor="middle">22</text></a></g></g></g></svg>