<svg xmlns="http://www.w3.org/2000/svg" xmlns:xlink="http://www.w3.org/1999/xlink" width="500pt" height="368" viewBox="0 0 500.34 276"><g id="graph0" class="graph" transform="scale(1 1) rotate(0) translate(4 272)"><title>tests</title><polygon fill="#fff" stroke="none" points="-4 4 -4 -272 496.343 -272 496.343 4 -4 4"/><g id="clust1" class="cluster"><title>clusterdir_59425e443f801f1f2fd8bbe4959a3ccf</title><g id="a_clust1"><a target="_top" xlink:href="dir_59425e443f801f1f2fd8bbe4959a3ccf.xhtml"><polygon fill="#eef" stroke="#000" points="8 -136 8 -260 350 -260 350 -136 8 -136"/></a></g></g><g id="node1" class="node"><title>dir_59425e443f801f1f2fd8bbe4959a3ccf</title><text x="315" y="-231.5" font-family="Helvetica,sans-Serif" font-size="10" text-anchor="middle">tests</text></g><g id="node2" class="node"><title>dir_4f2df8950dc650bf7cf9176fae02facc</title><g id="a_node2"><a target="_top" xlink:href="dir_4f2df8950dc650bf7cf9176fae02facc.xhtml" xlink:title="benchmark"><polygon fill="#fff" stroke="red" points="189.5 -252 118.5 -252 118.5 -216 189.5 -216 189.5 -252"/><text x="154" y="-231.5" font-family="Helvetica,sans-Serif" font-size="10" text-anchor="middle">benchmark</text></a></g></g><g id="node3" class="node"><title>dir_896191444cf08ec8ade6f88256cb2bdd</title><g id="a_node3"><a target="_top" xlink:href="dir_896191444cf08ec8ade6f88256cb2bdd.xhtml" xlink:title="CL"><polygon fill="#fff" stroke="#000" points="70 -180 16 -180 16 -144 70 -144 70 -180"/><text x="43" y="-159.5" font-family="Helvetica,sans-Serif" font-size="10" text-anchor="middle">CL</text></a></g></g><g id="edge23" class="edge"><title>dir_4f2df8950dc650bf7cf9176fae02facc-&gt;dir_896191444cf08ec8ade6f88256cb2bdd</title><path fill="none" stroke="#000" d="M126.846,-215.876C112.467,-206.808 94.6187,-195.552 79.0895,-185.759"/><polygon fill="#000" stroke="#000" points="80.584 -182.564 70.258 -180.19 76.85 -188.484 80.584 -182.564"/><g id="a_edge23-headlabel"><a target="_top" xlink:href="dir_000118_000151.xhtml" xlink:title="52"><text x="85.138" y="-179.579" font-family="Helvetica,sans-Serif" font-size="10" text-anchor="middle">52</text></a></g></g><g id="node4" class="node"><title>dir_9e71e2da941d3cafc4d98a9f6ae3de4f</title><g id="a_node4"><a target="_top" xlink:href="dir_9e71e2da941d3cafc4d98a9f6ae3de4f.xhtml" xlink:title="framework"><polygon fill="#fff" stroke="red" points="155.5 -180 88.5 -180 88.5 -144 155.5 -144 155.5 -180"/><text x="122" y="-159.5" font-family="Helvetica,sans-Serif" font-size="10" text-anchor="middle">framework</text></a></g></g><g id="edge20" class="edge"><title>dir_4f2df8950dc650bf7cf9176fae02facc-&gt;dir_9e71e2da941d3cafc4d98a9f6ae3de4f</title><path fill="none" stroke="#000" d="M146.09,-215.697C142.447,-207.728 138.046,-198.1 134.006,-189.264"/><polygon fill="#000" stroke="#000" points="137.16 -187.744 129.819 -180.104 130.794 -190.654 137.16 -187.744"/><g id="a_edge20-headlabel"><a target="_top" xlink:href="dir_000118_000032.xhtml" xlink:title="209"><text x="141.237" y="-187.333" font-family="Helvetica,sans-Serif" font-size="10" text-anchor="middle">209</text></a></g></g><g id="node5" class="node"><title>dir_7365e77196b52ca311bb83f181e59b8c</title><g id="a_node5"><a target="_top" xlink:href="dir_7365e77196b52ca311bb83f181e59b8c.xhtml" xlink:title="GLES_COMPUTE"><polygon fill="#fff" stroke="#000" points="341.5 -180 246.5 -180 246.5 -144 341.5 -144 341.5 -180"/><text x="294" y="-159.5" font-family="Helvetica,sans-Serif" font-size="10" text-anchor="middle">GLES_COMPUTE</text></a></g></g><g id="edge21" class="edge"><title>dir_4f2df8950dc650bf7cf9176fae02facc-&gt;dir_7365e77196b52ca311bb83f181e59b8c</title><path fill="none" stroke="#000" d="M188.248,-215.876C207.061,-206.469 230.585,-194.708 250.666,-184.667"/><polygon fill="#000" stroke="#000" points="252.241 -187.792 259.62 -180.19 249.111 -181.531 252.241 -187.792"/><g id="a_edge21-headlabel"><a target="_top" xlink:href="dir_000118_000152.xhtml" xlink:title="12"><text x="250.296" y="-189.439" font-family="Helvetica,sans-Serif" font-size="10" text-anchor="middle">12</text></a></g></g><g id="node6" class="node"><title>dir_445738e6fed662d0b65e690e3f1e1de0</title><g id="a_node6"><a target="_top" xlink:href="dir_445738e6fed662d0b65e690e3f1e1de0.xhtml" xlink:title="NEON"><polygon fill="#fff" stroke="#000" points="228 -180 174 -180 174 -144 228 -144 228 -180"/><text x="201" y="-159.5" font-family="Helvetica,sans-Serif" font-size="10" text-anchor="middle">NEON</text></a></g></g><g id="edge19" class="edge"><title>dir_4f2df8950dc650bf7cf9176fae02facc-&gt;dir_445738e6fed662d0b65e690e3f1e1de0</title><path fill="none" stroke="#000" d="M165.618,-215.697C171.139,-207.474 177.847,-197.483 183.932,-188.421"/><polygon fill="#000" stroke="#000" points="186.847 -190.358 189.516 -180.104 181.035 -186.456 186.847 -190.358"/><g id="a_edge19-headlabel"><a target="_top" xlink:href="dir_000118_000153.xhtml" xlink:title="51"><text x="187.201" y="-192.425" font-family="Helvetica,sans-Serif" font-size="10" text-anchor="middle">51</text></a></g></g><g id="node8" class="node"><title>dir_cbdb8362360e11eafe2fa3bc74cf0ffd</title><g id="a_node8"><a target="_top" xlink:href="dir_cbdb8362360e11eafe2fa3bc74cf0ffd.xhtml" xlink:title="utils"><polygon fill="#fff" stroke="red" points="452 -180 398 -180 398 -144 452 -144 452 -180"/><text x="425" y="-159.5" font-family="Helvetica,sans-Serif" font-size="10" text-anchor="middle">utils</text></a></g></g><g id="edge18" class="edge"><title>dir_4f2df8950dc650bf7cf9176fae02facc-&gt;dir_cbdb8362360e11eafe2fa3bc74cf0ffd</title><path fill="none" stroke="#000" d="M189.678,-218.899C192.809,-217.851 195.947,-216.867 199,-216 279.578,-193.117 303.796,-204.163 384,-180 385.43,-179.569 386.877,-179.106 388.333,-178.619"/><polygon fill="#000" stroke="#000" points="389.736 -181.833 397.931 -175.117 387.337 -175.257 389.736 -181.833"/><g id="a_edge18-headlabel"><a target="_top" xlink:href="dir_000118_000034.xhtml" xlink:title="104"><text x="387.332" y="-183.232" font-family="Helvetica,sans-Serif" font-size="10" text-anchor="middle">104</text></a></g></g><g id="node9" class="node"><title>dir_214608ef36d61442cb2b0c1c4e9a7def</title><g id="a_node9"><a target="_top" xlink:href="dir_214608ef36d61442cb2b0c1c4e9a7def.xhtml" xlink:title="arm_compute"><polygon fill="#fff" stroke="red" points="336 -108 252 -108 252 -72 336 -72 336 -108"/><text x="294" y="-87.5" font-family="Helvetica,sans-Serif" font-size="10" text-anchor="middle">arm_compute</text></a></g></g><g id="edge22" class="edge"><title>dir_4f2df8950dc650bf7cf9176fae02facc-&gt;dir_214608ef36d61442cb2b0c1c4e9a7def</title><path fill="none" stroke="#000" d="M189.718,-219.032C192.84,-217.956 195.965,-216.928 199,-216 265.387,-195.691 307.936,-234.454 351,-180 363.13,-164.661 359.528,-153.598 351,-136 346.962,-127.668 340.55,-120.413 333.459,-114.303"/><polygon fill="#000" stroke="#000" points="335.607 -111.54 325.577 -108.125 331.289 -117.049 335.607 -111.54"/><g id="a_edge22-headlabel"><a target="_top" xlink:href="dir_000118_000000.xhtml" xlink:title="457"><text x="340.188" y="-109.022" font-family="Helvetica,sans-Serif" font-size="10" text-anchor="middle">457</text></a></g></g><g id="edge24" class="edge"><title>dir_896191444cf08ec8ade6f88256cb2bdd-&gt;dir_214608ef36d61442cb2b0c1c4e9a7def</title><path fill="none" stroke="#000" d="M64.6495,-143.922C69.1995,-140.931 74.1079,-138.107 79,-136 131.803,-113.26 196.976,-101.697 241.639,-96.0331"/><polygon fill="#000" stroke="#000" points="242.181 -99.493 251.687 -94.814 241.338 -92.544 242.181 -99.493"/><g id="a_edge24-headlabel"><a target="_top" xlink:href="dir_000151_000000.xhtml" xlink:title="10"><text x="238.954" y="-100.244" font-family="Helvetica,sans-Serif" font-size="10" text-anchor="middle">10</text></a></g></g><g id="node10" class="node"><title>dir_5815af820a9cc9481f1d0990a0d60286</title><g id="a_node10"><a target="_top" xlink:href="dir_5815af820a9cc9481f1d0990a0d60286.xhtml" xlink:title="support"><polygon fill="none" stroke="#000" points="280 -36 226 -36 226 0 280 0 280 -36"/><text x="253" y="-15.5" font-family="Helvetica,sans-Serif" font-size="10" text-anchor="middle">support</text></a></g></g><g id="edge25" class="edge"><title>dir_896191444cf08ec8ade6f88256cb2bdd-&gt;dir_5815af820a9cc9481f1d0990a0d60286</title><path fill="none" stroke="#000" d="M66.2007,-143.836C91.075,-125.586 131.873,-96.0918 168,-72 183.965,-61.3535 201.959,-50.0382 217.267,-40.6086"/><polygon fill="#000" stroke="#000" points="219.239 -43.505 225.934 -35.294 215.58 -37.538 219.239 -43.505"/><g id="a_edge25-headlabel"><a target="_top" xlink:href="dir_000151_000150.xhtml" xlink:title="1"><text x="217.659" y="-45.305" font-family="Helvetica,sans-Serif" font-size="10" text-anchor="middle">1</text></a></g></g><g id="edge12" class="edge"><title>dir_9e71e2da941d3cafc4d98a9f6ae3de4f-&gt;dir_cbdb8362360e11eafe2fa3bc74cf0ffd</title><path fill="none" stroke="#000" d="M142.199,-180.258C151.249,-187.246 162.471,-194.399 174,-198 216.635,-211.318 332.49,-211.711 375,-198 382.874,-195.46 390.554,-191.169 397.438,-186.417"/><polygon fill="#000" stroke="#000" points="399.776 -189.039 405.688 -180.247 395.584 -183.433 399.776 -189.039"/><g id="a_edge12-headlabel"><a target="_top" xlink:href="dir_000032_000034.xhtml" xlink:title="3"><text x="398.597" y="-190.966" font-family="Helvetica,sans-Serif" font-size="10" text-anchor="middle">3</text></a></g></g><g id="edge13" class="edge"><title>dir_9e71e2da941d3cafc4d98a9f6ae3de4f-&gt;dir_214608ef36d61442cb2b0c1c4e9a7def</title><path fill="none" stroke="#000" d="M149.809,-143.804C154.781,-141.027 159.979,-138.31 165,-136 189.811,-124.587 218.398,-114.338 242.346,-106.514"/><polygon fill="#000" stroke="#000" points="243.511 -109.816 251.958 -103.421 241.367 -103.152 243.511 -109.816"/><g id="a_edge13-headlabel"><a target="_top" xlink:href="dir_000032_000000.xhtml" xlink:title="14"><text x="240.958" y="-111.12" font-family="Helvetica,sans-Serif" font-size="10" text-anchor="middle">14</text></a></g></g><g id="edge14" class="edge"><title>dir_9e71e2da941d3cafc4d98a9f6ae3de4f-&gt;dir_5815af820a9cc9481f1d0990a0d60286</title><path fill="none" stroke="#000" d="M137.802,-143.871C160.817,-118.924 203.691,-72.4495 230.146,-43.7729"/><polygon fill="#000" stroke="#000" points="232.934 -45.913 237.142 -36.189 227.789 -41.166 232.934 -45.913"/><g id="a_edge14-headlabel"><a target="_top" xlink:href="dir_000032_000150.xhtml" xlink:title="7"><text x="232.584" y="-47.98" font-family="Helvetica,sans-Serif" font-size="10" text-anchor="middle">7</text></a></g></g><g id="edge15" class="edge"><title>dir_7365e77196b52ca311bb83f181e59b8c-&gt;dir_214608ef36d61442cb2b0c1c4e9a7def</title><path fill="none" stroke="#000" d="M294,-143.697C294,-135.983 294,-126.712 294,-118.112"/><polygon fill="#000" stroke="#000" points="297.5 -118.104 294 -108.104 290.5 -118.104 297.5 -118.104"/><g id="a_edge15-headlabel"><a target="_top" xlink:href="dir_000152_000000.xhtml" xlink:title="3"><text x="300.339" y="-119.199" font-family="Helvetica,sans-Serif" font-size="10" text-anchor="middle">3</text></a></g></g><g id="edge10" class="edge"><title>dir_445738e6fed662d0b65e690e3f1e1de0-&gt;dir_214608ef36d61442cb2b0c1c4e9a7def</title><path fill="none" stroke="#000" d="M223.989,-143.697C235.814,-134.796 250.392,-123.823 263.179,-114.199"/><polygon fill="#000" stroke="#000" points="265.391 -116.915 271.276 -108.104 261.181 -111.322 265.391 -116.915"/><g id="a_edge10-headlabel"><a target="_top" xlink:href="dir_000153_000000.xhtml" xlink:title="6"><text x="264.226" y="-118.845" font-family="Helvetica,sans-Serif" font-size="10" text-anchor="middle">6</text></a></g></g><g id="edge11" class="edge"><title>dir_445738e6fed662d0b65e690e3f1e1de0-&gt;dir_5815af820a9cc9481f1d0990a0d60286</title><path fill="none" stroke="#000" d="M207.272,-143.871C216.213,-119.457 232.703,-74.4258 243.246,-45.6351"/><polygon fill="#000" stroke="#000" points="246.553 -46.783 246.705 -36.189 239.98 -44.376 246.553 -46.783"/><g id="a_edge11-headlabel"><a target="_top" xlink:href="dir_000153_000150.xhtml" xlink:title="1"><text x="247.983" y="-48.635" font-family="Helvetica,sans-Serif" font-size="10" text-anchor="middle">1</text></a></g></g><g id="node7" class="node"><title>dir_e7c7b16542faa38cb4655ff1750d3604</title><g id="a_node7"><a target="_top" xlink:href="dir_e7c7b16542faa38cb4655ff1750d3604.xhtml" xlink:title="validation"><polygon fill="#fff" stroke="red" points="270 -252 208 -252 208 -216 270 -216 270 -252"/><text x="239" y="-231.5" font-family="Helvetica,sans-Serif" font-size="10" text-anchor="middle">validation</text></a></g></g><g id="edge6" class="edge"><title>dir_e7c7b16542faa38cb4655ff1750d3604-&gt;dir_896191444cf08ec8ade6f88256cb2bdd</title><path fill="none" stroke="#000" d="M207.785,-219.683C204.499,-218.393 201.193,-217.142 198,-216 148.816,-198.413 132.361,-199.646 79.8288,-180.038"/><polygon fill="#000" stroke="#000" points="80.927 -176.711 70.336 -176.418 78.433 -183.252 80.927 -176.711"/><g id="a_edge6-headlabel"><a target="_top" xlink:href="dir_000021_000151.xhtml" xlink:title="173"><text x="85.297" y="-172.839" font-family="Helvetica,sans-Serif" font-size="10" text-anchor="middle">173</text></a></g></g><g id="edge3" class="edge"><title>dir_e7c7b16542faa38cb4655ff1750d3604-&gt;dir_9e71e2da941d3cafc4d98a9f6ae3de4f</title><path fill="none" stroke="#000" d="M210.379,-215.876C195.081,-206.724 176.057,-195.342 159.582,-185.485"/><polygon fill="#000" stroke="#000" points="161.11 -182.32 150.731 -180.19 157.516 -188.327 161.11 -182.32"/><g id="a_edge3-headlabel"><a target="_top" xlink:href="dir_000021_000032.xhtml" xlink:title="854"><text x="165.652" y="-179.229" font-family="Helvetica,sans-Serif" font-size="10" text-anchor="middle">854</text></a></g></g><g id="edge4" class="edge"><title>dir_e7c7b16542faa38cb4655ff1750d3604-&gt;dir_7365e77196b52ca311bb83f181e59b8c</title><path fill="none" stroke="#000" d="M252.596,-215.697C259.123,-207.389 267.068,-197.277 274.247,-188.141"/><polygon fill="#000" stroke="#000" points="277.135 -190.13 280.561 -180.104 271.631 -185.805 277.135 -190.13"/><g id="a_edge4-headlabel"><a target="_top" xlink:href="dir_000021_000152.xhtml" xlink:title="21"><text x="277.147" y="-192.211" font-family="Helvetica,sans-Serif" font-size="10" text-anchor="middle">21</text></a></g></g><g id="edge2" class="edge"><title>dir_e7c7b16542faa38cb4655ff1750d3604-&gt;dir_445738e6fed662d0b65e690e3f1e1de0</title><path fill="none" stroke="#000" d="M229.607,-215.697C225.235,-207.644 219.943,-197.894 215.105,-188.982"/><polygon fill="#000" stroke="#000" points="218.132 -187.223 210.285 -180.104 211.98 -190.563 218.132 -187.223"/><g id="a_edge2-headlabel"><a target="_top" xlink:href="dir_000021_000153.xhtml" xlink:title="143"><text x="222.342" y="-186.528" font-family="Helvetica,sans-Serif" font-size="10" text-anchor="middle">143</text></a></g></g><g id="edge1" class="edge"><title>dir_e7c7b16542faa38cb4655ff1750d3604-&gt;dir_cbdb8362360e11eafe2fa3bc74cf0ffd</title><path fill="none" stroke="#000" d="M270.356,-219.423C273.268,-218.238 276.182,-217.08 279,-216 325.064,-198.341 337.858,-197.456 384,-180 385.396,-179.472 386.816,-178.926 388.248,-178.369"/><polygon fill="#000" stroke="#000" points="389.757 -181.535 397.748 -174.579 387.163 -175.033 389.757 -181.535"/><g id="a_edge1-headlabel"><a target="_top" xlink:href="dir_000021_000034.xhtml" xlink:title="8"><text x="387.47" y="-183.004" font-family="Helvetica,sans-Serif" font-size="10" text-anchor="middle">8</text></a></g></g><g id="edge5" class="edge"><title>dir_e7c7b16542faa38cb4655ff1750d3604-&gt;dir_214608ef36d61442cb2b0c1c4e9a7def</title><path fill="none" stroke="#000" d="M270.215,-219.012C273.156,-217.913 276.115,-216.888 279,-216 357.808,-191.745 408.656,-243.711 461,-180 473.414,-164.89 472.894,-151.523 461,-136 446.98,-117.702 389.704,-105.166 346.103,-98.0618"/><polygon fill="#000" stroke="#000" points="346.612 -94.599 336.19 -96.501 345.523 -101.514 346.612 -94.599"/><g id="a_edge5-headlabel"><a target="_top" xlink:href="dir_000021_000000.xhtml" xlink:title="1243"><text x="350.605" y="-89.853" font-family="Helvetica,sans-Serif" font-size="10" text-anchor="middle">1243</text></a></g></g><g id="edge7" class="edge"><title>dir_e7c7b16542faa38cb4655ff1750d3604-&gt;dir_5815af820a9cc9481f1d0990a0d60286</title><path fill="none" stroke="#000" d="M270.198,-218.959C273.143,-217.871 276.108,-216.863 279,-216 365.547,-190.175 421.068,-249.29 479,-180 540.658,-106.252 368.89,-49.6549 290.126,-28.2775"/><polygon fill="#000" stroke="#000" points="290.672 -24.801 280.109 -25.613 288.873 -31.566 290.672 -24.801"/><g id="a_edge7-headlabel"><a target="_top" xlink:href="dir_000021_000150.xhtml" xlink:title="11"><text x="294.876" y="-20.482" font-family="Helvetica,sans-Serif" font-size="10" text-anchor="middle">11</text></a></g></g><g id="edge8" class="edge"><title>dir_cbdb8362360e11eafe2fa3bc74cf0ffd-&gt;dir_214608ef36d61442cb2b0c1c4e9a7def</title><path fill="none" stroke="#000" d="M397.986,-149.215C390.46,-144.924 382.44,-140.119 375,-136 360.719,-128.094 344.874,-119.965 330.946,-112.828"/><polygon fill="#000" stroke="#000" points="332.147 -109.511 321.652 -108.061 328.952 -115.739 332.147 -109.511"/><g id="a_edge8-headlabel"><a target="_top" xlink:href="dir_000034_000000.xhtml" xlink:title="37"><text x="336.641" y="-106.125" font-family="Helvetica,sans-Serif" font-size="10" text-anchor="middle">37</text></a></g></g><g id="edge9" class="edge"><title>dir_cbdb8362360e11eafe2fa3bc74cf0ffd-&gt;dir_5815af820a9cc9481f1d0990a0d60286</title><path fill="none" stroke="#000" d="M412.228,-143.781C397.484,-124.682 371.804,-93.7028 345,-72 327.921,-58.1712 306.797,-45.7281 289.099,-36.3792"/><polygon fill="#000" stroke="#000" points="290.687 -33.26 280.196 -31.781 287.475 -39.48 290.687 -33.26"/><g id="a_edge9-headlabel"><a target="_top" xlink:href="dir_000034_000150.xhtml" xlink:title="3"><text x="295.184" y="-29.887" font-family="Helvetica,sans-Serif" font-size="10" text-anchor="middle">3</text></a></g></g><g id="edge16" class="edge"><title>dir_214608ef36d61442cb2b0c1c4e9a7def-&gt;dir_cbdb8362360e11eafe2fa3bc74cf0ffd</title><path fill="none" stroke="#000" d="M336.208,-107.218C354.087,-115.5 374.813,-125.931 393,-136 394.504,-136.833 396.032,-137.694 397.566,-138.573"/><polygon fill="#000" stroke="#000" points="395.894 -141.65 406.281 -143.737 399.462 -135.628 395.894 -141.65"/><g id="a_edge16-headlabel"><a target="_top" xlink:href="dir_000000_000034.xhtml" xlink:title="1"><text x="391.354" y="-139.76" font-family="Helvetica,sans-Serif" font-size="10" text-anchor="middle">1</text></a></g></g><g id="edge17" class="edge"><title>dir_214608ef36d61442cb2b0c1c4e9a7def-&gt;dir_5815af820a9cc9481f1d0990a0d60286</title><path fill="none" stroke="#000" d="M283.865,-71.6966C279.148,-63.6436 273.438,-53.8945 268.218,-44.9824"/><polygon fill="#000" stroke="#000" points="271.092 -42.964 263.018 -36.104 265.052 -46.502 271.092 -42.964"/><g id="a_edge17-headlabel"><a target="_top" xlink:href="dir_000000_000150.xhtml" xlink:title="22"><text x="275.359" y="-42.131" font-family="Helvetica,sans-Serif" font-size="10" text-anchor="middle">22</text></a></g></g></g></svg>