<svg xmlns="http://www.w3.org/2000/svg" xmlns:xlink="http://www.w3.org/1999/xlink" width="146pt" height="151pt" viewBox="0 0 146 151"><g id="graph0" class="graph" transform="scale(1 1) rotate(0) translate(4 147)"><title>src/core/CL/gemm/reshaped_only_rhs</title><polygon fill="#fff" stroke="none" points="-4 4 -4 -147 142 -147 142 4 -4 4"/><g id="clust1" class="cluster"><title>clusterdir_acedbc3c1c025eedca19641ef7b62820</title><g id="a_clust1"><a target="_top" xlink:href="dir_acedbc3c1c025eedca19641ef7b62820.xhtml" xlink:title="gemm"><polygon fill="#dde" stroke="#000" points="8 -64 8 -135 130 -135 130 -64 8 -64"/><text x="69" y="-123" font-family="Helvetica,sans-Serif" font-size="10" text-anchor="middle">gemm</text></a></g></g><g id="node1" class="node"><title>dir_afe4835d9501312dff8cde2275a46453</title><g id="a_node1"><a target="_top" xlink:href="dir_afe4835d9501312dff8cde2275a46453.xhtml" xlink:title="reshaped_only_rhs"><polygon fill="#eef" stroke="#000" points="122.5 -108 15.5 -108 15.5 -72 122.5 -72 122.5 -108"/><text x="69" y="-87.5" font-family="Helvetica,sans-Serif" font-size="10" text-anchor="middle">reshaped_only_rhs</text></a></g></g><g id="node2" class="node"><title>dir_214608ef36d61442cb2b0c1c4e9a7def</title><g id="a_node2"><a target="_top" xlink:href="dir_214608ef36d61442cb2b0c1c4e9a7def.xhtml" xlink:title="arm_compute"><polygon fill="#fff" stroke="red" points="111 -36 27 -36 27 0 111 0 111 -36"/><text x="69" y="-15.5" font-family="Helvetica,sans-Serif" font-size="10" text-anchor="middle">arm_compute</text></a></g></g><g id="edge1" class="edge"><title>dir_afe4835d9501312dff8cde2275a46453-&gt;dir_214608ef36d61442cb2b0c1c4e9a7def</title><path fill="none" stroke="#000" d="M69,-71.6966C69,-63.9827 69,-54.7125 69,-46.1124"/><polygon fill="#000" stroke="#000" points="72.5 -46.104 69 -36.104 65.5 -46.104 72.5 -46.104"/><g id="a_edge1-headlabel"><a target="_top" xlink:href="dir_000065_000000.xhtml" xlink:title="5"><text x="75.339" y="-47.199" font-family="Helvetica,sans-Serif" font-size="10" text-anchor="middle">5</text></a></g></g></g></svg>