<svg xmlns="http://www.w3.org/2000/svg" xmlns:xlink="http://www.w3.org/1999/xlink" width="100pt" height="151pt" viewBox="0 0 100 151"><g id="graph0" class="graph" transform="scale(1 1) rotate(0) translate(4 147)"><title>arm_compute/runtime/CPP/functions</title><polygon fill="#fff" stroke="none" points="-4 4 -4 -147 96 -147 96 4 -4 4"/><g id="clust1" class="cluster"><title>clusterdir_b496024afd63bafbf4e8da80d7d3a81a</title><g id="a_clust1"><a target="_top" xlink:href="dir_b496024afd63bafbf4e8da80d7d3a81a.xhtml" xlink:title="CPP"><polygon fill="#dde" stroke="#000" points="8 -64 8 -135 84 -135 84 -64 8 -64"/><text x="46" y="-123" font-family="Helvetica,sans-Serif" font-size="10" text-anchor="middle">CPP</text></a></g></g><g id="node1" class="node"><title>dir_0f1ff859406f1a8b0006aceabacdc4c4</title><g id="a_node1"><a target="_top" xlink:href="dir_0f1ff859406f1a8b0006aceabacdc4c4.xhtml" xlink:title="functions"><polygon fill="#eef" stroke="#000" points="76 -108 16 -108 16 -72 76 -72 76 -108"/><text x="46" y="-87.5" font-family="Helvetica,sans-Serif" font-size="10" text-anchor="middle">functions</text></a></g></g><g id="node2" class="node"><title>dir_1fb090f0c6070330bfaccc4236d3ca0d</title><g id="a_node2"><a target="_top" xlink:href="dir_1fb090f0c6070330bfaccc4236d3ca0d.xhtml" xlink:title="core"><polygon fill="#fff" stroke="red" points="73 -36 19 -36 19 0 73 0 73 -36"/><text x="46" y="-15.5" font-family="Helvetica,sans-Serif" font-size="10" text-anchor="middle">core</text></a></g></g><g id="edge1" class="edge"><title>dir_0f1ff859406f1a8b0006aceabacdc4c4-&gt;dir_1fb090f0c6070330bfaccc4236d3ca0d</title><path fill="none" stroke="#000" d="M46,-71.6966C46,-63.9827 46,-54.7125 46,-46.1124"/><polygon fill="#000" stroke="#000" points="49.5 -46.104 46 -36.104 42.5 -46.104 49.5 -46.104"/><g id="a_edge1-headlabel"><a target="_top" xlink:href="dir_000051_000001.xhtml" xlink:title="7"><text x="52.339" y="-47.199" font-family="Helvetica,sans-Serif" font-size="10" text-anchor="middle">7</text></a></g></g></g></svg>