<svg xmlns="http://www.w3.org/2000/svg" xmlns:xlink="http://www.w3.org/1999/xlink" width="253pt" height="308" viewBox="0 0 253 231"><g id="graph0" class="graph" transform="scale(1 1) rotate(0) translate(4 227)"><title>src/runtime/GLES_COMPUTE</title><polygon fill="#fff" stroke="none" points="-4 4 -4 -227 249 -227 249 4 -4 4"/><g id="clust1" class="cluster"><title>clusterdir_bf9f26469d00835ba20ff8d80ee5a804</title><g id="a_clust1"><a target="_top" xlink:href="dir_bf9f26469d00835ba20ff8d80ee5a804.xhtml" xlink:title="runtime"><polygon fill="#dde" stroke="#000" points="31 -128 31 -215 237 -215 237 -128 31 -128"/><text x="134" y="-203" font-family="Helvetica,sans-Serif" font-size="10" text-anchor="middle">runtime</text></a></g></g><g id="clust2" class="cluster"><title>clusterdir_cf4458890b03c2fecc4456bb26b0662d</title><g id="a_clust2"><a target="_top" xlink:href="dir_cf4458890b03c2fecc4456bb26b0662d.xhtml"><polygon fill="#eef" stroke="#000" points="39 -136 39 -188 229 -188 229 -136 39 -136"/></a></g></g><g id="node1" class="node"><title>dir_cf4458890b03c2fecc4456bb26b0662d</title><text x="173" y="-159.5" font-family="Helvetica,sans-Serif" font-size="10" text-anchor="middle">GLES_COMPUTE</text></g><g id="node2" class="node"><title>dir_bf3d5de434fb5b085e73b3ddceaf8bd9</title><g id="a_node2"><a target="_top" xlink:href="dir_bf3d5de434fb5b085e73b3ddceaf8bd9.xhtml" xlink:title="functions"><polygon fill="#fff" stroke="#000" points="107 -180 47 -180 47 -144 107 -144 107 -180"/><text x="77" y="-159.5" font-family="Helvetica,sans-Serif" font-size="10" text-anchor="middle">functions</text></a></g></g><g id="node3" class="node"><title>dir_214608ef36d61442cb2b0c1c4e9a7def</title><g id="a_node3"><a target="_top" xlink:href="dir_214608ef36d61442cb2b0c1c4e9a7def.xhtml" xlink:title="arm_compute"><polygon fill="#fff" stroke="red" points="84 -108 0 -108 0 -72 84 -72 84 -108"/><text x="42" y="-87.5" font-family="Helvetica,sans-Serif" font-size="10" text-anchor="middle">arm_compute</text></a></g></g><g id="edge1" class="edge"><title>dir_bf3d5de434fb5b085e73b3ddceaf8bd9-&gt;dir_214608ef36d61442cb2b0c1c4e9a7def</title><path fill="none" stroke="#000" d="M68.3483,-143.697C64.3642,-135.728 59.5498,-126.1 55.1321,-117.264"/><polygon fill="#000" stroke="#000" points="58.155 -115.483 50.552 -108.104 51.894 -118.614 58.155 -115.483"/><g id="a_edge1-headlabel"><a target="_top" xlink:href="dir_000143_000000.xhtml" xlink:title="105"><text x="62.302" y="-114.929" font-family="Helvetica,sans-Serif" font-size="10" text-anchor="middle">105</text></a></g></g><g id="node4" class="node"><title>dir_5815af820a9cc9481f1d0990a0d60286</title><g id="a_node4"><a target="_top" xlink:href="dir_5815af820a9cc9481f1d0990a0d60286.xhtml" xlink:title="support"><polygon fill="none" stroke="#000" points="104 -36 50 -36 50 0 104 0 104 -36"/><text x="77" y="-15.5" font-family="Helvetica,sans-Serif" font-size="10" text-anchor="middle">support</text></a></g></g><g id="edge2" class="edge"><title>dir_bf3d5de434fb5b085e73b3ddceaf8bd9-&gt;dir_5815af820a9cc9481f1d0990a0d60286</title><path fill="none" stroke="#000" d="M83.6522,-143.628C87.2029,-133.421 91.2029,-120.171 93,-108 95.3371,-92.1716 95.3371,-87.8284 93,-72 91.7224,-63.3473 89.3314,-54.1492 86.7799,-45.8867"/><polygon fill="#000" stroke="#000" points="90.1 -44.779 83.652 -36.372 83.45 -46.965 90.1 -44.779"/><g id="a_edge2-headlabel"><a target="_top" xlink:href="dir_000143_000150.xhtml" xlink:title="15"><text x="93.92" y="-44.807" font-family="Helvetica,sans-Serif" font-size="10" text-anchor="middle">15</text></a></g></g><g id="edge3" class="edge"><title>dir_214608ef36d61442cb2b0c1c4e9a7def-&gt;dir_5815af820a9cc9481f1d0990a0d60286</title><path fill="none" stroke="#000" d="M50.6517,-71.6966C54.6358,-63.7284 59.4502,-54.0995 63.8679,-45.2641"/><polygon fill="#000" stroke="#000" points="67.106 -46.614 68.448 -36.104 60.845 -43.483 67.106 -46.614"/><g id="a_edge3-headlabel"><a target="_top" xlink:href="dir_000000_000150.xhtml" xlink:title="22"><text x="68.038" y="-48.599" font-family="Helvetica,sans-Serif" font-size="10" text-anchor="middle">22</text></a></g></g></g></svg>