<svg xmlns="http://www.w3.org/2000/svg" xmlns:xlink="http://www.w3.org/1999/xlink" width="368" height="404" viewBox="0 0 276 303"><g id="graph0" class="graph" transform="scale(1 1) rotate(0) translate(4 299)"><title>arm_compute/core/NEON</title><polygon fill="#fff" stroke="none" points="-4 4 -4 -299 272 -299 272 4 -4 4"/><g id="clust1" class="cluster"><title>clusterdir_1fb090f0c6070330bfaccc4236d3ca0d</title><g id="a_clust1"><a target="_top" xlink:href="dir_1fb090f0c6070330bfaccc4236d3ca0d.xhtml" xlink:title="core"><polygon fill="#dde" stroke="#000" points="8 -56 8 -287 96 -287 96 -56 8 -56"/><text x="52" y="-275" font-family="Helvetica,sans-Serif" font-size="10" text-anchor="middle">core</text></a></g></g><g id="clust2" class="cluster"><title>clusterdir_315f6cf1ec0b2df3ae747ff8286a19f5</title><g id="a_clust2"><a target="_top" xlink:href="dir_315f6cf1ec0b2df3ae747ff8286a19f5.xhtml"><polygon fill="#eef" stroke="#000" points="16 -64 16 -260 88 -260 88 -64 16 -64"/></a></g></g><g id="node1" class="node"><title>dir_315f6cf1ec0b2df3ae747ff8286a19f5</title><text x="53" y="-231.5" font-family="Helvetica,sans-Serif" font-size="10" text-anchor="middle">NEON</text></g><g id="node2" class="node"><title>dir_2c3c4cb85e732569e2614ad40a451d53</title><g id="a_node2"><a target="_top" xlink:href="dir_2c3c4cb85e732569e2614ad40a451d53.xhtml" xlink:title="kernels"><polygon fill="#fff" stroke="red" points="80 -180 26 -180 26 -144 80 -144 80 -180"/><text x="53" y="-159.5" font-family="Helvetica,sans-Serif" font-size="10" text-anchor="middle">kernels</text></a></g></g><g id="edge6" class="edge"><title>dir_315f6cf1ec0b2df3ae747ff8286a19f5-&gt;dir_2c3c4cb85e732569e2614ad40a451d53</title><path fill="none" stroke="#000" d="M53,-215.697C53,-207.983 53,-198.712 53,-190.112"/><polygon fill="#000" stroke="#000" points="56.5 -190.104 53 -180.104 49.5 -190.104 56.5 -190.104"/><g id="a_edge6-headlabel"><a target="_top" xlink:href="dir_000022_000025.xhtml" xlink:title="121"><text x="59.339" y="-191.199" font-family="Helvetica,sans-Serif" font-size="10" text-anchor="middle">121</text></a></g></g><g id="node3" class="node"><title>dir_9eca3c725728e372597fcd0d17c1ea0f</title><g id="a_node3"><a target="_top" xlink:href="dir_9eca3c725728e372597fcd0d17c1ea0f.xhtml" xlink:title="wrapper"><polygon fill="#fff" stroke="red" points="79.5 -108 24.5 -108 24.5 -72 79.5 -72 79.5 -108"/><text x="52" y="-87.5" font-family="Helvetica,sans-Serif" font-size="10" text-anchor="middle">wrapper</text></a></g></g><g id="edge5" class="edge"><title>dir_2c3c4cb85e732569e2614ad40a451d53-&gt;dir_9eca3c725728e372597fcd0d17c1ea0f</title><path fill="none" stroke="#000" d="M52.7528,-143.697C52.6426,-135.983 52.5102,-126.712 52.3873,-118.112"/><polygon fill="#000" stroke="#000" points="55.887 -118.053 52.244 -108.104 48.888 -118.153 55.887 -118.053"/><g id="a_edge5-headlabel"><a target="_top" xlink:href="dir_000025_000023.xhtml" xlink:title="1"><text x="58.777" y="-119.107" font-family="Helvetica,sans-Serif" font-size="10" text-anchor="middle">1</text></a></g></g><g id="node4" class="node"><title>dir_7b0825b7536eda12b63e5d87347b1c7d</title><g id="a_node4"><a target="_top" xlink:href="dir_7b0825b7536eda12b63e5d87347b1c7d.xhtml" xlink:title="utils"><polygon fill="#fff" stroke="red" points="158 -108 104 -108 104 -72 158 -72 158 -108"/><text x="131" y="-87.5" font-family="Helvetica,sans-Serif" font-size="10" text-anchor="middle">utils</text></a></g></g><g id="edge2" class="edge"><title>dir_2c3c4cb85e732569e2614ad40a451d53-&gt;dir_7b0825b7536eda12b63e5d87347b1c7d</title><path fill="none" stroke="#000" d="M72.2809,-143.697C81.9154,-135.05 93.7288,-124.449 104.227,-115.027"/><polygon fill="#000" stroke="#000" points="106.836 -117.388 111.941 -108.104 102.161 -112.179 106.836 -117.388"/><g id="a_edge2-headlabel"><a target="_top" xlink:href="dir_000025_000014.xhtml" xlink:title="1"><text x="106.057" y="-119.402" font-family="Helvetica,sans-Serif" font-size="10" text-anchor="middle">1</text></a></g></g><g id="node5" class="node"><title>dir_5815af820a9cc9481f1d0990a0d60286</title><g id="a_node5"><a target="_top" xlink:href="dir_5815af820a9cc9481f1d0990a0d60286.xhtml" xlink:title="support"><polygon fill="none" stroke="#000" points="213 -36 159 -36 159 0 213 0 213 -36"/><text x="186" y="-15.5" font-family="Helvetica,sans-Serif" font-size="10" text-anchor="middle">support</text></a></g></g><g id="edge3" class="edge"><title>dir_2c3c4cb85e732569e2614ad40a451d53-&gt;dir_5815af820a9cc9481f1d0990a0d60286</title><path fill="none" stroke="#000" d="M80.3812,-155.627C106.631,-149.01 145.369,-135.137 167,-108 180.812,-90.6718 185.193,-65.6166 186.331,-46.5024"/><polygon fill="#000" stroke="#000" points="189.835 -46.421 186.671 -36.31 182.839 -46.188 189.835 -46.421"/><g id="a_edge3-headlabel"><a target="_top" xlink:href="dir_000025_000150.xhtml" xlink:title="5"><text x="192.553" y="-47.609" font-family="Helvetica,sans-Serif" font-size="10" text-anchor="middle">5</text></a></g></g><g id="node6" class="node"><title>dir_7484b841a86f2d7fdd057c9b24fbf230</title><g id="a_node6"><a target="_top" xlink:href="dir_7484b841a86f2d7fdd057c9b24fbf230.xhtml" xlink:title="CPP"><polygon fill="#fff" stroke="red" points="268 -108 214 -108 214 -72 268 -72 268 -108"/><text x="241" y="-87.5" font-family="Helvetica,sans-Serif" font-size="10" text-anchor="middle">CPP</text></a></g></g><g id="edge4" class="edge"><title>dir_2c3c4cb85e732569e2614ad40a451d53-&gt;dir_7484b841a86f2d7fdd057c9b24fbf230</title><path fill="none" stroke="#000" d="M80.2353,-151.611C109.852,-141.302 158.512,-124.07 200,-108 201.392,-107.461 202.808,-106.906 204.237,-106.34"/><polygon fill="#000" stroke="#000" points="205.757 -109.502 213.725 -102.519 203.141 -103.009 205.757 -109.502"/><g id="a_edge4-headlabel"><a target="_top" xlink:href="dir_000025_000010.xhtml" xlink:title="2"><text x="203.484" y="-110.978" font-family="Helvetica,sans-Serif" font-size="10" text-anchor="middle">2</text></a></g></g><g id="edge1" class="edge"><title>dir_7b0825b7536eda12b63e5d87347b1c7d-&gt;dir_5815af820a9cc9481f1d0990a0d60286</title><path fill="none" stroke="#000" d="M144.596,-71.6966C151.123,-63.3893 159.068,-53.2771 166.247,-44.1407"/><polygon fill="#000" stroke="#000" points="169.135 -46.13 172.561 -36.104 163.631 -41.805 169.135 -46.13"/><g id="a_edge1-headlabel"><a target="_top" xlink:href="dir_000014_000150.xhtml" xlink:title="4"><text x="169.147" y="-48.211" font-family="Helvetica,sans-Serif" font-size="10" text-anchor="middle">4</text></a></g></g><g id="edge7" class="edge"><title>dir_7484b841a86f2d7fdd057c9b24fbf230-&gt;dir_5815af820a9cc9481f1d0990a0d60286</title><path fill="none" stroke="#000" d="M227.404,-71.6966C220.877,-63.3893 212.932,-53.2771 205.753,-44.1407"/><polygon fill="#000" stroke="#000" points="208.369 -41.805 199.439 -36.104 202.865 -46.13 208.369 -41.805"/><g id="a_edge7-headlabel"><a target="_top" xlink:href="dir_000010_000150.xhtml" xlink:title="1"><text x="212.823" y="-40.377" font-family="Helvetica,sans-Serif" font-size="10" text-anchor="middle">1</text></a></g></g></g></svg>