<svg xmlns="http://www.w3.org/2000/svg" xmlns:xlink="http://www.w3.org/1999/xlink" width="241pt" height="404" viewBox="0 0 240.95 303"><g id="graph0" class="graph" transform="scale(1 1) rotate(0) translate(4 299)"><title>tests/validation/GLES_COMPUTE</title><polygon fill="#fff" stroke="none" points="-4 4 -4 -299 236.953 -299 236.953 4 -4 4"/><g id="clust1" class="cluster"><title>clusterdir_e7c7b16542faa38cb4655ff1750d3604</title><g id="a_clust1"><a target="_top" xlink:href="dir_e7c7b16542faa38cb4655ff1750d3604.xhtml" xlink:title="validation"><polygon fill="#dde" stroke="#000" points="8 -200 8 -287 208 -287 208 -200 8 -200"/><text x="108" y="-275" font-family="Helvetica,sans-Serif" font-size="10" text-anchor="middle">validation</text></a></g></g><g id="clust2" class="cluster"><title>clusterdir_fbdf7bf92663091dc4d5520df638c068</title><g id="a_clust2"><a target="_top" xlink:href="dir_fbdf7bf92663091dc4d5520df638c068.xhtml"><polygon fill="#eef" stroke="#000" points="16 -208 16 -260 200 -260 200 -208 16 -208"/></a></g></g><g id="node1" class="node"><title>dir_fbdf7bf92663091dc4d5520df638c068</title><text x="72" y="-231.5" font-family="Helvetica,sans-Serif" font-size="10" text-anchor="middle">GLES_COMPUTE</text></g><g id="node3" class="node"><title>dir_9e71e2da941d3cafc4d98a9f6ae3de4f</title><g id="a_node3"><a target="_top" xlink:href="dir_9e71e2da941d3cafc4d98a9f6ae3de4f.xhtml" xlink:title="framework"><polygon fill="#fff" stroke="red" points="198.5 -180 131.5 -180 131.5 -144 198.5 -144 198.5 -180"/><text x="165" y="-159.5" font-family="Helvetica,sans-Serif" font-size="10" text-anchor="middle">framework</text></a></g></g><g id="edge1" class="edge"><title>dir_fbdf7bf92663091dc4d5520df638c068-&gt;dir_9e71e2da941d3cafc4d98a9f6ae3de4f</title><path fill="none" stroke="#000" d="M94.9888,-215.697C106.814,-206.796 121.392,-195.823 134.179,-186.199"/><polygon fill="#000" stroke="#000" points="136.391 -188.915 142.276 -180.104 132.181 -183.322 136.391 -188.915"/><g id="a_edge1-headlabel"><a target="_top" xlink:href="dir_000136_000032.xhtml" xlink:title="56"><text x="135.226" y="-190.845" font-family="Helvetica,sans-Serif" font-size="10" text-anchor="middle">56</text></a></g></g><g id="node4" class="node"><title>dir_7365e77196b52ca311bb83f181e59b8c</title><g id="a_node4"><a target="_top" xlink:href="dir_7365e77196b52ca311bb83f181e59b8c.xhtml" xlink:title="GLES_COMPUTE"><polygon fill="none" stroke="#000" points="113.5 -180 18.5 -180 18.5 -144 113.5 -144 113.5 -180"/><text x="66" y="-159.5" font-family="Helvetica,sans-Serif" font-size="10" text-anchor="middle">GLES_COMPUTE</text></a></g></g><g id="edge2" class="edge"><title>dir_fbdf7bf92663091dc4d5520df638c068-&gt;dir_7365e77196b52ca311bb83f181e59b8c</title><path fill="none" stroke="#000" d="M70.5169,-215.697C69.8557,-207.983 69.0611,-198.712 68.3239,-190.112"/><polygon fill="#000" stroke="#000" points="71.807 -189.769 67.466 -180.104 64.833 -190.367 71.807 -189.769"/><g id="a_edge2-headlabel"><a target="_top" xlink:href="dir_000136_000152.xhtml" xlink:title="21"><text x="74.943" y="-190.608" font-family="Helvetica,sans-Serif" font-size="10" text-anchor="middle">21</text></a></g></g><g id="node5" class="node"><title>dir_214608ef36d61442cb2b0c1c4e9a7def</title><g id="a_node5"><a target="_top" xlink:href="dir_214608ef36d61442cb2b0c1c4e9a7def.xhtml" xlink:title="arm_compute"><polygon fill="#fff" stroke="red" points="168 -108 84 -108 84 -72 168 -72 168 -108"/><text x="126" y="-87.5" font-family="Helvetica,sans-Serif" font-size="10" text-anchor="middle">arm_compute</text></a></g></g><g id="edge3" class="edge"><title>dir_fbdf7bf92663091dc4d5520df638c068-&gt;dir_214608ef36d61442cb2b0c1c4e9a7def</title><path fill="none" stroke="#000" d="M41.7002,-215.805C29.1221,-206.898 15.8768,-194.772 9,-180 2.24733,-165.495 0.329162,-157.447 9,-144 23.4449,-121.599 49.9082,-108.562 74.0174,-101.028"/><polygon fill="#000" stroke="#000" points="75.164 -104.341 83.811 -98.218 73.233 -97.612 75.164 -104.341"/><g id="a_edge3-headlabel"><a target="_top" xlink:href="dir_000136_000000.xhtml" xlink:title="79"><text x="72.492" y="-105.561" font-family="Helvetica,sans-Serif" font-size="10" text-anchor="middle">79</text></a></g></g><g id="node2" class="node"><title>dir_3cbe5b6455504b72bdad57647abe41ab</title><g id="a_node2"><a target="_top" xlink:href="dir_3cbe5b6455504b72bdad57647abe41ab.xhtml" xlink:title="UNIT"><polygon fill="#fff" stroke="#000" points="192 -252 138 -252 138 -216 192 -216 192 -252"/><text x="165" y="-231.5" font-family="Helvetica,sans-Serif" font-size="10" text-anchor="middle">UNIT</text></a></g></g><g id="edge8" class="edge"><title>dir_3cbe5b6455504b72bdad57647abe41ab-&gt;dir_9e71e2da941d3cafc4d98a9f6ae3de4f</title><path fill="none" stroke="#000" d="M165,-215.697C165,-207.983 165,-198.712 165,-190.112"/><polygon fill="#000" stroke="#000" points="168.5 -190.104 165 -180.104 161.5 -190.104 168.5 -190.104"/><g id="a_edge8-headlabel"><a target="_top" xlink:href="dir_000158_000032.xhtml" xlink:title="2"><text x="171.339" y="-191.199" font-family="Helvetica,sans-Serif" font-size="10" text-anchor="middle">2</text></a></g></g><g id="edge9" class="edge"><title>dir_3cbe5b6455504b72bdad57647abe41ab-&gt;dir_7365e77196b52ca311bb83f181e59b8c</title><path fill="none" stroke="#000" d="M147.138,-215.832C141.244,-210.508 134.522,-204.787 128,-200 121.1,-194.936 113.47,-189.94 105.991,-185.338"/><polygon fill="#000" stroke="#000" points="107.706 -182.286 97.332 -180.135 104.101 -188.286 107.706 -182.286"/><g id="a_edge9-headlabel"><a target="_top" xlink:href="dir_000158_000152.xhtml" xlink:title="1"><text x="112.25" y="-179.203" font-family="Helvetica,sans-Serif" font-size="10" text-anchor="middle">1</text></a></g></g><g id="edge10" class="edge"><title>dir_3cbe5b6455504b72bdad57647abe41ab-&gt;dir_214608ef36d61442cb2b0c1c4e9a7def</title><path fill="none" stroke="#000" d="M183.511,-215.689C200.541,-197.571 221.291,-168.416 208,-144 200.954,-131.057 189.237,-120.792 176.834,-112.88"/><polygon fill="#000" stroke="#000" points="178.577 -109.844 168.186 -107.773 175.018 -115.872 178.577 -109.844"/><g id="a_edge10-headlabel"><a target="_top" xlink:href="dir_000158_000000.xhtml" xlink:title="5"><text x="183.116" y="-106.727" font-family="Helvetica,sans-Serif" font-size="10" text-anchor="middle">5</text></a></g></g><g id="node6" class="node"><title>dir_5815af820a9cc9481f1d0990a0d60286</title><g id="a_node6"><a target="_top" xlink:href="dir_5815af820a9cc9481f1d0990a0d60286.xhtml" xlink:title="support"><polygon fill="none" stroke="#000" points="223 -36 169 -36 169 0 223 0 223 -36"/><text x="196" y="-15.5" font-family="Helvetica,sans-Serif" font-size="10" text-anchor="middle">support</text></a></g></g><g id="edge11" class="edge"><title>dir_3cbe5b6455504b72bdad57647abe41ab-&gt;dir_5815af820a9cc9481f1d0990a0d60286</title><path fill="none" stroke="#000" d="M192.181,-216.337C204.331,-207.259 217.383,-194.839 224,-180 243.791,-135.619 224.565,-78.5536 209.672,-45.6448"/><polygon fill="#000" stroke="#000" points="212.671 -43.798 205.237 -36.248 206.34 -46.785 212.671 -43.798"/><g id="a_edge11-headlabel"><a target="_top" xlink:href="dir_000158_000150.xhtml" xlink:title="1"><text x="216.772" y="-43.337" font-family="Helvetica,sans-Serif" font-size="10" text-anchor="middle">1</text></a></g></g><g id="edge4" class="edge"><title>dir_9e71e2da941d3cafc4d98a9f6ae3de4f-&gt;dir_214608ef36d61442cb2b0c1c4e9a7def</title><path fill="none" stroke="#000" d="M155.36,-143.697C150.873,-135.644 145.441,-125.894 140.476,-116.982"/><polygon fill="#000" stroke="#000" points="143.454 -115.137 135.53 -108.104 137.339 -118.544 143.454 -115.137"/><g id="a_edge4-headlabel"><a target="_top" xlink:href="dir_000032_000000.xhtml" xlink:title="14"><text x="147.684" y="-114.395" font-family="Helvetica,sans-Serif" font-size="10" text-anchor="middle">14</text></a></g></g><g id="edge5" class="edge"><title>dir_9e71e2da941d3cafc4d98a9f6ae3de4f-&gt;dir_5815af820a9cc9481f1d0990a0d60286</title><path fill="none" stroke="#000" d="M168.945,-143.826C171.312,-133.458 174.365,-119.978 177,-108 181.553,-87.2987 186.552,-63.8526 190.279,-46.2237"/><polygon fill="#000" stroke="#000" points="193.78 -46.583 192.42 -36.075 186.931 -45.138 193.78 -46.583"/><g id="a_edge5-headlabel"><a target="_top" xlink:href="dir_000032_000150.xhtml" xlink:title="7"><text x="195.816" y="-48.186" font-family="Helvetica,sans-Serif" font-size="10" text-anchor="middle">7</text></a></g></g><g id="edge6" class="edge"><title>dir_7365e77196b52ca311bb83f181e59b8c-&gt;dir_214608ef36d61442cb2b0c1c4e9a7def</title><path fill="none" stroke="#000" d="M80.8315,-143.697C88.0247,-135.305 96.7967,-125.07 104.69,-115.861"/><polygon fill="#000" stroke="#000" points="107.489 -117.975 111.339 -108.104 102.174 -113.419 107.489 -117.975"/><g id="a_edge6-headlabel"><a target="_top" xlink:href="dir_000152_000000.xhtml" xlink:title="3"><text x="107.305" y="-120.052" font-family="Helvetica,sans-Serif" font-size="10" text-anchor="middle">3</text></a></g></g><g id="edge7" class="edge"><title>dir_214608ef36d61442cb2b0c1c4e9a7def-&gt;dir_5815af820a9cc9481f1d0990a0d60286</title><path fill="none" stroke="#000" d="M143.303,-71.6966C151.865,-63.135 162.344,-52.6562 171.696,-43.3045"/><polygon fill="#000" stroke="#000" points="174.299 -45.65 178.896 -36.104 169.35 -40.7 174.299 -45.65"/><g id="a_edge7-headlabel"><a target="_top" xlink:href="dir_000000_000150.xhtml" xlink:title="22"><text x="173.765" y="-47.7" font-family="Helvetica,sans-Serif" font-size="10" text-anchor="middle">22</text></a></g></g></g></svg>