<svg xmlns="http://www.w3.org/2000/svg" xmlns:xlink="http://www.w3.org/1999/xlink" width="386pt" height="148" viewBox="0 0 386 111"><g id="graph0" class="graph" transform="scale(1 1) rotate(0) translate(4 107)"><title>arm_compute/core/CL/gemm</title><polygon fill="#fff" stroke="none" points="-4 4 -4 -107 382 -107 382 4 -4 4"/><g id="clust1" class="cluster"><title>clusterdir_1633709b037eda5b8477677909f78129</title><g id="a_clust1"><a target="_top" xlink:href="dir_1633709b037eda5b8477677909f78129.xhtml" xlink:title="CL"><polygon fill="#dde" stroke="#000" points="8 -8 8 -95 370 -95 370 -8 8 -8"/><text x="189" y="-83" font-family="Helvetica,sans-Serif" font-size="10" text-anchor="middle">CL</text></a></g></g><g id="clust2" class="cluster"><title>clusterdir_2d287d0b1a82c88d991f218c8bb4dd9a</title><g id="a_clust2"><a target="_top" xlink:href="dir_2d287d0b1a82c88d991f218c8bb4dd9a.xhtml"><polygon fill="#eef" stroke="#000" points="16 -16 16 -68 362 -68 362 -16 16 -16"/></a></g></g><g id="node1" class="node"><title>dir_2d287d0b1a82c88d991f218c8bb4dd9a</title><text x="327" y="-39.5" font-family="Helvetica,sans-Serif" font-size="10" text-anchor="middle">gemm</text></g><g id="node2" class="node"><title>dir_b523ce05c2c84637005d8f1cd0b6c28b</title><g id="a_node2"><a target="_top" xlink:href="dir_b523ce05c2c84637005d8f1cd0b6c28b.xhtml" xlink:title="native"><polygon fill="#fff" stroke="#000" points="282 -60 228 -60 228 -24 282 -24 282 -60"/><text x="255" y="-39.5" font-family="Helvetica,sans-Serif" font-size="10" text-anchor="middle">native</text></a></g></g><g id="node3" class="node"><title>dir_b380ea7850246e3d17a9b2ca7d641d9f</title><g id="a_node3"><a target="_top" xlink:href="dir_b380ea7850246e3d17a9b2ca7d641d9f.xhtml" xlink:title="reshaped"><polygon fill="#fff" stroke="#000" points="210 -60 148 -60 148 -24 210 -24 210 -60"/><text x="179" y="-39.5" font-family="Helvetica,sans-Serif" font-size="10" text-anchor="middle">reshaped</text></a></g></g><g id="node4" class="node"><title>dir_49c6f2cdaf048b4777902725298492e0</title><g id="a_node4"><a target="_top" xlink:href="dir_49c6f2cdaf048b4777902725298492e0.xhtml" xlink:title="reshaped_only_rhs"><polygon fill="#fff" stroke="#000" points="130.5 -60 23.5 -60 23.5 -24 130.5 -24 130.5 -60"/><text x="77" y="-39.5" font-family="Helvetica,sans-Serif" font-size="10" text-anchor="middle">reshaped_only_rhs</text></a></g></g></g></svg>