<svg xmlns="http://www.w3.org/2000/svg" xmlns:xlink="http://www.w3.org/1999/xlink" width="658pt" height="323pt" viewBox="0 0 658 322.78"><g id="graph0" class="graph" transform="scale(1 1) rotate(0) translate(4 318.781)"><title>arm_compute/graph</title><polygon fill="#fff" stroke="none" points="-4 4 -4 -318.781 654 -318.781 654 4 -4 4"/><g id="clust1" class="cluster"><title>clusterdir_214608ef36d61442cb2b0c1c4e9a7def</title><g id="a_clust1"><a target="_top" xlink:href="dir_214608ef36d61442cb2b0c1c4e9a7def.xhtml" xlink:title="arm_compute"><polygon fill="#dde" stroke="#000" points="90 -128 90 -287 642 -287 642 -128 90 -128"/><text x="366" y="-275" font-family="Helvetica,sans-Serif" font-size="10" text-anchor="middle">arm_compute</text></a></g></g><g id="clust2" class="cluster"><title>clusterdir_99ae3712d1eecd2a93fc4d38b59a99ba</title><g id="a_clust2"><a target="_top" xlink:href="dir_99ae3712d1eecd2a93fc4d38b59a99ba.xhtml"><polygon fill="#eef" stroke="#000" points="98 -136 98 -260 634 -260 634 -136 98 -136"/></a></g></g><g id="node1" class="node"><title>dir_99ae3712d1eecd2a93fc4d38b59a99ba</title><text x="285" y="-231.5" font-family="Helvetica,sans-Serif" font-size="10" text-anchor="middle">graph</text></g><g id="node9" class="node"><title>dir_cbdb8362360e11eafe2fa3bc74cf0ffd</title><g id="a_node9"><a target="_top" xlink:href="dir_cbdb8362360e11eafe2fa3bc74cf0ffd.xhtml" xlink:title="utils"><polygon fill="#fff" stroke="red" points="54 -252 0 -252 0 -216 54 -216 54 -252"/><text x="27" y="-231.5" font-family="Helvetica,sans-Serif" font-size="10" text-anchor="middle">utils</text></a></g></g><g id="edge1" class="edge"><title>dir_99ae3712d1eecd2a93fc4d38b59a99ba-&gt;dir_cbdb8362360e11eafe2fa3bc74cf0ffd</title><path fill="none" stroke="#000" d="M279.029,-252.052C272.293,-269.159 259.517,-293.846 239,-305 212.448,-319.435 131.114,-316.089 103,-305 80.2571,-296.029 60.3118,-276.687 46.5667,-260.453"/><polygon fill="#000" stroke="#000" points="48.983 -257.876 39.962 -252.318 43.548 -262.288 48.983 -257.876"/><g id="a_edge1-headlabel"><a target="_top" xlink:href="dir_000029_000034.xhtml" xlink:title="1"><text x="53.453" y="-256.377" font-family="Helvetica,sans-Serif" font-size="10" text-anchor="middle">1</text></a></g></g><g id="node2" class="node"><title>dir_d03e69479d487ec17de4c74c8d185b2d</title><g id="a_node2"><a target="_top" xlink:href="dir_d03e69479d487ec17de4c74c8d185b2d.xhtml" xlink:title="algorithms"><polygon fill="#fff" stroke="#000" points="546 -252 478 -252 478 -216 546 -216 546 -252"/><text x="512" y="-231.5" font-family="Helvetica,sans-Serif" font-size="10" text-anchor="middle">algorithms</text></a></g></g><g id="node3" class="node"><title>dir_59b2231210c554f4cc243709030bf1f8</title><g id="a_node3"><a target="_top" xlink:href="dir_59b2231210c554f4cc243709030bf1f8.xhtml" xlink:title="backends"><polygon fill="#fff" stroke="red" points="626 -252 564 -252 564 -216 626 -216 626 -252"/><text x="595" y="-231.5" font-family="Helvetica,sans-Serif" font-size="10" text-anchor="middle">backends</text></a></g></g><g id="node7" class="node"><title>dir_b30607d43e07fadf88f4c95a88a6c88e</title><g id="a_node7"><a target="_top" xlink:href="dir_b30607d43e07fadf88f4c95a88a6c88e.xhtml" xlink:title="nodes"><polygon fill="#fff" stroke="#000" points="440 -180 386 -180 386 -144 440 -144 440 -180"/><text x="413" y="-159.5" font-family="Helvetica,sans-Serif" font-size="10" text-anchor="middle">nodes</text></a></g></g><g id="edge10" class="edge"><title>dir_59b2231210c554f4cc243709030bf1f8-&gt;dir_b30607d43e07fadf88f4c95a88a6c88e</title><path fill="none" stroke="#000" d="M563.612,-219.504C560.707,-218.302 557.803,-217.118 555,-216 519.472,-201.828 478.508,-186.662 449.735,-176.2"/><polygon fill="#000" stroke="#000" points="450.69 -172.824 440.096 -172.706 448.304 -179.404 450.69 -172.824"/><g id="a_edge10-headlabel"><a target="_top" xlink:href="dir_000031_000046.xhtml" xlink:title="2"><text x="455.037" y="-168.88" font-family="Helvetica,sans-Serif" font-size="10" text-anchor="middle">2</text></a></g></g><g id="node10" class="node"><title>dir_8bc26130589aa16388b5a02f17abf2c2</title><g id="a_node10"><a target="_top" xlink:href="dir_8bc26130589aa16388b5a02f17abf2c2.xhtml" xlink:title="runtime"><polygon fill="#fff" stroke="red" points="82 -180 28 -180 28 -144 82 -144 82 -180"/><text x="55" y="-159.5" font-family="Helvetica,sans-Serif" font-size="10" text-anchor="middle">runtime</text></a></g></g><g id="edge8" class="edge"><title>dir_59b2231210c554f4cc243709030bf1f8-&gt;dir_8bc26130589aa16388b5a02f17abf2c2</title><path fill="none" stroke="#000" d="M563.886,-218.647C560.924,-217.625 557.932,-216.717 555,-216 355.373,-167.169 293.4,-229.748 94,-180 93.2744,-179.819 92.5452,-179.626 91.8138,-179.421"/><polygon fill="#000" stroke="#000" points="92.891 -176.091 82.298 -176.246 90.676 -182.731 92.891 -176.091"/><g id="a_edge8-headlabel"><a target="_top" xlink:href="dir_000031_000003.xhtml" xlink:title="15"><text x="97.2" y="-172.036" font-family="Helvetica,sans-Serif" font-size="10" text-anchor="middle">15</text></a></g></g><g id="node11" class="node"><title>dir_1fb090f0c6070330bfaccc4236d3ca0d</title><g id="a_node11"><a target="_top" xlink:href="dir_1fb090f0c6070330bfaccc4236d3ca0d.xhtml" xlink:title="core"><polygon fill="#fff" stroke="red" points="137 -108 83 -108 83 -72 137 -72 137 -108"/><text x="110" y="-87.5" font-family="Helvetica,sans-Serif" font-size="10" text-anchor="middle">core</text></a></g></g><g id="edge9" class="edge"><title>dir_59b2231210c554f4cc243709030bf1f8-&gt;dir_1fb090f0c6070330bfaccc4236d3ca0d</title><path fill="none" stroke="#000" d="M577.483,-215.646C551.772,-191.37 501.183,-148.006 449,-128 394.619,-107.151 223.595,-96.4946 147.337,-92.6783"/><polygon fill="#000" stroke="#000" points="147.387 -89.177 137.228 -92.185 147.045 -96.168 147.387 -89.177"/><g id="a_edge9-headlabel"><a target="_top" xlink:href="dir_000031_000001.xhtml" xlink:title="12"><text x="151.115" y="-84.016" font-family="Helvetica,sans-Serif" font-size="10" text-anchor="middle">12</text></a></g></g><g id="node12" class="node"><title>dir_5815af820a9cc9481f1d0990a0d60286</title><g id="a_node12"><a target="_top" xlink:href="dir_5815af820a9cc9481f1d0990a0d60286.xhtml" xlink:title="support"><polygon fill="none" stroke="#000" points="109 -36 55 -36 55 0 109 0 109 -36"/><text x="82" y="-15.5" font-family="Helvetica,sans-Serif" font-size="10" text-anchor="middle">support</text></a></g></g><g id="edge11" class="edge"><title>dir_59b2231210c554f4cc243709030bf1f8-&gt;dir_5815af820a9cc9481f1d0990a0d60286</title><path fill="none" stroke="#000" d="M584.969,-215.996C570.236,-192.545 540.499,-150.616 504,-128 377.604,-49.6799 196.602,-27.3729 119.301,-21.2347"/><polygon fill="#000" stroke="#000" points="119.331 -17.727 109.098 -20.472 118.809 -24.708 119.331 -17.727"/><g id="a_edge11-headlabel"><a target="_top" xlink:href="dir_000031_000150.xhtml" xlink:title="1"><text x="123.128" y="-12.664" font-family="Helvetica,sans-Serif" font-size="10" text-anchor="middle">1</text></a></g></g><g id="node4" class="node"><title>dir_7d9e792b56b44fd84901d9e18064c5a8</title><g id="a_node4"><a target="_top" xlink:href="dir_7d9e792b56b44fd84901d9e18064c5a8.xhtml" xlink:title="detail"><polygon fill="#fff" stroke="#000" points="384 -252 330 -252 330 -216 384 -216 384 -252"/><text x="357" y="-231.5" font-family="Helvetica,sans-Serif" font-size="10" text-anchor="middle">detail</text></a></g></g><g id="node5" class="node"><title>dir_7526be4d1cfecb7bc660fdbdb8633223</title><g id="a_node5"><a target="_top" xlink:href="dir_7526be4d1cfecb7bc660fdbdb8633223.xhtml" xlink:title="frontend"><polygon fill="#fff" stroke="#000" points="459.5 -252 402.5 -252 402.5 -216 459.5 -216 459.5 -252"/><text x="431" y="-231.5" font-family="Helvetica,sans-Serif" font-size="10" text-anchor="middle">frontend</text></a></g></g><g id="edge14" class="edge"><title>dir_7526be4d1cfecb7bc660fdbdb8633223-&gt;dir_1fb090f0c6070330bfaccc4236d3ca0d</title><path fill="none" stroke="#000" d="M402.373,-220.176C399.211,-218.764 396.038,-217.35 393,-216 304.566,-176.689 200.424,-130.792 146.495,-107.054"/><polygon fill="#000" stroke="#000" points="147.901 -103.849 137.338 -103.024 145.081 -110.256 147.901 -103.849"/><g id="a_edge14-headlabel"><a target="_top" xlink:href="dir_000030_000001.xhtml" xlink:title="1"><text x="152.335" y="-100.198" font-family="Helvetica,sans-Serif" font-size="10" text-anchor="middle">1</text></a></g></g><g id="node6" class="node"><title>dir_bd82036549cb2b9c5b3542d0a5df616a</title><g id="a_node6"><a target="_top" xlink:href="dir_bd82036549cb2b9c5b3542d0a5df616a.xhtml" xlink:title="mutators"><polygon fill="#fff" stroke="#000" points="239.5 -252 178.5 -252 178.5 -216 239.5 -216 239.5 -252"/><text x="209" y="-231.5" font-family="Helvetica,sans-Serif" font-size="10" text-anchor="middle">mutators</text></a></g></g><g id="edge15" class="edge"><title>dir_b30607d43e07fadf88f4c95a88a6c88e-&gt;dir_1fb090f0c6070330bfaccc4236d3ca0d</title><path fill="none" stroke="#000" d="M385.899,-153.723C359.851,-146.811 319.338,-136.274 284,-128 236.925,-116.979 182.358,-105.601 147.064,-98.4236"/><polygon fill="#000" stroke="#000" points="147.698 -94.981 137.202 -96.425 146.307 -101.841 147.698 -94.981"/><g id="a_edge15-headlabel"><a target="_top" xlink:href="dir_000046_000001.xhtml" xlink:title="1"><text x="151.784" y="-90.412" font-family="Helvetica,sans-Serif" font-size="10" text-anchor="middle">1</text></a></g></g><g id="node8" class="node"><title>dir_6013eaf2dfd46ef85ec5f8d403ae0adb</title><g id="a_node8"><a target="_top" xlink:href="dir_6013eaf2dfd46ef85ec5f8d403ae0adb.xhtml" xlink:title="printers"><polygon fill="#fff" stroke="#000" points="160 -252 106 -252 106 -216 160 -216 160 -252"/><text x="133" y="-231.5" font-family="Helvetica,sans-Serif" font-size="10" text-anchor="middle">printers</text></a></g></g><g id="edge2" class="edge"><title>dir_cbdb8362360e11eafe2fa3bc74cf0ffd-&gt;dir_99ae3712d1eecd2a93fc4d38b59a99ba</title><path fill="none" stroke="#000" d="M39.9622,-252.318C53.4434,-269.628 76.2928,-294.466 103,-305 131.114,-316.089 212.448,-319.435 239,-305 255.991,-295.763 267.672,-277.245 275.012,-261.437"/><polygon fill="#000" stroke="#000" points="278.312 -262.622 279.029 -252.052 271.876 -259.868 278.312 -262.622"/><g id="a_edge2-headlabel"><a target="_top" xlink:href="dir_000034_000029.xhtml" xlink:title="8"><text x="279.507" y="-264.544" font-family="Helvetica,sans-Serif" font-size="10" text-anchor="middle">8</text></a></g></g><g id="edge3" class="edge"><title>dir_cbdb8362360e11eafe2fa3bc74cf0ffd-&gt;dir_8bc26130589aa16388b5a02f17abf2c2</title><path fill="none" stroke="#000" d="M33.9214,-215.697C37.0747,-207.813 40.8783,-198.304 44.3814,-189.546"/><polygon fill="#000" stroke="#000" points="47.694 -190.689 48.158 -180.104 41.195 -188.089 47.694 -190.689"/><g id="a_edge3-headlabel"><a target="_top" xlink:href="dir_000034_000003.xhtml" xlink:title="5"><text x="48.995" y="-192.581" font-family="Helvetica,sans-Serif" font-size="10" text-anchor="middle">5</text></a></g></g><g id="edge4" class="edge"><title>dir_cbdb8362360e11eafe2fa3bc74cf0ffd-&gt;dir_1fb090f0c6070330bfaccc4236d3ca0d</title><path fill="none" stroke="#000" d="M19.5971,-215.706C11.3188,-193.415 1.24078,-154.392 19,-128 30.9997,-110.167 53.2398,-100.925 72.7291,-96.1377"/><polygon fill="#000" stroke="#000" points="73.559 -99.539 82.601 -94.018 72.089 -92.695 73.559 -99.539"/><g id="a_edge4-headlabel"><a target="_top" xlink:href="dir_000034_000001.xhtml" xlink:title="24"><text x="70.64" y="-100.57" font-family="Helvetica,sans-Serif" font-size="10" text-anchor="middle">24</text></a></g></g><g id="edge5" class="edge"><title>dir_cbdb8362360e11eafe2fa3bc74cf0ffd-&gt;dir_5815af820a9cc9481f1d0990a0d60286</title><path fill="none" stroke="#000" d="M18.2816,-215.833C13.6255,-205.694 8.37547,-192.444 6,-180 1.66648,-157.299 -0.927723,-150.048 6,-128 16.1951,-95.5529 39.8535,-64.3275 58.087,-43.678"/><polygon fill="#000" stroke="#000" points="60.892 -45.795 65.017 -36.036 55.707 -41.092 60.892 -45.795"/><g id="a_edge5-headlabel"><a target="_top" xlink:href="dir_000034_000150.xhtml" xlink:title="3"><text x="60.581" y="-47.865" font-family="Helvetica,sans-Serif" font-size="10" text-anchor="middle">3</text></a></g></g><g id="edge6" class="edge"><title>dir_8bc26130589aa16388b5a02f17abf2c2-&gt;dir_1fb090f0c6070330bfaccc4236d3ca0d</title><path fill="none" stroke="#000" d="M62.6798,-143.697C68.4079,-135.305 76.257,-125.07 83.9744,-115.861"/><polygon fill="#000" stroke="#000" points="86.784 -117.962 90.666 -108.104 81.484 -113.39 86.784 -117.962"/><g id="a_edge6-headlabel"><a target="_top" xlink:href="dir_000003_000001.xhtml" xlink:title="582"><text x="86.586" y="-120.039" font-family="Helvetica,sans-Serif" font-size="10" text-anchor="middle">582</text></a></g></g><g id="edge7" class="edge"><title>dir_8bc26130589aa16388b5a02f17abf2c2-&gt;dir_5815af820a9cc9481f1d0990a0d60286</title><path fill="none" stroke="#000" d="M58.2568,-143.871C62.8585,-119.67 71.312,-75.2108 76.7914,-46.3932"/><polygon fill="#000" stroke="#000" points="80.302 -46.667 78.732 -36.189 73.425 -45.359 80.302 -46.667"/><g id="a_edge7-headlabel"><a target="_top" xlink:href="dir_000003_000150.xhtml" xlink:title="5"><text x="82.42" y="-48.229" font-family="Helvetica,sans-Serif" font-size="10" text-anchor="middle">5</text></a></g></g><g id="edge12" class="edge"><title>dir_1fb090f0c6070330bfaccc4236d3ca0d-&gt;dir_8bc26130589aa16388b5a02f17abf2c2</title><path fill="none" stroke="#000" d="M102.456,-108.104C96.7615,-116.467 88.9284,-126.694 81.209,-135.92"/><polygon fill="#000" stroke="#000" points="78.385 -133.835 74.511 -143.697 83.689 -138.403 78.385 -133.835"/><g id="a_edge12-headlabel"><a target="_top" xlink:href="dir_000001_000003.xhtml" xlink:title="1"><text x="78.579" y="-126.759" font-family="Helvetica,sans-Serif" font-size="10" text-anchor="middle">1</text></a></g></g><g id="edge13" class="edge"><title>dir_1fb090f0c6070330bfaccc4236d3ca0d-&gt;dir_5815af820a9cc9481f1d0990a0d60286</title><path fill="none" stroke="#000" d="M103.079,-71.6966C99.9253,-63.8132 96.1217,-54.3042 92.6186,-45.5464"/><polygon fill="#000" stroke="#000" points="95.805 -44.089 88.842 -36.104 89.306 -46.689 95.805 -44.089"/><g id="a_edge13-headlabel"><a target="_top" xlink:href="dir_000001_000150.xhtml" xlink:title="14"><text x="99.776" y="-43.872" font-family="Helvetica,sans-Serif" font-size="10" text-anchor="middle">14</text></a></g></g></g></svg>