<svg xmlns="http://www.w3.org/2000/svg" xmlns:xlink="http://www.w3.org/1999/xlink" width="492" height="596" viewBox="0 0 369.48 447"><g id="graph0" class="graph" transform="scale(1 1) rotate(0) translate(4 443)"><title>tests/validation/CL</title><polygon fill="#fff" stroke="none" points="-4 4 -4 -443 365.481 -443 365.481 4 -4 4"/><g id="clust1" class="cluster"><title>clusterdir_e7c7b16542faa38cb4655ff1750d3604</title><g id="a_clust1"><a target="_top" xlink:href="dir_e7c7b16542faa38cb4655ff1750d3604.xhtml" xlink:title="validation"><polygon fill="#dde" stroke="#000" points="115.481 -344 115.481 -431 273.481 -431 273.481 -344 115.481 -344"/><text x="194.481" y="-419" font-family="Helvetica,sans-Serif" font-size="10" text-anchor="middle">validation</text></a></g></g><g id="clust2" class="cluster"><title>clusterdir_f7024513cd67abef53e86ee9382ac5ce</title><g id="a_clust2"><a target="_top" xlink:href="dir_f7024513cd67abef53e86ee9382ac5ce.xhtml"><polygon fill="#eef" stroke="#000" points="123.481 -352 123.481 -404 265.481 -404 265.481 -352 123.481 -352"/></a></g></g><g id="node1" class="node"><title>dir_f7024513cd67abef53e86ee9382ac5ce</title><text x="158.481" y="-375.5" font-family="Helvetica,sans-Serif" font-size="10" text-anchor="middle">CL</text></g><g id="node3" class="node"><title>dir_46fdb196cebdbffe77dac340cde62f29</title><g id="a_node3"><a target="_top" xlink:href="dir_46fdb196cebdbffe77dac340cde62f29.xhtml" xlink:title="reference"><polygon fill="none" stroke="#000" points="147.481 -324 85.481 -324 85.481 -288 147.481 -288 147.481 -324"/><text x="116.481" y="-303.5" font-family="Helvetica,sans-Serif" font-size="10" text-anchor="middle">reference</text></a></g></g><g id="edge16" class="edge"><title>dir_f7024513cd67abef53e86ee9382ac5ce-&gt;dir_46fdb196cebdbffe77dac340cde62f29</title><path fill="none" stroke="#000" d="M148.099,-359.697C143.217,-351.559 137.295,-341.689 131.902,-332.701"/><polygon fill="#000" stroke="#000" points="134.89 -330.879 126.744 -324.104 128.888 -334.48 134.89 -330.879"/><g id="a_edge16-headlabel"><a target="_top" xlink:href="dir_000121_000033.xhtml" xlink:title="3"><text x="139.174" y="-330" font-family="Helvetica,sans-Serif" font-size="10" text-anchor="middle">3</text></a></g></g><g id="node4" class="node"><title>dir_cbdb8362360e11eafe2fa3bc74cf0ffd</title><g id="a_node4"><a target="_top" xlink:href="dir_cbdb8362360e11eafe2fa3bc74cf0ffd.xhtml" xlink:title="utils"><polygon fill="#fff" stroke="red" points="67.481 -180 13.481 -180 13.481 -144 67.481 -144 67.481 -180"/><text x="40.481" y="-159.5" font-family="Helvetica,sans-Serif" font-size="10" text-anchor="middle">utils</text></a></g></g><g id="edge17" class="edge"><title>dir_f7024513cd67abef53e86ee9382ac5ce-&gt;dir_cbdb8362360e11eafe2fa3bc74cf0ffd</title><path fill="none" stroke="#000" d="M131.274,-374.094C101.508,-369.3 55.1495,-356.723 33.4813,-324 6.74408,-283.622 19.3637,-224.242 30.3417,-190.016"/><polygon fill="#000" stroke="#000" points="33.756 -190.845 33.651 -180.25 27.127 -188.598 33.756 -190.845"/><g id="a_edge17-headlabel"><a target="_top" xlink:href="dir_000121_000034.xhtml" xlink:title="4"><text x="35.292" y="-192.66" font-family="Helvetica,sans-Serif" font-size="10" text-anchor="middle">4</text></a></g></g><g id="node5" class="node"><title>dir_9e71e2da941d3cafc4d98a9f6ae3de4f</title><g id="a_node5"><a target="_top" xlink:href="dir_9e71e2da941d3cafc4d98a9f6ae3de4f.xhtml" xlink:title="framework"><polygon fill="#fff" stroke="red" points="218.981 -252 151.981 -252 151.981 -216 218.981 -216 218.981 -252"/><text x="185.481" y="-231.5" font-family="Helvetica,sans-Serif" font-size="10" text-anchor="middle">framework</text></a></g></g><g id="edge18" class="edge"><title>dir_f7024513cd67abef53e86ee9382ac5ce-&gt;dir_9e71e2da941d3cafc4d98a9f6ae3de4f</title><path fill="none" stroke="#000" d="M161.738,-359.871C166.34,-335.67 174.793,-291.211 180.273,-262.393"/><polygon fill="#000" stroke="#000" points="183.783 -262.667 182.213 -252.189 176.907 -261.359 183.783 -262.667"/><g id="a_edge18-headlabel"><a target="_top" xlink:href="dir_000121_000032.xhtml" xlink:title="405"><text x="185.901" y="-264.229" font-family="Helvetica,sans-Serif" font-size="10" text-anchor="middle">405</text></a></g></g><g id="node6" class="node"><title>dir_214608ef36d61442cb2b0c1c4e9a7def</title><g id="a_node6"><a target="_top" xlink:href="dir_214608ef36d61442cb2b0c1c4e9a7def.xhtml" xlink:title="arm_compute"><polygon fill="#fff" stroke="red" points="194.481 -108 110.481 -108 110.481 -72 194.481 -72 194.481 -108"/><text x="152.481" y="-87.5" font-family="Helvetica,sans-Serif" font-size="10" text-anchor="middle">arm_compute</text></a></g></g><g id="edge19" class="edge"><title>dir_f7024513cd67abef53e86ee9382ac5ce-&gt;dir_214608ef36d61442cb2b0c1c4e9a7def</title><path fill="none" stroke="#000" d="M131.429,-367.581C112.299,-359.332 88.0705,-345.29 76.4813,-324 38.0677,-253.433 97.6732,-160.198 131.597,-116.13"/><polygon fill="#000" stroke="#000" points="134.37 -118.265 137.803 -108.242 128.869 -113.937 134.37 -118.265"/><g id="a_edge19-headlabel"><a target="_top" xlink:href="dir_000121_000000.xhtml" xlink:title="565"><text x="134.379" y="-120.346" font-family="Helvetica,sans-Serif" font-size="10" text-anchor="middle">565</text></a></g></g><g id="node7" class="node"><title>dir_896191444cf08ec8ade6f88256cb2bdd</title><g id="a_node7"><a target="_top" xlink:href="dir_896191444cf08ec8ade6f88256cb2bdd.xhtml" xlink:title="CL"><polygon fill="none" stroke="#000" points="295.481 -324 241.481 -324 241.481 -288 295.481 -288 295.481 -324"/><text x="268.481" y="-303.5" font-family="Helvetica,sans-Serif" font-size="10" text-anchor="middle">CL</text></a></g></g><g id="edge20" class="edge"><title>dir_f7024513cd67abef53e86ee9382ac5ce-&gt;dir_896191444cf08ec8ade6f88256cb2bdd</title><path fill="none" stroke="#000" d="M175.233,-359.849C181.038,-354.409 187.776,-348.615 194.481,-344 206.173,-335.953 219.864,-328.606 232.269,-322.617"/><polygon fill="#000" stroke="#000" points="233.881 -325.727 241.45 -318.313 230.91 -319.389 233.881 -325.727"/><g id="a_edge20-headlabel"><a target="_top" xlink:href="dir_000121_000151.xhtml" xlink:title="173"><text x="231.832" y="-327.323" font-family="Helvetica,sans-Serif" font-size="10" text-anchor="middle">173</text></a></g></g><g id="node2" class="node"><title>dir_4fe3055359cf5438733b5e64b064b197</title><g id="a_node2"><a target="_top" xlink:href="dir_4fe3055359cf5438733b5e64b064b197.xhtml" xlink:title="UNIT"><polygon fill="#fff" stroke="#000" points="257.481 -396 203.481 -396 203.481 -360 257.481 -360 257.481 -396"/><text x="230.481" y="-375.5" font-family="Helvetica,sans-Serif" font-size="10" text-anchor="middle">UNIT</text></a></g></g><g id="edge6" class="edge"><title>dir_4fe3055359cf5438733b5e64b064b197-&gt;dir_46fdb196cebdbffe77dac340cde62f29</title><path fill="none" stroke="#000" d="M213.785,-359.767C207.984,-354.322 201.234,-348.545 194.481,-344 182.889,-336.197 169.394,-329.17 156.921,-323.389"/><polygon fill="#000" stroke="#000" points="158.186 -320.121 147.63 -319.219 155.32 -326.507 158.186 -320.121"/><g id="a_edge6-headlabel"><a target="_top" xlink:href="dir_000148_000033.xhtml" xlink:title="1"><text x="162.628" y="-316.502" font-family="Helvetica,sans-Serif" font-size="10" text-anchor="middle">1</text></a></g></g><g id="edge7" class="edge"><title>dir_4fe3055359cf5438733b5e64b064b197-&gt;dir_9e71e2da941d3cafc4d98a9f6ae3de4f</title><path fill="none" stroke="#000" d="M225.053,-359.871C217.35,-335.564 203.17,-290.819 194.042,-262.013"/><polygon fill="#000" stroke="#000" points="197.286 -260.665 190.929 -252.189 190.613 -262.779 197.286 -260.665"/><g id="a_edge7-headlabel"><a target="_top" xlink:href="dir_000148_000032.xhtml" xlink:title="8"><text x="201.079" y="-260.734" font-family="Helvetica,sans-Serif" font-size="10" text-anchor="middle">8</text></a></g></g><g id="edge8" class="edge"><title>dir_4fe3055359cf5438733b5e64b064b197-&gt;dir_214608ef36d61442cb2b0c1c4e9a7def</title><path fill="none" stroke="#000" d="M257.543,-365.582C274.389,-356.879 294.659,-343.116 304.481,-324 311.794,-309.769 309.006,-303.347 304.481,-288 282.935,-214.923 260.921,-201.967 211.481,-144 202.668,-133.667 191.888,-123.429 181.965,-114.746"/><polygon fill="#000" stroke="#000" points="184.119 -111.983 174.244 -108.144 179.57 -117.303 184.119 -111.983"/><g id="a_edge8-headlabel"><a target="_top" xlink:href="dir_000148_000000.xhtml" xlink:title="14"><text x="188.696" y="-109.661" font-family="Helvetica,sans-Serif" font-size="10" text-anchor="middle">14</text></a></g></g><g id="edge9" class="edge"><title>dir_4fe3055359cf5438733b5e64b064b197-&gt;dir_896191444cf08ec8ade6f88256cb2bdd</title><path fill="none" stroke="#000" d="M239.875,-359.697C244.246,-351.644 249.539,-341.894 254.377,-332.982"/><polygon fill="#000" stroke="#000" points="257.501 -334.563 259.196 -324.104 251.349 -331.223 257.501 -334.563"/><g id="a_edge9-headlabel"><a target="_top" xlink:href="dir_000148_000151.xhtml" xlink:title="3"><text x="258.282" y="-336.576" font-family="Helvetica,sans-Serif" font-size="10" text-anchor="middle">3</text></a></g></g><g id="node8" class="node"><title>dir_5815af820a9cc9481f1d0990a0d60286</title><g id="a_node8"><a target="_top" xlink:href="dir_5815af820a9cc9481f1d0990a0d60286.xhtml" xlink:title="support"><polygon fill="none" stroke="#000" points="226.481 -36 172.481 -36 172.481 0 226.481 0 226.481 -36"/><text x="199.481" y="-15.5" font-family="Helvetica,sans-Serif" font-size="10" text-anchor="middle">support</text></a></g></g><g id="edge10" class="edge"><title>dir_4fe3055359cf5438733b5e64b064b197-&gt;dir_5815af820a9cc9481f1d0990a0d60286</title><path fill="none" stroke="#000" d="M257.796,-366.495C277.645,-357.692 303.99,-343.432 321.481,-324 350.495,-291.768 361.481,-278.367 361.481,-235 361.481,-235 361.481,-235 361.481,-161 361.481,-94.6946 283.788,-52.1237 236.01,-32.2132"/><polygon fill="#000" stroke="#000" points="237.18 -28.911 226.596 -28.42 234.564 -35.404 237.18 -28.911"/><g id="a_edge10-headlabel"><a target="_top" xlink:href="dir_000148_000150.xhtml" xlink:title="3"><text x="241.575" y="-25.121" font-family="Helvetica,sans-Serif" font-size="10" text-anchor="middle">3</text></a></g></g><g id="edge1" class="edge"><title>dir_46fdb196cebdbffe77dac340cde62f29-&gt;dir_9e71e2da941d3cafc4d98a9f6ae3de4f</title><path fill="none" stroke="#000" d="M133.537,-287.697C141.977,-279.135 152.306,-268.656 161.524,-259.304"/><polygon fill="#000" stroke="#000" points="164.094 -261.683 168.621 -252.104 159.109 -256.769 164.094 -261.683"/><g id="a_edge1-headlabel"><a target="_top" xlink:href="dir_000033_000032.xhtml" xlink:title="3"><text x="163.593" y="-263.736" font-family="Helvetica,sans-Serif" font-size="10" text-anchor="middle">3</text></a></g></g><g id="edge2" class="edge"><title>dir_46fdb196cebdbffe77dac340cde62f29-&gt;dir_214608ef36d61442cb2b0c1c4e9a7def</title><path fill="none" stroke="#000" d="M119.366,-287.849C125.607,-250.753 140.401,-162.81 147.922,-118.103"/><polygon fill="#000" stroke="#000" points="151.375 -118.675 149.582 -108.232 144.472 -117.513 151.375 -118.675"/><g id="a_edge2-headlabel"><a target="_top" xlink:href="dir_000033_000000.xhtml" xlink:title="86"><text x="153.579" y="-120.19" font-family="Helvetica,sans-Serif" font-size="10" text-anchor="middle">86</text></a></g></g><g id="edge3" class="edge"><title>dir_46fdb196cebdbffe77dac340cde62f29-&gt;dir_5815af820a9cc9481f1d0990a0d60286</title><path fill="none" stroke="#000" d="M89.6573,-287.875C49.9454,-260.162 -17.5547,-202.648 4.4813,-144 29.5564,-77.2639 113.421,-43.0118 162.623,-28.2578"/><polygon fill="#000" stroke="#000" points="163.627 -31.611 172.268 -25.482 161.69 -24.884 163.627 -31.611"/><g id="a_edge3-headlabel"><a target="_top" xlink:href="dir_000033_000150.xhtml" xlink:title="2"><text x="160.958" y="-32.834" font-family="Helvetica,sans-Serif" font-size="10" text-anchor="middle">2</text></a></g></g><g id="edge4" class="edge"><title>dir_cbdb8362360e11eafe2fa3bc74cf0ffd-&gt;dir_214608ef36d61442cb2b0c1c4e9a7def</title><path fill="none" stroke="#000" d="M61.9825,-143.876C75.6689,-134.724 93.7286,-123.342 110.154,-113.485"/><polygon fill="#000" stroke="#000" points="112.262 -116.304 119.074 -108.19 108.688 -110.285 112.262 -116.304"/><g id="a_edge4-headlabel"><a target="_top" xlink:href="dir_000034_000000.xhtml" xlink:title="37"><text x="110.62" y="-118.081" font-family="Helvetica,sans-Serif" font-size="10" text-anchor="middle">37</text></a></g></g><g id="edge5" class="edge"><title>dir_cbdb8362360e11eafe2fa3bc74cf0ffd-&gt;dir_5815af820a9cc9481f1d0990a0d60286</title><path fill="none" stroke="#000" d="M49.0423,-143.797C59.3554,-124.426 78.2297,-92.9281 101.481,-72 119.52,-55.7642 143.417,-42.712 163.097,-33.6228"/><polygon fill="#000" stroke="#000" points="164.67 -36.754 172.375 -29.483 161.817 -30.361 164.67 -36.754"/><g id="a_edge5-headlabel"><a target="_top" xlink:href="dir_000034_000150.xhtml" xlink:title="3"><text x="162.544" y="-38.311" font-family="Helvetica,sans-Serif" font-size="10" text-anchor="middle">3</text></a></g></g><g id="edge11" class="edge"><title>dir_9e71e2da941d3cafc4d98a9f6ae3de4f-&gt;dir_cbdb8362360e11eafe2fa3bc74cf0ffd</title><path fill="none" stroke="#000" d="M151.851,-216.765C129.351,-205.902 99.759,-191.617 76.7343,-180.501"/><polygon fill="#000" stroke="#000" points="78.154 -177.3 67.627 -176.105 75.111 -183.604 78.154 -177.3"/><g id="a_edge11-headlabel"><a target="_top" xlink:href="dir_000032_000034.xhtml" xlink:title="3"><text x="82.626" y="-173.806" font-family="Helvetica,sans-Serif" font-size="10" text-anchor="middle">3</text></a></g></g><g id="edge12" class="edge"><title>dir_9e71e2da941d3cafc4d98a9f6ae3de4f-&gt;dir_214608ef36d61442cb2b0c1c4e9a7def</title><path fill="none" stroke="#000" d="M181.501,-215.871C175.852,-191.564 165.453,-146.819 158.759,-118.013"/><polygon fill="#000" stroke="#000" points="162.149 -117.137 156.476 -108.189 155.331 -118.722 162.149 -117.137"/><g id="a_edge12-headlabel"><a target="_top" xlink:href="dir_000032_000000.xhtml" xlink:title="14"><text x="165.728" y="-117.496" font-family="Helvetica,sans-Serif" font-size="10" text-anchor="middle">14</text></a></g></g><g id="edge13" class="edge"><title>dir_9e71e2da941d3cafc4d98a9f6ae3de4f-&gt;dir_5815af820a9cc9481f1d0990a0d60286</title><path fill="none" stroke="#000" d="M188.774,-215.694C193.165,-191.646 200.709,-146.708 203.481,-108 204.624,-92.0409 204.084,-87.9887 203.481,-72 203.167,-63.6651 202.576,-54.6085 201.943,-46.379"/><polygon fill="#000" stroke="#000" points="205.411 -45.848 201.106 -36.167 198.435 -46.42 205.411 -45.848"/><g id="a_edge13-headlabel"><a target="_top" xlink:href="dir_000032_000150.xhtml" xlink:title="7"><text x="208.535" y="-46.699" font-family="Helvetica,sans-Serif" font-size="10" text-anchor="middle">7</text></a></g></g><g id="edge14" class="edge"><title>dir_214608ef36d61442cb2b0c1c4e9a7def-&gt;dir_cbdb8362360e11eafe2fa3bc74cf0ffd</title><path fill="none" stroke="#000" d="M130.896,-108.18C115.462,-118.498 94.4958,-131.634 76.5796,-142.225"/><polygon fill="#000" stroke="#000" points="74.407 -139.441 67.534 -147.503 77.935 -145.487 74.407 -139.441"/><g id="a_edge14-headlabel"><a target="_top" xlink:href="dir_000000_000034.xhtml" xlink:title="1"><text x="76.081" y="-132.677" font-family="Helvetica,sans-Serif" font-size="10" text-anchor="middle">1</text></a></g></g><g id="edge15" class="edge"><title>dir_214608ef36d61442cb2b0c1c4e9a7def-&gt;dir_5815af820a9cc9481f1d0990a0d60286</title><path fill="none" stroke="#000" d="M164.099,-71.6966C169.62,-63.4741 176.328,-53.4832 182.413,-44.4207"/><polygon fill="#000" stroke="#000" points="185.328 -46.358 187.997 -36.104 179.517 -42.456 185.328 -46.358"/><g id="a_edge15-headlabel"><a target="_top" xlink:href="dir_000000_000150.xhtml" xlink:title="22"><text x="185.682" y="-48.425" font-family="Helvetica,sans-Serif" font-size="10" text-anchor="middle">22</text></a></g></g><g id="edge21" class="edge"><title>dir_896191444cf08ec8ade6f88256cb2bdd-&gt;dir_214608ef36d61442cb2b0c1c4e9a7def</title><path fill="none" stroke="#000" d="M261.165,-287.67C253.354,-269.535 240.356,-240.368 227.481,-216 208.844,-180.725 184.721,-141.495 168.935,-116.557"/><polygon fill="#000" stroke="#000" points="171.843 -114.607 163.522 -108.049 165.937 -118.365 171.843 -114.607"/><g id="a_edge21-headlabel"><a target="_top" xlink:href="dir_000151_000000.xhtml" xlink:title="10"><text x="176.168" y="-113.616" font-family="Helvetica,sans-Serif" font-size="10" text-anchor="middle">10</text></a></g></g><g id="edge22" class="edge"><title>dir_896191444cf08ec8ade6f88256cb2bdd-&gt;dir_5815af820a9cc9481f1d0990a0d60286</title><path fill="none" stroke="#000" d="M265.649,-287.841C259.053,-248.988 241.463,-151.489 218.481,-72 215.972,-63.3214 212.798,-54.0013 209.767,-45.6339"/><polygon fill="#000" stroke="#000" points="212.955 -44.164 206.194 -36.007 206.392 -46.6 212.955 -44.164"/><g id="a_edge22-headlabel"><a target="_top" xlink:href="dir_000151_000150.xhtml" xlink:title="1"><text x="216.867" y="-44.047" font-family="Helvetica,sans-Serif" font-size="10" text-anchor="middle">1</text></a></g></g></g></svg>