<svg xmlns="http://www.w3.org/2000/svg" xmlns:xlink="http://www.w3.org/1999/xlink" width="288" height="308" viewBox="0 0 216 231"><g id="graph0" class="graph" transform="scale(1 1) rotate(0) translate(4 227)"><title>arm_compute/runtime/NEON</title><polygon fill="#fff" stroke="none" points="-4 4 -4 -227 212 -227 212 4 -4 4"/><g id="clust1" class="cluster"><title>clusterdir_8bc26130589aa16388b5a02f17abf2c2</title><g id="a_clust1"><a target="_top" xlink:href="dir_8bc26130589aa16388b5a02f17abf2c2.xhtml" xlink:title="runtime"><polygon fill="#dde" stroke="#000" points="36 -128 36 -215 200 -215 200 -128 36 -128"/><text x="118" y="-203" font-family="Helvetica,sans-Serif" font-size="10" text-anchor="middle">runtime</text></a></g></g><g id="clust2" class="cluster"><title>clusterdir_65e289039e1347f87d412b0a1b1a312c</title><g id="a_clust2"><a target="_top" xlink:href="dir_65e289039e1347f87d412b0a1b1a312c.xhtml"><polygon fill="#eef" stroke="#000" points="44 -136 44 -188 192 -188 192 -136 44 -136"/></a></g></g><g id="node1" class="node"><title>dir_65e289039e1347f87d412b0a1b1a312c</title><text x="157" y="-159.5" font-family="Helvetica,sans-Serif" font-size="10" text-anchor="middle">NEON</text></g><g id="node2" class="node"><title>dir_345bd7154d1542d1e03fd2836959a19d</title><g id="a_node2"><a target="_top" xlink:href="dir_345bd7154d1542d1e03fd2836959a19d.xhtml" xlink:title="functions"><polygon fill="#fff" stroke="red" points="112 -180 52 -180 52 -144 112 -144 112 -180"/><text x="82" y="-159.5" font-family="Helvetica,sans-Serif" font-size="10" text-anchor="middle">functions</text></a></g></g><g id="node3" class="node"><title>dir_b496024afd63bafbf4e8da80d7d3a81a</title><g id="a_node3"><a target="_top" xlink:href="dir_b496024afd63bafbf4e8da80d7d3a81a.xhtml" xlink:title="CPP"><polygon fill="#fff" stroke="red" points="54 -108 0 -108 0 -72 54 -72 54 -108"/><text x="27" y="-87.5" font-family="Helvetica,sans-Serif" font-size="10" text-anchor="middle">CPP</text></a></g></g><g id="edge1" class="edge"><title>dir_345bd7154d1542d1e03fd2836959a19d-&gt;dir_b496024afd63bafbf4e8da80d7d3a81a</title><path fill="none" stroke="#000" d="M68.4045,-143.697C61.8773,-135.389 53.932,-125.277 46.7534,-116.141"/><polygon fill="#000" stroke="#000" points="49.37 -113.805 40.439 -108.104 43.865 -118.13 49.37 -113.805"/><g id="a_edge1-headlabel"><a target="_top" xlink:href="dir_000055_000050.xhtml" xlink:title="2"><text x="53.823" y="-112.377" font-family="Helvetica,sans-Serif" font-size="10" text-anchor="middle">2</text></a></g></g><g id="node4" class="node"><title>dir_1fb090f0c6070330bfaccc4236d3ca0d</title><g id="a_node4"><a target="_top" xlink:href="dir_1fb090f0c6070330bfaccc4236d3ca0d.xhtml" xlink:title="core"><polygon fill="#fff" stroke="red" points="81 -36 27 -36 27 0 81 0 81 -36"/><text x="54" y="-15.5" font-family="Helvetica,sans-Serif" font-size="10" text-anchor="middle">core</text></a></g></g><g id="edge2" class="edge"><title>dir_345bd7154d1542d1e03fd2836959a19d-&gt;dir_1fb090f0c6070330bfaccc4236d3ca0d</title><path fill="none" stroke="#000" d="M78.6225,-143.871C73.8294,-119.564 65.0065,-74.8187 59.3266,-46.0132"/><polygon fill="#000" stroke="#000" points="62.758 -45.323 57.389 -36.189 55.89 -46.678 62.758 -45.323"/><g id="a_edge2-headlabel"><a target="_top" xlink:href="dir_000055_000001.xhtml" xlink:title="218"><text x="66.239" y="-45.801" font-family="Helvetica,sans-Serif" font-size="10" text-anchor="middle">218</text></a></g></g><g id="node5" class="node"><title>dir_b9621ae687ab229876c54f8c2df20e15</title><g id="a_node5"><a target="_top" xlink:href="dir_b9621ae687ab229876c54f8c2df20e15.xhtml" xlink:title="common"><polygon fill="none" stroke="#000" points="169.5 -108 110.5 -108 110.5 -72 169.5 -72 169.5 -108"/><text x="140" y="-87.5" font-family="Helvetica,sans-Serif" font-size="10" text-anchor="middle">common</text></a></g></g><g id="edge3" class="edge"><title>dir_345bd7154d1542d1e03fd2836959a19d-&gt;dir_b9621ae687ab229876c54f8c2df20e15</title><path fill="none" stroke="#000" d="M96.3371,-143.697C103.291,-135.305 111.77,-125.07 119.401,-115.861"/><polygon fill="#000" stroke="#000" points="122.143 -118.038 125.828 -108.104 116.753 -113.571 122.143 -118.038"/><g id="a_edge3-headlabel"><a target="_top" xlink:href="dir_000055_000049.xhtml" xlink:title="2"><text x="122.036" y="-120.117" font-family="Helvetica,sans-Serif" font-size="10" text-anchor="middle">2</text></a></g></g><g id="edge4" class="edge"><title>dir_b496024afd63bafbf4e8da80d7d3a81a-&gt;dir_1fb090f0c6070330bfaccc4236d3ca0d</title><path fill="none" stroke="#000" d="M27.7584,-71.6966C30.01,-63.7284 33.5093,-54.0995 37.31,-45.2641"/><polygon fill="#000" stroke="#000" points="40.523 -46.653 41.508 -36.104 34.16 -43.737 40.523 -46.653"/><g id="a_edge4-headlabel"><a target="_top" xlink:href="dir_000050_000001.xhtml" xlink:title="8"><text x="41.607" y="-48.604" font-family="Helvetica,sans-Serif" font-size="10" text-anchor="middle">8</text></a></g></g><g id="edge5" class="edge"><title>dir_1fb090f0c6070330bfaccc4236d3ca0d-&gt;dir_b496024afd63bafbf4e8da80d7d3a81a</title><path fill="none" stroke="#000" d="M53.2976,-36.1043C51.067,-44.0447 47.5806,-53.6661 43.785,-62.5146"/><polygon fill="#000" stroke="#000" points="40.562 -61.147 39.59 -71.697 46.929 -64.055 40.562 -61.147"/><g id="a_edge5-headlabel"><a target="_top" xlink:href="dir_000001_000050.xhtml" xlink:title="1"><text x="39.473" y="-54.197" font-family="Helvetica,sans-Serif" font-size="10" text-anchor="middle">1</text></a></g></g><g id="edge6" class="edge"><title>dir_b9621ae687ab229876c54f8c2df20e15-&gt;dir_1fb090f0c6070330bfaccc4236d3ca0d</title><path fill="none" stroke="#000" d="M118.742,-71.6966C107.911,-62.8807 94.5822,-52.0321 82.8398,-42.4742"/><polygon fill="#000" stroke="#000" points="84.979 -39.703 75.014 -36.104 80.56 -45.132 84.979 -39.703"/><g id="a_edge6-headlabel"><a target="_top" xlink:href="dir_000049_000001.xhtml" xlink:title="3"><text x="89.559" y="-37.27" font-family="Helvetica,sans-Serif" font-size="10" text-anchor="middle">3</text></a></g></g></g></svg>