<svg xmlns="http://www.w3.org/2000/svg" xmlns:xlink="http://www.w3.org/1999/xlink" width="512pt" height="404" viewBox="0 0 512 303"><g id="graph0" class="graph" transform="scale(1 1) rotate(0) translate(4 299)"><title>src/runtime</title><polygon fill="#fff" stroke="none" points="-4 4 -4 -299 508 -299 508 4 -4 4"/><g id="clust1" class="cluster"><title>clusterdir_68267d1309a1af8e8297ef4c3efbcdba</title><g id="a_clust1"><a target="_top" xlink:href="dir_68267d1309a1af8e8297ef4c3efbcdba.xhtml" xlink:title="src"><polygon fill="#dde" stroke="#000" points="8 -200 8 -287 496 -287 496 -200 8 -200"/><text x="252" y="-275" font-family="Helvetica,sans-Serif" font-size="10" text-anchor="middle">src</text></a></g></g><g id="clust2" class="cluster"><title>clusterdir_bf9f26469d00835ba20ff8d80ee5a804</title><g id="a_clust2"><a target="_top" xlink:href="dir_bf9f26469d00835ba20ff8d80ee5a804.xhtml"><polygon fill="#eef" stroke="#000" points="16 -208 16 -260 488 -260 488 -208 16 -208"/></a></g></g><g id="node1" class="node"><title>dir_bf9f26469d00835ba20ff8d80ee5a804</title><text x="453" y="-231.5" font-family="Helvetica,sans-Serif" font-size="10" text-anchor="middle">runtime</text></g><g id="node2" class="node"><title>dir_43c3fdbf778d1fd99e2e38f09fddd920</title><g id="a_node2"><a target="_top" xlink:href="dir_43c3fdbf778d1fd99e2e38f09fddd920.xhtml" xlink:title="CL"><polygon fill="#fff" stroke="red" points="78 -252 24 -252 24 -216 78 -216 78 -252"/><text x="51" y="-231.5" font-family="Helvetica,sans-Serif" font-size="10" text-anchor="middle">CL</text></a></g></g><g id="node7" class="node"><title>dir_cbdb8362360e11eafe2fa3bc74cf0ffd</title><g id="a_node7"><a target="_top" xlink:href="dir_cbdb8362360e11eafe2fa3bc74cf0ffd.xhtml" xlink:title="utils"><polygon fill="#fff" stroke="red" points="163 -180 109 -180 109 -144 163 -144 163 -180"/><text x="136" y="-159.5" font-family="Helvetica,sans-Serif" font-size="10" text-anchor="middle">utils</text></a></g></g><g id="edge9" class="edge"><title>dir_43c3fdbf778d1fd99e2e38f09fddd920-&gt;dir_cbdb8362360e11eafe2fa3bc74cf0ffd</title><path fill="none" stroke="#000" d="M69.0134,-215.868C74.6704,-210.657 81.0057,-204.991 87,-200 92.3937,-195.509 98.2544,-190.88 103.985,-186.482"/><polygon fill="#000" stroke="#000" points="106.36 -189.074 112.218 -180.246 102.134 -183.494 106.36 -189.074"/><g id="a_edge9-headlabel"><a target="_top" xlink:href="dir_000061_000034.xhtml" xlink:title="1"><text x="105.209" y="-191.007" font-family="Helvetica,sans-Serif" font-size="10" text-anchor="middle">1</text></a></g></g><g id="node8" class="node"><title>dir_214608ef36d61442cb2b0c1c4e9a7def</title><g id="a_node8"><a target="_top" xlink:href="dir_214608ef36d61442cb2b0c1c4e9a7def.xhtml" xlink:title="arm_compute"><polygon fill="#fff" stroke="red" points="236 -108 152 -108 152 -72 236 -72 236 -108"/><text x="194" y="-87.5" font-family="Helvetica,sans-Serif" font-size="10" text-anchor="middle">arm_compute</text></a></g></g><g id="edge10" class="edge"><title>dir_43c3fdbf778d1fd99e2e38f09fddd920-&gt;dir_214608ef36d61442cb2b0c1c4e9a7def</title><path fill="none" stroke="#000" d="M57.1352,-215.799C64.739,-196.43 79.2771,-164.934 100,-144 112.45,-131.423 128.511,-120.912 143.822,-112.654"/><polygon fill="#000" stroke="#000" points="145.443 -115.756 152.718 -108.053 142.227 -109.538 145.443 -115.756"/><g id="a_edge10-headlabel"><a target="_top" xlink:href="dir_000061_000000.xhtml" xlink:title="681"><text x="143.554" y="-117.429" font-family="Helvetica,sans-Serif" font-size="10" text-anchor="middle">681</text></a></g></g><g id="node9" class="node"><title>dir_5815af820a9cc9481f1d0990a0d60286</title><g id="a_node9"><a target="_top" xlink:href="dir_5815af820a9cc9481f1d0990a0d60286.xhtml" xlink:title="support"><polygon fill="none" stroke="#000" points="186 -36 132 -36 132 0 186 0 186 -36"/><text x="159" y="-15.5" font-family="Helvetica,sans-Serif" font-size="10" text-anchor="middle">support</text></a></g></g><g id="edge11" class="edge"><title>dir_43c3fdbf778d1fd99e2e38f09fddd920-&gt;dir_5815af820a9cc9481f1d0990a0d60286</title><path fill="none" stroke="#000" d="M53.5166,-215.905C56.4981,-197.713 62.2001,-168.268 71,-144 83.2648,-110.177 87.0828,-101.273 108,-72 115.12,-62.0357 124.063,-52.0987 132.464,-43.5671"/><polygon fill="#000" stroke="#000" points="134.996 -45.985 139.648 -36.466 130.075 -41.007 134.996 -45.985"/><g id="a_edge11-headlabel"><a target="_top" xlink:href="dir_000061_000150.xhtml" xlink:title="84"><text x="134.436" y="-48.032" font-family="Helvetica,sans-Serif" font-size="10" text-anchor="middle">84</text></a></g></g><g id="node3" class="node"><title>dir_9240672d44dfdb0f539b385a1f058d2d</title><g id="a_node3"><a target="_top" xlink:href="dir_9240672d44dfdb0f539b385a1f058d2d.xhtml" xlink:title="CPP"><polygon fill="#fff" stroke="red" points="408 -252 354 -252 354 -216 408 -216 408 -252"/><text x="381" y="-231.5" font-family="Helvetica,sans-Serif" font-size="10" text-anchor="middle">CPP</text></a></g></g><g id="edge14" class="edge"><title>dir_9240672d44dfdb0f539b385a1f058d2d-&gt;dir_214608ef36d61442cb2b0c1c4e9a7def</title><path fill="none" stroke="#000" d="M363.052,-215.788C357.398,-210.574 351.048,-204.927 345,-200 306.163,-168.362 259.027,-135.095 227.862,-113.759"/><polygon fill="#000" stroke="#000" points="229.75 -110.81 219.516 -108.069 225.807 -116.594 229.75 -110.81"/><g id="a_edge14-headlabel"><a target="_top" xlink:href="dir_000140_000000.xhtml" xlink:title="30"><text x="234.319" y="-107.989" font-family="Helvetica,sans-Serif" font-size="10" text-anchor="middle">30</text></a></g></g><g id="edge15" class="edge"><title>dir_9240672d44dfdb0f539b385a1f058d2d-&gt;dir_5815af820a9cc9481f1d0990a0d60286</title><path fill="none" stroke="#000" d="M372.32,-215.881C355.438,-183.996 315.375,-114.867 265,-72 244.617,-54.6554 217.581,-41.2533 195.915,-32.2652"/><polygon fill="#000" stroke="#000" points="196.966 -28.916 186.381 -28.448 194.364 -35.414 196.966 -28.916"/><g id="a_edge15-headlabel"><a target="_top" xlink:href="dir_000140_000150.xhtml" xlink:title="7"><text x="201.358" y="-25.116" font-family="Helvetica,sans-Serif" font-size="10" text-anchor="middle">7</text></a></g></g><g id="node4" class="node"><title>dir_cf4458890b03c2fecc4456bb26b0662d</title><g id="a_node4"><a target="_top" xlink:href="dir_cf4458890b03c2fecc4456bb26b0662d.xhtml" xlink:title="GLES_COMPUTE"><polygon fill="#fff" stroke="red" points="263.5 -252 168.5 -252 168.5 -216 263.5 -216 263.5 -252"/><text x="216" y="-231.5" font-family="Helvetica,sans-Serif" font-size="10" text-anchor="middle">GLES_COMPUTE</text></a></g></g><g id="edge12" class="edge"><title>dir_cf4458890b03c2fecc4456bb26b0662d-&gt;dir_214608ef36d61442cb2b0c1c4e9a7def</title><path fill="none" stroke="#000" d="M214.304,-215.879C212.425,-197.914 209.113,-168.884 205,-144 203.599,-135.525 201.796,-126.345 200.057,-118.044"/><polygon fill="#000" stroke="#000" points="203.447 -117.16 197.923 -108.119 196.603 -118.632 203.447 -117.16"/><g id="a_edge12-headlabel"><a target="_top" xlink:href="dir_000142_000000.xhtml" xlink:title="126"><text x="206.978" y="-117.578" font-family="Helvetica,sans-Serif" font-size="10" text-anchor="middle">126</text></a></g></g><g id="edge13" class="edge"><title>dir_cf4458890b03c2fecc4456bb26b0662d-&gt;dir_5815af820a9cc9481f1d0990a0d60286</title><path fill="none" stroke="#000" d="M226.035,-215.809C242.59,-184.979 271.308,-119.115 245,-72 234.37,-52.9619 213.781,-39.9151 195.413,-31.5305"/><polygon fill="#000" stroke="#000" points="196.648 -28.252 186.075 -27.564 193.911 -34.695 196.648 -28.252"/><g id="a_edge13-headlabel"><a target="_top" xlink:href="dir_000142_000150.xhtml" xlink:title="16"><text x="201.066" y="-24.544" font-family="Helvetica,sans-Serif" font-size="10" text-anchor="middle">16</text></a></g></g><g id="node5" class="node"><title>dir_a36523fc4c32a6b0076906589b6fc202</title><g id="a_node5"><a target="_top" xlink:href="dir_a36523fc4c32a6b0076906589b6fc202.xhtml" xlink:title="NEON"><polygon fill="#fff" stroke="red" points="150 -252 96 -252 96 -216 150 -216 150 -252"/><text x="123" y="-231.5" font-family="Helvetica,sans-Serif" font-size="10" text-anchor="middle">NEON</text></a></g></g><g id="edge4" class="edge"><title>dir_a36523fc4c32a6b0076906589b6fc202-&gt;dir_cbdb8362360e11eafe2fa3bc74cf0ffd</title><path fill="none" stroke="#000" d="M126.213,-215.697C127.646,-207.983 129.368,-198.712 130.965,-190.112"/><polygon fill="#000" stroke="#000" points="134.439 -190.575 132.823 -180.104 127.556 -189.297 134.439 -190.575"/><g id="a_edge4-headlabel"><a target="_top" xlink:href="dir_000144_000034.xhtml" xlink:title="1"><text x="136.574" y="-192.128" font-family="Helvetica,sans-Serif" font-size="10" text-anchor="middle">1</text></a></g></g><g id="edge5" class="edge"><title>dir_a36523fc4c32a6b0076906589b6fc202-&gt;dir_214608ef36d61442cb2b0c1c4e9a7def</title><path fill="none" stroke="#000" d="M143.26,-215.7C153.279,-206.126 164.747,-193.458 172,-180 182.351,-160.791 187.925,-136.632 190.87,-118.333"/><polygon fill="#000" stroke="#000" points="194.351 -118.716 192.316 -108.318 187.423 -117.715 194.351 -118.716"/><g id="a_edge5-headlabel"><a target="_top" xlink:href="dir_000144_000000.xhtml" xlink:title="587"><text x="196.647" y="-120.179" font-family="Helvetica,sans-Serif" font-size="10" text-anchor="middle">587</text></a></g></g><g id="edge6" class="edge"><title>dir_a36523fc4c32a6b0076906589b6fc202-&gt;dir_5815af820a9cc9481f1d0990a0d60286</title><path fill="none" stroke="#000" d="M113.458,-215.928C108.36,-205.821 102.61,-192.571 100,-180 96.7473,-164.334 96.5005,-159.613 100,-144 108.145,-107.664 128.093,-69.4502 142.544,-44.9861"/><polygon fill="#000" stroke="#000" points="145.606 -46.686 147.776 -36.316 139.613 -43.069 145.606 -46.686"/><g id="a_edge6-headlabel"><a target="_top" xlink:href="dir_000144_000150.xhtml" xlink:title="81"><text x="146.179" y="-48.73" font-family="Helvetica,sans-Serif" font-size="10" text-anchor="middle">81</text></a></g></g><g id="node6" class="node"><title>dir_016fa5637888b23a90b93c4e98f1766c</title><g id="a_node6"><a target="_top" xlink:href="dir_016fa5637888b23a90b93c4e98f1766c.xhtml" xlink:title="OMP"><polygon fill="#fff" stroke="#000" points="336 -252 282 -252 282 -216 336 -216 336 -252"/><text x="309" y="-231.5" font-family="Helvetica,sans-Serif" font-size="10" text-anchor="middle">OMP</text></a></g></g><g id="edge1" class="edge"><title>dir_016fa5637888b23a90b93c4e98f1766c-&gt;dir_214608ef36d61442cb2b0c1c4e9a7def</title><path fill="none" stroke="#000" d="M295.128,-215.871C275.011,-191.031 237.608,-144.846 214.361,-116.142"/><polygon fill="#000" stroke="#000" points="216.934 -113.758 207.921 -108.189 211.495 -118.163 216.934 -113.758"/><g id="a_edge1-headlabel"><a target="_top" xlink:href="dir_000147_000000.xhtml" xlink:title="6"><text x="221.403" y="-112.264" font-family="Helvetica,sans-Serif" font-size="10" text-anchor="middle">6</text></a></g></g><g id="edge2" class="edge"><title>dir_cbdb8362360e11eafe2fa3bc74cf0ffd-&gt;dir_214608ef36d61442cb2b0c1c4e9a7def</title><path fill="none" stroke="#000" d="M144.421,-143.697C150.571,-135.22 158.964,-124.864 167.155,-115.583"/><polygon fill="#000" stroke="#000" points="169.81 -117.864 173.933 -108.104 164.624 -113.163 169.81 -117.864"/><g id="a_edge2-headlabel"><a target="_top" xlink:href="dir_000034_000000.xhtml" xlink:title="37"><text x="169.5" y="-119.934" font-family="Helvetica,sans-Serif" font-size="10" text-anchor="middle">37</text></a></g></g><g id="edge3" class="edge"><title>dir_cbdb8362360e11eafe2fa3bc74cf0ffd-&gt;dir_5815af820a9cc9481f1d0990a0d60286</title><path fill="none" stroke="#000" d="M136.262,-143.795C136.79,-125.762 138.361,-96.6762 143,-72 144.616,-63.4041 147.105,-54.2224 149.642,-45.9575"/><polygon fill="#000" stroke="#000" points="152.976 -47.023 152.705 -36.432 146.312 -44.88 152.976 -47.023"/><g id="a_edge3-headlabel"><a target="_top" xlink:href="dir_000034_000150.xhtml" xlink:title="3"><text x="154.578" y="-48.814" font-family="Helvetica,sans-Serif" font-size="10" text-anchor="middle">3</text></a></g></g><g id="edge7" class="edge"><title>dir_214608ef36d61442cb2b0c1c4e9a7def-&gt;dir_cbdb8362360e11eafe2fa3bc74cf0ffd</title><path fill="none" stroke="#000" d="M185.723,-108.104C179.609,-116.552 171.231,-126.901 163.038,-136.199"/><polygon fill="#000" stroke="#000" points="160.368 -133.934 156.253 -143.697 165.558 -138.631 160.368 -133.934"/><g id="a_edge7-headlabel"><a target="_top" xlink:href="dir_000000_000034.xhtml" xlink:title="1"><text x="160.674" y="-126.863" font-family="Helvetica,sans-Serif" font-size="10" text-anchor="middle">1</text></a></g></g><g id="edge8" class="edge"><title>dir_214608ef36d61442cb2b0c1c4e9a7def-&gt;dir_5815af820a9cc9481f1d0990a0d60286</title><path fill="none" stroke="#000" d="M185.348,-71.6966C181.364,-63.7284 176.55,-54.0995 172.132,-45.2641"/><polygon fill="#000" stroke="#000" points="175.155 -43.483 167.552 -36.104 168.894 -46.614 175.155 -43.483"/><g id="a_edge8-headlabel"><a target="_top" xlink:href="dir_000000_000150.xhtml" xlink:title="22"><text x="179.302" y="-42.929" font-family="Helvetica,sans-Serif" font-size="10" text-anchor="middle">22</text></a></g></g></g></svg>