<svg xmlns="http://www.w3.org/2000/svg" xmlns:xlink="http://www.w3.org/1999/xlink" width="179pt" height="295pt" viewBox="0 0 178.67 295"><g id="graph0" class="graph" transform="scale(1 1) rotate(0) translate(4 291)"><title>tests/benchmark/NEON</title><polygon fill="#fff" stroke="none" points="-4 4 -4 -291 174.674 -291 174.674 4 -4 4"/><g id="clust1" class="cluster"><title>clusterdir_4f2df8950dc650bf7cf9176fae02facc</title><g id="a_clust1"><a target="_top" xlink:href="dir_4f2df8950dc650bf7cf9176fae02facc.xhtml" xlink:title="benchmark"><polygon fill="#dde" stroke="#000" points="52.049 -208 52.049 -279 123.049 -279 123.049 -208 52.049 -208"/><text x="87.549" y="-267" font-family="Helvetica,sans-Serif" font-size="10" text-anchor="middle">benchmark</text></a></g></g><g id="node1" class="node"><title>dir_ec05701f68bea22653d08da5856c9ffc</title><g id="a_node1"><a target="_top" xlink:href="dir_ec05701f68bea22653d08da5856c9ffc.xhtml" xlink:title="NEON"><polygon fill="#eef" stroke="#000" points="114.049 -252 60.049 -252 60.049 -216 114.049 -216 114.049 -252"/><text x="87.049" y="-231.5" font-family="Helvetica,sans-Serif" font-size="10" text-anchor="middle">NEON</text></a></g></g><g id="node2" class="node"><title>dir_cbdb8362360e11eafe2fa3bc74cf0ffd</title><g id="a_node2"><a target="_top" xlink:href="dir_cbdb8362360e11eafe2fa3bc74cf0ffd.xhtml" xlink:title="utils"><polygon fill="#fff" stroke="red" points="61.049 -108 7.049 -108 7.049 -72 61.049 -72 61.049 -108"/><text x="34.049" y="-87.5" font-family="Helvetica,sans-Serif" font-size="10" text-anchor="middle">utils</text></a></g></g><g id="edge5" class="edge"><title>dir_ec05701f68bea22653d08da5856c9ffc-&gt;dir_cbdb8362360e11eafe2fa3bc74cf0ffd</title><path fill="none" stroke="#000" d="M59.9975,-223.581C40.8667,-215.332 16.6386,-201.29 5.04937,-180 -5.90106,-159.884 3.99539,-134.942 15.1037,-116.585"/><polygon fill="#000" stroke="#000" points="18.067 -118.447 20.568 -108.152 12.193 -114.641 18.067 -118.447"/><g id="a_edge5-headlabel"><a target="_top" xlink:href="dir_000120_000034.xhtml" xlink:title="45"><text x="18.495" y="-120.508" font-family="Helvetica,sans-Serif" font-size="10" text-anchor="middle">45</text></a></g></g><g id="node3" class="node"><title>dir_445738e6fed662d0b65e690e3f1e1de0</title><g id="a_node3"><a target="_top" xlink:href="dir_445738e6fed662d0b65e690e3f1e1de0.xhtml" xlink:title="NEON"><polygon fill="none" stroke="#000" points="154.049 -180 100.049 -180 100.049 -144 154.049 -144 154.049 -180"/><text x="127.049" y="-159.5" font-family="Helvetica,sans-Serif" font-size="10" text-anchor="middle">NEON</text></a></g></g><g id="edge6" class="edge"><title>dir_ec05701f68bea22653d08da5856c9ffc-&gt;dir_445738e6fed662d0b65e690e3f1e1de0</title><path fill="none" stroke="#000" d="M96.937,-215.697C101.539,-207.644 107.11,-197.894 112.202,-188.982"/><polygon fill="#000" stroke="#000" points="115.353 -190.523 117.275 -180.104 109.275 -187.05 115.353 -190.523"/><g id="a_edge6-headlabel"><a target="_top" xlink:href="dir_000120_000153.xhtml" xlink:title="51"><text x="116.035" y="-192.553" font-family="Helvetica,sans-Serif" font-size="10" text-anchor="middle">51</text></a></g></g><g id="node4" class="node"><title>dir_9e71e2da941d3cafc4d98a9f6ae3de4f</title><g id="a_node4"><a target="_top" xlink:href="dir_9e71e2da941d3cafc4d98a9f6ae3de4f.xhtml" xlink:title="framework"><polygon fill="#fff" stroke="red" points="81.549 -180 14.549 -180 14.549 -144 81.549 -144 81.549 -180"/><text x="48.049" y="-159.5" font-family="Helvetica,sans-Serif" font-size="10" text-anchor="middle">framework</text></a></g></g><g id="edge7" class="edge"><title>dir_ec05701f68bea22653d08da5856c9ffc-&gt;dir_9e71e2da941d3cafc4d98a9f6ae3de4f</title><path fill="none" stroke="#000" d="M77.4089,-215.697C72.9223,-207.644 67.4906,-197.894 62.5253,-188.982"/><polygon fill="#000" stroke="#000" points="65.504 -187.137 57.579 -180.104 59.389 -190.544 65.504 -187.137"/><g id="a_edge7-headlabel"><a target="_top" xlink:href="dir_000120_000032.xhtml" xlink:title="92"><text x="69.733" y="-186.395" font-family="Helvetica,sans-Serif" font-size="10" text-anchor="middle">92</text></a></g></g><g id="node5" class="node"><title>dir_214608ef36d61442cb2b0c1c4e9a7def</title><g id="a_node5"><a target="_top" xlink:href="dir_214608ef36d61442cb2b0c1c4e9a7def.xhtml" xlink:title="arm_compute"><polygon fill="#fff" stroke="red" points="131.049 -36 47.049 -36 47.049 0 131.049 0 131.049 -36"/><text x="89.049" y="-15.5" font-family="Helvetica,sans-Serif" font-size="10" text-anchor="middle">arm_compute</text></a></g></g><g id="edge8" class="edge"><title>dir_ec05701f68bea22653d08da5856c9ffc-&gt;dir_214608ef36d61442cb2b0c1c4e9a7def</title><path fill="none" stroke="#000" d="M114.06,-222.143C131.498,-213.544 152.78,-199.681 163.049,-180 187.713,-132.732 145.065,-75.6739 114.942,-43.7457"/><polygon fill="#000" stroke="#000" points="117.081 -40.924 107.602 -36.191 112.06 -45.802 117.081 -40.924"/><g id="a_edge8-headlabel"><a target="_top" xlink:href="dir_000120_000000.xhtml" xlink:title="195"><text x="121.622" y="-39.024" font-family="Helvetica,sans-Serif" font-size="10" text-anchor="middle">195</text></a></g></g><g id="edge1" class="edge"><title>dir_cbdb8362360e11eafe2fa3bc74cf0ffd-&gt;dir_214608ef36d61442cb2b0c1c4e9a7def</title><path fill="none" stroke="#000" d="M41.7292,-71.6966C47.4573,-63.3046 55.3063,-53.0705 63.0238,-43.8613"/><polygon fill="#000" stroke="#000" points="65.834 -45.962 69.715 -36.104 60.533 -41.39 65.834 -45.962"/><g id="a_edge1-headlabel"><a target="_top" xlink:href="dir_000034_000000.xhtml" xlink:title="37"><text x="65.635" y="-48.039" font-family="Helvetica,sans-Serif" font-size="10" text-anchor="middle">37</text></a></g></g><g id="edge2" class="edge"><title>dir_445738e6fed662d0b65e690e3f1e1de0-&gt;dir_214608ef36d61442cb2b0c1c4e9a7def</title><path fill="none" stroke="#000" d="M122.466,-143.871C115.961,-119.564 103.987,-74.8187 96.2783,-46.0132"/><polygon fill="#000" stroke="#000" points="99.615 -44.944 93.649 -36.189 92.853 -46.754 99.615 -44.944"/><g id="a_edge2-headlabel"><a target="_top" xlink:href="dir_000153_000000.xhtml" xlink:title="6"><text x="103.287" y="-45.183" font-family="Helvetica,sans-Serif" font-size="10" text-anchor="middle">6</text></a></g></g><g id="edge3" class="edge"><title>dir_9e71e2da941d3cafc4d98a9f6ae3de4f-&gt;dir_cbdb8362360e11eafe2fa3bc74cf0ffd</title><path fill="none" stroke="#000" d="M44.5887,-143.697C43.0459,-135.983 41.1919,-126.712 39.4719,-118.112"/><polygon fill="#000" stroke="#000" points="42.864 -117.224 37.47 -108.104 35.999 -118.597 42.864 -117.224"/><g id="a_edge3-headlabel"><a target="_top" xlink:href="dir_000032_000034.xhtml" xlink:title="3"><text x="46.352" y="-117.692" font-family="Helvetica,sans-Serif" font-size="10" text-anchor="middle">3</text></a></g></g><g id="edge4" class="edge"><title>dir_9e71e2da941d3cafc4d98a9f6ae3de4f-&gt;dir_214608ef36d61442cb2b0c1c4e9a7def</title><path fill="none" stroke="#000" d="M56.2057,-143.632C60.7579,-133.425 66.2579,-120.175 70.0494,-108 76.3812,-87.667 81.3126,-64.0726 84.563,-46.288"/><polygon fill="#000" stroke="#000" points="88.034 -46.758 86.324 -36.302 81.14 -45.542 88.034 -46.758"/><g id="a_edge4-headlabel"><a target="_top" xlink:href="dir_000032_000000.xhtml" xlink:title="14"><text x="90.206" y="-48.291" font-family="Helvetica,sans-Serif" font-size="10" text-anchor="middle">14</text></a></g></g><g id="edge9" class="edge"><title>dir_214608ef36d61442cb2b0c1c4e9a7def-&gt;dir_cbdb8362360e11eafe2fa3bc74cf0ffd</title><path fill="none" stroke="#000" d="M81.5053,-36.1043C75.8109,-44.467 67.9777,-54.6945 60.2584,-63.9197"/><polygon fill="#000" stroke="#000" points="57.434 -61.835 53.561 -71.697 62.738 -66.403 57.434 -61.835"/><g id="a_edge9-headlabel"><a target="_top" xlink:href="dir_000000_000034.xhtml" xlink:title="1"><text x="57.629" y="-54.759" font-family="Helvetica,sans-Serif" font-size="10" text-anchor="middle">1</text></a></g></g></g></svg>