<svg xmlns="http://www.w3.org/2000/svg" xmlns:xlink="http://www.w3.org/1999/xlink" width="125pt" height="295pt" viewBox="0 0 125 295"><g id="graph0" class="graph" transform="scale(1 1) rotate(0) translate(4 291)"><title>arm_compute/core/CPP/kernels</title><polygon fill="#fff" stroke="none" points="-4 4 -4 -291 121 -291 121 4 -4 4"/><g id="clust1" class="cluster"><title>clusterdir_7484b841a86f2d7fdd057c9b24fbf230</title><g id="a_clust1"><a target="_top" xlink:href="dir_7484b841a86f2d7fdd057c9b24fbf230.xhtml" xlink:title="CPP"><polygon fill="#dde" stroke="#000" points="39 -208 39 -279 109 -279 109 -208 39 -208"/><text x="74" y="-267" font-family="Helvetica,sans-Serif" font-size="10" text-anchor="middle">CPP</text></a></g></g><g id="node1" class="node"><title>dir_9b109a3838d873f4037ee21889a49db8</title><g id="a_node1"><a target="_top" xlink:href="dir_9b109a3838d873f4037ee21889a49db8.xhtml" xlink:title="kernels"><polygon fill="#eef" stroke="#000" points="101 -252 47 -252 47 -216 101 -216 101 -252"/><text x="74" y="-231.5" font-family="Helvetica,sans-Serif" font-size="10" text-anchor="middle">kernels</text></a></g></g><g id="node2" class="node"><title>dir_8bc26130589aa16388b5a02f17abf2c2</title><g id="a_node2"><a target="_top" xlink:href="dir_8bc26130589aa16388b5a02f17abf2c2.xhtml" xlink:title="runtime"><polygon fill="#fff" stroke="red" points="101 -180 47 -180 47 -144 101 -144 101 -180"/><text x="74" y="-159.5" font-family="Helvetica,sans-Serif" font-size="10" text-anchor="middle">runtime</text></a></g></g><g id="edge1" class="edge"><title>dir_9b109a3838d873f4037ee21889a49db8-&gt;dir_8bc26130589aa16388b5a02f17abf2c2</title><path fill="none" stroke="#000" d="M74,-215.697C74,-207.983 74,-198.712 74,-190.112"/><polygon fill="#000" stroke="#000" points="77.5 -190.104 74 -180.104 70.5 -190.104 77.5 -190.104"/><g id="a_edge1-headlabel"><a target="_top" xlink:href="dir_000011_000003.xhtml" xlink:title="1"><text x="80.339" y="-191.199" font-family="Helvetica,sans-Serif" font-size="10" text-anchor="middle">1</text></a></g></g><g id="node3" class="node"><title>dir_315f6cf1ec0b2df3ae747ff8286a19f5</title><g id="a_node3"><a target="_top" xlink:href="dir_315f6cf1ec0b2df3ae747ff8286a19f5.xhtml" xlink:title="NEON"><polygon fill="#fff" stroke="red" points="54 -108 0 -108 0 -72 54 -72 54 -108"/><text x="27" y="-87.5" font-family="Helvetica,sans-Serif" font-size="10" text-anchor="middle">NEON</text></a></g></g><g id="edge2" class="edge"><title>dir_9b109a3838d873f4037ee21889a49db8-&gt;dir_315f6cf1ec0b2df3ae747ff8286a19f5</title><path fill="none" stroke="#000" d="M59.0301,-215.555C51.4546,-205.748 42.8565,-192.91 38,-180 30.5654,-160.237 27.9209,-136.436 27.0777,-118.421"/><polygon fill="#000" stroke="#000" points="30.572 -118.185 26.763 -108.299 23.576 -118.403 30.572 -118.185"/><g id="a_edge2-headlabel"><a target="_top" xlink:href="dir_000011_000022.xhtml" xlink:title="3"><text x="33.522" y="-119.19" font-family="Helvetica,sans-Serif" font-size="10" text-anchor="middle">3</text></a></g></g><g id="node4" class="node"><title>dir_5815af820a9cc9481f1d0990a0d60286</title><g id="a_node4"><a target="_top" xlink:href="dir_5815af820a9cc9481f1d0990a0d60286.xhtml" xlink:title="support"><polygon fill="none" stroke="#000" points="109 -36 55 -36 55 0 109 0 109 -36"/><text x="82" y="-15.5" font-family="Helvetica,sans-Serif" font-size="10" text-anchor="middle">support</text></a></g></g><g id="edge3" class="edge"><title>dir_9b109a3838d873f4037ee21889a49db8-&gt;dir_5815af820a9cc9481f1d0990a0d60286</title><path fill="none" stroke="#000" d="M89.6099,-215.774C97.3729,-206.03 105.946,-193.184 110,-180 124.207,-133.798 107.102,-77.7823 94.0701,-45.4794"/><polygon fill="#000" stroke="#000" points="97.294 -44.118 90.196 -36.253 90.84 -46.828 97.294 -44.118"/><g id="a_edge3-headlabel"><a target="_top" xlink:href="dir_000011_000150.xhtml" xlink:title="1"><text x="101.304" y="-43.833" font-family="Helvetica,sans-Serif" font-size="10" text-anchor="middle">1</text></a></g></g><g id="edge4" class="edge"><title>dir_8bc26130589aa16388b5a02f17abf2c2-&gt;dir_315f6cf1ec0b2df3ae747ff8286a19f5</title><path fill="none" stroke="#000" d="M62.382,-143.697C56.8612,-135.474 50.153,-125.483 44.0682,-116.421"/><polygon fill="#000" stroke="#000" points="46.965 -114.456 38.484 -108.104 41.153 -118.358 46.965 -114.456"/><g id="a_edge4-headlabel"><a target="_top" xlink:href="dir_000003_000022.xhtml" xlink:title="119"><text x="51.325" y="-113.357" font-family="Helvetica,sans-Serif" font-size="10" text-anchor="middle">119</text></a></g></g><g id="edge5" class="edge"><title>dir_8bc26130589aa16388b5a02f17abf2c2-&gt;dir_5815af820a9cc9481f1d0990a0d60286</title><path fill="none" stroke="#000" d="M74.965,-143.871C76.3284,-119.67 78.8332,-75.2108 80.4567,-46.3932"/><polygon fill="#000" stroke="#000" points="83.963 -46.37 81.032 -36.189 76.975 -45.977 83.963 -46.37"/><g id="a_edge5-headlabel"><a target="_top" xlink:href="dir_000003_000150.xhtml" xlink:title="5"><text x="86.596" y="-47.619" font-family="Helvetica,sans-Serif" font-size="10" text-anchor="middle">5</text></a></g></g><g id="edge6" class="edge"><title>dir_315f6cf1ec0b2df3ae747ff8286a19f5-&gt;dir_5815af820a9cc9481f1d0990a0d60286</title><path fill="none" stroke="#000" d="M40.5955,-71.6966C47.1227,-63.3893 55.068,-53.2771 62.2466,-44.1407"/><polygon fill="#000" stroke="#000" points="65.135 -46.13 68.561 -36.104 59.63 -41.805 65.135 -46.13"/><g id="a_edge6-headlabel"><a target="_top" xlink:href="dir_000022_000150.xhtml" xlink:title="5"><text x="65.147" y="-48.211" font-family="Helvetica,sans-Serif" font-size="10" text-anchor="middle">5</text></a></g></g></g></svg>