<svg xmlns="http://www.w3.org/2000/svg" xmlns:xlink="http://www.w3.org/1999/xlink" width="437pt" height="356" viewBox="0 0 437.48 267"><g id="graph0" class="graph" transform="scale(1 1) rotate(0) translate(4 263)"><title>arm_compute/core</title><polygon fill="#fff" stroke="none" points="-4 4 -4 -263 433.48 -263 433.48 4 -4 4"/><g id="clust1" class="cluster"><title>clusterdir_214608ef36d61442cb2b0c1c4e9a7def</title><g id="a_clust1"><a target="_top" xlink:href="dir_214608ef36d61442cb2b0c1c4e9a7def.xhtml" xlink:title="arm_compute"><polygon fill="#dde" stroke="#000" points="55.056 -56 55.056 -215 399.056 -215 399.056 -56 55.056 -56"/><text x="227.056" y="-203" font-family="Helvetica,sans-Serif" font-size="10" text-anchor="middle">arm_compute</text></a></g></g><g id="clust2" class="cluster"><title>clusterdir_1fb090f0c6070330bfaccc4236d3ca0d</title><g id="a_clust2"><a target="_top" xlink:href="dir_1fb090f0c6070330bfaccc4236d3ca0d.xhtml"><polygon fill="#eef" stroke="#000" points="63.056 -64 63.056 -188 391.056 -188 391.056 -64 63.056 -64"/></a></g></g><g id="node1" class="node"><title>dir_1fb090f0c6070330bfaccc4236d3ca0d</title><text x="170.056" y="-159.5" font-family="Helvetica,sans-Serif" font-size="10" text-anchor="middle">core</text></g><g id="node6" class="node"><title>dir_7b0825b7536eda12b63e5d87347b1c7d</title><g id="a_node6"><a target="_top" xlink:href="dir_7b0825b7536eda12b63e5d87347b1c7d.xhtml" xlink:title="utils"><polygon fill="#fff" stroke="red" points="197.056 -108 143.056 -108 143.056 -72 197.056 -72 197.056 -108"/><text x="170.056" y="-87.5" font-family="Helvetica,sans-Serif" font-size="10" text-anchor="middle">utils</text></a></g></g><g id="edge7" class="edge"><title>dir_1fb090f0c6070330bfaccc4236d3ca0d-&gt;dir_7b0825b7536eda12b63e5d87347b1c7d</title><path fill="none" stroke="#000" d="M170.056,-143.697C170.056,-135.983 170.056,-126.712 170.056,-118.112"/><polygon fill="#000" stroke="#000" points="173.556 -118.104 170.056 -108.104 166.556 -118.104 173.556 -118.104"/><g id="a_edge7-headlabel"><a target="_top" xlink:href="dir_000001_000014.xhtml" xlink:title="9"><text x="176.395" y="-119.199" font-family="Helvetica,sans-Serif" font-size="10" text-anchor="middle">9</text></a></g></g><g id="node2" class="node"><title>dir_1633709b037eda5b8477677909f78129</title><g id="a_node2"><a target="_top" xlink:href="dir_1633709b037eda5b8477677909f78129.xhtml" xlink:title="CL"><polygon fill="#fff" stroke="red" points="269.056 -180 215.056 -180 215.056 -144 269.056 -144 269.056 -180"/><text x="242.056" y="-159.5" font-family="Helvetica,sans-Serif" font-size="10" text-anchor="middle">CL</text></a></g></g><g id="node8" class="node"><title>dir_5815af820a9cc9481f1d0990a0d60286</title><g id="a_node8"><a target="_top" xlink:href="dir_5815af820a9cc9481f1d0990a0d60286.xhtml" xlink:title="support"><polygon fill="none" stroke="#000" points="271.056 -36 217.056 -36 217.056 0 271.056 0 271.056 -36"/><text x="244.056" y="-15.5" font-family="Helvetica,sans-Serif" font-size="10" text-anchor="middle">support</text></a></g></g><g id="edge10" class="edge"><title>dir_1633709b037eda5b8477677909f78129-&gt;dir_5815af820a9cc9481f1d0990a0d60286</title><path fill="none" stroke="#000" d="M242.297,-143.871C242.638,-119.67 243.264,-75.2108 243.67,-46.3932"/><polygon fill="#000" stroke="#000" points="247.172 -46.238 243.814 -36.189 240.173 -46.139 247.172 -46.238"/><g id="a_edge10-headlabel"><a target="_top" xlink:href="dir_000002_000150.xhtml" xlink:title="1"><text x="249.961" y="-47.372" font-family="Helvetica,sans-Serif" font-size="10" text-anchor="middle">1</text></a></g></g><g id="node3" class="node"><title>dir_7484b841a86f2d7fdd057c9b24fbf230</title><g id="a_node3"><a target="_top" xlink:href="dir_7484b841a86f2d7fdd057c9b24fbf230.xhtml" xlink:title="CPP"><polygon fill="#fff" stroke="red" points="125.056 -108 71.056 -108 71.056 -72 125.056 -72 125.056 -108"/><text x="98.056" y="-87.5" font-family="Helvetica,sans-Serif" font-size="10" text-anchor="middle">CPP</text></a></g></g><g id="node5" class="node"><title>dir_315f6cf1ec0b2df3ae747ff8286a19f5</title><g id="a_node5"><a target="_top" xlink:href="dir_315f6cf1ec0b2df3ae747ff8286a19f5.xhtml" xlink:title="NEON"><polygon fill="#fff" stroke="red" points="125.056 -180 71.056 -180 71.056 -144 125.056 -144 125.056 -180"/><text x="98.056" y="-159.5" font-family="Helvetica,sans-Serif" font-size="10" text-anchor="middle">NEON</text></a></g></g><g id="edge15" class="edge"><title>dir_7484b841a86f2d7fdd057c9b24fbf230-&gt;dir_315f6cf1ec0b2df3ae747ff8286a19f5</title><path fill="none" stroke="#000" d="M103.951,-108.104C104.756,-115.791 104.993,-125.054 104.66,-133.665"/><polygon fill="#000" stroke="#000" points="101.164 -133.48 103.972 -143.697 108.148 -133.96 101.164 -133.48"/><g id="a_edge15-headlabel"><a target="_top" xlink:href="dir_000010_000022.xhtml" xlink:title="3"><text x="98.578" y="-127.2" font-family="Helvetica,sans-Serif" font-size="10" text-anchor="middle">3</text></a></g></g><g id="node7" class="node"><title>dir_8bc26130589aa16388b5a02f17abf2c2</title><g id="a_node7"><a target="_top" xlink:href="dir_8bc26130589aa16388b5a02f17abf2c2.xhtml" xlink:title="runtime"><polygon fill="#fff" stroke="red" points="125.056 -259 71.056 -259 71.056 -223 125.056 -223 125.056 -259"/><text x="98.056" y="-238.5" font-family="Helvetica,sans-Serif" font-size="10" text-anchor="middle">runtime</text></a></g></g><g id="edge14" class="edge"><title>dir_7484b841a86f2d7fdd057c9b24fbf230-&gt;dir_8bc26130589aa16388b5a02f17abf2c2</title><path fill="none" stroke="#000" d="M70.8739,-99.816C50.9359,-107.876 25.2916,-121.951 13.0558,-144 -2.25596,-171.592 -5.84905,-189.734 13.0558,-215 24.0717,-229.722 43.3334,-236.147 60.7382,-238.812"/><polygon fill="#000" stroke="#000" points="60.355 -242.291 70.695 -239.982 61.172 -235.339 60.355 -242.291"/><g id="a_edge14-headlabel"><a target="_top" xlink:href="dir_000010_000003.xhtml" xlink:title="1"><text x="56.454" y="-242.192" font-family="Helvetica,sans-Serif" font-size="10" text-anchor="middle">1</text></a></g></g><g id="edge16" class="edge"><title>dir_7484b841a86f2d7fdd057c9b24fbf230-&gt;dir_5815af820a9cc9481f1d0990a0d60286</title><path fill="none" stroke="#000" d="M113.734,-71.9733C119.664,-66.2878 126.754,-60.3097 134.056,-56 156.777,-42.5891 185.034,-33.2171 207.219,-27.261"/><polygon fill="#000" stroke="#000" points="208.129 -30.641 216.944 -24.762 206.387 -23.861 208.129 -30.641"/><g id="a_edge16-headlabel"><a target="_top" xlink:href="dir_000010_000150.xhtml" xlink:title="1"><text x="205.354" y="-31.785" font-family="Helvetica,sans-Serif" font-size="10" text-anchor="middle">1</text></a></g></g><g id="node4" class="node"><title>dir_541ebbb21ca179b54b469d645ff46bd9</title><g id="a_node4"><a target="_top" xlink:href="dir_541ebbb21ca179b54b469d645ff46bd9.xhtml" xlink:title="GLES_COMPUTE"><polygon fill="#fff" stroke="red" points="382.556 -180 287.556 -180 287.556 -144 382.556 -144 382.556 -180"/><text x="335.056" y="-159.5" font-family="Helvetica,sans-Serif" font-size="10" text-anchor="middle">GLES_COMPUTE</text></a></g></g><g id="edge8" class="edge"><title>dir_541ebbb21ca179b54b469d645ff46bd9-&gt;dir_5815af820a9cc9481f1d0990a0d60286</title><path fill="none" stroke="#000" d="M324.079,-143.871C308.297,-119.244 279.07,-73.6377 260.644,-44.8845"/><polygon fill="#000" stroke="#000" points="263.414 -42.72 255.071 -36.189 257.52 -46.497 263.414 -42.72"/><g id="a_edge8-headlabel"><a target="_top" xlink:href="dir_000012_000150.xhtml" xlink:title="1"><text x="267.744" y="-41.715" font-family="Helvetica,sans-Serif" font-size="10" text-anchor="middle">1</text></a></g></g><g id="edge13" class="edge"><title>dir_315f6cf1ec0b2df3ae747ff8286a19f5-&gt;dir_7484b841a86f2d7fdd057c9b24fbf230</title><path fill="none" stroke="#000" d="M92.1401,-143.697C91.3444,-135.983 91.1178,-126.712 91.4605,-118.112"/><polygon fill="#000" stroke="#000" points="94.954 -118.324 92.161 -108.104 87.971 -117.836 94.954 -118.324"/><g id="a_edge13-headlabel"><a target="_top" xlink:href="dir_000022_000010.xhtml" xlink:title="4"><text x="97.536" y="-119.608" font-family="Helvetica,sans-Serif" font-size="10" text-anchor="middle">4</text></a></g></g><g id="edge11" class="edge"><title>dir_315f6cf1ec0b2df3ae747ff8286a19f5-&gt;dir_7b0825b7536eda12b63e5d87347b1c7d</title><path fill="none" stroke="#000" d="M115.854,-143.697C124.66,-135.135 135.438,-124.656 145.057,-115.304"/><polygon fill="#000" stroke="#000" points="147.733 -117.585 152.463 -108.104 142.853 -112.566 147.733 -117.585"/><g id="a_edge11-headlabel"><a target="_top" xlink:href="dir_000022_000014.xhtml" xlink:title="1"><text x="147.134" y="-119.626" font-family="Helvetica,sans-Serif" font-size="10" text-anchor="middle">1</text></a></g></g><g id="edge12" class="edge"><title>dir_315f6cf1ec0b2df3ae747ff8286a19f5-&gt;dir_5815af820a9cc9481f1d0990a0d60286</title><path fill="none" stroke="#000" d="M125.085,-148.02C156.569,-132.858 204.515,-109.624 206.056,-108 222.522,-90.6425 232.428,-65.0558 237.976,-45.7664"/><polygon fill="#000" stroke="#000" points="241.37 -46.624 240.558 -36.061 234.605 -44.825 241.37 -46.624"/><g id="a_edge12-headlabel"><a target="_top" xlink:href="dir_000022_000150.xhtml" xlink:title="5"><text x="243.189" y="-48.328" font-family="Helvetica,sans-Serif" font-size="10" text-anchor="middle">5</text></a></g></g><g id="edge9" class="edge"><title>dir_7b0825b7536eda12b63e5d87347b1c7d-&gt;dir_5815af820a9cc9481f1d0990a0d60286</title><path fill="none" stroke="#000" d="M188.348,-71.6966C197.488,-63.0503 208.696,-52.4486 218.656,-43.027"/><polygon fill="#000" stroke="#000" points="221.115 -45.519 225.974 -36.104 216.304 -40.434 221.115 -45.519"/><g id="a_edge9-headlabel"><a target="_top" xlink:href="dir_000014_000150.xhtml" xlink:title="4"><text x="220.454" y="-47.552" font-family="Helvetica,sans-Serif" font-size="10" text-anchor="middle">4</text></a></g></g><g id="edge3" class="edge"><title>dir_8bc26130589aa16388b5a02f17abf2c2-&gt;dir_1633709b037eda5b8477677909f78129</title><path fill="none" stroke="#000" d="M125.062,-239.109C148.316,-237.163 181.852,-231.43 206.056,-215 215.694,-208.457 223.527,-198.407 229.395,-188.879"/><polygon fill="#000" stroke="#000" points="232.521 -190.461 234.414 -180.036 226.434 -187.006 232.521 -190.461"/><g id="a_edge3-headlabel"><a target="_top" xlink:href="dir_000003_000002.xhtml" xlink:title="158"><text x="233.216" y="-192.489" font-family="Helvetica,sans-Serif" font-size="10" text-anchor="middle">158</text></a></g></g><g id="edge6" class="edge"><title>dir_8bc26130589aa16388b5a02f17abf2c2-&gt;dir_7484b841a86f2d7fdd057c9b24fbf230</title><path fill="none" stroke="#000" d="M70.9278,-237.582C55.9399,-234.7 38.493,-228.457 29.0558,-215 10.9374,-189.164 15.1061,-172.305 29.0558,-144 36.1631,-129.579 49.2882,-117.987 62.1983,-109.366"/><polygon fill="#000" stroke="#000" points="64.384 -112.128 71.025 -103.873 60.686 -106.185 64.384 -112.128"/><g id="a_edge6-headlabel"><a target="_top" xlink:href="dir_000003_000010.xhtml" xlink:title="8"><text x="62.832" y="-113.938" font-family="Helvetica,sans-Serif" font-size="10" text-anchor="middle">8</text></a></g></g><g id="edge1" class="edge"><title>dir_8bc26130589aa16388b5a02f17abf2c2-&gt;dir_541ebbb21ca179b54b469d645ff46bd9</title><path fill="none" stroke="#000" d="M125.113,-238.211C168.509,-235.014 251.494,-227.465 278.056,-215 291.681,-208.606 304.326,-197.808 314.227,-187.703"/><polygon fill="#000" stroke="#000" points="316.969 -189.894 321.234 -180.195 311.852 -185.118 316.969 -189.894"/><g id="a_edge1-headlabel"><a target="_top" xlink:href="dir_000003_000012.xhtml" xlink:title="41"><text x="316.592" y="-191.959" font-family="Helvetica,sans-Serif" font-size="10" text-anchor="middle">41</text></a></g></g><g id="edge4" class="edge"><title>dir_8bc26130589aa16388b5a02f17abf2c2-&gt;dir_315f6cf1ec0b2df3ae747ff8286a19f5</title><path fill="none" stroke="#000" d="M98.0558,-222.911C98.0558,-213.341 98.0558,-201.183 98.0558,-190.323"/><polygon fill="#000" stroke="#000" points="101.556 -190.041 98.056 -180.041 94.556 -190.041 101.556 -190.041"/><g id="a_edge4-headlabel"><a target="_top" xlink:href="dir_000003_000022.xhtml" xlink:title="119"><text x="104.395" y="-191.136" font-family="Helvetica,sans-Serif" font-size="10" text-anchor="middle">119</text></a></g></g><g id="edge2" class="edge"><title>dir_8bc26130589aa16388b5a02f17abf2c2-&gt;dir_7b0825b7536eda12b63e5d87347b1c7d</title><path fill="none" stroke="#000" d="M70.7825,-225.59C67.2734,-222.568 64.1718,-219.046 62.0558,-215 47.4308,-187.038 45.3664,-170.781 62.0558,-144 63.1288,-142.278 102.707,-123.112 133.64,-108.317"/><polygon fill="#000" stroke="#000" points="135.395 -111.358 142.91 -103.89 132.378 -105.041 135.395 -111.358"/><g id="a_edge2-headlabel"><a target="_top" xlink:href="dir_000003_000014.xhtml" xlink:title="4"><text x="133.375" y="-112.969" font-family="Helvetica,sans-Serif" font-size="10" text-anchor="middle">4</text></a></g></g><g id="edge5" class="edge"><title>dir_8bc26130589aa16388b5a02f17abf2c2-&gt;dir_5815af820a9cc9481f1d0990a0d60286</title><path fill="none" stroke="#000" d="M125.3,-239.76C195.256,-238.861 376.998,-234.642 395.056,-215 442.883,-162.978 438.675,-111.598 395.056,-56 381.147,-38.2721 321.149,-27.9298 281.098,-22.8803"/><polygon fill="#000" stroke="#000" points="281.483 -19.401 271.136 -21.681 280.646 -26.351 281.483 -19.401"/><g id="a_edge5-headlabel"><a target="_top" xlink:href="dir_000003_000150.xhtml" xlink:title="5"><text x="285.391" y="-14.512" font-family="Helvetica,sans-Serif" font-size="10" text-anchor="middle">5</text></a></g></g></g></svg>