<svg xmlns="http://www.w3.org/2000/svg" xmlns:xlink="http://www.w3.org/1999/xlink" width="360" height="244" viewBox="0 0 270 183"><g id="graph0" class="graph" transform="scale(1 1) rotate(0) translate(4 179)"><title>src/core/NEON/kernels/arm_gemm</title><polygon fill="#fff" stroke="none" points="-4 4 -4 -179 266 -179 266 4 -4 4"/><g id="clust1" class="cluster"><title>clusterdir_1ce938f580a6f304b99685e2c1dd19db</title><g id="a_clust1"><a target="_top" xlink:href="dir_1ce938f580a6f304b99685e2c1dd19db.xhtml" xlink:title="kernels"><polygon fill="#dde" stroke="#000" points="8 -8 8 -167 254 -167 254 -8 8 -8"/><text x="131" y="-155" font-family="Helvetica,sans-Serif" font-size="10" text-anchor="middle">kernels</text></a></g></g><g id="clust2" class="cluster"><title>clusterdir_9847dd9cb7a28e46201717fa7336cf62</title><g id="a_clust2"><a target="_top" xlink:href="dir_9847dd9cb7a28e46201717fa7336cf62.xhtml"><polygon fill="#eef" stroke="#000" points="16 -16 16 -140 246 -140 246 -16 16 -16"/></a></g></g><g id="node1" class="node"><title>dir_9847dd9cb7a28e46201717fa7336cf62</title><text x="123" y="-111.5" font-family="Helvetica,sans-Serif" font-size="10" text-anchor="middle">arm_gemm</text></g><g id="node2" class="node"><title>dir_1bfffff844e6b15c54f06f69450095a2</title><g id="a_node2"><a target="_top" xlink:href="dir_1bfffff844e6b15c54f06f69450095a2.xhtml" xlink:title="kernels"><polygon fill="#fff" stroke="red" points="78 -60 24 -60 24 -24 78 -24 78 -60"/><text x="51" y="-39.5" font-family="Helvetica,sans-Serif" font-size="10" text-anchor="middle">kernels</text></a></g></g><g id="edge1" class="edge"><title>dir_9847dd9cb7a28e46201717fa7336cf62-&gt;dir_1bfffff844e6b15c54f06f69450095a2</title><path fill="none" stroke="#000" d="M105.202,-95.6966C96.396,-87.135 85.6179,-76.6562 75.9989,-67.3045"/><polygon fill="#000" stroke="#000" points="78.203 -64.566 68.593 -60.104 73.323 -69.585 78.203 -64.566"/><g id="a_edge1-headlabel"><a target="_top" xlink:href="dir_000076_000077.xhtml" xlink:title="12"><text x="82.759" y="-62.536" font-family="Helvetica,sans-Serif" font-size="10" text-anchor="middle">12</text></a></g></g><g id="node3" class="node"><title>dir_736b7cb5ae91601e9fac1dc1b70c4612</title><g id="a_node3"><a target="_top" xlink:href="dir_736b7cb5ae91601e9fac1dc1b70c4612.xhtml" xlink:title="merges"><polygon fill="#fff" stroke="#000" points="150 -60 96 -60 96 -24 150 -24 150 -60"/><text x="123" y="-39.5" font-family="Helvetica,sans-Serif" font-size="10" text-anchor="middle">merges</text></a></g></g><g id="edge3" class="edge"><title>dir_9847dd9cb7a28e46201717fa7336cf62-&gt;dir_736b7cb5ae91601e9fac1dc1b70c4612</title><path fill="none" stroke="#000" d="M123,-95.6966C123,-87.9827 123,-78.7125 123,-70.1124"/><polygon fill="#000" stroke="#000" points="126.5 -70.104 123 -60.104 119.5 -70.104 126.5 -70.104"/><g id="a_edge3-headlabel"><a target="_top" xlink:href="dir_000076_000114.xhtml" xlink:title="1"><text x="129.339" y="-71.199" font-family="Helvetica,sans-Serif" font-size="10" text-anchor="middle">1</text></a></g></g><g id="node4" class="node"><title>dir_f11c7bbf76b3b5417003d346f29c89d2</title><g id="a_node4"><a target="_top" xlink:href="dir_f11c7bbf76b3b5417003d346f29c89d2.xhtml" xlink:title="transforms"><polygon fill="#fff" stroke="#000" points="237.5 -60 168.5 -60 168.5 -24 237.5 -24 237.5 -60"/><text x="203" y="-39.5" font-family="Helvetica,sans-Serif" font-size="10" text-anchor="middle">transforms</text></a></g></g><g id="edge2" class="edge"><title>dir_9847dd9cb7a28e46201717fa7336cf62-&gt;dir_f11c7bbf76b3b5417003d346f29c89d2</title><path fill="none" stroke="#000" d="M142.775,-95.6966C152.754,-86.9655 165.011,-76.2405 175.857,-66.7503"/><polygon fill="#000" stroke="#000" points="178.231 -69.323 183.452 -60.104 173.622 -64.055 178.231 -69.323"/><g id="a_edge2-headlabel"><a target="_top" xlink:href="dir_000076_000115.xhtml" xlink:title="1"><text x="177.396" y="-71.327" font-family="Helvetica,sans-Serif" font-size="10" text-anchor="middle">1</text></a></g></g></g></svg>