<svg xmlns="http://www.w3.org/2000/svg" xmlns:xlink="http://www.w3.org/1999/xlink" width="720" height="404" viewBox="0 0 540 303"><g id="graph0" class="graph" transform="scale(1 1) rotate(0) translate(4 299)"><title>tests/benchmark</title><polygon fill="#fff" stroke="none" points="-4 4 -4 -299 536 -299 536 4 -4 4"/><g id="clust1" class="cluster"><title>clusterdir_59425e443f801f1f2fd8bbe4959a3ccf</title><g id="a_clust1"><a target="_top" xlink:href="dir_59425e443f801f1f2fd8bbe4959a3ccf.xhtml" xlink:title="tests"><polygon fill="#dde" stroke="#000" points="162 -200 162 -287 524 -287 524 -200 162 -200"/><text x="343" y="-275" font-family="Helvetica,sans-Serif" font-size="10" text-anchor="middle">tests</text></a></g></g><g id="clust2" class="cluster"><title>clusterdir_4f2df8950dc650bf7cf9176fae02facc</title><g id="a_clust2"><a target="_top" xlink:href="dir_4f2df8950dc650bf7cf9176fae02facc.xhtml"><polygon fill="#eef" stroke="#000" points="170 -208 170 -260 516 -260 516 -208 170 -208"/></a></g></g><g id="node1" class="node"><title>dir_4f2df8950dc650bf7cf9176fae02facc</title><text x="472" y="-231.5" font-family="Helvetica,sans-Serif" font-size="10" text-anchor="middle">benchmark</text></g><g id="node2" class="node"><title>dir_4da487531dc5bdc76b523c9e82b781b1</title><g id="a_node2"><a target="_top" xlink:href="dir_4da487531dc5bdc76b523c9e82b781b1.xhtml" xlink:title="CL"><polygon fill="#fff" stroke="#000" points="232 -252 178 -252 178 -216 232 -216 232 -252"/><text x="205" y="-231.5" font-family="Helvetica,sans-Serif" font-size="10" text-anchor="middle">CL</text></a></g></g><g id="node5" class="node"><title>dir_cbdb8362360e11eafe2fa3bc74cf0ffd</title><g id="a_node5"><a target="_top" xlink:href="dir_cbdb8362360e11eafe2fa3bc74cf0ffd.xhtml" xlink:title="utils"><polygon fill="#fff" stroke="red" points="377 -108 323 -108 323 -72 377 -72 377 -108"/><text x="350" y="-87.5" font-family="Helvetica,sans-Serif" font-size="10" text-anchor="middle">utils</text></a></g></g><g id="edge1" class="edge"><title>dir_4da487531dc5bdc76b523c9e82b781b1-&gt;dir_cbdb8362360e11eafe2fa3bc74cf0ffd</title><path fill="none" stroke="#000" d="M177.76,-219.009C163.375,-210.004 147.069,-196.829 139,-180 132.082,-165.573 129.16,-156.617 139,-144 160.166,-116.859 258.139,-101.5 312.828,-94.9038"/><polygon fill="#000" stroke="#000" points="313.304 -98.372 322.831 -93.737 312.493 -91.419 313.304 -98.372"/><g id="a_edge1-headlabel"><a target="_top" xlink:href="dir_000119_000034.xhtml" xlink:title="47"><text x="310.062" y="-99.109" font-family="Helvetica,sans-Serif" font-size="10" text-anchor="middle">47</text></a></g></g><g id="node7" class="node"><title>dir_9e71e2da941d3cafc4d98a9f6ae3de4f</title><g id="a_node7"><a target="_top" xlink:href="dir_9e71e2da941d3cafc4d98a9f6ae3de4f.xhtml" xlink:title="framework"><polygon fill="#fff" stroke="red" points="328.5 -180 261.5 -180 261.5 -144 328.5 -144 328.5 -180"/><text x="295" y="-159.5" font-family="Helvetica,sans-Serif" font-size="10" text-anchor="middle">framework</text></a></g></g><g id="edge2" class="edge"><title>dir_4da487531dc5bdc76b523c9e82b781b1-&gt;dir_9e71e2da941d3cafc4d98a9f6ae3de4f</title><path fill="none" stroke="#000" d="M222.874,-215.696C228.525,-210.479 234.892,-204.852 241,-200 246.934,-195.286 253.441,-190.517 259.82,-186.042"/><polygon fill="#000" stroke="#000" points="262.12 -188.707 268.372 -180.154 258.151 -182.941 262.12 -188.707"/><g id="a_edge2-headlabel"><a target="_top" xlink:href="dir_000119_000032.xhtml" xlink:title="93"><text x="260.769" y="-190.584" font-family="Helvetica,sans-Serif" font-size="10" text-anchor="middle">93</text></a></g></g><g id="node9" class="node"><title>dir_214608ef36d61442cb2b0c1c4e9a7def</title><g id="a_node9"><a target="_top" xlink:href="dir_214608ef36d61442cb2b0c1c4e9a7def.xhtml" xlink:title="arm_compute"><polygon fill="#fff" stroke="red" points="392 -36 308 -36 308 0 392 0 392 -36"/><text x="350" y="-15.5" font-family="Helvetica,sans-Serif" font-size="10" text-anchor="middle">arm_compute</text></a></g></g><g id="edge3" class="edge"><title>dir_4da487531dc5bdc76b523c9e82b781b1-&gt;dir_214608ef36d61442cb2b0c1c4e9a7def</title><path fill="none" stroke="#000" d="M177.989,-222.143C160.551,-213.544 139.269,-199.681 129,-180 121.598,-165.815 121.066,-157.894 129,-144 164.701,-81.4767 244.809,-47.8519 298.126,-31.7012"/><polygon fill="#000" stroke="#000" points="299.137 -35.052 307.753 -28.886 297.172 -28.334 299.137 -35.052"/><g id="a_edge3-headlabel"><a target="_top" xlink:href="dir_000119_000000.xhtml" xlink:title="204"><text x="296.484" y="-36.286" font-family="Helvetica,sans-Serif" font-size="10" text-anchor="middle">204</text></a></g></g><g id="node10" class="node"><title>dir_896191444cf08ec8ade6f88256cb2bdd</title><g id="a_node10"><a target="_top" xlink:href="dir_896191444cf08ec8ade6f88256cb2bdd.xhtml" xlink:title="CL"><polygon fill="none" stroke="#000" points="54 -180 0 -180 0 -144 54 -144 54 -180"/><text x="27" y="-159.5" font-family="Helvetica,sans-Serif" font-size="10" text-anchor="middle">CL</text></a></g></g><g id="edge4" class="edge"><title>dir_4da487531dc5bdc76b523c9e82b781b1-&gt;dir_896191444cf08ec8ade6f88256cb2bdd</title><path fill="none" stroke="#000" d="M177.891,-222.732C150.198,-212.191 105.995,-195.224 68,-180 66.6141,-179.445 65.2032,-178.876 63.7789,-178.299"/><polygon fill="#000" stroke="#000" points="64.891 -174.973 54.31 -174.43 62.243 -181.453 64.891 -174.973"/><g id="a_edge4-headlabel"><a target="_top" xlink:href="dir_000119_000151.xhtml" xlink:title="52"><text x="69.292" y="-171.204" font-family="Helvetica,sans-Serif" font-size="10" text-anchor="middle">52</text></a></g></g><g id="node3" class="node"><title>dir_184f72a532a521c8d66e76d860c2010a</title><g id="a_node3"><a target="_top" xlink:href="dir_184f72a532a521c8d66e76d860c2010a.xhtml" xlink:title="GLES_COMPUTE"><polygon fill="#fff" stroke="#000" points="345.5 -252 250.5 -252 250.5 -216 345.5 -216 345.5 -252"/><text x="298" y="-231.5" font-family="Helvetica,sans-Serif" font-size="10" text-anchor="middle">GLES_COMPUTE</text></a></g></g><g id="edge15" class="edge"><title>dir_184f72a532a521c8d66e76d860c2010a-&gt;dir_cbdb8362360e11eafe2fa3bc74cf0ffd</title><path fill="none" stroke="#000" d="M314.121,-215.71C322.3,-205.948 331.618,-193.104 337,-180 345.095,-160.29 348.254,-136.306 349.439,-118.204"/><polygon fill="#000" stroke="#000" points="352.943 -118.203 349.94 -108.043 345.952 -117.859 352.943 -118.203"/><g id="a_edge15-headlabel"><a target="_top" xlink:href="dir_000135_000034.xhtml" xlink:title="12"><text x="355.602" y="-119.433" font-family="Helvetica,sans-Serif" font-size="10" text-anchor="middle">12</text></a></g></g><g id="edge16" class="edge"><title>dir_184f72a532a521c8d66e76d860c2010a-&gt;dir_9e71e2da941d3cafc4d98a9f6ae3de4f</title><path fill="none" stroke="#000" d="M297.258,-215.697C296.928,-207.983 296.531,-198.712 296.162,-190.112"/><polygon fill="#000" stroke="#000" points="299.658 -189.945 295.733 -180.104 292.665 -190.245 299.658 -189.945"/><g id="a_edge16-headlabel"><a target="_top" xlink:href="dir_000135_000032.xhtml" xlink:title="24"><text x="302.649" y="-190.915" font-family="Helvetica,sans-Serif" font-size="10" text-anchor="middle">24</text></a></g></g><g id="node8" class="node"><title>dir_7365e77196b52ca311bb83f181e59b8c</title><g id="a_node8"><a target="_top" xlink:href="dir_7365e77196b52ca311bb83f181e59b8c.xhtml" xlink:title="GLES_COMPUTE"><polygon fill="none" stroke="#000" points="243.5 -180 148.5 -180 148.5 -144 243.5 -144 243.5 -180"/><text x="196" y="-159.5" font-family="Helvetica,sans-Serif" font-size="10" text-anchor="middle">GLES_COMPUTE</text></a></g></g><g id="edge17" class="edge"><title>dir_184f72a532a521c8d66e76d860c2010a-&gt;dir_7365e77196b52ca311bb83f181e59b8c</title><path fill="none" stroke="#000" d="M273.048,-215.876C259.958,-206.893 243.74,-195.763 229.564,-186.034"/><polygon fill="#000" stroke="#000" points="231.274 -182.962 221.048 -180.19 227.313 -188.734 231.274 -182.962"/><g id="a_edge17-headlabel"><a target="_top" xlink:href="dir_000135_000152.xhtml" xlink:title="12"><text x="235.844" y="-180.155" font-family="Helvetica,sans-Serif" font-size="10" text-anchor="middle">12</text></a></g></g><g id="edge18" class="edge"><title>dir_184f72a532a521c8d66e76d860c2010a-&gt;dir_214608ef36d61442cb2b0c1c4e9a7def</title><path fill="none" stroke="#000" d="M321.172,-215.829C332.81,-206.29 346.431,-193.615 356,-180 375.933,-151.637 379.201,-141.993 386,-108 389.138,-92.3107 390.703,-87.2933 386,-72 382.991,-62.2153 377.493,-52.6161 371.684,-44.3336"/><polygon fill="#000" stroke="#000" points="374.407 -42.131 365.61 -36.226 368.805 -46.328 374.407 -42.131"/><g id="a_edge18-headlabel"><a target="_top" xlink:href="dir_000135_000000.xhtml" xlink:title="58"><text x="378.835" y="-40.805" font-family="Helvetica,sans-Serif" font-size="10" text-anchor="middle">58</text></a></g></g><g id="node4" class="node"><title>dir_ec05701f68bea22653d08da5856c9ffc</title><g id="a_node4"><a target="_top" xlink:href="dir_ec05701f68bea22653d08da5856c9ffc.xhtml" xlink:title="NEON"><polygon fill="#fff" stroke="#000" points="418 -252 364 -252 364 -216 418 -216 418 -252"/><text x="391" y="-231.5" font-family="Helvetica,sans-Serif" font-size="10" text-anchor="middle">NEON</text></a></g></g><g id="edge9" class="edge"><title>dir_ec05701f68bea22653d08da5856c9ffc-&gt;dir_cbdb8362360e11eafe2fa3bc74cf0ffd</title><path fill="none" stroke="#000" d="M387.949,-215.73C384.562,-197.644 378.561,-168.516 371,-144 368.317,-135.299 364.85,-126.007 361.509,-117.672"/><polygon fill="#000" stroke="#000" points="364.744 -116.335 357.7 -108.421 358.271 -119 364.744 -116.335"/><g id="a_edge9-headlabel"><a target="_top" xlink:href="dir_000120_000034.xhtml" xlink:title="45"><text x="368.738" y="-116.078" font-family="Helvetica,sans-Serif" font-size="10" text-anchor="middle">45</text></a></g></g><g id="node6" class="node"><title>dir_445738e6fed662d0b65e690e3f1e1de0</title><g id="a_node6"><a target="_top" xlink:href="dir_445738e6fed662d0b65e690e3f1e1de0.xhtml" xlink:title="NEON"><polygon fill="none" stroke="#000" points="515 -180 461 -180 461 -144 515 -144 515 -180"/><text x="488" y="-159.5" font-family="Helvetica,sans-Serif" font-size="10" text-anchor="middle">NEON</text></a></g></g><g id="edge10" class="edge"><title>dir_ec05701f68bea22653d08da5856c9ffc-&gt;dir_445738e6fed662d0b65e690e3f1e1de0</title><path fill="none" stroke="#000" d="M408.344,-215.826C414.077,-210.502 420.625,-204.782 427,-200 434.869,-194.098 443.725,-188.297 452.2,-183.102"/><polygon fill="#000" stroke="#000" points="454.055 -186.071 460.836 -177.93 450.459 -180.065 454.055 -186.071"/><g id="a_edge10-headlabel"><a target="_top" xlink:href="dir_000120_000153.xhtml" xlink:title="51"><text x="452.431" y="-187.853" font-family="Helvetica,sans-Serif" font-size="10" text-anchor="middle">51</text></a></g></g><g id="edge11" class="edge"><title>dir_ec05701f68bea22653d08da5856c9ffc-&gt;dir_9e71e2da941d3cafc4d98a9f6ae3de4f</title><path fill="none" stroke="#000" d="M373.074,-215.918C367.176,-210.599 360.469,-204.859 354,-200 347.475,-195.099 340.288,-190.21 333.244,-185.667"/><polygon fill="#000" stroke="#000" points="334.782 -182.499 324.456 -180.124 331.047 -188.42 334.782 -182.499"/><g id="a_edge11-headlabel"><a target="_top" xlink:href="dir_000120_000032.xhtml" xlink:title="92"><text x="339.337" y="-179.515" font-family="Helvetica,sans-Serif" font-size="10" text-anchor="middle">92</text></a></g></g><g id="edge12" class="edge"><title>dir_ec05701f68bea22653d08da5856c9ffc-&gt;dir_214608ef36d61442cb2b0c1c4e9a7def</title><path fill="none" stroke="#000" d="M406.05,-215.816C412.021,-209.975 419.3,-203.937 427,-200 466.192,-179.961 496.194,-214.124 524,-180 534.107,-167.596 528.853,-159.246 524,-144 512.106,-106.633 503.475,-96.6784 473,-72 452.115,-55.0877 425.017,-42.6434 401.574,-34.08"/><polygon fill="#000" stroke="#000" points="402.712 -30.77 392.118 -30.76 400.393 -37.375 402.712 -30.77"/><g id="a_edge12-headlabel"><a target="_top" xlink:href="dir_000120_000000.xhtml" xlink:title="195"><text x="407.045" y="-26.782" font-family="Helvetica,sans-Serif" font-size="10" text-anchor="middle">195</text></a></g></g><g id="edge5" class="edge"><title>dir_cbdb8362360e11eafe2fa3bc74cf0ffd-&gt;dir_214608ef36d61442cb2b0c1c4e9a7def</title><path fill="none" stroke="#000" d="M344.084,-71.6966C343.289,-63.9827 343.062,-54.7125 343.405,-46.1124"/><polygon fill="#000" stroke="#000" points="346.898 -46.324 344.105 -36.104 339.915 -45.836 346.898 -46.324"/><g id="a_edge5-headlabel"><a target="_top" xlink:href="dir_000034_000000.xhtml" xlink:title="37"><text x="349.48" y="-47.608" font-family="Helvetica,sans-Serif" font-size="10" text-anchor="middle">37</text></a></g></g><g id="edge6" class="edge"><title>dir_445738e6fed662d0b65e690e3f1e1de0-&gt;dir_214608ef36d61442cb2b0c1c4e9a7def</title><path fill="none" stroke="#000" d="M483.61,-143.737C477.93,-124.312 466.391,-92.764 447,-72 434.409,-58.517 417.596,-47.6865 401.507,-39.4177"/><polygon fill="#000" stroke="#000" points="402.676 -36.093 392.155 -34.844 399.601 -42.382 402.676 -36.093"/><g id="a_edge6-headlabel"><a target="_top" xlink:href="dir_000153_000000.xhtml" xlink:title="6"><text x="407.153" y="-32.622" font-family="Helvetica,sans-Serif" font-size="10" text-anchor="middle">6</text></a></g></g><g id="edge7" class="edge"><title>dir_9e71e2da941d3cafc4d98a9f6ae3de4f-&gt;dir_cbdb8362360e11eafe2fa3bc74cf0ffd</title><path fill="none" stroke="#000" d="M308.596,-143.697C315.123,-135.389 323.068,-125.277 330.247,-116.141"/><polygon fill="#000" stroke="#000" points="333.135 -118.13 336.561 -108.104 327.631 -113.805 333.135 -118.13"/><g id="a_edge7-headlabel"><a target="_top" xlink:href="dir_000032_000034.xhtml" xlink:title="3"><text x="333.147" y="-120.211" font-family="Helvetica,sans-Serif" font-size="10" text-anchor="middle">3</text></a></g></g><g id="edge8" class="edge"><title>dir_9e71e2da941d3cafc4d98a9f6ae3de4f-&gt;dir_214608ef36d61442cb2b0c1c4e9a7def</title><path fill="none" stroke="#000" d="M296.697,-143.674C298.95,-125.29 303.888,-95.6852 314,-72 318.084,-62.4333 323.988,-52.7836 329.838,-44.3881"/><polygon fill="#000" stroke="#000" points="332.78 -46.294 335.835 -36.149 327.12 -42.174 332.78 -46.294"/><g id="a_edge8-headlabel"><a target="_top" xlink:href="dir_000032_000000.xhtml" xlink:title="14"><text x="332.96" y="-48.371" font-family="Helvetica,sans-Serif" font-size="10" text-anchor="middle">14</text></a></g></g><g id="edge13" class="edge"><title>dir_7365e77196b52ca311bb83f181e59b8c-&gt;dir_214608ef36d61442cb2b0c1c4e9a7def</title><path fill="none" stroke="#000" d="M214.576,-143.871C241.863,-118.711 292.897,-71.6535 323.927,-43.0415"/><polygon fill="#000" stroke="#000" points="326.379 -45.541 331.358 -36.189 321.634 -40.395 326.379 -45.541"/><g id="a_edge13-headlabel"><a target="_top" xlink:href="dir_000152_000000.xhtml" xlink:title="3"><text x="325.661" y="-47.565" font-family="Helvetica,sans-Serif" font-size="10" text-anchor="middle">3</text></a></g></g><g id="edge14" class="edge"><title>dir_214608ef36d61442cb2b0c1c4e9a7def-&gt;dir_cbdb8362360e11eafe2fa3bc74cf0ffd</title><path fill="none" stroke="#000" d="M355.895,-36.1043C356.701,-43.7913 356.937,-53.0537 356.604,-61.6651"/><polygon fill="#000" stroke="#000" points="353.109 -61.48 355.916 -71.697 360.092 -61.96 353.109 -61.48"/><g id="a_edge14-headlabel"><a target="_top" xlink:href="dir_000000_000034.xhtml" xlink:title="1"><text x="350.522" y="-55.2" font-family="Helvetica,sans-Serif" font-size="10" text-anchor="middle">1</text></a></g></g><g id="edge19" class="edge"><title>dir_896191444cf08ec8ade6f88256cb2bdd-&gt;dir_214608ef36d61442cb2b0c1c4e9a7def</title><path fill="none" stroke="#000" d="M29.9722,-143.998C34.4743,-123.592 45.0621,-89.892 68,-72 103.051,-44.6592 226.291,-29.6806 297.72,-23.1158"/><polygon fill="#000" stroke="#000" points="298.218 -26.585 307.866 -22.208 297.594 -19.613 298.218 -26.585"/><g id="a_edge19-headlabel"><a target="_top" xlink:href="dir_000151_000000.xhtml" xlink:title="10"><text x="294.89" y="-27.234" font-family="Helvetica,sans-Serif" font-size="10" text-anchor="middle">10</text></a></g></g></g></svg>