<svg xmlns="http://www.w3.org/2000/svg" xmlns:xlink="http://www.w3.org/1999/xlink" width="167pt" height="223pt" viewBox="0 0 167 223"><g id="graph0" class="graph" transform="scale(1 1) rotate(0) translate(4 219)"><title>tests/framework/command_line</title><polygon fill="#fff" stroke="none" points="-4 4 -4 -219 163 -219 163 4 -4 4"/><g id="clust1" class="cluster"><title>clusterdir_9e71e2da941d3cafc4d98a9f6ae3de4f</title><g id="a_clust1"><a target="_top" xlink:href="dir_9e71e2da941d3cafc4d98a9f6ae3de4f.xhtml" xlink:title="framework"><polygon fill="#dde" stroke="#000" points="47 -136 47 -207 151 -207 151 -136 47 -136"/><text x="99" y="-195" font-family="Helvetica,sans-Serif" font-size="10" text-anchor="middle">framework</text></a></g></g><g id="node1" class="node"><title>dir_d247c927d0dc22626cf668ab2bd7f080</title><g id="a_node1"><a target="_top" xlink:href="dir_d247c927d0dc22626cf668ab2bd7f080.xhtml" xlink:title="command_line"><polygon fill="#eef" stroke="#000" points="142.5 -180 55.5 -180 55.5 -144 142.5 -144 142.5 -180"/><text x="99" y="-159.5" font-family="Helvetica,sans-Serif" font-size="10" text-anchor="middle">command_line</text></a></g></g><g id="node2" class="node"><title>dir_68cb0bded1cc5601c88ddaacbb31e482</title><g id="a_node2"><a target="_top" xlink:href="dir_68cb0bded1cc5601c88ddaacbb31e482.xhtml" xlink:title="printers"><polygon fill="none" stroke="#000" points="54 -108 0 -108 0 -72 54 -72 54 -108"/><text x="27" y="-87.5" font-family="Helvetica,sans-Serif" font-size="10" text-anchor="middle">printers</text></a></g></g><g id="edge2" class="edge"><title>dir_d247c927d0dc22626cf668ab2bd7f080-&gt;dir_68cb0bded1cc5601c88ddaacbb31e482</title><path fill="none" stroke="#000" d="M81.2022,-143.697C72.396,-135.135 61.6179,-124.656 51.9989,-115.304"/><polygon fill="#000" stroke="#000" points="54.203 -112.566 44.593 -108.104 49.323 -117.585 54.203 -112.566"/><g id="a_edge2-headlabel"><a target="_top" xlink:href="dir_000154_000038.xhtml" xlink:title="1"><text x="58.759" y="-110.536" font-family="Helvetica,sans-Serif" font-size="10" text-anchor="middle">1</text></a></g></g><g id="node3" class="node"><title>dir_cbdb8362360e11eafe2fa3bc74cf0ffd</title><g id="a_node3"><a target="_top" xlink:href="dir_cbdb8362360e11eafe2fa3bc74cf0ffd.xhtml" xlink:title="utils"><polygon fill="#fff" stroke="red" points="126 -108 72 -108 72 -72 126 -72 126 -108"/><text x="99" y="-87.5" font-family="Helvetica,sans-Serif" font-size="10" text-anchor="middle">utils</text></a></g></g><g id="edge3" class="edge"><title>dir_d247c927d0dc22626cf668ab2bd7f080-&gt;dir_cbdb8362360e11eafe2fa3bc74cf0ffd</title><path fill="none" stroke="#000" d="M99,-143.697C99,-135.983 99,-126.712 99,-118.112"/><polygon fill="#000" stroke="#000" points="102.5 -118.104 99 -108.104 95.5 -118.104 102.5 -118.104"/><g id="a_edge3-headlabel"><a target="_top" xlink:href="dir_000154_000034.xhtml" xlink:title="2"><text x="105.339" y="-119.199" font-family="Helvetica,sans-Serif" font-size="10" text-anchor="middle">2</text></a></g></g><g id="node4" class="node"><title>dir_4efd0ee2ecda32567e74991b08d544ea</title><g id="a_node4"><a target="_top" xlink:href="dir_4efd0ee2ecda32567e74991b08d544ea.xhtml" xlink:title="instruments"><polygon fill="none" stroke="#000" points="127 -36 53 -36 53 0 127 0 127 -36"/><text x="90" y="-15.5" font-family="Helvetica,sans-Serif" font-size="10" text-anchor="middle">instruments</text></a></g></g><g id="edge4" class="edge"><title>dir_d247c927d0dc22626cf668ab2bd7f080-&gt;dir_4efd0ee2ecda32567e74991b08d544ea</title><path fill="none" stroke="#000" d="M114.61,-143.774C122.373,-134.03 130.946,-121.184 135,-108 139.703,-92.7067 140.516,-87.0191 135,-72 131.216,-61.6962 124.442,-52.0249 117.28,-43.837"/><polygon fill="#000" stroke="#000" points="119.769 -41.375 110.379 -36.469 114.66 -46.16 119.769 -41.375"/><g id="a_edge4-headlabel"><a target="_top" xlink:href="dir_000154_000156.xhtml" xlink:title="1"><text x="124.299" y="-39.558" font-family="Helvetica,sans-Serif" font-size="10" text-anchor="middle">1</text></a></g></g><g id="edge1" class="edge"><title>dir_68cb0bded1cc5601c88ddaacbb31e482-&gt;dir_4efd0ee2ecda32567e74991b08d544ea</title><path fill="none" stroke="#000" d="M42.573,-71.6966C50.2022,-63.2198 59.5228,-52.8636 67.8757,-43.5826"/><polygon fill="#000" stroke="#000" points="70.518 -45.879 74.606 -36.104 65.315 -41.196 70.518 -45.879"/><g id="a_edge1-headlabel"><a target="_top" xlink:href="dir_000038_000156.xhtml" xlink:title="3"><text x="70.224" y="-47.95" font-family="Helvetica,sans-Serif" font-size="10" text-anchor="middle">3</text></a></g></g></g></svg>