<svg xmlns="http://www.w3.org/2000/svg" xmlns:xlink="http://www.w3.org/1999/xlink" width="140" height="223pt" viewBox="0 0 105 223"><g id="graph0" class="graph" transform="scale(1 1) rotate(0) translate(4 219)"><title>arm_compute/graph/backends/GLES</title><polygon fill="#fff" stroke="none" points="-4 4 -4 -219 101 -219 101 4 -4 4"/><g id="clust1" class="cluster"><title>clusterdir_59b2231210c554f4cc243709030bf1f8</title><g id="a_clust1"><a target="_top" xlink:href="dir_59b2231210c554f4cc243709030bf1f8.xhtml" xlink:title="backends"><polygon fill="#dde" stroke="#000" points="19 -136 19 -207 89 -207 89 -136 19 -136"/><text x="54" y="-195" font-family="Helvetica,sans-Serif" font-size="10" text-anchor="middle">backends</text></a></g></g><g id="node1" class="node"><title>dir_154b7715c8b805d6c07751152e8bda26</title><g id="a_node1"><a target="_top" xlink:href="dir_154b7715c8b805d6c07751152e8bda26.xhtml" xlink:title="GLES"><polygon fill="#eef" stroke="#000" points="81 -180 27 -180 27 -144 81 -144 81 -180"/><text x="54" y="-159.5" font-family="Helvetica,sans-Serif" font-size="10" text-anchor="middle">GLES</text></a></g></g><g id="node2" class="node"><title>dir_8bc26130589aa16388b5a02f17abf2c2</title><g id="a_node2"><a target="_top" xlink:href="dir_8bc26130589aa16388b5a02f17abf2c2.xhtml" xlink:title="runtime"><polygon fill="#fff" stroke="red" points="54 -108 0 -108 0 -72 54 -72 54 -108"/><text x="27" y="-87.5" font-family="Helvetica,sans-Serif" font-size="10" text-anchor="middle">runtime</text></a></g></g><g id="edge3" class="edge"><title>dir_154b7715c8b805d6c07751152e8bda26-&gt;dir_8bc26130589aa16388b5a02f17abf2c2</title><path fill="none" stroke="#000" d="M47.3258,-143.697C44.2851,-135.813 40.6173,-126.304 37.2393,-117.546"/><polygon fill="#000" stroke="#000" points="40.462 -116.175 33.597 -108.104 33.931 -118.694 40.462 -116.175"/><g id="a_edge3-headlabel"><a target="_top" xlink:href="dir_000042_000003.xhtml" xlink:title="3"><text x="44.404" y="-116.007" font-family="Helvetica,sans-Serif" font-size="10" text-anchor="middle">3</text></a></g></g><g id="node3" class="node"><title>dir_1fb090f0c6070330bfaccc4236d3ca0d</title><g id="a_node3"><a target="_top" xlink:href="dir_1fb090f0c6070330bfaccc4236d3ca0d.xhtml" xlink:title="core"><polygon fill="#fff" stroke="red" points="54 -36 0 -36 0 0 54 0 54 -36"/><text x="27" y="-15.5" font-family="Helvetica,sans-Serif" font-size="10" text-anchor="middle">core</text></a></g></g><g id="edge4" class="edge"><title>dir_154b7715c8b805d6c07751152e8bda26-&gt;dir_1fb090f0c6070330bfaccc4236d3ca0d</title><path fill="none" stroke="#000" d="M59.6461,-143.877C64.7573,-125.661 70.4405,-96.196 63,-72 59.9911,-62.2153 54.493,-52.6161 48.6843,-44.3336"/><polygon fill="#000" stroke="#000" points="51.407 -42.131 42.61 -36.226 45.805 -46.328 51.407 -42.131"/><g id="a_edge4-headlabel"><a target="_top" xlink:href="dir_000042_000001.xhtml" xlink:title="1"><text x="55.835" y="-40.805" font-family="Helvetica,sans-Serif" font-size="10" text-anchor="middle">1</text></a></g></g><g id="edge1" class="edge"><title>dir_8bc26130589aa16388b5a02f17abf2c2-&gt;dir_1fb090f0c6070330bfaccc4236d3ca0d</title><path fill="none" stroke="#000" d="M21.0843,-71.6966C20.2886,-63.9827 20.0621,-54.7125 20.4047,-46.1124"/><polygon fill="#000" stroke="#000" points="23.898 -46.324 21.105 -36.104 16.915 -45.836 23.898 -46.324"/><g id="a_edge1-headlabel"><a target="_top" xlink:href="dir_000003_000001.xhtml" xlink:title="582"><text x="26.48" y="-47.608" font-family="Helvetica,sans-Serif" font-size="10" text-anchor="middle">582</text></a></g></g><g id="edge2" class="edge"><title>dir_1fb090f0c6070330bfaccc4236d3ca0d-&gt;dir_8bc26130589aa16388b5a02f17abf2c2</title><path fill="none" stroke="#000" d="M32.895,-36.1043C33.7005,-43.7913 33.9369,-53.0537 33.604,-61.6651"/><polygon fill="#000" stroke="#000" points="30.108 -61.48 32.916 -71.697 37.092 -61.96 30.108 -61.48"/><g id="a_edge2-headlabel"><a target="_top" xlink:href="dir_000001_000003.xhtml" xlink:title="1"><text x="27.522" y="-55.2" font-family="Helvetica,sans-Serif" font-size="10" text-anchor="middle">1</text></a></g></g></g></svg>