<svg xmlns="http://www.w3.org/2000/svg" xmlns:xlink="http://www.w3.org/1999/xlink" width="134pt" height="151pt" viewBox="0 0 134 151"><g id="graph0" class="graph" transform="scale(1 1) rotate(0) translate(4 147)"><title>arm_compute/core/utils/logging</title><polygon fill="#fff" stroke="none" points="-4 4 -4 -147 130 -147 130 4 -4 4"/><g id="clust1" class="cluster"><title>clusterdir_7b0825b7536eda12b63e5d87347b1c7d</title><g id="a_clust1"><a target="_top" xlink:href="dir_7b0825b7536eda12b63e5d87347b1c7d.xhtml" xlink:title="utils"><polygon fill="#dde" stroke="#000" points="28 -64 28 -135 98 -135 98 -64 28 -64"/><text x="63" y="-123" font-family="Helvetica,sans-Serif" font-size="10" text-anchor="middle">utils</text></a></g></g><g id="node1" class="node"><title>dir_e575b855d3e83e3374bc2a6f9bf89d98</title><g id="a_node1"><a target="_top" xlink:href="dir_e575b855d3e83e3374bc2a6f9bf89d98.xhtml" xlink:title="logging"><polygon fill="#eef" stroke="#000" points="90 -108 36 -108 36 -72 90 -72 90 -108"/><text x="63" y="-87.5" font-family="Helvetica,sans-Serif" font-size="10" text-anchor="middle">logging</text></a></g></g><g id="node2" class="node"><title>dir_4165fcd8206cc52fde421ae1f1275b40</title><g id="a_node2"><a target="_top" xlink:href="dir_4165fcd8206cc52fde421ae1f1275b40.xhtml" xlink:title="io"><polygon fill="none" stroke="#000" points="54 -36 0 -36 0 0 54 0 54 -36"/><text x="27" y="-15.5" font-family="Helvetica,sans-Serif" font-size="10" text-anchor="middle">io</text></a></g></g><g id="edge1" class="edge"><title>dir_e575b855d3e83e3374bc2a6f9bf89d98-&gt;dir_4165fcd8206cc52fde421ae1f1275b40</title><path fill="none" stroke="#000" d="M54.1011,-71.6966C50.0032,-63.7284 45.0512,-54.0995 40.5073,-45.2641"/><polygon fill="#000" stroke="#000" points="43.483 -43.397 35.797 -36.104 37.258 -46.598 43.483 -43.397"/><g id="a_edge1-headlabel"><a target="_top" xlink:href="dir_000015_000036.xhtml" xlink:title="1"><text x="47.651" y="-42.795" font-family="Helvetica,sans-Serif" font-size="10" text-anchor="middle">1</text></a></g></g><g id="node3" class="node"><title>dir_5815af820a9cc9481f1d0990a0d60286</title><g id="a_node3"><a target="_top" xlink:href="dir_5815af820a9cc9481f1d0990a0d60286.xhtml" xlink:title="support"><polygon fill="none" stroke="#000" points="126 -36 72 -36 72 0 126 0 126 -36"/><text x="99" y="-15.5" font-family="Helvetica,sans-Serif" font-size="10" text-anchor="middle">support</text></a></g></g><g id="edge2" class="edge"><title>dir_e575b855d3e83e3374bc2a6f9bf89d98-&gt;dir_5815af820a9cc9481f1d0990a0d60286</title><path fill="none" stroke="#000" d="M71.8989,-71.6966C75.9968,-63.7284 80.9488,-54.0995 85.4927,-45.2641"/><polygon fill="#000" stroke="#000" points="88.743 -46.598 90.204 -36.104 82.517 -43.397 88.743 -46.598"/><g id="a_edge2-headlabel"><a target="_top" xlink:href="dir_000015_000150.xhtml" xlink:title="3"><text x="89.624" y="-48.593" font-family="Helvetica,sans-Serif" font-size="10" text-anchor="middle">3</text></a></g></g></g></svg>