<svg xmlns="http://www.w3.org/2000/svg" xmlns:xlink="http://www.w3.org/1999/xlink" width="647pt" height="308" viewBox="0 0 647 231"><g id="graph0" class="graph" transform="scale(1 1) rotate(0) translate(4 227)"><title>src/graph</title><polygon fill="#fff" stroke="none" points="-4 4 -4 -227 643 -227 643 4 -4 4"/><g id="clust1" class="cluster"><title>clusterdir_68267d1309a1af8e8297ef4c3efbcdba</title><g id="a_clust1"><a target="_top" xlink:href="dir_68267d1309a1af8e8297ef4c3efbcdba.xhtml" xlink:title="src"><polygon fill="#dde" stroke="#000" points="8 -128 8 -215 631 -215 631 -128 8 -128"/><text x="319.5" y="-203" font-family="Helvetica,sans-Serif" font-size="10" text-anchor="middle">src</text></a></g></g><g id="clust2" class="cluster"><title>clusterdir_d182250f0c231765fc862e69db210731</title><g id="a_clust2"><a target="_top" xlink:href="dir_d182250f0c231765fc862e69db210731.xhtml"><polygon fill="#eef" stroke="#000" points="16 -136 16 -188 623 -188 623 -136 16 -136"/></a></g></g><g id="node1" class="node"><title>dir_d182250f0c231765fc862e69db210731</title><text x="588" y="-159.5" font-family="Helvetica,sans-Serif" font-size="10" text-anchor="middle">graph</text></g><g id="node2" class="node"><title>dir_5cd7c6994c9c36b087490b290382772a</title><g id="a_node2"><a target="_top" xlink:href="dir_5cd7c6994c9c36b087490b290382772a.xhtml" xlink:title="algorithms"><polygon fill="#fff" stroke="#000" points="391 -180 323 -180 323 -144 391 -144 391 -180"/><text x="357" y="-159.5" font-family="Helvetica,sans-Serif" font-size="10" text-anchor="middle">algorithms</text></a></g></g><g id="node9" class="node"><title>dir_214608ef36d61442cb2b0c1c4e9a7def</title><g id="a_node9"><a target="_top" xlink:href="dir_214608ef36d61442cb2b0c1c4e9a7def.xhtml" xlink:title="arm_compute"><polygon fill="#fff" stroke="red" points="359 -108 275 -108 275 -72 359 -72 359 -108"/><text x="317" y="-87.5" font-family="Helvetica,sans-Serif" font-size="10" text-anchor="middle">arm_compute</text></a></g></g><g id="edge2" class="edge"><title>dir_5cd7c6994c9c36b087490b290382772a-&gt;dir_214608ef36d61442cb2b0c1c4e9a7def</title><path fill="none" stroke="#000" d="M347.112,-143.697C342.511,-135.644 336.94,-125.894 331.847,-116.982"/><polygon fill="#000" stroke="#000" points="334.774 -115.05 326.774 -108.104 328.696 -118.523 334.774 -115.05"/><g id="a_edge2-headlabel"><a target="_top" xlink:href="dir_000126_000000.xhtml" xlink:title="3"><text x="339.023" y="-114.263" font-family="Helvetica,sans-Serif" font-size="10" text-anchor="middle">3</text></a></g></g><g id="node3" class="node"><title>dir_39e772dac1f6529f21fb52deefa146ea</title><g id="a_node3"><a target="_top" xlink:href="dir_39e772dac1f6529f21fb52deefa146ea.xhtml" xlink:title="backends"><polygon fill="#fff" stroke="red" points="543 -180 481 -180 481 -144 543 -144 543 -180"/><text x="512" y="-159.5" font-family="Helvetica,sans-Serif" font-size="10" text-anchor="middle">backends</text></a></g></g><g id="edge4" class="edge"><title>dir_39e772dac1f6529f21fb52deefa146ea-&gt;dir_214608ef36d61442cb2b0c1c4e9a7def</title><path fill="none" stroke="#000" d="M494.914,-143.986C488.24,-138.164 480.22,-132.094 472,-128 439.85,-111.988 400.445,-102.701 369.413,-97.4357"/><polygon fill="#000" stroke="#000" points="369.661 -93.931 359.232 -95.8 368.551 -100.842 369.661 -93.931"/><g id="a_edge4-headlabel"><a target="_top" xlink:href="dir_000127_000000.xhtml" xlink:title="106"><text x="373.66" y="-89.198" font-family="Helvetica,sans-Serif" font-size="10" text-anchor="middle">106</text></a></g></g><g id="node10" class="node"><title>dir_5815af820a9cc9481f1d0990a0d60286</title><g id="a_node10"><a target="_top" xlink:href="dir_5815af820a9cc9481f1d0990a0d60286.xhtml" xlink:title="support"><polygon fill="none" stroke="#000" points="420 -36 366 -36 366 0 420 0 420 -36"/><text x="393" y="-15.5" font-family="Helvetica,sans-Serif" font-size="10" text-anchor="middle">support</text></a></g></g><g id="edge5" class="edge"><title>dir_39e772dac1f6529f21fb52deefa146ea-&gt;dir_5815af820a9cc9481f1d0990a0d60286</title><path fill="none" stroke="#000" d="M497.646,-143.871C476.828,-119.031 438.125,-72.8464 414.069,-44.1415"/><polygon fill="#000" stroke="#000" points="416.511 -41.606 407.405 -36.189 411.146 -46.102 416.511 -41.606"/><g id="a_edge5-headlabel"><a target="_top" xlink:href="dir_000127_000150.xhtml" xlink:title="4"><text x="420.996" y="-40.037" font-family="Helvetica,sans-Serif" font-size="10" text-anchor="middle">4</text></a></g></g><g id="node4" class="node"><title>dir_860cb336d74994b1303832ed3557228e</title><g id="a_node4"><a target="_top" xlink:href="dir_860cb336d74994b1303832ed3557228e.xhtml" xlink:title="detail"><polygon fill="#fff" stroke="#000" points="233 -180 179 -180 179 -144 233 -144 233 -180"/><text x="206" y="-159.5" font-family="Helvetica,sans-Serif" font-size="10" text-anchor="middle">detail</text></a></g></g><g id="edge8" class="edge"><title>dir_860cb336d74994b1303832ed3557228e-&gt;dir_214608ef36d61442cb2b0c1c4e9a7def</title><path fill="none" stroke="#000" d="M222.738,-143.828C228.541,-138.386 235.283,-132.597 242,-128 250.004,-122.523 258.937,-117.385 267.769,-112.782"/><polygon fill="#000" stroke="#000" points="269.537 -115.811 276.894 -108.187 266.389 -109.559 269.537 -115.811"/><g id="a_edge8-headlabel"><a target="_top" xlink:href="dir_000131_000000.xhtml" xlink:title="16"><text x="267.603" y="-117.463" font-family="Helvetica,sans-Serif" font-size="10" text-anchor="middle">16</text></a></g></g><g id="node5" class="node"><title>dir_330aa6f4e434724354905027707c791c</title><g id="a_node5"><a target="_top" xlink:href="dir_330aa6f4e434724354905027707c791c.xhtml" xlink:title="frontend"><polygon fill="#fff" stroke="#000" points="160.5 -180 103.5 -180 103.5 -144 160.5 -144 160.5 -180"/><text x="132" y="-159.5" font-family="Helvetica,sans-Serif" font-size="10" text-anchor="middle">frontend</text></a></g></g><g id="edge7" class="edge"><title>dir_330aa6f4e434724354905027707c791c-&gt;dir_214608ef36d61442cb2b0c1c4e9a7def</title><path fill="none" stroke="#000" d="M148.505,-143.674C154.76,-137.961 162.253,-132.041 170,-128 199.534,-112.593 235.799,-103.376 264.919,-97.995"/><polygon fill="#000" stroke="#000" points="265.652 -101.42 274.899 -96.248 264.445 -94.525 265.652 -101.42"/><g id="a_edge7-headlabel"><a target="_top" xlink:href="dir_000132_000000.xhtml" xlink:title="6"><text x="262.601" y="-102.337" font-family="Helvetica,sans-Serif" font-size="10" text-anchor="middle">6</text></a></g></g><g id="node6" class="node"><title>dir_1b9e532a4c8623825d945e964c6e4c7f</title><g id="a_node6"><a target="_top" xlink:href="dir_1b9e532a4c8623825d945e964c6e4c7f.xhtml" xlink:title="mutators"><polygon fill="#fff" stroke="#000" points="85.5 -180 24.5 -180 24.5 -144 85.5 -144 85.5 -180"/><text x="55" y="-159.5" font-family="Helvetica,sans-Serif" font-size="10" text-anchor="middle">mutators</text></a></g></g><g id="edge9" class="edge"><title>dir_1b9e532a4c8623825d945e964c6e4c7f-&gt;dir_214608ef36d61442cb2b0c1c4e9a7def</title><path fill="none" stroke="#000" d="M71.4459,-143.666C77.9302,-137.809 85.7894,-131.799 94,-128 148.636,-102.722 217.864,-94.4524 264.58,-91.8845"/><polygon fill="#000" stroke="#000" points="264.956 -95.371 274.777 -91.395 264.62 -88.379 264.956 -95.371"/><g id="a_edge9-headlabel"><a target="_top" xlink:href="dir_000133_000000.xhtml" xlink:title="44"><text x="261.502" y="-95.879" font-family="Helvetica,sans-Serif" font-size="10" text-anchor="middle">44</text></a></g></g><g id="node7" class="node"><title>dir_b522e8895b1a2b097ec0514a9a6c1549</title><g id="a_node7"><a target="_top" xlink:href="dir_b522e8895b1a2b097ec0514a9a6c1549.xhtml" xlink:title="nodes"><polygon fill="#fff" stroke="#000" points="463 -180 409 -180 409 -144 463 -144 463 -180"/><text x="436" y="-159.5" font-family="Helvetica,sans-Serif" font-size="10" text-anchor="middle">nodes</text></a></g></g><g id="edge1" class="edge"><title>dir_b522e8895b1a2b097ec0514a9a6c1549-&gt;dir_214608ef36d61442cb2b0c1c4e9a7def</title><path fill="none" stroke="#000" d="M419.366,-143.674C413.569,-138.222 406.805,-132.465 400,-128 390.308,-121.641 379.342,-115.884 368.631,-110.908"/><polygon fill="#000" stroke="#000" points="369.881 -107.633 359.324 -106.74 367.02 -114.021 369.881 -107.633"/><g id="a_edge1-headlabel"><a target="_top" xlink:href="dir_000134_000000.xhtml" xlink:title="157"><text x="374.322" y="-104.01" font-family="Helvetica,sans-Serif" font-size="10" text-anchor="middle">157</text></a></g></g><g id="node8" class="node"><title>dir_a3a3362c7065796fe64974622266bfb7</title><g id="a_node8"><a target="_top" xlink:href="dir_a3a3362c7065796fe64974622266bfb7.xhtml" xlink:title="printers"><polygon fill="#fff" stroke="#000" points="305 -180 251 -180 251 -144 305 -144 305 -180"/><text x="278" y="-159.5" font-family="Helvetica,sans-Serif" font-size="10" text-anchor="middle">printers</text></a></g></g><g id="edge6" class="edge"><title>dir_a3a3362c7065796fe64974622266bfb7-&gt;dir_214608ef36d61442cb2b0c1c4e9a7def</title><path fill="none" stroke="#000" d="M287.64,-143.697C292.127,-135.644 297.559,-125.894 302.524,-116.982"/><polygon fill="#000" stroke="#000" points="305.661 -118.544 307.47 -108.104 299.546 -115.137 305.661 -118.544"/><g id="a_edge6-headlabel"><a target="_top" xlink:href="dir_000137_000000.xhtml" xlink:title="6"><text x="306.392" y="-120.565" font-family="Helvetica,sans-Serif" font-size="10" text-anchor="middle">6</text></a></g></g><g id="edge3" class="edge"><title>dir_214608ef36d61442cb2b0c1c4e9a7def-&gt;dir_5815af820a9cc9481f1d0990a0d60286</title><path fill="none" stroke="#000" d="M335.787,-71.6966C345.174,-63.0503 356.684,-52.4486 366.913,-43.027"/><polygon fill="#000" stroke="#000" points="369.445 -45.453 374.43 -36.104 364.703 -40.305 369.445 -45.453"/><g id="a_edge3-headlabel"><a target="_top" xlink:href="dir_000000_000150.xhtml" xlink:title="22"><text x="368.725" y="-47.477" font-family="Helvetica,sans-Serif" font-size="10" text-anchor="middle">22</text></a></g></g></g></svg>