<svg xmlns="http://www.w3.org/2000/svg" xmlns:xlink="http://www.w3.org/1999/xlink" width="196pt" height="295pt" viewBox="0 0 196.11 295"><g id="graph0" class="graph" transform="scale(1 1) rotate(0) translate(4 291)"><title>tests/validation/CPP</title><polygon fill="#fff" stroke="none" points="-4 4 -4 -291 192.112 -291 192.112 4 -4 4"/><g id="clust1" class="cluster"><title>clusterdir_e7c7b16542faa38cb4655ff1750d3604</title><g id="a_clust1"><a target="_top" xlink:href="dir_e7c7b16542faa38cb4655ff1750d3604.xhtml" xlink:title="validation"><polygon fill="#dde" stroke="#000" points="82 -208 82 -279 152 -279 152 -208 82 -208"/><text x="117" y="-267" font-family="Helvetica,sans-Serif" font-size="10" text-anchor="middle">validation</text></a></g></g><g id="node1" class="node"><title>dir_420d2db1b9c99f59825a3985434c3703</title><g id="a_node1"><a target="_top" xlink:href="dir_420d2db1b9c99f59825a3985434c3703.xhtml" xlink:title="CPP"><polygon fill="#eef" stroke="#000" points="144 -252 90 -252 90 -216 144 -216 144 -252"/><text x="117" y="-231.5" font-family="Helvetica,sans-Serif" font-size="10" text-anchor="middle">CPP</text></a></g></g><g id="node2" class="node"><title>dir_46fdb196cebdbffe77dac340cde62f29</title><g id="a_node2"><a target="_top" xlink:href="dir_46fdb196cebdbffe77dac340cde62f29.xhtml" xlink:title="reference"><polygon fill="none" stroke="#000" points="62 -180 0 -180 0 -144 62 -144 62 -180"/><text x="31" y="-159.5" font-family="Helvetica,sans-Serif" font-size="10" text-anchor="middle">reference</text></a></g></g><g id="edge5" class="edge"><title>dir_420d2db1b9c99f59825a3985434c3703-&gt;dir_46fdb196cebdbffe77dac340cde62f29</title><path fill="none" stroke="#000" d="M95.7416,-215.697C84.9106,-206.881 71.5822,-196.032 59.8398,-186.474"/><polygon fill="#000" stroke="#000" points="61.979 -183.703 52.014 -180.104 57.56 -189.132 61.979 -183.703"/><g id="a_edge5-headlabel"><a target="_top" xlink:href="dir_000157_000033.xhtml" xlink:title="2"><text x="66.559" y="-181.27" font-family="Helvetica,sans-Serif" font-size="10" text-anchor="middle">2</text></a></g></g><g id="node3" class="node"><title>dir_445738e6fed662d0b65e690e3f1e1de0</title><g id="a_node3"><a target="_top" xlink:href="dir_445738e6fed662d0b65e690e3f1e1de0.xhtml" xlink:title="NEON"><polygon fill="none" stroke="#000" points="172 -180 118 -180 118 -144 172 -144 172 -180"/><text x="145" y="-159.5" font-family="Helvetica,sans-Serif" font-size="10" text-anchor="middle">NEON</text></a></g></g><g id="edge6" class="edge"><title>dir_420d2db1b9c99f59825a3985434c3703-&gt;dir_445738e6fed662d0b65e690e3f1e1de0</title><path fill="none" stroke="#000" d="M123.921,-215.697C127.075,-207.813 130.878,-198.304 134.381,-189.546"/><polygon fill="#000" stroke="#000" points="137.694 -190.689 138.158 -180.104 131.195 -188.089 137.694 -190.689"/><g id="a_edge6-headlabel"><a target="_top" xlink:href="dir_000157_000153.xhtml" xlink:title="4"><text x="138.995" y="-192.581" font-family="Helvetica,sans-Serif" font-size="10" text-anchor="middle">4</text></a></g></g><g id="node4" class="node"><title>dir_9e71e2da941d3cafc4d98a9f6ae3de4f</title><g id="a_node4"><a target="_top" xlink:href="dir_9e71e2da941d3cafc4d98a9f6ae3de4f.xhtml" xlink:title="framework"><polygon fill="#fff" stroke="red" points="123.5 -108 56.5 -108 56.5 -72 123.5 -72 123.5 -108"/><text x="90" y="-87.5" font-family="Helvetica,sans-Serif" font-size="10" text-anchor="middle">framework</text></a></g></g><g id="edge7" class="edge"><title>dir_420d2db1b9c99f59825a3985434c3703-&gt;dir_9e71e2da941d3cafc4d98a9f6ae3de4f</title><path fill="none" stroke="#000" d="M113.743,-215.871C109.142,-191.67 100.688,-147.211 95.2086,-118.393"/><polygon fill="#000" stroke="#000" points="98.575 -117.359 93.268 -108.189 91.698 -118.667 98.575 -117.359"/><g id="a_edge7-headlabel"><a target="_top" xlink:href="dir_000157_000032.xhtml" xlink:title="15"><text x="102.035" y="-117.86" font-family="Helvetica,sans-Serif" font-size="10" text-anchor="middle">15</text></a></g></g><g id="node5" class="node"><title>dir_214608ef36d61442cb2b0c1c4e9a7def</title><g id="a_node5"><a target="_top" xlink:href="dir_214608ef36d61442cb2b0c1c4e9a7def.xhtml" xlink:title="arm_compute"><polygon fill="#fff" stroke="red" points="163 -36 79 -36 79 0 163 0 163 -36"/><text x="121" y="-15.5" font-family="Helvetica,sans-Serif" font-size="10" text-anchor="middle">arm_compute</text></a></g></g><g id="edge8" class="edge"><title>dir_420d2db1b9c99f59825a3985434c3703-&gt;dir_214608ef36d61442cb2b0c1c4e9a7def</title><path fill="none" stroke="#000" d="M144.096,-218.388C157.887,-209.337 173.326,-196.319 181,-180 202.907,-133.415 168.01,-76.4716 142.94,-44.3066"/><polygon fill="#000" stroke="#000" points="145.497 -41.901 136.503 -36.302 140.043 -46.288 145.497 -41.901"/><g id="a_edge8-headlabel"><a target="_top" xlink:href="dir_000157_000000.xhtml" xlink:title="18"><text x="149.963" y="-40.423" font-family="Helvetica,sans-Serif" font-size="10" text-anchor="middle">18</text></a></g></g><g id="edge1" class="edge"><title>dir_46fdb196cebdbffe77dac340cde62f29-&gt;dir_9e71e2da941d3cafc4d98a9f6ae3de4f</title><path fill="none" stroke="#000" d="M45.5843,-143.697C52.6576,-135.305 61.2834,-125.07 69.0454,-115.861"/><polygon fill="#000" stroke="#000" points="71.815 -118.006 75.584 -108.104 66.463 -113.495 71.815 -118.006"/><g id="a_edge1-headlabel"><a target="_top" xlink:href="dir_000033_000032.xhtml" xlink:title="3"><text x="71.669" y="-120.085" font-family="Helvetica,sans-Serif" font-size="10" text-anchor="middle">3</text></a></g></g><g id="edge2" class="edge"><title>dir_46fdb196cebdbffe77dac340cde62f29-&gt;dir_214608ef36d61442cb2b0c1c4e9a7def</title><path fill="none" stroke="#000" d="M30.3801,-143.903C30.4837,-124.912 33.0782,-94.0303 47,-72 54.6761,-59.8531 66.2353,-49.6485 77.9505,-41.539"/><polygon fill="#000" stroke="#000" points="79.981 -44.393 86.455 -36.007 76.164 -38.526 79.981 -44.393"/><g id="a_edge2-headlabel"><a target="_top" xlink:href="dir_000033_000000.xhtml" xlink:title="86"><text x="78.516" y="-46.233" font-family="Helvetica,sans-Serif" font-size="10" text-anchor="middle">86</text></a></g></g><g id="edge3" class="edge"><title>dir_445738e6fed662d0b65e690e3f1e1de0-&gt;dir_214608ef36d61442cb2b0c1c4e9a7def</title><path fill="none" stroke="#000" d="M142.809,-143.89C140.437,-125.934 136.4,-96.9112 132,-72 130.506,-63.5411 128.676,-54.3659 126.941,-46.0643"/><polygon fill="#000" stroke="#000" points="130.333 -45.187 124.827 -36.136 123.487 -46.646 130.333 -45.187"/><g id="a_edge3-headlabel"><a target="_top" xlink:href="dir_000153_000000.xhtml" xlink:title="6"><text x="133.859" y="-45.612" font-family="Helvetica,sans-Serif" font-size="10" text-anchor="middle">6</text></a></g></g><g id="edge4" class="edge"><title>dir_9e71e2da941d3cafc4d98a9f6ae3de4f-&gt;dir_214608ef36d61442cb2b0c1c4e9a7def</title><path fill="none" stroke="#000" d="M97.6629,-71.6966C101.192,-63.7284 105.456,-54.0995 109.369,-45.2641"/><polygon fill="#000" stroke="#000" points="112.576 -46.665 113.425 -36.104 106.176 -43.831 112.576 -46.665"/><g id="a_edge4-headlabel"><a target="_top" xlink:href="dir_000032_000000.xhtml" xlink:title="14"><text x="113.717" y="-48.602" font-family="Helvetica,sans-Serif" font-size="10" text-anchor="middle">14</text></a></g></g></g></svg>