<svg xmlns="http://www.w3.org/2000/svg" xmlns:xlink="http://www.w3.org/1999/xlink" width="144" height="151pt" viewBox="0 0 108 151"><g id="graph0" class="graph" transform="scale(1 1) rotate(0) translate(4 147)"><title>src/graph/algorithms</title><polygon fill="#fff" stroke="none" points="-4 4 -4 -147 104 -147 104 4 -4 4"/><g id="clust1" class="cluster"><title>clusterdir_d182250f0c231765fc862e69db210731</title><g id="a_clust1"><a target="_top" xlink:href="dir_d182250f0c231765fc862e69db210731.xhtml" xlink:title="graph"><polygon fill="#dde" stroke="#000" points="8 -64 8 -135 92 -135 92 -64 8 -64"/><text x="50" y="-123" font-family="Helvetica,sans-Serif" font-size="10" text-anchor="middle">graph</text></a></g></g><g id="node1" class="node"><title>dir_5cd7c6994c9c36b087490b290382772a</title><g id="a_node1"><a target="_top" xlink:href="dir_5cd7c6994c9c36b087490b290382772a.xhtml" xlink:title="algorithms"><polygon fill="#eef" stroke="#000" points="84 -108 16 -108 16 -72 84 -72 84 -108"/><text x="50" y="-87.5" font-family="Helvetica,sans-Serif" font-size="10" text-anchor="middle">algorithms</text></a></g></g><g id="node2" class="node"><title>dir_214608ef36d61442cb2b0c1c4e9a7def</title><g id="a_node2"><a target="_top" xlink:href="dir_214608ef36d61442cb2b0c1c4e9a7def.xhtml" xlink:title="arm_compute"><polygon fill="#fff" stroke="red" points="92 -36 8 -36 8 0 92 0 92 -36"/><text x="50" y="-15.5" font-family="Helvetica,sans-Serif" font-size="10" text-anchor="middle">arm_compute</text></a></g></g><g id="edge1" class="edge"><title>dir_5cd7c6994c9c36b087490b290382772a-&gt;dir_214608ef36d61442cb2b0c1c4e9a7def</title><path fill="none" stroke="#000" d="M50,-71.6966C50,-63.9827 50,-54.7125 50,-46.1124"/><polygon fill="#000" stroke="#000" points="53.5 -46.104 50 -36.104 46.5 -46.104 53.5 -46.104"/><g id="a_edge1-headlabel"><a target="_top" xlink:href="dir_000126_000000.xhtml" xlink:title="3"><text x="56.339" y="-47.199" font-family="Helvetica,sans-Serif" font-size="10" text-anchor="middle">3</text></a></g></g></g></svg>