<svg xmlns="http://www.w3.org/2000/svg" xmlns:xlink="http://www.w3.org/1999/xlink" width="328" height="308" viewBox="0 0 245.5 231"><g id="graph0" class="graph" transform="scale(1 1) rotate(0) translate(4 227)"><title>arm_compute/core/NEON/kernels</title><polygon fill="#fff" stroke="none" points="-4 4 -4 -227 241.5 -227 241.5 4 -4 4"/><g id="clust1" class="cluster"><title>clusterdir_315f6cf1ec0b2df3ae747ff8286a19f5</title><g id="a_clust1"><a target="_top" xlink:href="dir_315f6cf1ec0b2df3ae747ff8286a19f5.xhtml" xlink:title="NEON"><polygon fill="#dde" stroke="#000" points="66 -128 66 -215 224 -215 224 -128 66 -128"/><text x="145" y="-203" font-family="Helvetica,sans-Serif" font-size="10" text-anchor="middle">NEON</text></a></g></g><g id="clust2" class="cluster"><title>clusterdir_2c3c4cb85e732569e2614ad40a451d53</title><g id="a_clust2"><a target="_top" xlink:href="dir_2c3c4cb85e732569e2614ad40a451d53.xhtml"><polygon fill="#eef" stroke="#000" points="74 -136 74 -188 216 -188 216 -136 74 -136"/></a></g></g><g id="node1" class="node"><title>dir_2c3c4cb85e732569e2614ad40a451d53</title><text x="109" y="-159.5" font-family="Helvetica,sans-Serif" font-size="10" text-anchor="middle">kernels</text></g><g id="node3" class="node"><title>dir_7b0825b7536eda12b63e5d87347b1c7d</title><g id="a_node3"><a target="_top" xlink:href="dir_7b0825b7536eda12b63e5d87347b1c7d.xhtml" xlink:title="utils"><polygon fill="#fff" stroke="red" points="54 -108 0 -108 0 -72 54 -72 54 -108"/><text x="27" y="-87.5" font-family="Helvetica,sans-Serif" font-size="10" text-anchor="middle">utils</text></a></g></g><g id="edge2" class="edge"><title>dir_2c3c4cb85e732569e2614ad40a451d53-&gt;dir_7b0825b7536eda12b63e5d87347b1c7d</title><path fill="none" stroke="#000" d="M88.7303,-143.697C78.5024,-134.965 65.9389,-124.24 54.8218,-114.75"/><polygon fill="#000" stroke="#000" points="56.915 -111.935 47.036 -108.104 52.37 -117.259 56.915 -111.935"/><g id="a_edge2-headlabel"><a target="_top" xlink:href="dir_000025_000014.xhtml" xlink:title="1"><text x="61.492" y="-109.609" font-family="Helvetica,sans-Serif" font-size="10" text-anchor="middle">1</text></a></g></g><g id="node4" class="node"><title>dir_5815af820a9cc9481f1d0990a0d60286</title><g id="a_node4"><a target="_top" xlink:href="dir_5815af820a9cc9481f1d0990a0d60286.xhtml" xlink:title="support"><polygon fill="none" stroke="#000" points="109 -36 55 -36 55 0 109 0 109 -36"/><text x="82" y="-15.5" font-family="Helvetica,sans-Serif" font-size="10" text-anchor="middle">support</text></a></g></g><g id="edge3" class="edge"><title>dir_2c3c4cb85e732569e2614ad40a451d53-&gt;dir_5815af820a9cc9481f1d0990a0d60286</title><path fill="none" stroke="#000" d="M105.743,-143.871C101.142,-119.67 92.688,-75.2108 87.2086,-46.3932"/><polygon fill="#000" stroke="#000" points="90.575 -45.359 85.268 -36.189 83.698 -46.667 90.575 -45.359"/><g id="a_edge3-headlabel"><a target="_top" xlink:href="dir_000025_000150.xhtml" xlink:title="5"><text x="94.035" y="-45.861" font-family="Helvetica,sans-Serif" font-size="10" text-anchor="middle">5</text></a></g></g><g id="node5" class="node"><title>dir_7484b841a86f2d7fdd057c9b24fbf230</title><g id="a_node5"><a target="_top" xlink:href="dir_7484b841a86f2d7fdd057c9b24fbf230.xhtml" xlink:title="CPP"><polygon fill="#fff" stroke="red" points="164 -108 110 -108 110 -72 164 -72 164 -108"/><text x="137" y="-87.5" font-family="Helvetica,sans-Serif" font-size="10" text-anchor="middle">CPP</text></a></g></g><g id="edge4" class="edge"><title>dir_2c3c4cb85e732569e2614ad40a451d53-&gt;dir_7484b841a86f2d7fdd057c9b24fbf230</title><path fill="none" stroke="#000" d="M115.921,-143.697C119.075,-135.813 122.878,-126.304 126.381,-117.546"/><polygon fill="#000" stroke="#000" points="129.694 -118.689 130.158 -108.104 123.195 -116.089 129.694 -118.689"/><g id="a_edge4-headlabel"><a target="_top" xlink:href="dir_000025_000010.xhtml" xlink:title="2"><text x="130.995" y="-120.581" font-family="Helvetica,sans-Serif" font-size="10" text-anchor="middle">2</text></a></g></g><g id="node2" class="node"><title>dir_6b58bd0be07bddcf3022ab9b026cbf38</title><g id="a_node2"><a target="_top" xlink:href="dir_6b58bd0be07bddcf3022ab9b026cbf38.xhtml" xlink:title="detail"><polygon fill="#fff" stroke="#000" points="208 -180 154 -180 154 -144 208 -144 208 -180"/><text x="181" y="-159.5" font-family="Helvetica,sans-Serif" font-size="10" text-anchor="middle">detail</text></a></g></g><g id="node6" class="node"><title>dir_9eca3c725728e372597fcd0d17c1ea0f</title><g id="a_node6"><a target="_top" xlink:href="dir_9eca3c725728e372597fcd0d17c1ea0f.xhtml" xlink:title="wrapper"><polygon fill="#fff" stroke="red" points="237.5 -108 182.5 -108 182.5 -72 237.5 -72 237.5 -108"/><text x="210" y="-87.5" font-family="Helvetica,sans-Serif" font-size="10" text-anchor="middle">wrapper</text></a></g></g><g id="edge5" class="edge"><title>dir_6b58bd0be07bddcf3022ab9b026cbf38-&gt;dir_9eca3c725728e372597fcd0d17c1ea0f</title><path fill="none" stroke="#000" d="M188.169,-143.697C191.435,-135.813 195.374,-126.304 199.002,-117.546"/><polygon fill="#000" stroke="#000" points="202.32 -118.683 202.914 -108.104 195.853 -116.003 202.32 -118.683"/><g id="a_edge5-headlabel"><a target="_top" xlink:href="dir_000026_000023.xhtml" xlink:title="1"><text x="203.567" y="-120.59" font-family="Helvetica,sans-Serif" font-size="10" text-anchor="middle">1</text></a></g></g><g id="edge1" class="edge"><title>dir_7b0825b7536eda12b63e5d87347b1c7d-&gt;dir_5815af820a9cc9481f1d0990a0d60286</title><path fill="none" stroke="#000" d="M40.5955,-71.6966C47.1227,-63.3893 55.068,-53.2771 62.2466,-44.1407"/><polygon fill="#000" stroke="#000" points="65.135 -46.13 68.561 -36.104 59.63 -41.805 65.135 -46.13"/><g id="a_edge1-headlabel"><a target="_top" xlink:href="dir_000014_000150.xhtml" xlink:title="4"><text x="65.147" y="-48.211" font-family="Helvetica,sans-Serif" font-size="10" text-anchor="middle">4</text></a></g></g><g id="edge6" class="edge"><title>dir_7484b841a86f2d7fdd057c9b24fbf230-&gt;dir_5815af820a9cc9481f1d0990a0d60286</title><path fill="none" stroke="#000" d="M123.404,-71.6966C116.877,-63.3893 108.932,-53.2771 101.753,-44.1407"/><polygon fill="#000" stroke="#000" points="104.369 -41.805 95.439 -36.104 98.865 -46.13 104.369 -41.805"/><g id="a_edge6-headlabel"><a target="_top" xlink:href="dir_000010_000150.xhtml" xlink:title="1"><text x="108.823" y="-40.377" font-family="Helvetica,sans-Serif" font-size="10" text-anchor="middle">1</text></a></g></g></g></svg>