<svg xmlns="http://www.w3.org/2000/svg" xmlns:xlink="http://www.w3.org/1999/xlink" width="272pt" height="367pt" viewBox="0 0 272.47 367"><g id="graph0" class="graph" transform="scale(1 1) rotate(0) translate(4 363)"><title>tests/validation/NEON/UNIT</title><polygon fill="#fff" stroke="none" points="-4 4 -4 -363 268.471 -363 268.471 4 -4 4"/><g id="clust1" class="cluster"><title>clusterdir_0538a82dae0483a21d0f1e9d7e0a45c6</title><g id="a_clust1"><a target="_top" xlink:href="dir_0538a82dae0483a21d0f1e9d7e0a45c6.xhtml" xlink:title="NEON"><polygon fill="#dde" stroke="#000" points="136.5 -280 136.5 -351 206.5 -351 206.5 -280 136.5 -280"/><text x="171.5" y="-339" font-family="Helvetica,sans-Serif" font-size="10" text-anchor="middle">NEON</text></a></g></g><g id="node1" class="node"><title>dir_6fc87decd8cffc07e5f49c197ca3de10</title><g id="a_node1"><a target="_top" xlink:href="dir_6fc87decd8cffc07e5f49c197ca3de10.xhtml" xlink:title="UNIT"><polygon fill="#eef" stroke="#000" points="198.5 -324 144.5 -324 144.5 -288 198.5 -288 198.5 -324"/><text x="171.5" y="-303.5" font-family="Helvetica,sans-Serif" font-size="10" text-anchor="middle">UNIT</text></a></g></g><g id="node2" class="node"><title>dir_46fdb196cebdbffe77dac340cde62f29</title><g id="a_node2"><a target="_top" xlink:href="dir_46fdb196cebdbffe77dac340cde62f29.xhtml" xlink:title="reference"><polygon fill="none" stroke="#000" points="138.5 -252 76.5 -252 76.5 -216 138.5 -216 138.5 -252"/><text x="107.5" y="-231.5" font-family="Helvetica,sans-Serif" font-size="10" text-anchor="middle">reference</text></a></g></g><g id="edge4" class="edge"><title>dir_6fc87decd8cffc07e5f49c197ca3de10-&gt;dir_46fdb196cebdbffe77dac340cde62f29</title><path fill="none" stroke="#000" d="M155.68,-287.697C147.93,-279.22 138.461,-268.864 129.976,-259.583"/><polygon fill="#000" stroke="#000" points="132.469 -257.123 123.138 -252.104 127.303 -261.846 132.469 -257.123"/><g id="a_edge4-headlabel"><a target="_top" xlink:href="dir_000149_000033.xhtml" xlink:title="1"><text x="136.99" y="-255.36" font-family="Helvetica,sans-Serif" font-size="10" text-anchor="middle">1</text></a></g></g><g id="node3" class="node"><title>dir_445738e6fed662d0b65e690e3f1e1de0</title><g id="a_node3"><a target="_top" xlink:href="dir_445738e6fed662d0b65e690e3f1e1de0.xhtml" xlink:title="NEON"><polygon fill="none" stroke="#000" points="253.5 -180 199.5 -180 199.5 -144 253.5 -144 253.5 -180"/><text x="226.5" y="-159.5" font-family="Helvetica,sans-Serif" font-size="10" text-anchor="middle">NEON</text></a></g></g><g id="edge5" class="edge"><title>dir_6fc87decd8cffc07e5f49c197ca3de10-&gt;dir_445738e6fed662d0b65e690e3f1e1de0</title><path fill="none" stroke="#000" d="M178.134,-287.871C187.591,-263.457 205.032,-218.426 216.184,-189.635"/><polygon fill="#000" stroke="#000" points="219.494 -190.778 219.842 -180.189 212.967 -188.25 219.494 -190.778"/><g id="a_edge5-headlabel"><a target="_top" xlink:href="dir_000149_000153.xhtml" xlink:title="1"><text x="220.843" y="-192.656" font-family="Helvetica,sans-Serif" font-size="10" text-anchor="middle">1</text></a></g></g><g id="node4" class="node"><title>dir_9e71e2da941d3cafc4d98a9f6ae3de4f</title><g id="a_node4"><a target="_top" xlink:href="dir_9e71e2da941d3cafc4d98a9f6ae3de4f.xhtml" xlink:title="framework"><polygon fill="#fff" stroke="red" points="67 -180 0 -180 0 -144 67 -144 67 -180"/><text x="33.5" y="-159.5" font-family="Helvetica,sans-Serif" font-size="10" text-anchor="middle">framework</text></a></g></g><g id="edge6" class="edge"><title>dir_6fc87decd8cffc07e5f49c197ca3de10-&gt;dir_9e71e2da941d3cafc4d98a9f6ae3de4f</title><path fill="none" stroke="#000" d="M144.149,-297.208C120.895,-289.297 88.0919,-274.908 67.5,-252 51.9194,-234.667 43.1898,-209.451 38.4898,-190.282"/><polygon fill="#000" stroke="#000" points="41.866 -189.342 36.275 -180.343 35.034 -190.864 41.866 -189.342"/><g id="a_edge6-headlabel"><a target="_top" xlink:href="dir_000149_000032.xhtml" xlink:title="4"><text x="45.419" y="-189.733" font-family="Helvetica,sans-Serif" font-size="10" text-anchor="middle">4</text></a></g></g><g id="node5" class="node"><title>dir_214608ef36d61442cb2b0c1c4e9a7def</title><g id="a_node5"><a target="_top" xlink:href="dir_214608ef36d61442cb2b0c1c4e9a7def.xhtml" xlink:title="arm_compute"><polygon fill="#fff" stroke="red" points="207.5 -108 123.5 -108 123.5 -72 207.5 -72 207.5 -108"/><text x="165.5" y="-87.5" font-family="Helvetica,sans-Serif" font-size="10" text-anchor="middle">arm_compute</text></a></g></g><g id="edge7" class="edge"><title>dir_6fc87decd8cffc07e5f49c197ca3de10-&gt;dir_214608ef36d61442cb2b0c1c4e9a7def</title><path fill="none" stroke="#000" d="M171.019,-287.849C169.981,-250.832 167.524,-163.181 166.268,-118.386"/><polygon fill="#000" stroke="#000" points="169.762 -118.13 165.983 -108.232 162.765 -118.327 169.762 -118.13"/><g id="a_edge7-headlabel"><a target="_top" xlink:href="dir_000149_000000.xhtml" xlink:title="13"><text x="172.701" y="-119.144" font-family="Helvetica,sans-Serif" font-size="10" text-anchor="middle">13</text></a></g></g><g id="node6" class="node"><title>dir_5815af820a9cc9481f1d0990a0d60286</title><g id="a_node6"><a target="_top" xlink:href="dir_5815af820a9cc9481f1d0990a0d60286.xhtml" xlink:title="support"><polygon fill="none" stroke="#000" points="192.5 -36 138.5 -36 138.5 0 192.5 0 192.5 -36"/><text x="165.5" y="-15.5" font-family="Helvetica,sans-Serif" font-size="10" text-anchor="middle">support</text></a></g></g><g id="edge8" class="edge"><title>dir_6fc87decd8cffc07e5f49c197ca3de10-&gt;dir_5815af820a9cc9481f1d0990a0d60286</title><path fill="none" stroke="#000" d="M185.825,-287.581C194.1,-277.359 204.6,-264.109 213.5,-252 244.717,-209.529 271.905,-195.864 262.5,-144 256.402,-110.372 255.93,-99.397 235.5,-72 226.245,-59.5894 213.316,-48.6843 201.085,-40.0434"/><polygon fill="#000" stroke="#000" points="203.027 -37.132 192.782 -34.432 199.108 -42.932 203.027 -37.132"/><g id="a_edge8-headlabel"><a target="_top" xlink:href="dir_000149_000150.xhtml" xlink:title="2"><text x="207.595" y="-34.292" font-family="Helvetica,sans-Serif" font-size="10" text-anchor="middle">2</text></a></g></g><g id="edge1" class="edge"><title>dir_46fdb196cebdbffe77dac340cde62f29-&gt;dir_9e71e2da941d3cafc4d98a9f6ae3de4f</title><path fill="none" stroke="#000" d="M89.2079,-215.697C80.0674,-207.05 68.8599,-196.449 58.9,-187.027"/><polygon fill="#000" stroke="#000" points="61.252 -184.434 51.582 -180.104 56.441 -189.519 61.252 -184.434"/><g id="a_edge1-headlabel"><a target="_top" xlink:href="dir_000033_000032.xhtml" xlink:title="3"><text x="65.814" y="-182.341" font-family="Helvetica,sans-Serif" font-size="10" text-anchor="middle">3</text></a></g></g><g id="edge2" class="edge"><title>dir_46fdb196cebdbffe77dac340cde62f29-&gt;dir_214608ef36d61442cb2b0c1c4e9a7def</title><path fill="none" stroke="#000" d="M114.496,-215.871C124.468,-191.457 142.861,-146.426 154.621,-117.635"/><polygon fill="#000" stroke="#000" points="157.938 -118.77 158.479 -108.189 151.458 -116.123 157.938 -118.77"/><g id="a_edge2-headlabel"><a target="_top" xlink:href="dir_000033_000000.xhtml" xlink:title="86"><text x="159.207" y="-120.672" font-family="Helvetica,sans-Serif" font-size="10" text-anchor="middle">86</text></a></g></g><g id="edge3" class="edge"><title>dir_46fdb196cebdbffe77dac340cde62f29-&gt;dir_5815af820a9cc9481f1d0990a0d60286</title><path fill="none" stroke="#000" d="M104.408,-215.676C99.7836,-185.196 93.6743,-120.604 114.5,-72 119.121,-61.2162 126.993,-51.3463 135.189,-43.1233"/><polygon fill="#000" stroke="#000" points="137.824 -45.45 142.722 -36.056 133.035 -40.345 137.824 -45.45"/><g id="a_edge3-headlabel"><a target="_top" xlink:href="dir_000033_000150.xhtml" xlink:title="2"><text x="137.145" y="-47.48" font-family="Helvetica,sans-Serif" font-size="10" text-anchor="middle">2</text></a></g></g><g id="edge9" class="edge"><title>dir_445738e6fed662d0b65e690e3f1e1de0-&gt;dir_214608ef36d61442cb2b0c1c4e9a7def</title><path fill="none" stroke="#000" d="M211.421,-143.697C204.108,-135.305 195.19,-125.07 187.165,-115.861"/><polygon fill="#000" stroke="#000" points="189.614 -113.344 180.405 -108.104 184.336 -117.943 189.614 -113.344"/><g id="a_edge9-headlabel"><a target="_top" xlink:href="dir_000153_000000.xhtml" xlink:title="6"><text x="194.116" y="-111.689" font-family="Helvetica,sans-Serif" font-size="10" text-anchor="middle">6</text></a></g></g><g id="edge10" class="edge"><title>dir_445738e6fed662d0b65e690e3f1e1de0-&gt;dir_5815af820a9cc9481f1d0990a0d60286</title><path fill="none" stroke="#000" d="M227.753,-143.721C228.395,-125.115 227.339,-95.0814 216.5,-72 211.42,-61.1828 203.239,-51.1915 194.902,-42.8679"/><polygon fill="#000" stroke="#000" points="197.291 -40.309 187.61 -36.004 192.493 -45.407 197.291 -40.309"/><g id="a_edge10-headlabel"><a target="_top" xlink:href="dir_000153_000150.xhtml" xlink:title="1"><text x="201.854" y="-38.206" font-family="Helvetica,sans-Serif" font-size="10" text-anchor="middle">1</text></a></g></g><g id="edge11" class="edge"><title>dir_9e71e2da941d3cafc4d98a9f6ae3de4f-&gt;dir_214608ef36d61442cb2b0c1c4e9a7def</title><path fill="none" stroke="#000" d="M65.7908,-143.876C83.3694,-134.554 105.309,-122.919 124.129,-112.939"/><polygon fill="#000" stroke="#000" points="125.89 -115.967 133.085 -108.19 122.611 -109.783 125.89 -115.967"/><g id="a_edge11-headlabel"><a target="_top" xlink:href="dir_000032_000000.xhtml" xlink:title="14"><text x="124.045" y="-117.659" font-family="Helvetica,sans-Serif" font-size="10" text-anchor="middle">14</text></a></g></g><g id="edge12" class="edge"><title>dir_9e71e2da941d3cafc4d98a9f6ae3de4f-&gt;dir_5815af820a9cc9481f1d0990a0d60286</title><path fill="none" stroke="#000" d="M39.6148,-143.977C47.1595,-124.772 61.4889,-93.4258 81.5,-72 94.9793,-57.5678 113.209,-45.4415 129.242,-36.4462"/><polygon fill="#000" stroke="#000" points="131.237 -39.347 138.375 -31.518 127.912 -33.187 131.237 -39.347"/><g id="a_edge12-headlabel"><a target="_top" xlink:href="dir_000032_000150.xhtml" xlink:title="7"><text x="129.421" y="-41.053" font-family="Helvetica,sans-Serif" font-size="10" text-anchor="middle">7</text></a></g></g><g id="edge13" class="edge"><title>dir_214608ef36d61442cb2b0c1c4e9a7def-&gt;dir_5815af820a9cc9481f1d0990a0d60286</title><path fill="none" stroke="#000" d="M165.5,-71.6966C165.5,-63.9827 165.5,-54.7125 165.5,-46.1124"/><polygon fill="#000" stroke="#000" points="169 -46.104 165.5 -36.104 162 -46.104 169 -46.104"/><g id="a_edge13-headlabel"><a target="_top" xlink:href="dir_000000_000150.xhtml" xlink:title="22"><text x="171.839" y="-47.199" font-family="Helvetica,sans-Serif" font-size="10" text-anchor="middle">22</text></a></g></g></g></svg>