<svg xmlns="http://www.w3.org/2000/svg" xmlns:xlink="http://www.w3.org/1999/xlink" width="182pt" height="308" viewBox="0 0 182 231"><g id="graph0" class="graph" transform="scale(1 1) rotate(0) translate(4 227)"><title>src/core/CPP</title><polygon fill="#fff" stroke="none" points="-4 4 -4 -227 178 -227 178 4 -4 4"/><g id="clust1" class="cluster"><title>clusterdir_aebb8dcc11953d78e620bbef0b9e2183</title><g id="a_clust1"><a target="_top" xlink:href="dir_aebb8dcc11953d78e620bbef0b9e2183.xhtml" xlink:title="core"><polygon fill="#dde" stroke="#000" points="8 -128 8 -215 166 -215 166 -128 8 -128"/><text x="87" y="-203" font-family="Helvetica,sans-Serif" font-size="10" text-anchor="middle">core</text></a></g></g><g id="clust2" class="cluster"><title>clusterdir_1d7cadfed01c895b25460177608d44e9</title><g id="a_clust2"><a target="_top" xlink:href="dir_1d7cadfed01c895b25460177608d44e9.xhtml"><polygon fill="#eef" stroke="#000" points="16 -136 16 -188 158 -188 158 -136 16 -136"/></a></g></g><g id="node1" class="node"><title>dir_1d7cadfed01c895b25460177608d44e9</title><text x="51" y="-159.5" font-family="Helvetica,sans-Serif" font-size="10" text-anchor="middle">CPP</text></g><g id="node3" class="node"><title>dir_214608ef36d61442cb2b0c1c4e9a7def</title><g id="a_node3"><a target="_top" xlink:href="dir_214608ef36d61442cb2b0c1c4e9a7def.xhtml" xlink:title="arm_compute"><polygon fill="#fff" stroke="red" points="95 -108 11 -108 11 -72 95 -72 95 -108"/><text x="53" y="-87.5" font-family="Helvetica,sans-Serif" font-size="10" text-anchor="middle">arm_compute</text></a></g></g><g id="edge4" class="edge"><title>dir_1d7cadfed01c895b25460177608d44e9-&gt;dir_214608ef36d61442cb2b0c1c4e9a7def</title><path fill="none" stroke="#000" d="M51.4944,-143.697C51.7148,-135.983 51.9796,-126.712 52.2254,-118.112"/><polygon fill="#000" stroke="#000" points="55.724 -118.2 52.511 -108.104 48.727 -118 55.724 -118.2"/><g id="a_edge4-headlabel"><a target="_top" xlink:href="dir_000067_000000.xhtml" xlink:title="69"><text x="58.46" y="-119.374" font-family="Helvetica,sans-Serif" font-size="10" text-anchor="middle">69</text></a></g></g><g id="node2" class="node"><title>dir_7c33ef795f818fa46460e86a2608dc00</title><g id="a_node2"><a target="_top" xlink:href="dir_7c33ef795f818fa46460e86a2608dc00.xhtml" xlink:title="kernels"><polygon fill="#fff" stroke="#000" points="150 -180 96 -180 96 -144 150 -144 150 -180"/><text x="123" y="-159.5" font-family="Helvetica,sans-Serif" font-size="10" text-anchor="middle">kernels</text></a></g></g><g id="edge1" class="edge"><title>dir_7c33ef795f818fa46460e86a2608dc00-&gt;dir_214608ef36d61442cb2b0c1c4e9a7def</title><path fill="none" stroke="#000" d="M105.697,-143.697C97.135,-135.135 86.6562,-124.656 77.3045,-115.304"/><polygon fill="#000" stroke="#000" points="79.65 -112.701 70.104 -108.104 74.701 -117.65 79.65 -112.701"/><g id="a_edge1-headlabel"><a target="_top" xlink:href="dir_000068_000000.xhtml" xlink:title="63"><text x="84.2" y="-110.735" font-family="Helvetica,sans-Serif" font-size="10" text-anchor="middle">63</text></a></g></g><g id="node4" class="node"><title>dir_5815af820a9cc9481f1d0990a0d60286</title><g id="a_node4"><a target="_top" xlink:href="dir_5815af820a9cc9481f1d0990a0d60286.xhtml" xlink:title="support"><polygon fill="none" stroke="#000" points="115 -36 61 -36 61 0 115 0 115 -36"/><text x="88" y="-15.5" font-family="Helvetica,sans-Serif" font-size="10" text-anchor="middle">support</text></a></g></g><g id="edge2" class="edge"><title>dir_7c33ef795f818fa46460e86a2608dc00-&gt;dir_5815af820a9cc9481f1d0990a0d60286</title><path fill="none" stroke="#000" d="M119.775,-143.84C116.291,-125.844 110.376,-96.7884 104,-72 101.787,-63.3969 99.0867,-54.0977 96.5391,-45.7264"/><polygon fill="#000" stroke="#000" points="99.854 -44.6 93.55 -36.084 93.168 -46.672 99.854 -44.6"/><g id="a_edge2-headlabel"><a target="_top" xlink:href="dir_000068_000150.xhtml" xlink:title="1"><text x="103.63" y="-44.693" font-family="Helvetica,sans-Serif" font-size="10" text-anchor="middle">1</text></a></g></g><g id="edge3" class="edge"><title>dir_214608ef36d61442cb2b0c1c4e9a7def-&gt;dir_5815af820a9cc9481f1d0990a0d60286</title><path fill="none" stroke="#000" d="M61.6517,-71.6966C65.6358,-63.7284 70.4502,-54.0995 74.8679,-45.2641"/><polygon fill="#000" stroke="#000" points="78.106 -46.614 79.448 -36.104 71.845 -43.483 78.106 -46.614"/><g id="a_edge3-headlabel"><a target="_top" xlink:href="dir_000000_000150.xhtml" xlink:title="22"><text x="79.038" y="-48.599" font-family="Helvetica,sans-Serif" font-size="10" text-anchor="middle">22</text></a></g></g></g></svg>