<svg xmlns="http://www.w3.org/2000/svg" xmlns:xlink="http://www.w3.org/1999/xlink" width="179pt" height="308" viewBox="0 0 179.05 231"><g id="graph0" class="graph" transform="scale(1 1) rotate(0) translate(4 227)"><title>arm_compute/core/CPP</title><polygon fill="#fff" stroke="none" points="-4 4 -4 -227 175.047 -227 175.047 4 -4 4"/><g id="clust1" class="cluster"><title>clusterdir_1fb090f0c6070330bfaccc4236d3ca0d</title><g id="a_clust1"><a target="_top" xlink:href="dir_1fb090f0c6070330bfaccc4236d3ca0d.xhtml" xlink:title="core"><polygon fill="#dde" stroke="#000" points="8 -56 8 -215 94 -215 94 -56 8 -56"/><text x="51" y="-203" font-family="Helvetica,sans-Serif" font-size="10" text-anchor="middle">core</text></a></g></g><g id="clust2" class="cluster"><title>clusterdir_7484b841a86f2d7fdd057c9b24fbf230</title><g id="a_clust2"><a target="_top" xlink:href="dir_7484b841a86f2d7fdd057c9b24fbf230.xhtml"><polygon fill="#eef" stroke="#000" points="16 -64 16 -188 86 -188 86 -64 16 -64"/></a></g></g><g id="node1" class="node"><title>dir_7484b841a86f2d7fdd057c9b24fbf230</title><text x="51" y="-159.5" font-family="Helvetica,sans-Serif" font-size="10" text-anchor="middle">CPP</text></g><g id="node2" class="node"><title>dir_9b109a3838d873f4037ee21889a49db8</title><g id="a_node2"><a target="_top" xlink:href="dir_9b109a3838d873f4037ee21889a49db8.xhtml" xlink:title="kernels"><polygon fill="#fff" stroke="#000" points="78 -108 24 -108 24 -72 78 -72 78 -108"/><text x="51" y="-87.5" font-family="Helvetica,sans-Serif" font-size="10" text-anchor="middle">kernels</text></a></g></g><g id="edge9" class="edge"><title>dir_7484b841a86f2d7fdd057c9b24fbf230-&gt;dir_9b109a3838d873f4037ee21889a49db8</title><path fill="none" stroke="#000" d="M51,-143.697C51,-135.983 51,-126.712 51,-118.112"/><polygon fill="#000" stroke="#000" points="54.5 -118.104 51 -108.104 47.5 -118.104 54.5 -118.104"/><g id="a_edge9-headlabel"><a target="_top" xlink:href="dir_000010_000011.xhtml" xlink:title="9"><text x="57.339" y="-119.199" font-family="Helvetica,sans-Serif" font-size="10" text-anchor="middle">9</text></a></g></g><g id="node3" class="node"><title>dir_8bc26130589aa16388b5a02f17abf2c2</title><g id="a_node3"><a target="_top" xlink:href="dir_8bc26130589aa16388b5a02f17abf2c2.xhtml" xlink:title="runtime"><polygon fill="#fff" stroke="red" points="156 -180 102 -180 102 -144 156 -144 156 -180"/><text x="129" y="-159.5" font-family="Helvetica,sans-Serif" font-size="10" text-anchor="middle">runtime</text></a></g></g><g id="edge1" class="edge"><title>dir_9b109a3838d873f4037ee21889a49db8-&gt;dir_8bc26130589aa16388b5a02f17abf2c2</title><path fill="none" stroke="#000" d="M64.1641,-108.104C72.9473,-116.805 84.7088,-127.524 95.851,-137.033"/><polygon fill="#000" stroke="#000" points="93.891 -139.956 103.803 -143.697 98.387 -134.591 93.891 -139.956"/><g id="a_edge1-headlabel"><a target="_top" xlink:href="dir_000011_000003.xhtml" xlink:title="1"><text x="89.312" y="-137.324" font-family="Helvetica,sans-Serif" font-size="10" text-anchor="middle">1</text></a></g></g><g id="node4" class="node"><title>dir_315f6cf1ec0b2df3ae747ff8286a19f5</title><g id="a_node4"><a target="_top" xlink:href="dir_315f6cf1ec0b2df3ae747ff8286a19f5.xhtml" xlink:title="NEON"><polygon fill="#fff" stroke="red" points="156 -108 102 -108 102 -72 156 -72 156 -108"/><text x="129" y="-87.5" font-family="Helvetica,sans-Serif" font-size="10" text-anchor="middle">NEON</text></a></g></g><g id="edge2" class="edge"><title>dir_9b109a3838d873f4037ee21889a49db8-&gt;dir_315f6cf1ec0b2df3ae747ff8286a19f5</title><path fill="none" stroke="#000" d="M78.1172,-90C82.7135,-90 87.3099,-90 91.9062,-90"/><polygon fill="#000" stroke="#000" points="91.969 -93.5 101.969 -90 91.969 -86.5 91.969 -93.5"/><g id="a_edge2-headlabel"><a target="_top" xlink:href="dir_000011_000022.xhtml" xlink:title="3"><text x="88.374" y="-93.839" font-family="Helvetica,sans-Serif" font-size="10" text-anchor="middle">3</text></a></g></g><g id="node5" class="node"><title>dir_5815af820a9cc9481f1d0990a0d60286</title><g id="a_node5"><a target="_top" xlink:href="dir_5815af820a9cc9481f1d0990a0d60286.xhtml" xlink:title="support"><polygon fill="none" stroke="#000" points="156 -36 102 -36 102 0 156 0 156 -36"/><text x="129" y="-15.5" font-family="Helvetica,sans-Serif" font-size="10" text-anchor="middle">support</text></a></g></g><g id="edge3" class="edge"><title>dir_9b109a3838d873f4037ee21889a49db8-&gt;dir_5815af820a9cc9481f1d0990a0d60286</title><path fill="none" stroke="#000" d="M70.2809,-71.6966C79.9154,-63.0503 91.7288,-52.4486 102.227,-43.027"/><polygon fill="#000" stroke="#000" points="104.836 -45.388 109.941 -36.104 100.161 -40.179 104.836 -45.388"/><g id="a_edge3-headlabel"><a target="_top" xlink:href="dir_000011_000150.xhtml" xlink:title="1"><text x="104.057" y="-47.402" font-family="Helvetica,sans-Serif" font-size="10" text-anchor="middle">1</text></a></g></g><g id="edge4" class="edge"><title>dir_8bc26130589aa16388b5a02f17abf2c2-&gt;dir_9b109a3838d873f4037ee21889a49db8</title><path fill="none" stroke="#000" d="M115.635,-143.697C106.806,-134.965 95.0272,-124.24 83.8946,-114.75"/><polygon fill="#000" stroke="#000" points="85.869 -111.839 75.954 -108.104 81.376 -117.207 85.869 -111.839"/><g id="a_edge4-headlabel"><a target="_top" xlink:href="dir_000003_000011.xhtml" xlink:title="6"><text x="90.448" y="-109.468" font-family="Helvetica,sans-Serif" font-size="10" text-anchor="middle">6</text></a></g></g><g id="edge5" class="edge"><title>dir_8bc26130589aa16388b5a02f17abf2c2-&gt;dir_315f6cf1ec0b2df3ae747ff8286a19f5</title><path fill="none" stroke="#000" d="M129,-143.697C129,-135.983 129,-126.712 129,-118.112"/><polygon fill="#000" stroke="#000" points="132.5 -118.104 129 -108.104 125.5 -118.104 132.5 -118.104"/><g id="a_edge5-headlabel"><a target="_top" xlink:href="dir_000003_000022.xhtml" xlink:title="119"><text x="135.339" y="-119.199" font-family="Helvetica,sans-Serif" font-size="10" text-anchor="middle">119</text></a></g></g><g id="edge6" class="edge"><title>dir_8bc26130589aa16388b5a02f17abf2c2-&gt;dir_5815af820a9cc9481f1d0990a0d60286</title><path fill="none" stroke="#000" d="M144.61,-143.774C152.373,-134.03 160.946,-121.184 165,-108 171.793,-85.9097 173.698,-77.412 165,-56 163.245,-51.6796 160.716,-47.5869 157.801,-43.808"/><polygon fill="#000" stroke="#000" points="160.2 -41.238 150.951 -36.069 154.958 -45.877 160.2 -41.238"/><g id="a_edge6-headlabel"><a target="_top" xlink:href="dir_000003_000150.xhtml" xlink:title="5"><text x="164.708" y="-39.547" font-family="Helvetica,sans-Serif" font-size="10" text-anchor="middle">5</text></a></g></g><g id="edge7" class="edge"><title>dir_315f6cf1ec0b2df3ae747ff8286a19f5-&gt;dir_9b109a3838d873f4037ee21889a49db8</title><path fill="none" stroke="#000" d="M101.969,-90C97.3722,-90 92.7758,-90 88.1795,-90"/><polygon fill="#000" stroke="#000" points="88.117 -86.5 78.117 -90 88.117 -93.5 88.117 -86.5"/><g id="a_edge7-headlabel"><a target="_top" xlink:href="dir_000022_000011.xhtml" xlink:title="2"><text x="91.712" y="-81.161" font-family="Helvetica,sans-Serif" font-size="10" text-anchor="middle">2</text></a></g></g><g id="edge8" class="edge"><title>dir_315f6cf1ec0b2df3ae747ff8286a19f5-&gt;dir_5815af820a9cc9481f1d0990a0d60286</title><path fill="none" stroke="#000" d="M129,-71.6966C129,-63.9827 129,-54.7125 129,-46.1124"/><polygon fill="#000" stroke="#000" points="132.5 -46.104 129 -36.104 125.5 -46.104 132.5 -46.104"/><g id="a_edge8-headlabel"><a target="_top" xlink:href="dir_000022_000150.xhtml" xlink:title="5"><text x="135.339" y="-47.199" font-family="Helvetica,sans-Serif" font-size="10" text-anchor="middle">5</text></a></g></g></g></svg>