<svg xmlns="http://www.w3.org/2000/svg" xmlns:xlink="http://www.w3.org/1999/xlink" width="196pt" height="404" viewBox="0 0 196 303"><g id="graph0" class="graph" transform="scale(1 1) rotate(0) translate(4 299)"><title>src/runtime/NEON/functions</title><polygon fill="#fff" stroke="none" points="-4 4 -4 -299 192 -299 192 4 -4 4"/><g id="clust1" class="cluster"><title>clusterdir_a36523fc4c32a6b0076906589b6fc202</title><g id="a_clust1"><a target="_top" xlink:href="dir_a36523fc4c32a6b0076906589b6fc202.xhtml" xlink:title="NEON"><polygon fill="#dde" stroke="#000" points="8 -200 8 -287 180 -287 180 -200 8 -200"/><text x="94" y="-275" font-family="Helvetica,sans-Serif" font-size="10" text-anchor="middle">NEON</text></a></g></g><g id="clust2" class="cluster"><title>clusterdir_4d03f28cfd35f8f734a3b0a2f1168d27</title><g id="a_clust2"><a target="_top" xlink:href="dir_4d03f28cfd35f8f734a3b0a2f1168d27.xhtml"><polygon fill="#eef" stroke="#000" points="16 -208 16 -260 172 -260 172 -208 16 -208"/></a></g></g><g id="node1" class="node"><title>dir_4d03f28cfd35f8f734a3b0a2f1168d27</title><text x="134" y="-231.5" font-family="Helvetica,sans-Serif" font-size="10" text-anchor="middle">functions</text></g><g id="node3" class="node"><title>dir_cbdb8362360e11eafe2fa3bc74cf0ffd</title><g id="a_node3"><a target="_top" xlink:href="dir_cbdb8362360e11eafe2fa3bc74cf0ffd.xhtml" xlink:title="utils"><polygon fill="#fff" stroke="red" points="137 -180 83 -180 83 -144 137 -144 137 -180"/><text x="110" y="-159.5" font-family="Helvetica,sans-Serif" font-size="10" text-anchor="middle">utils</text></a></g></g><g id="edge4" class="edge"><title>dir_4d03f28cfd35f8f734a3b0a2f1168d27-&gt;dir_cbdb8362360e11eafe2fa3bc74cf0ffd</title><path fill="none" stroke="#000" d="M128.067,-215.697C125.394,-207.898 122.174,-198.509 119.199,-189.829"/><polygon fill="#000" stroke="#000" points="122.418 -188.429 115.864 -180.104 115.797 -190.699 122.418 -188.429"/><g id="a_edge4-headlabel"><a target="_top" xlink:href="dir_000145_000034.xhtml" xlink:title="1"><text x="126.27" y="-188.408" font-family="Helvetica,sans-Serif" font-size="10" text-anchor="middle">1</text></a></g></g><g id="node5" class="node"><title>dir_5815af820a9cc9481f1d0990a0d60286</title><g id="a_node5"><a target="_top" xlink:href="dir_5815af820a9cc9481f1d0990a0d60286.xhtml" xlink:title="support"><polygon fill="none" stroke="#000" points="154 -36 100 -36 100 0 154 0 154 -36"/><text x="127" y="-15.5" font-family="Helvetica,sans-Serif" font-size="10" text-anchor="middle">support</text></a></g></g><g id="edge5" class="edge"><title>dir_4d03f28cfd35f8f734a3b0a2f1168d27-&gt;dir_5815af820a9cc9481f1d0990a0d60286</title><path fill="none" stroke="#000" d="M138.869,-215.979C141.564,-205.665 144.637,-192.189 146,-180 151.254,-133.006 141.428,-78.3514 134.053,-46.3314"/><polygon fill="#000" stroke="#000" points="137.404 -45.294 131.671 -36.384 130.596 -46.924 137.404 -45.294"/><g id="a_edge5-headlabel"><a target="_top" xlink:href="dir_000145_000150.xhtml" xlink:title="81"><text x="141.002" y="-45.629" font-family="Helvetica,sans-Serif" font-size="10" text-anchor="middle">81</text></a></g></g><g id="node2" class="node"><title>dir_0a6500f7272333a2de6dc109dffb6341</title><g id="a_node2"><a target="_top" xlink:href="dir_0a6500f7272333a2de6dc109dffb6341.xhtml" xlink:title="assembly"><polygon fill="#fff" stroke="#000" points="86 -252 24 -252 24 -216 86 -216 86 -252"/><text x="55" y="-231.5" font-family="Helvetica,sans-Serif" font-size="10" text-anchor="middle">assembly</text></a></g></g><g id="node4" class="node"><title>dir_214608ef36d61442cb2b0c1c4e9a7def</title><g id="a_node4"><a target="_top" xlink:href="dir_214608ef36d61442cb2b0c1c4e9a7def.xhtml" xlink:title="arm_compute"><polygon fill="#fff" stroke="red" points="99 -108 15 -108 15 -72 99 -72 99 -108"/><text x="57" y="-87.5" font-family="Helvetica,sans-Serif" font-size="10" text-anchor="middle">arm_compute</text></a></g></g><g id="edge1" class="edge"><title>dir_0a6500f7272333a2de6dc109dffb6341-&gt;dir_214608ef36d61442cb2b0c1c4e9a7def</title><path fill="none" stroke="#000" d="M55.2412,-215.871C55.5821,-191.67 56.2083,-147.211 56.6142,-118.393"/><polygon fill="#000" stroke="#000" points="60.117 -118.238 56.758 -108.189 53.117 -118.139 60.117 -118.238"/><g id="a_edge1-headlabel"><a target="_top" xlink:href="dir_000146_000000.xhtml" xlink:title="12"><text x="62.905" y="-119.372" font-family="Helvetica,sans-Serif" font-size="10" text-anchor="middle">12</text></a></g></g><g id="edge2" class="edge"><title>dir_cbdb8362360e11eafe2fa3bc74cf0ffd-&gt;dir_214608ef36d61442cb2b0c1c4e9a7def</title><path fill="none" stroke="#000" d="M90.9831,-143.697C83.9094,-135.474 76.1434,-125.483 69.727,-116.421"/><polygon fill="#000" stroke="#000" points="72.581 -114.394 64.055 -108.104 66.798 -118.338 72.581 -114.394"/><g id="a_edge2-headlabel"><a target="_top" xlink:href="dir_000034_000000.xhtml" xlink:title="37"><text x="76.952" y="-113.264" font-family="Helvetica,sans-Serif" font-size="10" text-anchor="middle">37</text></a></g></g><g id="edge3" class="edge"><title>dir_cbdb8362360e11eafe2fa3bc74cf0ffd-&gt;dir_5815af820a9cc9481f1d0990a0d60286</title><path fill="none" stroke="#000" d="M112.051,-143.871C114.948,-119.67 120.271,-75.2108 123.721,-46.3932"/><polygon fill="#000" stroke="#000" points="127.229 -46.534 124.942 -36.189 120.278 -45.702 127.229 -46.534"/><g id="a_edge3-headlabel"><a target="_top" xlink:href="dir_000034_000150.xhtml" xlink:title="3"><text x="129.62" y="-47.941" font-family="Helvetica,sans-Serif" font-size="10" text-anchor="middle">3</text></a></g></g><g id="edge6" class="edge"><title>dir_214608ef36d61442cb2b0c1c4e9a7def-&gt;dir_cbdb8362360e11eafe2fa3bc74cf0ffd</title><path fill="none" stroke="#000" d="M75.8455,-108.104C82.9079,-116.298 90.6791,-126.282 97.1171,-135.359"/><polygon fill="#000" stroke="#000" points="94.283 -137.415 102.815 -143.697 100.062 -133.466 94.283 -137.415"/><g id="a_edge6-headlabel"><a target="_top" xlink:href="dir_000000_000034.xhtml" xlink:title="1"><text x="89.91" y="-133.549" font-family="Helvetica,sans-Serif" font-size="10" text-anchor="middle">1</text></a></g></g><g id="edge7" class="edge"><title>dir_214608ef36d61442cb2b0c1c4e9a7def-&gt;dir_5815af820a9cc9481f1d0990a0d60286</title><path fill="none" stroke="#000" d="M74.3034,-71.6966C82.865,-63.135 93.3438,-52.6562 102.696,-43.3045"/><polygon fill="#000" stroke="#000" points="105.299 -45.65 109.896 -36.104 100.35 -40.7 105.299 -45.65"/><g id="a_edge7-headlabel"><a target="_top" xlink:href="dir_000000_000150.xhtml" xlink:title="22"><text x="104.765" y="-47.7" font-family="Helvetica,sans-Serif" font-size="10" text-anchor="middle">22</text></a></g></g></g></svg>