<svg xmlns="http://www.w3.org/2000/svg" xmlns:xlink="http://www.w3.org/1999/xlink" width="119pt" height="151pt" viewBox="0 0 119 151"><g id="graph0" class="graph" transform="scale(1 1) rotate(0) translate(4 147)"><title>arm_compute/runtime/GLES_COMPUTE/functions</title><polygon fill="#fff" stroke="none" points="-4 4 -4 -147 115 -147 115 4 -4 4"/><g id="clust1" class="cluster"><title>clusterdir_e83fa7cb9796f3ad7be03e3d9fcd3249</title><g id="a_clust1"><a target="_top" xlink:href="dir_e83fa7cb9796f3ad7be03e3d9fcd3249.xhtml" xlink:title="GLES_COMPUTE"><polygon fill="#dde" stroke="#000" points="8 -64 8 -135 103 -135 103 -64 8 -64"/><text x="55.5" y="-123" font-family="Helvetica,sans-Serif" font-size="10" text-anchor="middle">GLES_COMPUTE</text></a></g></g><g id="node1" class="node"><title>dir_b2d75812ef27339cb07aa08923a4a042</title><g id="a_node1"><a target="_top" xlink:href="dir_b2d75812ef27339cb07aa08923a4a042.xhtml" xlink:title="functions"><polygon fill="#eef" stroke="#000" points="85 -108 25 -108 25 -72 85 -72 85 -108"/><text x="55" y="-87.5" font-family="Helvetica,sans-Serif" font-size="10" text-anchor="middle">functions</text></a></g></g><g id="node2" class="node"><title>dir_1fb090f0c6070330bfaccc4236d3ca0d</title><g id="a_node2"><a target="_top" xlink:href="dir_1fb090f0c6070330bfaccc4236d3ca0d.xhtml" xlink:title="core"><polygon fill="#fff" stroke="red" points="82 -36 28 -36 28 0 82 0 82 -36"/><text x="55" y="-15.5" font-family="Helvetica,sans-Serif" font-size="10" text-anchor="middle">core</text></a></g></g><g id="edge1" class="edge"><title>dir_b2d75812ef27339cb07aa08923a4a042-&gt;dir_1fb090f0c6070330bfaccc4236d3ca0d</title><path fill="none" stroke="#000" d="M55,-71.6966C55,-63.9827 55,-54.7125 55,-46.1124"/><polygon fill="#000" stroke="#000" points="58.5 -46.104 55 -36.104 51.5 -46.104 58.5 -46.104"/><g id="a_edge1-headlabel"><a target="_top" xlink:href="dir_000053_000001.xhtml" xlink:title="49"><text x="61.339" y="-47.199" font-family="Helvetica,sans-Serif" font-size="10" text-anchor="middle">49</text></a></g></g></g></svg>