<svg xmlns="http://www.w3.org/2000/svg" xmlns:xlink="http://www.w3.org/1999/xlink" width="188pt" height="244" viewBox="0 0 188 183"><g id="graph0" class="graph" transform="scale(1 1) rotate(0) translate(4 179)"><title>arm_compute/core/NEON/wrapper</title><polygon fill="#fff" stroke="none" points="-4 4 -4 -179 184 -179 184 4 -4 4"/><g id="clust1" class="cluster"><title>clusterdir_315f6cf1ec0b2df3ae747ff8286a19f5</title><g id="a_clust1"><a target="_top" xlink:href="dir_315f6cf1ec0b2df3ae747ff8286a19f5.xhtml" xlink:title="NEON"><polygon fill="#dde" stroke="#000" points="8 -8 8 -167 172 -167 172 -8 8 -8"/><text x="90" y="-155" font-family="Helvetica,sans-Serif" font-size="10" text-anchor="middle">NEON</text></a></g></g><g id="clust2" class="cluster"><title>clusterdir_9eca3c725728e372597fcd0d17c1ea0f</title><g id="a_clust2"><a target="_top" xlink:href="dir_9eca3c725728e372597fcd0d17c1ea0f.xhtml"><polygon fill="#eef" stroke="#000" points="16 -16 16 -140 164 -140 164 -16 16 -16"/></a></g></g><g id="node1" class="node"><title>dir_9eca3c725728e372597fcd0d17c1ea0f</title><text x="91" y="-111.5" font-family="Helvetica,sans-Serif" font-size="10" text-anchor="middle">wrapper</text></g><g id="node2" class="node"><title>dir_36bd1941057d7130e210a25993eacc69</title><g id="a_node2"><a target="_top" xlink:href="dir_36bd1941057d7130e210a25993eacc69.xhtml" xlink:title="intrinsics"><polygon fill="#fff" stroke="#000" points="83.5 -60 24.5 -60 24.5 -24 83.5 -24 83.5 -60"/><text x="54" y="-39.5" font-family="Helvetica,sans-Serif" font-size="10" text-anchor="middle">intrinsics</text></a></g></g><g id="edge1" class="edge"><title>dir_9eca3c725728e372597fcd0d17c1ea0f-&gt;dir_36bd1941057d7130e210a25993eacc69</title><path fill="none" stroke="#000" d="M81.8539,-95.6966C77.5974,-87.6436 72.4442,-77.8945 67.7336,-68.9824"/><polygon fill="#000" stroke="#000" points="70.808 -67.31 63.041 -60.104 64.62 -70.581 70.808 -67.31"/><g id="a_edge1-headlabel"><a target="_top" xlink:href="dir_000023_000024.xhtml" xlink:title="1"><text x="74.998" y="-66.661" font-family="Helvetica,sans-Serif" font-size="10" text-anchor="middle">1</text></a></g></g><g id="node3" class="node"><title>dir_d7904fb5f65e3f2b5fdfe3ffda98931c</title><g id="a_node3"><a target="_top" xlink:href="dir_d7904fb5f65e3f2b5fdfe3ffda98931c.xhtml" xlink:title="scalar"><polygon fill="#fff" stroke="#000" points="156 -60 102 -60 102 -24 156 -24 156 -60"/><text x="129" y="-39.5" font-family="Helvetica,sans-Serif" font-size="10" text-anchor="middle">scalar</text></a></g></g><g id="edge2" class="edge"><title>dir_9eca3c725728e372597fcd0d17c1ea0f-&gt;dir_d7904fb5f65e3f2b5fdfe3ffda98931c</title><path fill="none" stroke="#000" d="M100.393,-95.6966C104.765,-87.6436 110.057,-77.8945 114.895,-68.9824"/><polygon fill="#000" stroke="#000" points="118.02 -70.563 119.715 -60.104 111.868 -67.223 118.02 -70.563"/><g id="a_edge2-headlabel"><a target="_top" xlink:href="dir_000023_000027.xhtml" xlink:title="1"><text x="118.8" y="-72.576" font-family="Helvetica,sans-Serif" font-size="10" text-anchor="middle">1</text></a></g></g></g></svg>