<svg xmlns="http://www.w3.org/2000/svg" xmlns:xlink="http://www.w3.org/1999/xlink" width="1112" height="500" viewBox="0 0 833.76 375"><g id="graph0" class="graph" transform="scale(1 1) rotate(0) translate(4 371)"><title>tests/validation</title><polygon fill="#fff" stroke="none" points="-4 4 -4 -371 829.764 -371 829.764 4 -4 4"/><g id="clust1" class="cluster"><title>clusterdir_59425e443f801f1f2fd8bbe4959a3ccf</title><g id="a_clust1"><a target="_top" xlink:href="dir_59425e443f801f1f2fd8bbe4959a3ccf.xhtml" xlink:title="tests"><polygon fill="#dde" stroke="#000" points="8 -200 8 -359 504 -359 504 -200 8 -200"/><text x="256" y="-347" font-family="Helvetica,sans-Serif" font-size="10" text-anchor="middle">tests</text></a></g></g><g id="clust2" class="cluster"><title>clusterdir_e7c7b16542faa38cb4655ff1750d3604</title><g id="a_clust2"><a target="_top" xlink:href="dir_e7c7b16542faa38cb4655ff1750d3604.xhtml"><polygon fill="#eef" stroke="#000" points="16 -208 16 -332 496 -332 496 -208 16 -208"/></a></g></g><g id="node1" class="node"><title>dir_e7c7b16542faa38cb4655ff1750d3604</title><text x="457" y="-303.5" font-family="Helvetica,sans-Serif" font-size="10" text-anchor="middle">validation</text></g><g id="node2" class="node"><title>dir_f7024513cd67abef53e86ee9382ac5ce</title><g id="a_node2"><a target="_top" xlink:href="dir_f7024513cd67abef53e86ee9382ac5ce.xhtml" xlink:title="CL"><polygon fill="#fff" stroke="red" points="78 -324 24 -324 24 -288 78 -288 78 -324"/><text x="51" y="-303.5" font-family="Helvetica,sans-Serif" font-size="10" text-anchor="middle">CL</text></a></g></g><g id="node6" class="node"><title>dir_46fdb196cebdbffe77dac340cde62f29</title><g id="a_node6"><a target="_top" xlink:href="dir_46fdb196cebdbffe77dac340cde62f29.xhtml" xlink:title="reference"><polygon fill="#fff" stroke="#000" points="253 -252 191 -252 191 -216 253 -216 253 -252"/><text x="222" y="-231.5" font-family="Helvetica,sans-Serif" font-size="10" text-anchor="middle">reference</text></a></g></g><g id="edge22" class="edge"><title>dir_f7024513cd67abef53e86ee9382ac5ce-&gt;dir_46fdb196cebdbffe77dac340cde62f29</title><path fill="none" stroke="#000" d="M78.0382,-291.994C81.0488,-290.617 84.0811,-289.26 87,-288 118.396,-274.442 154.478,-260.352 181.436,-250.111"/><polygon fill="#000" stroke="#000" points="182.814 -253.331 190.929 -246.52 180.338 -246.784 182.814 -253.331"/><g id="a_edge22-headlabel"><a target="_top" xlink:href="dir_000121_000033.xhtml" xlink:title="3"><text x="180.457" y="-254.759" font-family="Helvetica,sans-Serif" font-size="10" text-anchor="middle">3</text></a></g></g><g id="node8" class="node"><title>dir_cbdb8362360e11eafe2fa3bc74cf0ffd</title><g id="a_node8"><a target="_top" xlink:href="dir_cbdb8362360e11eafe2fa3bc74cf0ffd.xhtml" xlink:title="utils"><polygon fill="#fff" stroke="red" points="418 -180 364 -180 364 -144 418 -144 418 -180"/><text x="391" y="-159.5" font-family="Helvetica,sans-Serif" font-size="10" text-anchor="middle">utils</text></a></g></g><g id="edge23" class="edge"><title>dir_f7024513cd67abef53e86ee9382ac5ce-&gt;dir_cbdb8362360e11eafe2fa3bc74cf0ffd</title><path fill="none" stroke="#000" d="M78.1789,-291.121C81.1094,-289.941 84.0855,-288.869 87,-288 198.377,-254.807 251.439,-319.563 346,-252 366.608,-237.276 378.358,-210.318 384.644,-189.916"/><polygon fill="#000" stroke="#000" points="388.031 -190.802 387.379 -180.227 381.294 -188.9 388.031 -190.802"/><g id="a_edge23-headlabel"><a target="_top" xlink:href="dir_000121_000034.xhtml" xlink:title="4"><text x="389.787" y="-192.532" font-family="Helvetica,sans-Serif" font-size="10" text-anchor="middle">4</text></a></g></g><g id="node10" class="node"><title>dir_9e71e2da941d3cafc4d98a9f6ae3de4f</title><g id="a_node10"><a target="_top" xlink:href="dir_9e71e2da941d3cafc4d98a9f6ae3de4f.xhtml" xlink:title="framework"><polygon fill="#fff" stroke="red" points="579.5 -252 512.5 -252 512.5 -216 579.5 -216 579.5 -252"/><text x="546" y="-231.5" font-family="Helvetica,sans-Serif" font-size="10" text-anchor="middle">framework</text></a></g></g><g id="edge24" class="edge"><title>dir_f7024513cd67abef53e86ee9382ac5ce-&gt;dir_9e71e2da941d3cafc4d98a9f6ae3de4f</title><path fill="none" stroke="#000" d="M78.1351,-290.967C81.0741,-289.817 84.0642,-288.794 87,-288 264.865,-239.909 320.208,-292.294 500,-252 500.891,-251.8 501.787,-251.588 502.688,-251.363"/><polygon fill="#000" stroke="#000" points="503.747 -254.701 512.396 -248.58 501.818 -247.972 503.747 -254.701"/><g id="a_edge24-headlabel"><a target="_top" xlink:href="dir_000121_000032.xhtml" xlink:title="405"><text x="501.074" y="-255.921" font-family="Helvetica,sans-Serif" font-size="10" text-anchor="middle">405</text></a></g></g><g id="node12" class="node"><title>dir_214608ef36d61442cb2b0c1c4e9a7def</title><g id="a_node12"><a target="_top" xlink:href="dir_214608ef36d61442cb2b0c1c4e9a7def.xhtml" xlink:title="arm_compute"><polygon fill="#fff" stroke="red" points="488 -108 404 -108 404 -72 488 -72 488 -108"/><text x="446" y="-87.5" font-family="Helvetica,sans-Serif" font-size="10" text-anchor="middle">arm_compute</text></a></g></g><g id="edge25" class="edge"><title>dir_f7024513cd67abef53e86ee9382ac5ce-&gt;dir_214608ef36d61442cb2b0c1c4e9a7def</title><path fill="none" stroke="#000" d="M78.2219,-291.259C81.1439,-290.052 84.1064,-288.936 87,-288 170.023,-261.149 206.732,-299.388 280,-252 329.07,-220.263 312.066,-183.646 355,-144 368.014,-131.982 384.213,-121.47 399.321,-113.044"/><polygon fill="#000" stroke="#000" points="401.405 -115.897 408.549 -108.073 398.085 -109.734 401.405 -115.897"/><g id="a_edge25-headlabel"><a target="_top" xlink:href="dir_000121_000000.xhtml" xlink:title="565"><text x="399.587" y="-117.601" font-family="Helvetica,sans-Serif" font-size="10" text-anchor="middle">565</text></a></g></g><g id="node13" class="node"><title>dir_896191444cf08ec8ade6f88256cb2bdd</title><g id="a_node13"><a target="_top" xlink:href="dir_896191444cf08ec8ade6f88256cb2bdd.xhtml" xlink:title="CL"><polygon fill="none" stroke="#000" points="270 -180 216 -180 216 -144 270 -144 270 -180"/><text x="243" y="-159.5" font-family="Helvetica,sans-Serif" font-size="10" text-anchor="middle">CL</text></a></g></g><g id="edge26" class="edge"><title>dir_f7024513cd67abef53e86ee9382ac5ce-&gt;dir_896191444cf08ec8ade6f88256cb2bdd</title><path fill="none" stroke="#000" d="M78.2399,-291.314C81.1585,-290.096 84.1151,-288.963 87,-288 162.324,-262.868 211.826,-313.546 262,-252 276.413,-234.32 268.526,-208.275 258.908,-188.923"/><polygon fill="#000" stroke="#000" points="261.948 -187.185 254.137 -180.027 255.779 -190.494 261.948 -187.185"/><g id="a_edge26-headlabel"><a target="_top" xlink:href="dir_000121_000151.xhtml" xlink:title="173"><text x="266.149" y="-186.511" font-family="Helvetica,sans-Serif" font-size="10" text-anchor="middle">173</text></a></g></g><g id="node14" class="node"><title>dir_5815af820a9cc9481f1d0990a0d60286</title><g id="a_node14"><a target="_top" xlink:href="dir_5815af820a9cc9481f1d0990a0d60286.xhtml" xlink:title="support"><polygon fill="none" stroke="#000" points="238 -36 184 -36 184 0 238 0 238 -36"/><text x="211" y="-15.5" font-family="Helvetica,sans-Serif" font-size="10" text-anchor="middle">support</text></a></g></g><g id="edge27" class="edge"><title>dir_f7024513cd67abef53e86ee9382ac5ce-&gt;dir_5815af820a9cc9481f1d0990a0d60286</title><path fill="none" stroke="#000" d="M49.3753,-287.946C46.3491,-246.296 44.275,-137.982 96,-72 115.157,-47.5622 148.185,-33.9567 173.944,-26.6697"/><polygon fill="#000" stroke="#000" points="174.984 -30.015 183.768 -24.091 173.207 -23.245 174.984 -30.015"/><g id="a_edge27-headlabel"><a target="_top" xlink:href="dir_000121_000150.xhtml" xlink:title="3"><text x="172.228" y="-31.174" font-family="Helvetica,sans-Serif" font-size="10" text-anchor="middle">3</text></a></g></g><g id="node3" class="node"><title>dir_420d2db1b9c99f59825a3985434c3703</title><g id="a_node3"><a target="_top" xlink:href="dir_420d2db1b9c99f59825a3985434c3703.xhtml" xlink:title="CPP"><polygon fill="#fff" stroke="#000" points="408 -324 354 -324 354 -288 408 -288 408 -324"/><text x="381" y="-303.5" font-family="Helvetica,sans-Serif" font-size="10" text-anchor="middle">CPP</text></a></g></g><g id="edge35" class="edge"><title>dir_420d2db1b9c99f59825a3985434c3703-&gt;dir_46fdb196cebdbffe77dac340cde62f29</title><path fill="none" stroke="#000" d="M353.919,-292.09C350.917,-290.695 347.898,-289.308 345,-288 317.712,-275.682 286.758,-262.348 262.729,-252.135"/><polygon fill="#000" stroke="#000" points="263.791 -248.784 253.219 -248.102 261.059 -255.229 263.791 -248.784"/><g id="a_edge35-headlabel"><a target="_top" xlink:href="dir_000157_000033.xhtml" xlink:title="2"><text x="268.209" y="-245.073" font-family="Helvetica,sans-Serif" font-size="10" text-anchor="middle">2</text></a></g></g><g id="node9" class="node"><title>dir_445738e6fed662d0b65e690e3f1e1de0</title><g id="a_node9"><a target="_top" xlink:href="dir_445738e6fed662d0b65e690e3f1e1de0.xhtml" xlink:title="NEON"><polygon fill="none" stroke="#000" points="803 -252 749 -252 749 -216 803 -216 803 -252"/><text x="776" y="-231.5" font-family="Helvetica,sans-Serif" font-size="10" text-anchor="middle">NEON</text></a></g></g><g id="edge36" class="edge"><title>dir_420d2db1b9c99f59825a3985434c3703-&gt;dir_445738e6fed662d0b65e690e3f1e1de0</title><path fill="none" stroke="#000" d="M408.157,-291.045C411.091,-289.879 414.075,-288.832 417,-288 553.816,-249.109 597.288,-287.588 735,-252 736.259,-251.675 737.53,-251.318 738.806,-250.937"/><polygon fill="#000" stroke="#000" points="740.24 -254.145 748.573 -247.602 737.978 -247.521 740.24 -254.145"/><g id="a_edge36-headlabel"><a target="_top" xlink:href="dir_000157_000153.xhtml" xlink:title="4"><text x="737.756" y="-255.494" font-family="Helvetica,sans-Serif" font-size="10" text-anchor="middle">4</text></a></g></g><g id="edge37" class="edge"><title>dir_420d2db1b9c99f59825a3985434c3703-&gt;dir_9e71e2da941d3cafc4d98a9f6ae3de4f</title><path fill="none" stroke="#000" d="M408.058,-292.04C411.065,-290.654 414.091,-289.283 417,-288 445.482,-275.434 477.894,-262.121 503.104,-251.982"/><polygon fill="#000" stroke="#000" points="504.411 -255.229 512.39 -248.259 501.806 -248.731 504.411 -255.229"/><g id="a_edge37-headlabel"><a target="_top" xlink:href="dir_000157_000032.xhtml" xlink:title="15"><text x="502.131" y="-256.701" font-family="Helvetica,sans-Serif" font-size="10" text-anchor="middle">15</text></a></g></g><g id="edge38" class="edge"><title>dir_420d2db1b9c99f59825a3985434c3703-&gt;dir_214608ef36d61442cb2b0c1c4e9a7def</title><path fill="none" stroke="#000" d="M408.138,-290.979C411.077,-289.826 414.066,-288.8 417,-288 502.041,-264.827 752.57,-317.093 812,-252 848.051,-212.514 806.169,-169.179 759,-144 714.737,-120.372 575.106,-103.544 498.154,-95.7954"/><polygon fill="#000" stroke="#000" points="498.479 -92.311 488.182 -94.807 497.788 -99.276 498.479 -92.311"/><g id="a_edge38-headlabel"><a target="_top" xlink:href="dir_000157_000000.xhtml" xlink:title="18"><text x="502.336" y="-87.34" font-family="Helvetica,sans-Serif" font-size="10" text-anchor="middle">18</text></a></g></g><g id="node4" class="node"><title>dir_fbdf7bf92663091dc4d5520df638c068</title><g id="a_node4"><a target="_top" xlink:href="dir_fbdf7bf92663091dc4d5520df638c068.xhtml" xlink:title="GLES_COMPUTE"><polygon fill="#fff" stroke="red" points="263.5 -324 168.5 -324 168.5 -288 263.5 -288 263.5 -324"/><text x="216" y="-303.5" font-family="Helvetica,sans-Serif" font-size="10" text-anchor="middle">GLES_COMPUTE</text></a></g></g><g id="edge4" class="edge"><title>dir_fbdf7bf92663091dc4d5520df638c068-&gt;dir_9e71e2da941d3cafc4d98a9f6ae3de4f</title><path fill="none" stroke="#000" d="M263.772,-290.252C266.883,-289.446 269.979,-288.687 273,-288 372.608,-265.353 401.17,-277.83 500,-252 500.883,-251.769 501.773,-251.528 502.667,-251.278"/><polygon fill="#000" stroke="#000" points="503.802 -254.59 512.328 -248.301 501.74 -247.901 503.802 -254.59"/><g id="a_edge4-headlabel"><a target="_top" xlink:href="dir_000136_000032.xhtml" xlink:title="56"><text x="501.203" y="-255.862" font-family="Helvetica,sans-Serif" font-size="10" text-anchor="middle">56</text></a></g></g><g id="node11" class="node"><title>dir_7365e77196b52ca311bb83f181e59b8c</title><g id="a_node11"><a target="_top" xlink:href="dir_7365e77196b52ca311bb83f181e59b8c.xhtml" xlink:title="GLES_COMPUTE"><polygon fill="none" stroke="#000" points="692.5 -252 597.5 -252 597.5 -216 692.5 -216 692.5 -252"/><text x="645" y="-231.5" font-family="Helvetica,sans-Serif" font-size="10" text-anchor="middle">GLES_COMPUTE</text></a></g></g><g id="edge5" class="edge"><title>dir_fbdf7bf92663091dc4d5520df638c068-&gt;dir_7365e77196b52ca311bb83f181e59b8c</title><path fill="none" stroke="#000" d="M263.739,-290.098C266.858,-289.33 269.965,-288.621 273,-288 407.816,-260.416 448.071,-279.312 587.079,-251.953"/><polygon fill="#000" stroke="#000" points="588.149 -255.308 597.261 -249.902 586.767 -248.446 588.149 -255.308"/><g id="a_edge5-headlabel"><a target="_top" xlink:href="dir_000136_000152.xhtml" xlink:title="21"><text x="585.186" y="-256.301" font-family="Helvetica,sans-Serif" font-size="10" text-anchor="middle">21</text></a></g></g><g id="edge6" class="edge"><title>dir_fbdf7bf92663091dc4d5520df638c068-&gt;dir_214608ef36d61442cb2b0c1c4e9a7def</title><path fill="none" stroke="#000" d="M263.799,-290.368C266.904,-289.534 269.991,-288.736 273,-288 355.211,-267.88 406.105,-317.26 460,-252 491.221,-214.196 473.294,-152.983 458.77,-117.935"/><polygon fill="#000" stroke="#000" points="461.811 -116.149 454.619 -108.368 455.389 -118.935 461.811 -116.149"/><g id="a_edge6-headlabel"><a target="_top" xlink:href="dir_000136_000000.xhtml" xlink:title="79"><text x="465.846" y="-115.816" font-family="Helvetica,sans-Serif" font-size="10" text-anchor="middle">79</text></a></g></g><g id="edge7" class="edge"><title>dir_fbdf7bf92663091dc4d5520df638c068-&gt;dir_5815af820a9cc9481f1d0990a0d60286</title><path fill="none" stroke="#000" d="M174.816,-287.998C159.794,-279.541 144.434,-267.705 136,-252 98.1495,-181.521 99.2135,-143.041 136,-72 144.318,-55.937 159.994,-43.702 174.872,-35.0569"/><polygon fill="#000" stroke="#000" points="176.833 -37.975 183.96 -30.136 173.499 -31.82 176.833 -37.975"/><g id="a_edge7-headlabel"><a target="_top" xlink:href="dir_000136_000150.xhtml" xlink:title="1"><text x="175.024" y="-39.684" font-family="Helvetica,sans-Serif" font-size="10" text-anchor="middle">1</text></a></g></g><g id="node5" class="node"><title>dir_0538a82dae0483a21d0f1e9d7e0a45c6</title><g id="a_node5"><a target="_top" xlink:href="dir_0538a82dae0483a21d0f1e9d7e0a45c6.xhtml" xlink:title="NEON"><polygon fill="#fff" stroke="red" points="336 -324 282 -324 282 -288 336 -288 336 -324"/><text x="309" y="-303.5" font-family="Helvetica,sans-Serif" font-size="10" text-anchor="middle">NEON</text></a></g></g><g id="edge28" class="edge"><title>dir_0538a82dae0483a21d0f1e9d7e0a45c6-&gt;dir_46fdb196cebdbffe77dac340cde62f29</title><path fill="none" stroke="#000" d="M287.494,-287.697C276.537,-278.881 263.054,-268.032 251.175,-258.474"/><polygon fill="#000" stroke="#000" points="253.244 -255.646 243.258 -252.104 248.855 -261.1 253.244 -255.646"/><g id="a_edge28-headlabel"><a target="_top" xlink:href="dir_000122_000033.xhtml" xlink:title="3"><text x="257.824" y="-253.187" font-family="Helvetica,sans-Serif" font-size="10" text-anchor="middle">3</text></a></g></g><g id="edge29" class="edge"><title>dir_0538a82dae0483a21d0f1e9d7e0a45c6-&gt;dir_445738e6fed662d0b65e690e3f1e1de0</title><path fill="none" stroke="#000" d="M336.139,-290.982C339.078,-289.829 342.066,-288.801 345,-288 512.92,-242.138 566.025,-293.808 735,-252 736.262,-251.688 737.536,-251.343 738.815,-250.971"/><polygon fill="#000" stroke="#000" points="740.23 -254.188 748.593 -247.683 737.999 -247.552 740.23 -254.188"/><g id="a_edge29-headlabel"><a target="_top" xlink:href="dir_000122_000153.xhtml" xlink:title="139"><text x="737.727" y="-255.524" font-family="Helvetica,sans-Serif" font-size="10" text-anchor="middle">139</text></a></g></g><g id="edge30" class="edge"><title>dir_0538a82dae0483a21d0f1e9d7e0a45c6-&gt;dir_9e71e2da941d3cafc4d98a9f6ae3de4f</title><path fill="none" stroke="#000" d="M336.265,-291.389C339.179,-290.157 342.128,-288.999 345,-288 411.798,-264.769 432.253,-272.298 500,-252 500.874,-251.738 501.756,-251.468 502.643,-251.192"/><polygon fill="#000" stroke="#000" points="503.85 -254.479 512.249 -248.021 501.656 -247.832 503.85 -254.479"/><g id="a_edge30-headlabel"><a target="_top" xlink:href="dir_000122_000032.xhtml" xlink:title="360"><text x="501.326" y="-255.802" font-family="Helvetica,sans-Serif" font-size="10" text-anchor="middle">360</text></a></g></g><g id="edge31" class="edge"><title>dir_0538a82dae0483a21d0f1e9d7e0a45c6-&gt;dir_214608ef36d61442cb2b0c1c4e9a7def</title><path fill="none" stroke="#000" d="M336.147,-291.009C339.083,-289.85 342.07,-288.814 345,-288 421.613,-266.716 647.678,-310.986 701,-252 768.582,-177.24 590.369,-123.882 497.78,-102.008"/><polygon fill="#000" stroke="#000" points="498.548 -98.593 488.016 -99.743 496.966 -105.412 498.548 -98.593"/><g id="a_edge31-headlabel"><a target="_top" xlink:href="dir_000122_000000.xhtml" xlink:title="482"><text x="502.691" y="-94.139" font-family="Helvetica,sans-Serif" font-size="10" text-anchor="middle">482</text></a></g></g><g id="edge32" class="edge"><title>dir_0538a82dae0483a21d0f1e9d7e0a45c6-&gt;dir_5815af820a9cc9481f1d0990a0d60286</title><path fill="none" stroke="#000" d="M281.992,-292.401C278.638,-290.893 275.248,-289.395 272,-288 232.414,-271.001 206.153,-287.674 182,-252 138.689,-188.028 175.399,-91.0763 197.386,-45.0359"/><polygon fill="#000" stroke="#000" points="200.55 -46.533 201.82 -36.014 194.268 -43.445 200.55 -46.533"/><g id="a_edge32-headlabel"><a target="_top" xlink:href="dir_000122_000150.xhtml" xlink:title="2"><text x="201.513" y="-48.511" font-family="Helvetica,sans-Serif" font-size="10" text-anchor="middle">2</text></a></g></g><g id="edge1" class="edge"><title>dir_46fdb196cebdbffe77dac340cde62f29-&gt;dir_9e71e2da941d3cafc4d98a9f6ae3de4f</title><path fill="none" stroke="#000" d="M253.008,-234C336.042,-234 419.077,-234 502.111,-234"/><polygon fill="#000" stroke="#000" points="502.237 -237.5 512.237 -234 502.237 -230.5 502.237 -237.5"/><g id="a_edge1-headlabel"><a target="_top" xlink:href="dir_000033_000032.xhtml" xlink:title="3"><text x="498.643" y="-237.839" font-family="Helvetica,sans-Serif" font-size="10" text-anchor="middle">3</text></a></g></g><g id="edge2" class="edge"><title>dir_46fdb196cebdbffe77dac340cde62f29-&gt;dir_214608ef36d61442cb2b0c1c4e9a7def</title><path fill="none" stroke="#000" d="M240.873,-215.607C267.319,-191.328 313.17,-149.605 322,-144 344.397,-129.783 371.261,-117.768 394.25,-108.791"/><polygon fill="#000" stroke="#000" points="395.745 -111.967 403.84 -105.132 393.249 -105.427 395.745 -111.967"/><g id="a_edge2-headlabel"><a target="_top" xlink:href="dir_000033_000000.xhtml" xlink:title="86"><text x="393.398" y="-113.401" font-family="Helvetica,sans-Serif" font-size="10" text-anchor="middle">86</text></a></g></g><g id="edge3" class="edge"><title>dir_46fdb196cebdbffe77dac340cde62f29-&gt;dir_5815af820a9cc9481f1d0990a0d60286</title><path fill="none" stroke="#000" d="M215.762,-215.593C212.433,-205.374 208.683,-192.124 207,-180 200.508,-133.222 204.324,-78.0844 207.672,-45.9818"/><polygon fill="#000" stroke="#000" points="211.153 -46.348 208.774 -36.023 204.195 -45.578 211.153 -46.348"/><g id="a_edge3-headlabel"><a target="_top" xlink:href="dir_000033_000150.xhtml" xlink:title="2"><text x="213.58" y="-47.733" font-family="Helvetica,sans-Serif" font-size="10" text-anchor="middle">2</text></a></g></g><g id="node7" class="node"><title>dir_0c108762cda89b68d4571cbbabdf46df</title><g id="a_node7"><a target="_top" xlink:href="dir_0c108762cda89b68d4571cbbabdf46df.xhtml" xlink:title="UNIT"><polygon fill="#fff" stroke="#000" points="150 -324 96 -324 96 -288 150 -288 150 -324"/><text x="123" y="-303.5" font-family="Helvetica,sans-Serif" font-size="10" text-anchor="middle">UNIT</text></a></g></g><g id="edge16" class="edge"><title>dir_0c108762cda89b68d4571cbbabdf46df-&gt;dir_cbdb8362360e11eafe2fa3bc74cf0ffd</title><path fill="none" stroke="#000" d="M150.198,-291.183C153.124,-289.99 156.095,-288.898 159,-288 207.376,-273.04 349.659,-289.211 384,-252 399.058,-235.684 399.456,-209.759 396.885,-190.089"/><polygon fill="#000" stroke="#000" points="400.334 -189.492 395.279 -180.181 393.424 -190.612 400.334 -189.492"/><g id="a_edge16-headlabel"><a target="_top" xlink:href="dir_000071_000034.xhtml" xlink:title="3"><text x="403.712" y="-190.086" font-family="Helvetica,sans-Serif" font-size="10" text-anchor="middle">3</text></a></g></g><g id="edge17" class="edge"><title>dir_0c108762cda89b68d4571cbbabdf46df-&gt;dir_9e71e2da941d3cafc4d98a9f6ae3de4f</title><path fill="none" stroke="#000" d="M150.15,-291.022C153.086,-289.861 156.072,-288.821 159,-288 305.747,-246.884 351.601,-286.682 500,-252 500.889,-251.792 501.784,-251.572 502.683,-251.341"/><polygon fill="#000" stroke="#000" points="503.762 -254.672 512.379 -248.508 501.799 -247.953 503.762 -254.672"/><g id="a_edge17-headlabel"><a target="_top" xlink:href="dir_000071_000032.xhtml" xlink:title="13"><text x="501.108" y="-255.906" font-family="Helvetica,sans-Serif" font-size="10" text-anchor="middle">13</text></a></g></g><g id="edge18" class="edge"><title>dir_0c108762cda89b68d4571cbbabdf46df-&gt;dir_214608ef36d61442cb2b0c1c4e9a7def</title><path fill="none" stroke="#000" d="M150.185,-291.141C153.114,-289.957 156.088,-288.878 159,-288 265.211,-255.963 322.295,-324.805 406,-252 444.305,-218.683 448.824,-154.919 447.924,-118.43"/><polygon fill="#000" stroke="#000" points="451.405 -117.895 447.502 -108.046 444.411 -118.18 451.405 -117.895"/><g id="a_edge18-headlabel"><a target="_top" xlink:href="dir_000071_000000.xhtml" xlink:title="4"><text x="454.388" y="-118.872" font-family="Helvetica,sans-Serif" font-size="10" text-anchor="middle">4</text></a></g></g><g id="edge19" class="edge"><title>dir_0c108762cda89b68d4571cbbabdf46df-&gt;dir_5815af820a9cc9481f1d0990a0d60286</title><path fill="none" stroke="#000" d="M116.201,-287.853C101.005,-246.455 69.1555,-139.489 116,-72 129.945,-51.9093 154.089,-38.5828 174.547,-30.3179"/><polygon fill="#000" stroke="#000" points="175.82 -33.578 183.934 -26.765 173.342 -27.032 175.82 -33.578"/><g id="a_edge19-headlabel"><a target="_top" xlink:href="dir_000071_000150.xhtml" xlink:title="1"><text x="173.463" y="-35.006" font-family="Helvetica,sans-Serif" font-size="10" text-anchor="middle">1</text></a></g></g><g id="edge8" class="edge"><title>dir_cbdb8362360e11eafe2fa3bc74cf0ffd-&gt;dir_214608ef36d61442cb2b0c1c4e9a7def</title><path fill="none" stroke="#000" d="M398.68,-143.697C404.408,-135.305 412.257,-125.07 419.974,-115.861"/><polygon fill="#000" stroke="#000" points="422.784 -117.962 426.666 -108.104 417.484 -113.39 422.784 -117.962"/><g id="a_edge8-headlabel"><a target="_top" xlink:href="dir_000034_000000.xhtml" xlink:title="37"><text x="422.586" y="-120.039" font-family="Helvetica,sans-Serif" font-size="10" text-anchor="middle">37</text></a></g></g><g id="edge9" class="edge"><title>dir_cbdb8362360e11eafe2fa3bc74cf0ffd-&gt;dir_5815af820a9cc9481f1d0990a0d60286</title><path fill="none" stroke="#000" d="M369.288,-143.871C337.259,-118.604 277.238,-71.2543 241.015,-42.6788"/><polygon fill="#000" stroke="#000" points="242.808 -39.635 232.789 -36.189 238.473 -45.131 242.808 -39.635"/><g id="a_edge9-headlabel"><a target="_top" xlink:href="dir_000034_000150.xhtml" xlink:title="3"><text x="247.389" y="-37.132" font-family="Helvetica,sans-Serif" font-size="10" text-anchor="middle">3</text></a></g></g><g id="edge10" class="edge"><title>dir_445738e6fed662d0b65e690e3f1e1de0-&gt;dir_214608ef36d61442cb2b0c1c4e9a7def</title><path fill="none" stroke="#000" d="M772.246,-215.954C766.81,-195.503 754.69,-161.759 731,-144 695.017,-117.026 570.384,-101.884 498.408,-95.1999"/><polygon fill="#000" stroke="#000" points="498.462 -91.691 488.187 -94.275 497.831 -98.662 498.462 -91.691"/><g id="a_edge10-headlabel"><a target="_top" xlink:href="dir_000153_000000.xhtml" xlink:title="6"><text x="502.298" y="-86.687" font-family="Helvetica,sans-Serif" font-size="10" text-anchor="middle">6</text></a></g></g><g id="edge11" class="edge"><title>dir_445738e6fed662d0b65e690e3f1e1de0-&gt;dir_5815af820a9cc9481f1d0990a0d60286</title><path fill="none" stroke="#000" d="M777.606,-215.658C778.445,-195.862 776.634,-163.684 759,-144 690.088,-67.076 360.484,-31.9014 248.404,-22.0265"/><polygon fill="#000" stroke="#000" points="248.516 -18.523 238.252 -21.149 247.914 -25.497 248.516 -18.523"/><g id="a_edge11-headlabel"><a target="_top" xlink:href="dir_000153_000150.xhtml" xlink:title="1"><text x="252.342" y="-13.504" font-family="Helvetica,sans-Serif" font-size="10" text-anchor="middle">1</text></a></g></g><g id="edge12" class="edge"><title>dir_9e71e2da941d3cafc4d98a9f6ae3de4f-&gt;dir_cbdb8362360e11eafe2fa3bc74cf0ffd</title><path fill="none" stroke="#000" d="M524.852,-215.837C517.316,-210.271 508.567,-204.403 500,-200 477.138,-188.249 449.732,-178.966 428.12,-172.637"/><polygon fill="#000" stroke="#000" points="428.905 -169.221 418.329 -169.854 426.991 -175.955 428.905 -169.221"/><g id="a_edge12-headlabel"><a target="_top" xlink:href="dir_000032_000034.xhtml" xlink:title="3"><text x="433.138" y="-164.973" font-family="Helvetica,sans-Serif" font-size="10" text-anchor="middle">3</text></a></g></g><g id="edge13" class="edge"><title>dir_9e71e2da941d3cafc4d98a9f6ae3de4f-&gt;dir_214608ef36d61442cb2b0c1c4e9a7def</title><path fill="none" stroke="#000" d="M538.477,-215.757C529.978,-197.182 515.084,-167.174 498,-144 490.546,-133.888 481.231,-123.795 472.553,-115.171"/><polygon fill="#000" stroke="#000" points="474.773 -112.448 465.153 -108.007 469.904 -117.477 474.773 -112.448"/><g id="a_edge13-headlabel"><a target="_top" xlink:href="dir_000032_000000.xhtml" xlink:title="14"><text x="479.33" y="-110.408" font-family="Helvetica,sans-Serif" font-size="10" text-anchor="middle">14</text></a></g></g><g id="edge14" class="edge"><title>dir_9e71e2da941d3cafc4d98a9f6ae3de4f-&gt;dir_5815af820a9cc9481f1d0990a0d60286</title><path fill="none" stroke="#000" d="M546.415,-215.91C546.21,-182.476 540.551,-108.506 497,-72 459.806,-40.8222 317.227,-26.5841 248.489,-21.4245"/><polygon fill="#000" stroke="#000" points="248.345 -17.905 238.118 -20.673 247.839 -24.887 248.345 -17.905"/><g id="a_edge14-headlabel"><a target="_top" xlink:href="dir_000032_000150.xhtml" xlink:title="7"><text x="252.135" y="-12.833" font-family="Helvetica,sans-Serif" font-size="10" text-anchor="middle">7</text></a></g></g><g id="edge15" class="edge"><title>dir_7365e77196b52ca311bb83f181e59b8c-&gt;dir_214608ef36d61442cb2b0c1c4e9a7def</title><path fill="none" stroke="#000" d="M621.99,-215.679C597.785,-197.553 558.493,-168.391 524,-144 509.855,-133.997 494.076,-123.208 480.431,-113.992"/><polygon fill="#000" stroke="#000" points="482.061 -110.869 471.811 -108.186 478.15 -116.675 482.061 -110.869"/><g id="a_edge15-headlabel"><a target="_top" xlink:href="dir_000152_000000.xhtml" xlink:title="3"><text x="486.628" y="-108.022" font-family="Helvetica,sans-Serif" font-size="10" text-anchor="middle">3</text></a></g></g><g id="edge20" class="edge"><title>dir_214608ef36d61442cb2b0c1c4e9a7def-&gt;dir_cbdb8362360e11eafe2fa3bc74cf0ffd</title><path fill="none" stroke="#000" d="M438.456,-108.104C432.762,-116.467 424.928,-126.694 417.209,-135.92"/><polygon fill="#000" stroke="#000" points="414.385 -133.835 410.511 -143.697 419.689 -138.403 414.385 -133.835"/><g id="a_edge20-headlabel"><a target="_top" xlink:href="dir_000000_000034.xhtml" xlink:title="1"><text x="414.579" y="-126.759" font-family="Helvetica,sans-Serif" font-size="10" text-anchor="middle">1</text></a></g></g><g id="edge21" class="edge"><title>dir_214608ef36d61442cb2b0c1c4e9a7def-&gt;dir_5815af820a9cc9481f1d0990a0d60286</title><path fill="none" stroke="#000" d="M403.987,-76.4854C359.498,-63.2334 289.972,-42.5235 247.638,-29.9134"/><polygon fill="#000" stroke="#000" points="248.591 -26.545 238.008 -27.045 246.592 -33.254 248.591 -26.545"/><g id="a_edge21-headlabel"><a target="_top" xlink:href="dir_000000_000150.xhtml" xlink:title="22"><text x="252.846" y="-22.35" font-family="Helvetica,sans-Serif" font-size="10" text-anchor="middle">22</text></a></g></g><g id="edge33" class="edge"><title>dir_896191444cf08ec8ade6f88256cb2bdd-&gt;dir_214608ef36d61442cb2b0c1c4e9a7def</title><path fill="none" stroke="#000" d="M270.232,-149.366C274.805,-147.511 279.52,-145.659 284,-144 320.466,-130.498 362.18,-116.892 394.146,-106.847"/><polygon fill="#000" stroke="#000" points="395.237 -110.173 403.737 -103.848 393.148 -103.492 395.237 -110.173"/><g id="a_edge33-headlabel"><a target="_top" xlink:href="dir_000151_000000.xhtml" xlink:title="10"><text x="392.654" y="-111.456" font-family="Helvetica,sans-Serif" font-size="10" text-anchor="middle">10</text></a></g></g><g id="edge34" class="edge"><title>dir_896191444cf08ec8ade6f88256cb2bdd-&gt;dir_5815af820a9cc9481f1d0990a0d60286</title><path fill="none" stroke="#000" d="M239.14,-143.871C233.662,-119.564 223.579,-74.8187 217.087,-46.0132"/><polygon fill="#000" stroke="#000" points="220.486 -45.175 214.874 -36.189 213.658 -46.714 220.486 -45.175"/><g id="a_edge34-headlabel"><a target="_top" xlink:href="dir_000151_000150.xhtml" xlink:title="1"><text x="224.046" y="-45.558" font-family="Helvetica,sans-Serif" font-size="10" text-anchor="middle">1</text></a></g></g></g></svg>