<svg xmlns="http://www.w3.org/2000/svg" xmlns:xlink="http://www.w3.org/1999/xlink" width="386pt" height="212" viewBox="0 0 386 159"><g id="graph0" class="graph" transform="scale(1 1) rotate(0) translate(4 155)"><title>src/core/CL/gemm</title><polygon fill="#fff" stroke="none" points="-4 4 -4 -155 382 -155 382 4 -4 4"/><g id="clust1" class="cluster"><title>clusterdir_8c278f79c760e5c5fbd911f9870614c1</title><g id="a_clust1"><a target="_top" xlink:href="dir_8c278f79c760e5c5fbd911f9870614c1.xhtml" xlink:title="CL"><polygon fill="#dde" stroke="#000" points="8 -56 8 -143 370 -143 370 -56 8 -56"/><text x="189" y="-131" font-family="Helvetica,sans-Serif" font-size="10" text-anchor="middle">CL</text></a></g></g><g id="clust2" class="cluster"><title>clusterdir_acedbc3c1c025eedca19641ef7b62820</title><g id="a_clust2"><a target="_top" xlink:href="dir_acedbc3c1c025eedca19641ef7b62820.xhtml"><polygon fill="#eef" stroke="#000" points="16 -64 16 -116 362 -116 362 -64 16 -64"/></a></g></g><g id="node1" class="node"><title>dir_acedbc3c1c025eedca19641ef7b62820</title><text x="327" y="-87.5" font-family="Helvetica,sans-Serif" font-size="10" text-anchor="middle">gemm</text></g><g id="node5" class="node"><title>dir_214608ef36d61442cb2b0c1c4e9a7def</title><g id="a_node5"><a target="_top" xlink:href="dir_214608ef36d61442cb2b0c1c4e9a7def.xhtml" xlink:title="arm_compute"><polygon fill="#fff" stroke="red" points="259 -36 175 -36 175 0 259 0 259 -36"/><text x="217" y="-15.5" font-family="Helvetica,sans-Serif" font-size="10" text-anchor="middle">arm_compute</text></a></g></g><g id="edge2" class="edge"><title>dir_acedbc3c1c025eedca19641ef7b62820-&gt;dir_214608ef36d61442cb2b0c1c4e9a7def</title><path fill="none" stroke="#000" d="M310.248,-71.8492C304.444,-66.4089 297.705,-60.6146 291,-56 283.009,-50.5 274.083,-45.3267 265.273,-40.6906"/><polygon fill="#000" stroke="#000" points="266.677 -37.478 256.177 -36.063 263.503 -43.717 266.677 -37.478"/><g id="a_edge2-headlabel"><a target="_top" xlink:href="dir_000062_000000.xhtml" xlink:title="16"><text x="271.169" y="-34.078" font-family="Helvetica,sans-Serif" font-size="10" text-anchor="middle">16</text></a></g></g><g id="node2" class="node"><title>dir_cfd0d3343ca74c445c880307c95c1494</title><g id="a_node2"><a target="_top" xlink:href="dir_cfd0d3343ca74c445c880307c95c1494.xhtml" xlink:title="native"><polygon fill="#fff" stroke="#000" points="282 -108 228 -108 228 -72 282 -72 282 -108"/><text x="255" y="-87.5" font-family="Helvetica,sans-Serif" font-size="10" text-anchor="middle">native</text></a></g></g><g id="edge3" class="edge"><title>dir_cfd0d3343ca74c445c880307c95c1494-&gt;dir_214608ef36d61442cb2b0c1c4e9a7def</title><path fill="none" stroke="#000" d="M245.607,-71.6966C241.235,-63.6436 235.943,-53.8945 231.105,-44.9824"/><polygon fill="#000" stroke="#000" points="234.132 -43.223 226.285 -36.104 227.98 -46.563 234.132 -43.223"/><g id="a_edge3-headlabel"><a target="_top" xlink:href="dir_000063_000000.xhtml" xlink:title="5"><text x="238.342" y="-42.528" font-family="Helvetica,sans-Serif" font-size="10" text-anchor="middle">5</text></a></g></g><g id="node3" class="node"><title>dir_e50a6baa24878773b1097a906405814a</title><g id="a_node3"><a target="_top" xlink:href="dir_e50a6baa24878773b1097a906405814a.xhtml" xlink:title="reshaped"><polygon fill="#fff" stroke="#000" points="210 -108 148 -108 148 -72 210 -72 210 -108"/><text x="179" y="-87.5" font-family="Helvetica,sans-Serif" font-size="10" text-anchor="middle">reshaped</text></a></g></g><g id="edge1" class="edge"><title>dir_e50a6baa24878773b1097a906405814a-&gt;dir_214608ef36d61442cb2b0c1c4e9a7def</title><path fill="none" stroke="#000" d="M188.393,-71.6966C192.765,-63.6436 198.057,-53.8945 202.895,-44.9824"/><polygon fill="#000" stroke="#000" points="206.02 -46.563 207.715 -36.104 199.868 -43.223 206.02 -46.563"/><g id="a_edge1-headlabel"><a target="_top" xlink:href="dir_000064_000000.xhtml" xlink:title="5"><text x="206.8" y="-48.576" font-family="Helvetica,sans-Serif" font-size="10" text-anchor="middle">5</text></a></g></g><g id="node4" class="node"><title>dir_afe4835d9501312dff8cde2275a46453</title><g id="a_node4"><a target="_top" xlink:href="dir_afe4835d9501312dff8cde2275a46453.xhtml" xlink:title="reshaped_only_rhs"><polygon fill="#fff" stroke="#000" points="130.5 -108 23.5 -108 23.5 -72 130.5 -72 130.5 -108"/><text x="77" y="-87.5" font-family="Helvetica,sans-Serif" font-size="10" text-anchor="middle">reshaped_only_rhs</text></a></g></g><g id="edge4" class="edge"><title>dir_afe4835d9501312dff8cde2275a46453-&gt;dir_214608ef36d61442cb2b0c1c4e9a7def</title><path fill="none" stroke="#000" d="M108.394,-71.9287C118.152,-66.7204 128.978,-61.0407 139,-56 149.253,-50.8433 160.35,-45.4612 170.87,-40.4499"/><polygon fill="#000" stroke="#000" points="172.392 -43.602 179.93 -36.157 169.394 -37.276 172.392 -43.602"/><g id="a_edge4-headlabel"><a target="_top" xlink:href="dir_000065_000000.xhtml" xlink:title="5"><text x="170.36" y="-45.207" font-family="Helvetica,sans-Serif" font-size="10" text-anchor="middle">5</text></a></g></g></g></svg>