<svg xmlns="http://www.w3.org/2000/svg" xmlns:xlink="http://www.w3.org/1999/xlink" width="136" height="151pt" viewBox="0 0 102 151"><g id="graph0" class="graph" transform="scale(1 1) rotate(0) translate(4 147)"><title>src/runtime/NEON/functions/assembly</title><polygon fill="#fff" stroke="none" points="-4 4 -4 -147 98 -147 98 4 -4 4"/><g id="clust1" class="cluster"><title>clusterdir_4d03f28cfd35f8f734a3b0a2f1168d27</title><g id="a_clust1"><a target="_top" xlink:href="dir_4d03f28cfd35f8f734a3b0a2f1168d27.xhtml" xlink:title="functions"><polygon fill="#dde" stroke="#000" points="8 -64 8 -135 86 -135 86 -64 8 -64"/><text x="47" y="-123" font-family="Helvetica,sans-Serif" font-size="10" text-anchor="middle">functions</text></a></g></g><g id="node1" class="node"><title>dir_0a6500f7272333a2de6dc109dffb6341</title><g id="a_node1"><a target="_top" xlink:href="dir_0a6500f7272333a2de6dc109dffb6341.xhtml" xlink:title="assembly"><polygon fill="#eef" stroke="#000" points="78 -108 16 -108 16 -72 78 -72 78 -108"/><text x="47" y="-87.5" font-family="Helvetica,sans-Serif" font-size="10" text-anchor="middle">assembly</text></a></g></g><g id="node2" class="node"><title>dir_214608ef36d61442cb2b0c1c4e9a7def</title><g id="a_node2"><a target="_top" xlink:href="dir_214608ef36d61442cb2b0c1c4e9a7def.xhtml" xlink:title="arm_compute"><polygon fill="#fff" stroke="red" points="89 -36 5 -36 5 0 89 0 89 -36"/><text x="47" y="-15.5" font-family="Helvetica,sans-Serif" font-size="10" text-anchor="middle">arm_compute</text></a></g></g><g id="edge1" class="edge"><title>dir_0a6500f7272333a2de6dc109dffb6341-&gt;dir_214608ef36d61442cb2b0c1c4e9a7def</title><path fill="none" stroke="#000" d="M47,-71.6966C47,-63.9827 47,-54.7125 47,-46.1124"/><polygon fill="#000" stroke="#000" points="50.5 -46.104 47 -36.104 43.5 -46.104 50.5 -46.104"/><g id="a_edge1-headlabel"><a target="_top" xlink:href="dir_000146_000000.xhtml" xlink:title="12"><text x="53.339" y="-47.199" font-family="Helvetica,sans-Serif" font-size="10" text-anchor="middle">12</text></a></g></g></g></svg>