<svg xmlns="http://www.w3.org/2000/svg" xmlns:xlink="http://www.w3.org/1999/xlink" width="276" height="367pt" viewBox="0 0 207.45 367"><g id="graph0" class="graph" transform="scale(1 1) rotate(0) translate(4 363)"><title>tests/validation/UNIT</title><polygon fill="#fff" stroke="none" points="-4 4 -4 -363 203.447 -363 203.447 4 -4 4"/><g id="clust1" class="cluster"><title>clusterdir_e7c7b16542faa38cb4655ff1750d3604</title><g id="a_clust1"><a target="_top" xlink:href="dir_e7c7b16542faa38cb4655ff1750d3604.xhtml" xlink:title="validation"><polygon fill="#dde" stroke="#000" points="51.447 -280 51.447 -351 121.447 -351 121.447 -280 51.447 -280"/><text x="86.447" y="-339" font-family="Helvetica,sans-Serif" font-size="10" text-anchor="middle">validation</text></a></g></g><g id="node1" class="node"><title>dir_0c108762cda89b68d4571cbbabdf46df</title><g id="a_node1"><a target="_top" xlink:href="dir_0c108762cda89b68d4571cbbabdf46df.xhtml" xlink:title="UNIT"><polygon fill="#eef" stroke="#000" points="113.447 -324 59.447 -324 59.447 -288 113.447 -288 113.447 -324"/><text x="86.447" y="-303.5" font-family="Helvetica,sans-Serif" font-size="10" text-anchor="middle">UNIT</text></a></g></g><g id="node2" class="node"><title>dir_cbdb8362360e11eafe2fa3bc74cf0ffd</title><g id="a_node2"><a target="_top" xlink:href="dir_cbdb8362360e11eafe2fa3bc74cf0ffd.xhtml" xlink:title="utils"><polygon fill="#fff" stroke="red" points="199.447 -180 145.447 -180 145.447 -144 199.447 -144 199.447 -180"/><text x="172.447" y="-159.5" font-family="Helvetica,sans-Serif" font-size="10" text-anchor="middle">utils</text></a></g></g><g id="edge6" class="edge"><title>dir_0c108762cda89b68d4571cbbabdf46df-&gt;dir_cbdb8362360e11eafe2fa3bc74cf0ffd</title><path fill="none" stroke="#000" d="M103.147,-287.799C112.239,-277.862 123.268,-264.822 131.447,-252 144.107,-232.154 155.06,-207.759 162.452,-189.532"/><polygon fill="#000" stroke="#000" points="165.756 -190.694 166.181 -180.108 159.247 -188.119 165.756 -190.694"/><g id="a_edge6-headlabel"><a target="_top" xlink:href="dir_000071_000034.xhtml" xlink:title="3"><text x="167.074" y="-192.581" font-family="Helvetica,sans-Serif" font-size="10" text-anchor="middle">3</text></a></g></g><g id="node3" class="node"><title>dir_9e71e2da941d3cafc4d98a9f6ae3de4f</title><g id="a_node3"><a target="_top" xlink:href="dir_9e71e2da941d3cafc4d98a9f6ae3de4f.xhtml" xlink:title="framework"><polygon fill="#fff" stroke="red" points="88.947 -252 21.947 -252 21.947 -216 88.947 -216 88.947 -252"/><text x="55.447" y="-231.5" font-family="Helvetica,sans-Serif" font-size="10" text-anchor="middle">framework</text></a></g></g><g id="edge7" class="edge"><title>dir_0c108762cda89b68d4571cbbabdf46df-&gt;dir_9e71e2da941d3cafc4d98a9f6ae3de4f</title><path fill="none" stroke="#000" d="M78.7844,-287.697C75.2556,-279.728 70.9914,-270.1 67.0786,-261.264"/><polygon fill="#000" stroke="#000" points="70.272 -259.831 63.022 -252.104 63.871 -262.665 70.272 -259.831"/><g id="a_edge7-headlabel"><a target="_top" xlink:href="dir_000071_000032.xhtml" xlink:title="13"><text x="74.323" y="-259.468" font-family="Helvetica,sans-Serif" font-size="10" text-anchor="middle">13</text></a></g></g><g id="node4" class="node"><title>dir_214608ef36d61442cb2b0c1c4e9a7def</title><g id="a_node4"><a target="_top" xlink:href="dir_214608ef36d61442cb2b0c1c4e9a7def.xhtml" xlink:title="arm_compute"><polygon fill="#fff" stroke="red" points="153.447 -108 69.447 -108 69.447 -72 153.447 -72 153.447 -108"/><text x="111.447" y="-87.5" font-family="Helvetica,sans-Serif" font-size="10" text-anchor="middle">arm_compute</text></a></g></g><g id="edge8" class="edge"><title>dir_0c108762cda89b68d4571cbbabdf46df-&gt;dir_214608ef36d61442cb2b0c1c4e9a7def</title><path fill="none" stroke="#000" d="M90.5295,-287.905C92.8649,-277.566 95.6738,-264.087 97.4473,-252 104.291,-205.362 108.182,-150.596 110.048,-118.457"/><polygon fill="#000" stroke="#000" points="113.542 -118.649 110.604 -108.47 106.553 -118.26 113.542 -118.649"/><g id="a_edge8-headlabel"><a target="_top" xlink:href="dir_000071_000000.xhtml" xlink:title="4"><text x="116.177" y="-119.896" font-family="Helvetica,sans-Serif" font-size="10" text-anchor="middle">4</text></a></g></g><g id="node5" class="node"><title>dir_5815af820a9cc9481f1d0990a0d60286</title><g id="a_node5"><a target="_top" xlink:href="dir_5815af820a9cc9481f1d0990a0d60286.xhtml" xlink:title="support"><polygon fill="none" stroke="#000" points="103.447 -36 49.447 -36 49.447 0 103.447 0 103.447 -36"/><text x="76.447" y="-15.5" font-family="Helvetica,sans-Serif" font-size="10" text-anchor="middle">support</text></a></g></g><g id="edge9" class="edge"><title>dir_0c108762cda89b68d4571cbbabdf46df-&gt;dir_5815af820a9cc9481f1d0990a0d60286</title><path fill="none" stroke="#000" d="M59.3859,-293.582C42.5401,-284.879 22.2692,-271.116 12.4473,-252 -23.6038,-181.836 27.8399,-89.0313 57.6917,-44.7056"/><polygon fill="#000" stroke="#000" points="60.722 -46.477 63.518 -36.258 54.959 -42.502 60.722 -46.477"/><g id="a_edge9-headlabel"><a target="_top" xlink:href="dir_000071_000150.xhtml" xlink:title="1"><text x="61.018" y="-48.548" font-family="Helvetica,sans-Serif" font-size="10" text-anchor="middle">1</text></a></g></g><g id="edge1" class="edge"><title>dir_cbdb8362360e11eafe2fa3bc74cf0ffd-&gt;dir_214608ef36d61442cb2b0c1c4e9a7def</title><path fill="none" stroke="#000" d="M151.453,-143.697C143.357,-135.389 134.348,-125.277 126.85,-116.141"/><polygon fill="#000" stroke="#000" points="129.422 -113.752 120.458 -108.104 123.943 -118.109 129.422 -113.752"/><g id="a_edge1-headlabel"><a target="_top" xlink:href="dir_000034_000000.xhtml" xlink:title="37"><text x="133.881" y="-112.298" font-family="Helvetica,sans-Serif" font-size="10" text-anchor="middle">37</text></a></g></g><g id="edge2" class="edge"><title>dir_cbdb8362360e11eafe2fa3bc74cf0ffd-&gt;dir_5815af820a9cc9481f1d0990a0d60286</title><path fill="none" stroke="#000" d="M174.734,-143.816C176.372,-124.748 176.271,-93.7968 162.447,-72 151.035,-54.005 131.083,-41.1527 113.269,-32.615"/><polygon fill="#000" stroke="#000" points="114.217 -29.205 103.66 -28.311 111.355 -35.593 114.217 -29.205"/><g id="a_edge2-headlabel"><a target="_top" xlink:href="dir_000034_000150.xhtml" xlink:title="3"><text x="118.658" y="-25.583" font-family="Helvetica,sans-Serif" font-size="10" text-anchor="middle">3</text></a></g></g><g id="edge3" class="edge"><title>dir_9e71e2da941d3cafc4d98a9f6ae3de4f-&gt;dir_cbdb8362360e11eafe2fa3bc74cf0ffd</title><path fill="none" stroke="#000" d="M84.0688,-215.876C99.8232,-206.45 119.53,-194.66 136.334,-184.606"/><polygon fill="#000" stroke="#000" points="138.543 -187.363 145.327 -179.226 134.949 -181.356 138.543 -187.363"/><g id="a_edge3-headlabel"><a target="_top" xlink:href="dir_000032_000034.xhtml" xlink:title="3"><text x="136.916" y="-189.145" font-family="Helvetica,sans-Serif" font-size="10" text-anchor="middle">3</text></a></g></g><g id="edge4" class="edge"><title>dir_9e71e2da941d3cafc4d98a9f6ae3de4f-&gt;dir_214608ef36d61442cb2b0c1c4e9a7def</title><path fill="none" stroke="#000" d="M62.2023,-215.871C71.8305,-191.457 89.5893,-146.426 100.943,-117.635"/><polygon fill="#000" stroke="#000" points="104.256 -118.776 104.668 -108.189 97.744 -116.208 104.256 -118.776"/><g id="a_edge4-headlabel"><a target="_top" xlink:href="dir_000032_000000.xhtml" xlink:title="14"><text x="105.578" y="-120.662" font-family="Helvetica,sans-Serif" font-size="10" text-anchor="middle">14</text></a></g></g><g id="edge5" class="edge"><title>dir_9e71e2da941d3cafc4d98a9f6ae3de4f-&gt;dir_5815af820a9cc9481f1d0990a0d60286</title><path fill="none" stroke="#000" d="M54.5221,-215.938C53.2427,-186.392 51.9615,-123.885 60.4473,-72 61.8591,-63.3682 64.2889,-54.1761 66.8346,-45.9127"/><polygon fill="#000" stroke="#000" points="70.166 -46.986 69.937 -36.394 63.51 -44.817 70.166 -46.986"/><g id="a_edge5-headlabel"><a target="_top" xlink:href="dir_000032_000150.xhtml" xlink:title="7"><text x="71.752" y="-48.784" font-family="Helvetica,sans-Serif" font-size="10" text-anchor="middle">7</text></a></g></g><g id="edge10" class="edge"><title>dir_214608ef36d61442cb2b0c1c4e9a7def-&gt;dir_cbdb8362360e11eafe2fa3bc74cf0ffd</title><path fill="none" stroke="#000" d="M132.248,-108.104C140.329,-116.383 149.342,-126.488 156.865,-135.64"/><polygon fill="#000" stroke="#000" points="154.315 -138.057 163.284 -143.697 159.79 -133.695 154.315 -138.057"/><g id="a_edge10-headlabel"><a target="_top" xlink:href="dir_000000_000034.xhtml" xlink:title="1"><text x="149.855" y="-134.515" font-family="Helvetica,sans-Serif" font-size="10" text-anchor="middle">1</text></a></g></g><g id="edge11" class="edge"><title>dir_214608ef36d61442cb2b0c1c4e9a7def-&gt;dir_5815af820a9cc9481f1d0990a0d60286</title><path fill="none" stroke="#000" d="M102.796,-71.6966C98.8115,-63.7284 93.9971,-54.0995 89.5794,-45.2641"/><polygon fill="#000" stroke="#000" points="92.602 -43.483 84.999 -36.104 86.341 -46.614 92.602 -43.483"/><g id="a_edge11-headlabel"><a target="_top" xlink:href="dir_000000_000150.xhtml" xlink:title="22"><text x="96.749" y="-42.929" font-family="Helvetica,sans-Serif" font-size="10" text-anchor="middle">22</text></a></g></g></g></svg>