<svg xmlns="http://www.w3.org/2000/svg" xmlns:xlink="http://www.w3.org/1999/xlink" width="202pt" height="404" viewBox="0 0 202 303"><g id="graph0" class="graph" transform="scale(1 1) rotate(0) translate(4 299)"><title>src/core/NEON/kernels</title><polygon fill="#fff" stroke="none" points="-4 4 -4 -299 198 -299 198 4 -4 4"/><g id="clust1" class="cluster"><title>clusterdir_d91e1966cc57df4f49d1e07be7697713</title><g id="a_clust1"><a target="_top" xlink:href="dir_d91e1966cc57df4f49d1e07be7697713.xhtml" xlink:title="NEON"><polygon fill="#dde" stroke="#000" points="8 -200 8 -287 186 -287 186 -200 8 -200"/><text x="97" y="-275" font-family="Helvetica,sans-Serif" font-size="10" text-anchor="middle">NEON</text></a></g></g><g id="clust2" class="cluster"><title>clusterdir_1ce938f580a6f304b99685e2c1dd19db</title><g id="a_clust2"><a target="_top" xlink:href="dir_1ce938f580a6f304b99685e2c1dd19db.xhtml"><polygon fill="#eef" stroke="#000" points="16 -208 16 -260 178 -260 178 -208 16 -208"/></a></g></g><g id="node1" class="node"><title>dir_1ce938f580a6f304b99685e2c1dd19db</title><text x="143" y="-231.5" font-family="Helvetica,sans-Serif" font-size="10" text-anchor="middle">kernels</text></g><g id="node3" class="node"><title>dir_cbdb8362360e11eafe2fa3bc74cf0ffd</title><g id="a_node3"><a target="_top" xlink:href="dir_cbdb8362360e11eafe2fa3bc74cf0ffd.xhtml" xlink:title="utils"><polygon fill="#fff" stroke="red" points="170 -180 116 -180 116 -144 170 -144 170 -180"/><text x="143" y="-159.5" font-family="Helvetica,sans-Serif" font-size="10" text-anchor="middle">utils</text></a></g></g><g id="edge5" class="edge"><title>dir_1ce938f580a6f304b99685e2c1dd19db-&gt;dir_cbdb8362360e11eafe2fa3bc74cf0ffd</title><path fill="none" stroke="#000" d="M143,-215.697C143,-207.983 143,-198.712 143,-190.112"/><polygon fill="#000" stroke="#000" points="146.5 -190.104 143 -180.104 139.5 -190.104 146.5 -190.104"/><g id="a_edge5-headlabel"><a target="_top" xlink:href="dir_000075_000034.xhtml" xlink:title="2"><text x="149.339" y="-191.199" font-family="Helvetica,sans-Serif" font-size="10" text-anchor="middle">2</text></a></g></g><g id="node4" class="node"><title>dir_214608ef36d61442cb2b0c1c4e9a7def</title><g id="a_node4"><a target="_top" xlink:href="dir_214608ef36d61442cb2b0c1c4e9a7def.xhtml" xlink:title="arm_compute"><polygon fill="#fff" stroke="red" points="132 -108 48 -108 48 -72 132 -72 132 -108"/><text x="90" y="-87.5" font-family="Helvetica,sans-Serif" font-size="10" text-anchor="middle">arm_compute</text></a></g></g><g id="edge6" class="edge"><title>dir_1ce938f580a6f304b99685e2c1dd19db-&gt;dir_214608ef36d61442cb2b0c1c4e9a7def</title><path fill="none" stroke="#000" d="M128.727,-215.896C121.168,-205.99 112.363,-192.949 107,-180 98.8358,-160.29 94.5507,-136.485 92.326,-118.456"/><polygon fill="#000" stroke="#000" points="95.784 -117.883 91.216 -108.324 88.826 -118.646 95.784 -117.883"/><g id="a_edge6-headlabel"><a target="_top" xlink:href="dir_000075_000000.xhtml" xlink:title="1071"><text x="98.998" y="-118.647" font-family="Helvetica,sans-Serif" font-size="10" text-anchor="middle">1071</text></a></g></g><g id="node5" class="node"><title>dir_5815af820a9cc9481f1d0990a0d60286</title><g id="a_node5"><a target="_top" xlink:href="dir_5815af820a9cc9481f1d0990a0d60286.xhtml" xlink:title="support"><polygon fill="none" stroke="#000" points="187 -36 133 -36 133 0 187 0 187 -36"/><text x="160" y="-15.5" font-family="Helvetica,sans-Serif" font-size="10" text-anchor="middle">support</text></a></g></g><g id="edge7" class="edge"><title>dir_1ce938f580a6f304b99685e2c1dd19db-&gt;dir_5815af820a9cc9481f1d0990a0d60286</title><path fill="none" stroke="#000" d="M158.61,-215.774C166.373,-206.03 174.946,-193.184 179,-180 193.034,-134.363 180.125,-78.5118 169.819,-46.0233"/><polygon fill="#000" stroke="#000" points="173.076 -44.725 166.602 -36.339 166.433 -46.932 173.076 -44.725"/><g id="a_edge7-headlabel"><a target="_top" xlink:href="dir_000075_000150.xhtml" xlink:title="8"><text x="176.903" y="-44.742" font-family="Helvetica,sans-Serif" font-size="10" text-anchor="middle">8</text></a></g></g><g id="node2" class="node"><title>dir_9847dd9cb7a28e46201717fa7336cf62</title><g id="a_node2"><a target="_top" xlink:href="dir_9847dd9cb7a28e46201717fa7336cf62.xhtml" xlink:title="arm_gemm"><polygon fill="#fff" stroke="red" points="97.5 -252 24.5 -252 24.5 -216 97.5 -216 97.5 -252"/><text x="61" y="-231.5" font-family="Helvetica,sans-Serif" font-size="10" text-anchor="middle">arm_gemm</text></a></g></g><g id="edge1" class="edge"><title>dir_cbdb8362360e11eafe2fa3bc74cf0ffd-&gt;dir_214608ef36d61442cb2b0c1c4e9a7def</title><path fill="none" stroke="#000" d="M123.983,-143.697C116.909,-135.474 109.143,-125.483 102.727,-116.421"/><polygon fill="#000" stroke="#000" points="105.581 -114.394 97.055 -108.104 99.798 -118.338 105.581 -114.394"/><g id="a_edge1-headlabel"><a target="_top" xlink:href="dir_000034_000000.xhtml" xlink:title="37"><text x="109.952" y="-113.264" font-family="Helvetica,sans-Serif" font-size="10" text-anchor="middle">37</text></a></g></g><g id="edge2" class="edge"><title>dir_cbdb8362360e11eafe2fa3bc74cf0ffd-&gt;dir_5815af820a9cc9481f1d0990a0d60286</title><path fill="none" stroke="#000" d="M145.051,-143.871C147.948,-119.67 153.271,-75.2108 156.721,-46.3932"/><polygon fill="#000" stroke="#000" points="160.229 -46.534 157.942 -36.189 153.278 -45.702 160.229 -46.534"/><g id="a_edge2-headlabel"><a target="_top" xlink:href="dir_000034_000150.xhtml" xlink:title="3"><text x="162.62" y="-47.941" font-family="Helvetica,sans-Serif" font-size="10" text-anchor="middle">3</text></a></g></g><g id="edge3" class="edge"><title>dir_214608ef36d61442cb2b0c1c4e9a7def-&gt;dir_cbdb8362360e11eafe2fa3bc74cf0ffd</title><path fill="none" stroke="#000" d="M108.845,-108.104C115.908,-116.298 123.679,-126.282 130.117,-135.359"/><polygon fill="#000" stroke="#000" points="127.283 -137.415 135.815 -143.697 133.062 -133.466 127.283 -137.415"/><g id="a_edge3-headlabel"><a target="_top" xlink:href="dir_000000_000034.xhtml" xlink:title="1"><text x="122.91" y="-133.549" font-family="Helvetica,sans-Serif" font-size="10" text-anchor="middle">1</text></a></g></g><g id="edge4" class="edge"><title>dir_214608ef36d61442cb2b0c1c4e9a7def-&gt;dir_5815af820a9cc9481f1d0990a0d60286</title><path fill="none" stroke="#000" d="M107.303,-71.6966C115.865,-63.135 126.344,-52.6562 135.696,-43.3045"/><polygon fill="#000" stroke="#000" points="138.299 -45.65 142.896 -36.104 133.35 -40.7 138.299 -45.65"/><g id="a_edge4-headlabel"><a target="_top" xlink:href="dir_000000_000150.xhtml" xlink:title="22"><text x="137.765" y="-47.7" font-family="Helvetica,sans-Serif" font-size="10" text-anchor="middle">22</text></a></g></g></g></svg>