<svg xmlns="http://www.w3.org/2000/svg" xmlns:xlink="http://www.w3.org/1999/xlink" width="144" height="223pt" viewBox="0 0 108 223"><g id="graph0" class="graph" transform="scale(1 1) rotate(0) translate(4 219)"><title>tests/framework/datasets</title><polygon fill="#fff" stroke="none" points="-4 4 -4 -219 104 -219 104 4 -4 4"/><g id="clust1" class="cluster"><title>clusterdir_9e71e2da941d3cafc4d98a9f6ae3de4f</title><g id="a_clust1"><a target="_top" xlink:href="dir_9e71e2da941d3cafc4d98a9f6ae3de4f.xhtml" xlink:title="framework"><polygon fill="#dde" stroke="#000" points="16 -136 16 -207 92 -207 92 -136 16 -136"/><text x="54" y="-195" font-family="Helvetica,sans-Serif" font-size="10" text-anchor="middle">framework</text></a></g></g><g id="node1" class="node"><title>dir_0dd7887818bb8d90732685575a13f58a</title><g id="a_node1"><a target="_top" xlink:href="dir_0dd7887818bb8d90732685575a13f58a.xhtml" xlink:title="datasets"><polygon fill="#eef" stroke="#000" points="83.5 -180 24.5 -180 24.5 -144 83.5 -144 83.5 -180"/><text x="54" y="-159.5" font-family="Helvetica,sans-Serif" font-size="10" text-anchor="middle">datasets</text></a></g></g><g id="node2" class="node"><title>dir_cbdb8362360e11eafe2fa3bc74cf0ffd</title><g id="a_node2"><a target="_top" xlink:href="dir_cbdb8362360e11eafe2fa3bc74cf0ffd.xhtml" xlink:title="utils"><polygon fill="#fff" stroke="red" points="54 -108 0 -108 0 -72 54 -72 54 -108"/><text x="27" y="-87.5" font-family="Helvetica,sans-Serif" font-size="10" text-anchor="middle">utils</text></a></g></g><g id="edge2" class="edge"><title>dir_0dd7887818bb8d90732685575a13f58a-&gt;dir_cbdb8362360e11eafe2fa3bc74cf0ffd</title><path fill="none" stroke="#000" d="M47.3258,-143.697C44.2851,-135.813 40.6173,-126.304 37.2393,-117.546"/><polygon fill="#000" stroke="#000" points="40.462 -116.175 33.597 -108.104 33.931 -118.694 40.462 -116.175"/><g id="a_edge2-headlabel"><a target="_top" xlink:href="dir_000155_000034.xhtml" xlink:title="1"><text x="44.404" y="-116.007" font-family="Helvetica,sans-Serif" font-size="10" text-anchor="middle">1</text></a></g></g><g id="node3" class="node"><title>dir_5815af820a9cc9481f1d0990a0d60286</title><g id="a_node3"><a target="_top" xlink:href="dir_5815af820a9cc9481f1d0990a0d60286.xhtml" xlink:title="support"><polygon fill="none" stroke="#000" points="81 -36 27 -36 27 0 81 0 81 -36"/><text x="54" y="-15.5" font-family="Helvetica,sans-Serif" font-size="10" text-anchor="middle">support</text></a></g></g><g id="edge3" class="edge"><title>dir_0dd7887818bb8d90732685575a13f58a-&gt;dir_5815af820a9cc9481f1d0990a0d60286</title><path fill="none" stroke="#000" d="M57.6538,-143.908C59.6758,-133.569 61.9808,-120.09 63,-108 64.3441,-92.0566 64.3441,-87.9434 63,-72 62.2834,-63.4991 60.9311,-54.3119 59.4884,-46.0122"/><polygon fill="#000" stroke="#000" points="62.914 -45.289 57.654 -36.093 56.031 -46.562 62.914 -45.289"/><g id="a_edge3-headlabel"><a target="_top" xlink:href="dir_000155_000150.xhtml" xlink:title="3"><text x="66.36" y="-45.807" font-family="Helvetica,sans-Serif" font-size="10" text-anchor="middle">3</text></a></g></g><g id="edge1" class="edge"><title>dir_cbdb8362360e11eafe2fa3bc74cf0ffd-&gt;dir_5815af820a9cc9481f1d0990a0d60286</title><path fill="none" stroke="#000" d="M33.6742,-71.6966C36.7149,-63.8132 40.3827,-54.3042 43.7607,-45.5464"/><polygon fill="#000" stroke="#000" points="47.069 -46.694 47.403 -36.104 40.538 -44.175 47.069 -46.694"/><g id="a_edge1-headlabel"><a target="_top" xlink:href="dir_000034_000150.xhtml" xlink:title="3"><text x="48.425" y="-48.569" font-family="Helvetica,sans-Serif" font-size="10" text-anchor="middle">3</text></a></g></g></g></svg>