<svg xmlns="http://www.w3.org/2000/svg" xmlns:xlink="http://www.w3.org/1999/xlink" width="206pt" height="244" viewBox="0 0 206 183"><g id="graph0" class="graph" transform="scale(1 1) rotate(0) translate(4 179)"><title>arm_compute/core/GLES_COMPUTE</title><polygon fill="#fff" stroke="none" points="-4 4 -4 -179 202 -179 202 4 -4 4"/><g id="clust1" class="cluster"><title>clusterdir_1fb090f0c6070330bfaccc4236d3ca0d</title><g id="a_clust1"><a target="_top" xlink:href="dir_1fb090f0c6070330bfaccc4236d3ca0d.xhtml" xlink:title="core"><polygon fill="#dde" stroke="#000" points="8 -8 8 -167 136 -167 136 -8 8 -8"/><text x="72" y="-155" font-family="Helvetica,sans-Serif" font-size="10" text-anchor="middle">core</text></a></g></g><g id="clust2" class="cluster"><title>clusterdir_541ebbb21ca179b54b469d645ff46bd9</title><g id="a_clust2"><a target="_top" xlink:href="dir_541ebbb21ca179b54b469d645ff46bd9.xhtml"><polygon fill="#eef" stroke="#000" points="16 -16 16 -140 128 -140 128 -16 16 -16"/></a></g></g><g id="node1" class="node"><title>dir_541ebbb21ca179b54b469d645ff46bd9</title><text x="72" y="-111.5" font-family="Helvetica,sans-Serif" font-size="10" text-anchor="middle">GLES_COMPUTE</text></g><g id="node2" class="node"><title>dir_b19d819d13c0f52aff9af701145a9252</title><g id="a_node2"><a target="_top" xlink:href="dir_b19d819d13c0f52aff9af701145a9252.xhtml" xlink:title="kernels"><polygon fill="#fff" stroke="#000" points="99 -60 45 -60 45 -24 99 -24 99 -60"/><text x="72" y="-39.5" font-family="Helvetica,sans-Serif" font-size="10" text-anchor="middle">kernels</text></a></g></g><g id="edge1" class="edge"><title>dir_541ebbb21ca179b54b469d645ff46bd9-&gt;dir_b19d819d13c0f52aff9af701145a9252</title><path fill="none" stroke="#000" d="M72,-95.6966C72,-87.9827 72,-78.7125 72,-70.1124"/><polygon fill="#000" stroke="#000" points="75.5 -70.104 72 -60.104 68.5 -70.104 75.5 -70.104"/><g id="a_edge1-headlabel"><a target="_top" xlink:href="dir_000012_000013.xhtml" xlink:title="25"><text x="78.339" y="-71.199" font-family="Helvetica,sans-Serif" font-size="10" text-anchor="middle">25</text></a></g></g><g id="node3" class="node"><title>dir_5815af820a9cc9481f1d0990a0d60286</title><g id="a_node3"><a target="_top" xlink:href="dir_5815af820a9cc9481f1d0990a0d60286.xhtml" xlink:title="support"><polygon fill="none" stroke="#000" points="198 -60 144 -60 144 -24 198 -24 198 -60"/><text x="171" y="-39.5" font-family="Helvetica,sans-Serif" font-size="10" text-anchor="middle">support</text></a></g></g><g id="edge2" class="edge"><title>dir_541ebbb21ca179b54b469d645ff46bd9-&gt;dir_5815af820a9cc9481f1d0990a0d60286</title><path fill="none" stroke="#000" d="M96.2181,-95.8761C108.923,-86.8931 124.664,-75.7625 138.423,-66.0341"/><polygon fill="#000" stroke="#000" points="140.544 -68.821 146.689 -60.19 136.503 -63.105 140.544 -68.821"/><g id="a_edge2-headlabel"><a target="_top" xlink:href="dir_000012_000150.xhtml" xlink:title="1"><text x="139.248" y="-70.714" font-family="Helvetica,sans-Serif" font-size="10" text-anchor="middle">1</text></a></g></g></g></svg>