<svg xmlns="http://www.w3.org/2000/svg" xmlns:xlink="http://www.w3.org/1999/xlink" width="94pt" height="151pt" viewBox="0 0 94 151"><g id="graph0" class="graph" transform="scale(1 1) rotate(0) translate(4 147)"><title>src/core/CL/gemm/native</title><polygon fill="#fff" stroke="none" points="-4 4 -4 -147 90 -147 90 4 -4 4"/><g id="clust1" class="cluster"><title>clusterdir_acedbc3c1c025eedca19641ef7b62820</title><g id="a_clust1"><a target="_top" xlink:href="dir_acedbc3c1c025eedca19641ef7b62820.xhtml" xlink:title="gemm"><polygon fill="#dde" stroke="#000" points="8 -64 8 -135 78 -135 78 -64 8 -64"/><text x="43" y="-123" font-family="Helvetica,sans-Serif" font-size="10" text-anchor="middle">gemm</text></a></g></g><g id="node1" class="node"><title>dir_cfd0d3343ca74c445c880307c95c1494</title><g id="a_node1"><a target="_top" xlink:href="dir_cfd0d3343ca74c445c880307c95c1494.xhtml" xlink:title="native"><polygon fill="#eef" stroke="#000" points="70 -108 16 -108 16 -72 70 -72 70 -108"/><text x="43" y="-87.5" font-family="Helvetica,sans-Serif" font-size="10" text-anchor="middle">native</text></a></g></g><g id="node2" class="node"><title>dir_214608ef36d61442cb2b0c1c4e9a7def</title><g id="a_node2"><a target="_top" xlink:href="dir_214608ef36d61442cb2b0c1c4e9a7def.xhtml" xlink:title="arm_compute"><polygon fill="#fff" stroke="red" points="85 -36 1 -36 1 0 85 0 85 -36"/><text x="43" y="-15.5" font-family="Helvetica,sans-Serif" font-size="10" text-anchor="middle">arm_compute</text></a></g></g><g id="edge1" class="edge"><title>dir_cfd0d3343ca74c445c880307c95c1494-&gt;dir_214608ef36d61442cb2b0c1c4e9a7def</title><path fill="none" stroke="#000" d="M43,-71.6966C43,-63.9827 43,-54.7125 43,-46.1124"/><polygon fill="#000" stroke="#000" points="46.5 -46.104 43 -36.104 39.5 -46.104 46.5 -46.104"/><g id="a_edge1-headlabel"><a target="_top" xlink:href="dir_000063_000000.xhtml" xlink:title="5"><text x="49.339" y="-47.199" font-family="Helvetica,sans-Serif" font-size="10" text-anchor="middle">5</text></a></g></g></g></svg>