<svg xmlns="http://www.w3.org/2000/svg" xmlns:xlink="http://www.w3.org/1999/xlink" width="94pt" height="151pt" viewBox="0 0 94 151"><g id="graph0" class="graph" transform="scale(1 1) rotate(0) translate(4 147)"><title>src/graph/detail</title><polygon fill="#fff" stroke="none" points="-4 4 -4 -147 90 -147 90 4 -4 4"/><g id="clust1" class="cluster"><title>clusterdir_d182250f0c231765fc862e69db210731</title><g id="a_clust1"><a target="_top" xlink:href="dir_d182250f0c231765fc862e69db210731.xhtml" xlink:title="graph"><polygon fill="#dde" stroke="#000" points="8 -64 8 -135 78 -135 78 -64 8 -64"/><text x="43" y="-123" font-family="Helvetica,sans-Serif" font-size="10" text-anchor="middle">graph</text></a></g></g><g id="node1" class="node"><title>dir_860cb336d74994b1303832ed3557228e</title><g id="a_node1"><a target="_top" xlink:href="dir_860cb336d74994b1303832ed3557228e.xhtml" xlink:title="detail"><polygon fill="#eef" stroke="#000" points="70 -108 16 -108 16 -72 70 -72 70 -108"/><text x="43" y="-87.5" font-family="Helvetica,sans-Serif" font-size="10" text-anchor="middle">detail</text></a></g></g><g id="node2" class="node"><title>dir_214608ef36d61442cb2b0c1c4e9a7def</title><g id="a_node2"><a target="_top" xlink:href="dir_214608ef36d61442cb2b0c1c4e9a7def.xhtml" xlink:title="arm_compute"><polygon fill="#fff" stroke="red" points="85 -36 1 -36 1 0 85 0 85 -36"/><text x="43" y="-15.5" font-family="Helvetica,sans-Serif" font-size="10" text-anchor="middle">arm_compute</text></a></g></g><g id="edge1" class="edge"><title>dir_860cb336d74994b1303832ed3557228e-&gt;dir_214608ef36d61442cb2b0c1c4e9a7def</title><path fill="none" stroke="#000" d="M43,-71.6966C43,-63.9827 43,-54.7125 43,-46.1124"/><polygon fill="#000" stroke="#000" points="46.5 -46.104 43 -36.104 39.5 -46.104 46.5 -46.104"/><g id="a_edge1-headlabel"><a target="_top" xlink:href="dir_000131_000000.xhtml" xlink:title="16"><text x="49.339" y="-47.199" font-family="Helvetica,sans-Serif" font-size="10" text-anchor="middle">16</text></a></g></g></g></svg>