<svg xmlns="http://www.w3.org/2000/svg" xmlns:xlink="http://www.w3.org/1999/xlink" width="94pt" height="151pt" viewBox="0 0 94 151"><g id="graph0" class="graph" transform="scale(1 1) rotate(0) translate(4 147)"><title>tests/framework/printers</title><polygon fill="#fff" stroke="none" points="-4 4 -4 -147 90 -147 90 4 -4 4"/><g id="clust1" class="cluster"><title>clusterdir_9e71e2da941d3cafc4d98a9f6ae3de4f</title><g id="a_clust1"><a target="_top" xlink:href="dir_9e71e2da941d3cafc4d98a9f6ae3de4f.xhtml" xlink:title="framework"><polygon fill="#dde" stroke="#000" points="8 -64 8 -135 78 -135 78 -64 8 -64"/><text x="43" y="-123" font-family="Helvetica,sans-Serif" font-size="10" text-anchor="middle">framework</text></a></g></g><g id="node1" class="node"><title>dir_68cb0bded1cc5601c88ddaacbb31e482</title><g id="a_node1"><a target="_top" xlink:href="dir_68cb0bded1cc5601c88ddaacbb31e482.xhtml" xlink:title="printers"><polygon fill="#eef" stroke="#000" points="70 -108 16 -108 16 -72 70 -72 70 -108"/><text x="43" y="-87.5" font-family="Helvetica,sans-Serif" font-size="10" text-anchor="middle">printers</text></a></g></g><g id="node2" class="node"><title>dir_4efd0ee2ecda32567e74991b08d544ea</title><g id="a_node2"><a target="_top" xlink:href="dir_4efd0ee2ecda32567e74991b08d544ea.xhtml" xlink:title="instruments"><polygon fill="none" stroke="#000" points="80 -36 6 -36 6 0 80 0 80 -36"/><text x="43" y="-15.5" font-family="Helvetica,sans-Serif" font-size="10" text-anchor="middle">instruments</text></a></g></g><g id="edge1" class="edge"><title>dir_68cb0bded1cc5601c88ddaacbb31e482-&gt;dir_4efd0ee2ecda32567e74991b08d544ea</title><path fill="none" stroke="#000" d="M43,-71.6966C43,-63.9827 43,-54.7125 43,-46.1124"/><polygon fill="#000" stroke="#000" points="46.5 -46.104 43 -36.104 39.5 -46.104 46.5 -46.104"/><g id="a_edge1-headlabel"><a target="_top" xlink:href="dir_000038_000156.xhtml" xlink:title="3"><text x="49.339" y="-47.199" font-family="Helvetica,sans-Serif" font-size="10" text-anchor="middle">3</text></a></g></g></g></svg>