<svg xmlns="http://www.w3.org/2000/svg" xmlns:xlink="http://www.w3.org/1999/xlink" width="260pt" height="404" viewBox="0 0 260 303"><g id="graph0" class="graph" transform="scale(1 1) rotate(0) translate(4 299)"><title>src/runtime/CL</title><polygon fill="#fff" stroke="none" points="-4 4 -4 -299 256 -299 256 4 -4 4"/><g id="clust1" class="cluster"><title>clusterdir_bf9f26469d00835ba20ff8d80ee5a804</title><g id="a_clust1"><a target="_top" xlink:href="dir_bf9f26469d00835ba20ff8d80ee5a804.xhtml" xlink:title="runtime"><polygon fill="#dde" stroke="#000" points="8 -200 8 -287 244 -287 244 -200 8 -200"/><text x="126" y="-275" font-family="Helvetica,sans-Serif" font-size="10" text-anchor="middle">runtime</text></a></g></g><g id="clust2" class="cluster"><title>clusterdir_43c3fdbf778d1fd99e2e38f09fddd920</title><g id="a_clust2"><a target="_top" xlink:href="dir_43c3fdbf778d1fd99e2e38f09fddd920.xhtml"><polygon fill="#eef" stroke="#000" points="16 -208 16 -260 236 -260 236 -208 16 -208"/></a></g></g><g id="node1" class="node"><title>dir_43c3fdbf778d1fd99e2e38f09fddd920</title><text x="51" y="-231.5" font-family="Helvetica,sans-Serif" font-size="10" text-anchor="middle">CL</text></g><g id="node5" class="node"><title>dir_214608ef36d61442cb2b0c1c4e9a7def</title><g id="a_node5"><a target="_top" xlink:href="dir_214608ef36d61442cb2b0c1c4e9a7def.xhtml" xlink:title="arm_compute"><polygon fill="#fff" stroke="red" points="164 -180 80 -180 80 -144 164 -144 164 -180"/><text x="122" y="-159.5" font-family="Helvetica,sans-Serif" font-size="10" text-anchor="middle">arm_compute</text></a></g></g><g id="edge9" class="edge"><title>dir_43c3fdbf778d1fd99e2e38f09fddd920-&gt;dir_214608ef36d61442cb2b0c1c4e9a7def</title><path fill="none" stroke="#000" d="M68.5506,-215.697C77.2345,-207.135 87.863,-196.656 97.3483,-187.304"/><polygon fill="#000" stroke="#000" points="99.987 -189.617 104.651 -180.104 95.073 -184.633 99.987 -189.617"/><g id="a_edge9-headlabel"><a target="_top" xlink:href="dir_000061_000000.xhtml" xlink:title="681"><text x="99.421" y="-191.663" font-family="Helvetica,sans-Serif" font-size="10" text-anchor="middle">681</text></a></g></g><g id="node6" class="node"><title>dir_5815af820a9cc9481f1d0990a0d60286</title><g id="a_node6"><a target="_top" xlink:href="dir_5815af820a9cc9481f1d0990a0d60286.xhtml" xlink:title="support"><polygon fill="none" stroke="#000" points="159 -36 105 -36 105 0 159 0 159 -36"/><text x="132" y="-15.5" font-family="Helvetica,sans-Serif" font-size="10" text-anchor="middle">support</text></a></g></g><g id="edge10" class="edge"><title>dir_43c3fdbf778d1fd99e2e38f09fddd920-&gt;dir_5815af820a9cc9481f1d0990a0d60286</title><path fill="none" stroke="#000" d="M53.6162,-215.941C56.6809,-197.779 62.4517,-168.357 71,-144 83.4796,-108.441 103.413,-69.7825 117.075,-45.0185"/><polygon fill="#000" stroke="#000" points="120.156 -46.681 121.975 -36.243 114.044 -43.268 120.156 -46.681"/><g id="a_edge10-headlabel"><a target="_top" xlink:href="dir_000061_000150.xhtml" xlink:title="84"><text x="120.882" y="-48.703" font-family="Helvetica,sans-Serif" font-size="10" text-anchor="middle">84</text></a></g></g><g id="node2" class="node"><title>dir_0304d3529340c629ae0050036d07056a</title><g id="a_node2"><a target="_top" xlink:href="dir_0304d3529340c629ae0050036d07056a.xhtml" xlink:title="functions"><polygon fill="#fff" stroke="#000" points="228 -252 168 -252 168 -216 228 -216 228 -252"/><text x="198" y="-231.5" font-family="Helvetica,sans-Serif" font-size="10" text-anchor="middle">functions</text></a></g></g><g id="node4" class="node"><title>dir_cbdb8362360e11eafe2fa3bc74cf0ffd</title><g id="a_node4"><a target="_top" xlink:href="dir_cbdb8362360e11eafe2fa3bc74cf0ffd.xhtml" xlink:title="utils"><polygon fill="#fff" stroke="red" points="187 -108 133 -108 133 -72 187 -72 187 -108"/><text x="160" y="-87.5" font-family="Helvetica,sans-Serif" font-size="10" text-anchor="middle">utils</text></a></g></g><g id="edge6" class="edge"><title>dir_0304d3529340c629ae0050036d07056a-&gt;dir_cbdb8362360e11eafe2fa3bc74cf0ffd</title><path fill="none" stroke="#000" d="M193.416,-215.871C186.911,-191.564 174.937,-146.819 167.229,-118.013"/><polygon fill="#000" stroke="#000" points="170.566 -116.945 164.6 -108.189 163.804 -118.754 170.566 -116.945"/><g id="a_edge6-headlabel"><a target="_top" xlink:href="dir_000138_000034.xhtml" xlink:title="1"><text x="174.238" y="-117.183" font-family="Helvetica,sans-Serif" font-size="10" text-anchor="middle">1</text></a></g></g><g id="edge7" class="edge"><title>dir_0304d3529340c629ae0050036d07056a-&gt;dir_214608ef36d61442cb2b0c1c4e9a7def</title><path fill="none" stroke="#000" d="M179.213,-215.697C169.826,-207.05 158.316,-196.449 148.087,-187.027"/><polygon fill="#000" stroke="#000" points="150.297 -184.305 140.57 -180.104 145.555 -189.454 150.297 -184.305"/><g id="a_edge7-headlabel"><a target="_top" xlink:href="dir_000138_000000.xhtml" xlink:title="610"><text x="154.865" y="-182.152" font-family="Helvetica,sans-Serif" font-size="10" text-anchor="middle">610</text></a></g></g><g id="edge8" class="edge"><title>dir_0304d3529340c629ae0050036d07056a-&gt;dir_5815af820a9cc9481f1d0990a0d60286</title><path fill="none" stroke="#000" d="M202.236,-215.97C208.909,-185.395 218.9,-119.921 196,-72 189.743,-58.9071 178.523,-47.9208 167.205,-39.4069"/><polygon fill="#000" stroke="#000" points="169.21 -36.538 159.017 -33.65 165.184 -42.264 169.21 -36.538"/><g id="a_edge8-headlabel"><a target="_top" xlink:href="dir_000138_000150.xhtml" xlink:title="81"><text x="173.784" y="-33.783" font-family="Helvetica,sans-Serif" font-size="10" text-anchor="middle">81</text></a></g></g><g id="node3" class="node"><title>dir_50c9c9ef2ed96b9f05a6a6f40f0f5c9e</title><g id="a_node3"><a target="_top" xlink:href="dir_50c9c9ef2ed96b9f05a6a6f40f0f5c9e.xhtml" xlink:title="tuners"><polygon fill="#fff" stroke="#000" points="150 -252 96 -252 96 -216 150 -216 150 -252"/><text x="123" y="-231.5" font-family="Helvetica,sans-Serif" font-size="10" text-anchor="middle">tuners</text></a></g></g><g id="edge1" class="edge"><title>dir_50c9c9ef2ed96b9f05a6a6f40f0f5c9e-&gt;dir_214608ef36d61442cb2b0c1c4e9a7def</title><path fill="none" stroke="#000" d="M122.753,-215.697C122.643,-207.983 122.51,-198.712 122.387,-190.112"/><polygon fill="#000" stroke="#000" points="125.887 -190.053 122.244 -180.104 118.888 -190.153 125.887 -190.053"/><g id="a_edge1-headlabel"><a target="_top" xlink:href="dir_000139_000000.xhtml" xlink:title="9"><text x="128.777" y="-191.107" font-family="Helvetica,sans-Serif" font-size="10" text-anchor="middle">9</text></a></g></g><g id="edge2" class="edge"><title>dir_cbdb8362360e11eafe2fa3bc74cf0ffd-&gt;dir_214608ef36d61442cb2b0c1c4e9a7def</title><path fill="none" stroke="#000" d="M156.61,-108.104C153.057,-116.214 147.92,-126.076 142.616,-135.078"/><polygon fill="#000" stroke="#000" points="139.572 -133.346 137.309 -143.697 145.533 -137.017 139.572 -133.346"/><g id="a_edge2-headlabel"><a target="_top" xlink:href="dir_000034_000000.xhtml" xlink:title="37"><text x="139.039" y="-126.297" font-family="Helvetica,sans-Serif" font-size="10" text-anchor="middle">37</text></a></g></g><g id="edge3" class="edge"><title>dir_cbdb8362360e11eafe2fa3bc74cf0ffd-&gt;dir_5815af820a9cc9481f1d0990a0d60286</title><path fill="none" stroke="#000" d="M153.079,-71.6966C149.925,-63.8132 146.122,-54.3042 142.619,-45.5464"/><polygon fill="#000" stroke="#000" points="145.805 -44.089 138.842 -36.104 139.306 -46.689 145.805 -44.089"/><g id="a_edge3-headlabel"><a target="_top" xlink:href="dir_000034_000150.xhtml" xlink:title="3"><text x="149.777" y="-43.872" font-family="Helvetica,sans-Serif" font-size="10" text-anchor="middle">3</text></a></g></g><g id="edge4" class="edge"><title>dir_214608ef36d61442cb2b0c1c4e9a7def-&gt;dir_cbdb8362360e11eafe2fa3bc74cf0ffd</title><path fill="none" stroke="#000" d="M125.478,-143.697C129.056,-135.559 134.208,-125.689 139.514,-116.701"/><polygon fill="#000" stroke="#000" points="142.546 -118.452 144.82 -108.104 136.589 -114.776 142.546 -118.452"/><g id="a_edge4-headlabel"><a target="_top" xlink:href="dir_000000_000034.xhtml" xlink:title="1"><text x="143.075" y="-120.502" font-family="Helvetica,sans-Serif" font-size="10" text-anchor="middle">1</text></a></g></g><g id="edge5" class="edge"><title>dir_214608ef36d61442cb2b0c1c4e9a7def-&gt;dir_5815af820a9cc9481f1d0990a0d60286</title><path fill="none" stroke="#000" d="M121.74,-143.903C121.617,-125.959 121.846,-96.9447 124,-72 124.732,-63.5256 125.961,-54.346 127.239,-46.0451"/><polygon fill="#000" stroke="#000" points="130.702 -46.551 128.85 -36.12 123.793 -45.43 130.702 -46.551"/><g id="a_edge5-headlabel"><a target="_top" xlink:href="dir_000000_000150.xhtml" xlink:title="22"><text x="132.929" y="-48.055" font-family="Helvetica,sans-Serif" font-size="10" text-anchor="middle">22</text></a></g></g></g></svg>