<svg xmlns="http://www.w3.org/2000/svg" xmlns:xlink="http://www.w3.org/1999/xlink" width="145pt" height="368" viewBox="0 0 145 276"><g id="graph0" class="graph" transform="scale(1 1) rotate(0) translate(4 272)"><title>utils</title><polygon fill="#fff" stroke="none" points="-4 4 -4 -272 141 -272 141 4 -4 4"/><g id="clust1" class="cluster"><title>clusterdir_cbdb8362360e11eafe2fa3bc74cf0ffd</title><g id="a_clust1"><a target="_top" xlink:href="dir_cbdb8362360e11eafe2fa3bc74cf0ffd.xhtml"><polygon fill="#eef" stroke="#000" points="25 -136 25 -260 129 -260 129 -136 25 -136"/></a></g></g><g id="node1" class="node"><title>dir_cbdb8362360e11eafe2fa3bc74cf0ffd</title><text x="77" y="-231.5" font-family="Helvetica,sans-Serif" font-size="10" text-anchor="middle">utils</text></g><g id="node2" class="node"><title>dir_7e20423ab48dcd11e2e5380033c0b7a2</title><g id="a_node2"><a target="_top" xlink:href="dir_7e20423ab48dcd11e2e5380033c0b7a2.xhtml" xlink:title="command_line"><polygon fill="#fff" stroke="#000" points="120.5 -180 33.5 -180 33.5 -144 120.5 -144 120.5 -180"/><text x="77" y="-159.5" font-family="Helvetica,sans-Serif" font-size="10" text-anchor="middle">command_line</text></a></g></g><g id="edge1" class="edge"><title>dir_cbdb8362360e11eafe2fa3bc74cf0ffd-&gt;dir_7e20423ab48dcd11e2e5380033c0b7a2</title><path fill="none" stroke="#000" d="M77,-215.697C77,-207.983 77,-198.712 77,-190.112"/><polygon fill="#000" stroke="#000" points="80.5 -190.104 77 -180.104 73.5 -190.104 80.5 -190.104"/><g id="a_edge1-headlabel"><a target="_top" xlink:href="dir_000034_000159.xhtml" xlink:title="2"><text x="83.339" y="-191.199" font-family="Helvetica,sans-Serif" font-size="10" text-anchor="middle">2</text></a></g></g><g id="node3" class="node"><title>dir_214608ef36d61442cb2b0c1c4e9a7def</title><g id="a_node3"><a target="_top" xlink:href="dir_214608ef36d61442cb2b0c1c4e9a7def.xhtml" xlink:title="arm_compute"><polygon fill="#fff" stroke="red" points="84 -108 0 -108 0 -72 84 -72 84 -108"/><text x="42" y="-87.5" font-family="Helvetica,sans-Serif" font-size="10" text-anchor="middle">arm_compute</text></a></g></g><g id="edge2" class="edge"><title>dir_7e20423ab48dcd11e2e5380033c0b7a2-&gt;dir_214608ef36d61442cb2b0c1c4e9a7def</title><path fill="none" stroke="#000" d="M68.3483,-143.697C64.3642,-135.728 59.5498,-126.1 55.1321,-117.264"/><polygon fill="#000" stroke="#000" points="58.155 -115.483 50.552 -108.104 51.894 -118.614 58.155 -115.483"/><g id="a_edge2-headlabel"><a target="_top" xlink:href="dir_000159_000000.xhtml" xlink:title="1"><text x="62.302" y="-114.929" font-family="Helvetica,sans-Serif" font-size="10" text-anchor="middle">1</text></a></g></g><g id="node4" class="node"><title>dir_5815af820a9cc9481f1d0990a0d60286</title><g id="a_node4"><a target="_top" xlink:href="dir_5815af820a9cc9481f1d0990a0d60286.xhtml" xlink:title="support"><polygon fill="none" stroke="#000" points="104 -36 50 -36 50 0 104 0 104 -36"/><text x="77" y="-15.5" font-family="Helvetica,sans-Serif" font-size="10" text-anchor="middle">support</text></a></g></g><g id="edge3" class="edge"><title>dir_7e20423ab48dcd11e2e5380033c0b7a2-&gt;dir_5815af820a9cc9481f1d0990a0d60286</title><path fill="none" stroke="#000" d="M83.6522,-143.628C87.2029,-133.421 91.2029,-120.171 93,-108 95.3371,-92.1716 95.3371,-87.8284 93,-72 91.7224,-63.3473 89.3314,-54.1492 86.7799,-45.8867"/><polygon fill="#000" stroke="#000" points="90.1 -44.779 83.652 -36.372 83.45 -46.965 90.1 -44.779"/><g id="a_edge3-headlabel"><a target="_top" xlink:href="dir_000159_000150.xhtml" xlink:title="1"><text x="93.92" y="-44.807" font-family="Helvetica,sans-Serif" font-size="10" text-anchor="middle">1</text></a></g></g><g id="edge4" class="edge"><title>dir_214608ef36d61442cb2b0c1c4e9a7def-&gt;dir_5815af820a9cc9481f1d0990a0d60286</title><path fill="none" stroke="#000" d="M50.6517,-71.6966C54.6358,-63.7284 59.4502,-54.0995 63.8679,-45.2641"/><polygon fill="#000" stroke="#000" points="67.106 -46.614 68.448 -36.104 60.845 -43.483 67.106 -46.614"/><g id="a_edge4-headlabel"><a target="_top" xlink:href="dir_000000_000150.xhtml" xlink:title="22"><text x="68.038" y="-48.599" font-family="Helvetica,sans-Serif" font-size="10" text-anchor="middle">22</text></a></g></g></g></svg>