<svg xmlns="http://www.w3.org/2000/svg" xmlns:xlink="http://www.w3.org/1999/xlink" width="196" height="260pt" viewBox="0 0 147 260"><g id="graph0" class="graph" transform="scale(1 1) rotate(0) translate(4 256)"><title>examples</title><polygon fill="#fff" stroke="none" points="-4 4 -4 -256 143 -256 143 4 -4 4"/><g id="node1" class="node"><title>dir_d28a4824dc47e487b107a5db32ef43c4</title><g id="a_node1"><a target="_top" xlink:href="dir_d28a4824dc47e487b107a5db32ef43c4.xhtml" xlink:title="examples"><polygon fill="#eef" stroke="#000" points="126.5 -252 63.5 -252 63.5 -216 126.5 -216 126.5 -252"/><text x="95" y="-231.5" font-family="Helvetica,sans-Serif" font-size="10" text-anchor="middle">examples</text></a></g></g><g id="node2" class="node"><title>dir_cbdb8362360e11eafe2fa3bc74cf0ffd</title><g id="a_node2"><a target="_top" xlink:href="dir_cbdb8362360e11eafe2fa3bc74cf0ffd.xhtml" xlink:title="utils"><polygon fill="#fff" stroke="red" points="122 -180 68 -180 68 -144 122 -144 122 -180"/><text x="95" y="-159.5" font-family="Helvetica,sans-Serif" font-size="10" text-anchor="middle">utils</text></a></g></g><g id="edge1" class="edge"><title>dir_d28a4824dc47e487b107a5db32ef43c4-&gt;dir_cbdb8362360e11eafe2fa3bc74cf0ffd</title><path fill="none" stroke="#000" d="M95,-215.697C95,-207.983 95,-198.712 95,-190.112"/><polygon fill="#000" stroke="#000" points="98.5 -190.104 95 -180.104 91.5 -190.104 98.5 -190.104"/><g id="a_edge1-headlabel"><a target="_top" xlink:href="dir_000059_000034.xhtml" xlink:title="92"><text x="101.339" y="-191.199" font-family="Helvetica,sans-Serif" font-size="10" text-anchor="middle">92</text></a></g></g><g id="node3" class="node"><title>dir_214608ef36d61442cb2b0c1c4e9a7def</title><g id="a_node3"><a target="_top" xlink:href="dir_214608ef36d61442cb2b0c1c4e9a7def.xhtml" xlink:title="arm_compute"><polygon fill="#fff" stroke="red" points="84 -108 0 -108 0 -72 84 -72 84 -108"/><text x="42" y="-87.5" font-family="Helvetica,sans-Serif" font-size="10" text-anchor="middle">arm_compute</text></a></g></g><g id="edge2" class="edge"><title>dir_d28a4824dc47e487b107a5db32ef43c4-&gt;dir_214608ef36d61442cb2b0c1c4e9a7def</title><path fill="none" stroke="#000" d="M80.7274,-215.896C73.1682,-205.99 64.3635,-192.949 59,-180 50.8358,-160.29 46.5507,-136.485 44.326,-118.456"/><polygon fill="#000" stroke="#000" points="47.784 -117.883 43.216 -108.324 40.826 -118.646 47.784 -117.883"/><g id="a_edge2-headlabel"><a target="_top" xlink:href="dir_000059_000000.xhtml" xlink:title="68"><text x="50.998" y="-118.647" font-family="Helvetica,sans-Serif" font-size="10" text-anchor="middle">68</text></a></g></g><g id="node4" class="node"><title>dir_5815af820a9cc9481f1d0990a0d60286</title><g id="a_node4"><a target="_top" xlink:href="dir_5815af820a9cc9481f1d0990a0d60286.xhtml" xlink:title="support"><polygon fill="none" stroke="#000" points="139 -36 85 -36 85 0 139 0 139 -36"/><text x="112" y="-15.5" font-family="Helvetica,sans-Serif" font-size="10" text-anchor="middle">support</text></a></g></g><g id="edge3" class="edge"><title>dir_d28a4824dc47e487b107a5db32ef43c4-&gt;dir_5815af820a9cc9481f1d0990a0d60286</title><path fill="none" stroke="#000" d="M110.61,-215.774C118.373,-206.03 126.946,-193.184 131,-180 145.034,-134.363 132.125,-78.5118 121.819,-46.0233"/><polygon fill="#000" stroke="#000" points="125.076 -44.725 118.602 -36.339 118.433 -46.932 125.076 -44.725"/><g id="a_edge3-headlabel"><a target="_top" xlink:href="dir_000059_000150.xhtml" xlink:title="23"><text x="128.903" y="-44.742" font-family="Helvetica,sans-Serif" font-size="10" text-anchor="middle">23</text></a></g></g><g id="edge4" class="edge"><title>dir_cbdb8362360e11eafe2fa3bc74cf0ffd-&gt;dir_214608ef36d61442cb2b0c1c4e9a7def</title><path fill="none" stroke="#000" d="M75.9831,-143.697C68.9094,-135.474 61.1434,-125.483 54.727,-116.421"/><polygon fill="#000" stroke="#000" points="57.581 -114.394 49.055 -108.104 51.798 -118.338 57.581 -114.394"/><g id="a_edge4-headlabel"><a target="_top" xlink:href="dir_000034_000000.xhtml" xlink:title="37"><text x="61.952" y="-113.264" font-family="Helvetica,sans-Serif" font-size="10" text-anchor="middle">37</text></a></g></g><g id="edge5" class="edge"><title>dir_cbdb8362360e11eafe2fa3bc74cf0ffd-&gt;dir_5815af820a9cc9481f1d0990a0d60286</title><path fill="none" stroke="#000" d="M97.0506,-143.871C99.9479,-119.67 105.271,-75.2108 108.721,-46.3932"/><polygon fill="#000" stroke="#000" points="112.229 -46.534 109.942 -36.189 105.278 -45.702 112.229 -46.534"/><g id="a_edge5-headlabel"><a target="_top" xlink:href="dir_000034_000150.xhtml" xlink:title="3"><text x="114.62" y="-47.941" font-family="Helvetica,sans-Serif" font-size="10" text-anchor="middle">3</text></a></g></g><g id="edge6" class="edge"><title>dir_214608ef36d61442cb2b0c1c4e9a7def-&gt;dir_cbdb8362360e11eafe2fa3bc74cf0ffd</title><path fill="none" stroke="#000" d="M60.8455,-108.104C67.9079,-116.298 75.6791,-126.282 82.1171,-135.359"/><polygon fill="#000" stroke="#000" points="79.283 -137.415 87.815 -143.697 85.062 -133.466 79.283 -137.415"/><g id="a_edge6-headlabel"><a target="_top" xlink:href="dir_000000_000034.xhtml" xlink:title="1"><text x="74.91" y="-133.549" font-family="Helvetica,sans-Serif" font-size="10" text-anchor="middle">1</text></a></g></g><g id="edge7" class="edge"><title>dir_214608ef36d61442cb2b0c1c4e9a7def-&gt;dir_5815af820a9cc9481f1d0990a0d60286</title><path fill="none" stroke="#000" d="M59.3034,-71.6966C67.865,-63.135 78.3438,-52.6562 87.6955,-43.3045"/><polygon fill="#000" stroke="#000" points="90.299 -45.65 94.896 -36.104 85.35 -40.7 90.299 -45.65"/><g id="a_edge7-headlabel"><a target="_top" xlink:href="dir_000000_000150.xhtml" xlink:title="22"><text x="89.765" y="-47.7" font-family="Helvetica,sans-Serif" font-size="10" text-anchor="middle">22</text></a></g></g></g></svg>