<svg xmlns="http://www.w3.org/2000/svg" xmlns:xlink="http://www.w3.org/1999/xlink" width="98pt" height="151pt" viewBox="0 0 98 151"><g id="graph0" class="graph" transform="scale(1 1) rotate(0) translate(4 147)"><title>arm_compute/graph/frontend</title><polygon fill="#fff" stroke="none" points="-4 4 -4 -147 94 -147 94 4 -4 4"/><g id="clust1" class="cluster"><title>clusterdir_99ae3712d1eecd2a93fc4d38b59a99ba</title><g id="a_clust1"><a target="_top" xlink:href="dir_99ae3712d1eecd2a93fc4d38b59a99ba.xhtml" xlink:title="graph"><polygon fill="#dde" stroke="#000" points="8 -64 8 -135 82 -135 82 -64 8 -64"/><text x="45" y="-123" font-family="Helvetica,sans-Serif" font-size="10" text-anchor="middle">graph</text></a></g></g><g id="node1" class="node"><title>dir_7526be4d1cfecb7bc660fdbdb8633223</title><g id="a_node1"><a target="_top" xlink:href="dir_7526be4d1cfecb7bc660fdbdb8633223.xhtml" xlink:title="frontend"><polygon fill="#eef" stroke="#000" points="73.5 -108 16.5 -108 16.5 -72 73.5 -72 73.5 -108"/><text x="45" y="-87.5" font-family="Helvetica,sans-Serif" font-size="10" text-anchor="middle">frontend</text></a></g></g><g id="node2" class="node"><title>dir_1fb090f0c6070330bfaccc4236d3ca0d</title><g id="a_node2"><a target="_top" xlink:href="dir_1fb090f0c6070330bfaccc4236d3ca0d.xhtml" xlink:title="core"><polygon fill="#fff" stroke="red" points="72 -36 18 -36 18 0 72 0 72 -36"/><text x="45" y="-15.5" font-family="Helvetica,sans-Serif" font-size="10" text-anchor="middle">core</text></a></g></g><g id="edge1" class="edge"><title>dir_7526be4d1cfecb7bc660fdbdb8633223-&gt;dir_1fb090f0c6070330bfaccc4236d3ca0d</title><path fill="none" stroke="#000" d="M45,-71.6966C45,-63.9827 45,-54.7125 45,-46.1124"/><polygon fill="#000" stroke="#000" points="48.5 -46.104 45 -36.104 41.5 -46.104 48.5 -46.104"/><g id="a_edge1-headlabel"><a target="_top" xlink:href="dir_000030_000001.xhtml" xlink:title="1"><text x="51.339" y="-47.199" font-family="Helvetica,sans-Serif" font-size="10" text-anchor="middle">1</text></a></g></g></g></svg>