<svg xmlns="http://www.w3.org/2000/svg" xmlns:xlink="http://www.w3.org/1999/xlink" width="566pt" height="250pt" viewBox="0 0 566 250.06"><g id="graph0" class="graph" transform="scale(1 1) rotate(0) translate(4 246.055)"><title>src/core</title><polygon fill="#fff" stroke="none" points="-4 4 -4 -246.055 562 -246.055 562 4 -4 4"/><g id="clust1" class="cluster"><title>clusterdir_68267d1309a1af8e8297ef4c3efbcdba</title><g id="a_clust1"><a target="_top" xlink:href="dir_68267d1309a1af8e8297ef4c3efbcdba.xhtml" xlink:title="src"><polygon fill="#dde" stroke="#000" points="8 -128 8 -215 496 -215 496 -128 8 -128"/><text x="252" y="-203" font-family="Helvetica,sans-Serif" font-size="10" text-anchor="middle">src</text></a></g></g><g id="clust2" class="cluster"><title>clusterdir_aebb8dcc11953d78e620bbef0b9e2183</title><g id="a_clust2"><a target="_top" xlink:href="dir_aebb8dcc11953d78e620bbef0b9e2183.xhtml"><polygon fill="#eef" stroke="#000" points="16 -136 16 -188 488 -188 488 -136 16 -136"/></a></g></g><g id="node1" class="node"><title>dir_aebb8dcc11953d78e620bbef0b9e2183</title><text x="51" y="-159.5" font-family="Helvetica,sans-Serif" font-size="10" text-anchor="middle">core</text></g><g id="node9" class="node"><title>dir_5815af820a9cc9481f1d0990a0d60286</title><g id="a_node9"><a target="_top" xlink:href="dir_5815af820a9cc9481f1d0990a0d60286.xhtml" xlink:title="support"><polygon fill="none" stroke="#000" points="311 -36 257 -36 257 0 311 0 311 -36"/><text x="284" y="-15.5" font-family="Helvetica,sans-Serif" font-size="10" text-anchor="middle">support</text></a></g></g><g id="edge14" class="edge"><title>dir_aebb8dcc11953d78e620bbef0b9e2183-&gt;dir_5815af820a9cc9481f1d0990a0d60286</title><path fill="none" stroke="#000" d="M68.3485,-143.832C74.082,-138.508 80.6283,-132.787 87,-128 138.93,-88.9821 206.452,-54.6901 247.441,-35.4297"/><polygon fill="#000" stroke="#000" points="249.174 -38.483 256.766 -31.093 246.222 -32.136 249.174 -38.483"/><g id="a_edge14-headlabel"><a target="_top" xlink:href="dir_000017_000150.xhtml" xlink:title="65"><text x="247.113" y="-40.074" font-family="Helvetica,sans-Serif" font-size="10" text-anchor="middle">65</text></a></g></g><g id="node2" class="node"><title>dir_8c278f79c760e5c5fbd911f9870614c1</title><g id="a_node2"><a target="_top" xlink:href="dir_8c278f79c760e5c5fbd911f9870614c1.xhtml" xlink:title="CL"><polygon fill="#fff" stroke="red" points="150 -180 96 -180 96 -144 150 -144 150 -180"/><text x="123" y="-159.5" font-family="Helvetica,sans-Serif" font-size="10" text-anchor="middle">CL</text></a></g></g><g id="node8" class="node"><title>dir_214608ef36d61442cb2b0c1c4e9a7def</title><g id="a_node8"><a target="_top" xlink:href="dir_214608ef36d61442cb2b0c1c4e9a7def.xhtml" xlink:title="arm_compute"><polygon fill="#fff" stroke="red" points="361 -108 277 -108 277 -72 361 -72 361 -108"/><text x="319" y="-87.5" font-family="Helvetica,sans-Serif" font-size="10" text-anchor="middle">arm_compute</text></a></g></g><g id="edge1" class="edge"><title>dir_8c278f79c760e5c5fbd911f9870614c1-&gt;dir_214608ef36d61442cb2b0c1c4e9a7def</title><path fill="none" stroke="#000" d="M138.101,-143.916C144.078,-138.086 151.348,-132.029 159,-128 192.464,-110.382 234.205,-101.088 266.662,-96.2217"/><polygon fill="#000" stroke="#000" points="267.434 -99.648 276.851 -94.792 266.462 -92.716 267.434 -99.648"/><g id="a_edge1-headlabel"><a target="_top" xlink:href="dir_000018_000000.xhtml" xlink:title="1440"><text x="264.269" y="-100.459" font-family="Helvetica,sans-Serif" font-size="10" text-anchor="middle">1440</text></a></g></g><g id="edge2" class="edge"><title>dir_8c278f79c760e5c5fbd911f9870614c1-&gt;dir_5815af820a9cc9481f1d0990a0d60286</title><path fill="none" stroke="#000" d="M141.605,-143.784C147.173,-138.675 153.311,-133.086 159,-128 192.12,-98.3874 230.727,-64.8732 256.173,-42.9187"/><polygon fill="#000" stroke="#000" points="258.659 -45.396 263.949 -36.216 254.089 -40.094 258.659 -45.396"/><g id="a_edge2-headlabel"><a target="_top" xlink:href="dir_000018_000150.xhtml" xlink:title="40"><text x="257.79" y="-47.394" font-family="Helvetica,sans-Serif" font-size="10" text-anchor="middle">40</text></a></g></g><g id="node3" class="node"><title>dir_1d7cadfed01c895b25460177608d44e9</title><g id="a_node3"><a target="_top" xlink:href="dir_1d7cadfed01c895b25460177608d44e9.xhtml" xlink:title="CPP"><polygon fill="#fff" stroke="red" points="222 -180 168 -180 168 -144 222 -144 222 -180"/><text x="195" y="-159.5" font-family="Helvetica,sans-Serif" font-size="10" text-anchor="middle">CPP</text></a></g></g><g id="edge15" class="edge"><title>dir_1d7cadfed01c895b25460177608d44e9-&gt;dir_214608ef36d61442cb2b0c1c4e9a7def</title><path fill="none" stroke="#000" d="M211.218,-143.929C217.089,-138.371 224.005,-132.484 231,-128 242.23,-120.802 255.097,-114.473 267.462,-109.178"/><polygon fill="#000" stroke="#000" points="268.874 -112.382 276.784 -105.333 266.204 -105.91 268.874 -112.382"/><g id="a_edge15-headlabel"><a target="_top" xlink:href="dir_000067_000000.xhtml" xlink:title="69"><text x="266.633" y="-113.877" font-family="Helvetica,sans-Serif" font-size="10" text-anchor="middle">69</text></a></g></g><g id="edge16" class="edge"><title>dir_1d7cadfed01c895b25460177608d44e9-&gt;dir_5815af820a9cc9481f1d0990a0d60286</title><path fill="none" stroke="#000" d="M205.735,-143.871C221.171,-119.244 249.755,-73.6377 267.777,-44.8845"/><polygon fill="#000" stroke="#000" points="270.881 -46.521 273.226 -36.189 264.95 -42.804 270.881 -46.521"/><g id="a_edge16-headlabel"><a target="_top" xlink:href="dir_000067_000150.xhtml" xlink:title="1"><text x="271.378" y="-48.575" font-family="Helvetica,sans-Serif" font-size="10" text-anchor="middle">1</text></a></g></g><g id="node4" class="node"><title>dir_88eff89ba7e837209a0b9693ad92651e</title><g id="a_node4"><a target="_top" xlink:href="dir_88eff89ba7e837209a0b9693ad92651e.xhtml" xlink:title="GLES_COMPUTE"><polygon fill="#fff" stroke="red" points="335.5 -180 240.5 -180 240.5 -144 335.5 -144 335.5 -180"/><text x="288" y="-159.5" font-family="Helvetica,sans-Serif" font-size="10" text-anchor="middle">GLES_COMPUTE</text></a></g></g><g id="edge3" class="edge"><title>dir_88eff89ba7e837209a0b9693ad92651e-&gt;dir_214608ef36d61442cb2b0c1c4e9a7def</title><path fill="none" stroke="#000" d="M295.663,-143.697C299.192,-135.728 303.456,-126.1 307.369,-117.264"/><polygon fill="#000" stroke="#000" points="310.576 -118.665 311.425 -108.104 304.176 -115.831 310.576 -118.665"/><g id="a_edge3-headlabel"><a target="_top" xlink:href="dir_000069_000000.xhtml" xlink:title="295"><text x="311.717" y="-120.602" font-family="Helvetica,sans-Serif" font-size="10" text-anchor="middle">295</text></a></g></g><g id="edge4" class="edge"><title>dir_88eff89ba7e837209a0b9693ad92651e-&gt;dir_5815af820a9cc9481f1d0990a0d60286</title><path fill="none" stroke="#000" d="M279.694,-143.788C275.259,-133.634 270.259,-120.384 268,-108 265.129,-92.2597 265.663,-87.8284 268,-72 269.278,-63.3473 271.669,-54.1492 274.22,-45.8867"/><polygon fill="#000" stroke="#000" points="277.55 -46.965 277.348 -36.372 270.9 -44.779 277.55 -46.965"/><g id="a_edge4-headlabel"><a target="_top" xlink:href="dir_000069_000150.xhtml" xlink:title="9"><text x="279.125" y="-48.766" font-family="Helvetica,sans-Serif" font-size="10" text-anchor="middle">9</text></a></g></g><g id="node5" class="node"><title>dir_d91e1966cc57df4f49d1e07be7697713</title><g id="a_node5"><a target="_top" xlink:href="dir_d91e1966cc57df4f49d1e07be7697713.xhtml" xlink:title="NEON"><polygon fill="#fff" stroke="red" points="408 -180 354 -180 354 -144 408 -144 408 -180"/><text x="381" y="-159.5" font-family="Helvetica,sans-Serif" font-size="10" text-anchor="middle">NEON</text></a></g></g><g id="node7" class="node"><title>dir_cbdb8362360e11eafe2fa3bc74cf0ffd</title><g id="a_node7"><a target="_top" xlink:href="dir_cbdb8362360e11eafe2fa3bc74cf0ffd.xhtml" xlink:title="utils"><polygon fill="#fff" stroke="red" points="558 -180 504 -180 504 -144 558 -144 558 -180"/><text x="531" y="-159.5" font-family="Helvetica,sans-Serif" font-size="10" text-anchor="middle">utils</text></a></g></g><g id="edge9" class="edge"><title>dir_d91e1966cc57df4f49d1e07be7697713-&gt;dir_cbdb8362360e11eafe2fa3bc74cf0ffd</title><path fill="none" stroke="#000" d="M386.729,-180.038C393.234,-197.135 405.67,-221.816 426,-233 448.196,-245.211 460.626,-244.881 483,-233 500.303,-223.812 512.505,-205.292 520.276,-189.471"/><polygon fill="#000" stroke="#000" points="523.594 -190.629 524.548 -180.077 517.222 -187.731 523.594 -190.629"/><g id="a_edge9-headlabel"><a target="_top" xlink:href="dir_000074_000034.xhtml" xlink:title="2"><text x="524.691" y="-192.576" font-family="Helvetica,sans-Serif" font-size="10" text-anchor="middle">2</text></a></g></g><g id="edge10" class="edge"><title>dir_d91e1966cc57df4f49d1e07be7697713-&gt;dir_214608ef36d61442cb2b0c1c4e9a7def</title><path fill="none" stroke="#000" d="M365.674,-143.697C358.241,-135.305 349.177,-125.07 341.02,-115.861"/><polygon fill="#000" stroke="#000" points="343.4 -113.27 334.15 -108.104 338.16 -117.911 343.4 -113.27"/><g id="a_edge10-headlabel"><a target="_top" xlink:href="dir_000074_000000.xhtml" xlink:title="1071"><text x="347.909" y="-111.578" font-family="Helvetica,sans-Serif" font-size="10" text-anchor="middle">1071</text></a></g></g><g id="edge11" class="edge"><title>dir_d91e1966cc57df4f49d1e07be7697713-&gt;dir_5815af820a9cc9481f1d0990a0d60286</title><path fill="none" stroke="#000" d="M383.054,-143.798C384.443,-124.714 383.962,-93.7483 370,-72 358.488,-54.0685 338.531,-41.2194 320.739,-32.6676"/><polygon fill="#000" stroke="#000" points="321.701 -29.262 311.145 -28.354 318.83 -35.647 321.701 -29.262"/><g id="a_edge11-headlabel"><a target="_top" xlink:href="dir_000074_000150.xhtml" xlink:title="8"><text x="326.143" y="-25.647" font-family="Helvetica,sans-Serif" font-size="10" text-anchor="middle">8</text></a></g></g><g id="node6" class="node"><title>dir_a8053b3d69cfefb2b2e6ec7bf9dd5c1a</title><g id="a_node6"><a target="_top" xlink:href="dir_a8053b3d69cfefb2b2e6ec7bf9dd5c1a.xhtml" xlink:title="utils"><polygon fill="#fff" stroke="red" points="480 -180 426 -180 426 -144 480 -144 480 -180"/><text x="453" y="-159.5" font-family="Helvetica,sans-Serif" font-size="10" text-anchor="middle">utils</text></a></g></g><g id="edge12" class="edge"><title>dir_a8053b3d69cfefb2b2e6ec7bf9dd5c1a-&gt;dir_214608ef36d61442cb2b0c1c4e9a7def</title><path fill="none" stroke="#000" d="M436.875,-143.78C431.012,-138.21 424.077,-132.353 417,-128 402.761,-119.241 386.113,-112.002 370.621,-106.32"/><polygon fill="#000" stroke="#000" points="371.751 -103.008 361.156 -102.984 369.424 -109.61 371.751 -103.008"/><g id="a_edge12-headlabel"><a target="_top" xlink:href="dir_000072_000000.xhtml" xlink:title="13"><text x="376.085" y="-99.025" font-family="Helvetica,sans-Serif" font-size="10" text-anchor="middle">13</text></a></g></g><g id="edge13" class="edge"><title>dir_a8053b3d69cfefb2b2e6ec7bf9dd5c1a-&gt;dir_5815af820a9cc9481f1d0990a0d60286</title><path fill="none" stroke="#000" d="M444.15,-143.674C433.491,-124.19 413.991,-92.5889 390,-72 369.69,-54.5703 342.652,-41.1696 320.968,-32.2034"/><polygon fill="#000" stroke="#000" points="322.01 -28.851 311.424 -28.397 319.416 -35.353 322.01 -28.851"/><g id="a_edge13-headlabel"><a target="_top" xlink:href="dir_000072_000150.xhtml" xlink:title="3"><text x="326.4" y="-25.045" font-family="Helvetica,sans-Serif" font-size="10" text-anchor="middle">3</text></a></g></g><g id="edge5" class="edge"><title>dir_cbdb8362360e11eafe2fa3bc74cf0ffd-&gt;dir_214608ef36d61442cb2b0c1c4e9a7def</title><path fill="none" stroke="#000" d="M506.026,-143.871C498.961,-138.037 491.121,-131.988 483,-128 447.772,-110.7 404.609,-101.453 371.329,-96.5284"/><polygon fill="#000" stroke="#000" points="371.726 -93.05 361.338 -95.135 370.759 -99.983 371.726 -93.05"/><g id="a_edge5-headlabel"><a target="_top" xlink:href="dir_000034_000000.xhtml" xlink:title="37"><text x="375.678" y="-88.234" font-family="Helvetica,sans-Serif" font-size="10" text-anchor="middle">37</text></a></g></g><g id="edge6" class="edge"><title>dir_cbdb8362360e11eafe2fa3bc74cf0ffd-&gt;dir_5815af820a9cc9481f1d0990a0d60286</title><path fill="none" stroke="#000" d="M510.912,-143.686C504.881,-138.575 498.215,-133.009 492,-128 460.161,-102.341 454.603,-92.1132 419,-72 387.467,-54.1862 348.751,-39.6587 320.878,-30.3483"/><polygon fill="#000" stroke="#000" points="321.725 -26.943 311.133 -27.158 319.547 -33.596 321.725 -26.943"/><g id="a_edge6-headlabel"><a target="_top" xlink:href="dir_000034_000150.xhtml" xlink:title="3"><text x="326.025" y="-22.863" font-family="Helvetica,sans-Serif" font-size="10" text-anchor="middle">3</text></a></g></g><g id="edge7" class="edge"><title>dir_214608ef36d61442cb2b0c1c4e9a7def-&gt;dir_cbdb8362360e11eafe2fa3bc74cf0ffd</title><path fill="none" stroke="#000" d="M361.214,-93.4993C399.631,-97.1883 456.614,-106.203 501,-128 505.948,-130.43 510.793,-133.625 515.164,-137.071"/><polygon fill="#000" stroke="#000" points="513.069 -139.89 522.887 -143.871 517.694 -134.636 513.069 -139.89"/><g id="a_edge7-headlabel"><a target="_top" xlink:href="dir_000000_000034.xhtml" xlink:title="1"><text x="508.494" y="-137.146" font-family="Helvetica,sans-Serif" font-size="10" text-anchor="middle">1</text></a></g></g><g id="edge8" class="edge"><title>dir_214608ef36d61442cb2b0c1c4e9a7def-&gt;dir_5815af820a9cc9481f1d0990a0d60286</title><path fill="none" stroke="#000" d="M310.348,-71.6966C306.364,-63.7284 301.55,-54.0995 297.132,-45.2641"/><polygon fill="#000" stroke="#000" points="300.155 -43.483 292.552 -36.104 293.894 -46.614 300.155 -43.483"/><g id="a_edge8-headlabel"><a target="_top" xlink:href="dir_000000_000150.xhtml" xlink:title="22"><text x="304.302" y="-42.929" font-family="Helvetica,sans-Serif" font-size="10" text-anchor="middle">22</text></a></g></g></g></svg>