<svg xmlns="http://www.w3.org/2000/svg" xmlns:xlink="http://www.w3.org/1999/xlink" width="152" height="151pt" viewBox="0 0 114 151"><g id="graph0" class="graph" transform="scale(1 1) rotate(0) translate(4 147)"><title>tests/framework/instruments</title><polygon fill="#fff" stroke="none" points="-4 4 -4 -147 110 -147 110 4 -4 4"/><g id="clust1" class="cluster"><title>clusterdir_9e71e2da941d3cafc4d98a9f6ae3de4f</title><g id="a_clust1"><a target="_top" xlink:href="dir_9e71e2da941d3cafc4d98a9f6ae3de4f.xhtml" xlink:title="framework"><polygon fill="#dde" stroke="#000" points="8 -64 8 -135 98 -135 98 -64 8 -64"/><text x="53" y="-123" font-family="Helvetica,sans-Serif" font-size="10" text-anchor="middle">framework</text></a></g></g><g id="node1" class="node"><title>dir_4efd0ee2ecda32567e74991b08d544ea</title><g id="a_node1"><a target="_top" xlink:href="dir_4efd0ee2ecda32567e74991b08d544ea.xhtml" xlink:title="instruments"><polygon fill="#eef" stroke="#000" points="90 -108 16 -108 16 -72 90 -72 90 -108"/><text x="53" y="-87.5" font-family="Helvetica,sans-Serif" font-size="10" text-anchor="middle">instruments</text></a></g></g><g id="node2" class="node"><title>dir_214608ef36d61442cb2b0c1c4e9a7def</title><g id="a_node2"><a target="_top" xlink:href="dir_214608ef36d61442cb2b0c1c4e9a7def.xhtml" xlink:title="arm_compute"><polygon fill="#fff" stroke="red" points="95 -36 11 -36 11 0 95 0 95 -36"/><text x="53" y="-15.5" font-family="Helvetica,sans-Serif" font-size="10" text-anchor="middle">arm_compute</text></a></g></g><g id="edge1" class="edge"><title>dir_4efd0ee2ecda32567e74991b08d544ea-&gt;dir_214608ef36d61442cb2b0c1c4e9a7def</title><path fill="none" stroke="#000" d="M53,-71.6966C53,-63.9827 53,-54.7125 53,-46.1124"/><polygon fill="#000" stroke="#000" points="56.5 -46.104 53 -36.104 49.5 -46.104 56.5 -46.104"/><g id="a_edge1-headlabel"><a target="_top" xlink:href="dir_000156_000000.xhtml" xlink:title="13"><text x="59.339" y="-47.199" font-family="Helvetica,sans-Serif" font-size="10" text-anchor="middle">13</text></a></g></g></g></svg>