<svg xmlns="http://www.w3.org/2000/svg" xmlns:xlink="http://www.w3.org/1999/xlink" width="136pt" height="151pt" viewBox="0 0 136 151"><g id="graph0" class="graph" transform="scale(1 1) rotate(0) translate(4 147)"><title>tests/GLES_COMPUTE</title><polygon fill="#fff" stroke="none" points="-4 4 -4 -147 132 -147 132 4 -4 4"/><g id="clust1" class="cluster"><title>clusterdir_59425e443f801f1f2fd8bbe4959a3ccf</title><g id="a_clust1"><a target="_top" xlink:href="dir_59425e443f801f1f2fd8bbe4959a3ccf.xhtml" xlink:title="tests"><polygon fill="#dde" stroke="#000" points="8 -64 8 -135 120 -135 120 -64 8 -64"/><text x="64" y="-123" font-family="Helvetica,sans-Serif" font-size="10" text-anchor="middle">tests</text></a></g></g><g id="node1" class="node"><title>dir_7365e77196b52ca311bb83f181e59b8c</title><g id="a_node1"><a target="_top" xlink:href="dir_7365e77196b52ca311bb83f181e59b8c.xhtml" xlink:title="GLES_COMPUTE"><polygon fill="#eef" stroke="#000" points="111.5 -108 16.5 -108 16.5 -72 111.5 -72 111.5 -108"/><text x="64" y="-87.5" font-family="Helvetica,sans-Serif" font-size="10" text-anchor="middle">GLES_COMPUTE</text></a></g></g><g id="node2" class="node"><title>dir_214608ef36d61442cb2b0c1c4e9a7def</title><g id="a_node2"><a target="_top" xlink:href="dir_214608ef36d61442cb2b0c1c4e9a7def.xhtml" xlink:title="arm_compute"><polygon fill="#fff" stroke="red" points="106 -36 22 -36 22 0 106 0 106 -36"/><text x="64" y="-15.5" font-family="Helvetica,sans-Serif" font-size="10" text-anchor="middle">arm_compute</text></a></g></g><g id="edge1" class="edge"><title>dir_7365e77196b52ca311bb83f181e59b8c-&gt;dir_214608ef36d61442cb2b0c1c4e9a7def</title><path fill="none" stroke="#000" d="M64,-71.6966C64,-63.9827 64,-54.7125 64,-46.1124"/><polygon fill="#000" stroke="#000" points="67.5 -46.104 64 -36.104 60.5 -46.104 67.5 -46.104"/><g id="a_edge1-headlabel"><a target="_top" xlink:href="dir_000152_000000.xhtml" xlink:title="3"><text x="70.339" y="-47.199" font-family="Helvetica,sans-Serif" font-size="10" text-anchor="middle">3</text></a></g></g></g></svg>