<svg xmlns="http://www.w3.org/2000/svg" xmlns:xlink="http://www.w3.org/1999/xlink" width="452" height="404" viewBox="0 0 338.69 303"><g id="graph0" class="graph" transform="scale(1 1) rotate(0) translate(4 299)"><title>arm_compute/graph/backends</title><polygon fill="#fff" stroke="none" points="-4 4 -4 -299 334.69 -299 334.69 4 -4 4"/><g id="clust1" class="cluster"><title>clusterdir_99ae3712d1eecd2a93fc4d38b59a99ba</title><g id="a_clust1"><a target="_top" xlink:href="dir_99ae3712d1eecd2a93fc4d38b59a99ba.xhtml" xlink:title="graph"><polygon fill="#dde" stroke="#000" points="12.69 -200 12.69 -287 322.69 -287 322.69 -200 12.69 -200"/><text x="167.69" y="-275" font-family="Helvetica,sans-Serif" font-size="10" text-anchor="middle">graph</text></a></g></g><g id="clust2" class="cluster"><title>clusterdir_59b2231210c554f4cc243709030bf1f8</title><g id="a_clust2"><a target="_top" xlink:href="dir_59b2231210c554f4cc243709030bf1f8.xhtml"><polygon fill="#eef" stroke="#000" points="20.689 -208 20.689 -260 314.69 -260 314.69 -208 20.689 -208"/></a></g></g><g id="node1" class="node"><title>dir_59b2231210c554f4cc243709030bf1f8</title><text x="59.69" y="-231.5" font-family="Helvetica,sans-Serif" font-size="10" text-anchor="middle">backends</text></g><g id="node5" class="node"><title>dir_8bc26130589aa16388b5a02f17abf2c2</title><g id="a_node5"><a target="_top" xlink:href="dir_8bc26130589aa16388b5a02f17abf2c2.xhtml" xlink:title="runtime"><polygon fill="#fff" stroke="red" points="215.69 -180 161.69 -180 161.69 -144 215.69 -144 215.69 -180"/><text x="188.69" y="-159.5" font-family="Helvetica,sans-Serif" font-size="10" text-anchor="middle">runtime</text></a></g></g><g id="edge7" class="edge"><title>dir_59b2231210c554f4cc243709030bf1f8-&gt;dir_8bc26130589aa16388b5a02f17abf2c2</title><path fill="none" stroke="#000" d="M78.3563,-215.665C84.8091,-210.213 92.2852,-204.458 99.6895,-200 115.954,-190.208 135.283,-181.829 151.765,-175.532"/><polygon fill="#000" stroke="#000" points="153.445 -178.643 161.607 -171.887 151.014 -172.078 153.445 -178.643"/><g id="a_edge7-headlabel"><a target="_top" xlink:href="dir_000031_000003.xhtml" xlink:title="15"><text x="151.06" y="-180.054" font-family="Helvetica,sans-Serif" font-size="10" text-anchor="middle">15</text></a></g></g><g id="node6" class="node"><title>dir_1fb090f0c6070330bfaccc4236d3ca0d</title><g id="a_node6"><a target="_top" xlink:href="dir_1fb090f0c6070330bfaccc4236d3ca0d.xhtml" xlink:title="core"><polygon fill="#fff" stroke="red" points="160.69 -108 106.69 -108 106.69 -72 160.69 -72 160.69 -108"/><text x="133.69" y="-87.5" font-family="Helvetica,sans-Serif" font-size="10" text-anchor="middle">core</text></a></g></g><g id="edge8" class="edge"><title>dir_59b2231210c554f4cc243709030bf1f8-&gt;dir_1fb090f0c6070330bfaccc4236d3ca0d</title><path fill="none" stroke="#000" d="M68.6157,-215.871C81.3943,-191.35 105.011,-146.032 120.005,-117.259"/><polygon fill="#000" stroke="#000" points="123.214 -118.675 124.732 -108.189 117.006 -115.44 123.214 -118.675"/><g id="a_edge8-headlabel"><a target="_top" xlink:href="dir_000031_000001.xhtml" xlink:title="12"><text x="124.071" y="-120.675" font-family="Helvetica,sans-Serif" font-size="10" text-anchor="middle">12</text></a></g></g><g id="node7" class="node"><title>dir_b30607d43e07fadf88f4c95a88a6c88e</title><g id="a_node7"><a target="_top" xlink:href="dir_b30607d43e07fadf88f4c95a88a6c88e.xhtml" xlink:title="nodes"><polygon fill="none" stroke="#000" points="67.689 -180 13.69 -180 13.69 -144 67.689 -144 67.689 -180"/><text x="40.69" y="-159.5" font-family="Helvetica,sans-Serif" font-size="10" text-anchor="middle">nodes</text></a></g></g><g id="edge9" class="edge"><title>dir_59b2231210c554f4cc243709030bf1f8-&gt;dir_b30607d43e07fadf88f4c95a88a6c88e</title><path fill="none" stroke="#000" d="M54.9929,-215.697C52.8761,-207.898 50.3276,-198.509 47.9717,-189.829"/><polygon fill="#000" stroke="#000" points="51.33 -188.838 45.332 -180.104 44.574 -190.672 51.33 -188.838"/><g id="a_edge9-headlabel"><a target="_top" xlink:href="dir_000031_000046.xhtml" xlink:title="2"><text x="55.011" y="-189.064" font-family="Helvetica,sans-Serif" font-size="10" text-anchor="middle">2</text></a></g></g><g id="node8" class="node"><title>dir_5815af820a9cc9481f1d0990a0d60286</title><g id="a_node8"><a target="_top" xlink:href="dir_5815af820a9cc9481f1d0990a0d60286.xhtml" xlink:title="support"><polygon fill="none" stroke="#000" points="160.69 -36 106.69 -36 106.69 0 160.69 0 160.69 -36"/><text x="133.69" y="-15.5" font-family="Helvetica,sans-Serif" font-size="10" text-anchor="middle">support</text></a></g></g><g id="edge10" class="edge"><title>dir_59b2231210c554f4cc243709030bf1f8-&gt;dir_5815af820a9cc9481f1d0990a0d60286</title><path fill="none" stroke="#000" d="M34.31,-215.955C22.9749,-206.786 10.8111,-194.4 4.68955,-180 -1.56998,-165.275 -1.54958,-158.733 4.68955,-144 23.5304,-99.5083 66.8158,-63.0854 98.0567,-41.261"/><polygon fill="#000" stroke="#000" points="100.223 -44.02 106.518 -35.498 96.283 -38.234 100.223 -44.02"/><g id="a_edge10-headlabel"><a target="_top" xlink:href="dir_000031_000150.xhtml" xlink:title="1"><text x="98.851" y="-45.89" font-family="Helvetica,sans-Serif" font-size="10" text-anchor="middle">1</text></a></g></g><g id="node2" class="node"><title>dir_550bba389faad7f08ae5a13c29129f99</title><g id="a_node2"><a target="_top" xlink:href="dir_550bba389faad7f08ae5a13c29129f99.xhtml" xlink:title="CL"><polygon fill="#fff" stroke="#000" points="162.69 -252 108.69 -252 108.69 -216 162.69 -216 162.69 -252"/><text x="135.69" y="-231.5" font-family="Helvetica,sans-Serif" font-size="10" text-anchor="middle">CL</text></a></g></g><g id="edge3" class="edge"><title>dir_550bba389faad7f08ae5a13c29129f99-&gt;dir_8bc26130589aa16388b5a02f17abf2c2</title><path fill="none" stroke="#000" d="M148.791,-215.697C155.08,-207.389 162.737,-197.277 169.654,-188.141"/><polygon fill="#000" stroke="#000" points="172.493 -190.19 175.739 -180.104 166.912 -185.964 172.493 -190.19"/><g id="a_edge3-headlabel"><a target="_top" xlink:href="dir_000041_000003.xhtml" xlink:title="5"><text x="172.587" y="-192.269" font-family="Helvetica,sans-Serif" font-size="10" text-anchor="middle">5</text></a></g></g><g id="edge4" class="edge"><title>dir_550bba389faad7f08ae5a13c29129f99-&gt;dir_1fb090f0c6070330bfaccc4236d3ca0d</title><path fill="none" stroke="#000" d="M135.448,-215.871C135.107,-191.67 134.481,-147.211 134.075,-118.393"/><polygon fill="#000" stroke="#000" points="137.572 -118.139 133.932 -108.189 130.573 -118.238 137.572 -118.139"/><g id="a_edge4-headlabel"><a target="_top" xlink:href="dir_000041_000001.xhtml" xlink:title="1"><text x="140.462" y="-119.193" font-family="Helvetica,sans-Serif" font-size="10" text-anchor="middle">1</text></a></g></g><g id="node3" class="node"><title>dir_154b7715c8b805d6c07751152e8bda26</title><g id="a_node3"><a target="_top" xlink:href="dir_154b7715c8b805d6c07751152e8bda26.xhtml" xlink:title="GLES"><polygon fill="#fff" stroke="#000" points="234.69 -252 180.69 -252 180.69 -216 234.69 -216 234.69 -252"/><text x="207.69" y="-231.5" font-family="Helvetica,sans-Serif" font-size="10" text-anchor="middle">GLES</text></a></g></g><g id="edge13" class="edge"><title>dir_154b7715c8b805d6c07751152e8bda26-&gt;dir_8bc26130589aa16388b5a02f17abf2c2</title><path fill="none" stroke="#000" d="M202.993,-215.697C200.876,-207.898 198.328,-198.509 195.972,-189.829"/><polygon fill="#000" stroke="#000" points="199.33 -188.838 193.332 -180.104 192.574 -190.672 199.33 -188.838"/><g id="a_edge13-headlabel"><a target="_top" xlink:href="dir_000042_000003.xhtml" xlink:title="3"><text x="203.011" y="-189.064" font-family="Helvetica,sans-Serif" font-size="10" text-anchor="middle">3</text></a></g></g><g id="edge14" class="edge"><title>dir_154b7715c8b805d6c07751152e8bda26-&gt;dir_1fb090f0c6070330bfaccc4236d3ca0d</title><path fill="none" stroke="#000" d="M217.51,-215.788C226.824,-196.971 237.625,-166.503 224.69,-144 213.023,-123.704 190.26,-110.451 170.421,-102.274"/><polygon fill="#000" stroke="#000" points="171.568 -98.966 160.978 -98.659 169.065 -105.503 171.568 -98.966"/><g id="a_edge14-headlabel"><a target="_top" xlink:href="dir_000042_000001.xhtml" xlink:title="1"><text x="175.94" y="-95.099" font-family="Helvetica,sans-Serif" font-size="10" text-anchor="middle">1</text></a></g></g><g id="node4" class="node"><title>dir_2af5ba73c22f603fb662b4c21cfc8574</title><g id="a_node4"><a target="_top" xlink:href="dir_2af5ba73c22f603fb662b4c21cfc8574.xhtml" xlink:title="NEON"><polygon fill="#fff" stroke="#000" points="306.69 -252 252.69 -252 252.69 -216 306.69 -216 306.69 -252"/><text x="279.69" y="-231.5" font-family="Helvetica,sans-Serif" font-size="10" text-anchor="middle">NEON</text></a></g></g><g id="edge1" class="edge"><title>dir_2af5ba73c22f603fb662b4c21cfc8574-&gt;dir_8bc26130589aa16388b5a02f17abf2c2</title><path fill="none" stroke="#000" d="M261.841,-215.664C256.191,-210.445 249.818,-204.826 243.69,-200 237.66,-195.252 231.04,-190.467 224.545,-185.986"/><polygon fill="#000" stroke="#000" points="226.08 -182.798 215.835 -180.097 222.159 -188.597 226.08 -182.798"/><g id="a_edge1-headlabel"><a target="_top" xlink:href="dir_000043_000003.xhtml" xlink:title="4"><text x="230.648" y="-179.96" font-family="Helvetica,sans-Serif" font-size="10" text-anchor="middle">4</text></a></g></g><g id="edge2" class="edge"><title>dir_2af5ba73c22f603fb662b4c21cfc8574-&gt;dir_1fb090f0c6070330bfaccc4236d3ca0d</title><path fill="none" stroke="#000" d="M276.192,-215.939C271.41,-196.407 261.115,-164.477 241.69,-144 222.32,-123.582 193.418,-109.974 170.386,-101.665"/><polygon fill="#000" stroke="#000" points="171.514 -98.352 160.92 -98.423 169.247 -104.974 171.514 -98.352"/><g id="a_edge2-headlabel"><a target="_top" xlink:href="dir_000043_000001.xhtml" xlink:title="1"><text x="175.835" y="-94.33" font-family="Helvetica,sans-Serif" font-size="10" text-anchor="middle">1</text></a></g></g><g id="edge5" class="edge"><title>dir_8bc26130589aa16388b5a02f17abf2c2-&gt;dir_1fb090f0c6070330bfaccc4236d3ca0d</title><path fill="none" stroke="#000" d="M169.178,-143.697C161.87,-135.474 153.818,-125.483 147.143,-116.421"/><polygon fill="#000" stroke="#000" points="149.879 -114.229 141.234 -108.104 144.173 -118.283 149.879 -114.229"/><g id="a_edge5-headlabel"><a target="_top" xlink:href="dir_000003_000001.xhtml" xlink:title="582"><text x="154.276" y="-113.014" font-family="Helvetica,sans-Serif" font-size="10" text-anchor="middle">582</text></a></g></g><g id="edge6" class="edge"><title>dir_8bc26130589aa16388b5a02f17abf2c2-&gt;dir_5815af820a9cc9481f1d0990a0d60286</title><path fill="none" stroke="#000" d="M186.992,-143.674C184.739,-125.29 179.801,-95.6852 169.69,-72 165.605,-62.4333 159.701,-52.7836 153.852,-44.3881"/><polygon fill="#000" stroke="#000" points="156.569 -42.174 147.854 -36.149 150.91 -46.294 156.569 -42.174"/><g id="a_edge6-headlabel"><a target="_top" xlink:href="dir_000003_000150.xhtml" xlink:title="5"><text x="160.98" y="-40.909" font-family="Helvetica,sans-Serif" font-size="10" text-anchor="middle">5</text></a></g></g><g id="edge11" class="edge"><title>dir_1fb090f0c6070330bfaccc4236d3ca0d-&gt;dir_8bc26130589aa16388b5a02f17abf2c2</title><path fill="none" stroke="#000" d="M153.024,-108.104C160.32,-116.298 168.377,-126.282 175.074,-135.359"/><polygon fill="#000" stroke="#000" points="172.359 -137.58 181.01 -143.697 178.061 -133.52 172.359 -137.58"/><g id="a_edge11-headlabel"><a target="_top" xlink:href="dir_000001_000003.xhtml" xlink:title="1"><text x="167.961" y="-133.799" font-family="Helvetica,sans-Serif" font-size="10" text-anchor="middle">1</text></a></g></g><g id="edge12" class="edge"><title>dir_1fb090f0c6070330bfaccc4236d3ca0d-&gt;dir_5815af820a9cc9481f1d0990a0d60286</title><path fill="none" stroke="#000" d="M133.69,-71.6966C133.69,-63.9827 133.69,-54.7125 133.69,-46.1124"/><polygon fill="#000" stroke="#000" points="137.19 -46.104 133.69 -36.104 130.19 -46.104 137.19 -46.104"/><g id="a_edge12-headlabel"><a target="_top" xlink:href="dir_000001_000150.xhtml" xlink:title="14"><text x="140.029" y="-47.199" font-family="Helvetica,sans-Serif" font-size="10" text-anchor="middle">14</text></a></g></g><g id="edge15" class="edge"><title>dir_b30607d43e07fadf88f4c95a88a6c88e-&gt;dir_1fb090f0c6070330bfaccc4236d3ca0d</title><path fill="none" stroke="#000" d="M63.6783,-143.697C75.5035,-134.796 90.0815,-123.823 102.868,-114.199"/><polygon fill="#000" stroke="#000" points="105.08 -116.915 110.965 -108.104 100.871 -111.322 105.08 -116.915"/><g id="a_edge15-headlabel"><a target="_top" xlink:href="dir_000046_000001.xhtml" xlink:title="1"><text x="103.916" y="-118.845" font-family="Helvetica,sans-Serif" font-size="10" text-anchor="middle">1</text></a></g></g></g></svg>