<svg xmlns="http://www.w3.org/2000/svg" xmlns:xlink="http://www.w3.org/1999/xlink" width="140" height="223pt" viewBox="0 0 105 223"><g id="graph0" class="graph" transform="scale(1 1) rotate(0) translate(4 219)"><title>arm_compute/runtime/CL/tuners</title><polygon fill="#fff" stroke="none" points="-4 4 -4 -219 101 -219 101 4 -4 4"/><g id="clust1" class="cluster"><title>clusterdir_b986aa98f9b6490bb4fc7918500346fb</title><g id="a_clust1"><a target="_top" xlink:href="dir_b986aa98f9b6490bb4fc7918500346fb.xhtml" xlink:title="CL"><polygon fill="#dde" stroke="#000" points="19 -136 19 -207 89 -207 89 -136 19 -136"/><text x="54" y="-195" font-family="Helvetica,sans-Serif" font-size="10" text-anchor="middle">CL</text></a></g></g><g id="node1" class="node"><title>dir_50b23570393db6a4ca8647d7d5ff6dbe</title><g id="a_node1"><a target="_top" xlink:href="dir_50b23570393db6a4ca8647d7d5ff6dbe.xhtml" xlink:title="tuners"><polygon fill="#eef" stroke="#000" points="81 -180 27 -180 27 -144 81 -144 81 -180"/><text x="54" y="-159.5" font-family="Helvetica,sans-Serif" font-size="10" text-anchor="middle">tuners</text></a></g></g><g id="node2" class="node"><title>dir_1fb090f0c6070330bfaccc4236d3ca0d</title><g id="a_node2"><a target="_top" xlink:href="dir_1fb090f0c6070330bfaccc4236d3ca0d.xhtml" xlink:title="core"><polygon fill="#fff" stroke="red" points="54 -108 0 -108 0 -72 54 -72 54 -108"/><text x="27" y="-87.5" font-family="Helvetica,sans-Serif" font-size="10" text-anchor="middle">core</text></a></g></g><g id="edge1" class="edge"><title>dir_50b23570393db6a4ca8647d7d5ff6dbe-&gt;dir_1fb090f0c6070330bfaccc4236d3ca0d</title><path fill="none" stroke="#000" d="M47.3258,-143.697C44.2851,-135.813 40.6173,-126.304 37.2393,-117.546"/><polygon fill="#000" stroke="#000" points="40.462 -116.175 33.597 -108.104 33.931 -118.694 40.462 -116.175"/><g id="a_edge1-headlabel"><a target="_top" xlink:href="dir_000048_000001.xhtml" xlink:title="3"><text x="44.404" y="-116.007" font-family="Helvetica,sans-Serif" font-size="10" text-anchor="middle">3</text></a></g></g><g id="node3" class="node"><title>dir_5815af820a9cc9481f1d0990a0d60286</title><g id="a_node3"><a target="_top" xlink:href="dir_5815af820a9cc9481f1d0990a0d60286.xhtml" xlink:title="support"><polygon fill="none" stroke="#000" points="81 -36 27 -36 27 0 81 0 81 -36"/><text x="54" y="-15.5" font-family="Helvetica,sans-Serif" font-size="10" text-anchor="middle">support</text></a></g></g><g id="edge2" class="edge"><title>dir_50b23570393db6a4ca8647d7d5ff6dbe-&gt;dir_5815af820a9cc9481f1d0990a0d60286</title><path fill="none" stroke="#000" d="M57.6538,-143.908C59.6758,-133.569 61.9808,-120.09 63,-108 64.3441,-92.0566 64.3441,-87.9434 63,-72 62.2834,-63.4991 60.9311,-54.3119 59.4884,-46.0122"/><polygon fill="#000" stroke="#000" points="62.914 -45.289 57.654 -36.093 56.031 -46.562 62.914 -45.289"/><g id="a_edge2-headlabel"><a target="_top" xlink:href="dir_000048_000150.xhtml" xlink:title="1"><text x="66.36" y="-45.807" font-family="Helvetica,sans-Serif" font-size="10" text-anchor="middle">1</text></a></g></g><g id="edge3" class="edge"><title>dir_1fb090f0c6070330bfaccc4236d3ca0d-&gt;dir_5815af820a9cc9481f1d0990a0d60286</title><path fill="none" stroke="#000" d="M33.6742,-71.6966C36.7149,-63.8132 40.3827,-54.3042 43.7607,-45.5464"/><polygon fill="#000" stroke="#000" points="47.069 -46.694 47.403 -36.104 40.538 -44.175 47.069 -46.694"/><g id="a_edge3-headlabel"><a target="_top" xlink:href="dir_000001_000150.xhtml" xlink:title="14"><text x="48.425" y="-48.569" font-family="Helvetica,sans-Serif" font-size="10" text-anchor="middle">14</text></a></g></g></g></svg>