<svg xmlns="http://www.w3.org/2000/svg" xmlns:xlink="http://www.w3.org/1999/xlink" width="224pt" height="308" viewBox="0 0 224 231"><g id="graph0" class="graph" transform="scale(1 1) rotate(0) translate(4 227)"><title>src/core/GLES_COMPUTE</title><polygon fill="#fff" stroke="none" points="-4 4 -4 -227 220 -227 220 4 -4 4"/><g id="clust1" class="cluster"><title>clusterdir_aebb8dcc11953d78e620bbef0b9e2183</title><g id="a_clust1"><a target="_top" xlink:href="dir_aebb8dcc11953d78e620bbef0b9e2183.xhtml" xlink:title="core"><polygon fill="#dde" stroke="#000" points="8 -128 8 -215 208 -215 208 -128 8 -128"/><text x="108" y="-203" font-family="Helvetica,sans-Serif" font-size="10" text-anchor="middle">core</text></a></g></g><g id="clust2" class="cluster"><title>clusterdir_88eff89ba7e837209a0b9693ad92651e</title><g id="a_clust2"><a target="_top" xlink:href="dir_88eff89ba7e837209a0b9693ad92651e.xhtml"><polygon fill="#eef" stroke="#000" points="16 -136 16 -188 200 -188 200 -136 16 -136"/></a></g></g><g id="node1" class="node"><title>dir_88eff89ba7e837209a0b9693ad92651e</title><text x="72" y="-159.5" font-family="Helvetica,sans-Serif" font-size="10" text-anchor="middle">GLES_COMPUTE</text></g><g id="node3" class="node"><title>dir_214608ef36d61442cb2b0c1c4e9a7def</title><g id="a_node3"><a target="_top" xlink:href="dir_214608ef36d61442cb2b0c1c4e9a7def.xhtml" xlink:title="arm_compute"><polygon fill="#fff" stroke="red" points="137 -108 53 -108 53 -72 137 -72 137 -108"/><text x="95" y="-87.5" font-family="Helvetica,sans-Serif" font-size="10" text-anchor="middle">arm_compute</text></a></g></g><g id="edge1" class="edge"><title>dir_88eff89ba7e837209a0b9693ad92651e-&gt;dir_214608ef36d61442cb2b0c1c4e9a7def</title><path fill="none" stroke="#000" d="M77.6854,-143.697C80.2478,-135.898 83.3329,-126.509 86.1847,-117.829"/><polygon fill="#000" stroke="#000" points="89.584 -118.697 89.38 -108.104 82.933 -116.512 89.584 -118.697"/><g id="a_edge1-headlabel"><a target="_top" xlink:href="dir_000069_000000.xhtml" xlink:title="295"><text x="91.159" y="-120.498" font-family="Helvetica,sans-Serif" font-size="10" text-anchor="middle">295</text></a></g></g><g id="node2" class="node"><title>dir_97061975172b7fe0368651cfbdc4a700</title><g id="a_node2"><a target="_top" xlink:href="dir_97061975172b7fe0368651cfbdc4a700.xhtml" xlink:title="kernels"><polygon fill="#fff" stroke="#000" points="192 -180 138 -180 138 -144 192 -144 192 -180"/><text x="165" y="-159.5" font-family="Helvetica,sans-Serif" font-size="10" text-anchor="middle">kernels</text></a></g></g><g id="edge2" class="edge"><title>dir_97061975172b7fe0368651cfbdc4a700-&gt;dir_214608ef36d61442cb2b0c1c4e9a7def</title><path fill="none" stroke="#000" d="M147.697,-143.697C139.135,-135.135 128.656,-124.656 119.304,-115.304"/><polygon fill="#000" stroke="#000" points="121.65 -112.701 112.104 -108.104 116.701 -117.65 121.65 -112.701"/><g id="a_edge2-headlabel"><a target="_top" xlink:href="dir_000070_000000.xhtml" xlink:title="264"><text x="126.2" y="-110.735" font-family="Helvetica,sans-Serif" font-size="10" text-anchor="middle">264</text></a></g></g><g id="node4" class="node"><title>dir_5815af820a9cc9481f1d0990a0d60286</title><g id="a_node4"><a target="_top" xlink:href="dir_5815af820a9cc9481f1d0990a0d60286.xhtml" xlink:title="support"><polygon fill="none" stroke="#000" points="157 -36 103 -36 103 0 157 0 157 -36"/><text x="130" y="-15.5" font-family="Helvetica,sans-Serif" font-size="10" text-anchor="middle">support</text></a></g></g><g id="edge3" class="edge"><title>dir_97061975172b7fe0368651cfbdc4a700-&gt;dir_5815af820a9cc9481f1d0990a0d60286</title><path fill="none" stroke="#000" d="M161.775,-143.84C158.291,-125.844 152.376,-96.7884 146,-72 143.787,-63.3969 141.087,-54.0977 138.539,-45.7264"/><polygon fill="#000" stroke="#000" points="141.854 -44.6 135.55 -36.084 135.168 -46.672 141.854 -44.6"/><g id="a_edge3-headlabel"><a target="_top" xlink:href="dir_000070_000150.xhtml" xlink:title="9"><text x="145.63" y="-44.693" font-family="Helvetica,sans-Serif" font-size="10" text-anchor="middle">9</text></a></g></g><g id="edge4" class="edge"><title>dir_214608ef36d61442cb2b0c1c4e9a7def-&gt;dir_5815af820a9cc9481f1d0990a0d60286</title><path fill="none" stroke="#000" d="M103.652,-71.6966C107.636,-63.7284 112.45,-54.0995 116.868,-45.2641"/><polygon fill="#000" stroke="#000" points="120.106 -46.614 121.448 -36.104 113.845 -43.483 120.106 -46.614"/><g id="a_edge4-headlabel"><a target="_top" xlink:href="dir_000000_000150.xhtml" xlink:title="22"><text x="121.038" y="-48.599" font-family="Helvetica,sans-Serif" font-size="10" text-anchor="middle">22</text></a></g></g></g></svg>