<svg xmlns="http://www.w3.org/2000/svg" xmlns:xlink="http://www.w3.org/1999/xlink" width="178pt" height="464" viewBox="0 0 178 348"><g id="graph0" class="graph" transform="scale(1 1) rotate(0) translate(4 344)"><title>arm_compute</title><polygon fill="#fff" stroke="none" points="-4 4 -4 -344 174 -344 174 4 -4 4"/><g id="clust1" class="cluster"><title>clusterdir_214608ef36d61442cb2b0c1c4e9a7def</title><g id="a_clust1"><a target="_top" xlink:href="dir_214608ef36d61442cb2b0c1c4e9a7def.xhtml"><polygon fill="#eef" stroke="#000" points="8 -64 8 -332 108 -332 108 -64 8 -64"/></a></g></g><g id="node1" class="node"><title>dir_214608ef36d61442cb2b0c1c4e9a7def</title><text x="58" y="-303.5" font-family="Helvetica,sans-Serif" font-size="10" text-anchor="middle">arm_compute</text></g><g id="node3" class="node"><title>dir_99ae3712d1eecd2a93fc4d38b59a99ba</title><g id="a_node3"><a target="_top" xlink:href="dir_99ae3712d1eecd2a93fc4d38b59a99ba.xhtml" xlink:title="graph"><polygon fill="#fff" stroke="red" points="85 -252 31 -252 31 -216 85 -216 85 -252"/><text x="58" y="-231.5" font-family="Helvetica,sans-Serif" font-size="10" text-anchor="middle">graph</text></a></g></g><g id="edge13" class="edge"><title>dir_214608ef36d61442cb2b0c1c4e9a7def-&gt;dir_99ae3712d1eecd2a93fc4d38b59a99ba</title><path fill="none" stroke="#000" d="M58,-287.697C58,-279.983 58,-270.712 58,-262.112"/><polygon fill="#000" stroke="#000" points="61.5 -262.104 58 -252.104 54.5 -262.104 61.5 -262.104"/><g id="a_edge13-headlabel"><a target="_top" xlink:href="dir_000000_000029.xhtml" xlink:title="25"><text x="64.339" y="-263.199" font-family="Helvetica,sans-Serif" font-size="10" text-anchor="middle">25</text></a></g></g><g id="node2" class="node"><title>dir_1fb090f0c6070330bfaccc4236d3ca0d</title><g id="a_node2"><a target="_top" xlink:href="dir_1fb090f0c6070330bfaccc4236d3ca0d.xhtml" xlink:title="core"><polygon fill="#fff" stroke="red" points="100 -180 46 -180 46 -144 100 -144 100 -180"/><text x="73" y="-159.5" font-family="Helvetica,sans-Serif" font-size="10" text-anchor="middle">core</text></a></g></g><g id="node4" class="node"><title>dir_8bc26130589aa16388b5a02f17abf2c2</title><g id="a_node4"><a target="_top" xlink:href="dir_8bc26130589aa16388b5a02f17abf2c2.xhtml" xlink:title="runtime"><polygon fill="#fff" stroke="red" points="100 -108 46 -108 46 -72 100 -72 100 -108"/><text x="73" y="-87.5" font-family="Helvetica,sans-Serif" font-size="10" text-anchor="middle">runtime</text></a></g></g><g id="edge11" class="edge"><title>dir_1fb090f0c6070330bfaccc4236d3ca0d-&gt;dir_8bc26130589aa16388b5a02f17abf2c2</title><path fill="none" stroke="#000" d="M67.0843,-143.697C66.2886,-135.983 66.0621,-126.712 66.4047,-118.112"/><polygon fill="#000" stroke="#000" points="69.898 -118.324 67.105 -108.104 62.915 -117.836 69.898 -118.324"/><g id="a_edge11-headlabel"><a target="_top" xlink:href="dir_000001_000003.xhtml" xlink:title="1"><text x="72.48" y="-119.608" font-family="Helvetica,sans-Serif" font-size="10" text-anchor="middle">1</text></a></g></g><g id="node6" class="node"><title>dir_5815af820a9cc9481f1d0990a0d60286</title><g id="a_node6"><a target="_top" xlink:href="dir_5815af820a9cc9481f1d0990a0d60286.xhtml" xlink:title="support"><polygon fill="none" stroke="#000" points="72 -36 18 -36 18 0 72 0 72 -36"/><text x="45" y="-15.5" font-family="Helvetica,sans-Serif" font-size="10" text-anchor="middle">support</text></a></g></g><g id="edge12" class="edge"><title>dir_1fb090f0c6070330bfaccc4236d3ca0d-&gt;dir_5815af820a9cc9481f1d0990a0d60286</title><path fill="none" stroke="#000" d="M57.3901,-143.774C49.6271,-134.03 41.0541,-121.184 37,-108 30.7868,-87.7951 33.4541,-63.8851 37.3085,-45.9382"/><polygon fill="#000" stroke="#000" points="40.731 -46.674 39.657 -36.133 33.924 -45.043 40.731 -46.674"/><g id="a_edge12-headlabel"><a target="_top" xlink:href="dir_000001_000150.xhtml" xlink:title="14"><text x="42.655" y="-48.331" font-family="Helvetica,sans-Serif" font-size="10" text-anchor="middle">14</text></a></g></g><g id="edge3" class="edge"><title>dir_99ae3712d1eecd2a93fc4d38b59a99ba-&gt;dir_1fb090f0c6070330bfaccc4236d3ca0d</title><path fill="none" stroke="#000" d="M61.7079,-215.697C63.3608,-207.983 65.3473,-198.712 67.1902,-190.112"/><polygon fill="#000" stroke="#000" points="70.662 -190.616 69.335 -180.104 63.817 -189.149 70.662 -190.616"/><g id="a_edge3-headlabel"><a target="_top" xlink:href="dir_000029_000001.xhtml" xlink:title="24"><text x="72.685" y="-192.225" font-family="Helvetica,sans-Serif" font-size="10" text-anchor="middle">24</text></a></g></g><g id="edge2" class="edge"><title>dir_99ae3712d1eecd2a93fc4d38b59a99ba-&gt;dir_8bc26130589aa16388b5a02f17abf2c2</title><path fill="none" stroke="#000" d="M48.5276,-215.757C39.8581,-197.693 29.4407,-168.583 37,-144 40.0089,-134.215 45.507,-124.616 51.3157,-116.334"/><polygon fill="#000" stroke="#000" points="54.195 -118.328 57.39 -108.226 48.593 -114.131 54.195 -118.328"/><g id="a_edge2-headlabel"><a target="_top" xlink:href="dir_000029_000003.xhtml" xlink:title="21"><text x="54.312" y="-120.407" font-family="Helvetica,sans-Serif" font-size="10" text-anchor="middle">21</text></a></g></g><g id="node5" class="node"><title>dir_cbdb8362360e11eafe2fa3bc74cf0ffd</title><g id="a_node5"><a target="_top" xlink:href="dir_cbdb8362360e11eafe2fa3bc74cf0ffd.xhtml" xlink:title="utils"><polygon fill="#fff" stroke="red" points="170 -252 116 -252 116 -216 170 -216 170 -252"/><text x="143" y="-231.5" font-family="Helvetica,sans-Serif" font-size="10" text-anchor="middle">utils</text></a></g></g><g id="edge1" class="edge"><title>dir_99ae3712d1eecd2a93fc4d38b59a99ba-&gt;dir_cbdb8362360e11eafe2fa3bc74cf0ffd</title><path fill="none" stroke="#000" d="M85.2266,-234C92.1003,-234 98.9741,-234 105.848,-234"/><polygon fill="#000" stroke="#000" points="105.919 -237.5 115.919 -234 105.919 -230.5 105.919 -237.5"/><g id="a_edge1-headlabel"><a target="_top" xlink:href="dir_000029_000034.xhtml" xlink:title="1"><text x="102.324" y="-237.839" font-family="Helvetica,sans-Serif" font-size="10" text-anchor="middle">1</text></a></g></g><g id="edge4" class="edge"><title>dir_99ae3712d1eecd2a93fc4d38b59a99ba-&gt;dir_5815af820a9cc9481f1d0990a0d60286</title><path fill="none" stroke="#000" d="M46.601,-215.65C40.7143,-205.667 34.1248,-192.631 31,-180 18.6181,-129.951 21.7414,-114.892 30,-64 30.9803,-57.9593 32.6554,-51.6338 34.5394,-45.6977"/><polygon fill="#000" stroke="#000" points="37.865 -46.789 37.821 -36.195 31.249 -44.504 37.865 -46.789"/><g id="a_edge4-headlabel"><a target="_top" xlink:href="dir_000029_000150.xhtml" xlink:title="3"><text x="39.376" y="-48.614" font-family="Helvetica,sans-Serif" font-size="10" text-anchor="middle">3</text></a></g></g><g id="edge9" class="edge"><title>dir_8bc26130589aa16388b5a02f17abf2c2-&gt;dir_1fb090f0c6070330bfaccc4236d3ca0d</title><path fill="none" stroke="#000" d="M78.895,-108.104C79.7005,-115.791 79.9369,-125.054 79.604,-133.665"/><polygon fill="#000" stroke="#000" points="76.109 -133.48 78.916 -143.697 83.092 -133.96 76.109 -133.48"/><g id="a_edge9-headlabel"><a target="_top" xlink:href="dir_000003_000001.xhtml" xlink:title="582"><text x="73.522" y="-127.2" font-family="Helvetica,sans-Serif" font-size="10" text-anchor="middle">582</text></a></g></g><g id="edge10" class="edge"><title>dir_8bc26130589aa16388b5a02f17abf2c2-&gt;dir_5815af820a9cc9481f1d0990a0d60286</title><path fill="none" stroke="#000" d="M66.0786,-71.6966C62.9253,-63.8132 59.1217,-54.3042 55.6186,-45.5464"/><polygon fill="#000" stroke="#000" points="58.805 -44.089 51.842 -36.104 52.306 -46.689 58.805 -44.089"/><g id="a_edge10-headlabel"><a target="_top" xlink:href="dir_000003_000150.xhtml" xlink:title="5"><text x="62.776" y="-43.872" font-family="Helvetica,sans-Serif" font-size="10" text-anchor="middle">5</text></a></g></g><g id="edge7" class="edge"><title>dir_cbdb8362360e11eafe2fa3bc74cf0ffd-&gt;dir_1fb090f0c6070330bfaccc4236d3ca0d</title><path fill="none" stroke="#000" d="M125.697,-215.697C117.135,-207.135 106.656,-196.656 97.3045,-187.304"/><polygon fill="#000" stroke="#000" points="99.65 -184.701 90.104 -180.104 94.701 -189.65 99.65 -184.701"/><g id="a_edge7-headlabel"><a target="_top" xlink:href="dir_000034_000001.xhtml" xlink:title="24"><text x="104.2" y="-182.735" font-family="Helvetica,sans-Serif" font-size="10" text-anchor="middle">24</text></a></g></g><g id="edge5" class="edge"><title>dir_cbdb8362360e11eafe2fa3bc74cf0ffd-&gt;dir_99ae3712d1eecd2a93fc4d38b59a99ba</title><path fill="none" stroke="#000" d="M115.919,-234C109.045,-234 102.171,-234 95.2974,-234"/><polygon fill="#000" stroke="#000" points="95.227 -230.5 85.227 -234 95.227 -237.5 95.227 -230.5"/><g id="a_edge5-headlabel"><a target="_top" xlink:href="dir_000034_000029.xhtml" xlink:title="8"><text x="98.821" y="-225.161" font-family="Helvetica,sans-Serif" font-size="10" text-anchor="middle">8</text></a></g></g><g id="edge6" class="edge"><title>dir_cbdb8362360e11eafe2fa3bc74cf0ffd-&gt;dir_8bc26130589aa16388b5a02f17abf2c2</title><path fill="none" stroke="#000" d="M137.736,-215.761C131.843,-197.45 121.469,-167.904 109,-144 104.113,-134.631 97.8954,-124.917 92.0079,-116.404"/><polygon fill="#000" stroke="#000" points="94.706 -114.158 86.061 -108.032 88.999 -118.212 94.706 -114.158"/><g id="a_edge6-headlabel"><a target="_top" xlink:href="dir_000034_000003.xhtml" xlink:title="5"><text x="99.102" y="-112.944" font-family="Helvetica,sans-Serif" font-size="10" text-anchor="middle">5</text></a></g></g><g id="edge8" class="edge"><title>dir_cbdb8362360e11eafe2fa3bc74cf0ffd-&gt;dir_5815af820a9cc9481f1d0990a0d60286</title><path fill="none" stroke="#000" d="M144.252,-215.928C145.766,-183.341 144.805,-111.311 112,-64 104.111,-52.6219 92.3297,-43.3231 80.8367,-36.1935"/><polygon fill="#000" stroke="#000" points="82.579 -33.158 72.173 -31.166 79.066 -39.212 82.579 -33.158"/><g id="a_edge8-headlabel"><a target="_top" xlink:href="dir_000034_000150.xhtml" xlink:title="3"><text x="87.113" y="-30.006" font-family="Helvetica,sans-Serif" font-size="10" text-anchor="middle">3</text></a></g></g></g></svg>