<svg xmlns="http://www.w3.org/2000/svg" xmlns:xlink="http://www.w3.org/1999/xlink" width="236pt" height="244" viewBox="0 0 236 183"><g id="graph0" class="graph" transform="scale(1 1) rotate(0) translate(4 179)"><title>arm_compute/core/CL</title><polygon fill="#fff" stroke="none" points="-4 4 -4 -179 232 -179 232 4 -4 4"/><g id="clust1" class="cluster"><title>clusterdir_1fb090f0c6070330bfaccc4236d3ca0d</title><g id="a_clust1"><a target="_top" xlink:href="dir_1fb090f0c6070330bfaccc4236d3ca0d.xhtml" xlink:title="core"><polygon fill="#dde" stroke="#000" points="8 -8 8 -167 166 -167 166 -8 8 -8"/><text x="87" y="-155" font-family="Helvetica,sans-Serif" font-size="10" text-anchor="middle">core</text></a></g></g><g id="clust2" class="cluster"><title>clusterdir_1633709b037eda5b8477677909f78129</title><g id="a_clust2"><a target="_top" xlink:href="dir_1633709b037eda5b8477677909f78129.xhtml"><polygon fill="#eef" stroke="#000" points="16 -16 16 -140 158 -140 158 -16 16 -16"/></a></g></g><g id="node1" class="node"><title>dir_1633709b037eda5b8477677909f78129</title><text x="123" y="-111.5" font-family="Helvetica,sans-Serif" font-size="10" text-anchor="middle">CL</text></g><g id="node3" class="node"><title>dir_f906bbebc596bc606d589ccb705e6595</title><g id="a_node3"><a target="_top" xlink:href="dir_f906bbebc596bc606d589ccb705e6595.xhtml" xlink:title="kernels"><polygon fill="#fff" stroke="#000" points="150 -60 96 -60 96 -24 150 -24 150 -60"/><text x="123" y="-39.5" font-family="Helvetica,sans-Serif" font-size="10" text-anchor="middle">kernels</text></a></g></g><g id="edge1" class="edge"><title>dir_1633709b037eda5b8477677909f78129-&gt;dir_f906bbebc596bc606d589ccb705e6595</title><path fill="none" stroke="#000" d="M123,-95.6966C123,-87.9827 123,-78.7125 123,-70.1124"/><polygon fill="#000" stroke="#000" points="126.5 -70.104 123 -60.104 119.5 -70.104 126.5 -70.104"/><g id="a_edge1-headlabel"><a target="_top" xlink:href="dir_000002_000009.xhtml" xlink:title="136"><text x="129.339" y="-71.199" font-family="Helvetica,sans-Serif" font-size="10" text-anchor="middle">136</text></a></g></g><g id="node4" class="node"><title>dir_5815af820a9cc9481f1d0990a0d60286</title><g id="a_node4"><a target="_top" xlink:href="dir_5815af820a9cc9481f1d0990a0d60286.xhtml" xlink:title="support"><polygon fill="none" stroke="#000" points="228 -60 174 -60 174 -24 228 -24 228 -60"/><text x="201" y="-39.5" font-family="Helvetica,sans-Serif" font-size="10" text-anchor="middle">support</text></a></g></g><g id="edge2" class="edge"><title>dir_1633709b037eda5b8477677909f78129-&gt;dir_5815af820a9cc9481f1d0990a0d60286</title><path fill="none" stroke="#000" d="M142.281,-95.6966C151.915,-87.0503 163.729,-76.4486 174.227,-67.027"/><polygon fill="#000" stroke="#000" points="176.836 -69.388 181.941 -60.104 172.161 -64.179 176.836 -69.388"/><g id="a_edge2-headlabel"><a target="_top" xlink:href="dir_000002_000150.xhtml" xlink:title="1"><text x="176.057" y="-71.402" font-family="Helvetica,sans-Serif" font-size="10" text-anchor="middle">1</text></a></g></g><g id="node2" class="node"><title>dir_2d287d0b1a82c88d991f218c8bb4dd9a</title><g id="a_node2"><a target="_top" xlink:href="dir_2d287d0b1a82c88d991f218c8bb4dd9a.xhtml" xlink:title="gemm"><polygon fill="#fff" stroke="red" points="78 -132 24 -132 24 -96 78 -96 78 -132"/><text x="51" y="-111.5" font-family="Helvetica,sans-Serif" font-size="10" text-anchor="middle">gemm</text></a></g></g></g></svg>