<svg xmlns="http://www.w3.org/2000/svg" xmlns:xlink="http://www.w3.org/1999/xlink" width="384" height="308" viewBox="0 0 287.5 231"><g id="graph0" class="graph" transform="scale(1 1) rotate(0) translate(4 227)"><title>arm_compute/runtime/NEON/functions</title><polygon fill="#fff" stroke="none" points="-4 4 -4 -227 283.5 -227 283.5 4 -4 4"/><g id="clust1" class="cluster"><title>clusterdir_65e289039e1347f87d412b0a1b1a312c</title><g id="a_clust1"><a target="_top" xlink:href="dir_65e289039e1347f87d412b0a1b1a312c.xhtml" xlink:title="NEON"><polygon fill="#dde" stroke="#000" points="8 -56 8 -215 102 -215 102 -56 8 -56"/><text x="55" y="-203" font-family="Helvetica,sans-Serif" font-size="10" text-anchor="middle">NEON</text></a></g></g><g id="clust2" class="cluster"><title>clusterdir_345bd7154d1542d1e03fd2836959a19d</title><g id="a_clust2"><a target="_top" xlink:href="dir_345bd7154d1542d1e03fd2836959a19d.xhtml"><polygon fill="#eef" stroke="#000" points="16 -64 16 -188 94 -188 94 -64 16 -64"/></a></g></g><g id="node1" class="node"><title>dir_345bd7154d1542d1e03fd2836959a19d</title><text x="56" y="-159.5" font-family="Helvetica,sans-Serif" font-size="10" text-anchor="middle">functions</text></g><g id="node2" class="node"><title>dir_5cc15eabebeaf52b5630c3e40d7a7661</title><g id="a_node2"><a target="_top" xlink:href="dir_5cc15eabebeaf52b5630c3e40d7a7661.xhtml" xlink:title="assembly"><polygon fill="#fff" stroke="#000" points="86 -108 24 -108 24 -72 86 -72 86 -108"/><text x="55" y="-87.5" font-family="Helvetica,sans-Serif" font-size="10" text-anchor="middle">assembly</text></a></g></g><g id="edge3" class="edge"><title>dir_345bd7154d1542d1e03fd2836959a19d-&gt;dir_5cc15eabebeaf52b5630c3e40d7a7661</title><path fill="none" stroke="#000" d="M55.7528,-143.697C55.6426,-135.983 55.5102,-126.712 55.3873,-118.112"/><polygon fill="#000" stroke="#000" points="58.887 -118.053 55.244 -108.104 51.888 -118.153 58.887 -118.053"/><g id="a_edge3-headlabel"><a target="_top" xlink:href="dir_000055_000056.xhtml" xlink:title="1"><text x="61.777" y="-119.107" font-family="Helvetica,sans-Serif" font-size="10" text-anchor="middle">1</text></a></g></g><g id="node3" class="node"><title>dir_b496024afd63bafbf4e8da80d7d3a81a</title><g id="a_node3"><a target="_top" xlink:href="dir_b496024afd63bafbf4e8da80d7d3a81a.xhtml" xlink:title="CPP"><polygon fill="#fff" stroke="red" points="164 -108 110 -108 110 -72 164 -72 164 -108"/><text x="137" y="-87.5" font-family="Helvetica,sans-Serif" font-size="10" text-anchor="middle">CPP</text></a></g></g><g id="edge1" class="edge"><title>dir_345bd7154d1542d1e03fd2836959a19d-&gt;dir_b496024afd63bafbf4e8da80d7d3a81a</title><path fill="none" stroke="#000" d="M76.0225,-143.697C86.1256,-134.965 98.536,-124.24 109.518,-114.75"/><polygon fill="#000" stroke="#000" points="111.93 -117.291 117.208 -108.104 107.353 -111.995 111.93 -117.291"/><g id="a_edge1-headlabel"><a target="_top" xlink:href="dir_000055_000050.xhtml" xlink:title="2"><text x="111.067" y="-119.29" font-family="Helvetica,sans-Serif" font-size="10" text-anchor="middle">2</text></a></g></g><g id="node4" class="node"><title>dir_1fb090f0c6070330bfaccc4236d3ca0d</title><g id="a_node4"><a target="_top" xlink:href="dir_1fb090f0c6070330bfaccc4236d3ca0d.xhtml" xlink:title="core"><polygon fill="#fff" stroke="red" points="191 -36 137 -36 137 0 191 0 191 -36"/><text x="164" y="-15.5" font-family="Helvetica,sans-Serif" font-size="10" text-anchor="middle">core</text></a></g></g><g id="edge2" class="edge"><title>dir_345bd7154d1542d1e03fd2836959a19d-&gt;dir_1fb090f0c6070330bfaccc4236d3ca0d</title><path fill="none" stroke="#000" d="M86.1811,-156.608C114.067,-150.775 153.967,-137.517 173,-108 184.843,-89.6345 180.947,-64.5698 175.037,-45.7189"/><polygon fill="#000" stroke="#000" points="178.328 -44.526 171.735 -36.232 171.717 -46.827 178.328 -44.526"/><g id="a_edge2-headlabel"><a target="_top" xlink:href="dir_000055_000001.xhtml" xlink:title="218"><text x="182.191" y="-44.487" font-family="Helvetica,sans-Serif" font-size="10" text-anchor="middle">218</text></a></g></g><g id="node5" class="node"><title>dir_b9621ae687ab229876c54f8c2df20e15</title><g id="a_node5"><a target="_top" xlink:href="dir_b9621ae687ab229876c54f8c2df20e15.xhtml" xlink:title="common"><polygon fill="none" stroke="#000" points="279.5 -108 220.5 -108 220.5 -72 279.5 -72 279.5 -108"/><text x="250" y="-87.5" font-family="Helvetica,sans-Serif" font-size="10" text-anchor="middle">common</text></a></g></g><g id="edge4" class="edge"><title>dir_345bd7154d1542d1e03fd2836959a19d-&gt;dir_b9621ae687ab229876c54f8c2df20e15</title><path fill="none" stroke="#000" d="M86.2599,-150.597C116.621,-140.092 164.681,-123.278 206,-108 207.584,-107.414 209.199,-106.812 210.828,-106.201"/><polygon fill="#000" stroke="#000" points="212.113 -109.457 220.222 -102.64 209.631 -102.912 212.113 -109.457"/><g id="a_edge4-headlabel"><a target="_top" xlink:href="dir_000055_000049.xhtml" xlink:title="2"><text x="209.758" y="-110.887" font-family="Helvetica,sans-Serif" font-size="10" text-anchor="middle">2</text></a></g></g><g id="edge5" class="edge"><title>dir_b496024afd63bafbf4e8da80d7d3a81a-&gt;dir_1fb090f0c6070330bfaccc4236d3ca0d</title><path fill="none" stroke="#000" d="M137.758,-71.6966C140.01,-63.7284 143.509,-54.0995 147.31,-45.2641"/><polygon fill="#000" stroke="#000" points="150.523 -46.653 151.508 -36.104 144.16 -43.737 150.523 -46.653"/><g id="a_edge5-headlabel"><a target="_top" xlink:href="dir_000050_000001.xhtml" xlink:title="8"><text x="151.607" y="-48.604" font-family="Helvetica,sans-Serif" font-size="10" text-anchor="middle">8</text></a></g></g><g id="edge6" class="edge"><title>dir_1fb090f0c6070330bfaccc4236d3ca0d-&gt;dir_b496024afd63bafbf4e8da80d7d3a81a</title><path fill="none" stroke="#000" d="M163.298,-36.1043C161.067,-44.0447 157.581,-53.6661 153.785,-62.5146"/><polygon fill="#000" stroke="#000" points="150.562 -61.147 149.59 -71.697 156.929 -64.055 150.562 -61.147"/><g id="a_edge6-headlabel"><a target="_top" xlink:href="dir_000001_000050.xhtml" xlink:title="1"><text x="149.473" y="-54.197" font-family="Helvetica,sans-Serif" font-size="10" text-anchor="middle">1</text></a></g></g><g id="edge7" class="edge"><title>dir_b9621ae687ab229876c54f8c2df20e15-&gt;dir_1fb090f0c6070330bfaccc4236d3ca0d</title><path fill="none" stroke="#000" d="M228.742,-71.6966C217.911,-62.8807 204.582,-52.0321 192.84,-42.4742"/><polygon fill="#000" stroke="#000" points="194.979 -39.703 185.014 -36.104 190.56 -45.132 194.979 -39.703"/><g id="a_edge7-headlabel"><a target="_top" xlink:href="dir_000049_000001.xhtml" xlink:title="3"><text x="199.559" y="-37.27" font-family="Helvetica,sans-Serif" font-size="10" text-anchor="middle">3</text></a></g></g></g></svg>