<svg xmlns="http://www.w3.org/2000/svg" xmlns:xlink="http://www.w3.org/1999/xlink" width="280" height="295pt" viewBox="0 0 210 295"><g id="graph0" class="graph" transform="scale(1 1) rotate(0) translate(4 291)"><title>tests/benchmark/CL</title><polygon fill="#fff" stroke="none" points="-4 4 -4 -291 206 -291 206 4 -4 4"/><g id="clust1" class="cluster"><title>clusterdir_4f2df8950dc650bf7cf9176fae02facc</title><g id="a_clust1"><a target="_top" xlink:href="dir_4f2df8950dc650bf7cf9176fae02facc.xhtml" xlink:title="benchmark"><polygon fill="#dde" stroke="#000" points="54 -208 54 -279 125 -279 125 -208 54 -208"/><text x="89.5" y="-267" font-family="Helvetica,sans-Serif" font-size="10" text-anchor="middle">benchmark</text></a></g></g><g id="node1" class="node"><title>dir_4da487531dc5bdc76b523c9e82b781b1</title><g id="a_node1"><a target="_top" xlink:href="dir_4da487531dc5bdc76b523c9e82b781b1.xhtml" xlink:title="CL"><polygon fill="#eef" stroke="#000" points="116 -252 62 -252 62 -216 116 -216 116 -252"/><text x="89" y="-231.5" font-family="Helvetica,sans-Serif" font-size="10" text-anchor="middle">CL</text></a></g></g><g id="node2" class="node"><title>dir_cbdb8362360e11eafe2fa3bc74cf0ffd</title><g id="a_node2"><a target="_top" xlink:href="dir_cbdb8362360e11eafe2fa3bc74cf0ffd.xhtml" xlink:title="utils"><polygon fill="#fff" stroke="red" points="54 -108 0 -108 0 -72 54 -72 54 -108"/><text x="27" y="-87.5" font-family="Helvetica,sans-Serif" font-size="10" text-anchor="middle">utils</text></a></g></g><g id="edge1" class="edge"><title>dir_4da487531dc5bdc76b523c9e82b781b1-&gt;dir_cbdb8362360e11eafe2fa3bc74cf0ffd</title><path fill="none" stroke="#000" d="M61.9386,-221.582C45.0927,-212.879 24.8218,-199.116 15,-180 5.08011,-160.693 9.49848,-136.064 15.5939,-117.612"/><polygon fill="#000" stroke="#000" points="18.936 -118.663 19.072 -108.069 12.359 -116.265 18.936 -118.663"/><g id="a_edge1-headlabel"><a target="_top" xlink:href="dir_000119_000034.xhtml" xlink:title="47"><text x="20.373" y="-120.512" font-family="Helvetica,sans-Serif" font-size="10" text-anchor="middle">47</text></a></g></g><g id="node3" class="node"><title>dir_9e71e2da941d3cafc4d98a9f6ae3de4f</title><g id="a_node3"><a target="_top" xlink:href="dir_9e71e2da941d3cafc4d98a9f6ae3de4f.xhtml" xlink:title="framework"><polygon fill="#fff" stroke="red" points="91.5 -180 24.5 -180 24.5 -144 91.5 -144 91.5 -180"/><text x="58" y="-159.5" font-family="Helvetica,sans-Serif" font-size="10" text-anchor="middle">framework</text></a></g></g><g id="edge2" class="edge"><title>dir_4da487531dc5bdc76b523c9e82b781b1-&gt;dir_9e71e2da941d3cafc4d98a9f6ae3de4f</title><path fill="none" stroke="#000" d="M81.3371,-215.697C77.8083,-207.728 73.5441,-198.1 69.6313,-189.264"/><polygon fill="#000" stroke="#000" points="72.824 -187.831 65.575 -180.104 66.424 -190.665 72.824 -187.831"/><g id="a_edge2-headlabel"><a target="_top" xlink:href="dir_000119_000032.xhtml" xlink:title="93"><text x="76.876" y="-187.468" font-family="Helvetica,sans-Serif" font-size="10" text-anchor="middle">93</text></a></g></g><g id="node4" class="node"><title>dir_214608ef36d61442cb2b0c1c4e9a7def</title><g id="a_node4"><a target="_top" xlink:href="dir_214608ef36d61442cb2b0c1c4e9a7def.xhtml" xlink:title="arm_compute"><polygon fill="#fff" stroke="red" points="124 -36 40 -36 40 0 124 0 124 -36"/><text x="82" y="-15.5" font-family="Helvetica,sans-Serif" font-size="10" text-anchor="middle">arm_compute</text></a></g></g><g id="edge3" class="edge"><title>dir_4da487531dc5bdc76b523c9e82b781b1-&gt;dir_214608ef36d61442cb2b0c1c4e9a7def</title><path fill="none" stroke="#000" d="M93.4642,-215.953C95.935,-205.63 98.7522,-192.153 100,-180 104.827,-132.994 95.5653,-78.3429 88.6285,-46.327"/><polygon fill="#000" stroke="#000" points="92 -45.368 86.389 -36.381 85.171 -46.906 92 -45.368"/><g id="a_edge3-headlabel"><a target="_top" xlink:href="dir_000119_000000.xhtml" xlink:title="204"><text x="95.56" y="-45.751" font-family="Helvetica,sans-Serif" font-size="10" text-anchor="middle">204</text></a></g></g><g id="node5" class="node"><title>dir_896191444cf08ec8ade6f88256cb2bdd</title><g id="a_node5"><a target="_top" xlink:href="dir_896191444cf08ec8ade6f88256cb2bdd.xhtml" xlink:title="CL"><polygon fill="none" stroke="#000" points="202 -180 148 -180 148 -144 202 -144 202 -180"/><text x="175" y="-159.5" font-family="Helvetica,sans-Serif" font-size="10" text-anchor="middle">CL</text></a></g></g><g id="edge4" class="edge"><title>dir_4da487531dc5bdc76b523c9e82b781b1-&gt;dir_896191444cf08ec8ade6f88256cb2bdd</title><path fill="none" stroke="#000" d="M110.258,-215.697C121.089,-206.881 134.418,-196.032 146.16,-186.474"/><polygon fill="#000" stroke="#000" points="148.44 -189.132 153.986 -180.104 144.021 -183.703 148.44 -189.132"/><g id="a_edge4-headlabel"><a target="_top" xlink:href="dir_000119_000151.xhtml" xlink:title="52"><text x="147.444" y="-191.103" font-family="Helvetica,sans-Serif" font-size="10" text-anchor="middle">52</text></a></g></g><g id="edge5" class="edge"><title>dir_cbdb8362360e11eafe2fa3bc74cf0ffd-&gt;dir_214608ef36d61442cb2b0c1c4e9a7def</title><path fill="none" stroke="#000" d="M34.6798,-71.6966C40.4079,-63.3046 48.257,-53.0705 55.9744,-43.8613"/><polygon fill="#000" stroke="#000" points="58.784 -45.962 62.666 -36.104 53.484 -41.39 58.784 -45.962"/><g id="a_edge5-headlabel"><a target="_top" xlink:href="dir_000034_000000.xhtml" xlink:title="37"><text x="58.586" y="-48.039" font-family="Helvetica,sans-Serif" font-size="10" text-anchor="middle">37</text></a></g></g><g id="edge6" class="edge"><title>dir_9e71e2da941d3cafc4d98a9f6ae3de4f-&gt;dir_cbdb8362360e11eafe2fa3bc74cf0ffd</title><path fill="none" stroke="#000" d="M50.3371,-143.697C46.8083,-135.728 42.5441,-126.1 38.6313,-117.264"/><polygon fill="#000" stroke="#000" points="41.824 -115.831 34.575 -108.104 35.424 -118.665 41.824 -115.831"/><g id="a_edge6-headlabel"><a target="_top" xlink:href="dir_000032_000034.xhtml" xlink:title="3"><text x="45.876" y="-115.468" font-family="Helvetica,sans-Serif" font-size="10" text-anchor="middle">3</text></a></g></g><g id="edge7" class="edge"><title>dir_9e71e2da941d3cafc4d98a9f6ae3de4f-&gt;dir_214608ef36d61442cb2b0c1c4e9a7def</title><path fill="none" stroke="#000" d="M60.895,-143.871C64.9853,-119.67 72.4996,-75.2108 77.3702,-46.3932"/><polygon fill="#000" stroke="#000" points="80.879 -46.633 79.095 -36.189 73.977 -45.466 80.879 -46.633"/><g id="a_edge7-headlabel"><a target="_top" xlink:href="dir_000032_000000.xhtml" xlink:title="14"><text x="83.08" y="-48.15" font-family="Helvetica,sans-Serif" font-size="10" text-anchor="middle">14</text></a></g></g><g id="edge8" class="edge"><title>dir_214608ef36d61442cb2b0c1c4e9a7def-&gt;dir_cbdb8362360e11eafe2fa3bc74cf0ffd</title><path fill="none" stroke="#000" d="M74.4559,-36.1043C68.7615,-44.467 60.9284,-54.6945 53.209,-63.9197"/><polygon fill="#000" stroke="#000" points="50.385 -61.835 46.511 -71.697 55.689 -66.403 50.385 -61.835"/><g id="a_edge8-headlabel"><a target="_top" xlink:href="dir_000000_000034.xhtml" xlink:title="1"><text x="50.579" y="-54.759" font-family="Helvetica,sans-Serif" font-size="10" text-anchor="middle">1</text></a></g></g><g id="edge9" class="edge"><title>dir_896191444cf08ec8ade6f88256cb2bdd-&gt;dir_214608ef36d61442cb2b0c1c4e9a7def</title><path fill="none" stroke="#000" d="M169.058,-143.677C162.212,-125.033 149.84,-94.967 134,-72 126.924,-61.7409 117.776,-51.6716 109.131,-43.1119"/><polygon fill="#000" stroke="#000" points="111.367 -40.407 101.727 -36.011 106.522 -45.459 111.367 -40.407"/><g id="a_edge9-headlabel"><a target="_top" xlink:href="dir_000151_000000.xhtml" xlink:title="10"><text x="115.927" y="-38.346" font-family="Helvetica,sans-Serif" font-size="10" text-anchor="middle">10</text></a></g></g></g></svg>