<svg xmlns="http://www.w3.org/2000/svg" xmlns:xlink="http://www.w3.org/1999/xlink" width="292" height="295pt" viewBox="0 0 219.39 295"><g id="graph0" class="graph" transform="scale(1 1) rotate(0) translate(4 291)"><title>tests/benchmark/GLES_COMPUTE</title><polygon fill="#fff" stroke="none" points="-4 4 -4 -291 215.388 -291 215.388 4 -4 4"/><g id="clust1" class="cluster"><title>clusterdir_4f2df8950dc650bf7cf9176fae02facc</title><g id="a_clust1"><a target="_top" xlink:href="dir_4f2df8950dc650bf7cf9176fae02facc.xhtml" xlink:title="benchmark"><polygon fill="#dde" stroke="#000" points="40.652 -208 40.652 -279 152.652 -279 152.652 -208 40.652 -208"/><text x="96.652" y="-267" font-family="Helvetica,sans-Serif" font-size="10" text-anchor="middle">benchmark</text></a></g></g><g id="node1" class="node"><title>dir_184f72a532a521c8d66e76d860c2010a</title><g id="a_node1"><a target="_top" xlink:href="dir_184f72a532a521c8d66e76d860c2010a.xhtml" xlink:title="GLES_COMPUTE"><polygon fill="#eef" stroke="#000" points="144.152 -252 49.152 -252 49.152 -216 144.152 -216 144.152 -252"/><text x="96.652" y="-231.5" font-family="Helvetica,sans-Serif" font-size="10" text-anchor="middle">GLES_COMPUTE</text></a></g></g><g id="node2" class="node"><title>dir_cbdb8362360e11eafe2fa3bc74cf0ffd</title><g id="a_node2"><a target="_top" xlink:href="dir_cbdb8362360e11eafe2fa3bc74cf0ffd.xhtml" xlink:title="utils"><polygon fill="#fff" stroke="red" points="74.652 -108 20.652 -108 20.652 -72 74.652 -72 74.652 -108"/><text x="47.652" y="-87.5" font-family="Helvetica,sans-Serif" font-size="10" text-anchor="middle">utils</text></a></g></g><g id="edge6" class="edge"><title>dir_184f72a532a521c8d66e76d860c2010a-&gt;dir_cbdb8362360e11eafe2fa3bc74cf0ffd</title><path fill="none" stroke="#000" d="M48.9798,-217.159C31.8831,-208.911 14.4294,-196.917 4.65189,-180 -7.48624,-158.999 6.88949,-134.056 22.2002,-115.926"/><polygon fill="#000" stroke="#000" points="25.136 -117.896 29.209 -108.115 19.925 -113.221 25.136 -117.896"/><g id="a_edge6-headlabel"><a target="_top" xlink:href="dir_000135_000034.xhtml" xlink:title="12"><text x="24.849" y="-119.967" font-family="Helvetica,sans-Serif" font-size="10" text-anchor="middle">12</text></a></g></g><g id="node3" class="node"><title>dir_9e71e2da941d3cafc4d98a9f6ae3de4f</title><g id="a_node3"><a target="_top" xlink:href="dir_9e71e2da941d3cafc4d98a9f6ae3de4f.xhtml" xlink:title="framework"><polygon fill="#fff" stroke="red" points="81.152 -180 14.152 -180 14.152 -144 81.152 -144 81.152 -180"/><text x="47.652" y="-159.5" font-family="Helvetica,sans-Serif" font-size="10" text-anchor="middle">framework</text></a></g></g><g id="edge7" class="edge"><title>dir_184f72a532a521c8d66e76d860c2010a-&gt;dir_9e71e2da941d3cafc4d98a9f6ae3de4f</title><path fill="none" stroke="#000" d="M84.5395,-215.697C78.7838,-207.474 71.7902,-197.483 65.4464,-188.421"/><polygon fill="#000" stroke="#000" points="68.227 -186.29 59.625 -180.104 62.492 -190.304 68.227 -186.29"/><g id="a_edge7-headlabel"><a target="_top" xlink:href="dir_000135_000032.xhtml" xlink:title="24"><text x="72.614" y="-185.106" font-family="Helvetica,sans-Serif" font-size="10" text-anchor="middle">24</text></a></g></g><g id="node4" class="node"><title>dir_7365e77196b52ca311bb83f181e59b8c</title><g id="a_node4"><a target="_top" xlink:href="dir_7365e77196b52ca311bb83f181e59b8c.xhtml" xlink:title="GLES_COMPUTE"><polygon fill="none" stroke="#000" points="194.152 -180 99.152 -180 99.152 -144 194.152 -144 194.152 -180"/><text x="146.652" y="-159.5" font-family="Helvetica,sans-Serif" font-size="10" text-anchor="middle">GLES_COMPUTE</text></a></g></g><g id="edge8" class="edge"><title>dir_184f72a532a521c8d66e76d860c2010a-&gt;dir_7365e77196b52ca311bb83f181e59b8c</title><path fill="none" stroke="#000" d="M109.011,-215.697C114.885,-207.474 122.021,-197.483 128.494,-188.421"/><polygon fill="#000" stroke="#000" points="131.47 -190.276 134.435 -180.104 125.774 -186.207 131.47 -190.276"/><g id="a_edge8-headlabel"><a target="_top" xlink:href="dir_000135_000152.xhtml" xlink:title="12"><text x="131.691" y="-192.351" font-family="Helvetica,sans-Serif" font-size="10" text-anchor="middle">12</text></a></g></g><g id="node5" class="node"><title>dir_214608ef36d61442cb2b0c1c4e9a7def</title><g id="a_node5"><a target="_top" xlink:href="dir_214608ef36d61442cb2b0c1c4e9a7def.xhtml" xlink:title="arm_compute"><polygon fill="#fff" stroke="red" points="144.652 -36 60.652 -36 60.652 0 144.652 0 144.652 -36"/><text x="102.652" y="-15.5" font-family="Helvetica,sans-Serif" font-size="10" text-anchor="middle">arm_compute</text></a></g></g><g id="edge9" class="edge"><title>dir_184f72a532a521c8d66e76d860c2010a-&gt;dir_214608ef36d61442cb2b0c1c4e9a7def</title><path fill="none" stroke="#000" d="M144.173,-221.604C165.97,-213.744 189.78,-200.827 202.652,-180 232.933,-131.004 175.047,-73.7359 135.409,-42.4172"/><polygon fill="#000" stroke="#000" points="137.323 -39.474 127.267 -36.14 133.05 -45.017 137.323 -39.474"/><g id="a_edge9-headlabel"><a target="_top" xlink:href="dir_000135_000000.xhtml" xlink:title="58"><text x="141.904" y="-36.919" font-family="Helvetica,sans-Serif" font-size="10" text-anchor="middle">58</text></a></g></g><g id="edge1" class="edge"><title>dir_cbdb8362360e11eafe2fa3bc74cf0ffd-&gt;dir_214608ef36d61442cb2b0c1c4e9a7def</title><path fill="none" stroke="#000" d="M55.3317,-71.6966C61.0598,-63.3046 68.9088,-53.0705 76.6263,-43.8613"/><polygon fill="#000" stroke="#000" points="79.436 -45.962 83.318 -36.104 74.136 -41.39 79.436 -45.962"/><g id="a_edge1-headlabel"><a target="_top" xlink:href="dir_000034_000000.xhtml" xlink:title="37"><text x="79.238" y="-48.039" font-family="Helvetica,sans-Serif" font-size="10" text-anchor="middle">37</text></a></g></g><g id="edge2" class="edge"><title>dir_9e71e2da941d3cafc4d98a9f6ae3de4f-&gt;dir_cbdb8362360e11eafe2fa3bc74cf0ffd</title><path fill="none" stroke="#000" d="M47.6519,-143.697C47.6519,-135.983 47.6519,-126.712 47.6519,-118.112"/><polygon fill="#000" stroke="#000" points="51.152 -118.104 47.652 -108.104 44.152 -118.104 51.152 -118.104"/><g id="a_edge2-headlabel"><a target="_top" xlink:href="dir_000032_000034.xhtml" xlink:title="3"><text x="53.991" y="-119.199" font-family="Helvetica,sans-Serif" font-size="10" text-anchor="middle">3</text></a></g></g><g id="edge3" class="edge"><title>dir_9e71e2da941d3cafc4d98a9f6ae3de4f-&gt;dir_214608ef36d61442cb2b0c1c4e9a7def</title><path fill="none" stroke="#000" d="M61.8166,-143.851C69.3421,-133.93 78.149,-120.89 83.6519,-108 92.0651,-88.2932 96.8966,-64.4881 99.5802,-46.4579"/><polygon fill="#000" stroke="#000" points="103.079 -46.705 100.955 -36.325 96.142 -45.764 103.079 -46.705"/><g id="a_edge3-headlabel"><a target="_top" xlink:href="dir_000032_000000.xhtml" xlink:title="14"><text x="105.409" y="-48.149" font-family="Helvetica,sans-Serif" font-size="10" text-anchor="middle">14</text></a></g></g><g id="edge4" class="edge"><title>dir_7365e77196b52ca311bb83f181e59b8c-&gt;dir_214608ef36d61442cb2b0c1c4e9a7def</title><path fill="none" stroke="#000" d="M141.344,-143.871C133.812,-119.564 119.948,-74.8187 111.022,-46.0132"/><polygon fill="#000" stroke="#000" points="114.281 -44.705 107.978 -36.189 107.595 -46.777 114.281 -44.705"/><g id="a_edge4-headlabel"><a target="_top" xlink:href="dir_000152_000000.xhtml" xlink:title="3"><text x="118.057" y="-44.798" font-family="Helvetica,sans-Serif" font-size="10" text-anchor="middle">3</text></a></g></g><g id="edge5" class="edge"><title>dir_214608ef36d61442cb2b0c1c4e9a7def-&gt;dir_cbdb8362360e11eafe2fa3bc74cf0ffd</title><path fill="none" stroke="#000" d="M95.1078,-36.1043C89.4134,-44.467 81.5803,-54.6945 73.8609,-63.9197"/><polygon fill="#000" stroke="#000" points="71.037 -61.835 67.163 -71.697 76.341 -66.403 71.037 -61.835"/><g id="a_edge5-headlabel"><a target="_top" xlink:href="dir_000000_000034.xhtml" xlink:title="1"><text x="71.231" y="-54.759" font-family="Helvetica,sans-Serif" font-size="10" text-anchor="middle">1</text></a></g></g></g></svg>