<svg xmlns="http://www.w3.org/2000/svg" xmlns:xlink="http://www.w3.org/1999/xlink" width="251pt" height="500" viewBox="0 0 250.99 375"><g id="graph0" class="graph" transform="scale(1 1) rotate(0) translate(4 371)"><title>tests/validation/NEON</title><polygon fill="#fff" stroke="none" points="-4 4 -4 -371 246.995 -371 246.995 4 -4 4"/><g id="clust1" class="cluster"><title>clusterdir_e7c7b16542faa38cb4655ff1750d3604</title><g id="a_clust1"><a target="_top" xlink:href="dir_e7c7b16542faa38cb4655ff1750d3604.xhtml" xlink:title="validation"><polygon fill="#dde" stroke="#000" points="67.038 -272 67.038 -359 225.039 -359 225.039 -272 67.038 -272"/><text x="146.039" y="-347" font-family="Helvetica,sans-Serif" font-size="10" text-anchor="middle">validation</text></a></g></g><g id="clust2" class="cluster"><title>clusterdir_0538a82dae0483a21d0f1e9d7e0a45c6</title><g id="a_clust2"><a target="_top" xlink:href="dir_0538a82dae0483a21d0f1e9d7e0a45c6.xhtml"><polygon fill="#eef" stroke="#000" points="75.038 -280 75.038 -332 217.039 -332 217.039 -280 75.038 -280"/></a></g></g><g id="node1" class="node"><title>dir_0538a82dae0483a21d0f1e9d7e0a45c6</title><text x="182.039" y="-303.5" font-family="Helvetica,sans-Serif" font-size="10" text-anchor="middle">NEON</text></g><g id="node3" class="node"><title>dir_46fdb196cebdbffe77dac340cde62f29</title><g id="a_node3"><a target="_top" xlink:href="dir_46fdb196cebdbffe77dac340cde62f29.xhtml" xlink:title="reference"><polygon fill="none" stroke="#000" points="213.039 -252 151.039 -252 151.039 -216 213.039 -216 213.039 -252"/><text x="182.039" y="-231.5" font-family="Helvetica,sans-Serif" font-size="10" text-anchor="middle">reference</text></a></g></g><g id="edge14" class="edge"><title>dir_0538a82dae0483a21d0f1e9d7e0a45c6-&gt;dir_46fdb196cebdbffe77dac340cde62f29</title><path fill="none" stroke="#000" d="M182.039,-287.697C182.039,-279.983 182.039,-270.712 182.039,-262.112"/><polygon fill="#000" stroke="#000" points="185.539 -262.104 182.039 -252.104 178.539 -262.104 185.539 -262.104"/><g id="a_edge14-headlabel"><a target="_top" xlink:href="dir_000122_000033.xhtml" xlink:title="3"><text x="188.378" y="-263.199" font-family="Helvetica,sans-Serif" font-size="10" text-anchor="middle">3</text></a></g></g><g id="node4" class="node"><title>dir_445738e6fed662d0b65e690e3f1e1de0</title><g id="a_node4"><a target="_top" xlink:href="dir_445738e6fed662d0b65e690e3f1e1de0.xhtml" xlink:title="NEON"><polygon fill="none" stroke="#000" points="95.038 -252 41.038 -252 41.038 -216 95.038 -216 95.038 -252"/><text x="68.038" y="-231.5" font-family="Helvetica,sans-Serif" font-size="10" text-anchor="middle">NEON</text></a></g></g><g id="edge15" class="edge"><title>dir_0538a82dae0483a21d0f1e9d7e0a45c6-&gt;dir_445738e6fed662d0b65e690e3f1e1de0</title><path fill="none" stroke="#000" d="M165.342,-287.767C159.541,-282.322 152.791,-276.545 146.039,-272 133.232,-263.38 118.104,-255.707 104.596,-249.614"/><polygon fill="#000" stroke="#000" points="105.667 -246.263 95.102 -245.466 102.864 -252.677 105.667 -246.263"/><g id="a_edge15-headlabel"><a target="_top" xlink:href="dir_000122_000153.xhtml" xlink:title="139"><text x="110.098" y="-242.6" font-family="Helvetica,sans-Serif" font-size="10" text-anchor="middle">139</text></a></g></g><g id="node5" class="node"><title>dir_9e71e2da941d3cafc4d98a9f6ae3de4f</title><g id="a_node5"><a target="_top" xlink:href="dir_9e71e2da941d3cafc4d98a9f6ae3de4f.xhtml" xlink:title="framework"><polygon fill="#fff" stroke="red" points="201.539 -180 134.539 -180 134.539 -144 201.539 -144 201.539 -180"/><text x="168.039" y="-159.5" font-family="Helvetica,sans-Serif" font-size="10" text-anchor="middle">framework</text></a></g></g><g id="edge16" class="edge"><title>dir_0538a82dae0483a21d0f1e9d7e0a45c6-&gt;dir_9e71e2da941d3cafc4d98a9f6ae3de4f</title><path fill="none" stroke="#000" d="M199.772,-287.599C208.277,-277.998 217.571,-265.336 222.039,-252 227.121,-236.829 228.23,-230.753 222.039,-216 217.399,-204.945 209.204,-195.037 200.579,-186.862"/><polygon fill="#000" stroke="#000" points="202.779 -184.136 192.967 -180.139 198.145 -189.382 202.779 -184.136"/><g id="a_edge16-headlabel"><a target="_top" xlink:href="dir_000122_000032.xhtml" xlink:title="360"><text x="207.353" y="-181.887" font-family="Helvetica,sans-Serif" font-size="10" text-anchor="middle">360</text></a></g></g><g id="node6" class="node"><title>dir_214608ef36d61442cb2b0c1c4e9a7def</title><g id="a_node6"><a target="_top" xlink:href="dir_214608ef36d61442cb2b0c1c4e9a7def.xhtml" xlink:title="arm_compute"><polygon fill="#fff" stroke="red" points="140.039 -108 56.038 -108 56.038 -72 140.039 -72 140.039 -108"/><text x="98.038" y="-87.5" font-family="Helvetica,sans-Serif" font-size="10" text-anchor="middle">arm_compute</text></a></g></g><g id="edge17" class="edge"><title>dir_0538a82dae0483a21d0f1e9d7e0a45c6-&gt;dir_214608ef36d61442cb2b0c1c4e9a7def</title><path fill="none" stroke="#000" d="M208.618,-287.912C220.275,-278.81 232.724,-266.494 239.039,-252 245.429,-237.332 242.083,-231.708 239.039,-216 232.474,-182.132 233.701,-169.104 210.039,-144 193.724,-126.692 170.61,-114.448 149.613,-106.123"/><polygon fill="#000" stroke="#000" points="150.739 -102.807 140.147 -102.569 148.279 -109.36 150.739 -102.807"/><g id="a_edge17-headlabel"><a target="_top" xlink:href="dir_000122_000000.xhtml" xlink:title="482"><text x="155.102" y="-98.912" font-family="Helvetica,sans-Serif" font-size="10" text-anchor="middle">482</text></a></g></g><g id="node2" class="node"><title>dir_6fc87decd8cffc07e5f49c197ca3de10</title><g id="a_node2"><a target="_top" xlink:href="dir_6fc87decd8cffc07e5f49c197ca3de10.xhtml" xlink:title="UNIT"><polygon fill="#fff" stroke="#000" points="137.039 -324 83.038 -324 83.038 -288 137.039 -288 137.039 -324"/><text x="110.039" y="-303.5" font-family="Helvetica,sans-Serif" font-size="10" text-anchor="middle">UNIT</text></a></g></g><g id="edge4" class="edge"><title>dir_6fc87decd8cffc07e5f49c197ca3de10-&gt;dir_46fdb196cebdbffe77dac340cde62f29</title><path fill="none" stroke="#000" d="M127.836,-287.697C136.643,-279.135 147.421,-268.656 157.04,-259.304"/><polygon fill="#000" stroke="#000" points="159.715 -261.585 164.446 -252.104 154.836 -256.566 159.715 -261.585"/><g id="a_edge4-headlabel"><a target="_top" xlink:href="dir_000149_000033.xhtml" xlink:title="1"><text x="159.117" y="-263.626" font-family="Helvetica,sans-Serif" font-size="10" text-anchor="middle">1</text></a></g></g><g id="edge5" class="edge"><title>dir_6fc87decd8cffc07e5f49c197ca3de10-&gt;dir_445738e6fed662d0b65e690e3f1e1de0</title><path fill="none" stroke="#000" d="M99.6565,-287.697C94.7739,-279.559 88.852,-269.689 83.4593,-260.701"/><polygon fill="#000" stroke="#000" points="86.447 -258.879 78.301 -252.104 80.445 -262.48 86.447 -258.879"/><g id="a_edge5-headlabel"><a target="_top" xlink:href="dir_000149_000153.xhtml" xlink:title="1"><text x="90.731" y="-258" font-family="Helvetica,sans-Serif" font-size="10" text-anchor="middle">1</text></a></g></g><g id="edge6" class="edge"><title>dir_6fc87decd8cffc07e5f49c197ca3de10-&gt;dir_9e71e2da941d3cafc4d98a9f6ae3de4f</title><path fill="none" stroke="#000" d="M115.618,-287.721C121.606,-269.628 131.665,-240.494 142.039,-216 145.756,-207.223 150.203,-197.829 154.36,-189.424"/><polygon fill="#000" stroke="#000" points="157.512 -190.947 158.876 -180.44 151.257 -187.803 157.512 -190.947"/><g id="a_edge6-headlabel"><a target="_top" xlink:href="dir_000149_000032.xhtml" xlink:title="4"><text x="158.435" y="-192.934" font-family="Helvetica,sans-Serif" font-size="10" text-anchor="middle">4</text></a></g></g><g id="edge7" class="edge"><title>dir_6fc87decd8cffc07e5f49c197ca3de10-&gt;dir_214608ef36d61442cb2b0c1c4e9a7def</title><path fill="none" stroke="#000" d="M82.7268,-294.51C64.7684,-286.008 42.688,-272.112 32.0385,-252 7.53799,-205.731 46.4612,-148.319 74.1615,-116.058"/><polygon fill="#000" stroke="#000" points="76.913 -118.23 80.917 -108.42 71.67 -113.592 76.913 -118.23"/><g id="a_edge7-headlabel"><a target="_top" xlink:href="dir_000149_000000.xhtml" xlink:title="13"><text x="76.659" y="-120.303" font-family="Helvetica,sans-Serif" font-size="10" text-anchor="middle">13</text></a></g></g><g id="node7" class="node"><title>dir_5815af820a9cc9481f1d0990a0d60286</title><g id="a_node7"><a target="_top" xlink:href="dir_5815af820a9cc9481f1d0990a0d60286.xhtml" xlink:title="support"><polygon fill="none" stroke="#000" points="125.039 -36 71.038 -36 71.038 0 125.039 0 125.039 -36"/><text x="98.038" y="-15.5" font-family="Helvetica,sans-Serif" font-size="10" text-anchor="middle">support</text></a></g></g><g id="edge8" class="edge"><title>dir_6fc87decd8cffc07e5f49c197ca3de10-&gt;dir_5815af820a9cc9481f1d0990a0d60286</title><path fill="none" stroke="#000" d="M82.9056,-297.015C61.8818,-289.238 34.1904,-275.139 21.0385,-252 1.68398,-217.948 -20.1409,-178.957 36.0385,-72 42.2736,-60.1294 52.3783,-49.7893 62.6371,-41.4715"/><polygon fill="#000" stroke="#000" points="64.985 -44.083 70.826 -35.244 60.748 -38.511 64.985 -44.083"/><g id="a_edge8-headlabel"><a target="_top" xlink:href="dir_000149_000150.xhtml" xlink:title="2"><text x="63.843" y="-46.019" font-family="Helvetica,sans-Serif" font-size="10" text-anchor="middle">2</text></a></g></g><g id="edge1" class="edge"><title>dir_46fdb196cebdbffe77dac340cde62f29-&gt;dir_9e71e2da941d3cafc4d98a9f6ae3de4f</title><path fill="none" stroke="#000" d="M178.578,-215.697C177.035,-207.983 175.181,-198.712 173.461,-190.112"/><polygon fill="#000" stroke="#000" points="176.853 -189.224 171.459 -180.104 169.989 -190.597 176.853 -189.224"/><g id="a_edge1-headlabel"><a target="_top" xlink:href="dir_000033_000032.xhtml" xlink:title="3"><text x="180.342" y="-189.692" font-family="Helvetica,sans-Serif" font-size="10" text-anchor="middle">3</text></a></g></g><g id="edge2" class="edge"><title>dir_46fdb196cebdbffe77dac340cde62f29-&gt;dir_214608ef36d61442cb2b0c1c4e9a7def</title><path fill="none" stroke="#000" d="M158.427,-215.899C146.906,-206.468 133.698,-193.869 125.039,-180 113.188,-161.02 106.256,-136.51 102.39,-118.018"/><polygon fill="#000" stroke="#000" points="105.823 -117.336 100.499 -108.176 98.948 -118.657 105.823 -117.336"/><g id="a_edge2-headlabel"><a target="_top" xlink:href="dir_000033_000000.xhtml" xlink:title="86"><text x="109.289" y="-117.831" font-family="Helvetica,sans-Serif" font-size="10" text-anchor="middle">86</text></a></g></g><g id="edge3" class="edge"><title>dir_46fdb196cebdbffe77dac340cde62f29-&gt;dir_5815af820a9cc9481f1d0990a0d60286</title><path fill="none" stroke="#000" d="M193.926,-215.725C200.051,-205.765 206.883,-192.727 210.039,-180 213.889,-164.47 214.052,-159.488 210.039,-144 200.856,-108.564 194.222,-99.4807 170.039,-72 159.624,-60.1659 146.141,-49.3798 133.663,-40.6728"/><polygon fill="#000" stroke="#000" points="135.483 -37.679 125.235 -34.99 131.569 -43.482 135.483 -37.679"/><g id="a_edge3-headlabel"><a target="_top" xlink:href="dir_000033_000150.xhtml" xlink:title="2"><text x="140.05" y="-34.834" font-family="Helvetica,sans-Serif" font-size="10" text-anchor="middle">2</text></a></g></g><g id="edge9" class="edge"><title>dir_445738e6fed662d0b65e690e3f1e1de0-&gt;dir_214608ef36d61442cb2b0c1c4e9a7def</title><path fill="none" stroke="#000" d="M71.6572,-215.871C76.7927,-191.564 86.2459,-146.819 92.3315,-118.013"/><polygon fill="#000" stroke="#000" points="95.764 -118.697 94.407 -108.189 88.915 -117.25 95.764 -118.697"/><g id="a_edge9-headlabel"><a target="_top" xlink:href="dir_000153_000000.xhtml" xlink:title="6"><text x="97.799" y="-120.301" font-family="Helvetica,sans-Serif" font-size="10" text-anchor="middle">6</text></a></g></g><g id="edge10" class="edge"><title>dir_445738e6fed662d0b65e690e3f1e1de0-&gt;dir_5815af820a9cc9481f1d0990a0d60286</title><path fill="none" stroke="#000" d="M60.3841,-215.843C48.0613,-185.62 27.125,-121.414 47.0385,-72 51.3872,-61.209 59.1003,-51.3859 67.2323,-43.2085"/><polygon fill="#000" stroke="#000" points="69.829 -45.572 74.734 -36.181 65.043 -40.464 69.829 -45.572"/><g id="a_edge10-headlabel"><a target="_top" xlink:href="dir_000153_000150.xhtml" xlink:title="1"><text x="69.147" y="-47.602" font-family="Helvetica,sans-Serif" font-size="10" text-anchor="middle">1</text></a></g></g><g id="edge11" class="edge"><title>dir_9e71e2da941d3cafc4d98a9f6ae3de4f-&gt;dir_214608ef36d61442cb2b0c1c4e9a7def</title><path fill="none" stroke="#000" d="M150.735,-143.697C142.174,-135.135 131.695,-124.656 122.343,-115.304"/><polygon fill="#000" stroke="#000" points="124.689 -112.701 115.143 -108.104 119.739 -117.65 124.689 -112.701"/><g id="a_edge11-headlabel"><a target="_top" xlink:href="dir_000032_000000.xhtml" xlink:title="14"><text x="129.238" y="-110.735" font-family="Helvetica,sans-Serif" font-size="10" text-anchor="middle">14</text></a></g></g><g id="edge12" class="edge"><title>dir_9e71e2da941d3cafc4d98a9f6ae3de4f-&gt;dir_5815af820a9cc9481f1d0990a0d60286</title><path fill="none" stroke="#000" d="M167.178,-143.985C165.625,-125.341 161.267,-95.0232 149.039,-72 143.386,-61.3586 134.972,-51.3613 126.6,-42.979"/><polygon fill="#000" stroke="#000" points="128.98 -40.412 119.324 -36.053 124.154 -45.483 128.98 -40.412"/><g id="a_edge12-headlabel"><a target="_top" xlink:href="dir_000032_000150.xhtml" xlink:title="7"><text x="133.541" y="-38.334" font-family="Helvetica,sans-Serif" font-size="10" text-anchor="middle">7</text></a></g></g><g id="edge13" class="edge"><title>dir_214608ef36d61442cb2b0c1c4e9a7def-&gt;dir_5815af820a9cc9481f1d0990a0d60286</title><path fill="none" stroke="#000" d="M98.0385,-71.6966C98.0385,-63.9827 98.0385,-54.7125 98.0385,-46.1124"/><polygon fill="#000" stroke="#000" points="101.539 -46.104 98.038 -36.104 94.539 -46.104 101.539 -46.104"/><g id="a_edge13-headlabel"><a target="_top" xlink:href="dir_000000_000150.xhtml" xlink:title="22"><text x="104.378" y="-47.199" font-family="Helvetica,sans-Serif" font-size="10" text-anchor="middle">22</text></a></g></g></g></svg>