<svg xmlns="http://www.w3.org/2000/svg" xmlns:xlink="http://www.w3.org/1999/xlink" width="720" height="212" viewBox="0 0 539.5 159"><g id="graph0" class="graph" transform="scale(1 1) rotate(0) translate(4 155)"><title>Graph Legend</title><polygon fill="#fff" stroke="none" points="-4 4 -4 -155 535.5 -155 535.5 4 -4 4"/><g id="node1" class="node"><title>Node9</title><polygon fill="#bfbfbf" stroke="#000" points="308.5 -19 249.5 -19 249.5 0 308.5 0 308.5 -19"/><text x="279" y="-7" font-family="Helvetica,sans-Serif" font-size="10" text-anchor="middle">Inherited</text></g><g id="node2" class="node"><title>Node10</title><g id="a_node2"><a xlink:href="$classPublicBase.xhtml" xlink:title="PublicBase"><polygon fill="none" stroke="#000" points="68 -85 0 -85 0 -66 68 -66 68 -85"/><text x="34" y="-73" font-family="Helvetica,sans-Serif" font-size="10" text-anchor="middle">PublicBase</text></a></g></g><g id="edge1" class="edge"><title>Node10-&gt;Node9</title><path fill="none" stroke="#191970" d="M76.5501,-63.3849C126.02,-50.462 206.377,-29.471 249.47,-18.2139"/><polygon fill="#191970" stroke="#191970" points="75.578 -60.021 66.788 -65.935 77.347 -66.794 75.578 -60.021"/></g><g id="node3" class="node"><title>Node11</title><g id="a_node3"><a xlink:href="$classTruncated.xhtml" xlink:title="Truncated"><polygon fill="none" stroke="red" points="65.5 -151 2.5 -151 2.5 -132 65.5 -132 65.5 -151"/><text x="34" y="-139" font-family="Helvetica,sans-Serif" font-size="10" text-anchor="middle">Truncated</text></a></g></g><g id="edge2" class="edge"><title>Node11-&gt;Node10</title><path fill="none" stroke="#191970" d="M34,-121.584C34,-109.625 34,-94.7211 34,-85.4052"/><polygon fill="#191970" stroke="#191970" points="30.5 -121.869 34 -131.869 37.5 -121.869 30.5 -121.869"/></g><g id="node4" class="node"><title>Node13</title><g id="a_node4"><a xlink:href="$classProtectedBase.xhtml" xlink:title="ProtectedBase"><polygon fill="none" stroke="#000" points="173.5 -85 86.5 -85 86.5 -66 173.5 -66 173.5 -85"/><text x="130" y="-73" font-family="Helvetica,sans-Serif" font-size="10" text-anchor="middle">ProtectedBase</text></a></g></g><g id="edge3" class="edge"><title>Node13-&gt;Node9</title><path fill="none" stroke="#006400" d="M159.43,-61.8588C188.793,-49.2465 233.121,-30.2063 258.748,-19.199"/><polygon fill="#006400" stroke="#006400" points="157.902 -58.706 150.095 -65.869 160.664 -65.138 157.902 -58.706"/></g><g id="node5" class="node"><title>Node14</title><g id="a_node5"><a xlink:href="$classPrivateBase.xhtml" xlink:title="PrivateBase"><polygon fill="none" stroke="#000" points="266 -85 192 -85 192 -66 266 -66 266 -85"/><text x="229" y="-73" font-family="Helvetica,sans-Serif" font-size="10" text-anchor="middle">PrivateBase</text></a></g></g><g id="edge4" class="edge"><title>Node14-&gt;Node9</title><path fill="none" stroke="#8b1a1a" d="M242.072,-57.7673C251.664,-45.4902 264.315,-29.2973 272.043,-19.4052"/><polygon fill="#8b1a1a" stroke="#8b1a1a" points="239.142 -55.834 235.743 -65.869 244.658 -60.143 239.142 -55.834"/></g><g id="node6" class="node"><title>Node15</title><polygon fill="none" stroke="#bfbfbf" points="375.5 -85 284.5 -85 284.5 -66 375.5 -66 375.5 -85"/><text x="330" y="-73" font-family="Helvetica,sans-Serif" font-size="10" text-anchor="middle">Undocumented</text></g><g id="edge5" class="edge"><title>Node15-&gt;Node9</title><path fill="none" stroke="#191970" d="M316.666,-57.7673C306.883,-45.4902 293.979,-29.2973 286.096,-19.4052"/><polygon fill="#191970" stroke="#191970" points="314.153 -60.229 323.122 -65.869 319.627 -55.867 314.153 -60.229"/></g><g id="node7" class="node"><title>Node16</title><g id="a_node7"><a xlink:href="$classTempl.xhtml" xlink:title="Templ&lt; int &gt;"><polygon fill="none" stroke="#000" points="472.5 -85 393.5 -85 393.5 -66 472.5 -66 472.5 -85"/><text x="433" y="-73" font-family="Helvetica,sans-Serif" font-size="10" text-anchor="middle">Templ&lt; int &gt;</text></a></g></g><g id="edge6" class="edge"><title>Node16-&gt;Node9</title><path fill="none" stroke="#191970" d="M402.977,-62.0229C372.632,-49.4122 326.533,-30.2541 299.932,-19.199"/><polygon fill="#191970" stroke="#191970" points="401.653 -65.263 412.231 -65.869 404.34 -58.799 401.653 -65.263"/></g><g id="node8" class="node"><title>Node17</title><g id="a_node8"><a xlink:href="$classTempl.xhtml" xlink:title="Templ&lt; T &gt;"><polygon fill="none" stroke="#000" points="469 -151 397 -151 397 -132 469 -132 469 -151"/><text x="433" y="-139" font-family="Helvetica,sans-Serif" font-size="10" text-anchor="middle">Templ&lt; T &gt;</text></a></g></g><g id="edge7" class="edge"><title>Node17-&gt;Node16</title><path fill="none" stroke="orange" stroke-dasharray="5 2" d="M433,-121.584C433,-109.625 433,-94.7211 433,-85.4052"/><polygon fill="orange" stroke="orange" points="429.5 -121.869 433 -131.869 436.5 -121.869 429.5 -121.869"/><text x="450.5" y="-106" font-family="Helvetica,sans-Serif" font-size="10" text-anchor="middle">&lt; int &gt;</text></g><g id="node9" class="node"><title>Node18</title><g id="a_node9"><a xlink:href="$classUsed.xhtml" xlink:title="Used"><polygon fill="none" stroke="#000" points="531.5 -85 490.5 -85 490.5 -66 531.5 -66 531.5 -85"/><text x="511" y="-73" font-family="Helvetica,sans-Serif" font-size="10" text-anchor="middle">Used</text></a></g></g><g id="edge8" class="edge"><title>Node18-&gt;Node9</title><path fill="none" stroke="#9a32cd" stroke-dasharray="5 2" d="M480.434,-65.8593C413.225,-47.1256 346.374,-28.8485 308.797,-18.6072"/><polygon fill="#9a32cd" stroke="#9a32cd" points="479.777 -69.309 490.349 -68.626 481.658 -62.567 479.777 -69.309"/><text x="447" y="-40" font-family="Helvetica,sans-Serif" font-size="10" text-anchor="middle">m_usedClass</text></g></g></svg>