<svg xmlns="http://www.w3.org/2000/svg" xmlns:xlink="http://www.w3.org/1999/xlink" width="472" height="28pt" viewBox="0 0 354 28"><g id="graph0" class="graph" transform="scale(1 1) rotate(0) translate(4 24)"><title>Graphical Class Hierarchy</title><polygon fill="#fff" stroke="none" points="-4 4 -4 -24 350 -24 350 4 -4 4"/><g id="node1" class="node"><title>Node0</title><g id="a_node1"><a target="_top" xlink:href="classarm__compute_1_1graph_1_1_i_node_visitor.xhtml" xlink:title="Node visitor interface."><polygon fill="#fff" stroke="#000" points="0 -.5 0 -19.5 74 -19.5 74 -.5 0 -.5"/><text x="37" y="-7.5" font-family="Helvetica,sans-Serif" font-size="10" text-anchor="middle">INodeVisitor</text></a></g></g><g id="node2" class="node"><title>Node1</title><g id="a_node2"><a target="_top" xlink:href="classarm__compute_1_1graph_1_1_default_node_visitor.xhtml" xlink:title="Default visitor implementation."><polygon fill="#fff" stroke="#000" points="110 -.5 110 -19.5 217 -19.5 217 -.5 110 -.5"/><text x="163.5" y="-7.5" font-family="Helvetica,sans-Serif" font-size="10" text-anchor="middle">DefaultNodeVisitor</text></a></g></g><g id="edge1" class="edge"><title>Node0-&gt;Node1</title><path fill="none" stroke="#191970" d="M84.0282,-10C92.4514,-10 101.301,-10 109.898,-10"/><polygon fill="#191970" stroke="#191970" points="84.011 -6.5 74.011 -10 84.01 -13.5 84.011 -6.5"/></g><g id="node3" class="node"><title>Node2</title><g id="a_node3"><a target="_top" xlink:href="classarm__compute_1_1graph_1_1_dot_graph_visitor.xhtml" xlink:title="Graph printer visitor."><polygon fill="#fff" stroke="#000" points="253 -.5 253 -19.5 346 -19.5 346 -.5 253 -.5"/><text x="299.5" y="-7.5" font-family="Helvetica,sans-Serif" font-size="10" text-anchor="middle">DotGraphVisitor</text></a></g></g><g id="edge2" class="edge"><title>Node1-&gt;Node2</title><path fill="none" stroke="#191970" d="M227.087,-10C235.682,-10 244.375,-10 252.596,-10"/><polygon fill="#191970" stroke="#191970" points="227.076 -6.5 217.076 -10 227.076 -13.5 227.076 -6.5"/></g></g></svg>