<svg xmlns="http://www.w3.org/2000/svg" xmlns:xlink="http://www.w3.org/1999/xlink" width="179pt" height="104pt" viewBox="0 0 179 104"><g id="graph0" class="graph" transform="scale(1 1) rotate(0) translate(4 100)"><title>Graphical Class Hierarchy</title><polygon fill="#fff" stroke="none" points="-4 4 -4 -100 175 -100 175 4 -4 4"/><g id="node1" class="node"><title>Node0</title><g id="a_node1"><a target="_top" xlink:href="classarm__compute_1_1_i_c_l_tuner.xhtml" xlink:title="Basic interface for tuning the OpenCL kernels."><polygon fill="#fff" stroke="#000" points="0 -38.5 0 -57.5 55 -57.5 55 -38.5 0 -38.5"/><text x="27.5" y="-45.5" font-family="Helvetica,sans-Serif" font-size="10" text-anchor="middle">ICLTuner</text></a></g></g><g id="node2" class="node"><title>Node1</title><g id="a_node2"><a target="_top" xlink:href="classarm__compute_1_1_c_l_tuner.xhtml" xlink:title="Basic implementation of the OpenCL tuner interface."><polygon fill="#fff" stroke="#000" points="104.5 -76.5 104.5 -95.5 157.5 -95.5 157.5 -76.5 104.5 -76.5"/><text x="131" y="-83.5" font-family="Helvetica,sans-Serif" font-size="10" text-anchor="middle">CLTuner</text></a></g></g><g id="edge1" class="edge"><title>Node0-&gt;Node1</title><path fill="none" stroke="#191970" d="M63.5389,-61.118C76.9634,-66.1439 92.0152,-71.7791 104.395,-76.4141"/><polygon fill="#191970" stroke="#191970" points="64.705 -57.817 54.113 -57.589 62.251 -64.373 64.705 -57.817"/></g><g id="node3" class="node"><title>Node2</title><g id="a_node3"><a target="_top" xlink:href="classarm__compute_1_1tuners_1_1_bifrost_tuner.xhtml" xlink:title="Bifrost based OpenCL tuner implementation."><polygon fill="#fff" stroke="#000" points="94.5 -38.5 94.5 -57.5 167.5 -57.5 167.5 -38.5 94.5 -38.5"/><text x="131" y="-45.5" font-family="Helvetica,sans-Serif" font-size="10" text-anchor="middle">BifrostTuner</text></a></g></g><g id="edge2" class="edge"><title>Node0-&gt;Node2</title><path fill="none" stroke="#191970" d="M65.4431,-48C74.871,-48 84.9869,-48 94.3487,-48"/><polygon fill="#191970" stroke="#191970" points="65.168 -44.5 55.168 -48 65.168 -51.5 65.168 -44.5"/></g><g id="node4" class="node"><title>Node3</title><g id="a_node4"><a target="_top" xlink:href="classarm__compute_1_1tuners_1_1_midgard_tuner.xhtml" xlink:title="Midgard based OpenCL tuner implementation."><polygon fill="#fff" stroke="#000" points="91 -.5 91 -19.5 171 -19.5 171 -.5 91 -.5"/><text x="131" y="-7.5" font-family="Helvetica,sans-Serif" font-size="10" text-anchor="middle">MidgardTuner</text></a></g></g><g id="edge3" class="edge"><title>Node0-&gt;Node3</title><path fill="none" stroke="#191970" d="M63.5389,-34.882C76.9634,-29.8561 92.0152,-24.2209 104.395,-19.5859"/><polygon fill="#191970" stroke="#191970" points="62.251 -31.627 54.113 -38.411 64.705 -38.183 62.251 -31.627"/></g></g></svg>