<svg xmlns="http://www.w3.org/2000/svg" xmlns:xlink="http://www.w3.org/1999/xlink" width="455pt" height="88" viewBox="0 0 455 66"><g id="graph0" class="graph" transform="scale(1 1) rotate(0) translate(4 62)"><title>Graphical Class Hierarchy</title><polygon fill="#fff" stroke="none" points="-4 4 -4 -62 451 -62 451 4 -4 4"/><g id="node1" class="node"><title>Node0</title><g id="a_node1"><a target="_top" xlink:href="classarm__compute_1_1cl__tuner_1_1_i_c_l_l_w_s_list.xhtml" xlink:title="Interface for LWS lists."><polygon fill="#fff" stroke="#000" points="0 -19.5 0 -38.5 67 -38.5 67 -19.5 0 -19.5"/><text x="33.5" y="-26.5" font-family="Helvetica,sans-Serif" font-size="10" text-anchor="middle">ICLLWSList</text></a></g></g><g id="node2" class="node"><title>Node1</title><g id="a_node2"><a target="_top" xlink:href="classarm__compute_1_1cl__tuner_1_1_c_l_l_w_s_list.xhtml" xlink:title="Non instantiable base class for LWS combinations that use Index2Cooard mapping."><polygon fill="#fff" stroke="#000" points="103 -19.5 103 -38.5 168 -38.5 168 -19.5 103 -19.5"/><text x="135.5" y="-26.5" font-family="Helvetica,sans-Serif" font-size="10" text-anchor="middle">CLLWSList</text></a></g></g><g id="edge1" class="edge"><title>Node0-&gt;Node1</title><path fill="none" stroke="#191970" d="M77.3968,-29C85.8894,-29 94.6611,-29 102.705,-29"/><polygon fill="#191970" stroke="#191970" points="77.244 -25.5 67.244 -29 77.244 -32.5 77.244 -25.5"/></g><g id="node3" class="node"><title>Node2</title><g id="a_node3"><a target="_top" xlink:href="classarm__compute_1_1cl__tuner_1_1_c_l_l_w_s_list_exhaustive.xhtml" xlink:title="Exhaustive list of all possible LWS values."><polygon fill="#fff" stroke="#000" points="204 -38.5 204 -57.5 320 -57.5 320 -38.5 204 -38.5"/><text x="262" y="-45.5" font-family="Helvetica,sans-Serif" font-size="10" text-anchor="middle">CLLWSListExhaustive</text></a></g></g><g id="edge2" class="edge"><title>Node1-&gt;Node2</title><path fill="none" stroke="#191970" d="M178.245,-35.3707C186.407,-36.6163 195.099,-37.9428 203.665,-39.2501"/><polygon fill="#191970" stroke="#191970" points="178.652 -31.892 168.239 -33.844 177.596 -38.812 178.652 -31.892"/></g><g id="node4" class="node"><title>Node3</title><g id="a_node4"><a target="_top" xlink:href="classarm__compute_1_1cl__tuner_1_1_c_l_l_w_s_list_normal.xhtml" xlink:title="A subset of LWS values that are either factors of gws when gws[2] &lt; 16 or power of 2."><polygon fill="#fff" stroke="#000" points="212 -.5 212 -19.5 312 -19.5 312 -.5 212 -.5"/><text x="262" y="-7.5" font-family="Helvetica,sans-Serif" font-size="10" text-anchor="middle">CLLWSListNormal</text></a></g></g><g id="edge3" class="edge"><title>Node1-&gt;Node3</title><path fill="none" stroke="#191970" d="M178.252,-22.6282C189.044,-20.9813 200.76,-19.1933 211.889,-17.4948"/><polygon fill="#191970" stroke="#191970" points="177.596 -19.188 168.239 -24.156 178.652 -26.108 177.596 -19.188"/></g><g id="node5" class="node"><title>Node4</title><g id="a_node5"><a target="_top" xlink:href="classarm__compute_1_1cl__tuner_1_1_c_l_l_w_s_list_rapid.xhtml" xlink:title="A minimal subset of LWS values that only have 1,2 and 4/8."><polygon fill="#fff" stroke="#000" points="356 -.5 356 -19.5 447 -19.5 447 -.5 356 -.5"/><text x="401.5" y="-7.5" font-family="Helvetica,sans-Serif" font-size="10" text-anchor="middle">CLLWSListRapid</text></a></g></g><g id="edge4" class="edge"><title>Node3-&gt;Node4</title><path fill="none" stroke="#191970" d="M322.386,-10C333.561,-10 345.072,-10 355.709,-10"/><polygon fill="#191970" stroke="#191970" points="322.252 -6.5 312.252 -10 322.252 -13.5 322.252 -6.5"/></g></g></svg>