<svg xmlns="http://www.w3.org/2000/svg" xmlns:xlink="http://www.w3.org/1999/xlink" width="436pt" height="88" viewBox="0 0 436 66"><g id="graph0" class="graph" transform="scale(1 1) rotate(0) translate(4 62)"><title>Graphical Class Hierarchy</title><polygon fill="#fff" stroke="none" points="-4 4 -4 -62 432 -62 432 4 -4 4"/><g id="node1" class="node"><title>Node0</title><g id="a_node1"><a target="_top" xlink:href="classarm__compute_1_1_i_lifetime_manager.xhtml" xlink:title="Interface for managing the lifetime of objects."><polygon fill="#fff" stroke="#000" points="0 -19.5 0 -38.5 99 -38.5 99 -19.5 0 -19.5"/><text x="49.5" y="-26.5" font-family="Helvetica,sans-Serif" font-size="10" text-anchor="middle">ILifetimeManager</text></a></g></g><g id="node2" class="node"><title>Node1</title><g id="a_node2"><a target="_top" xlink:href="classarm__compute_1_1_i_simple_lifetime_manager.xhtml" xlink:title="Abstract class of the simple lifetime manager interface."><polygon fill="#fff" stroke="#000" points="135 -19.5 135 -38.5 267 -38.5 267 -19.5 135 -19.5"/><text x="201" y="-26.5" font-family="Helvetica,sans-Serif" font-size="10" text-anchor="middle">ISimpleLifetimeManager</text></a></g></g><g id="edge1" class="edge"><title>Node0-&gt;Node1</title><path fill="none" stroke="#191970" d="M109.15,-29C117.581,-29 126.299,-29 134.847,-29"/><polygon fill="#191970" stroke="#191970" points="109.038 -25.5 99.038 -29 109.038 -32.5 109.038 -25.5"/></g><g id="node3" class="node"><title>Node2</title><g id="a_node3"><a target="_top" xlink:href="classarm__compute_1_1_blob_lifetime_manager.xhtml" xlink:title="Concrete class that tracks the lifetime of registered tensors and calculates the systems memory requi..."><polygon fill="#fff" stroke="#000" points="306.5 -38.5 306.5 -57.5 424.5 -57.5 424.5 -38.5 306.5 -38.5"/><text x="365.5" y="-45.5" font-family="Helvetica,sans-Serif" font-size="10" text-anchor="middle">BlobLifetimeManager</text></a></g></g><g id="edge2" class="edge"><title>Node1-&gt;Node2</title><path fill="none" stroke="#191970" d="M277.288,-37.8029C287.071,-38.9467 296.969,-40.1041 306.413,-41.2083"/><polygon fill="#191970" stroke="#191970" points="277.497 -34.304 267.159 -36.618 276.684 -41.256 277.497 -34.304"/></g><g id="node4" class="node"><title>Node3</title><g id="a_node4"><a target="_top" xlink:href="classarm__compute_1_1_offset_lifetime_manager.xhtml" xlink:title="Concrete class that tracks the lifetime of registered tensors and calculates the systems memory requi..."><polygon fill="#fff" stroke="#000" points="303 -.5 303 -19.5 428 -19.5 428 -.5 303 -.5"/><text x="365.5" y="-7.5" font-family="Helvetica,sans-Serif" font-size="10" text-anchor="middle">OffsetLifetimeManager</text></a></g></g><g id="edge3" class="edge"><title>Node1-&gt;Node3</title><path fill="none" stroke="#191970" d="M277.155,-20.2126C285.726,-19.2105 294.388,-18.1977 302.756,-17.2193"/><polygon fill="#191970" stroke="#191970" points="276.684 -16.744 267.159 -21.381 277.497 -23.696 276.684 -16.744"/></g></g></svg>