<svg xmlns="http://www.w3.org/2000/svg" xmlns:xlink="http://www.w3.org/1999/xlink" width="223pt" height="104" viewBox="0 0 223 77.5"><g id="graph0" class="graph" transform="scale(1 1) rotate(0) translate(4 73.5)"><title>Graphical Class Hierarchy</title><polygon fill="#fff" stroke="none" points="-4 4 -4 -73.5 219 -73.5 219 4 -4 4"/><g id="node1" class="node"><title>Node1185</title><g id="a_node1"><a><polygon fill="#fff" stroke="#bfbfbf" points="0 -28 0 -47 65 -47 65 -28 0 -28"/><text x="32.5" y="-35" font-family="Helvetica,sans-Serif" font-size="10" text-anchor="middle">false_type</text></a></g></g><g id="node2" class="node"><title>Node0</title><g id="a_node2"><a target="_top" xlink:href="structarm__compute_1_1test_1_1framework_1_1dataset_1_1is__container.xhtml" xlink:title="Base case."><polygon fill="#fff" stroke="#000" points="107 -50 107 -69 209 -69 209 -50 107 -50"/><text x="158" y="-57" font-family="Helvetica,sans-Serif" font-size="10" text-anchor="middle">is_container&lt; T &gt;</text></a></g></g><g id="edge1" class="edge"><title>Node1185-&gt;Node0</title><path fill="none" stroke="#191970" d="M75.418,-44.9672C85.4432,-46.753 96.2487,-48.6779 106.612,-50.524"/><polygon fill="#191970" stroke="#191970" points="75.763 -41.474 65.304 -43.166 74.535 -48.365 75.763 -41.474"/></g><g id="node3" class="node"><title>Node1187</title><g id="a_node3"><a target="_top" xlink:href="structarm__compute_1_1traits_1_1is__contained_3_01_t_00_01std_1_1tuple_3_4_01_4.xhtml"><polygon fill="#fff" stroke="#000" points="101 -.5 101 -30.5 215 -30.5 215 -.5 101 -.5"/><text x="109" y="-18.5" font-family="Helvetica,sans-Serif" font-size="10" text-anchor="start">is_contained&lt; T, std</text><text x="158" y="-7.5" font-family="Helvetica,sans-Serif" font-size="10" text-anchor="middle">::tuple&lt;&gt; &gt;</text></a></g></g><g id="edge2" class="edge"><title>Node1185-&gt;Node1187</title><path fill="none" stroke="#191970" d="M75.3604,-30.0431C83.5604,-28.5824 92.2843,-27.0283 100.863,-25.5002"/><polygon fill="#191970" stroke="#191970" points="74.535 -26.635 65.304 -31.834 75.763 -33.526 74.535 -26.635"/></g></g></svg>