<svg xmlns="http://www.w3.org/2000/svg" xmlns:xlink="http://www.w3.org/1999/xlink" width="420" height="88" viewBox="0 0 315 66"><g id="graph0" class="graph" transform="scale(1 1) rotate(0) translate(4 62)"><title>Graphical Class Hierarchy</title><polygon fill="#fff" stroke="none" points="-4 4 -4 -62 311 -62 311 4 -4 4"/><g id="node1" class="node"><title>Node0</title><g id="a_node1"><a target="_top" xlink:href="classarm__compute_1_1_i_multi_image.xhtml" xlink:title="Interface for multi-planar images."><polygon fill="#fff" stroke="#000" points="0 -19.5 0 -38.5 71 -38.5 71 -19.5 0 -19.5"/><text x="35.5" y="-26.5" font-family="Helvetica,sans-Serif" font-size="10" text-anchor="middle">IMultiImage</text></a></g></g><g id="node2" class="node"><title>Node1</title><g id="a_node2"><a target="_top" xlink:href="classarm__compute_1_1_i_c_l_multi_image.xhtml" xlink:title="Interface for OpenCL multi-planar images."><polygon fill="#fff" stroke="#000" points="107 -38.5 107 -57.5 190 -57.5 190 -38.5 107 -38.5"/><text x="148.5" y="-45.5" font-family="Helvetica,sans-Serif" font-size="10" text-anchor="middle">ICLMultiImage</text></a></g></g><g id="edge1" class="edge"><title>Node0-&gt;Node1</title><path fill="none" stroke="#191970" d="M81.1231,-36.6382C89.6012,-38.0894 98.4316,-39.6009 106.781,-41.03"/><polygon fill="#191970" stroke="#191970" points="81.46 -33.145 71.013 -34.908 80.279 -40.045 81.46 -33.145"/></g><g id="node4" class="node"><title>Node3</title><g id="a_node4"><a target="_top" xlink:href="classarm__compute_1_1_multi_image.xhtml" xlink:title="Basic implementation of the multi-planar image interface."><polygon fill="#fff" stroke="#000" points="114 -.5 114 -19.5 183 -19.5 183 -.5 114 -.5"/><text x="148.5" y="-7.5" font-family="Helvetica,sans-Serif" font-size="10" text-anchor="middle">MultiImage</text></a></g></g><g id="edge3" class="edge"><title>Node0-&gt;Node3</title><path fill="none" stroke="#191970" d="M81.1985,-21.3489C92.0659,-19.4887 103.508,-17.5301 113.77,-15.7736"/><polygon fill="#191970" stroke="#191970" points="80.279 -17.955 71.013 -23.092 81.46 -24.855 80.279 -17.955"/></g><g id="node3" class="node"><title>Node2</title><g id="a_node3"><a target="_top" xlink:href="classarm__compute_1_1_c_l_multi_image.xhtml" xlink:title="Basic implementation of the CL multi-planar image interface."><polygon fill="#fff" stroke="#000" points="226 -38.5 226 -57.5 307 -57.5 307 -38.5 226 -38.5"/><text x="266.5" y="-45.5" font-family="Helvetica,sans-Serif" font-size="10" text-anchor="middle">CLMultiImage</text></a></g></g><g id="edge2" class="edge"><title>Node1-&gt;Node2</title><path fill="none" stroke="#191970" d="M200.081,-48C208.736,-48 217.614,-48 225.929,-48"/><polygon fill="#191970" stroke="#191970" points="200.071 -44.5 190.071 -48 200.071 -51.5 200.071 -44.5"/></g></g></svg>