<svg xmlns="http://www.w3.org/2000/svg" xmlns:xlink="http://www.w3.org/1999/xlink" width="205pt" height="88" viewBox="0 0 205 66"><g id="graph0" class="graph" transform="scale(1 1) rotate(0) translate(4 62)"><title>Graphical Class Hierarchy</title><polygon fill="#fff" stroke="none" points="-4 4 -4 -62 201 -62 201 4 -4 4"/><g id="node1" class="node"><title>Node60</title><g id="a_node1"><a><polygon fill="#fff" stroke="#bfbfbf" points="0 -19.5 0 -38.5 83 -38.5 83 -19.5 0 -19.5"/><text x="41.5" y="-26.5" font-family="Helvetica,sans-Serif" font-size="10" text-anchor="middle">runtime_error</text></a></g></g><g id="node2" class="node"><title>Node0</title><g id="a_node2"><a target="_top" xlink:href="classarm__compute_1_1test_1_1framework_1_1_file_not_found.xhtml" xlink:title="Error class for when some external assets are missing."><polygon fill="#fff" stroke="#000" points="119 -38.5 119 -57.5 197 -57.5 197 -38.5 119 -38.5"/><text x="158" y="-45.5" font-family="Helvetica,sans-Serif" font-size="10" text-anchor="middle">FileNotFound</text></a></g></g><g id="edge1" class="edge"><title>Node60-&gt;Node0</title><path fill="none" stroke="#191970" d="M93.1401,-37.4032C101.735,-38.8293 110.53,-40.2889 118.739,-41.651"/><polygon fill="#191970" stroke="#191970" points="93.629 -33.937 83.191 -35.752 92.483 -40.842 93.629 -33.937"/></g><g id="node3" class="node"><title>Node62</title><g id="a_node3"><a target="_top" xlink:href="classarm__compute_1_1test_1_1framework_1_1_test_error.xhtml" xlink:title="Error class for failures during test execution."><polygon fill="#fff" stroke="#000" points="128.5 -.5 128.5 -19.5 187.5 -19.5 187.5 -.5 128.5 -.5"/><text x="158" y="-7.5" font-family="Helvetica,sans-Serif" font-size="10" text-anchor="middle">TestError</text></a></g></g><g id="edge2" class="edge"><title>Node60-&gt;Node62</title><path fill="none" stroke="#191970" d="M93.1651,-20.5927C105.206,-18.5946 117.641,-16.5312 128.301,-14.7623"/><polygon fill="#191970" stroke="#191970" points="92.483 -17.158 83.191 -22.248 93.629 -24.064 92.483 -17.158"/></g></g></svg>