<svg xmlns="http://www.w3.org/2000/svg" xmlns:xlink="http://www.w3.org/1999/xlink" width="169pt" height="88" viewBox="0 0 169 66"><g id="graph0" class="graph" transform="scale(1 1) rotate(0) translate(4 62)"><title>Graphical Class Hierarchy</title><polygon fill="#fff" stroke="none" points="-4 4 -4 -62 165 -62 165 4 -4 4"/><g id="node1" class="node"><title>Node0</title><g id="a_node1"><a target="_top" xlink:href="classarm__compute_1_1test_1_1framework_1_1_printer.xhtml" xlink:title="Abstract printer class used by the Framework to present output."><polygon fill="#fff" stroke="#000" points="0 -19.5 0 -38.5 48 -38.5 48 -19.5 0 -19.5"/><text x="24" y="-26.5" font-family="Helvetica,sans-Serif" font-size="10" text-anchor="middle">Printer</text></a></g></g><g id="node2" class="node"><title>Node1</title><g id="a_node2"><a target="_top" xlink:href="classarm__compute_1_1test_1_1framework_1_1_j_s_o_n_printer.xhtml" xlink:title="Implementation of a Printer that produces JSON output."><polygon fill="#fff" stroke="#000" points="86.5 -38.5 86.5 -57.5 158.5 -57.5 158.5 -38.5 86.5 -38.5"/><text x="122.5" y="-45.5" font-family="Helvetica,sans-Serif" font-size="10" text-anchor="middle">JSONPrinter</text></a></g></g><g id="edge1" class="edge"><title>Node0-&gt;Node1</title><path fill="none" stroke="#191970" d="M58.1865,-35.5341C67.2566,-37.3199 77.1159,-39.2612 86.2944,-41.0683"/><polygon fill="#191970" stroke="#191970" points="58.848 -32.097 48.36 -33.599 57.495 -38.965 58.848 -32.097"/></g><g id="node3" class="node"><title>Node2</title><g id="a_node3"><a target="_top" xlink:href="classarm__compute_1_1test_1_1framework_1_1_pretty_printer.xhtml" xlink:title="Implementation of a Printer that produces human readable output."><polygon fill="#fff" stroke="#000" points="84 -.5 84 -19.5 161 -19.5 161 -.5 84 -.5"/><text x="122.5" y="-7.5" font-family="Helvetica,sans-Serif" font-size="10" text-anchor="middle">PrettyPrinter</text></a></g></g><g id="edge2" class="edge"><title>Node0-&gt;Node2</title><path fill="none" stroke="#191970" d="M58.3013,-22.4433C66.4824,-20.8325 75.2996,-19.0964 83.6765,-17.4471"/><polygon fill="#191970" stroke="#191970" points="57.495 -19.035 48.36 -24.401 58.848 -25.903 57.495 -19.035"/></g></g></svg>