<svg xmlns="http://www.w3.org/2000/svg" xmlns:xlink="http://www.w3.org/1999/xlink" width="388pt" height="52" viewBox="0 0 388 39"><g id="graph0" class="graph" transform="scale(1 1) rotate(0) translate(4 35)"><title>Graphical Class Hierarchy</title><polygon fill="#fff" stroke="none" points="-4 4 -4 -35 384 -35 384 4 -4 4"/><g id="node1" class="node"><title>Node0</title><g id="a_node1"><a target="_top" xlink:href="structarm__compute_1_1test_1_1validation_1_1compare__base.xhtml"><polygon fill="#fff" stroke="#000" points="0 -.5 0 -30.5 186 -30.5 186 -.5 0 -.5"/><text x="8" y="-18.5" font-family="Helvetica,sans-Serif" font-size="10" text-anchor="start">compare_base&lt; AbsoluteTolerance</text><text x="93" y="-7.5" font-family="Helvetica,sans-Serif" font-size="10" text-anchor="middle">&lt; U &gt; &gt;</text></a></g></g><g id="node2" class="node"><title>Node1</title><g id="a_node2"><a target="_top" xlink:href="structarm__compute_1_1test_1_1validation_1_1compare_3_01_absolute_tolerance_3_01_u_01_4_01_4.xhtml" xlink:title="Compare values with an absolute tolerance."><polygon fill="#fff" stroke="#000" points="222 -.5 222 -30.5 380 -30.5 380 -.5 222 -.5"/><text x="230" y="-18.5" font-family="Helvetica,sans-Serif" font-size="10" text-anchor="start">compare&lt; AbsoluteTolerance</text><text x="301" y="-7.5" font-family="Helvetica,sans-Serif" font-size="10" text-anchor="middle">&lt; U &gt; &gt;</text></a></g></g><g id="edge1" class="edge"><title>Node0-&gt;Node1</title><path fill="none" stroke="#191970" d="M196.22,-15.5C204.809,-15.5 213.405,-15.5 221.769,-15.5"/><polygon fill="#191970" stroke="#191970" points="196.155 -12 186.155 -15.5 196.155 -19 196.155 -12"/></g></g></svg>