<svg xmlns="http://www.w3.org/2000/svg" xmlns:xlink="http://www.w3.org/1999/xlink" width="320" height="240" viewBox="0 0 240 180"><g id="graph0" class="graph" transform="scale(1 1) rotate(0) translate(4 176)"><title>Graphical Class Hierarchy</title><polygon fill="#fff" stroke="none" points="-4 4 -4 -176 236 -176 236 4 -4 4"/><g id="node1" class="node"><title>Node0</title><g id="a_node1"><a target="_top" xlink:href="classarm__compute_1_1graph_1_1_i_tensor_handle.xhtml" xlink:title="Tensor handle interface object."><polygon fill="#fff" stroke="#000" points="0 -76.5 0 -95.5 83 -95.5 83 -76.5 0 -76.5"/><text x="41.5" y="-83.5" font-family="Helvetica,sans-Serif" font-size="10" text-anchor="middle">ITensorHandle</text></a></g></g><g id="node2" class="node"><title>Node1</title><g id="a_node2"><a target="_top" xlink:href="classarm__compute_1_1graph_1_1backends_1_1_c_l_sub_tensor_handle.xhtml" xlink:title="OpenCL Sub-Tensor handle interface object."><polygon fill="#fff" stroke="#000" points="119.5 -152.5 119.5 -171.5 231.5 -171.5 231.5 -152.5 119.5 -152.5"/><text x="175.5" y="-159.5" font-family="Helvetica,sans-Serif" font-size="10" text-anchor="middle">CLSubTensorHandle</text></a></g></g><g id="edge1" class="edge"><title>Node0-&gt;Node1</title><path fill="none" stroke="#191970" d="M61.0533,-102.423C75.8984,-114.897 97.6886,-131.767 119,-143 125.937,-146.657 133.722,-149.833 141.218,-152.486"/><polygon fill="#191970" stroke="#191970" points="63.04 -99.516 53.171 -95.662 58.483 -104.829 63.04 -99.516"/></g><g id="node3" class="node"><title>Node2</title><g id="a_node3"><a target="_top" xlink:href="classarm__compute_1_1graph_1_1backends_1_1_c_l_tensor_handle.xhtml" xlink:title="OpenCL Tensor handle interface object."><polygon fill="#fff" stroke="#000" points="129.5 -114.5 129.5 -133.5 221.5 -133.5 221.5 -114.5 129.5 -114.5"/><text x="175.5" y="-121.5" font-family="Helvetica,sans-Serif" font-size="10" text-anchor="middle">CLTensorHandle</text></a></g></g><g id="edge2" class="edge"><title>Node0-&gt;Node2</title><path fill="none" stroke="#191970" d="M85.5409,-98.3906C103.618,-103.594 124.319,-109.554 141.201,-114.414"/><polygon fill="#191970" stroke="#191970" points="86.387 -94.992 75.809 -95.589 84.451 -101.719 86.387 -94.992"/></g><g id="node4" class="node"><title>Node3</title><g id="a_node4"><a target="_top" xlink:href="classarm__compute_1_1graph_1_1backends_1_1_g_c_tensor_handle.xhtml" xlink:title="GLES compute tensor handle interface object."><polygon fill="#fff" stroke="#000" points="128 -76.5 128 -95.5 223 -95.5 223 -76.5 128 -76.5"/><text x="175.5" y="-83.5" font-family="Helvetica,sans-Serif" font-size="10" text-anchor="middle">GCTensorHandle</text></a></g></g><g id="edge3" class="edge"><title>Node0-&gt;Node3</title><path fill="none" stroke="#191970" d="M93.3464,-86C104.651,-86 116.584,-86 127.716,-86"/><polygon fill="#191970" stroke="#191970" points="93.181 -82.5 83.181 -86 93.181 -89.5 93.181 -82.5"/></g><g id="node5" class="node"><title>Node4</title><g id="a_node5"><a target="_top" xlink:href="classarm__compute_1_1graph_1_1backends_1_1_n_e_sub_tensor_handle.xhtml" xlink:title="NEON Sub-Tensor handle interface object."><polygon fill="#fff" stroke="#000" points="119 -38.5 119 -57.5 232 -57.5 232 -38.5 119 -38.5"/><text x="175.5" y="-45.5" font-family="Helvetica,sans-Serif" font-size="10" text-anchor="middle">NESubTensorHandle</text></a></g></g><g id="edge4" class="edge"><title>Node0-&gt;Node4</title><path fill="none" stroke="#191970" d="M85.5409,-73.6094C103.618,-68.4055 124.319,-62.4459 141.201,-57.5859"/><polygon fill="#191970" stroke="#191970" points="84.451 -70.281 75.809 -76.411 86.387 -77.008 84.451 -70.281"/></g><g id="node6" class="node"><title>Node5</title><g id="a_node6"><a target="_top" xlink:href="classarm__compute_1_1graph_1_1backends_1_1_n_e_tensor_handle.xhtml" xlink:title="NEON Tensor handle interface object."><polygon fill="#fff" stroke="#000" points="128 -.5 128 -19.5 223 -19.5 223 -.5 128 -.5"/><text x="175.5" y="-7.5" font-family="Helvetica,sans-Serif" font-size="10" text-anchor="middle">NETensorHandle</text></a></g></g><g id="edge5" class="edge"><title>Node0-&gt;Node5</title><path fill="none" stroke="#191970" d="M61.0533,-69.5771C75.8984,-57.1027 97.6886,-40.2334 119,-29 125.937,-25.3433 133.722,-22.1675 141.218,-19.514"/><polygon fill="#191970" stroke="#191970" points="58.483 -67.171 53.171 -76.338 63.04 -72.484 58.483 -67.171"/></g></g></svg>