<svg xmlns="http://www.w3.org/2000/svg" xmlns:xlink="http://www.w3.org/1999/xlink" width="392" height="88" viewBox="0 0 294 66"><g id="graph0" class="graph" transform="scale(1 1) rotate(0) translate(4 62)"><title>Graphical Class Hierarchy</title><polygon fill="#fff" stroke="none" points="-4 4 -4 -62 290 -62 290 4 -4 4"/><g id="node1" class="node"><title>Node0</title><g id="a_node1"><a target="_top" xlink:href="classarm__compute_1_1_i_multi_h_o_g.xhtml" xlink:title="Interface for storing multiple HOG data-objects."><polygon fill="#fff" stroke="#000" points="0 -19.5 0 -38.5 64 -38.5 64 -19.5 0 -19.5"/><text x="32" y="-26.5" font-family="Helvetica,sans-Serif" font-size="10" text-anchor="middle">IMultiHOG</text></a></g></g><g id="node2" class="node"><title>Node1</title><g id="a_node2"><a target="_top" xlink:href="classarm__compute_1_1_i_c_l_multi_h_o_g.xhtml" xlink:title="Interface for storing multiple HOG data-objects."><polygon fill="#fff" stroke="#000" points="100 -38.5 100 -57.5 176 -57.5 176 -38.5 100 -38.5"/><text x="138" y="-45.5" font-family="Helvetica,sans-Serif" font-size="10" text-anchor="middle">ICLMultiHOG</text></a></g></g><g id="edge1" class="edge"><title>Node0-&gt;Node1</title><path fill="none" stroke="#191970" d="M74.2833,-36.5421C82.7612,-38.091 91.6363,-39.7124 99.9536,-41.2319"/><polygon fill="#191970" stroke="#191970" points="74.67 -33.055 64.203 -34.701 73.412 -39.941 74.67 -33.055"/></g><g id="node4" class="node"><title>Node3</title><g id="a_node4"><a target="_top" xlink:href="classarm__compute_1_1_multi_h_o_g.xhtml" xlink:title="CPU implementation of multi HOG data-object."><polygon fill="#fff" stroke="#000" points="107 -.5 107 -19.5 169 -19.5 169 -.5 107 -.5"/><text x="138" y="-7.5" font-family="Helvetica,sans-Serif" font-size="10" text-anchor="middle">MultiHOG</text></a></g></g><g id="edge3" class="edge"><title>Node0-&gt;Node3</title><path fill="none" stroke="#191970" d="M74.3577,-21.4443C85.2241,-19.4591 96.7382,-17.3555 106.891,-15.5008"/><polygon fill="#191970" stroke="#191970" points="73.412 -18.059 64.203 -23.299 74.67 -24.945 73.412 -18.059"/></g><g id="node3" class="node"><title>Node2</title><g id="a_node3"><a target="_top" xlink:href="classarm__compute_1_1_c_l_multi_h_o_g.xhtml" xlink:title="Basic implementation of the CL multi HOG data-objects."><polygon fill="#fff" stroke="#000" points="212 -38.5 212 -57.5 286 -57.5 286 -38.5 212 -38.5"/><text x="249" y="-45.5" font-family="Helvetica,sans-Serif" font-size="10" text-anchor="middle">CLMultiHOG</text></a></g></g><g id="edge2" class="edge"><title>Node1-&gt;Node2</title><path fill="none" stroke="#191970" d="M186.384,-48C194.868,-48 203.587,-48 211.699,-48"/><polygon fill="#191970" stroke="#191970" points="186.207 -44.5 176.207 -48 186.207 -51.5 186.207 -44.5"/></g></g></svg>