<svg xmlns="http://www.w3.org/2000/svg" xmlns:xlink="http://www.w3.org/1999/xlink" width="274pt" height="240" viewBox="0 0 274 180"><g id="graph0" class="graph" transform="scale(1 1) rotate(0) translate(4 176)"><title>Graphical Class Hierarchy</title><polygon fill="#fff" stroke="none" points="-4 4 -4 -176 270 -176 270 4 -4 4"/><g id="node1" class="node"><title>Node0</title><g id="a_node1"><a target="_top" xlink:href="classarm__compute_1_1_i_tensor.xhtml" xlink:title="Interface for NEON tensor."><polygon fill="#fff" stroke="#000" points="0 -57.5 0 -76.5 50 -76.5 50 -57.5 0 -57.5"/><text x="25" y="-64.5" font-family="Helvetica,sans-Serif" font-size="10" text-anchor="middle">ITensor</text></a></g></g><g id="node2" class="node"><title>Node1</title><g id="a_node2"><a target="_top" xlink:href="classarm__compute_1_1_i_c_l_tensor.xhtml" xlink:title="Interface for OpenCL tensor."><polygon fill="#fff" stroke="#000" points="89 -114.5 89 -133.5 149 -133.5 149 -114.5 89 -114.5"/><text x="119" y="-121.5" font-family="Helvetica,sans-Serif" font-size="10" text-anchor="middle">ICLTensor</text></a></g></g><g id="edge1" class="edge"><title>Node0-&gt;Node1</title><path fill="none" stroke="#191970" d="M49.8245,-82.3096C60.7949,-89.3022 74.0115,-97.6467 86,-105 91.0669,-108.108 96.6248,-111.436 101.666,-114.424"/><polygon fill="#191970" stroke="#191970" points="51.525 -79.242 41.214 -76.805 47.754 -85.14 51.525 -79.242"/></g><g id="node5" class="node"><title>Node4</title><g id="a_node5"><a target="_top" xlink:href="classarm__compute_1_1_i_g_c_tensor.xhtml" xlink:title="Interface for GLES Compute tensor."><polygon fill="#fff" stroke="#000" points="87 -76.5 87 -95.5 151 -95.5 151 -76.5 87 -76.5"/><text x="119" y="-83.5" font-family="Helvetica,sans-Serif" font-size="10" text-anchor="middle">IGCTensor</text></a></g></g><g id="edge4" class="edge"><title>Node0-&gt;Node4</title><path fill="none" stroke="#191970" d="M60.0538,-74.0329C68.7835,-75.8357 78.1299,-77.766 86.7126,-79.5385"/><polygon fill="#191970" stroke="#191970" points="60.673 -70.587 50.172 -71.992 59.257 -77.442 60.673 -70.587"/></g><g id="node7" class="node"><title>Node6</title><g id="a_node7"><a target="_top" xlink:href="classarm__compute_1_1_sub_tensor.xhtml" xlink:title="Basic implementation of the sub-tensor interface."><polygon fill="#fff" stroke="#000" points="86 -38.5 86 -57.5 152 -57.5 152 -38.5 86 -38.5"/><text x="119" y="-45.5" font-family="Helvetica,sans-Serif" font-size="10" text-anchor="middle">SubTensor</text></a></g></g><g id="edge6" class="edge"><title>Node0-&gt;Node6</title><path fill="none" stroke="#191970" d="M60.0375,-59.9705C68.4249,-58.2383 77.3824,-56.3884 85.6855,-54.6736"/><polygon fill="#191970" stroke="#191970" points="59.257 -56.558 50.172 -62.008 60.673 -63.413 59.257 -56.558"/></g><g id="node8" class="node"><title>Node7</title><g id="a_node8"><a target="_top" xlink:href="classarm__compute_1_1_tensor.xhtml" xlink:title="Basic implementation of the tensor interface."><polygon fill="#fff" stroke="#000" points="95.5 -.5 95.5 -19.5 142.5 -19.5 142.5 -.5 95.5 -.5"/><text x="119" y="-7.5" font-family="Helvetica,sans-Serif" font-size="10" text-anchor="middle">Tensor</text></a></g></g><g id="edge7" class="edge"><title>Node0-&gt;Node7</title><path fill="none" stroke="#191970" d="M49.8245,-51.6904C60.7949,-44.6978 74.0115,-36.3533 86,-29 91.0669,-25.8921 96.6248,-22.5641 101.666,-19.5757"/><polygon fill="#191970" stroke="#191970" points="47.754 -48.86 41.214 -57.195 51.525 -54.758 47.754 -48.86"/></g><g id="node3" class="node"><title>Node2</title><g id="a_node3"><a target="_top" xlink:href="classarm__compute_1_1_c_l_sub_tensor.xhtml" xlink:title="Basic implementation of the OpenCL sub-tensor interface."><polygon fill="#fff" stroke="#000" points="188 -152.5 188 -171.5 266 -171.5 266 -152.5 188 -152.5"/><text x="227" y="-159.5" font-family="Helvetica,sans-Serif" font-size="10" text-anchor="middle">CLSubTensor</text></a></g></g><g id="edge2" class="edge"><title>Node1-&gt;Node2</title><path fill="none" stroke="#191970" d="M156.184,-136.972C170.307,-142.034 186.206,-147.734 199.26,-152.414"/><polygon fill="#191970" stroke="#191970" points="157.343 -133.669 146.748 -133.589 154.981 -140.258 157.343 -133.669"/></g><g id="node4" class="node"><title>Node3</title><g id="a_node4"><a target="_top" xlink:href="classarm__compute_1_1_c_l_tensor.xhtml" xlink:title="Basic implementation of the OpenCL tensor interface."><polygon fill="#fff" stroke="#000" points="198 -114.5 198 -133.5 256 -133.5 256 -114.5 198 -114.5"/><text x="227" y="-121.5" font-family="Helvetica,sans-Serif" font-size="10" text-anchor="middle">CLTensor</text></a></g></g><g id="edge3" class="edge"><title>Node1-&gt;Node3</title><path fill="none" stroke="#191970" d="M159.62,-124C172.364,-124 186.212,-124 197.946,-124"/><polygon fill="#191970" stroke="#191970" points="159.246 -120.5 149.246 -124 159.246 -127.5 159.246 -120.5"/></g><g id="node6" class="node"><title>Node5</title><g id="a_node6"><a target="_top" xlink:href="classarm__compute_1_1_g_c_tensor.xhtml" xlink:title="Interface for OpenGL ES tensor."><polygon fill="#fff" stroke="#000" points="196 -76.5 196 -95.5 258 -95.5 258 -76.5 196 -76.5"/><text x="227" y="-83.5" font-family="Helvetica,sans-Serif" font-size="10" text-anchor="middle">GCTensor</text></a></g></g><g id="edge5" class="edge"><title>Node4-&gt;Node5</title><path fill="none" stroke="#191970" d="M161.448,-86C172.876,-86 185.056,-86 195.722,-86"/><polygon fill="#191970" stroke="#191970" points="161.23 -82.5 151.23 -86 161.23 -89.5 161.23 -82.5"/></g></g></svg>