<svg xmlns="http://www.w3.org/2000/svg" xmlns:xlink="http://www.w3.org/1999/xlink" width="236pt" height="88" viewBox="0 0 236 66"><g id="graph0" class="graph" transform="scale(1 1) rotate(0) translate(4 62)"><title>Graphical Class Hierarchy</title><polygon fill="#fff" stroke="none" points="-4 4 -4 -62 232 -62 232 4 -4 4"/><g id="node1" class="node"><title>Node0</title><g id="a_node1"><a target="_top" xlink:href="classarm__compute_1_1graph__utils_1_1_i_preprocessor.xhtml" xlink:title="Preprocessor interface."><polygon fill="#fff" stroke="#000" points="0 -19.5 0 -38.5 82 -38.5 82 -19.5 0 -19.5"/><text x="41" y="-26.5" font-family="Helvetica,sans-Serif" font-size="10" text-anchor="middle">IPreprocessor</text></a></g></g><g id="node2" class="node"><title>Node1</title><g id="a_node2"><a target="_top" xlink:href="classarm__compute_1_1graph__utils_1_1_caffe_preproccessor.xhtml" xlink:title="Caffe preproccessor."><polygon fill="#fff" stroke="#000" points="118 -38.5 118 -57.5 228 -57.5 228 -38.5 118 -38.5"/><text x="173" y="-45.5" font-family="Helvetica,sans-Serif" font-size="10" text-anchor="middle">CaffePreproccessor</text></a></g></g><g id="edge1" class="edge"><title>Node0-&gt;Node1</title><path fill="none" stroke="#191970" d="M92.1566,-36.3306C100.608,-37.5657 109.412,-38.8525 117.957,-40.1013"/><polygon fill="#191970" stroke="#191970" points="92.466 -32.839 82.065 -34.856 91.454 -39.765 92.466 -32.839"/></g><g id="node3" class="node"><title>Node2</title><g id="a_node3"><a target="_top" xlink:href="classarm__compute_1_1graph__utils_1_1_t_f_preproccessor.xhtml" xlink:title="TF preproccessor."><polygon fill="#fff" stroke="#000" points="125.5 -.5 125.5 -19.5 220.5 -19.5 220.5 -.5 125.5 -.5"/><text x="173" y="-7.5" font-family="Helvetica,sans-Serif" font-size="10" text-anchor="middle">TFPreproccessor</text></a></g></g><g id="edge2" class="edge"><title>Node0-&gt;Node2</title><path fill="none" stroke="#191970" d="M91.9661,-21.6973C102.976,-20.0881 114.595,-18.39 125.463,-16.8016"/><polygon fill="#191970" stroke="#191970" points="91.454 -18.235 82.065 -23.144 92.466 -25.161 91.454 -18.235"/></g></g></svg>