<svg xmlns="http://www.w3.org/2000/svg" xmlns:xlink="http://www.w3.org/1999/xlink" width="300" height="88" viewBox="0 0 225 66"><g id="graph0" class="graph" transform="scale(1 1) rotate(0) translate(4 62)"><title>Graphical Class Hierarchy</title><polygon fill="#fff" stroke="none" points="-4 4 -4 -62 221 -62 221 4 -4 4"/><g id="node1" class="node"><title>Node0</title><g id="a_node1"><a target="_top" xlink:href="classarm__compute_1_1_i_h_o_g.xhtml" xlink:title="Interface for HOG data-object."><polygon fill="#fff" stroke="#000" points="0 -19.5 0 -38.5 41 -38.5 41 -19.5 0 -19.5"/><text x="20.5" y="-26.5" font-family="Helvetica,sans-Serif" font-size="10" text-anchor="middle">IHOG</text></a></g></g><g id="node2" class="node"><title>Node1</title><g id="a_node2"><a target="_top" xlink:href="classarm__compute_1_1_h_o_g.xhtml" xlink:title="CPU implementation of HOG data-object."><polygon fill="#fff" stroke="#000" points="84 -38.5 84 -57.5 123 -57.5 123 -38.5 84 -38.5"/><text x="103.5" y="-45.5" font-family="Helvetica,sans-Serif" font-size="10" text-anchor="middle">HOG</text></a></g></g><g id="edge1" class="edge"><title>Node0-&gt;Node1</title><path fill="none" stroke="#191970" d="M51.1468,-35.9542C62.104,-38.5244 74.2054,-41.363 83.9074,-43.6388"/><polygon fill="#191970" stroke="#191970" points="51.643 -32.476 41.108 -33.599 50.044 -39.291 51.643 -32.476"/></g><g id="node3" class="node"><title>Node2</title><g id="a_node3"><a target="_top" xlink:href="classarm__compute_1_1_i_c_l_h_o_g.xhtml" xlink:title="Interface for OpenCL HOG data-object."><polygon fill="#fff" stroke="#000" points="77 -.5 77 -19.5 130 -19.5 130 -.5 77 -.5"/><text x="103.5" y="-7.5" font-family="Helvetica,sans-Serif" font-size="10" text-anchor="middle">ICLHOG</text></a></g></g><g id="edge2" class="edge"><title>Node0-&gt;Node2</title><path fill="none" stroke="#191970" d="M51.0152,-22.0767C59.5126,-20.0835 68.7079,-17.9266 76.9441,-15.9946"/><polygon fill="#191970" stroke="#191970" points="50.044 -18.709 41.108 -24.401 51.643 -25.524 50.044 -18.709"/></g><g id="node4" class="node"><title>Node3</title><g id="a_node4"><a target="_top" xlink:href="classarm__compute_1_1_c_l_h_o_g.xhtml" xlink:title="OpenCL implementation of HOG data-object."><polygon fill="#fff" stroke="#000" points="166 -.5 166 -19.5 217 -19.5 217 -.5 166 -.5"/><text x="191.5" y="-7.5" font-family="Helvetica,sans-Serif" font-size="10" text-anchor="middle">CLHOG</text></a></g></g><g id="edge3" class="edge"><title>Node2-&gt;Node3</title><path fill="none" stroke="#191970" d="M140.464,-10C149.028,-10 157.975,-10 165.895,-10"/><polygon fill="#191970" stroke="#191970" points="140.303 -6.5 130.303 -10 140.303 -13.5 140.303 -6.5"/></g></g></svg>