<svg xmlns="http://www.w3.org/2000/svg" xmlns:xlink="http://www.w3.org/1999/xlink" width="412" height="1408pt" viewBox="0 0 309 1408"><g id="graph0" class="graph" transform="scale(1 1) rotate(0) translate(4 1404)"><title>Graphical Class Hierarchy</title><polygon fill="#fff" stroke="none" points="-4 4 -4 -1404 305 -1404 305 4 -4 4"/><g id="node1" class="node"><title>Node0</title><g id="a_node1"><a target="_top" xlink:href="classarm__compute_1_1graph_1_1_i_node.xhtml" xlink:title="Node interface."><polygon fill="#fff" stroke="#000" points="0 -684.5 0 -703.5 44 -703.5 44 -684.5 0 -684.5"/><text x="22" y="-691.5" font-family="Helvetica,sans-Serif" font-size="10" text-anchor="middle">INode</text></a></g></g><g id="node2" class="node"><title>Node1</title><g id="a_node2"><a target="_top" xlink:href="classarm__compute_1_1graph_1_1_activation_layer_node.xhtml" xlink:title="Activation Layer node."><polygon fill="#fff" stroke="#000" points="132.5 -1380.5 132.5 -1399.5 248.5 -1399.5 248.5 -1380.5 132.5 -1380.5"/><text x="190.5" y="-1387.5" font-family="Helvetica,sans-Serif" font-size="10" text-anchor="middle">ActivationLayerNode</text></a></g></g><g id="edge1" class="edge"><title>Node0-&gt;Node1</title><path fill="none" stroke="#191970" d="M23.2531,-713.803C24.7972,-820.226 34.4592,-1321.27 80,-1371 93.2268,-1385.44 113.179,-1391.42 132.443,-1393.37"/><polygon fill="#191970" stroke="#191970" points="26.753 -713.733 23.115 -703.782 19.753 -713.83 26.753 -713.733"/></g><g id="node3" class="node"><title>Node2</title><g id="a_node3"><a target="_top" xlink:href="classarm__compute_1_1graph_1_1_batch_normalization_layer_node.xhtml" xlink:title="Batch Normalization Layer node."><polygon fill="#fff" stroke="#000" points="109 -1342.5 109 -1361.5 272 -1361.5 272 -1342.5 109 -1342.5"/><text x="190.5" y="-1349.5" font-family="Helvetica,sans-Serif" font-size="10" text-anchor="middle">BatchNormalizationLayerNode</text></a></g></g><g id="edge2" class="edge"><title>Node0-&gt;Node2</title><path fill="none" stroke="#191970" d="M23.3609,-713.958C25.4102,-817.059 37.0585,-1286.35 80,-1333 87.7746,-1341.45 97.8505,-1346.99 108.738,-1350.53"/><polygon fill="#191970" stroke="#191970" points="26.856 -713.646 23.166 -703.715 19.857 -713.779 26.856 -713.646"/></g><g id="node4" class="node"><title>Node3</title><g id="a_node4"><a target="_top" xlink:href="classarm__compute_1_1graph_1_1_bounding_box_transform_layer_node.xhtml" xlink:title="Bounding Box Transform Layer node."><polygon fill="#fff" stroke="#000" points="101 -1304.5 101 -1323.5 280 -1323.5 280 -1304.5 101 -1304.5"/><text x="190.5" y="-1311.5" font-family="Helvetica,sans-Serif" font-size="10" text-anchor="middle">BoundingBoxTransformLayerNode</text></a></g></g><g id="edge3" class="edge"><title>Node0-&gt;Node3</title><path fill="none" stroke="#191970" d="M23.4729,-713.694C26.0275,-812.517 39.5954,-1251.35 80,-1295 85.8978,-1301.37 93.1056,-1306.09 100.981,-1309.54"/><polygon fill="#191970" stroke="#191970" points="26.969 -713.51 23.22 -703.601 19.972 -713.685 26.969 -713.51"/></g><g id="node5" class="node"><title>Node4</title><g id="a_node5"><a target="_top" xlink:href="classarm__compute_1_1graph_1_1_channel_shuffle_layer_node.xhtml" xlink:title="Channel Shuffle Layer node."><polygon fill="#fff" stroke="#000" points="120.5 -1266.5 120.5 -1285.5 260.5 -1285.5 260.5 -1266.5 120.5 -1266.5"/><text x="190.5" y="-1273.5" font-family="Helvetica,sans-Serif" font-size="10" text-anchor="middle">ChannelShuffleLayerNode</text></a></g></g><g id="edge4" class="edge"><title>Node0-&gt;Node4</title><path fill="none" stroke="#191970" d="M23.6136,-713.937C26.7339,-809.35 42.1965,-1216.42 80,-1257 90.5209,-1268.29 105.16,-1274.39 120.315,-1277.42"/><polygon fill="#191970" stroke="#191970" points="27.11 -713.775 23.294 -703.891 20.114 -713.998 27.11 -713.775"/></g><g id="node6" class="node"><title>Node5</title><g id="a_node6"><a target="_top" xlink:href="classarm__compute_1_1graph_1_1_concatenate_layer_node.xhtml" xlink:title="Concatenation Layer node."><polygon fill="#fff" stroke="#000" points="125.5 -1228.5 125.5 -1247.5 255.5 -1247.5 255.5 -1228.5 125.5 -1228.5"/><text x="190.5" y="-1235.5" font-family="Helvetica,sans-Serif" font-size="10" text-anchor="middle">ConcatenateLayerNode</text></a></g></g><g id="edge5" class="edge"><title>Node0-&gt;Node5</title><path fill="none" stroke="#191970" d="M23.7585,-713.72C27.4409,-804.738 44.7314,-1181.41 80,-1219 91.6839,-1231.45 108.376,-1237.57 125.217,-1240.23"/><polygon fill="#191970" stroke="#191970" points="27.253 -713.511 23.36 -703.658 20.259 -713.788 27.253 -713.511"/></g><g id="node7" class="node"><title>Node6</title><g id="a_node7"><a target="_top" xlink:href="classarm__compute_1_1graph_1_1_const_node.xhtml" xlink:title="Const node."><polygon fill="#fff" stroke="#000" points="155.5 -1190.5 155.5 -1209.5 225.5 -1209.5 225.5 -1190.5 155.5 -1190.5"/><text x="190.5" y="-1197.5" font-family="Helvetica,sans-Serif" font-size="10" text-anchor="middle">ConstNode</text></a></g></g><g id="edge6" class="edge"><title>Node0-&gt;Node6</title><path fill="none" stroke="#191970" d="M23.9441,-713.922C28.2594,-801.134 47.3146,-1146.46 80,-1181 98.9631,-1201.04 130.908,-1204.62 155.414,-1203.88"/><polygon fill="#191970" stroke="#191970" points="27.433 -713.607 23.452 -703.788 20.441 -713.946 27.433 -713.607"/></g><g id="node8" class="node"><title>Node7</title><g id="a_node8"><a target="_top" xlink:href="classarm__compute_1_1graph_1_1_convolution_layer_node.xhtml" xlink:title="Convolution Layer node."><polygon fill="#fff" stroke="#000" points="128 -1152.5 128 -1171.5 253 -1171.5 253 -1152.5 128 -1152.5"/><text x="190.5" y="-1159.5" font-family="Helvetica,sans-Serif" font-size="10" text-anchor="middle">ConvolutionLayerNode</text></a></g></g><g id="edge7" class="edge"><title>Node0-&gt;Node7</title><path fill="none" stroke="#191970" d="M22.5259,-714.221C21.1117,-793.314 20.2353,-1080.45 80,-1143 92.3961,-1155.97 110.237,-1162.03 127.93,-1164.48"/><polygon fill="#191970" stroke="#191970" points="26.035 -713.813 22.74 -703.743 19.036 -713.67 26.035 -713.813"/></g><g id="node9" class="node"><title>Node8</title><g id="a_node9"><a target="_top" xlink:href="classarm__compute_1_1graph_1_1_deconvolution_layer_node.xhtml" xlink:title="Deconvolution Layer node."><polygon fill="#fff" stroke="#000" points="122 -1114.5 122 -1133.5 259 -1133.5 259 -1114.5 122 -1114.5"/><text x="190.5" y="-1121.5" font-family="Helvetica,sans-Serif" font-size="10" text-anchor="middle">DeconvolutionLayerNode</text></a></g></g><g id="edge8" class="edge"><title>Node0-&gt;Node8</title><path fill="none" stroke="#191970" d="M22.7914,-713.929C22.4444,-788.312 25.2305,-1048.34 80,-1105 90.9957,-1116.38 106.182,-1122.41 121.746,-1125.37"/><polygon fill="#191970" stroke="#191970" points="26.293 -713.67 22.866 -703.645 19.294 -713.619 26.293 -713.67"/></g><g id="node10" class="node"><title>Node9</title><g id="a_node10"><a target="_top" xlink:href="classarm__compute_1_1graph_1_1_depthwise_convolution_layer_node.xhtml" xlink:title="Depthwise Convolution Layer node."><polygon fill="#fff" stroke="#000" points="103.5 -1076.5 103.5 -1095.5 277.5 -1095.5 277.5 -1076.5 103.5 -1076.5"/><text x="190.5" y="-1083.5" font-family="Helvetica,sans-Serif" font-size="10" text-anchor="middle">DepthwiseConvolutionLayerNode</text></a></g></g><g id="edge9" class="edge"><title>Node0-&gt;Node9</title><path fill="none" stroke="#191970" d="M23.1026,-713.872C23.8906,-783.688 30.2677,-1016.25 80,-1067 86.6175,-1073.75 94.7134,-1078.62 103.479,-1082.07"/><polygon fill="#191970" stroke="#191970" points="26.602 -713.754 23.016 -703.784 19.602 -713.814 26.602 -713.754"/></g><g id="node11" class="node"><title>Node10</title><g id="a_node11"><a target="_top" xlink:href="classarm__compute_1_1graph_1_1_detection_output_layer_node.xhtml" xlink:title="DetectionOutput Layer node."><polygon fill="#fff" stroke="#000" points="116.5 -1038.5 116.5 -1057.5 264.5 -1057.5 264.5 -1038.5 116.5 -1038.5"/><text x="190.5" y="-1045.5" font-family="Helvetica,sans-Serif" font-size="10" text-anchor="middle">DetectionOutputLayerNode</text></a></g></g><g id="edge10" class="edge"><title>Node0-&gt;Node10</title><path fill="none" stroke="#191970" d="M23.4834,-713.919C25.4901,-779.062 35.3088,-984.162 80,-1029 89.8071,-1038.84 102.759,-1044.65 116.312,-1047.91"/><polygon fill="#191970" stroke="#191970" points="26.978 -713.663 23.201 -703.764 19.98 -713.858 26.978 -713.663"/></g><g id="node12" class="node"><title>Node11</title><g id="a_node12"><a target="_top" xlink:href="classarm__compute_1_1graph_1_1_detection_post_process_layer_node.xhtml" xlink:title="DetectionPostProcess Layer node."><polygon fill="#fff" stroke="#000" points="104 -1000.5 104 -1019.5 277 -1019.5 277 -1000.5 104 -1000.5"/><text x="190.5" y="-1007.5" font-family="Helvetica,sans-Serif" font-size="10" text-anchor="middle">DetectionPostProcessLayerNode</text></a></g></g><g id="edge11" class="edge"><title>Node0-&gt;Node11</title><path fill="none" stroke="#191970" d="M23.9394,-713.581C27.2235,-773.382 40.2388,-951.941 80,-991 86.8133,-997.693 95.0857,-1002.51 103.998,-1005.92"/><polygon fill="#191970" stroke="#191970" points="27.433 -713.373 23.421 -703.567 20.443 -713.735 27.433 -713.373"/></g><g id="node13" class="node"><title>Node12</title><g id="a_node13"><a target="_top" xlink:href="classarm__compute_1_1graph_1_1_dummy_node.xhtml" xlink:title="Dummy Layer node."><polygon fill="#fff" stroke="#000" points="150.5 -962.5 150.5 -981.5 230.5 -981.5 230.5 -962.5 150.5 -962.5"/><text x="190.5" y="-969.5" font-family="Helvetica,sans-Serif" font-size="10" text-anchor="middle">DummyNode</text></a></g></g><g id="edge12" class="edge"><title>Node0-&gt;Node12</title><path fill="none" stroke="#191970" d="M24.5651,-713.891C29.2918,-768.658 45.2819,-919.804 80,-953 98.4081,-970.601 126.946,-975.103 150.272,-975.334"/><polygon fill="#191970" stroke="#191970" points="28.038 -713.421 23.725 -703.744 21.062 -713.999 28.038 -713.421"/></g><g id="node14" class="node"><title>Node13</title><g id="a_node14"><a target="_top" xlink:href="classarm__compute_1_1graph_1_1_eltwise_layer_node.xhtml" xlink:title="Eltwise Layer node."><polygon fill="#fff" stroke="#000" points="140 -924.5 140 -943.5 241 -943.5 241 -924.5 140 -924.5"/><text x="190.5" y="-931.5" font-family="Helvetica,sans-Serif" font-size="10" text-anchor="middle">EltwiseLayerNode</text></a></g></g><g id="edge13" class="edge"><title>Node0-&gt;Node13</title><path fill="none" stroke="#191970" d="M25.3677,-713.828C31.6274,-762.802 50.2061,-887.516 80,-915 95.9547,-929.718 119.033,-935.169 139.893,-936.656"/><polygon fill="#191970" stroke="#191970" points="28.803 -713.092 24.1 -703.599 21.857 -713.953 28.803 -713.092"/></g><g id="node15" class="node"><title>Node14</title><g id="a_node15"><a target="_top" xlink:href="classarm__compute_1_1graph_1_1_flatten_layer_node.xhtml" xlink:title="Flatten Layer node."><polygon fill="#fff" stroke="#000" points="140 -886.5 140 -905.5 241 -905.5 241 -886.5 140 -886.5"/><text x="190.5" y="-893.5" font-family="Helvetica,sans-Serif" font-size="10" text-anchor="middle">FlattenLayerNode</text></a></g></g><g id="edge14" class="edge"><title>Node0-&gt;Node14</title><path fill="none" stroke="#191970" d="M22.8867,-714.078C23.8424,-752.11 31.7225,-834.63 80,-877 96.2417,-891.254 119.231,-896.673 139.955,-898.259"/><polygon fill="#191970" stroke="#191970" points="26.384 -713.759 22.775 -703.797 19.384 -713.835 26.384 -713.759"/></g><g id="node16" class="node"><title>Node15</title><g id="a_node16"><a target="_top" xlink:href="classarm__compute_1_1graph_1_1_fully_connected_layer_node.xhtml" xlink:title="Fully Connected Layer node."><polygon fill="#fff" stroke="#000" points="120.5 -848.5 120.5 -867.5 260.5 -867.5 260.5 -848.5 120.5 -848.5"/><text x="190.5" y="-855.5" font-family="Helvetica,sans-Serif" font-size="10" text-anchor="middle">FullyConnectedLayerNode</text></a></g></g><g id="edge15" class="edge"><title>Node0-&gt;Node15</title><path fill="none" stroke="#191970" d="M24.7558,-713.848C28.6866,-745.57 41.1647,-807.336 80,-839 91.4397,-848.327 105.821,-853.777 120.363,-856.833"/><polygon fill="#191970" stroke="#191970" points="28.207 -713.202 23.661 -703.632 21.247 -713.948 28.207 -713.202"/></g><g id="node17" class="node"><title>Node16</title><g id="a_node17"><a target="_top" xlink:href="classarm__compute_1_1graph_1_1_fused_convolution_batch_normalization_node.xhtml" xlink:title="Batch Normalization node."><polygon fill="#fff" stroke="#000" points="80 -810.5 80 -829.5 301 -829.5 301 -810.5 80 -810.5"/><text x="190.5" y="-817.5" font-family="Helvetica,sans-Serif" font-size="10" text-anchor="middle">FusedConvolutionBatchNormalizationNode</text></a></g></g><g id="edge16" class="edge"><title>Node0-&gt;Node16</title><path fill="none" stroke="#191970" d="M27.7349,-713.53C34.7638,-738.081 50.4294,-779.595 80,-801 85.2359,-804.79 90.9765,-807.914 97.0001,-810.48"/><polygon fill="#191970" stroke="#191970" points="31.042 -712.345 25.094 -703.577 24.276 -714.14 31.042 -712.345"/></g><g id="node18" class="node"><title>Node17</title><g id="a_node18"><a target="_top" xlink:href="classarm__compute_1_1graph_1_1_fused_depthwise_convolution_batch_normalization_node.xhtml" xlink:title="Fused Depthwise Convolution Batch Normalization node."><polygon fill="#fff" stroke="#000" points="115.5 -761 115.5 -791 265.5 -791 265.5 -761 115.5 -761"/><text x="123.5" y="-779" font-family="Helvetica,sans-Serif" font-size="10" text-anchor="start">FusedDepthwiseConvolution</text><text x="190.5" y="-768" font-family="Helvetica,sans-Serif" font-size="10" text-anchor="middle">BatchNormalizationNode</text></a></g></g><g id="edge17" class="edge"><title>Node0-&gt;Node17</title><path fill="none" stroke="#191970" d="M36.2752,-711.854C46.7518,-724.668 62.4848,-741.319 80,-751 90.837,-756.99 103.035,-761.546 115.252,-765.012"/><polygon fill="#191970" stroke="#191970" points="38.829 -709.439 29.905 -703.729 33.321 -713.759 38.829 -709.439"/></g><g id="node19" class="node"><title>Node18</title><g id="a_node19"><a target="_top" xlink:href="classarm__compute_1_1graph_1_1_generate_proposals_layer_node.xhtml" xlink:title="Generate Proposals Layer node."><polygon fill="#fff" stroke="#000" points="110.5 -722.5 110.5 -741.5 270.5 -741.5 270.5 -722.5 110.5 -722.5"/><text x="190.5" y="-729.5" font-family="Helvetica,sans-Serif" font-size="10" text-anchor="middle">GenerateProposalsLayerNode</text></a></g></g><g id="edge18" class="edge"><title>Node0-&gt;Node18</title><path fill="none" stroke="#191970" d="M53.6547,-705.155C62.1152,-707.977 71.3484,-710.821 80,-713 94.5002,-716.653 110.256,-719.835 125.179,-722.497"/><polygon fill="#191970" stroke="#191970" points="54.754 -701.832 44.159 -701.895 52.48 -708.453 54.754 -701.832"/></g><g id="node20" class="node"><title>Node19</title><g id="a_node20"><a target="_top" xlink:href="classarm__compute_1_1graph_1_1_input_node.xhtml" xlink:title="Input Layer node."><polygon fill="#fff" stroke="#000" points="157.5 -684.5 157.5 -703.5 223.5 -703.5 223.5 -684.5 157.5 -684.5"/><text x="190.5" y="-691.5" font-family="Helvetica,sans-Serif" font-size="10" text-anchor="middle">InputNode</text></a></g></g><g id="edge19" class="edge"><title>Node0-&gt;Node19</title><path fill="none" stroke="#191970" d="M54.2401,-694C83.7254,-694 127.732,-694 157.473,-694"/><polygon fill="#191970" stroke="#191970" points="54.087 -690.5 44.087 -694 54.087 -697.5 54.087 -690.5"/></g><g id="node21" class="node"><title>Node20</title><g id="a_node21"><a target="_top" xlink:href="classarm__compute_1_1graph_1_1_normalization_layer_node.xhtml" xlink:title="Normalization Layer node."><polygon fill="#fff" stroke="#000" points="123 -646.5 123 -665.5 258 -665.5 258 -646.5 123 -646.5"/><text x="190.5" y="-653.5" font-family="Helvetica,sans-Serif" font-size="10" text-anchor="middle">NormalizationLayerNode</text></a></g></g><g id="edge20" class="edge"><title>Node0-&gt;Node20</title><path fill="none" stroke="#191970" d="M53.6547,-682.845C62.1152,-680.023 71.3484,-677.179 80,-675 94.5002,-671.347 110.256,-668.165 125.179,-665.503"/><polygon fill="#191970" stroke="#191970" points="52.48 -679.547 44.159 -686.105 54.754 -686.168 52.48 -679.547"/></g><g id="node22" class="node"><title>Node21</title><g id="a_node22"><a target="_top" xlink:href="classarm__compute_1_1graph_1_1_normalize_planar_y_u_v_layer_node.xhtml" xlink:title="Batch Normalization Layer node."><polygon fill="#fff" stroke="#000" points="107 -608.5 107 -627.5 274 -627.5 274 -608.5 107 -608.5"/><text x="190.5" y="-615.5" font-family="Helvetica,sans-Serif" font-size="10" text-anchor="middle">NormalizePlanarYUVLayerNode</text></a></g></g><g id="edge21" class="edge"><title>Node0-&gt;Node21</title><path fill="none" stroke="#191970" d="M36.1298,-675.874C46.5322,-662.922 62.236,-646.217 80,-637 88.392,-632.646 97.5831,-629.263 106.96,-626.638"/><polygon fill="#191970" stroke="#191970" points="33.126 -674.039 29.815 -684.103 38.68 -678.301 33.126 -674.039"/></g><g id="node23" class="node"><title>Node22</title><g id="a_node23"><a target="_top" xlink:href="classarm__compute_1_1graph_1_1_output_node.xhtml" xlink:title="Output Layer node."><polygon fill="#fff" stroke="#000" points="153 -570.5 153 -589.5 228 -589.5 228 -570.5 153 -570.5"/><text x="190.5" y="-577.5" font-family="Helvetica,sans-Serif" font-size="10" text-anchor="middle">OutputNode</text></a></g></g><g id="edge22" class="edge"><title>Node0-&gt;Node22</title><path fill="none" stroke="#191970" d="M29.0662,-674.691C37.0463,-652.66 53.2813,-617.322 80,-599 101.243,-584.433 130.109,-579.892 152.869,-578.881"/><polygon fill="#191970" stroke="#191970" points="25.703 -673.71 25.802 -684.304 32.331 -675.96 25.703 -673.71"/></g><g id="node24" class="node"><title>Node23</title><g id="a_node24"><a target="_top" xlink:href="classarm__compute_1_1graph_1_1_pad_layer_node.xhtml" xlink:title="Pad Layer node."><polygon fill="#fff" stroke="#000" points="147.5 -532.5 147.5 -551.5 233.5 -551.5 233.5 -532.5 147.5 -532.5"/><text x="190.5" y="-539.5" font-family="Helvetica,sans-Serif" font-size="10" text-anchor="middle">PadLayerNode</text></a></g></g><g id="edge23" class="edge"><title>Node0-&gt;Node23</title><path fill="none" stroke="#191970" d="M25.4899,-674.515C30.3537,-645.017 43.9995,-589.455 80,-561 98.8457,-546.104 125.259,-541.203 147.423,-540.099"/><polygon fill="#191970" stroke="#191970" points="22.024 -674.03 24.027 -684.434 28.949 -675.051 22.024 -674.03"/></g><g id="node25" class="node"><title>Node24</title><g id="a_node25"><a target="_top" xlink:href="classarm__compute_1_1graph_1_1_permute_layer_node.xhtml" xlink:title="Permute Layer node."><polygon fill="#fff" stroke="#000" points="135.5 -494.5 135.5 -513.5 245.5 -513.5 245.5 -494.5 135.5 -494.5"/><text x="190.5" y="-501.5" font-family="Helvetica,sans-Serif" font-size="10" text-anchor="middle">PermuteLayerNode</text></a></g></g><g id="edge24" class="edge"><title>Node0-&gt;Node24</title><path fill="none" stroke="#191970" d="M23.386,-674.233C25.2319,-638.219 34.6186,-562.04 80,-523 95.1388,-509.977 115.935,-504.378 135.339,-502.33"/><polygon fill="#191970" stroke="#191970" points="19.881 -674.296 23.016 -684.416 26.877 -674.55 19.881 -674.296"/></g><g id="node26" class="node"><title>Node25</title><g id="a_node26"><a target="_top" xlink:href="classarm__compute_1_1graph_1_1_pooling_layer_node.xhtml" xlink:title="Pooling Layer node."><polygon fill="#fff" stroke="#000" points="139 -456.5 139 -475.5 242 -475.5 242 -456.5 139 -456.5"/><text x="190.5" y="-463.5" font-family="Helvetica,sans-Serif" font-size="10" text-anchor="middle">PoolingLayerNode</text></a></g></g><g id="edge25" class="edge"><title>Node0-&gt;Node25</title><path fill="none" stroke="#191970" d="M25.6627,-674.306C32.4204,-627.334 51.729,-510.719 80,-485 95.7707,-470.653 118.328,-465.151 138.875,-463.532"/><polygon fill="#191970" stroke="#191970" points="22.168 -674.027 24.249 -684.415 29.1 -674.996 22.168 -674.027"/></g><g id="node27" class="node"><title>Node26</title><g id="a_node27"><a target="_top" xlink:href="classarm__compute_1_1graph_1_1_prior_box_layer_node.xhtml" xlink:title="PriorBox Layer node."><polygon fill="#fff" stroke="#000" points="136.5 -418.5 136.5 -437.5 244.5 -437.5 244.5 -418.5 136.5 -418.5"/><text x="190.5" y="-425.5" font-family="Helvetica,sans-Serif" font-size="10" text-anchor="middle">PriorBoxLayerNode</text></a></g></g><g id="edge26" class="edge"><title>Node0-&gt;Node26</title><path fill="none" stroke="#191970" d="M24.7725,-674.338C29.9452,-621.52 46.7977,-478.425 80,-447 94.9241,-432.875 116.382,-427.214 136.354,-425.419"/><polygon fill="#191970" stroke="#191970" points="21.276 -674.142 23.821 -684.427 28.245 -674.8 21.276 -674.142"/></g><g id="node28" class="node"><title>Node27</title><g id="a_node28"><a target="_top" xlink:href="classarm__compute_1_1graph_1_1_quantization_layer_node.xhtml" xlink:title="Quantization Layer node."><polygon fill="#fff" stroke="#000" points="126 -380.5 126 -399.5 255 -399.5 255 -380.5 126 -380.5"/><text x="190.5" y="-387.5" font-family="Helvetica,sans-Serif" font-size="10" text-anchor="middle">QuantizationLayerNode</text></a></g></g><g id="edge27" class="edge"><title>Node0-&gt;Node27</title><path fill="none" stroke="#191970" d="M24.1342,-674.07C27.8842,-615.574 41.8904,-446.147 80,-409 92.2278,-397.081 109.088,-391.132 125.916,-388.45"/><polygon fill="#191970" stroke="#191970" points="20.631 -674.024 23.517 -684.218 27.618 -674.449 20.631 -674.024"/></g><g id="node29" class="node"><title>Node28</title><g id="a_node29"><a target="_top" xlink:href="classarm__compute_1_1graph_1_1_reorg_layer_node.xhtml" xlink:title="Reorg Layer node."><polygon fill="#fff" stroke="#000" points="143 -342.5 143 -361.5 238 -361.5 238 -342.5 143 -342.5"/><text x="190.5" y="-349.5" font-family="Helvetica,sans-Serif" font-size="10" text-anchor="middle">ReorgLayerNode</text></a></g></g><g id="edge28" class="edge"><title>Node0-&gt;Node28</title><path fill="none" stroke="#191970" d="M23.6255,-673.976C26.0425,-610.273 36.9157,-413.961 80,-371 96.2587,-354.788 121.063,-349.542 142.954,-348.571"/><polygon fill="#191970" stroke="#191970" points="20.118 -674.145 23.267 -684.261 27.113 -674.389 20.118 -674.145"/></g><g id="node30" class="node"><title>Node29</title><g id="a_node30"><a target="_top" xlink:href="classarm__compute_1_1graph_1_1_reshape_layer_node.xhtml" xlink:title="Reshape Layer node."><polygon fill="#fff" stroke="#000" points="136 -304.5 136 -323.5 245 -323.5 245 -304.5 136 -304.5"/><text x="190.5" y="-311.5" font-family="Helvetica,sans-Serif" font-size="10" text-anchor="middle">ReshapeLayerNode</text></a></g></g><g id="edge29" class="edge"><title>Node0-&gt;Node29</title><path fill="none" stroke="#191970" d="M23.218,-673.893C24.3939,-605.266 31.9136,-381.823 80,-333 94.4192,-318.36 115.792,-312.613 135.838,-310.893"/><polygon fill="#191970" stroke="#191970" points="19.714 -674.137 23.071 -684.186 26.713 -674.237 19.714 -674.137"/></g><g id="node31" class="node"><title>Node30</title><g id="a_node31"><a target="_top" xlink:href="classarm__compute_1_1graph_1_1_resize_layer_node.xhtml" xlink:title="Resize Layer node."><polygon fill="#fff" stroke="#000" points="141.5 -266.5 141.5 -285.5 239.5 -285.5 239.5 -266.5 141.5 -266.5"/><text x="190.5" y="-273.5" font-family="Helvetica,sans-Serif" font-size="10" text-anchor="middle">ResizeLayerNode</text></a></g></g><g id="edge30" class="edge"><title>Node0-&gt;Node30</title><path fill="none" stroke="#191970" d="M22.8836,-674.175C22.8844,-601.325 26.8022,-349.813 80,-295 95.6549,-278.87 119.738,-273.486 141.337,-272.408"/><polygon fill="#191970" stroke="#191970" points="19.384 -674.285 22.91 -684.276 26.384 -674.267 19.384 -674.285"/></g><g id="node32" class="node"><title>Node31</title><g id="a_node32"><a target="_top" xlink:href="classarm__compute_1_1graph_1_1_r_o_i_align_layer_node.xhtml" xlink:title="ROI Align node."><polygon fill="#fff" stroke="#000" points="137 -228.5 137 -247.5 244 -247.5 244 -228.5 137 -228.5"/><text x="190.5" y="-235.5" font-family="Helvetica,sans-Serif" font-size="10" text-anchor="middle">ROIAlignLayerNode</text></a></g></g><g id="edge31" class="edge"><title>Node0-&gt;Node31</title><path fill="none" stroke="#191970" d="M22.605,-673.814C21.5232,-596.114 21.8285,-317.674 80,-257 94.4881,-241.889 116.365,-236.174 136.765,-234.604"/><polygon fill="#191970" stroke="#191970" points="19.111 -674.195 22.775 -684.136 26.11 -674.08 19.111 -674.195"/></g><g id="node33" class="node"><title>Node32</title><g id="a_node33"><a target="_top" xlink:href="classarm__compute_1_1graph_1_1_slice_layer_node.xhtml" xlink:title="Slice Layer node."><polygon fill="#fff" stroke="#000" points="145 -190.5 145 -209.5 236 -209.5 236 -190.5 145 -190.5"/><text x="190.5" y="-197.5" font-family="Helvetica,sans-Serif" font-size="10" text-anchor="middle">SliceLayerNode</text></a></g></g><g id="edge32" class="edge"><title>Node0-&gt;Node32</title><path fill="none" stroke="#191970" d="M23.9939,-674.306C28.4888,-588.81 48.0924,-252.624 80,-219 96.336,-201.785 122.252,-196.727 144.772,-196.117"/><polygon fill="#191970" stroke="#191970" points="20.49 -674.285 23.47 -684.452 27.481 -674.646 20.49 -674.285"/></g><g id="node34" class="node"><title>Node33</title><g id="a_node34"><a target="_top" xlink:href="classarm__compute_1_1graph_1_1_softmax_layer_node.xhtml" xlink:title="Softmax Layer node."><polygon fill="#fff" stroke="#000" points="136 -152.5 136 -171.5 245 -171.5 245 -152.5 136 -152.5"/><text x="190.5" y="-159.5" font-family="Helvetica,sans-Serif" font-size="10" text-anchor="middle">SoftmaxLayerNode</text></a></g></g><g id="edge33" class="edge"><title>Node0-&gt;Node33</title><path fill="none" stroke="#191970" d="M23.8284,-673.881C27.736,-583.471 45.5906,-217.58 80,-181 94.1452,-165.962 115.595,-160.176 135.773,-158.534"/><polygon fill="#191970" stroke="#191970" points="20.321 -673.992 23.395 -684.131 27.314 -674.288 20.321 -673.992"/></g><g id="node35" class="node"><title>Node34</title><g id="a_node35"><a target="_top" xlink:href="classarm__compute_1_1graph_1_1_split_layer_node.xhtml" xlink:title="Split Layer node."><polygon fill="#fff" stroke="#000" points="146 -114.5 146 -133.5 235 -133.5 235 -114.5 146 -114.5"/><text x="190.5" y="-121.5" font-family="Helvetica,sans-Serif" font-size="10" text-anchor="middle">SplitLayerNode</text></a></g></g><g id="edge34" class="edge"><title>Node0-&gt;Node34</title><path fill="none" stroke="#191970" d="M23.655,-674.201C26.9444,-580.292 42.9883,-182.647 80,-143 96.4581,-125.37 122.951,-120.427 145.755,-119.984"/><polygon fill="#191970" stroke="#191970" points="20.153 -674.205 23.309 -684.319 27.149 -674.444 20.153 -674.205"/></g><g id="node36" class="node"><title>Node35</title><g id="a_node36"><a target="_top" xlink:href="classarm__compute_1_1graph_1_1_stack_layer_node.xhtml" xlink:title="Stack Layer node."><polygon fill="#fff" stroke="#000" points="143 -76.5 143 -95.5 238 -95.5 238 -76.5 143 -76.5"/><text x="190.5" y="-83.5" font-family="Helvetica,sans-Serif" font-size="10" text-anchor="middle">StackLayerNode</text></a></g></g><g id="edge35" class="edge"><title>Node0-&gt;Node35</title><path fill="none" stroke="#191970" d="M23.5193,-674.078C26.2594,-576.022 40.4379,-147.661 80,-105 95.7438,-88.0232 120.788,-82.7873 142.954,-82.0155"/><polygon fill="#191970" stroke="#191970" points="20.019 -674.036 23.247 -684.127 27.017 -674.226 20.019 -674.036"/></g><g id="node37" class="node"><title>Node36</title><g id="a_node37"><a target="_top" xlink:href="classarm__compute_1_1graph_1_1_upsample_layer_node.xhtml" xlink:title="Upsample Layer node."><polygon fill="#fff" stroke="#000" points="132 -38.5 132 -57.5 249 -57.5 249 -38.5 132 -38.5"/><text x="190.5" y="-45.5" font-family="Helvetica,sans-Serif" font-size="10" text-anchor="middle">UpsampleLayerNode</text></a></g></g><g id="edge36" class="edge"><title>Node0-&gt;Node36</title><path fill="none" stroke="#191970" d="M23.3888,-674.416C25.5784,-573.246 37.8197,-112.75 80,-67 93.144,-52.7437 112.844,-46.7525 131.926,-44.7343"/><polygon fill="#191970" stroke="#191970" points="19.889 -674.397 23.179 -684.467 26.887 -674.543 19.889 -674.397"/></g><g id="node38" class="node"><title>Node37</title><g id="a_node38"><a target="_top" xlink:href="classarm__compute_1_1graph_1_1_y_o_l_o_layer_node.xhtml" xlink:title="YOLO Layer node."><polygon fill="#fff" stroke="#000" points="144 -.5 144 -19.5 237 -19.5 237 -.5 144 -.5"/><text x="190.5" y="-7.5" font-family="Helvetica,sans-Serif" font-size="10" text-anchor="middle">YOLOLayerNode</text></a></g></g><g id="edge37" class="edge"><title>Node0-&gt;Node37</title><path fill="none" stroke="#191970" d="M23.2844,-674.229C24.9813,-569.01 35.2692,-77.7678 80,-29 95.9113,-11.6527 121.526,-6.52445 143.982,-5.9087"/><polygon fill="#191970" stroke="#191970" points="19.782 -674.338 23.128 -684.391 26.782 -674.445 19.782 -674.338"/></g></g></svg>