<svg xmlns="http://www.w3.org/2000/svg" xmlns:xlink="http://www.w3.org/1999/xlink" width="218pt" height="142pt" viewBox="0 0 218 142"><g id="graph0" class="graph" transform="scale(1 1) rotate(0) translate(4 138)"><title>Graphical Class Hierarchy</title><polygon fill="#fff" stroke="none" points="-4 4 -4 -138 214 -138 214 4 -4 4"/><g id="node1" class="node"><title>Node0</title><g id="a_node1"><a target="_top" xlink:href="classarm__compute_1_1logging_1_1_i_decorator.xhtml" xlink:title="Log message decorator interface."><polygon fill="#fff" stroke="#000" points="0 -57.5 0 -76.5 67 -76.5 67 -57.5 0 -57.5"/><text x="33.5" y="-64.5" font-family="Helvetica,sans-Serif" font-size="10" text-anchor="middle">IDecorator</text></a></g></g><g id="node2" class="node"><title>Node1</title><g id="a_node2"><a target="_top" xlink:href="classarm__compute_1_1logging_1_1_date_decorator.xhtml" xlink:title="Date Decorator."><polygon fill="#fff" stroke="#000" points="112.5 -114.5 112.5 -133.5 200.5 -133.5 200.5 -114.5 112.5 -114.5"/><text x="156.5" y="-121.5" font-family="Helvetica,sans-Serif" font-size="10" text-anchor="middle">DateDecorator</text></a></g></g><g id="edge1" class="edge"><title>Node0-&gt;Node1</title><path fill="none" stroke="#191970" d="M58.8986,-81.7795C71.7632,-89.2508 87.9581,-98.1585 103,-105 110.5,-108.411 118.807,-111.652 126.559,-114.459"/><polygon fill="#191970" stroke="#191970" points="60.576 -78.706 50.184 -76.643 57.022 -84.736 60.576 -78.706"/></g><g id="node3" class="node"><title>Node2</title><g id="a_node3"><a target="_top" xlink:href="classarm__compute_1_1logging_1_1_log_level_decorator.xhtml" xlink:title="Log Level Decorator."><polygon fill="#fff" stroke="#000" points="103 -76.5 103 -95.5 210 -95.5 210 -76.5 103 -76.5"/><text x="156.5" y="-83.5" font-family="Helvetica,sans-Serif" font-size="10" text-anchor="middle">LogLevelDecorator</text></a></g></g><g id="edge2" class="edge"><title>Node0-&gt;Node2</title><path fill="none" stroke="#191970" d="M77.3246,-73.7245C85.5234,-75.0119 94.197,-76.3739 102.667,-77.7039"/><polygon fill="#191970" stroke="#191970" points="77.666 -70.235 67.244 -72.142 76.58 -77.151 77.666 -70.235"/></g><g id="node4" class="node"><title>Node3</title><g id="a_node4"><a target="_top" xlink:href="classarm__compute_1_1logging_1_1_string_decorator.xhtml" xlink:title="String Decorator."><polygon fill="#fff" stroke="#000" points="110 -38.5 110 -57.5 203 -57.5 203 -38.5 110 -38.5"/><text x="156.5" y="-45.5" font-family="Helvetica,sans-Serif" font-size="10" text-anchor="middle">StringDecorator</text></a></g></g><g id="edge3" class="edge"><title>Node0-&gt;Node3</title><path fill="none" stroke="#191970" d="M77.3666,-60.2689C87.7959,-58.6312 98.9913,-56.8733 109.557,-55.2142"/><polygon fill="#191970" stroke="#191970" points="76.58 -56.849 67.244 -61.858 77.666 -63.765 76.58 -56.849"/></g><g id="node5" class="node"><title>Node4</title><g id="a_node5"><a target="_top" xlink:href="classarm__compute_1_1logging_1_1_thread_id_decorator.xhtml" xlink:title="Thread ID Decorator."><polygon fill="#fff" stroke="#000" points="103.5 -.5 103.5 -19.5 209.5 -19.5 209.5 -.5 103.5 -.5"/><text x="156.5" y="-7.5" font-family="Helvetica,sans-Serif" font-size="10" text-anchor="middle">ThreadIdDecorator</text></a></g></g><g id="edge4" class="edge"><title>Node0-&gt;Node4</title><path fill="none" stroke="#191970" d="M58.8986,-52.2205C71.7632,-44.7492 87.9581,-35.8415 103,-29 110.5,-25.5889 118.807,-22.3483 126.559,-19.5411"/><polygon fill="#191970" stroke="#191970" points="57.022 -49.264 50.184 -57.357 60.576 -55.294 57.022 -49.264"/></g></g></svg>