<svg xmlns="http://www.w3.org/2000/svg" xmlns:xlink="http://www.w3.org/1999/xlink" width="272" height="88" viewBox="0 0 204 66"><g id="graph0" class="graph" transform="scale(1 1) rotate(0) translate(4 62)"><title>Graphical Class Hierarchy</title><polygon fill="#fff" stroke="none" points="-4 4 -4 -62 200 -62 200 4 -4 4"/><g id="node1" class="node"><title>Node0</title><g id="a_node1"><a target="_top" xlink:href="classarm__compute_1_1_i_lut.xhtml" xlink:title="Lookup Table object interface."><polygon fill="#fff" stroke="#000" points="0 -19.5 0 -38.5 34 -38.5 34 -19.5 0 -19.5"/><text x="17" y="-26.5" font-family="Helvetica,sans-Serif" font-size="10" text-anchor="middle">ILut</text></a></g></g><g id="node2" class="node"><title>Node1</title><g id="a_node2"><a target="_top" xlink:href="classarm__compute_1_1_i_c_l_lut.xhtml" xlink:title="Interface for OpenCL LUT."><polygon fill="#fff" stroke="#000" points="70 -38.5 70 -57.5 116 -57.5 116 -38.5 70 -38.5"/><text x="93" y="-45.5" font-family="Helvetica,sans-Serif" font-size="10" text-anchor="middle">ICLLut</text></a></g></g><g id="edge1" class="edge"><title>Node0-&gt;Node1</title><path fill="none" stroke="#191970" d="M43.8236,-35.6304C52.2922,-37.8048 61.6229,-40.2005 69.7991,-42.2998"/><polygon fill="#191970" stroke="#191970" points="44.613 -32.22 34.057 -33.123 42.872 -39 44.613 -32.22"/></g><g id="node4" class="node"><title>Node3</title><g id="a_node4"><a target="_top" xlink:href="classarm__compute_1_1_lut.xhtml" xlink:title="Basic implementation of the LUT interface."><polygon fill="#fff" stroke="#000" points="77 -.5 77 -19.5 109 -19.5 109 -.5 77 -.5"/><text x="93" y="-7.5" font-family="Helvetica,sans-Serif" font-size="10" text-anchor="middle">Lut</text></a></g></g><g id="edge3" class="edge"><title>Node0-&gt;Node3</title><path fill="none" stroke="#191970" d="M44.0485,-22.3119C55.0766,-19.4803 67.5313,-16.2825 76.9832,-13.8557"/><polygon fill="#191970" stroke="#191970" points="42.872 -19 34.057 -24.877 44.613 -25.78 42.872 -19"/></g><g id="node3" class="node"><title>Node2</title><g id="a_node3"><a target="_top" xlink:href="classarm__compute_1_1_c_l_lut.xhtml" xlink:title="Basic implementation of the OpenCL lut interface."><polygon fill="#fff" stroke="#000" points="152 -38.5 152 -57.5 196 -57.5 196 -38.5 152 -38.5"/><text x="174" y="-45.5" font-family="Helvetica,sans-Serif" font-size="10" text-anchor="middle">CLLut</text></a></g></g><g id="edge2" class="edge"><title>Node1-&gt;Node2</title><path fill="none" stroke="#191970" d="M126.221,-48C134.888,-48 144.04,-48 151.928,-48"/><polygon fill="#191970" stroke="#191970" points="126.006 -44.5 116.006 -48 126.006 -51.5 126.006 -44.5"/></g></g></svg>