<svg xmlns="http://www.w3.org/2000/svg" xmlns:xlink="http://www.w3.org/1999/xlink" width="413pt" height="173pt" viewBox="0 0 413 172.5"><g id="graph0" class="graph" transform="scale(1 1) rotate(0) translate(4 168.5)"><title>Graphical Class Hierarchy</title><polygon fill="#fff" stroke="none" points="-4 4 -4 -168.5 409 -168.5 409 4 -4 4"/><g id="node1" class="node"><title>Node0</title><g id="a_node1"><a target="_top" xlink:href="classarm__compute_1_1test_1_1framework_1_1dataset_1_1_dataset.xhtml" xlink:title="Abstract dataset base class."><polygon fill="#fff" stroke="#000" points="0 -76.5 0 -95.5 55 -95.5 55 -76.5 0 -76.5"/><text x="27.5" y="-83.5" font-family="Helvetica,sans-Serif" font-size="10" text-anchor="middle">Dataset</text></a></g></g><g id="node2" class="node"><title>Node1</title><g id="a_node2"><a target="_top" xlink:href="classarm__compute_1_1test_1_1framework_1_1dataset_1_1_cartesian_product_dataset.xhtml" xlink:title="Implementation of a dataset representing all combinations of values of the input datasets."><polygon fill="#fff" stroke="#000" points="91 -134 91 -164 228 -164 228 -134 91 -134"/><text x="99" y="-152" font-family="Helvetica,sans-Serif" font-size="10" text-anchor="start">CartesianProductDataset</text><text x="159.5" y="-141" font-family="Helvetica,sans-Serif" font-size="10" text-anchor="middle">&lt; T, U &gt;</text></a></g></g><g id="edge1" class="edge"><title>Node0-&gt;Node1</title><path fill="none" stroke="#191970" d="M51.079,-101.173C62.7066,-108.61 77.2888,-117.368 91,-124 98.3124,-127.537 106.263,-130.889 114.057,-133.923"/><polygon fill="#191970" stroke="#191970" points="52.75 -98.084 42.461 -95.558 48.929 -103.949 52.75 -98.084"/></g><g id="node3" class="node"><title>Node2</title><g id="a_node3"><a target="_top" xlink:href="classarm__compute_1_1test_1_1framework_1_1dataset_1_1_join_dataset.xhtml" xlink:title="Implementation of a dataset representing the concatenation of the input datasets."><polygon fill="#fff" stroke="#000" points="103 -95.5 103 -114.5 216 -114.5 216 -95.5 103 -95.5"/><text x="159.5" y="-102.5" font-family="Helvetica,sans-Serif" font-size="10" text-anchor="middle">JoinDataset&lt; T, U &gt;</text></a></g></g><g id="edge2" class="edge"><title>Node0-&gt;Node2</title><path fill="none" stroke="#191970" d="M65.3729,-91.3891C77.0581,-93.097 90.2459,-95.0244 102.943,-96.8801"/><polygon fill="#191970" stroke="#191970" points="65.522 -87.874 55.121 -89.891 64.51 -94.8 65.522 -87.874"/></g><g id="node4" class="node"><title>Node3</title><g id="a_node4"><a target="_top" xlink:href="classarm__compute_1_1test_1_1framework_1_1dataset_1_1_named_dataset.xhtml" xlink:title="Abstract implementation of a named dataset."><polygon fill="#fff" stroke="#000" points="114.5 -57.5 114.5 -76.5 204.5 -76.5 204.5 -57.5 114.5 -57.5"/><text x="159.5" y="-64.5" font-family="Helvetica,sans-Serif" font-size="10" text-anchor="middle">NamedDataset</text></a></g></g><g id="edge3" class="edge"><title>Node0-&gt;Node3</title><path fill="none" stroke="#191970" d="M65.2114,-80.6345C80.4607,-78.4057 98.2908,-75.7998 114.255,-73.4666"/><polygon fill="#191970" stroke="#191970" points="64.51 -77.2 55.121 -82.109 65.522 -84.126 64.51 -77.2"/></g><g id="node9" class="node"><title>Node8</title><g id="a_node9"><a target="_top" xlink:href="classarm__compute_1_1test_1_1framework_1_1dataset_1_1_zip_dataset.xhtml" xlink:title="Implementation of a dataset representing pairs of values of the input datasets."><polygon fill="#fff" stroke="#000" points="103.5 -19.5 103.5 -38.5 215.5 -38.5 215.5 -19.5 103.5 -19.5"/><text x="159.5" y="-26.5" font-family="Helvetica,sans-Serif" font-size="10" text-anchor="middle">ZipDataset&lt; T, U &gt;</text></a></g></g><g id="edge8" class="edge"><title>Node0-&gt;Node8</title><path fill="none" stroke="#191970" d="M50.4075,-70.6538C62.051,-63.0294 76.8499,-54.1557 91,-48 99.3727,-44.3577 108.633,-41.2187 117.542,-38.6009"/><polygon fill="#191970" stroke="#191970" points="48.167 -67.942 41.819 -76.425 52.071 -73.753 48.167 -67.942"/></g><g id="node5" class="node"><title>Node4</title><g id="a_node5"><a target="_top" xlink:href="classarm__compute_1_1test_1_1framework_1_1dataset_1_1_container_dataset.xhtml" xlink:title="Implementation of a dataset created from a container."><polygon fill="#fff" stroke="#000" points="270 -114.5 270 -133.5 399 -133.5 399 -114.5 270 -114.5"/><text x="334.5" y="-121.5" font-family="Helvetica,sans-Serif" font-size="10" text-anchor="middle">ContainerDataset&lt; T &gt;</text></a></g></g><g id="edge4" class="edge"><title>Node3-&gt;Node4</title><path fill="none" stroke="#191970" d="M209.633,-79.5112C215.883,-81.4868 222.139,-83.6589 228,-86 244.801,-92.7106 247.174,-98.3526 264,-105 273.074,-108.585 283.071,-111.749 292.586,-114.416"/><polygon fill="#191970" stroke="#191970" points="210.459 -76.105 199.874 -76.573 208.44 -82.807 210.459 -76.105"/></g><g id="node6" class="node"><title>Node5</title><g id="a_node6"><a target="_top" xlink:href="classarm__compute_1_1test_1_1framework_1_1dataset_1_1_initializer_list_dataset.xhtml" xlink:title="Implementation of a dataset created from an initializer list."><polygon fill="#fff" stroke="#000" points="264 -76.5 264 -95.5 405 -95.5 405 -76.5 264 -76.5"/><text x="334.5" y="-83.5" font-family="Helvetica,sans-Serif" font-size="10" text-anchor="middle">InitializerListDataset&lt; T &gt;</text></a></g></g><g id="edge5" class="edge"><title>Node3-&gt;Node5</title><path fill="none" stroke="#191970" d="M214.606,-72.9423C230.229,-74.6582 247.501,-76.555 263.925,-78.3588"/><polygon fill="#191970" stroke="#191970" points="214.925 -69.456 204.603 -71.844 214.161 -76.415 214.925 -69.456"/></g><g id="node7" class="node"><title>Node6</title><g id="a_node7"><a target="_top" xlink:href="classarm__compute_1_1test_1_1framework_1_1dataset_1_1_range_dataset.xhtml" xlink:title="Implementation of a dataset created from a range of values."><polygon fill="#fff" stroke="#000" points="278 -38.5 278 -57.5 391 -57.5 391 -38.5 278 -38.5"/><text x="334.5" y="-45.5" font-family="Helvetica,sans-Serif" font-size="10" text-anchor="middle">RangeDataset&lt; T &gt;</text></a></g></g><g id="edge6" class="edge"><title>Node3-&gt;Node6</title><path fill="none" stroke="#191970" d="M214.57,-61.0617C234.752,-58.8452 257.688,-56.3262 277.997,-54.0957"/><polygon fill="#191970" stroke="#191970" points="214.161 -57.586 204.603 -62.156 214.925 -64.544 214.161 -57.586"/></g><g id="node8" class="node"><title>Node7</title><g id="a_node8"><a target="_top" xlink:href="classarm__compute_1_1test_1_1framework_1_1dataset_1_1_singleton_dataset.xhtml" xlink:title="Implementation of a dataset holding a single value."><polygon fill="#fff" stroke="#000" points="270.5 -.5 270.5 -19.5 398.5 -19.5 398.5 -.5 270.5 -.5"/><text x="334.5" y="-7.5" font-family="Helvetica,sans-Serif" font-size="10" text-anchor="middle">SingletonDataset&lt; T &gt;</text></a></g></g><g id="edge7" class="edge"><title>Node3-&gt;Node7</title><path fill="none" stroke="#191970" d="M209.633,-54.4888C215.883,-52.5132 222.139,-50.3411 228,-48 244.801,-41.2894 247.174,-35.6474 264,-29 273.074,-25.4151 283.071,-22.2509 292.586,-19.5838"/><polygon fill="#191970" stroke="#191970" points="208.44 -51.193 199.874 -57.428 210.459 -57.895 208.44 -51.193"/></g></g></svg>