<svg xmlns="http://www.w3.org/2000/svg" xmlns:xlink="http://www.w3.org/1999/xlink" width="170pt" height="88" viewBox="0 0 170 66"><g id="graph0" class="graph" transform="scale(1 1) rotate(0) translate(4 62)"><title>Graphical Class Hierarchy</title><polygon fill="#fff" stroke="none" points="-4 4 -4 -62 166 -62 166 4 -4 4"/><g id="node1" class="node"><title>Node0</title><g id="a_node1"><a target="_top" xlink:href="classarm__compute_1_1_i_pyramid.xhtml" xlink:title="Interface for pyramid data-object."><polygon fill="#fff" stroke="#000" points="0 -19.5 0 -38.5 58 -38.5 58 -19.5 0 -19.5"/><text x="29" y="-26.5" font-family="Helvetica,sans-Serif" font-size="10" text-anchor="middle">IPyramid</text></a></g></g><g id="node2" class="node"><title>Node1</title><g id="a_node2"><a target="_top" xlink:href="classarm__compute_1_1_c_l_pyramid.xhtml" xlink:title="Basic implementation of the OpenCL pyramid interface."><polygon fill="#fff" stroke="#000" points="94 -38.5 94 -57.5 162 -57.5 162 -38.5 94 -38.5"/><text x="128" y="-45.5" font-family="Helvetica,sans-Serif" font-size="10" text-anchor="middle">CLPyramid</text></a></g></g><g id="edge1" class="edge"><title>Node0-&gt;Node1</title><path fill="none" stroke="#191970" d="M68.1315,-36.4691C76.6338,-38.1345 85.5822,-39.8872 93.864,-41.5094"/><polygon fill="#191970" stroke="#191970" points="68.543 -32.983 58.056 -34.496 67.197 -39.853 68.543 -32.983"/></g><g id="node3" class="node"><title>Node2</title><g id="a_node3"><a target="_top" xlink:href="classarm__compute_1_1_pyramid.xhtml" xlink:title="Basic implementation of the pyramid interface."><polygon fill="#fff" stroke="#000" points="100 -.5 100 -19.5 156 -19.5 156 -.5 100 -.5"/><text x="128" y="-7.5" font-family="Helvetica,sans-Serif" font-size="10" text-anchor="middle">Pyramid</text></a></g></g><g id="edge2" class="edge"><title>Node0-&gt;Node2</title><path fill="none" stroke="#191970" d="M67.9269,-21.571C78.5216,-19.4958 89.8238,-17.2819 99.6755,-15.3522"/><polygon fill="#191970" stroke="#191970" points="67.197 -18.147 58.056 -23.504 68.543 -25.017 67.197 -18.147"/></g></g></svg>