<svg xmlns="http://www.w3.org/2000/svg" xmlns:xlink="http://www.w3.org/1999/xlink" width="448pt" height="104pt" viewBox="0 0 448 104"><g id="graph0" class="graph" transform="scale(1 1) rotate(0) translate(4 100)"><title>Graphical Class Hierarchy</title><polygon fill="#fff" stroke="none" points="-4 4 -4 -100 444 -100 444 4 -4 4"/><g id="node1" class="node"><title>Node0</title><g id="a_node1"><a target="_top" xlink:href="classarm__compute_1_1_i_access_window.xhtml" xlink:title="Interface describing methods to update access window and padding based on kernel parameters."><polygon fill="#fff" stroke="#000" points="0 -38.5 0 -57.5 88 -57.5 88 -38.5 0 -38.5"/><text x="44" y="-45.5" font-family="Helvetica,sans-Serif" font-size="10" text-anchor="middle">IAccessWindow</text></a></g></g><g id="node2" class="node"><title>Node1</title><g id="a_node2"><a target="_top" xlink:href="classarm__compute_1_1_access_window_auto_padding.xhtml" xlink:title="Dummy access window."><polygon fill="#fff" stroke="#000" points="124 -76.5 124 -95.5 270 -95.5 270 -76.5 124 -76.5"/><text x="197" y="-83.5" font-family="Helvetica,sans-Serif" font-size="10" text-anchor="middle">AccessWindowAutoPadding</text></a></g></g><g id="edge1" class="edge"><title>Node0-&gt;Node1</title><path fill="none" stroke="#191970" d="M92.8431,-60.04C113.939,-65.3488 138.377,-71.4988 158.17,-76.4799"/><polygon fill="#191970" stroke="#191970" points="93.656 -56.635 83.104 -57.589 91.947 -63.424 93.656 -56.635"/></g><g id="node3" class="node"><title>Node2</title><g id="a_node3"><a target="_top" xlink:href="classarm__compute_1_1_access_window_rectangle.xhtml" xlink:title="Implementation of a rectangular access pattern."><polygon fill="#fff" stroke="#000" points="131 -38.5 131 -57.5 263 -57.5 263 -38.5 131 -38.5"/><text x="197" y="-45.5" font-family="Helvetica,sans-Serif" font-size="10" text-anchor="middle">AccessWindowRectangle</text></a></g></g><g id="edge2" class="edge"><title>Node0-&gt;Node2</title><path fill="none" stroke="#191970" d="M98.4777,-48C108.924,-48 119.986,-48 130.764,-48"/><polygon fill="#191970" stroke="#191970" points="98.271 -44.5 88.27 -48 98.27 -51.5 98.271 -44.5"/></g><g id="node7" class="node"><title>Node6</title><g id="a_node7"><a target="_top" xlink:href="classarm__compute_1_1_access_window_static.xhtml" xlink:title="Implementation of a static rectangular access pattern."><polygon fill="#fff" stroke="#000" points="140.5 -.5 140.5 -19.5 253.5 -19.5 253.5 -.5 140.5 -.5"/><text x="197" y="-7.5" font-family="Helvetica,sans-Serif" font-size="10" text-anchor="middle">AccessWindowStatic</text></a></g></g><g id="edge6" class="edge"><title>Node0-&gt;Node6</title><path fill="none" stroke="#191970" d="M92.8431,-35.96C113.939,-30.6512 138.377,-24.5012 158.17,-19.5201"/><polygon fill="#191970" stroke="#191970" points="91.947 -32.576 83.104 -38.411 93.656 -39.365 91.947 -32.576"/></g><g id="node4" class="node"><title>Node3</title><g id="a_node4"><a target="_top" xlink:href="classarm__compute_1_1_access_window_horizontal.xhtml" xlink:title="Implementation of a row access pattern."><polygon fill="#fff" stroke="#000" points="306 -76.5 306 -95.5 440 -95.5 440 -76.5 306 -76.5"/><text x="373" y="-83.5" font-family="Helvetica,sans-Serif" font-size="10" text-anchor="middle">AccessWindowHorizontal</text></a></g></g><g id="edge3" class="edge"><title>Node2-&gt;Node3</title><path fill="none" stroke="#191970" d="M251.814,-59.7526C276.418,-65.1258 305.187,-71.4086 328.408,-76.4799"/><polygon fill="#191970" stroke="#191970" points="252.424 -56.303 241.908 -57.589 250.93 -63.142 252.424 -56.303"/></g><g id="node5" class="node"><title>Node4</title><g id="a_node5"><a target="_top" xlink:href="classarm__compute_1_1_access_window_transpose.xhtml" xlink:title="Implementation of a XY-transpose access pattern."><polygon fill="#fff" stroke="#000" points="306 -38.5 306 -57.5 440 -57.5 440 -38.5 306 -38.5"/><text x="373" y="-45.5" font-family="Helvetica,sans-Serif" font-size="10" text-anchor="middle">AccessWindowTranspose</text></a></g></g><g id="edge4" class="edge"><title>Node2-&gt;Node4</title><path fill="none" stroke="#191970" d="M273.492,-48C284.236,-48 295.219,-48 305.768,-48"/><polygon fill="#191970" stroke="#191970" points="273.286 -44.5 263.286 -48 273.286 -51.5 273.286 -44.5"/></g><g id="node6" class="node"><title>Node5</title><g id="a_node6"><a target="_top" xlink:href="classarm__compute_1_1_access_window_vertical.xhtml" xlink:title="Implementation of a column access pattern."><polygon fill="#fff" stroke="#000" points="312.5 -.5 312.5 -19.5 433.5 -19.5 433.5 -.5 312.5 -.5"/><text x="373" y="-7.5" font-family="Helvetica,sans-Serif" font-size="10" text-anchor="middle">AccessWindowVertical</text></a></g></g><g id="edge5" class="edge"><title>Node2-&gt;Node5</title><path fill="none" stroke="#191970" d="M251.814,-36.2474C276.418,-30.8742 305.187,-24.5914 328.408,-19.5201"/><polygon fill="#191970" stroke="#191970" points="250.93 -32.858 241.908 -38.411 252.424 -39.697 250.93 -32.858"/></g></g></svg>