<svg xmlns="http://www.w3.org/2000/svg" xmlns:xlink="http://www.w3.org/1999/xlink" width="220pt" height="248" viewBox="0 0 220 186"><g id="graph0" class="graph" transform="scale(1 1) rotate(0) translate(4 182)"><title>Graphical Class Hierarchy</title><polygon fill="#fff" stroke="none" points="-4 4 -4 -182 216 -182 216 4 -4 4"/><g id="node1" class="node"><title>Node13</title><g id="a_node1"><a><polygon fill="#fff" stroke="#bfbfbf" points="0 -79 0 -98 62 -98 62 -79 0 -79"/><text x="31" y="-86" font-family="Helvetica,sans-Serif" font-size="10" text-anchor="middle">true_type</text></a></g></g><g id="node2" class="node"><title>Node0</title><g id="a_node2"><a target="_top" xlink:href="structarm__compute_1_1test_1_1framework_1_1dataset_1_1is__container_3_01std_1_1vector_3_01_v_00_01_a_01_4_01_4.xhtml" xlink:title="Vector is considered a container."><polygon fill="#fff" stroke="#000" points="101.5 -147.5 101.5 -177.5 208.5 -177.5 208.5 -147.5 101.5 -147.5"/><text x="109.5" y="-165.5" font-family="Helvetica,sans-Serif" font-size="10" text-anchor="start">is_container&lt; std::</text><text x="155" y="-154.5" font-family="Helvetica,sans-Serif" font-size="10" text-anchor="middle">vector&lt; V, A &gt; &gt;</text></a></g></g><g id="edge1" class="edge"><title>Node13-&gt;Node0</title><path fill="none" stroke="#191970" d="M51.0868,-104.943C63.8186,-115.4 81.2383,-128.755 98,-138.5 103.487,-141.69 109.478,-144.703 115.435,-147.446"/><polygon fill="#191970" stroke="#191970" points="53.002 -101.982 43.087 -98.247 48.509 -107.35 53.002 -101.982"/></g><g id="node3" class="node"><title>Node15</title><g id="a_node3"><a target="_top" xlink:href="structarm__compute_1_1test_1_1validation_1_1is__floating__point_3_01half_01_4.xhtml"><polygon fill="#fff" stroke="#000" points="104 -98.5 104 -128.5 206 -128.5 206 -98.5 104 -98.5"/><text x="112" y="-116.5" font-family="Helvetica,sans-Serif" font-size="10" text-anchor="start">is_floating_point&lt;</text><text x="155" y="-105.5" font-family="Helvetica,sans-Serif" font-size="10" text-anchor="middle">half &gt;</text></a></g></g><g id="edge2" class="edge"><title>Node13-&gt;Node15</title><path fill="none" stroke="#191970" d="M71.9718,-96.6909C82.1313,-98.7728 93.1774,-101.036 103.775,-103.208"/><polygon fill="#191970" stroke="#191970" points="72.656 -93.259 62.157 -94.68 71.251 -100.116 72.656 -93.259"/></g><g id="node4" class="node"><title>Node16</title><g id="a_node4"><a target="_top" xlink:href="structarm__compute_1_1traits_1_1is__contained_3_01_t_00_01std_1_1tuple_3_01_t_00_01_ts_8_8_8_01_4_01_4.xhtml"><polygon fill="#fff" stroke="#000" points="98 -49.5 98 -79.5 212 -79.5 212 -49.5 98 -49.5"/><text x="106" y="-67.5" font-family="Helvetica,sans-Serif" font-size="10" text-anchor="start">is_contained&lt; T, std</text><text x="155" y="-56.5" font-family="Helvetica,sans-Serif" font-size="10" text-anchor="middle">::tuple&lt; T, Ts... &gt; &gt;</text></a></g></g><g id="edge3" class="edge"><title>Node13-&gt;Node16</title><path fill="none" stroke="#191970" d="M72.1145,-80.6086C80.2544,-79.0073 88.9586,-77.295 97.5422,-75.6064"/><polygon fill="#191970" stroke="#191970" points="71.294 -77.203 62.157 -82.567 72.645 -84.071 71.294 -77.203"/></g><g id="node5" class="node"><title>Node17</title><g id="a_node5"><a target="_top" xlink:href="structarm__compute_1_1utils_1_1traits_1_1is__floating__point_3_01half_01_4.xhtml"><polygon fill="#fff" stroke="#000" points="104 -.5 104 -30.5 206 -30.5 206 -.5 104 -.5"/><text x="112" y="-18.5" font-family="Helvetica,sans-Serif" font-size="10" text-anchor="start">is_floating_point&lt;</text><text x="155" y="-7.5" font-family="Helvetica,sans-Serif" font-size="10" text-anchor="middle">half &gt;</text></a></g></g><g id="edge4" class="edge"><title>Node13-&gt;Node17</title><path fill="none" stroke="#191970" d="M51.6986,-72.4949C64.4462,-62.5685 81.6572,-49.9516 98,-40.5 104.083,-36.982 110.752,-33.6163 117.3,-30.5581"/><polygon fill="#191970" stroke="#191970" points="49.32 -69.914 43.652 -78.865 53.665 -75.402 49.32 -69.914"/></g></g></svg>