<svg xmlns="http://www.w3.org/2000/svg" xmlns:xlink="http://www.w3.org/1999/xlink" width="320" height="104pt" viewBox="0 0 240 104"><g id="graph0" class="graph" transform="scale(1 1) rotate(0) translate(4 100)"><title>Graphical Class Hierarchy</title><polygon fill="#fff" stroke="none" points="-4 4 -4 -100 236 -100 236 4 -4 4"/><g id="node1" class="node"><title>Node0</title><g id="a_node1"><a target="_top" xlink:href="classarm__compute_1_1_i_tensor_allocator.xhtml" xlink:title="Interface to allocate tensors."><polygon fill="#fff" stroke="#000" points="0 -38.5 0 -57.5 92 -57.5 92 -38.5 0 -38.5"/><text x="46" y="-45.5" font-family="Helvetica,sans-Serif" font-size="10" text-anchor="middle">ITensorAllocator</text></a></g></g><g id="node2" class="node"><title>Node1</title><g id="a_node2"><a target="_top" xlink:href="classarm__compute_1_1_c_l_tensor_allocator.xhtml" xlink:title="Basic implementation of a CL memory tensor allocator."><polygon fill="#fff" stroke="#000" points="130 -76.5 130 -95.5 230 -95.5 230 -76.5 130 -76.5"/><text x="180" y="-83.5" font-family="Helvetica,sans-Serif" font-size="10" text-anchor="middle">CLTensorAllocator</text></a></g></g><g id="edge1" class="edge"><title>Node0-&gt;Node1</title><path fill="none" stroke="#191970" d="M90.0409,-60.3906C108.118,-65.5945 128.819,-71.5541 145.701,-76.4141"/><polygon fill="#191970" stroke="#191970" points="90.887 -56.992 80.309 -57.589 88.951 -63.719 90.887 -56.992"/></g><g id="node3" class="node"><title>Node2</title><g id="a_node3"><a target="_top" xlink:href="classarm__compute_1_1_g_c_tensor_allocator.xhtml" xlink:title="Basic implementation of a GLES memory tensor allocator."><polygon fill="#fff" stroke="#000" points="128 -38.5 128 -57.5 232 -57.5 232 -38.5 128 -38.5"/><text x="180" y="-45.5" font-family="Helvetica,sans-Serif" font-size="10" text-anchor="middle">GCTensorAllocator</text></a></g></g><g id="edge2" class="edge"><title>Node0-&gt;Node2</title><path fill="none" stroke="#191970" d="M102.23,-48C110.701,-48 119.414,-48 127.793,-48"/><polygon fill="#191970" stroke="#191970" points="102.058 -44.5 92.058 -48 102.058 -51.5 102.058 -44.5"/></g><g id="node4" class="node"><title>Node3</title><g id="a_node4"><a target="_top" xlink:href="classarm__compute_1_1_tensor_allocator.xhtml" xlink:title="Basic implementation of a CPU memory tensor allocator."><polygon fill="#fff" stroke="#000" points="135.5 -.5 135.5 -19.5 224.5 -19.5 224.5 -.5 135.5 -.5"/><text x="180" y="-7.5" font-family="Helvetica,sans-Serif" font-size="10" text-anchor="middle">TensorAllocator</text></a></g></g><g id="edge3" class="edge"><title>Node0-&gt;Node3</title><path fill="none" stroke="#191970" d="M90.0409,-35.6094C108.118,-30.4055 128.819,-24.4459 145.701,-19.5859"/><polygon fill="#191970" stroke="#191970" points="88.951 -32.281 80.309 -38.411 90.887 -39.008 88.951 -32.281"/></g></g></svg>