<svg xmlns="http://www.w3.org/2000/svg" xmlns:xlink="http://www.w3.org/1999/xlink" width="792" height="142pt" viewBox="0 0 594 142"><g id="graph0" class="graph" transform="scale(1 1) rotate(0) translate(4 138)"><title>Graphical Class Hierarchy</title><polygon fill="#fff" stroke="none" points="-4 4 -4 -138 590 -138 590 4 -4 4"/><g id="node1" class="node"><title>Node0</title><g id="a_node1"><a target="_top" xlink:href="classarm__compute_1_1_i_memory_region.xhtml" xlink:title="Memory region interface."><polygon fill="#fff" stroke="#000" points="0 -38.5 0 -57.5 89 -57.5 89 -38.5 0 -38.5"/><text x="44.5" y="-45.5" font-family="Helvetica,sans-Serif" font-size="10" text-anchor="middle">IMemoryRegion</text></a></g></g><g id="node2" class="node"><title>Node1</title><g id="a_node2"><a target="_top" xlink:href="classarm__compute_1_1_i_c_l_memory_region.xhtml" xlink:title="OpenCL memory region interface."><polygon fill="#fff" stroke="#000" points="126.5 -76.5 126.5 -95.5 227.5 -95.5 227.5 -76.5 126.5 -76.5"/><text x="177" y="-83.5" font-family="Helvetica,sans-Serif" font-size="10" text-anchor="middle">ICLMemoryRegion</text></a></g></g><g id="edge1" class="edge"><title>Node0-&gt;Node1</title><path fill="none" stroke="#191970" d="M88.0518,-60.3906C105.923,-65.5945 126.39,-71.5541 143.08,-76.4141"/><polygon fill="#191970" stroke="#191970" points="89.01 -57.024 78.431 -57.589 87.053 -63.745 89.01 -57.024"/></g><g id="node7" class="node"><title>Node6</title><g id="a_node7"><a target="_top" xlink:href="classarm__compute_1_1_i_g_c_memory_region.xhtml" xlink:title="GLES memory region interface."><polygon fill="#fff" stroke="#000" points="125 -38.5 125 -57.5 229 -57.5 229 -38.5 125 -38.5"/><text x="177" y="-45.5" font-family="Helvetica,sans-Serif" font-size="10" text-anchor="middle">IGCMemoryRegion</text></a></g></g><g id="edge6" class="edge"><title>Node0-&gt;Node6</title><path fill="none" stroke="#191970" d="M99.4133,-48C107.828,-48 116.501,-48 124.852,-48"/><polygon fill="#191970" stroke="#191970" points="99.318 -44.5 89.318 -48 99.318 -51.5 99.318 -44.5"/></g><g id="node9" class="node"><title>Node8</title><g id="a_node9"><a target="_top" xlink:href="classarm__compute_1_1_memory_region.xhtml" xlink:title="Memory region CPU implementation."><polygon fill="#fff" stroke="#000" points="133.5 -.5 133.5 -19.5 220.5 -19.5 220.5 -.5 133.5 -.5"/><text x="177" y="-7.5" font-family="Helvetica,sans-Serif" font-size="10" text-anchor="middle">MemoryRegion</text></a></g></g><g id="edge8" class="edge"><title>Node0-&gt;Node8</title><path fill="none" stroke="#191970" d="M88.0518,-35.6094C105.923,-30.4055 126.39,-24.4459 143.08,-19.5859"/><polygon fill="#191970" stroke="#191970" points="87.053 -32.255 78.431 -38.411 89.01 -38.976 87.053 -32.255"/></g><g id="node3" class="node"><title>Node2</title><g id="a_node3"><a target="_top" xlink:href="classarm__compute_1_1_c_l_buffer_memory_region.xhtml" xlink:title="OpenCL buffer memory region implementation."><polygon fill="#fff" stroke="#000" points="266 -114.5 266 -133.5 394 -133.5 394 -114.5 266 -114.5"/><text x="330" y="-121.5" font-family="Helvetica,sans-Serif" font-size="10" text-anchor="middle">CLBufferMemoryRegion</text></a></g></g><g id="edge2" class="edge"><title>Node1-&gt;Node2</title><path fill="none" stroke="#191970" d="M225.843,-98.04C246.939,-103.349 271.377,-109.499 291.17,-114.48"/><polygon fill="#191970" stroke="#191970" points="226.656 -94.635 216.104 -95.589 224.947 -101.424 226.656 -94.635"/></g><g id="node4" class="node"><title>Node3</title><g id="a_node4"><a target="_top" xlink:href="classarm__compute_1_1_i_c_l_s_v_m_memory_region.xhtml" xlink:title="OpenCL SVM memory region interface."><polygon fill="#fff" stroke="#000" points="268.5 -76.5 268.5 -95.5 391.5 -95.5 391.5 -76.5 268.5 -76.5"/><text x="330" y="-83.5" font-family="Helvetica,sans-Serif" font-size="10" text-anchor="middle">ICLSVMMemoryRegion</text></a></g></g><g id="edge3" class="edge"><title>Node1-&gt;Node3</title><path fill="none" stroke="#191970" d="M238.092,-86C248.069,-86 258.42,-86 268.409,-86"/><polygon fill="#191970" stroke="#191970" points="237.862 -82.5 227.862 -86 237.861 -89.5 237.862 -82.5"/></g><g id="node5" class="node"><title>Node4</title><g id="a_node5"><a target="_top" xlink:href="classarm__compute_1_1_c_l_coarse_s_v_m_memory_region.xhtml" xlink:title="OpenCL coarse-grain SVM memory region implementation."><polygon fill="#fff" stroke="#000" points="431 -95.5 431 -114.5 586 -114.5 586 -95.5 431 -95.5"/><text x="508.5" y="-102.5" font-family="Helvetica,sans-Serif" font-size="10" text-anchor="middle">CLCoarseSVMMemoryRegion</text></a></g></g><g id="edge4" class="edge"><title>Node3-&gt;Node4</title><path fill="none" stroke="#191970" d="M401.907,-93.633C411.396,-94.6545 421.163,-95.7059 430.746,-96.7376"/><polygon fill="#191970" stroke="#191970" points="402.058 -90.129 391.741 -92.539 401.309 -97.089 402.058 -90.129"/></g><g id="node6" class="node"><title>Node5</title><g id="a_node6"><a target="_top" xlink:href="classarm__compute_1_1_c_l_fine_s_v_m_memory_region.xhtml" xlink:title="OpenCL fine-grain SVM memory region implementation."><polygon fill="#fff" stroke="#000" points="438.5 -57.5 438.5 -76.5 578.5 -76.5 578.5 -57.5 438.5 -57.5"/><text x="508.5" y="-64.5" font-family="Helvetica,sans-Serif" font-size="10" text-anchor="middle">CLFineSVMMemoryRegion</text></a></g></g><g id="edge5" class="edge"><title>Node3-&gt;Node5</title><path fill="none" stroke="#191970" d="M401.772,-78.3815C413.866,-77.0796 426.416,-75.7285 438.465,-74.4316"/><polygon fill="#191970" stroke="#191970" points="401.309 -74.911 391.741 -79.461 402.058 -81.871 401.309 -74.911"/></g><g id="node8" class="node"><title>Node7</title><g id="a_node8"><a target="_top" xlink:href="classarm__compute_1_1_g_c_buffer_memory_region.xhtml" xlink:title="GLES buffer memory region implementation."><polygon fill="#fff" stroke="#000" points="265 -38.5 265 -57.5 395 -57.5 395 -38.5 265 -38.5"/><text x="330" y="-45.5" font-family="Helvetica,sans-Serif" font-size="10" text-anchor="middle">GCBufferMemoryRegion</text></a></g></g><g id="edge7" class="edge"><title>Node6-&gt;Node7</title><path fill="none" stroke="#191970" d="M239.245,-48C247.668,-48 256.337,-48 264.812,-48"/><polygon fill="#191970" stroke="#191970" points="239.122 -44.5 229.122 -48 239.122 -51.5 239.122 -44.5"/></g></g></svg>