<svg xmlns="http://www.w3.org/2000/svg" xmlns:xlink="http://www.w3.org/1999/xlink" width="260pt" height="88" viewBox="0 0 260 66"><g id="graph0" class="graph" transform="scale(1 1) rotate(0) translate(4 62)"><title>Graphical Class Hierarchy</title><polygon fill="#fff" stroke="none" points="-4 4 -4 -62 256 -62 256 4 -4 4"/><g id="node1" class="node"><title>Node196</title><g id="a_node1"><a><polygon fill="#fff" stroke="#bfbfbf" points="0 -19.5 0 -38.5 94 -38.5 94 -19.5 0 -19.5"/><text x="47" y="-26.5" font-family="Helvetica,sans-Serif" font-size="10" text-anchor="middle">is_floating_point</text></a></g></g><g id="node2" class="node"><title>Node0</title><g id="a_node2"><a target="_top" xlink:href="structarm__compute_1_1test_1_1validation_1_1is__floating__point.xhtml"><polygon fill="#fff" stroke="#000" points="130 -38.5 130 -57.5 252 -57.5 252 -38.5 130 -38.5"/><text x="191" y="-45.5" font-family="Helvetica,sans-Serif" font-size="10" text-anchor="middle">is_floating_point&lt; T &gt;</text></a></g></g><g id="edge1" class="edge"><title>Node196-&gt;Node0</title><path fill="none" stroke="#191970" d="M104.218,-36.5221C112.656,-37.6512 121.387,-38.8193 129.902,-39.9587"/><polygon fill="#191970" stroke="#191970" points="104.479 -33.026 94.103 -35.169 103.551 -39.964 104.479 -33.026"/></g><g id="node3" class="node"><title>Node198</title><g id="a_node3"><a target="_top" xlink:href="structarm__compute_1_1utils_1_1traits_1_1is__floating__point.xhtml"><polygon fill="#fff" stroke="#000" points="130 -.5 130 -19.5 252 -19.5 252 -.5 130 -.5"/><text x="191" y="-7.5" font-family="Helvetica,sans-Serif" font-size="10" text-anchor="middle">is_floating_point&lt; T &gt;</text></a></g></g><g id="edge2" class="edge"><title>Node196-&gt;Node198</title><path fill="none" stroke="#191970" d="M104.218,-21.4779C112.656,-20.3488 121.387,-19.1807 129.902,-18.0413"/><polygon fill="#191970" stroke="#191970" points="103.551 -18.036 94.103 -22.831 104.479 -24.974 103.551 -18.036"/></g></g></svg>