<svg xmlns="http://www.w3.org/2000/svg" xmlns:xlink="http://www.w3.org/1999/xlink" width="500" height="142pt" viewBox="0 0 375 142"><g id="graph0" class="graph" transform="scale(1 1) rotate(0) translate(4 138)"><title>Graphical Class Hierarchy</title><polygon fill="#fff" stroke="none" points="-4 4 -4 -138 371 -138 371 4 -4 4"/><g id="node1" class="node"><title>Node0</title><g id="a_node1"><a target="_top" xlink:href="classarm__compute_1_1_i_array.xhtml" xlink:title="Array of type T."><polygon fill="#fff" stroke="#000" points="0 -57.5 0 -76.5 72 -76.5 72 -57.5 0 -57.5"/><text x="36" y="-64.5" font-family="Helvetica,sans-Serif" font-size="10" text-anchor="middle">IArray&lt; T &gt;</text></a></g></g><g id="node2" class="node"><title>Node1</title><g id="a_node2"><a target="_top" xlink:href="classarm__compute_1_1_array.xhtml" xlink:title="Basic implementation of the IArray interface which allocates a static number of T values."><polygon fill="#fff" stroke="#000" points="129.5 -114.5 129.5 -133.5 199.5 -133.5 199.5 -114.5 129.5 -114.5"/><text x="164.5" y="-121.5" font-family="Helvetica,sans-Serif" font-size="10" text-anchor="middle">Array&lt; T &gt;</text></a></g></g><g id="edge1" class="edge"><title>Node0-&gt;Node1</title><path fill="none" stroke="#191970" d="M62.0373,-81.6808C75.4169,-89.196 92.3213,-98.1738 108,-105 115.844,-108.415 124.515,-111.635 132.627,-114.419"/><polygon fill="#191970" stroke="#191970" points="63.406 -78.432 52.986 -76.519 59.938 -84.513 63.406 -78.432"/></g><g id="node3" class="node"><title>Node2</title><g id="a_node3"><a target="_top" xlink:href="classarm__compute_1_1_i_c_l_array.xhtml" xlink:title="Interface for OpenCL Array."><polygon fill="#fff" stroke="#000" points="122.5 -76.5 122.5 -95.5 206.5 -95.5 206.5 -76.5 122.5 -76.5"/><text x="164.5" y="-83.5" font-family="Helvetica,sans-Serif" font-size="10" text-anchor="middle">ICLArray&lt; T &gt;</text></a></g></g><g id="edge2" class="edge"><title>Node0-&gt;Node2</title><path fill="none" stroke="#191970" d="M82.3735,-73.815C95.3639,-75.7661 109.45,-77.8819 122.183,-79.7943"/><polygon fill="#191970" stroke="#191970" points="82.646 -70.317 72.237 -72.293 81.606 -77.239 82.646 -70.317"/></g><g id="node5" class="node"><title>Node4</title><g id="a_node5"><a target="_top" xlink:href="classarm__compute_1_1_i_c_l_array.xhtml"><polygon fill="#fff" stroke="#000" points="108 -38.5 108 -57.5 221 -57.5 221 -38.5 108 -38.5"/><text x="164.5" y="-45.5" font-family="Helvetica,sans-Serif" font-size="10" text-anchor="middle">ICLArray&lt; cl_float &gt;</text></a></g></g><g id="edge4" class="edge"><title>Node0-&gt;Node4</title><path fill="none" stroke="#191970" d="M82.3298,-60.1916C90.5185,-58.9616 99.144,-57.6661 107.592,-56.3972"/><polygon fill="#191970" stroke="#191970" points="81.606 -56.761 72.237 -61.707 82.646 -63.683 81.606 -56.761"/></g><g id="node7" class="node"><title>Node6</title><g id="a_node7"><a target="_top" xlink:href="classarm__compute_1_1_i_c_l_array.xhtml"><polygon fill="#fff" stroke="#000" points="112.5 -.5 112.5 -19.5 216.5 -19.5 216.5 -.5 112.5 -.5"/><text x="164.5" y="-7.5" font-family="Helvetica,sans-Serif" font-size="10" text-anchor="middle">ICLArray&lt; cl_int &gt;</text></a></g></g><g id="edge6" class="edge"><title>Node0-&gt;Node6</title><path fill="none" stroke="#191970" d="M62.0373,-52.3192C75.4169,-44.804 92.3213,-35.8262 108,-29 115.844,-25.585 124.515,-22.3655 132.627,-19.5808"/><polygon fill="#191970" stroke="#191970" points="59.938 -49.487 52.986 -57.481 63.406 -55.568 59.938 -49.487"/></g><g id="node4" class="node"><title>Node3</title><g id="a_node4"><a target="_top" xlink:href="classarm__compute_1_1_c_l_array.xhtml" xlink:title="CLArray implementation."><polygon fill="#fff" stroke="#000" points="271 -76.5 271 -95.5 353 -95.5 353 -76.5 271 -76.5"/><text x="312" y="-83.5" font-family="Helvetica,sans-Serif" font-size="10" text-anchor="middle">CLArray&lt; T &gt;</text></a></g></g><g id="edge3" class="edge"><title>Node2-&gt;Node3</title><path fill="none" stroke="#191970" d="M216.972,-86C234.662,-86 254.191,-86 270.847,-86"/><polygon fill="#191970" stroke="#191970" points="216.805 -82.5 206.805 -86 216.805 -89.5 216.805 -82.5"/></g><g id="node6" class="node"><title>Node5</title><g id="a_node6"><a target="_top" xlink:href="classarm__compute_1_1_c_l_array.xhtml"><polygon fill="#fff" stroke="#000" points="257 -38.5 257 -57.5 367 -57.5 367 -38.5 257 -38.5"/><text x="312" y="-45.5" font-family="Helvetica,sans-Serif" font-size="10" text-anchor="middle">CLArray&lt; cl_float &gt;</text></a></g></g><g id="edge5" class="edge"><title>Node4-&gt;Node5</title><path fill="none" stroke="#191970" d="M231.608,-48C240.103,-48 248.719,-48 256.989,-48"/><polygon fill="#191970" stroke="#191970" points="231.338 -44.5 221.338 -48 231.338 -51.5 231.338 -44.5"/></g><g id="node8" class="node"><title>Node7</title><g id="a_node8"><a target="_top" xlink:href="classarm__compute_1_1_c_l_array.xhtml"><polygon fill="#fff" stroke="#000" points="261.5 -.5 261.5 -19.5 362.5 -19.5 362.5 -.5 261.5 -.5"/><text x="312" y="-7.5" font-family="Helvetica,sans-Serif" font-size="10" text-anchor="middle">CLArray&lt; cl_int &gt;</text></a></g></g><g id="edge7" class="edge"><title>Node6-&gt;Node7</title><path fill="none" stroke="#191970" d="M227.093,-10C238.452,-10 250.184,-10 261.143,-10"/><polygon fill="#191970" stroke="#191970" points="226.798 -6.5 216.798 -10 226.798 -13.5 226.798 -6.5"/></g></g></svg>