<svg xmlns="http://www.w3.org/2000/svg" xmlns:xlink="http://www.w3.org/1999/xlink" width="226pt" height="88" viewBox="0 0 226 66"><g id="graph0" class="graph" transform="scale(1 1) rotate(0) translate(4 62)"><title>Graphical Class Hierarchy</title><polygon fill="#fff" stroke="none" points="-4 4 -4 -62 222 -62 222 4 -4 4"/><g id="node1" class="node"><title>Node0</title><g id="a_node1"><a target="_top" xlink:href="classarm__compute_1_1_i_memory_pool.xhtml" xlink:title="Memory Pool Inteface."><polygon fill="#fff" stroke="#000" points="0 -19.5 0 -38.5 78 -38.5 78 -19.5 0 -19.5"/><text x="39" y="-26.5" font-family="Helvetica,sans-Serif" font-size="10" text-anchor="middle">IMemoryPool</text></a></g></g><g id="node2" class="node"><title>Node1</title><g id="a_node2"><a target="_top" xlink:href="classarm__compute_1_1_blob_memory_pool.xhtml" xlink:title="Blob memory pool."><polygon fill="#fff" stroke="#000" points="117.5 -38.5 117.5 -57.5 214.5 -57.5 214.5 -38.5 117.5 -38.5"/><text x="166" y="-45.5" font-family="Helvetica,sans-Serif" font-size="10" text-anchor="middle">BlobMemoryPool</text></a></g></g><g id="edge1" class="edge"><title>Node0-&gt;Node1</title><path fill="none" stroke="#191970" d="M88.2967,-36.3411C97.8265,-37.7896 107.822,-39.3089 117.331,-40.7542"/><polygon fill="#191970" stroke="#191970" points="88.596 -32.846 78.183 -34.804 87.544 -39.767 88.596 -32.846"/></g><g id="node3" class="node"><title>Node2</title><g id="a_node3"><a target="_top" xlink:href="classarm__compute_1_1_offset_memory_pool.xhtml" xlink:title="Offset based memory pool."><polygon fill="#fff" stroke="#000" points="114 -.5 114 -19.5 218 -19.5 218 -.5 114 -.5"/><text x="166" y="-7.5" font-family="Helvetica,sans-Serif" font-size="10" text-anchor="middle">OffsetMemoryPool</text></a></g></g><g id="edge2" class="edge"><title>Node0-&gt;Node2</title><path fill="none" stroke="#191970" d="M88.1623,-21.6793C96.5259,-20.4081 105.252,-19.0817 113.696,-17.7983"/><polygon fill="#191970" stroke="#191970" points="87.544 -18.233 78.183 -23.196 88.596 -25.154 87.544 -18.233"/></g></g></svg>