<svg xmlns="http://www.w3.org/2000/svg" xmlns:xlink="http://www.w3.org/1999/xlink" width="528" height="137pt" viewBox="0 0 396 137"><g id="graph0" class="graph" transform="scale(1 1) rotate(0) translate(4 133)"><title>Graphical Class Hierarchy</title><polygon fill="#fff" stroke="none" points="-4 4 -4 -133 392 -133 392 4 -4 4"/><g id="node1" class="node"><title>Node0</title><g id="a_node1"><a target="_top" xlink:href="classarm__compute_1_1_i_c_l_g_e_m_m_kernel_configuration.xhtml" xlink:title="Basic interface for the GEMM kernel configuration."><polygon fill="#fff" stroke="#000" points="0 -55 0 -74 154 -74 154 -55 0 -55"/><text x="77" y="-62" font-family="Helvetica,sans-Serif" font-size="10" text-anchor="middle">ICLGEMMKernelConfiguration</text></a></g></g><g id="node2" class="node"><title>Node1</title><g id="a_node2"><a target="_top" xlink:href="classarm__compute_1_1cl__gemm_1_1_c_l_g_e_m_m_native_kernel_configuration_bifrost.xhtml" xlink:title="Bifrost based OpenCL GEMMNative configuration."><polygon fill="#fff" stroke="#000" points="198 -98.5 198 -128.5 380 -128.5 380 -98.5 198 -98.5"/><text x="206" y="-116.5" font-family="Helvetica,sans-Serif" font-size="10" text-anchor="start">CLGEMMNativeKernelConfiguration</text><text x="289" y="-105.5" font-family="Helvetica,sans-Serif" font-size="10" text-anchor="middle">Bifrost</text></a></g></g><g id="edge1" class="edge"><title>Node0-&gt;Node1</title><path fill="none" stroke="#191970" d="M128.487,-76.2804C156.98,-82.9286 192.883,-91.306 223.409,-98.4287"/><polygon fill="#191970" stroke="#191970" points="129.273 -72.87 118.739 -74.006 127.682 -79.687 129.273 -72.87"/></g><g id="node3" class="node"><title>Node2</title><g id="a_node3"><a target="_top" xlink:href="classarm__compute_1_1cl__gemm_1_1_c_l_g_e_m_m_reshaped_kernel_configuration_bifrost.xhtml" xlink:title="Bifrost based OpenCL GEMMReshaped configuration."><polygon fill="#fff" stroke="#000" points="190 -49.5 190 -79.5 388 -79.5 388 -49.5 190 -49.5"/><text x="198" y="-67.5" font-family="Helvetica,sans-Serif" font-size="10" text-anchor="start">CLGEMMReshapedKernelConfiguration</text><text x="289" y="-56.5" font-family="Helvetica,sans-Serif" font-size="10" text-anchor="middle">Bifrost</text></a></g></g><g id="edge2" class="edge"><title>Node0-&gt;Node2</title><path fill="none" stroke="#191970" d="M164.302,-64.5C172.736,-64.5 181.337,-64.5 189.877,-64.5"/><polygon fill="#191970" stroke="#191970" points="164.112 -61 154.112 -64.5 164.112 -68 164.112 -61"/></g><g id="node4" class="node"><title>Node3</title><g id="a_node4"><a target="_top" xlink:href="classarm__compute_1_1cl__gemm_1_1_c_l_g_e_m_m_reshaped_only_r_h_s_kernel_configuration_bifrost.xhtml" xlink:title="Bifrost based OpenCL GEMMReshapedOnlyRHS configuration."><polygon fill="#fff" stroke="#000" points="201 -.5 201 -30.5 377 -30.5 377 -.5 201 -.5"/><text x="209" y="-18.5" font-family="Helvetica,sans-Serif" font-size="10" text-anchor="start">CLGEMMReshapedOnlyRHSKernel</text><text x="289" y="-7.5" font-family="Helvetica,sans-Serif" font-size="10" text-anchor="middle">ConfigurationBifrost</text></a></g></g><g id="edge3" class="edge"><title>Node0-&gt;Node3</title><path fill="none" stroke="#191970" d="M128.487,-52.7196C156.98,-46.0714 192.883,-37.694 223.409,-30.5713"/><polygon fill="#191970" stroke="#191970" points="127.682 -49.313 118.739 -54.994 129.273 -56.13 127.682 -49.313"/></g></g></svg>