<svg xmlns="http://www.w3.org/2000/svg" xmlns:xlink="http://www.w3.org/1999/xlink" width="266pt" height="88" viewBox="0 0 266 66"><g id="graph0" class="graph" transform="scale(1 1) rotate(0) translate(4 62)"><title>Graphical Class Hierarchy</title><polygon fill="#fff" stroke="none" points="-4 4 -4 -62 262 -62 262 4 -4 4"/><g id="node1" class="node"><title>Node0</title><g id="a_node1"><a target="_top" xlink:href="classarm__compute_1_1utils_1_1_i_image_data_feeder.xhtml" xlink:title="Image feeder interface."><polygon fill="#fff" stroke="#000" points="0 -19.5 0 -38.5 104 -38.5 104 -19.5 0 -19.5"/><text x="52" y="-26.5" font-family="Helvetica,sans-Serif" font-size="10" text-anchor="middle">IImageDataFeeder</text></a></g></g><g id="node2" class="node"><title>Node1</title><g id="a_node2"><a target="_top" xlink:href="classarm__compute_1_1utils_1_1_file_image_feeder.xhtml" xlink:title="File Image feeder concrete implementation."><polygon fill="#fff" stroke="#000" points="152 -38.5 152 -57.5 246 -57.5 246 -38.5 152 -38.5"/><text x="199" y="-45.5" font-family="Helvetica,sans-Serif" font-size="10" text-anchor="middle">FileImageFeeder</text></a></g></g><g id="edge1" class="edge"><title>Node0-&gt;Node1</title><path fill="none" stroke="#191970" d="M114.086,-37.0044C126.674,-38.6538 139.733,-40.365 151.693,-41.9322"/><polygon fill="#191970" stroke="#191970" points="114.492 -33.528 104.122 -35.699 113.582 -40.468 114.492 -33.528"/></g><g id="node3" class="node"><title>Node2</title><g id="a_node3"><a target="_top" xlink:href="classarm__compute_1_1utils_1_1_memory_image_feeder.xhtml" xlink:title="Memory Image feeder concrete implementation."><polygon fill="#fff" stroke="#000" points="140 -.5 140 -19.5 258 -19.5 258 -.5 140 -.5"/><text x="199" y="-7.5" font-family="Helvetica,sans-Serif" font-size="10" text-anchor="middle">MemoryImageFeeder</text></a></g></g><g id="edge2" class="edge"><title>Node0-&gt;Node2</title><path fill="none" stroke="#191970" d="M114.05,-21.0003C122.619,-19.8775 131.407,-18.7259 139.919,-17.6106"/><polygon fill="#191970" stroke="#191970" points="113.582 -17.532 104.122 -22.301 114.492 -24.472 113.582 -17.532"/></g></g></svg>