<svg xmlns="http://www.w3.org/2000/svg" xmlns:xlink="http://www.w3.org/1999/xlink" width="157pt" height="88" viewBox="0 0 157 66"><g id="graph0" class="graph" transform="scale(1 1) rotate(0) translate(4 62)"><title>Graphical Class Hierarchy</title><polygon fill="#fff" stroke="none" points="-4 4 -4 -62 153 -62 153 4 -4 4"/><g id="node1" class="node"><title>Node0</title><g id="a_node1"><a target="_top" xlink:href="classarm__compute_1_1logging_1_1_printer.xhtml" xlink:title="Base printer class to be inherited by other printer classes."><polygon fill="#fff" stroke="#000" points="0 -19.5 0 -38.5 48 -38.5 48 -19.5 0 -19.5"/><text x="24" y="-26.5" font-family="Helvetica,sans-Serif" font-size="10" text-anchor="middle">Printer</text></a></g></g><g id="node2" class="node"><title>Node1</title><g id="a_node2"><a target="_top" xlink:href="classarm__compute_1_1logging_1_1_file_printer.xhtml" xlink:title="File Printer."><polygon fill="#fff" stroke="#000" points="85 -38.5 85 -57.5 148 -57.5 148 -38.5 85 -38.5"/><text x="116.5" y="-45.5" font-family="Helvetica,sans-Serif" font-size="10" text-anchor="middle">FilePrinter</text></a></g></g><g id="edge1" class="edge"><title>Node0-&gt;Node1</title><path fill="none" stroke="#191970" d="M58.1408,-35.9577C66.8435,-37.7848 76.1913,-39.7473 84.7622,-41.5468"/><polygon fill="#191970" stroke="#191970" points="58.812 -32.522 48.306 -33.893 57.373 -39.373 58.812 -32.522"/></g><g id="node3" class="node"><title>Node2</title><g id="a_node3"><a target="_top" xlink:href="classarm__compute_1_1logging_1_1_std_printer.xhtml" xlink:title="Std Printer."><polygon fill="#fff" stroke="#000" points="84 -.5 84 -19.5 149 -19.5 149 -.5 84 -.5"/><text x="116.5" y="-7.5" font-family="Helvetica,sans-Serif" font-size="10" text-anchor="middle">StdPrinter</text></a></g></g><g id="edge2" class="edge"><title>Node0-&gt;Node2</title><path fill="none" stroke="#191970" d="M58.1274,-22.0451C66.4913,-20.2891 75.4517,-18.4079 83.7462,-16.6665"/><polygon fill="#191970" stroke="#191970" points="57.373 -18.627 48.306 -24.107 58.812 -25.478 57.373 -18.627"/></g></g></svg>