<svg xmlns="http://www.w3.org/2000/svg" xmlns:xlink="http://www.w3.org/1999/xlink" width="380" height="88" viewBox="0 0 285 66"><g id="graph0" class="graph" transform="scale(1 1) rotate(0) translate(4 62)"><title>Graphical Class Hierarchy</title><polygon fill="#fff" stroke="none" points="-4 4 -4 -62 281 -62 281 4 -4 4"/><g id="node1" class="node"><title>Node0</title><g id="a_node1"><a target="_top" xlink:href="classarm__compute_1_1test_1_1_i_array_accessor.xhtml" xlink:title="Common interface to provide information and access to array like structures."><polygon fill="#fff" stroke="#000" points="0 -19.5 0 -38.5 116 -38.5 116 -19.5 0 -19.5"/><text x="58" y="-26.5" font-family="Helvetica,sans-Serif" font-size="10" text-anchor="middle">IArrayAccessor&lt; T &gt;</text></a></g></g><g id="node2" class="node"><title>Node1</title><g id="a_node2"><a target="_top" xlink:href="classarm__compute_1_1test_1_1_array_accessor.xhtml" xlink:title="ArrayAccessor implementation for Array objects."><polygon fill="#fff" stroke="#000" points="158 -38.5 158 -57.5 271 -57.5 271 -38.5 158 -38.5"/><text x="214.5" y="-45.5" font-family="Helvetica,sans-Serif" font-size="10" text-anchor="middle">ArrayAccessor&lt; T &gt;</text></a></g></g><g id="edge1" class="edge"><title>Node0-&gt;Node1</title><path fill="none" stroke="#191970" d="M126.154,-37.2584C136.76,-38.5627 147.625,-39.8988 157.929,-41.166"/><polygon fill="#191970" stroke="#191970" points="126.444 -33.768 116.091 -36.021 125.589 -40.715 126.444 -33.768"/></g><g id="node3" class="node"><title>Node2</title><g id="a_node3"><a target="_top" xlink:href="classarm__compute_1_1test_1_1_c_l_array_accessor.xhtml" xlink:title="Accessor implementation for CLArray objects."><polygon fill="#fff" stroke="#000" points="152 -.5 152 -19.5 277 -19.5 277 -.5 152 -.5"/><text x="214.5" y="-7.5" font-family="Helvetica,sans-Serif" font-size="10" text-anchor="middle">CLArrayAccessor&lt; T &gt;</text></a></g></g><g id="edge2" class="edge"><title>Node0-&gt;Node2</title><path fill="none" stroke="#191970" d="M126.086,-20.7499C134.689,-19.6919 143.464,-18.6128 151.973,-17.5665"/><polygon fill="#191970" stroke="#191970" points="125.589 -17.285 116.091 -21.979 126.444 -24.232 125.589 -17.285"/></g></g></svg>