<svg xmlns="http://www.w3.org/2000/svg" xmlns:xlink="http://www.w3.org/1999/xlink" width="295pt" height="496" viewBox="0 0 295 372"><g id="graph0" class="graph" transform="scale(1 1) rotate(0) translate(4 368)"><title>Graphical Class Hierarchy</title><polygon fill="#fff" stroke="none" points="-4 4 -4 -368 291 -368 291 4 -4 4"/><g id="node1" class="node"><title>Node1161</title><g id="a_node1"><a><polygon fill="#fff" stroke="#bfbfbf" points="0 -170 0 -189 94 -189 94 -170 0 -170"/><text x="47" y="-177" font-family="Helvetica,sans-Serif" font-size="10" text-anchor="middle">GemmCommon</text></a></g></g><g id="node2" class="node"><title>Node0</title><g id="a_node2"><a target="_top" xlink:href="classarm__gemm_1_1_gemm_hybrid.xhtml"><polygon fill="#fff" stroke="#000" points="141.5 -333.5 141.5 -363.5 275.5 -363.5 275.5 -333.5 141.5 -333.5"/><text x="149.5" y="-351.5" font-family="Helvetica,sans-Serif" font-size="10" text-anchor="start">GemmHybrid&lt; strategy,</text><text x="208.5" y="-340.5" font-family="Helvetica,sans-Serif" font-size="10" text-anchor="middle">To, Tr &gt;</text></a></g></g><g id="edge1" class="edge"><title>Node1161-&gt;Node0</title><path fill="none" stroke="#191970" d="M53.7818,-198.943C64.0235,-230.046 88.3002,-290.902 130,-324.5 134.278,-327.946 139.05,-330.9 144.069,-333.43"/><polygon fill="#191970" stroke="#191970" points="57.08 -197.763 50.739 -189.275 50.403 -199.865 57.08 -197.763"/></g><g id="node3" class="node"><title>Node1163</title><g id="a_node3"><a target="_top" xlink:href="classarm__gemm_1_1_gemm_hybrid_quantized.xhtml"><polygon fill="#fff" stroke="#000" points="144 -284.5 144 -314.5 273 -314.5 273 -284.5 144 -284.5"/><text x="152" y="-302.5" font-family="Helvetica,sans-Serif" font-size="10" text-anchor="start">GemmHybridQuantized</text><text x="208.5" y="-291.5" font-family="Helvetica,sans-Serif" font-size="10" text-anchor="middle">&lt; strategy, To, Tr &gt;</text></a></g></g><g id="edge2" class="edge"><title>Node1161-&gt;Node1163</title><path fill="none" stroke="#191970" d="M59.0402,-197.839C72.9689,-219.459 98.8994,-255.03 130,-275.5 135.177,-278.907 140.864,-281.852 146.732,-284.393"/><polygon fill="#191970" stroke="#191970" points="61.938 -195.873 53.667 -189.252 56.004 -199.586 61.938 -195.873"/></g><g id="node4" class="node"><title>Node1164</title><g id="a_node4"><a target="_top" xlink:href="classarm__gemm_1_1_gemm_interleaved.xhtml"><polygon fill="#fff" stroke="#000" points="130 -235.5 130 -265.5 287 -265.5 287 -235.5 130 -235.5"/><text x="138" y="-253.5" font-family="Helvetica,sans-Serif" font-size="10" text-anchor="start">GemmInterleaved&lt; strategy,</text><text x="208.5" y="-242.5" font-family="Helvetica,sans-Serif" font-size="10" text-anchor="middle">To, Tr &gt;</text></a></g></g><g id="edge3" class="edge"><title>Node1161-&gt;Node1164</title><path fill="none" stroke="#191970" d="M71.2876,-194.691C87.3216,-204.684 109.372,-217.525 130,-226.5 137.491,-229.759 145.566,-232.774 153.575,-235.487"/><polygon fill="#191970" stroke="#191970" points="72.919 -191.582 62.599 -189.188 69.174 -197.495 72.919 -191.582"/></g><g id="node5" class="node"><title>Node1165</title><g id="a_node5"><a target="_top" xlink:href="classarm__gemm_1_1_gemm_native.xhtml"><polygon fill="#fff" stroke="#000" points="141.5 -186.5 141.5 -216.5 275.5 -216.5 275.5 -186.5 141.5 -186.5"/><text x="149.5" y="-204.5" font-family="Helvetica,sans-Serif" font-size="10" text-anchor="start">GemmNative&lt; strategy,</text><text x="208.5" y="-193.5" font-family="Helvetica,sans-Serif" font-size="10" text-anchor="middle">To, Tr &gt;</text></a></g></g><g id="edge4" class="edge"><title>Node1161-&gt;Node1165</title><path fill="none" stroke="#191970" d="M104.397,-187.279C116.335,-188.925 129.038,-190.678 141.301,-192.369"/><polygon fill="#191970" stroke="#191970" points="104.518 -183.763 94.134 -185.863 103.562 -190.697 104.518 -183.763"/></g><g id="node6" class="node"><title>Node1166</title><g id="a_node6"><a target="_top" xlink:href="classarm__gemm_1_1_gemv_batched.xhtml"><polygon fill="#fff" stroke="#000" points="143 -148 143 -167 274 -167 274 -148 143 -148"/><text x="208.5" y="-155" font-family="Helvetica,sans-Serif" font-size="10" text-anchor="middle">GemvBatched&lt; To, Tr &gt;</text></a></g></g><g id="edge5" class="edge"><title>Node1161-&gt;Node1166</title><path fill="none" stroke="#191970" d="M104.352,-171.727C116.785,-170.012 130.05,-168.183 142.785,-166.426"/><polygon fill="#191970" stroke="#191970" points="103.562 -168.303 94.134 -173.137 104.518 -175.237 103.562 -168.303"/></g><g id="node7" class="node"><title>Node1167</title><g id="a_node7"><a target="_top" xlink:href="classarm__gemm_1_1_gemv_native_transposed.xhtml"><polygon fill="#fff" stroke="#000" points="143.5 -98.5 143.5 -128.5 273.5 -128.5 273.5 -98.5 143.5 -98.5"/><text x="151.5" y="-116.5" font-family="Helvetica,sans-Serif" font-size="10" text-anchor="start">GemvNativeTransposed</text><text x="208.5" y="-105.5" font-family="Helvetica,sans-Serif" font-size="10" text-anchor="middle">&lt; strategy, To, Tr &gt;</text></a></g></g><g id="edge6" class="edge"><title>Node1161-&gt;Node1167</title><path fill="none" stroke="#191970" d="M74.417,-165.01C90.2596,-156.645 110.965,-146.276 130,-138.5 138.638,-134.971 147.973,-131.6 157.072,-128.54"/><polygon fill="#191970" stroke="#191970" points="72.407 -162.116 65.24 -169.918 75.708 -168.288 72.407 -162.116"/></g><g id="node8" class="node"><title>Node1168</title><g id="a_node8"><a target="_top" xlink:href="classarm__gemm_1_1_gemv_pretransposed.xhtml"><polygon fill="#fff" stroke="#000" points="147 -49.5 147 -79.5 270 -79.5 270 -49.5 147 -49.5"/><text x="155" y="-67.5" font-family="Helvetica,sans-Serif" font-size="10" text-anchor="start">GemvPretransposed&lt;</text><text x="208.5" y="-56.5" font-family="Helvetica,sans-Serif" font-size="10" text-anchor="middle">strategy, To, Tr &gt;</text></a></g></g><g id="edge7" class="edge"><title>Node1161-&gt;Node1168</title><path fill="none" stroke="#191970" d="M59.9844,-161.492C74.3529,-141.228 100.253,-108.649 130,-89.5 135.944,-85.6738 142.522,-82.3885 149.26,-79.5789"/><polygon fill="#191970" stroke="#191970" points="57.02 -159.624 54.222 -169.843 62.782 -163.6 57.02 -159.624"/></g><g id="node9" class="node"><title>Node1169</title><g id="a_node9"><a target="_top" xlink:href="classarm__gemm_1_1_quantize_wrapper.xhtml"><polygon fill="#fff" stroke="#000" points="147.5 -.5 147.5 -30.5 269.5 -30.5 269.5 -.5 147.5 -.5"/><text x="155.5" y="-18.5" font-family="Helvetica,sans-Serif" font-size="10" text-anchor="start">QuantizeWrapper&lt; To,</text><text x="208.5" y="-7.5" font-family="Helvetica,sans-Serif" font-size="10" text-anchor="middle">Tr, Tgemm &gt;</text></a></g></g><g id="edge8" class="edge"><title>Node1161-&gt;Node1169</title><path fill="none" stroke="#191970" d="M54.3522,-160.084C65.1409,-130.094 89.8658,-72.6197 130,-40.5 135.188,-36.3481 141.083,-32.8781 147.251,-29.9795"/><polygon fill="#191970" stroke="#191970" points="50.956 -159.196 51.005 -169.791 57.574 -161.478 50.956 -159.196"/></g></g></svg>