<svg xmlns="http://www.w3.org/2000/svg" xmlns:xlink="http://www.w3.org/1999/xlink" width="271pt" height="104pt" viewBox="0 0 271 104"><g id="graph0" class="graph" transform="scale(1 1) rotate(0) translate(4 100)"><title>Graphical Class Hierarchy</title><polygon fill="#fff" stroke="none" points="-4 4 -4 -100 267 -100 267 4 -4 4"/><g id="node1" class="node"><title>Node0</title><g id="a_node1"><a target="_top" xlink:href="classarm__compute_1_1test_1_1_i_lut_accessor.xhtml" xlink:title="Common interface to provide information and access to Lut like structures."><polygon fill="#fff" stroke="#000" points="0 -38.5 0 -57.5 105 -57.5 105 -38.5 0 -38.5"/><text x="52.5" y="-45.5" font-family="Helvetica,sans-Serif" font-size="10" text-anchor="middle">ILutAccessor&lt; T &gt;</text></a></g></g><g id="node2" class="node"><title>Node1</title><g id="a_node2"><a target="_top" xlink:href="classarm__compute_1_1test_1_1_c_l_lut_accessor.xhtml" xlink:title="Accessor implementation for CLLut objects."><polygon fill="#fff" stroke="#000" points="144.5 -76.5 144.5 -95.5 259.5 -95.5 259.5 -76.5 144.5 -76.5"/><text x="202" y="-83.5" font-family="Helvetica,sans-Serif" font-size="10" text-anchor="middle">CLLutAccessor&lt; T &gt;</text></a></g></g><g id="edge1" class="edge"><title>Node0-&gt;Node1</title><path fill="none" stroke="#191970" d="M100.514,-60.1121C121.057,-65.4044 144.8,-71.5213 164.047,-76.4799"/><polygon fill="#191970" stroke="#191970" points="101.277 -56.695 90.721 -57.589 99.531 -63.473 101.277 -56.695"/></g><g id="node3" class="node"><title>Node2</title><g id="a_node3"><a target="_top" xlink:href="classarm__compute_1_1test_1_1_lut_accessor.xhtml" xlink:title="Accessor implementation for Lut objects."><polygon fill="#fff" stroke="#000" points="150.5 -38.5 150.5 -57.5 253.5 -57.5 253.5 -38.5 150.5 -38.5"/><text x="202" y="-45.5" font-family="Helvetica,sans-Serif" font-size="10" text-anchor="middle">LutAccessor&lt; T &gt;</text></a></g></g><g id="edge2" class="edge"><title>Node0-&gt;Node2</title><path fill="none" stroke="#191970" d="M115.193,-48C126.847,-48 138.914,-48 150.187,-48"/><polygon fill="#191970" stroke="#191970" points="115.088 -44.5 105.088 -48 115.088 -51.5 115.088 -44.5"/></g><g id="node4" class="node"><title>Node3</title><g id="a_node4"><a target="_top" xlink:href="classarm__compute_1_1test_1_1_raw_lut_accessor.xhtml" xlink:title="Accessor implementation for std::map-lut objects."><polygon fill="#fff" stroke="#000" points="141 -.5 141 -19.5 263 -19.5 263 -.5 141 -.5"/><text x="202" y="-7.5" font-family="Helvetica,sans-Serif" font-size="10" text-anchor="middle">RawLutAccessor&lt; T &gt;</text></a></g></g><g id="edge3" class="edge"><title>Node0-&gt;Node3</title><path fill="none" stroke="#191970" d="M100.514,-35.8879C121.057,-30.5956 144.8,-24.4787 164.047,-19.5201"/><polygon fill="#191970" stroke="#191970" points="99.531 -32.527 90.721 -38.411 101.277 -39.305 99.531 -32.527"/></g></g></svg>