<svg xmlns="http://www.w3.org/2000/svg" xmlns:xlink="http://www.w3.org/1999/xlink" width="473pt" height="88" viewBox="0 0 473 66"><g id="graph0" class="graph" transform="scale(1 1) rotate(0) translate(4 62)"><title>Graphical Class Hierarchy</title><polygon fill="#fff" stroke="none" points="-4 4 -4 -62 469 -62 469 4 -4 4"/><g id="node1" class="node"><title>Node0</title><g id="a_node1"><a target="_top" xlink:href="classarm__compute_1_1_i_distribution.xhtml" xlink:title="Interface for distribution objects."><polygon fill="#fff" stroke="#000" points="0 -19.5 0 -38.5 74 -38.5 74 -19.5 0 -19.5"/><text x="37" y="-26.5" font-family="Helvetica,sans-Serif" font-size="10" text-anchor="middle">IDistribution</text></a></g></g><g id="node2" class="node"><title>Node1</title><g id="a_node2"><a target="_top" xlink:href="classarm__compute_1_1_i_distribution1_d.xhtml" xlink:title="1D Distribution interface"><polygon fill="#fff" stroke="#000" points="110 -19.5 110 -38.5 197 -38.5 197 -19.5 110 -19.5"/><text x="153.5" y="-26.5" font-family="Helvetica,sans-Serif" font-size="10" text-anchor="middle">IDistribution1D</text></a></g></g><g id="edge1" class="edge"><title>Node0-&gt;Node1</title><path fill="none" stroke="#191970" d="M84.266,-29C92.6703,-29 101.403,-29 109.702,-29"/><polygon fill="#191970" stroke="#191970" points="84.229 -25.5 74.228 -29 84.228 -32.5 84.229 -25.5"/></g><g id="node3" class="node"><title>Node2</title><g id="a_node3"><a target="_top" xlink:href="classarm__compute_1_1_distribution1_d.xhtml" xlink:title="Basic implementation of the 1D distribution interface."><polygon fill="#fff" stroke="#000" points="240 -38.5 240 -57.5 325 -57.5 325 -38.5 240 -38.5"/><text x="282.5" y="-45.5" font-family="Helvetica,sans-Serif" font-size="10" text-anchor="middle">Distribution1D</text></a></g></g><g id="edge2" class="edge"><title>Node1-&gt;Node2</title><path fill="none" stroke="#191970" d="M207.304,-36.8998C218.082,-38.5123 229.283,-40.188 239.617,-41.7341"/><polygon fill="#191970" stroke="#191970" points="207.55 -33.398 197.142 -35.38 206.515 -40.321 207.55 -33.398"/></g><g id="node4" class="node"><title>Node3</title><g id="a_node4"><a target="_top" xlink:href="classarm__compute_1_1_i_c_l_distribution1_d.xhtml" xlink:title="ICLDistribution1D interface class."><polygon fill="#fff" stroke="#000" points="233 -.5 233 -19.5 332 -19.5 332 -.5 233 -.5"/><text x="282.5" y="-7.5" font-family="Helvetica,sans-Serif" font-size="10" text-anchor="middle">ICLDistribution1D</text></a></g></g><g id="edge3" class="edge"><title>Node1-&gt;Node3</title><path fill="none" stroke="#191970" d="M207.227,-21.1117C215.634,-19.854 224.3,-18.5575 232.613,-17.3138"/><polygon fill="#191970" stroke="#191970" points="206.515 -17.679 197.142 -22.62 207.55 -24.602 206.515 -17.679"/></g><g id="node5" class="node"><title>Node4</title><g id="a_node5"><a target="_top" xlink:href="classarm__compute_1_1_c_l_distribution1_d.xhtml" xlink:title="CLDistribution1D object class."><polygon fill="#fff" stroke="#000" points="368 -.5 368 -19.5 465 -19.5 465 -.5 368 -.5"/><text x="416.5" y="-7.5" font-family="Helvetica,sans-Serif" font-size="10" text-anchor="middle">CLDistribution1D</text></a></g></g><g id="edge4" class="edge"><title>Node3-&gt;Node4</title><path fill="none" stroke="#191970" d="M342.493,-10C350.963,-10 359.588,-10 367.803,-10"/><polygon fill="#191970" stroke="#191970" points="342.277 -6.5 332.277 -10 342.277 -13.5 342.277 -6.5"/></g></g></svg>