<svg xmlns="http://www.w3.org/2000/svg" xmlns:xlink="http://www.w3.org/1999/xlink" width="238pt" height="104pt" viewBox="0 0 238 104"><g id="graph0" class="graph" transform="scale(1 1) rotate(0) translate(4 100)"><title>Graphical Class Hierarchy</title><polygon fill="#fff" stroke="none" points="-4 4 -4 -100 234 -100 234 4 -4 4"/><g id="node1" class="node"><title>Node0</title><g id="a_node1"><a target="_top" xlink:href="classarm__compute_1_1_i_scheduler.xhtml" xlink:title="Scheduler interface to run kernels."><polygon fill="#fff" stroke="#000" points="0 -38.5 0 -57.5 67 -57.5 67 -38.5 0 -38.5"/><text x="33.5" y="-45.5" font-family="Helvetica,sans-Serif" font-size="10" text-anchor="middle">IScheduler</text></a></g></g><g id="node2" class="node"><title>Node1</title><g id="a_node2"><a target="_top" xlink:href="classarm__compute_1_1_c_p_p_scheduler.xhtml" xlink:title="C++11 implementation of a pool of threads to automatically split a kernel's execution among several t..."><polygon fill="#fff" stroke="#000" points="125 -76.5 125 -95.5 208 -95.5 208 -76.5 125 -76.5"/><text x="166.5" y="-83.5" font-family="Helvetica,sans-Serif" font-size="10" text-anchor="middle">CPPScheduler</text></a></g></g><g id="edge1" class="edge"><title>Node0-&gt;Node1</title><path fill="none" stroke="#191970" d="M76.9579,-60.316C95.062,-65.5676 115.858,-71.5999 132.744,-76.4983"/><polygon fill="#191970" stroke="#191970" points="77.798 -56.916 67.219 -57.491 75.848 -63.638 77.798 -56.916"/></g><g id="node3" class="node"><title>Node2</title><g id="a_node3"><a target="_top" xlink:href="classarm__compute_1_1_o_m_p_scheduler.xhtml" xlink:title="Pool of threads to automatically split a kernel's execution among several threads."><polygon fill="#fff" stroke="#000" points="123.5 -38.5 123.5 -57.5 209.5 -57.5 209.5 -38.5 123.5 -38.5"/><text x="166.5" y="-45.5" font-family="Helvetica,sans-Serif" font-size="10" text-anchor="middle">OMPScheduler</text></a></g></g><g id="edge2" class="edge"><title>Node0-&gt;Node2</title><path fill="none" stroke="#191970" d="M77.5685,-48C92.2666,-48 108.679,-48 123.307,-48"/><polygon fill="#191970" stroke="#191970" points="77.219 -44.5 67.219 -48 77.219 -51.5 77.219 -44.5"/></g><g id="node4" class="node"><title>Node3</title><g id="a_node4"><a target="_top" xlink:href="classarm__compute_1_1_single_thread_scheduler.xhtml" xlink:title="Pool of threads to automatically split a kernel's execution among several threads."><polygon fill="#fff" stroke="#000" points="103 -.5 103 -19.5 230 -19.5 230 -.5 103 -.5"/><text x="166.5" y="-7.5" font-family="Helvetica,sans-Serif" font-size="10" text-anchor="middle">SingleThreadScheduler</text></a></g></g><g id="edge3" class="edge"><title>Node0-&gt;Node3</title><path fill="none" stroke="#191970" d="M76.9579,-35.684C95.062,-30.4324 115.858,-24.4001 132.744,-19.5017"/><polygon fill="#191970" stroke="#191970" points="75.848 -32.362 67.219 -38.509 77.798 -39.084 75.848 -32.362"/></g></g></svg>