<svg xmlns="http://www.w3.org/2000/svg" xmlns:xlink="http://www.w3.org/1999/xlink" width="224pt" height="88" viewBox="0 0 224 66"><g id="graph0" class="graph" transform="scale(1 1) rotate(0) translate(4 62)"><title>Graphical Class Hierarchy</title><polygon fill="#fff" stroke="none" points="-4 4 -4 -62 220 -62 220 4 -4 4"/><g id="node1" class="node"><title>Node0</title><g id="a_node1"><a target="_top" xlink:href="classarm__compute_1_1test_1_1_i_h_o_g_accessor.xhtml" xlink:title="Common interface to access HOG structure."><polygon fill="#fff" stroke="#000" points="0 -19.5 0 -38.5 85 -38.5 85 -19.5 0 -19.5"/><text x="42.5" y="-26.5" font-family="Helvetica,sans-Serif" font-size="10" text-anchor="middle">IHOGAccessor</text></a></g></g><g id="node2" class="node"><title>Node1</title><g id="a_node2"><a target="_top" xlink:href="classarm__compute_1_1test_1_1_c_l_h_o_g_accessor.xhtml" xlink:title="Accessor implementation for CLHOG objects."><polygon fill="#fff" stroke="#000" points="121 -38.5 121 -57.5 216 -57.5 216 -38.5 121 -38.5"/><text x="168.5" y="-45.5" font-family="Helvetica,sans-Serif" font-size="10" text-anchor="middle">CLHOGAccessor</text></a></g></g><g id="edge1" class="edge"><title>Node0-&gt;Node1</title><path fill="none" stroke="#191970" d="M95.235,-36.9271C103.656,-38.2175 112.337,-39.5476 120.633,-40.8188"/><polygon fill="#191970" stroke="#191970" points="95.55 -33.435 85.135 -35.38 94.49 -40.354 95.55 -33.435"/></g><g id="node3" class="node"><title>Node2</title><g id="a_node3"><a target="_top" xlink:href="classarm__compute_1_1test_1_1_h_o_g_accessor.xhtml" xlink:title="Accessor implementation for HOG objects."><polygon fill="#fff" stroke="#000" points="127 -.5 127 -19.5 210 -19.5 210 -.5 127 -.5"/><text x="168.5" y="-7.5" font-family="Helvetica,sans-Serif" font-size="10" text-anchor="middle">HOGAccessor</text></a></g></g><g id="edge2" class="edge"><title>Node0-&gt;Node2</title><path fill="none" stroke="#191970" d="M95.0568,-21.1002C105.58,-19.4877 116.517,-17.812 126.607,-16.2659"/><polygon fill="#191970" stroke="#191970" points="94.49 -17.646 85.135 -22.62 95.55 -24.565 94.49 -17.646"/></g></g></svg>