<svg xmlns="http://www.w3.org/2000/svg" xmlns:xlink="http://www.w3.org/1999/xlink" width="337pt" height="1529pt" viewBox="0 0 337 1528.5"><g id="graph0" class="graph" transform="scale(1 1) rotate(0) translate(4 1524.5)"><title>Graphical Class Hierarchy</title><polygon fill="#fff" stroke="none" points="-4 4 -4 -1524.5 333 -1524.5 333 4 -4 4"/><g id="node1" class="node"><title>Node0</title><g id="a_node1"><a target="_top" xlink:href="classarm__compute_1_1test_1_1framework_1_1_test_case.xhtml" xlink:title="Abstract test case class."><polygon fill="#fff" stroke="#000" points="0 -784 0 -803 59 -803 59 -784 0 -784"/><text x="29.5" y="-791" font-family="Helvetica,sans-Serif" font-size="10" text-anchor="middle">TestCase</text></a></g></g><g id="node2" class="node"><title>Node1</title><g id="a_node2"><a target="_top" xlink:href="classarm__compute_1_1test_1_1framework_1_1_data_test_case.xhtml" xlink:title="Data test case class."><polygon fill="#fff" stroke="#000" points="157 -1501 157 -1520 267 -1520 267 -1501 157 -1501"/><text x="212" y="-1508" font-family="Helvetica,sans-Serif" font-size="10" text-anchor="middle">DataTestCase&lt; T &gt;</text></a></g></g><g id="edge1" class="edge"><title>Node0-&gt;Node1</title><path fill="none" stroke="#191970" d="M30.911,-813.241C33.3487,-921.539 47.463,-1440.5 95,-1491.5 110.585,-1508.22 134.736,-1513.95 156.975,-1515.1"/><polygon fill="#191970" stroke="#191970" points="34.407 -813.002 30.69 -803.081 27.408 -813.154 34.407 -813.002"/></g><g id="node3" class="node"><title>Node2</title><g id="a_node3"><a target="_top" xlink:href="classarm__compute_1_1test_1_1framework_1_1_data_test_case.xhtml"><polygon fill="#fff" stroke="#000" points="103 -1407.5 103 -1481.5 321 -1481.5 321 -1407.5 103 -1407.5"/><text x="111" y="-1469.5" font-family="Helvetica,sans-Serif" font-size="10" text-anchor="start">DataTestCase&lt; decltype</text><text x="111" y="-1458.5" font-family="Helvetica,sans-Serif" font-size="10" text-anchor="start">(framework::dataset::combine</text><text x="111" y="-1447.5" font-family="Helvetica,sans-Serif" font-size="10" text-anchor="start">(framework::dataset::combine</text><text x="111" y="-1436.5" font-family="Helvetica,sans-Serif" font-size="10" text-anchor="start">(datasets::AlexNetActivationLayerDataset</text><text x="111" y="-1425.5" font-family="Helvetica,sans-Serif" font-size="10" text-anchor="start">(), data_types), framework::dataset</text><text x="212" y="-1414.5" font-family="Helvetica,sans-Serif" font-size="10" text-anchor="middle">::make(&quot;Batches&quot;, 1)))::type &gt;</text></a></g></g><g id="edge2" class="edge"><title>Node0-&gt;Node2</title><path fill="none" stroke="#191970" d="M31.3987,-813.179C36.0669,-911.947 58.7327,-1350.77 95,-1398.5 97.3592,-1401.61 99.9601,-1404.5 102.757,-1407.2"/><polygon fill="#191970" stroke="#191970" points="34.891 -812.919 30.929 -803.092 27.898 -813.244 34.891 -812.919"/></g><g id="node4" class="node"><title>Node3</title><g id="a_node4"><a target="_top" xlink:href="classarm__compute_1_1test_1_1framework_1_1_data_test_case.xhtml"><polygon fill="#fff" stroke="#000" points="103 -1314.5 103 -1388.5 321 -1388.5 321 -1314.5 103 -1314.5"/><text x="111" y="-1376.5" font-family="Helvetica,sans-Serif" font-size="10" text-anchor="start">DataTestCase&lt; decltype</text><text x="111" y="-1365.5" font-family="Helvetica,sans-Serif" font-size="10" text-anchor="start">(framework::dataset::combine</text><text x="111" y="-1354.5" font-family="Helvetica,sans-Serif" font-size="10" text-anchor="start">(framework::dataset::combine</text><text x="111" y="-1343.5" font-family="Helvetica,sans-Serif" font-size="10" text-anchor="start">(datasets::AlexNetActivationLayerDataset</text><text x="111" y="-1332.5" font-family="Helvetica,sans-Serif" font-size="10" text-anchor="start">(), data_types), framework::dataset</text><text x="212" y="-1321.5" font-family="Helvetica,sans-Serif" font-size="10" text-anchor="middle">::make(&quot;Batches&quot;, { 4, 8 })))::type &gt;</text></a></g></g><g id="edge3" class="edge"><title>Node0-&gt;Node3</title><path fill="none" stroke="#191970" d="M30.3883,-813.164C30.2889,-897.343 33.8746,-1226.63 95,-1305.5 97.3887,-1308.58 100.015,-1311.46 102.834,-1314.14"/><polygon fill="#191970" stroke="#191970" points="33.888 -813.169 30.42 -803.158 26.888 -813.147 33.888 -813.169"/></g><g id="node5" class="node"><title>Node4</title><g id="a_node5"><a target="_top" xlink:href="classarm__compute_1_1test_1_1framework_1_1_data_test_case.xhtml"><polygon fill="#fff" stroke="#000" points="99 -1221.5 99 -1295.5 325 -1295.5 325 -1221.5 99 -1221.5"/><text x="107" y="-1283.5" font-family="Helvetica,sans-Serif" font-size="10" text-anchor="start">DataTestCase&lt; decltype</text><text x="107" y="-1272.5" font-family="Helvetica,sans-Serif" font-size="10" text-anchor="start">(framework::dataset::combine</text><text x="107" y="-1261.5" font-family="Helvetica,sans-Serif" font-size="10" text-anchor="start">(framework::dataset::combine</text><text x="107" y="-1250.5" font-family="Helvetica,sans-Serif" font-size="10" text-anchor="start">(datasets::GoogLeNetInceptionV1Activation</text><text x="107" y="-1239.5" font-family="Helvetica,sans-Serif" font-size="10" text-anchor="start">LayerDataset(), data_types), framework</text><text x="212" y="-1228.5" font-family="Helvetica,sans-Serif" font-size="10" text-anchor="middle">::dataset::make(&quot;Batches&quot;, 1)))::type &gt;</text></a></g></g><g id="edge4" class="edge"><title>Node0-&gt;Node4</title><path fill="none" stroke="#191970" d="M31.0108,-813.488C33.2974,-888.138 44.8112,-1149.54 95,-1212.5 97.5658,-1215.72 100.39,-1218.71 103.419,-1221.5"/><polygon fill="#191970" stroke="#191970" points="34.5 -813.066 30.719 -803.169 27.503 -813.265 34.5 -813.066"/></g><g id="node6" class="node"><title>Node5</title><g id="a_node6"><a target="_top" xlink:href="classarm__compute_1_1test_1_1framework_1_1_data_test_case.xhtml"><polygon fill="#fff" stroke="#000" points="95 -1128.5 95 -1202.5 329 -1202.5 329 -1128.5 95 -1128.5"/><text x="103" y="-1190.5" font-family="Helvetica,sans-Serif" font-size="10" text-anchor="start">DataTestCase&lt; decltype</text><text x="103" y="-1179.5" font-family="Helvetica,sans-Serif" font-size="10" text-anchor="start">(framework::dataset::combine</text><text x="103" y="-1168.5" font-family="Helvetica,sans-Serif" font-size="10" text-anchor="start">(framework::dataset::combine</text><text x="103" y="-1157.5" font-family="Helvetica,sans-Serif" font-size="10" text-anchor="start">(datasets::GoogLeNetInceptionV1Activation</text><text x="103" y="-1146.5" font-family="Helvetica,sans-Serif" font-size="10" text-anchor="start">LayerDataset(), data_types), framework</text><text x="212" y="-1135.5" font-family="Helvetica,sans-Serif" font-size="10" text-anchor="middle">::dataset::make(&quot;Batches&quot;, { 4, 8 })))::type &gt;</text></a></g></g><g id="edge5" class="edge"><title>Node0-&gt;Node5</title><path fill="none" stroke="#191970" d="M31.9703,-813.381C37.0193,-876.678 55.5559,-1072.12 95,-1119.5 97.6338,-1122.66 100.516,-1125.61 103.594,-1128.36"/><polygon fill="#191970" stroke="#191970" points="35.441 -812.866 31.183 -803.165 28.462 -813.405 35.441 -812.866"/></g><g id="node7" class="node"><title>Node6</title><g id="a_node7"><a target="_top" xlink:href="classarm__compute_1_1test_1_1framework_1_1_data_test_case.xhtml"><polygon fill="#fff" stroke="#000" points="99 -1035.5 99 -1109.5 325 -1109.5 325 -1035.5 99 -1035.5"/><text x="107" y="-1097.5" font-family="Helvetica,sans-Serif" font-size="10" text-anchor="start">DataTestCase&lt; decltype</text><text x="107" y="-1086.5" font-family="Helvetica,sans-Serif" font-size="10" text-anchor="start">(framework::dataset::combine</text><text x="107" y="-1075.5" font-family="Helvetica,sans-Serif" font-size="10" text-anchor="start">(framework::dataset::combine</text><text x="107" y="-1064.5" font-family="Helvetica,sans-Serif" font-size="10" text-anchor="start">(datasets::GoogLeNetInceptionV4Activation</text><text x="107" y="-1053.5" font-family="Helvetica,sans-Serif" font-size="10" text-anchor="start">LayerDataset(), data_types), framework</text><text x="212" y="-1042.5" font-family="Helvetica,sans-Serif" font-size="10" text-anchor="middle">::dataset::make(&quot;Batches&quot;, 1)))::type &gt;</text></a></g></g><g id="edge6" class="edge"><title>Node0-&gt;Node6</title><path fill="none" stroke="#191970" d="M30.367,-813.634C31.1587,-857.818 39.1399,-964.289 95,-1026.5 97.7501,-1029.56 100.731,-1032.42 103.893,-1035.1"/><polygon fill="#191970" stroke="#191970" points="33.865 -813.333 30.298 -803.357 26.865 -813.38 33.865 -813.333"/></g><g id="node8" class="node"><title>Node7</title><g id="a_node8"><a target="_top" xlink:href="classarm__compute_1_1test_1_1framework_1_1_data_test_case.xhtml"><polygon fill="#fff" stroke="#000" points="95 -942.5 95 -1016.5 329 -1016.5 329 -942.5 95 -942.5"/><text x="103" y="-1004.5" font-family="Helvetica,sans-Serif" font-size="10" text-anchor="start">DataTestCase&lt; decltype</text><text x="103" y="-993.5" font-family="Helvetica,sans-Serif" font-size="10" text-anchor="start">(framework::dataset::combine</text><text x="103" y="-982.5" font-family="Helvetica,sans-Serif" font-size="10" text-anchor="start">(framework::dataset::combine</text><text x="103" y="-971.5" font-family="Helvetica,sans-Serif" font-size="10" text-anchor="start">(datasets::GoogLeNetInceptionV4Activation</text><text x="103" y="-960.5" font-family="Helvetica,sans-Serif" font-size="10" text-anchor="start">LayerDataset(), data_types), framework</text><text x="212" y="-949.5" font-family="Helvetica,sans-Serif" font-size="10" text-anchor="middle">::dataset::make(&quot;Batches&quot;, { 4, 8 })))::type &gt;</text></a></g></g><g id="edge7" class="edge"><title>Node0-&gt;Node7</title><path fill="none" stroke="#191970" d="M34.6096,-813.108C41.8282,-842.962 59.5108,-899.884 95,-933.5 98.3817,-936.703 102.013,-939.693 105.83,-942.482"/><polygon fill="#191970" stroke="#191970" points="37.964 -812.076 32.34 -803.097 31.138 -813.623 37.964 -812.076"/></g><g id="node9" class="node"><title>Node8</title><g id="a_node9"><a target="_top" xlink:href="classarm__compute_1_1test_1_1framework_1_1_data_test_case.xhtml"><polygon fill="#fff" stroke="#000" points="104.5 -849.5 104.5 -923.5 319.5 -923.5 319.5 -849.5 104.5 -849.5"/><text x="112.5" y="-911.5" font-family="Helvetica,sans-Serif" font-size="10" text-anchor="start">DataTestCase&lt; decltype</text><text x="112.5" y="-900.5" font-family="Helvetica,sans-Serif" font-size="10" text-anchor="start">(framework::dataset::combine</text><text x="112.5" y="-889.5" font-family="Helvetica,sans-Serif" font-size="10" text-anchor="start">(framework::dataset::combine</text><text x="112.5" y="-878.5" font-family="Helvetica,sans-Serif" font-size="10" text-anchor="start">(datasets::LeNet5ActivationLayerDataset</text><text x="112.5" y="-867.5" font-family="Helvetica,sans-Serif" font-size="10" text-anchor="start">(), data_types), framework::dataset</text><text x="212" y="-856.5" font-family="Helvetica,sans-Serif" font-size="10" text-anchor="middle">::make(&quot;Batches&quot;, 1)))::type &gt;</text></a></g></g><g id="edge8" class="edge"><title>Node0-&gt;Node8</title><path fill="none" stroke="#191970" d="M49.6138,-809.409C62.0182,-819.222 78.8299,-831.59 95,-840.5 100.598,-843.584 106.445,-846.569 112.411,-849.435"/><polygon fill="#191970" stroke="#191970" points="51.773 -806.654 41.792 -803.098 47.377 -812.102 51.773 -806.654"/></g><g id="node10" class="node"><title>Node9</title><g id="a_node10"><a target="_top" xlink:href="classarm__compute_1_1test_1_1framework_1_1_data_test_case.xhtml"><polygon fill="#fff" stroke="#000" points="104.5 -756.5 104.5 -830.5 319.5 -830.5 319.5 -756.5 104.5 -756.5"/><text x="112.5" y="-818.5" font-family="Helvetica,sans-Serif" font-size="10" text-anchor="start">DataTestCase&lt; decltype</text><text x="112.5" y="-807.5" font-family="Helvetica,sans-Serif" font-size="10" text-anchor="start">(framework::dataset::combine</text><text x="112.5" y="-796.5" font-family="Helvetica,sans-Serif" font-size="10" text-anchor="start">(framework::dataset::combine</text><text x="112.5" y="-785.5" font-family="Helvetica,sans-Serif" font-size="10" text-anchor="start">(datasets::LeNet5ActivationLayerDataset</text><text x="112.5" y="-774.5" font-family="Helvetica,sans-Serif" font-size="10" text-anchor="start">(), data_types), framework::dataset</text><text x="212" y="-763.5" font-family="Helvetica,sans-Serif" font-size="10" text-anchor="middle">::make(&quot;Batches&quot;, { 4, 8 })))::type &gt;</text></a></g></g><g id="edge9" class="edge"><title>Node0-&gt;Node9</title><path fill="none" stroke="#191970" d="M69.1941,-793.5C79.8008,-793.5 91.8371,-793.5 104.307,-793.5"/><polygon fill="#191970" stroke="#191970" points="69.101 -790 59.101 -793.5 69.101 -797 69.101 -790"/></g><g id="node11" class="node"><title>Node10</title><g id="a_node11"><a target="_top" xlink:href="classarm__compute_1_1test_1_1framework_1_1_data_test_case.xhtml"><polygon fill="#fff" stroke="#000" points="98 -663.5 98 -737.5 326 -737.5 326 -663.5 98 -663.5"/><text x="106" y="-725.5" font-family="Helvetica,sans-Serif" font-size="10" text-anchor="start">DataTestCase&lt; decltype</text><text x="106" y="-714.5" font-family="Helvetica,sans-Serif" font-size="10" text-anchor="start">(framework::dataset::combine</text><text x="106" y="-703.5" font-family="Helvetica,sans-Serif" font-size="10" text-anchor="start">(framework::dataset::combine</text><text x="106" y="-692.5" font-family="Helvetica,sans-Serif" font-size="10" text-anchor="start">(datasets::MobileNetActivationLayerDataset</text><text x="106" y="-681.5" font-family="Helvetica,sans-Serif" font-size="10" text-anchor="start">(), data_types_mobilenet), framework</text><text x="212" y="-670.5" font-family="Helvetica,sans-Serif" font-size="10" text-anchor="middle">::dataset::make(&quot;Batches&quot;, 1)))::type &gt;</text></a></g></g><g id="edge10" class="edge"><title>Node0-&gt;Node10</title><path fill="none" stroke="#191970" d="M50.5024,-777.373C62.8493,-767.9 79.2846,-756.131 95,-747.5 101.285,-744.048 107.877,-740.705 114.593,-737.501"/><polygon fill="#191970" stroke="#191970" points="48.023 -774.869 42.303 -783.787 52.336 -780.382 48.023 -774.869"/></g><g id="node12" class="node"><title>Node11</title><g id="a_node12"><a target="_top" xlink:href="classarm__compute_1_1test_1_1framework_1_1_data_test_case.xhtml"><polygon fill="#fff" stroke="#000" points="95 -570.5 95 -644.5 329 -644.5 329 -570.5 95 -570.5"/><text x="103" y="-632.5" font-family="Helvetica,sans-Serif" font-size="10" text-anchor="start">DataTestCase&lt; decltype</text><text x="103" y="-621.5" font-family="Helvetica,sans-Serif" font-size="10" text-anchor="start">(framework::dataset::combine</text><text x="103" y="-610.5" font-family="Helvetica,sans-Serif" font-size="10" text-anchor="start">(framework::dataset::combine</text><text x="103" y="-599.5" font-family="Helvetica,sans-Serif" font-size="10" text-anchor="start">(datasets::MobileNetActivationLayerDataset</text><text x="103" y="-588.5" font-family="Helvetica,sans-Serif" font-size="10" text-anchor="start">(), data_types_mobilenet), framework</text><text x="212" y="-577.5" font-family="Helvetica,sans-Serif" font-size="10" text-anchor="middle">::dataset::make(&quot;Batches&quot;, { 4, 8 })))::type &gt;</text></a></g></g><g id="edge11" class="edge"><title>Node0-&gt;Node11</title><path fill="none" stroke="#191970" d="M34.6804,-774.062C41.9929,-744.463 59.7983,-688.001 95,-654.5 98.699,-650.98 102.696,-647.71 106.906,-644.674"/><polygon fill="#191970" stroke="#191970" points="31.228 -773.455 32.377 -783.988 38.047 -775.038 31.228 -773.455"/></g><g id="node13" class="node"><title>Node12</title><g id="a_node13"><a target="_top" xlink:href="classarm__compute_1_1test_1_1framework_1_1_data_test_case.xhtml"><polygon fill="#fff" stroke="#000" points="110 -477.5 110 -551.5 314 -551.5 314 -477.5 110 -477.5"/><text x="118" y="-539.5" font-family="Helvetica,sans-Serif" font-size="10" text-anchor="start">DataTestCase&lt; decltype</text><text x="118" y="-528.5" font-family="Helvetica,sans-Serif" font-size="10" text-anchor="start">(framework::dataset::combine</text><text x="118" y="-517.5" font-family="Helvetica,sans-Serif" font-size="10" text-anchor="start">(framework::dataset::combine</text><text x="118" y="-506.5" font-family="Helvetica,sans-Serif" font-size="10" text-anchor="start">(datasets::SqueezeNetActivationLayer</text><text x="118" y="-495.5" font-family="Helvetica,sans-Serif" font-size="10" text-anchor="start">Dataset(), data_types), framework</text><text x="212" y="-484.5" font-family="Helvetica,sans-Serif" font-size="10" text-anchor="middle">::dataset::make(&quot;Batches&quot;, 1)))::type &gt;</text></a></g></g><g id="edge12" class="edge"><title>Node0-&gt;Node12</title><path fill="none" stroke="#191970" d="M30.4288,-773.481C31.3445,-729.544 39.5586,-623.638 95,-561.5 99.4122,-556.555 104.42,-552.121 109.818,-548.146"/><polygon fill="#191970" stroke="#191970" points="26.927 -773.667 30.33 -783.7 33.927 -773.735 26.927 -773.667"/></g><g id="node14" class="node"><title>Node13</title><g id="a_node14"><a target="_top" xlink:href="classarm__compute_1_1test_1_1framework_1_1_data_test_case.xhtml"><polygon fill="#fff" stroke="#000" points="111.5 -373 111.5 -458 312.5 -458 312.5 -373 111.5 -373"/><text x="119.5" y="-446" font-family="Helvetica,sans-Serif" font-size="10" text-anchor="start">DataTestCase&lt; decltype</text><text x="119.5" y="-435" font-family="Helvetica,sans-Serif" font-size="10" text-anchor="start">(framework::dataset::combine</text><text x="119.5" y="-424" font-family="Helvetica,sans-Serif" font-size="10" text-anchor="start">(framework::dataset::combine</text><text x="119.5" y="-413" font-family="Helvetica,sans-Serif" font-size="10" text-anchor="start">(datasets::SqueezeNetActivationLayer</text><text x="119.5" y="-402" font-family="Helvetica,sans-Serif" font-size="10" text-anchor="start">Dataset(), data_types), framework</text><text x="119.5" y="-391" font-family="Helvetica,sans-Serif" font-size="10" text-anchor="start">::dataset::make(&quot;Batches&quot;, { 4, 8</text><text x="212" y="-380" font-family="Helvetica,sans-Serif" font-size="10" text-anchor="middle">})))::type &gt;</text></a></g></g><g id="edge13" class="edge"><title>Node0-&gt;Node13</title><path fill="none" stroke="#191970" d="M32.0785,-773.761C37.4557,-710.902 56.8764,-516.713 95,-468.5 99.738,-462.508 105.306,-457.169 111.393,-452.415"/><polygon fill="#191970" stroke="#191970" points="28.576 -773.649 31.237 -783.905 35.552 -774.228 28.576 -773.649"/></g><g id="node15" class="node"><title>Node14</title><g id="a_node15"><a target="_top" xlink:href="classarm__compute_1_1test_1_1framework_1_1_data_test_case.xhtml"><polygon fill="#fff" stroke="#000" points="105 -279.5 105 -353.5 319 -353.5 319 -279.5 105 -279.5"/><text x="113" y="-341.5" font-family="Helvetica,sans-Serif" font-size="10" text-anchor="start">DataTestCase&lt; decltype</text><text x="113" y="-330.5" font-family="Helvetica,sans-Serif" font-size="10" text-anchor="start">(framework::dataset::combine</text><text x="113" y="-319.5" font-family="Helvetica,sans-Serif" font-size="10" text-anchor="start">(framework::dataset::combine</text><text x="113" y="-308.5" font-family="Helvetica,sans-Serif" font-size="10" text-anchor="start">(datasets::VGG16ActivationLayerDataset</text><text x="113" y="-297.5" font-family="Helvetica,sans-Serif" font-size="10" text-anchor="start">(), data_types), framework::dataset</text><text x="212" y="-286.5" font-family="Helvetica,sans-Serif" font-size="10" text-anchor="middle">::make(&quot;Batches&quot;, 1)))::type &gt;</text></a></g></g><g id="edge14" class="edge"><title>Node0-&gt;Node14</title><path fill="none" stroke="#191970" d="M30.939,-773.499C32.9823,-697.614 43.7777,-428.505 95,-363.5 97.9587,-359.745 101.266,-356.289 104.839,-353.107"/><polygon fill="#191970" stroke="#191970" points="27.429 -773.875 30.681 -783.958 34.427 -774.047 27.429 -773.875"/></g><g id="node16" class="node"><title>Node15</title><g id="a_node16"><a target="_top" xlink:href="classarm__compute_1_1test_1_1framework_1_1_data_test_case.xhtml"><polygon fill="#fff" stroke="#000" points="105 -186.5 105 -260.5 319 -260.5 319 -186.5 105 -186.5"/><text x="113" y="-248.5" font-family="Helvetica,sans-Serif" font-size="10" text-anchor="start">DataTestCase&lt; decltype</text><text x="113" y="-237.5" font-family="Helvetica,sans-Serif" font-size="10" text-anchor="start">(framework::dataset::combine</text><text x="113" y="-226.5" font-family="Helvetica,sans-Serif" font-size="10" text-anchor="start">(framework::dataset::combine</text><text x="113" y="-215.5" font-family="Helvetica,sans-Serif" font-size="10" text-anchor="start">(datasets::VGG16ActivationLayerDataset</text><text x="113" y="-204.5" font-family="Helvetica,sans-Serif" font-size="10" text-anchor="start">(), data_types), framework::dataset</text><text x="212" y="-193.5" font-family="Helvetica,sans-Serif" font-size="10" text-anchor="middle">::make(&quot;Batches&quot;, { 4, 8 })))::type &gt;</text></a></g></g><g id="edge15" class="edge"><title>Node0-&gt;Node15</title><path fill="none" stroke="#191970" d="M30.3434,-773.428C30.0584,-687.5 32.9866,-351.355 95,-270.5 97.9093,-266.707 101.175,-263.218 104.715,-260.011"/><polygon fill="#191970" stroke="#191970" points="26.845 -773.66 30.398 -783.642 33.844 -773.623 26.845 -773.66"/></g><g id="node17" class="node"><title>Node16</title><g id="a_node17"><a target="_top" xlink:href="classarm__compute_1_1test_1_1framework_1_1_data_test_case.xhtml"><polygon fill="#fff" stroke="#000" points="103 -93.5 103 -167.5 321 -167.5 321 -93.5 103 -93.5"/><text x="111" y="-155.5" font-family="Helvetica,sans-Serif" font-size="10" text-anchor="start">DataTestCase&lt; decltype</text><text x="111" y="-144.5" font-family="Helvetica,sans-Serif" font-size="10" text-anchor="start">(framework::dataset::combine</text><text x="111" y="-133.5" font-family="Helvetica,sans-Serif" font-size="10" text-anchor="start">(framework::dataset::combine</text><text x="111" y="-122.5" font-family="Helvetica,sans-Serif" font-size="10" text-anchor="start">(datasets::YOLOV2ActivationLayerDataset</text><text x="111" y="-111.5" font-family="Helvetica,sans-Serif" font-size="10" text-anchor="start">(), data_types), framework::dataset</text><text x="212" y="-100.5" font-family="Helvetica,sans-Serif" font-size="10" text-anchor="middle">::make(&quot;Batches&quot;, 1)))::type &gt;</text></a></g></g><g id="edge16" class="edge"><title>Node0-&gt;Node16</title><path fill="none" stroke="#191970" d="M31.3824,-773.469C35.9705,-672.936 58.3073,-226.263 95,-177.5 97.613,-174.027 100.526,-170.811 103.675,-167.831"/><polygon fill="#191970" stroke="#191970" points="27.873 -773.589 30.921 -783.736 34.867 -773.904 27.873 -773.589"/></g><g id="node18" class="node"><title>Node17</title><g id="a_node18"><a target="_top" xlink:href="classarm__compute_1_1test_1_1framework_1_1_data_test_case.xhtml"><polygon fill="#fff" stroke="#000" points="103 -.5 103 -74.5 321 -74.5 321 -.5 103 -.5"/><text x="111" y="-62.5" font-family="Helvetica,sans-Serif" font-size="10" text-anchor="start">DataTestCase&lt; decltype</text><text x="111" y="-51.5" font-family="Helvetica,sans-Serif" font-size="10" text-anchor="start">(framework::dataset::combine</text><text x="111" y="-40.5" font-family="Helvetica,sans-Serif" font-size="10" text-anchor="start">(framework::dataset::combine</text><text x="111" y="-29.5" font-family="Helvetica,sans-Serif" font-size="10" text-anchor="start">(datasets::YOLOV2ActivationLayerDataset</text><text x="111" y="-18.5" font-family="Helvetica,sans-Serif" font-size="10" text-anchor="start">(), data_types), framework::dataset</text><text x="212" y="-7.5" font-family="Helvetica,sans-Serif" font-size="10" text-anchor="middle">::make(&quot;Batches&quot;, { 4, 8 })))::type &gt;</text></a></g></g><g id="edge17" class="edge"><title>Node0-&gt;Node17</title><path fill="none" stroke="#191970" d="M31.0875,-773.615C34.4708,-664.506 52.8123,-141.366 95,-84.5 97.5893,-81.0098 100.482,-77.778 103.615,-74.7857"/><polygon fill="#191970" stroke="#191970" points="27.582 -773.749 30.777 -783.851 34.579 -773.961 27.582 -773.749"/></g></g></svg>