<svg xmlns="http://www.w3.org/2000/svg" xmlns:xlink="http://www.w3.org/1999/xlink" width="245pt" height="88" viewBox="0 0 245 66"><g id="graph0" class="graph" transform="scale(1 1) rotate(0) translate(4 62)"><title>Graphical Class Hierarchy</title><polygon fill="#fff" stroke="none" points="-4 4 -4 -62 241 -62 241 4 -4 4"/><g id="node1" class="node"><title>Node0</title><g id="a_node1"><a target="_top" xlink:href="classarm__compute_1_1_dimensions.xhtml"><polygon fill="#fff" stroke="#000" points="0 -19.5 0 -38.5 123 -38.5 123 -19.5 0 -19.5"/><text x="61.5" y="-26.5" font-family="Helvetica,sans-Serif" font-size="10" text-anchor="middle">Dimensions&lt; size_t &gt;</text></a></g></g><g id="node2" class="node"><title>Node1</title><g id="a_node2"><a target="_top" xlink:href="classarm__compute_1_1_strides.xhtml" xlink:title="Strides of an item in bytes."><polygon fill="#fff" stroke="#000" points="173 -38.5 173 -57.5 223 -57.5 223 -38.5 173 -38.5"/><text x="198" y="-45.5" font-family="Helvetica,sans-Serif" font-size="10" text-anchor="middle">Strides</text></a></g></g><g id="edge1" class="edge"><title>Node0-&gt;Node1</title><path fill="none" stroke="#191970" d="M132.978,-38.9559C147.303,-40.9795 161.432,-42.9755 172.757,-44.5754"/><polygon fill="#191970" stroke="#191970" points="133.452 -35.488 123.061 -37.555 132.473 -42.419 133.452 -35.488"/></g><g id="node3" class="node"><title>Node2</title><g id="a_node3"><a target="_top" xlink:href="classarm__compute_1_1_tensor_shape.xhtml" xlink:title="Shape of a tensor."><polygon fill="#fff" stroke="#000" points="159 -.5 159 -19.5 237 -19.5 237 -.5 159 -.5"/><text x="198" y="-7.5" font-family="Helvetica,sans-Serif" font-size="10" text-anchor="middle">TensorShape</text></a></g></g><g id="edge2" class="edge"><title>Node0-&gt;Node2</title><path fill="none" stroke="#191970" d="M133.046,-19.0343C141.891,-17.7849 150.659,-16.5463 158.737,-15.4051"/><polygon fill="#191970" stroke="#191970" points="132.473 -15.581 123.061 -20.445 133.452 -22.512 132.473 -15.581"/></g></g></svg>