<svg xmlns="http://www.w3.org/2000/svg" xmlns:xlink="http://www.w3.org/1999/xlink" width="170pt" height="88" viewBox="0 0 170 66"><g id="graph0" class="graph" transform="scale(1 1) rotate(0) translate(4 62)"><title>Graphical Class Hierarchy</title><polygon fill="#fff" stroke="none" points="-4 4 -4 -62 166 -62 166 4 -4 4"/><g id="node1" class="node"><title>Node0</title><g id="a_node1"><a target="_top" xlink:href="classarm__compute_1_1graph_1_1frontend_1_1_i_stream.xhtml" xlink:title="Stream interface."><polygon fill="#fff" stroke="#000" points="0 -19.5 0 -38.5 55 -38.5 55 -19.5 0 -19.5"/><text x="27.5" y="-26.5" font-family="Helvetica,sans-Serif" font-size="10" text-anchor="middle">IStream</text></a></g></g><g id="node2" class="node"><title>Node1</title><g id="a_node2"><a target="_top" xlink:href="classarm__compute_1_1graph_1_1frontend_1_1_stream.xhtml" xlink:title="Stream frontend class to construct simple graphs in a stream fashion."><polygon fill="#fff" stroke="#000" points="100 -38.5 100 -57.5 153 -57.5 153 -38.5 100 -38.5"/><text x="126.5" y="-45.5" font-family="Helvetica,sans-Serif" font-size="10" text-anchor="middle">Stream</text></a></g></g><g id="edge1" class="edge"><title>Node0-&gt;Node1</title><path fill="none" stroke="#191970" d="M64.8601,-36.1221C76.4456,-38.3914 89.0188,-40.8542 99.6968,-42.9458"/><polygon fill="#191970" stroke="#191970" points="65.492 -32.679 55.006 -34.192 64.146 -39.549 65.492 -32.679"/></g><g id="node3" class="node"><title>Node2</title><g id="a_node3"><a target="_top" xlink:href="classarm__compute_1_1graph_1_1frontend_1_1_sub_stream.xhtml" xlink:title="Sub stream class."><polygon fill="#fff" stroke="#000" points="91 -.5 91 -19.5 162 -19.5 162 -.5 91 -.5"/><text x="126.5" y="-7.5" font-family="Helvetica,sans-Serif" font-size="10" text-anchor="middle">SubStream</text></a></g></g><g id="edge2" class="edge"><title>Node0-&gt;Node2</title><path fill="none" stroke="#191970" d="M64.9451,-21.8613C73.365,-20.212 82.3024,-18.4614 90.6521,-16.8259"/><polygon fill="#191970" stroke="#191970" points="64.146 -18.451 55.006 -23.808 65.492 -25.321 64.146 -18.451"/></g></g></svg>