<svg xmlns="http://www.w3.org/2000/svg" xmlns:xlink="http://www.w3.org/1999/xlink" width="277pt" height="544" viewBox="0 0 277 408"><g id="graph0" class="graph" transform="scale(1 1) rotate(0) translate(4 404)"><title>Graphical Class Hierarchy</title><polygon fill="#fff" stroke="none" points="-4 4 -4 -404 273 -404 273 4 -4 4"/><g id="node1" class="node"><title>Node0</title><g id="a_node1"><a target="_top" xlink:href="classarm__compute_1_1graph_1_1_i_tensor_accessor.xhtml" xlink:title="Tensor accessor interface."><polygon fill="#fff" stroke="#000" points="0 -190.5 0 -209.5 93 -209.5 93 -190.5 0 -190.5"/><text x="46.5" y="-197.5" font-family="Helvetica,sans-Serif" font-size="10" text-anchor="middle">ITensorAccessor</text></a></g></g><g id="node2" class="node"><title>Node1</title><g id="a_node2"><a target="_top" xlink:href="classarm__compute_1_1graph__utils_1_1_detection_output_accessor.xhtml" xlink:title="Detection output accessor class."><polygon fill="#fff" stroke="#000" points="129 -380.5 129 -399.5 269 -399.5 269 -380.5 129 -380.5"/><text x="199" y="-387.5" font-family="Helvetica,sans-Serif" font-size="10" text-anchor="middle">DetectionOutputAccessor</text></a></g></g><g id="edge1" class="edge"><title>Node0-&gt;Node1</title><path fill="none" stroke="#191970" d="M51.3576,-220.013C59.3195,-255.804 81.0035,-330.788 129,-371 133.667,-374.91 139.075,-378.019 144.77,-380.491"/><polygon fill="#191970" stroke="#191970" points="54.709 -218.936 49.239 -209.863 47.856 -220.367 54.709 -218.936"/></g><g id="node3" class="node"><title>Node2</title><g id="a_node3"><a target="_top" xlink:href="classarm__compute_1_1graph__utils_1_1_dummy_accessor.xhtml" xlink:title="Dummy accessor class."><polygon fill="#fff" stroke="#000" points="150 -342.5 150 -361.5 248 -361.5 248 -342.5 150 -342.5"/><text x="199" y="-349.5" font-family="Helvetica,sans-Serif" font-size="10" text-anchor="middle">DummyAccessor</text></a></g></g><g id="edge2" class="edge"><title>Node0-&gt;Node2</title><path fill="none" stroke="#191970" d="M54.0154,-219.211C64.8795,-248.302 89.4858,-303.28 129,-333 135.156,-337.631 142.378,-341.133 149.788,-343.781"/><polygon fill="#191970" stroke="#191970" points="57.298 -217.995 50.633 -209.759 50.707 -220.354 57.298 -217.995"/></g><g id="node4" class="node"><title>Node3</title><g id="a_node4"><a target="_top" xlink:href="classarm__compute_1_1graph__utils_1_1_image_accessor.xhtml" xlink:title="Image accessor class."><polygon fill="#fff" stroke="#000" points="154 -304.5 154 -323.5 244 -323.5 244 -304.5 154 -304.5"/><text x="199" y="-311.5" font-family="Helvetica,sans-Serif" font-size="10" text-anchor="middle">ImageAccessor</text></a></g></g><g id="edge3" class="edge"><title>Node0-&gt;Node3</title><path fill="none" stroke="#191970" d="M58.3844,-218.313C72.1413,-239.87 97.8285,-275.23 129,-295 136.45,-299.725 145.075,-303.291 153.65,-305.976"/><polygon fill="#191970" stroke="#191970" points="61.321 -216.407 53.082 -209.745 55.368 -220.09 61.321 -216.407"/></g><g id="node5" class="node"><title>Node4</title><g id="a_node5"><a target="_top" xlink:href="classarm__compute_1_1graph__utils_1_1_num_py_accessor.xhtml" xlink:title="NumPy accessor class."><polygon fill="#fff" stroke="#000" points="151.5 -266.5 151.5 -285.5 246.5 -285.5 246.5 -266.5 151.5 -266.5"/><text x="199" y="-273.5" font-family="Helvetica,sans-Serif" font-size="10" text-anchor="middle">NumPyAccessor</text></a></g></g><g id="edge4" class="edge"><title>Node0-&gt;Node4</title><path fill="none" stroke="#191970" d="M66.5397,-216.158C82.3578,-228.855 105.928,-246.152 129,-257 136.983,-260.754 145.846,-263.887 154.486,-266.455"/><polygon fill="#191970" stroke="#191970" points="68.553 -213.283 58.602 -209.647 64.114 -218.695 68.553 -213.283"/></g><g id="node6" class="node"><title>Node5</title><g id="a_node6"><a target="_top" xlink:href="classarm__compute_1_1graph__utils_1_1_num_py_bin_loader.xhtml" xlink:title="Numpy Binary loader class."><polygon fill="#fff" stroke="#000" points="149.5 -228.5 149.5 -247.5 248.5 -247.5 248.5 -228.5 149.5 -228.5"/><text x="199" y="-235.5" font-family="Helvetica,sans-Serif" font-size="10" text-anchor="middle">NumPyBinLoader</text></a></g></g><g id="edge5" class="edge"><title>Node0-&gt;Node5</title><path fill="none" stroke="#191970" d="M95.1847,-212.04C116.21,-217.349 140.567,-223.499 160.296,-228.48"/><polygon fill="#191970" stroke="#191970" points="96.03 -208.644 85.478 -209.589 94.316 -215.431 96.03 -208.644"/></g><g id="node7" class="node"><title>Node6</title><g id="a_node7"><a target="_top" xlink:href="classarm__compute_1_1graph__utils_1_1_p_p_m_writer.xhtml" xlink:title="PPM writer class."><polygon fill="#fff" stroke="#000" points="167 -190.5 167 -209.5 231 -209.5 231 -190.5 167 -190.5"/><text x="199" y="-197.5" font-family="Helvetica,sans-Serif" font-size="10" text-anchor="middle">PPMWriter</text></a></g></g><g id="edge6" class="edge"><title>Node0-&gt;Node6</title><path fill="none" stroke="#191970" d="M103.093,-200C124.633,-200 148.484,-200 166.888,-200"/><polygon fill="#191970" stroke="#191970" points="103.063 -196.5 93.063 -200 103.063 -203.5 103.063 -196.5"/></g><g id="node8" class="node"><title>Node7</title><g id="a_node8"><a target="_top" xlink:href="classarm__compute_1_1graph__utils_1_1_random_accessor.xhtml" xlink:title="Random accessor class."><polygon fill="#fff" stroke="#000" points="149 -152.5 149 -171.5 249 -171.5 249 -152.5 149 -152.5"/><text x="199" y="-159.5" font-family="Helvetica,sans-Serif" font-size="10" text-anchor="middle">RandomAccessor</text></a></g></g><g id="edge7" class="edge"><title>Node0-&gt;Node7</title><path fill="none" stroke="#191970" d="M95.1847,-187.96C116.21,-182.651 140.567,-176.501 160.296,-171.52"/><polygon fill="#191970" stroke="#191970" points="94.316 -184.569 85.478 -190.411 96.03 -191.356 94.316 -184.569"/></g><g id="node9" class="node"><title>Node8</title><g id="a_node9"><a target="_top" xlink:href="classarm__compute_1_1graph__utils_1_1_save_num_py_accessor.xhtml" xlink:title="SaveNumPy accessor class."><polygon fill="#fff" stroke="#000" points="139.5 -114.5 139.5 -133.5 258.5 -133.5 258.5 -114.5 139.5 -114.5"/><text x="199" y="-121.5" font-family="Helvetica,sans-Serif" font-size="10" text-anchor="middle">SaveNumPyAccessor</text></a></g></g><g id="edge8" class="edge"><title>Node0-&gt;Node8</title><path fill="none" stroke="#191970" d="M66.5397,-183.842C82.3578,-171.145 105.928,-153.848 129,-143 136.983,-139.246 145.846,-136.113 154.486,-133.545"/><polygon fill="#191970" stroke="#191970" points="64.114 -181.305 58.602 -190.353 68.553 -186.717 64.114 -181.305"/></g><g id="node10" class="node"><title>Node9</title><g id="a_node10"><a target="_top" xlink:href="classarm__compute_1_1graph__utils_1_1_top_n_predictions_accessor.xhtml" xlink:title="Result accessor class."><polygon fill="#fff" stroke="#000" points="131 -76.5 131 -95.5 267 -95.5 267 -76.5 131 -76.5"/><text x="199" y="-83.5" font-family="Helvetica,sans-Serif" font-size="10" text-anchor="middle">TopNPredictionsAccessor</text></a></g></g><g id="edge9" class="edge"><title>Node0-&gt;Node9</title><path fill="none" stroke="#191970" d="M58.3844,-181.687C72.1413,-160.13 97.8285,-124.77 129,-105 135.086,-101.14 141.956,-98.0541 148.942,-95.5892"/><polygon fill="#191970" stroke="#191970" points="55.368 -179.91 53.082 -190.255 61.321 -183.593 55.368 -179.91"/></g><g id="node11" class="node"><title>Node10</title><g id="a_node11"><a target="_top" xlink:href="classarm__compute_1_1graph__utils_1_1_validation_input_accessor.xhtml" xlink:title="Input Accessor used for network validation."><polygon fill="#fff" stroke="#000" points="133.5 -38.5 133.5 -57.5 264.5 -57.5 264.5 -38.5 133.5 -38.5"/><text x="199" y="-45.5" font-family="Helvetica,sans-Serif" font-size="10" text-anchor="middle">ValidationInputAccessor</text></a></g></g><g id="edge10" class="edge"><title>Node0-&gt;Node10</title><path fill="none" stroke="#191970" d="M54.0154,-180.789C64.8795,-151.698 89.4858,-96.7201 129,-67 134.164,-63.1163 140.076,-60.0265 146.221,-57.5682"/><polygon fill="#191970" stroke="#191970" points="50.707 -179.646 50.633 -190.241 57.298 -182.005 50.707 -179.646"/></g><g id="node12" class="node"><title>Node11</title><g id="a_node12"><a target="_top" xlink:href="classarm__compute_1_1graph__utils_1_1_validation_output_accessor.xhtml" xlink:title="Output Accessor used for network validation."><polygon fill="#fff" stroke="#000" points="129 -.5 129 -19.5 269 -19.5 269 -.5 129 -.5"/><text x="199" y="-7.5" font-family="Helvetica,sans-Serif" font-size="10" text-anchor="middle">ValidationOutputAccessor</text></a></g></g><g id="edge11" class="edge"><title>Node0-&gt;Node11</title><path fill="none" stroke="#191970" d="M51.3576,-179.987C59.3195,-144.196 81.0035,-69.2115 129,-29 133.667,-25.0901 139.075,-21.9809 144.77,-19.509"/><polygon fill="#191970" stroke="#191970" points="47.856 -179.633 49.239 -190.137 54.709 -181.064 47.856 -179.633"/></g></g></svg>