<svg xmlns="http://www.w3.org/2000/svg" xmlns:xlink="http://www.w3.org/1999/xlink" width="314pt" height="142pt" viewBox="0 0 314 142"><g id="graph0" class="graph" transform="scale(1 1) rotate(0) translate(4 138)"><title>Graphical Class Hierarchy</title><polygon fill="#fff" stroke="none" points="-4 4 -4 -138 310 -138 310 4 -4 4"/><g id="node1" class="node"><title>Node0</title><g id="a_node1"><a target="_top" xlink:href="classarm__compute_1_1_i_memory_group.xhtml" xlink:title="Memory group interface."><polygon fill="#fff" stroke="#000" points="0 -57.5 0 -76.5 87 -76.5 87 -57.5 0 -57.5"/><text x="43.5" y="-64.5" font-family="Helvetica,sans-Serif" font-size="10" text-anchor="middle">IMemoryGroup</text></a></g></g><g id="node2" class="node"><title>Node1</title><g id="a_node2"><a target="_top" xlink:href="classarm__compute_1_1_memory_group_base.xhtml" xlink:title="Memory group."><polygon fill="#fff" stroke="#000" points="123 -114.5 123 -133.5 306 -133.5 306 -114.5 123 -114.5"/><text x="214.5" y="-121.5" font-family="Helvetica,sans-Serif" font-size="10" text-anchor="middle">MemoryGroupBase&lt; TensorType &gt;</text></a></g></g><g id="edge1" class="edge"><title>Node0-&gt;Node1</title><path fill="none" stroke="#191970" d="M70.2942,-81.4638C85.294,-89.3665 104.78,-98.7819 123,-105 133.94,-108.733 145.884,-111.87 157.404,-114.449"/><polygon fill="#191970" stroke="#191970" points="71.608 -78.196 61.143 -76.538 68.29 -84.36 71.608 -78.196"/></g><g id="node3" class="node"><title>Node2</title><g id="a_node3"><a target="_top" xlink:href="classarm__compute_1_1_memory_group_base.xhtml"><polygon fill="#fff" stroke="#000" points="128 -76.5 128 -95.5 301 -95.5 301 -76.5 128 -76.5"/><text x="214.5" y="-83.5" font-family="Helvetica,sans-Serif" font-size="10" text-anchor="middle">MemoryGroupBase&lt; CLTensor &gt;</text></a></g></g><g id="edge2" class="edge"><title>Node0-&gt;Node2</title><path fill="none" stroke="#191970" d="M97.286,-72.9345C107.285,-74.0586 117.976,-75.2607 128.675,-76.4635"/><polygon fill="#191970" stroke="#191970" points="97.474 -69.434 87.146 -71.794 96.692 -76.39 97.474 -69.434"/></g><g id="node4" class="node"><title>Node3</title><g id="a_node4"><a target="_top" xlink:href="classarm__compute_1_1_memory_group_base.xhtml"><polygon fill="#fff" stroke="#000" points="126.5 -38.5 126.5 -57.5 302.5 -57.5 302.5 -38.5 126.5 -38.5"/><text x="214.5" y="-45.5" font-family="Helvetica,sans-Serif" font-size="10" text-anchor="middle">MemoryGroupBase&lt; GCTensor &gt;</text></a></g></g><g id="edge3" class="edge"><title>Node0-&gt;Node3</title><path fill="none" stroke="#191970" d="M97.286,-61.0655C107.285,-59.9414 117.976,-58.7393 128.675,-57.5365"/><polygon fill="#191970" stroke="#191970" points="96.692 -57.61 87.146 -62.206 97.474 -64.566 96.692 -57.61"/></g><g id="node5" class="node"><title>Node4</title><g id="a_node5"><a target="_top" xlink:href="classarm__compute_1_1_memory_group_base.xhtml"><polygon fill="#fff" stroke="#000" points="133.5 -.5 133.5 -19.5 295.5 -19.5 295.5 -.5 133.5 -.5"/><text x="214.5" y="-7.5" font-family="Helvetica,sans-Serif" font-size="10" text-anchor="middle">MemoryGroupBase&lt; Tensor &gt;</text></a></g></g><g id="edge4" class="edge"><title>Node0-&gt;Node4</title><path fill="none" stroke="#191970" d="M70.2942,-52.5362C85.294,-44.6335 104.78,-35.2181 123,-29 133.94,-25.2666 145.884,-22.1302 157.404,-19.5505"/><polygon fill="#191970" stroke="#191970" points="68.29 -49.64 61.143 -57.462 71.608 -55.804 68.29 -49.64"/></g></g></svg>