<svg xmlns="http://www.w3.org/2000/svg" xmlns:xlink="http://www.w3.org/1999/xlink" width="272pt" height="52" viewBox="0 0 272 39"><g id="graph0" class="graph" transform="scale(1 1) rotate(0) translate(4 35)"><title>Graphical Class Hierarchy</title><polygon fill="#fff" stroke="none" points="-4 4 -4 -35 268 -35 268 4 -4 4"/><g id="node1" class="node"><title>Node0</title><g id="a_node1"><a target="_top" xlink:href="structarm__compute_1_1traits_1_1is__contained.xhtml"><polygon fill="#fff" stroke="#000" points="0 -.5 0 -30.5 114 -30.5 114 -.5 0 -.5"/><text x="8" y="-18.5" font-family="Helvetica,sans-Serif" font-size="10" text-anchor="start">is_contained&lt; T, std</text><text x="57" y="-7.5" font-family="Helvetica,sans-Serif" font-size="10" text-anchor="middle">::tuple&lt; Ts... &gt; &gt;</text></a></g></g><g id="node2" class="node"><title>Node1</title><g id="a_node2"><a target="_top" xlink:href="structarm__compute_1_1traits_1_1is__contained_3_01_t_00_01std_1_1tuple_3_01_u_00_01_ts_8_8_8_01_4_01_4.xhtml"><polygon fill="#fff" stroke="#000" points="150 -.5 150 -30.5 264 -30.5 264 -.5 150 -.5"/><text x="158" y="-18.5" font-family="Helvetica,sans-Serif" font-size="10" text-anchor="start">is_contained&lt; T, std</text><text x="207" y="-7.5" font-family="Helvetica,sans-Serif" font-size="10" text-anchor="middle">::tuple&lt; U, Ts... &gt; &gt;</text></a></g></g><g id="edge1" class="edge"><title>Node0-&gt;Node1</title><path fill="none" stroke="#191970" d="M124.558,-15.5C132.984,-15.5 141.539,-15.5 149.782,-15.5"/><polygon fill="#191970" stroke="#191970" points="124.375 -12 114.375 -15.5 124.375 -19 124.375 -12"/></g></g></svg>