<svg xmlns="http://www.w3.org/2000/svg" xmlns:xlink="http://www.w3.org/1999/xlink" width="492" height="88" viewBox="0 0 369 66"><g id="graph0" class="graph" transform="scale(1 1) rotate(0) translate(4 62)"><title>Graphical Class Hierarchy</title><polygon fill="#fff" stroke="none" points="-4 4 -4 -62 365 -62 365 4 -4 4"/><g id="node1" class="node"><title>Node0</title><g id="a_node1"><a target="_top" xlink:href="classarm__compute_1_1misc_1_1_i_cloneable.xhtml"><polygon fill="#fff" stroke="#000" points="0 -19.5 0 -38.5 139 -38.5 139 -19.5 0 -19.5"/><text x="69.5" y="-26.5" font-family="Helvetica,sans-Serif" font-size="10" text-anchor="middle">ICloneable&lt; ITensorInfo &gt;</text></a></g></g><g id="node2" class="node"><title>Node1</title><g id="a_node2"><a target="_top" xlink:href="classarm__compute_1_1_i_tensor_info.xhtml" xlink:title="Store the tensor's metadata."><polygon fill="#fff" stroke="#000" points="175 -19.5 175 -38.5 242 -38.5 242 -19.5 175 -19.5"/><text x="208.5" y="-26.5" font-family="Helvetica,sans-Serif" font-size="10" text-anchor="middle">ITensorInfo</text></a></g></g><g id="edge1" class="edge"><title>Node0-&gt;Node1</title><path fill="none" stroke="#191970" d="M149.531,-29C158.44,-29 167.107,-29 174.907,-29"/><polygon fill="#191970" stroke="#191970" points="149.401 -25.5 139.401 -29 149.401 -32.5 149.401 -25.5"/></g><g id="node3" class="node"><title>Node2</title><g id="a_node3"><a target="_top" xlink:href="classarm__compute_1_1_sub_tensor_info.xhtml" xlink:title="Store the sub tensor's metadata."><polygon fill="#fff" stroke="#000" points="278 -38.5 278 -57.5 361 -57.5 361 -38.5 278 -38.5"/><text x="319.5" y="-45.5" font-family="Helvetica,sans-Serif" font-size="10" text-anchor="middle">SubTensorInfo</text></a></g></g><g id="edge2" class="edge"><title>Node1-&gt;Node2</title><path fill="none" stroke="#191970" d="M252.192,-36.4418C260.588,-37.9052 269.376,-39.437 277.707,-40.8892"/><polygon fill="#191970" stroke="#191970" points="252.656 -32.97 242.204 -34.701 251.454 -39.866 252.656 -32.97"/></g><g id="node4" class="node"><title>Node3</title><g id="a_node4"><a target="_top" xlink:href="classarm__compute_1_1_tensor_info.xhtml" xlink:title="Store the tensor's metadata."><polygon fill="#fff" stroke="#000" points="287 -.5 287 -19.5 352 -19.5 352 -.5 287 -.5"/><text x="319.5" y="-7.5" font-family="Helvetica,sans-Serif" font-size="10" text-anchor="middle">TensorInfo</text></a></g></g><g id="edge3" class="edge"><title>Node1-&gt;Node3</title><path fill="none" stroke="#191970" d="M252.142,-21.5669C263.737,-19.5459 276.083,-17.3938 286.943,-15.5008"/><polygon fill="#191970" stroke="#191970" points="251.454 -18.134 242.204 -23.299 252.656 -25.03 251.454 -18.134"/></g></g></svg>