<svg xmlns="http://www.w3.org/2000/svg" xmlns:xlink="http://www.w3.org/1999/xlink" width="197pt" height="88" viewBox="0 0 197 66"><g id="graph0" class="graph" transform="scale(1 1) rotate(0) translate(4 62)"><title>Graphical Class Hierarchy</title><polygon fill="#fff" stroke="none" points="-4 4 -4 -62 193 -62 193 4 -4 4"/><g id="node1" class="node"><title>Node0</title><g id="a_node1"><a target="_top" xlink:href="classarm__compute_1_1utils_1_1_i_image_loader.xhtml" xlink:title="Image loader interface."><polygon fill="#fff" stroke="#000" points="0 -19.5 0 -38.5 82 -38.5 82 -19.5 0 -19.5"/><text x="41" y="-26.5" font-family="Helvetica,sans-Serif" font-size="10" text-anchor="middle">IImageLoader</text></a></g></g><g id="node2" class="node"><title>Node1</title><g id="a_node2"><a target="_top" xlink:href="classarm__compute_1_1utils_1_1_j_p_e_g_loader.xhtml" xlink:title="Class to load the content of a JPEG file into an Image."><polygon fill="#fff" stroke="#000" points="118 -38.5 118 -57.5 189 -57.5 189 -38.5 118 -38.5"/><text x="153.5" y="-45.5" font-family="Helvetica,sans-Serif" font-size="10" text-anchor="middle">JPEGLoader</text></a></g></g><g id="edge1" class="edge"><title>Node0-&gt;Node1</title><path fill="none" stroke="#191970" d="M92.2784,-37.6451C100.968,-39.1393 109.823,-40.6618 117.974,-42.0634"/><polygon fill="#191970" stroke="#191970" points="92.654 -34.158 82.206 -35.913 91.468 -41.057 92.654 -34.158"/></g><g id="node3" class="node"><title>Node2</title><g id="a_node3"><a target="_top" xlink:href="classarm__compute_1_1utils_1_1_p_p_m_loader.xhtml" xlink:title="PPM Image loader concrete implementation."><polygon fill="#fff" stroke="#000" points="118.5 -.5 118.5 -19.5 188.5 -19.5 188.5 -.5 118.5 -.5"/><text x="153.5" y="-7.5" font-family="Helvetica,sans-Serif" font-size="10" text-anchor="middle">PPMLoader</text></a></g></g><g id="edge2" class="edge"><title>Node0-&gt;Node2</title><path fill="none" stroke="#191970" d="M92.0994,-20.3856C100.974,-18.8598 110.026,-17.3032 118.332,-15.8751"/><polygon fill="#191970" stroke="#191970" points="91.468 -16.943 82.206 -22.087 92.654 -23.841 91.468 -16.943"/></g></g></svg>