<svg xmlns="http://www.w3.org/2000/svg" xmlns:xlink="http://www.w3.org/1999/xlink" width="242pt" height="1282pt" viewBox="0 0 242 1282"><g id="graph0" class="graph" transform="scale(1 1) rotate(0) translate(4 1278)"><title>Graphical Class Hierarchy</title><polygon fill="#fff" stroke="none" points="-4 4 -4 -1278 238 -1278 238 4 -4 4"/><g id="node1" class="node"><title>Node0</title><g id="a_node1"><a target="_top" xlink:href="classarm__compute_1_1graph_1_1frontend_1_1_i_layer.xhtml" xlink:title="ILayer interface."><polygon fill="#fff" stroke="#000" points="0 -627.5 0 -646.5 45 -646.5 45 -627.5 0 -627.5"/><text x="22.5" y="-634.5" font-family="Helvetica,sans-Serif" font-size="10" text-anchor="middle">ILayer</text></a></g></g><g id="node2" class="node"><title>Node1</title><g id="a_node2"><a target="_top" xlink:href="classarm__compute_1_1graph_1_1frontend_1_1_activation_layer.xhtml" xlink:title="Activation Layer."><polygon fill="#fff" stroke="#000" points="112.5 -1254.5 112.5 -1273.5 202.5 -1273.5 202.5 -1254.5 112.5 -1254.5"/><text x="157.5" y="-1261.5" font-family="Helvetica,sans-Serif" font-size="10" text-anchor="middle">ActivationLayer</text></a></g></g><g id="edge1" class="edge"><title>Node0-&gt;Node1</title><path fill="none" stroke="#191970" d="M24.0374,-656.866C26.9094,-756.557 41.8101,-1199.34 81,-1245 88.9227,-1254.23 100.606,-1259.32 112.427,-1262.04"/><polygon fill="#191970" stroke="#191970" points="27.531 -656.582 23.752 -646.684 20.534 -656.778 27.531 -656.582"/></g><g id="node3" class="node"><title>Node2</title><g id="a_node3"><a target="_top" xlink:href="classarm__compute_1_1graph_1_1frontend_1_1_batch_normalization_layer.xhtml" xlink:title="Batchnormalization Layer."><polygon fill="#fff" stroke="#000" points="89 -1216.5 89 -1235.5 226 -1235.5 226 -1216.5 89 -1216.5"/><text x="157.5" y="-1223.5" font-family="Helvetica,sans-Serif" font-size="10" text-anchor="middle">BatchNormalizationLayer</text></a></g></g><g id="edge2" class="edge"><title>Node0-&gt;Node2</title><path fill="none" stroke="#191970" d="M24.1673,-656.806C27.5674,-752.54 44.2564,-1164.46 81,-1207 84.2689,-1210.78 88.1701,-1213.87 92.4524,-1216.39"/><polygon fill="#191970" stroke="#191970" points="27.655 -656.4 23.811 -646.527 20.66 -656.643 27.655 -656.4"/></g><g id="node4" class="node"><title>Node3</title><g id="a_node4"><a target="_top" xlink:href="classarm__compute_1_1graph_1_1frontend_1_1_bounding_box_transform_layer.xhtml" xlink:title="Bounding Box Transform Layer."><polygon fill="#fff" stroke="#000" points="81 -1178.5 81 -1197.5 234 -1197.5 234 -1178.5 81 -1178.5"/><text x="157.5" y="-1185.5" font-family="Helvetica,sans-Serif" font-size="10" text-anchor="middle">BoundingBoxTransformLayer</text></a></g></g><g id="edge3" class="edge"><title>Node0-&gt;Node3</title><path fill="none" stroke="#191970" d="M24.3227,-656.924C28.2955,-748.895 46.7203,-1129.6 81,-1169 84.2824,-1172.77 88.1931,-1175.85 92.482,-1178.36"/><polygon fill="#191970" stroke="#191970" points="27.812 -656.6 23.892 -646.757 20.819 -656.897 27.812 -656.6"/></g><g id="node5" class="node"><title>Node4</title><g id="a_node5"><a target="_top" xlink:href="classarm__compute_1_1graph_1_1frontend_1_1_channel_shuffle_layer.xhtml" xlink:title="Channel Shuffle Layer."><polygon fill="#fff" stroke="#000" points="100 -1140.5 100 -1159.5 215 -1159.5 215 -1140.5 100 -1140.5"/><text x="157.5" y="-1147.5" font-family="Helvetica,sans-Serif" font-size="10" text-anchor="middle">ChannelShuffleLayer</text></a></g></g><g id="edge4" class="edge"><title>Node0-&gt;Node4</title><path fill="none" stroke="#191970" d="M24.5087,-657.15C29.1011,-745.363 49.1909,-1094.74 81,-1131 86.0805,-1136.79 92.6416,-1140.95 99.772,-1143.91"/><polygon fill="#191970" stroke="#191970" points="27.991 -656.707 23.984 -646.899 21 -657.065 27.991 -656.707"/></g><g id="node6" class="node"><title>Node5</title><g id="a_node6"><a target="_top" xlink:href="classarm__compute_1_1graph_1_1frontend_1_1_concat_layer.xhtml" xlink:title="Concat Layer."><polygon fill="#fff" stroke="#000" points="119 -1102.5 119 -1121.5 196 -1121.5 196 -1102.5 119 -1102.5"/><text x="157.5" y="-1109.5" font-family="Helvetica,sans-Serif" font-size="10" text-anchor="middle">ConcatLayer</text></a></g></g><g id="edge5" class="edge"><title>Node0-&gt;Node5</title><path fill="none" stroke="#191970" d="M23.1476,-656.915C22.1641,-736.044 22.6332,-1027.1 81,-1093 90.4993,-1103.73 105.076,-1108.83 118.897,-1111.12"/><polygon fill="#191970" stroke="#191970" points="26.648 -656.881 23.297 -646.83 19.649 -656.778 26.648 -656.881"/></g><g id="node7" class="node"><title>Node6</title><g id="a_node7"><a target="_top" xlink:href="classarm__compute_1_1graph_1_1frontend_1_1_convolution_layer.xhtml" xlink:title="Convolution Layer."><polygon fill="#fff" stroke="#000" points="108 -1064.5 108 -1083.5 207 -1083.5 207 -1064.5 108 -1064.5"/><text x="157.5" y="-1071.5" font-family="Helvetica,sans-Serif" font-size="10" text-anchor="middle">ConvolutionLayer</text></a></g></g><g id="edge6" class="edge"><title>Node0-&gt;Node6</title><path fill="none" stroke="#191970" d="M23.4024,-657.138C23.457,-732.319 27.5305,-995.31 81,-1055 88.0344,-1062.85 97.7912,-1067.68 107.958,-1070.61"/><polygon fill="#191970" stroke="#191970" points="26.903 -656.751 23.421 -646.744 19.903 -656.738 26.903 -656.751"/></g><g id="node8" class="node"><title>Node7</title><g id="a_node8"><a target="_top" xlink:href="classarm__compute_1_1graph_1_1frontend_1_1_deconvolution_layer.xhtml" xlink:title="Deconvolution Layer."><polygon fill="#fff" stroke="#000" points="102 -1026.5 102 -1045.5 213 -1045.5 213 -1026.5 102 -1026.5"/><text x="157.5" y="-1033.5" font-family="Helvetica,sans-Serif" font-size="10" text-anchor="middle">DeconvolutionLayer</text></a></g></g><g id="edge7" class="edge"><title>Node0-&gt;Node7</title><path fill="none" stroke="#191970" d="M23.7022,-656.653C24.8299,-726.767 32.2449,-963.305 81,-1017 86.6334,-1023.2 93.9665,-1027.52 101.846,-1030.49"/><polygon fill="#191970" stroke="#191970" points="27.201 -656.502 23.566 -646.55 20.201 -656.597 27.201 -656.502"/></g><g id="node9" class="node"><title>Node8</title><g id="a_node9"><a target="_top" xlink:href="classarm__compute_1_1graph_1_1frontend_1_1_depthwise_convolution_layer.xhtml" xlink:title="Depthwise Convolution Layer."><polygon fill="#fff" stroke="#000" points="83 -988.5 83 -1007.5 232 -1007.5 232 -988.5 83 -988.5"/><text x="157.5" y="-995.5" font-family="Helvetica,sans-Serif" font-size="10" text-anchor="middle">DepthwiseConvolutionLayer</text></a></g></g><g id="edge8" class="edge"><title>Node0-&gt;Node8</title><path fill="none" stroke="#191970" d="M24.0713,-656.769C26.3726,-722.374 37.0817,-931.421 81,-979 84.4838,-982.774 88.5968,-985.846 93.0756,-988.342"/><polygon fill="#191970" stroke="#191970" points="27.563 -656.451 23.742 -646.569 20.567 -656.677 27.563 -656.451"/></g><g id="node10" class="node"><title>Node9</title><g id="a_node10"><a target="_top" xlink:href="classarm__compute_1_1graph_1_1frontend_1_1_detection_output_layer.xhtml" xlink:title="DetectionOutput Layer."><polygon fill="#fff" stroke="#000" points="96.5 -950.5 96.5 -969.5 218.5 -969.5 218.5 -950.5 96.5 -950.5"/><text x="157.5" y="-957.5" font-family="Helvetica,sans-Serif" font-size="10" text-anchor="middle">DetectionOutputLayer</text></a></g></g><g id="edge9" class="edge"><title>Node0-&gt;Node9</title><path fill="none" stroke="#191970" d="M24.5358,-656.909C28.1049,-717.732 41.8991,-899.496 81,-941 85.3562,-945.624 90.6577,-949.19 96.4106,-951.932"/><polygon fill="#191970" stroke="#191970" points="28.02 -656.516 23.969 -646.726 21.03 -656.905 28.02 -656.516"/></g><g id="node11" class="node"><title>Node10</title><g id="a_node11"><a target="_top" xlink:href="classarm__compute_1_1graph_1_1frontend_1_1_detection_post_process_layer.xhtml" xlink:title="DetectionOutputPostProcess Layer."><polygon fill="#fff" stroke="#000" points="83.5 -912.5 83.5 -931.5 231.5 -931.5 231.5 -912.5 83.5 -912.5"/><text x="157.5" y="-919.5" font-family="Helvetica,sans-Serif" font-size="10" text-anchor="middle">DetectionPostProcessLayer</text></a></g></g><g id="edge10" class="edge"><title>Node0-&gt;Node10</title><path fill="none" stroke="#191970" d="M25.1235,-656.917C30.0534,-712.487 46.6595,-867.484 81,-903 84.6642,-906.79 88.9642,-909.866 93.6213,-912.357"/><polygon fill="#191970" stroke="#191970" points="28.585 -656.312 24.247 -646.646 21.61 -656.908 28.585 -656.312"/></g><g id="node12" class="node"><title>Node11</title><g id="a_node12"><a target="_top" xlink:href="classarm__compute_1_1graph_1_1frontend_1_1_dummy_layer.xhtml" xlink:title="Dummy Layer."><polygon fill="#fff" stroke="#000" points="117 -874.5 117 -893.5 198 -893.5 198 -874.5 117 -874.5"/><text x="157.5" y="-881.5" font-family="Helvetica,sans-Serif" font-size="10" text-anchor="middle">DummyLayer</text></a></g></g><g id="edge11" class="edge"><title>Node0-&gt;Node11</title><path fill="none" stroke="#191970" d="M25.8671,-656.66C32.2446,-706.391 51.3337,-835.349 81,-865 90.4643,-874.46 103.9,-879.444 116.819,-882"/><polygon fill="#191970" stroke="#191970" points="29.319 -656.056 24.609 -646.565 22.373 -656.921 29.319 -656.056"/></g><g id="node13" class="node"><title>Node12</title><g id="a_node13"><a target="_top" xlink:href="classarm__compute_1_1graph_1_1frontend_1_1_eltwise_layer.xhtml"><polygon fill="#fff" stroke="#000" points="120 -836.5 120 -855.5 195 -855.5 195 -836.5 120 -836.5"/><text x="157.5" y="-843.5" font-family="Helvetica,sans-Serif" font-size="10" text-anchor="middle">EltwiseLayer</text></a></g></g><g id="edge12" class="edge"><title>Node0-&gt;Node12</title><path fill="none" stroke="#191970" d="M23.4718,-656.953C24.549,-695.59 32.6334,-780.87 81,-827 91.3678,-836.888 106.094,-841.845 119.792,-844.26"/><polygon fill="#191970" stroke="#191970" points="26.966 -656.504 23.326 -646.554 19.967 -656.602 26.966 -656.504"/></g><g id="node14" class="node"><title>Node13</title><g id="a_node14"><a target="_top" xlink:href="classarm__compute_1_1graph_1_1frontend_1_1_flatten_layer.xhtml" xlink:title="Flatten Layer."><polygon fill="#fff" stroke="#000" points="119.5 -798.5 119.5 -817.5 195.5 -817.5 195.5 -798.5 119.5 -798.5"/><text x="157.5" y="-805.5" font-family="Helvetica,sans-Serif" font-size="10" text-anchor="middle">FlattenLayer</text></a></g></g><g id="edge13" class="edge"><title>Node0-&gt;Node13</title><path fill="none" stroke="#191970" d="M25.1975,-656.547C29.0902,-689.004 41.6177,-753.909 81,-789 91.4951,-798.352 105.923,-803.241 119.357,-805.75"/><polygon fill="#191970" stroke="#191970" points="28.67 -656.105 24.151 -646.522 21.708 -656.832 28.67 -656.105"/></g><g id="node15" class="node"><title>Node14</title><g id="a_node15"><a target="_top" xlink:href="classarm__compute_1_1graph_1_1frontend_1_1_fully_connected_layer.xhtml" xlink:title="Fully Connected Layer."><polygon fill="#fff" stroke="#000" points="100 -760.5 100 -779.5 215 -779.5 215 -760.5 100 -760.5"/><text x="157.5" y="-767.5" font-family="Helvetica,sans-Serif" font-size="10" text-anchor="middle">FullyConnectedLayer</text></a></g></g><g id="edge14" class="edge"><title>Node0-&gt;Node14</title><path fill="none" stroke="#191970" d="M28.0209,-656.696C34.9507,-682.341 50.7017,-726.744 81,-751 86.5923,-755.477 93.1051,-758.915 99.9176,-761.551"/><polygon fill="#191970" stroke="#191970" points="31.334 -655.517 25.505 -646.669 24.544 -657.22 31.334 -655.517"/></g><g id="node16" class="node"><title>Node15</title><g id="a_node16"><a target="_top" xlink:href="classarm__compute_1_1graph_1_1frontend_1_1_generate_proposals_layer.xhtml" xlink:title="Generate Proposals Layer."><polygon fill="#fff" stroke="#000" points="90.5 -722.5 90.5 -741.5 224.5 -741.5 224.5 -722.5 90.5 -722.5"/><text x="157.5" y="-729.5" font-family="Helvetica,sans-Serif" font-size="10" text-anchor="middle">GenerateProposalsLayer</text></a></g></g><g id="edge15" class="edge"><title>Node0-&gt;Node15</title><path fill="none" stroke="#191970" d="M32.9003,-655.821C42.5881,-673.274 59.3192,-698.646 81,-713 86.8604,-716.88 93.4552,-719.968 100.244,-722.425"/><polygon fill="#191970" stroke="#191970" points="35.795 -653.807 28.026 -646.604 29.607 -657.08 35.795 -653.807"/></g><g id="node17" class="node"><title>Node16</title><g id="a_node17"><a target="_top" xlink:href="classarm__compute_1_1graph_1_1frontend_1_1_input_layer.xhtml" xlink:title="Input Layer."><polygon fill="#fff" stroke="#000" points="124 -684.5 124 -703.5 191 -703.5 191 -684.5 124 -684.5"/><text x="157.5" y="-691.5" font-family="Helvetica,sans-Serif" font-size="10" text-anchor="middle">InputLayer</text></a></g></g><g id="edge16" class="edge"><title>Node0-&gt;Node16</title><path fill="none" stroke="#191970" d="M43.7351,-652.815C54.336,-660.45 67.8273,-669.192 81,-675 94.4807,-680.944 110.169,-685.27 123.741,-688.28"/><polygon fill="#191970" stroke="#191970" points="45.693 -649.909 35.581 -646.75 41.516 -655.526 45.693 -649.909"/></g><g id="node18" class="node"><title>Node17</title><g id="a_node18"><a target="_top" xlink:href="classarm__compute_1_1graph_1_1frontend_1_1_normalization_layer.xhtml" xlink:title="Normalization Layer."><polygon fill="#fff" stroke="#000" points="102.5 -646.5 102.5 -665.5 212.5 -665.5 212.5 -646.5 102.5 -646.5"/><text x="157.5" y="-653.5" font-family="Helvetica,sans-Serif" font-size="10" text-anchor="middle">NormalizationLayer</text></a></g></g><g id="edge17" class="edge"><title>Node0-&gt;Node17</title><path fill="none" stroke="#191970" d="M55.3208,-641.546C69.4221,-643.56 86.4122,-645.987 102.409,-648.273"/><polygon fill="#191970" stroke="#191970" points="55.559 -638.044 45.165 -640.095 54.569 -644.974 55.559 -638.044"/></g><g id="node19" class="node"><title>Node18</title><g id="a_node19"><a target="_top" xlink:href="classarm__compute_1_1graph_1_1frontend_1_1_normalize_planar_y_u_v_layer.xhtml" xlink:title="Normalize planar YUV Layer."><polygon fill="#fff" stroke="#000" points="87 -608.5 87 -627.5 228 -627.5 228 -608.5 87 -608.5"/><text x="157.5" y="-615.5" font-family="Helvetica,sans-Serif" font-size="10" text-anchor="middle">NormalizePlanarYUVLayer</text></a></g></g><g id="edge18" class="edge"><title>Node0-&gt;Node18</title><path fill="none" stroke="#191970" d="M55.3699,-632.447C65.7697,-630.961 77.7368,-629.252 89.7161,-627.541"/><polygon fill="#191970" stroke="#191970" points="54.569 -629.026 45.165 -633.905 55.559 -635.956 54.569 -629.026"/></g><g id="node20" class="node"><title>Node19</title><g id="a_node20"><a target="_top" xlink:href="classarm__compute_1_1graph_1_1frontend_1_1_output_layer.xhtml" xlink:title="Output Layer."><polygon fill="#fff" stroke="#000" points="119.5 -570.5 119.5 -589.5 195.5 -589.5 195.5 -570.5 119.5 -570.5"/><text x="157.5" y="-577.5" font-family="Helvetica,sans-Serif" font-size="10" text-anchor="middle">OutputLayer</text></a></g></g><g id="edge19" class="edge"><title>Node0-&gt;Node19</title><path fill="none" stroke="#191970" d="M43.7351,-621.185C54.336,-613.55 67.8273,-604.808 81,-599 92.9966,-593.711 106.742,-589.702 119.188,-586.763"/><polygon fill="#191970" stroke="#191970" points="41.516 -618.474 35.581 -627.25 45.693 -624.091 41.516 -618.474"/></g><g id="node21" class="node"><title>Node20</title><g id="a_node21"><a target="_top" xlink:href="classarm__compute_1_1graph_1_1frontend_1_1_pad_layer.xhtml" xlink:title="Pad Layer."><polygon fill="#fff" stroke="#000" points="127.5 -532.5 127.5 -551.5 187.5 -551.5 187.5 -532.5 127.5 -532.5"/><text x="157.5" y="-539.5" font-family="Helvetica,sans-Serif" font-size="10" text-anchor="middle">PadLayer</text></a></g></g><g id="edge20" class="edge"><title>Node0-&gt;Node20</title><path fill="none" stroke="#191970" d="M32.9003,-618.179C42.5881,-600.726 59.3192,-575.354 81,-561 94.7495,-551.897 112.541,-547.155 127.399,-544.685"/><polygon fill="#191970" stroke="#191970" points="29.607 -616.92 28.026 -627.396 35.795 -620.193 29.607 -616.92"/></g><g id="node22" class="node"><title>Node21</title><g id="a_node22"><a target="_top" xlink:href="classarm__compute_1_1graph_1_1frontend_1_1_permute_layer.xhtml" xlink:title="Permute Layer."><polygon fill="#fff" stroke="#000" points="115.5 -494.5 115.5 -513.5 199.5 -513.5 199.5 -494.5 115.5 -494.5"/><text x="157.5" y="-501.5" font-family="Helvetica,sans-Serif" font-size="10" text-anchor="middle">PermuteLayer</text></a></g></g><g id="edge21" class="edge"><title>Node0-&gt;Node21</title><path fill="none" stroke="#191970" d="M28.0209,-617.304C34.9507,-591.659 50.7017,-547.256 81,-523 90.7074,-515.229 103.188,-510.589 115.196,-507.834"/><polygon fill="#191970" stroke="#191970" points="24.544 -616.78 25.505 -627.331 31.334 -618.483 24.544 -616.78"/></g><g id="node23" class="node"><title>Node22</title><g id="a_node23"><a target="_top" xlink:href="classarm__compute_1_1graph_1_1frontend_1_1_pooling_layer.xhtml" xlink:title="Pooling Layer."><polygon fill="#fff" stroke="#000" points="119 -456.5 119 -475.5 196 -475.5 196 -456.5 119 -456.5"/><text x="157.5" y="-463.5" font-family="Helvetica,sans-Serif" font-size="10" text-anchor="middle">PoolingLayer</text></a></g></g><g id="edge22" class="edge"><title>Node0-&gt;Node22</title><path fill="none" stroke="#191970" d="M25.1975,-617.453C29.0902,-584.996 41.6177,-520.091 81,-485 91.3942,-475.738 105.646,-470.854 118.969,-468.323"/><polygon fill="#191970" stroke="#191970" points="21.708 -617.168 24.151 -627.478 28.67 -617.895 21.708 -617.168"/></g><g id="node24" class="node"><title>Node23</title><g id="a_node24"><a target="_top" xlink:href="classarm__compute_1_1graph_1_1frontend_1_1_prior_box_layer.xhtml" xlink:title="PriorBox Layer."><polygon fill="#fff" stroke="#000" points="116 -418.5 116 -437.5 199 -437.5 199 -418.5 116 -418.5"/><text x="157.5" y="-425.5" font-family="Helvetica,sans-Serif" font-size="10" text-anchor="middle">PriorBoxLayer</text></a></g></g><g id="edge23" class="edge"><title>Node0-&gt;Node23</title><path fill="none" stroke="#191970" d="M23.4718,-617.047C24.549,-578.41 32.6334,-493.13 81,-447 90.3897,-438.045 103.354,-433.134 115.892,-430.494"/><polygon fill="#191970" stroke="#191970" points="19.967 -617.398 23.326 -627.446 26.966 -617.496 19.967 -617.398"/></g><g id="node25" class="node"><title>Node24</title><g id="a_node25"><a target="_top" xlink:href="classarm__compute_1_1graph_1_1frontend_1_1_quantization_layer.xhtml" xlink:title="Quantization Layer."><polygon fill="#fff" stroke="#000" points="105.5 -380.5 105.5 -399.5 209.5 -399.5 209.5 -380.5 105.5 -380.5"/><text x="157.5" y="-387.5" font-family="Helvetica,sans-Serif" font-size="10" text-anchor="middle">QuantizationLayer</text></a></g></g><g id="edge24" class="edge"><title>Node0-&gt;Node24</title><path fill="none" stroke="#191970" d="M25.8671,-617.34C32.2446,-567.609 51.3337,-438.651 81,-409 87.6919,-402.311 96.3692,-397.86 105.446,-394.923"/><polygon fill="#191970" stroke="#191970" points="22.373 -617.079 24.609 -627.435 29.319 -617.944 22.373 -617.079"/></g><g id="node26" class="node"><title>Node25</title><g id="a_node26"><a target="_top" xlink:href="classarm__compute_1_1graph_1_1frontend_1_1_reorg_layer.xhtml" xlink:title="Reorg Layer."><polygon fill="#fff" stroke="#000" points="122.5 -342.5 122.5 -361.5 192.5 -361.5 192.5 -342.5 122.5 -342.5"/><text x="157.5" y="-349.5" font-family="Helvetica,sans-Serif" font-size="10" text-anchor="middle">ReorgLayer</text></a></g></g><g id="edge25" class="edge"><title>Node0-&gt;Node25</title><path fill="none" stroke="#191970" d="M25.1235,-617.083C30.0534,-561.513 46.6595,-406.516 81,-371 91.7107,-359.923 107.854,-354.943 122.468,-352.828"/><polygon fill="#191970" stroke="#191970" points="21.61 -617.092 24.247 -627.354 28.585 -617.688 21.61 -617.092"/></g><g id="node27" class="node"><title>Node26</title><g id="a_node27"><a target="_top" xlink:href="classarm__compute_1_1graph_1_1frontend_1_1_reshape_layer.xhtml" xlink:title="Reshape Layer."><polygon fill="#fff" stroke="#000" points="116 -304.5 116 -323.5 199 -323.5 199 -304.5 116 -304.5"/><text x="157.5" y="-311.5" font-family="Helvetica,sans-Serif" font-size="10" text-anchor="middle">ReshapeLayer</text></a></g></g><g id="edge26" class="edge"><title>Node0-&gt;Node26</title><path fill="none" stroke="#191970" d="M24.5358,-617.091C28.1049,-556.268 41.8991,-374.504 81,-333 89.9904,-323.457 103.007,-318.418 115.709,-315.84"/><polygon fill="#191970" stroke="#191970" points="21.03 -617.095 23.969 -627.274 28.02 -617.484 21.03 -617.095"/></g><g id="node28" class="node"><title>Node27</title><g id="a_node28"><a target="_top" xlink:href="classarm__compute_1_1graph_1_1frontend_1_1_resize_layer.xhtml" xlink:title="Resize Layer."><polygon fill="#fff" stroke="#000" points="121 -266.5 121 -285.5 194 -285.5 194 -266.5 121 -266.5"/><text x="157.5" y="-273.5" font-family="Helvetica,sans-Serif" font-size="10" text-anchor="middle">ResizeLayer</text></a></g></g><g id="edge27" class="edge"><title>Node0-&gt;Node27</title><path fill="none" stroke="#191970" d="M24.0713,-617.231C26.3726,-551.626 37.0817,-342.579 81,-295 91.0846,-284.075 106.442,-279.031 120.68,-276.83"/><polygon fill="#191970" stroke="#191970" points="20.567 -617.323 23.742 -627.431 27.563 -617.549 20.567 -617.323"/></g><g id="node29" class="node"><title>Node28</title><g id="a_node29"><a target="_top" xlink:href="classarm__compute_1_1graph_1_1frontend_1_1_r_o_i_align_layer.xhtml" xlink:title="ROIAlign Layer."><polygon fill="#fff" stroke="#000" points="116.5 -228.5 116.5 -247.5 198.5 -247.5 198.5 -228.5 116.5 -228.5"/><text x="157.5" y="-235.5" font-family="Helvetica,sans-Serif" font-size="10" text-anchor="middle">ROIAlignLayer</text></a></g></g><g id="edge28" class="edge"><title>Node0-&gt;Node28</title><path fill="none" stroke="#191970" d="M23.7022,-617.347C24.8299,-547.233 32.2449,-310.695 81,-257 89.9952,-247.093 103.324,-242.007 116.29,-239.495"/><polygon fill="#191970" stroke="#191970" points="20.201 -617.403 23.566 -627.45 27.201 -617.498 20.201 -617.403"/></g><g id="node30" class="node"><title>Node29</title><g id="a_node30"><a target="_top" xlink:href="classarm__compute_1_1graph_1_1frontend_1_1_scale_layer.xhtml" xlink:title="Scale Layer."><polygon fill="#fff" stroke="#000" points="123 -190.5 123 -209.5 192 -209.5 192 -190.5 123 -190.5"/><text x="157.5" y="-197.5" font-family="Helvetica,sans-Serif" font-size="10" text-anchor="middle">ScaleLayer</text></a></g></g><g id="edge29" class="edge"><title>Node0-&gt;Node29</title><path fill="none" stroke="#191970" d="M23.4024,-616.862C23.457,-541.681 27.5305,-278.69 81,-219 91.4614,-207.321 107.944,-202.326 122.843,-200.354"/><polygon fill="#191970" stroke="#191970" points="19.903 -617.262 23.421 -627.256 26.903 -617.249 19.903 -617.262"/></g><g id="node31" class="node"><title>Node30</title><g id="a_node31"><a target="_top" xlink:href="classarm__compute_1_1graph_1_1frontend_1_1_slice_layer.xhtml" xlink:title="Slice Layer."><polygon fill="#fff" stroke="#000" points="125 -152.5 125 -171.5 190 -171.5 190 -152.5 125 -152.5"/><text x="157.5" y="-159.5" font-family="Helvetica,sans-Serif" font-size="10" text-anchor="middle">SliceLayer</text></a></g></g><g id="edge30" class="edge"><title>Node0-&gt;Node30</title><path fill="none" stroke="#191970" d="M23.1476,-617.085C22.1641,-537.956 22.6332,-246.901 81,-181 91.8435,-168.757 109.304,-163.843 124.703,-162.064"/><polygon fill="#191970" stroke="#191970" points="19.649 -617.222 23.297 -627.17 26.648 -617.119 19.649 -617.222"/></g><g id="node32" class="node"><title>Node31</title><g id="a_node32"><a target="_top" xlink:href="classarm__compute_1_1graph_1_1frontend_1_1_softmax_layer.xhtml" xlink:title="Softmax Layer."><polygon fill="#fff" stroke="#000" points="116 -114.5 116 -133.5 199 -133.5 199 -114.5 116 -114.5"/><text x="157.5" y="-121.5" font-family="Helvetica,sans-Serif" font-size="10" text-anchor="middle">SoftmaxLayer</text></a></g></g><g id="edge31" class="edge"><title>Node0-&gt;Node31</title><path fill="none" stroke="#191970" d="M24.5087,-616.85C29.1011,-528.637 49.1909,-179.263 81,-143 89.7349,-133.042 102.846,-127.924 115.703,-125.399"/><polygon fill="#191970" stroke="#191970" points="21 -616.935 23.984 -627.101 27.991 -617.293 21 -616.935"/></g><g id="node33" class="node"><title>Node32</title><g id="a_node33"><a target="_top" xlink:href="classarm__compute_1_1graph_1_1frontend_1_1_stack_layer.xhtml" xlink:title="Stack Layer."><polygon fill="#fff" stroke="#000" points="122.5 -76.5 122.5 -95.5 192.5 -95.5 192.5 -76.5 122.5 -76.5"/><text x="157.5" y="-83.5" font-family="Helvetica,sans-Serif" font-size="10" text-anchor="middle">StackLayer</text></a></g></g><g id="edge32" class="edge"><title>Node0-&gt;Node32</title><path fill="none" stroke="#191970" d="M24.3227,-617.076C28.2955,-525.105 46.7203,-144.404 81,-105 91.2021,-93.2728 107.474,-88.2476 122.303,-86.2696"/><polygon fill="#191970" stroke="#191970" points="20.819 -617.103 23.892 -627.243 27.812 -617.4 20.819 -617.103"/></g><g id="node34" class="node"><title>Node33</title><g id="a_node34"><a target="_top" xlink:href="classarm__compute_1_1graph_1_1frontend_1_1_upsample_layer.xhtml" xlink:title="Upsample Layer."><polygon fill="#fff" stroke="#000" points="111.5 -38.5 111.5 -57.5 203.5 -57.5 203.5 -38.5 111.5 -38.5"/><text x="157.5" y="-45.5" font-family="Helvetica,sans-Serif" font-size="10" text-anchor="middle">UpsampleLayer</text></a></g></g><g id="edge33" class="edge"><title>Node0-&gt;Node33</title><path fill="none" stroke="#191970" d="M24.1673,-617.194C27.5674,-521.46 44.2564,-109.542 81,-67 88.6864,-58.1007 99.8682,-53.0557 111.282,-50.2732"/><polygon fill="#191970" stroke="#191970" points="20.66 -617.357 23.811 -627.473 27.655 -617.6 20.66 -617.357"/></g><g id="node35" class="node"><title>Node34</title><g id="a_node35"><a target="_top" xlink:href="classarm__compute_1_1graph_1_1frontend_1_1_y_o_l_o_layer.xhtml" xlink:title="YOLO Layer."><polygon fill="#fff" stroke="#000" points="123.5 -.5 123.5 -19.5 191.5 -19.5 191.5 -.5 123.5 -.5"/><text x="157.5" y="-7.5" font-family="Helvetica,sans-Serif" font-size="10" text-anchor="middle">YOLOLayer</text></a></g></g><g id="edge34" class="edge"><title>Node0-&gt;Node34</title><path fill="none" stroke="#191970" d="M24.0374,-617.134C26.9094,-517.443 41.8101,-74.6614 81,-29 91.3875,-16.8972 108.24,-11.9148 123.391,-10.0602"/><polygon fill="#191970" stroke="#191970" points="20.534 -617.222 23.752 -627.316 27.531 -617.418 20.534 -617.222"/></g></g></svg>