<svg xmlns="http://www.w3.org/2000/svg" xmlns:xlink="http://www.w3.org/1999/xlink" width="206pt" height="88" viewBox="0 0 206 66"><g id="graph0" class="graph" transform="scale(1 1) rotate(0) translate(4 62)"><title>Graphical Class Hierarchy</title><polygon fill="#fff" stroke="none" points="-4 4 -4 -62 202 -62 202 4 -4 4"/><g id="node1" class="node"><title>Node0</title><g id="a_node1"><a target="_top" xlink:href="classarm__compute_1_1_i_lut_allocator.xhtml" xlink:title="Basic interface to allocate LUTs'."><polygon fill="#fff" stroke="#000" points="0 -19.5 0 -38.5 76 -38.5 76 -19.5 0 -19.5"/><text x="38" y="-26.5" font-family="Helvetica,sans-Serif" font-size="10" text-anchor="middle">ILutAllocator</text></a></g></g><g id="node2" class="node"><title>Node1</title><g id="a_node2"><a target="_top" xlink:href="classarm__compute_1_1_c_l_lut_allocator.xhtml" xlink:title="Basic implementation of a CL memory LUT allocator."><polygon fill="#fff" stroke="#000" points="112 -38.5 112 -57.5 198 -57.5 198 -38.5 112 -38.5"/><text x="155" y="-45.5" font-family="Helvetica,sans-Serif" font-size="10" text-anchor="middle">CLLutAllocator</text></a></g></g><g id="edge1" class="edge"><title>Node0-&gt;Node1</title><path fill="none" stroke="#191970" d="M85.9059,-36.7497C94.4962,-38.1689 103.413,-39.6422 111.854,-41.0368"/><polygon fill="#191970" stroke="#191970" points="86.457 -33.293 76.02 -35.116 85.315 -40.2 86.457 -33.293"/></g><g id="node3" class="node"><title>Node2</title><g id="a_node3"><a target="_top" xlink:href="classarm__compute_1_1_lut_allocator.xhtml" xlink:title="Basic implementation of a CPU memory LUT allocator."><polygon fill="#fff" stroke="#000" points="118 -.5 118 -19.5 192 -19.5 192 -.5 118 -.5"/><text x="155" y="-7.5" font-family="Helvetica,sans-Serif" font-size="10" text-anchor="middle">LutAllocator</text></a></g></g><g id="edge2" class="edge"><title>Node0-&gt;Node2</title><path fill="none" stroke="#191970" d="M86.0025,-21.2344C96.6243,-19.4795 107.741,-17.6428 117.835,-15.9751"/><polygon fill="#191970" stroke="#191970" points="85.315 -17.8 76.02 -22.884 86.457 -24.707 85.315 -17.8"/></g></g></svg>