<svg xmlns="http://www.w3.org/2000/svg" xmlns:xlink="http://www.w3.org/1999/xlink" width="172pt" height="104pt" viewBox="0 0 172 104"><g id="graph0" class="graph" transform="scale(1 1) rotate(0) translate(4 100)"><title>Graphical Class Hierarchy</title><polygon fill="#fff" stroke="none" points="-4 4 -4 -100 168 -100 168 4 -4 4"/><g id="node1" class="node"><title>Node0</title><g id="a_node1"><a target="_top" xlink:href="classarm__compute_1_1_i_memory.xhtml" xlink:title="Memory interface."><polygon fill="#fff" stroke="#000" points="0 -38.5 0 -57.5 58 -57.5 58 -38.5 0 -38.5"/><text x="29" y="-45.5" font-family="Helvetica,sans-Serif" font-size="10" text-anchor="middle">IMemory</text></a></g></g><g id="node2" class="node"><title>Node1</title><g id="a_node2"><a target="_top" xlink:href="classarm__compute_1_1_c_l_memory.xhtml" xlink:title="OpenCL implementation of memory object."><polygon fill="#fff" stroke="#000" points="95 -76.5 95 -95.5 163 -95.5 163 -76.5 95 -76.5"/><text x="129" y="-83.5" font-family="Helvetica,sans-Serif" font-size="10" text-anchor="middle">CLMemory</text></a></g></g><g id="edge1" class="edge"><title>Node0-&gt;Node1</title><path fill="none" stroke="#191970" d="M64.2086,-61.2646C77.0742,-66.2533 91.4411,-71.8241 103.278,-76.4141"/><polygon fill="#191970" stroke="#191970" points="65.319 -57.941 54.73 -57.589 62.788 -64.468 65.319 -57.941"/></g><g id="node3" class="node"><title>Node2</title><g id="a_node3"><a target="_top" xlink:href="classarm__compute_1_1_g_c_memory.xhtml" xlink:title="GLES implementation of memory object."><polygon fill="#fff" stroke="#000" points="94 -38.5 94 -57.5 164 -57.5 164 -38.5 94 -38.5"/><text x="129" y="-45.5" font-family="Helvetica,sans-Serif" font-size="10" text-anchor="middle">GCMemory</text></a></g></g><g id="edge2" class="edge"><title>Node0-&gt;Node2</title><path fill="none" stroke="#191970" d="M68.3434,-48C76.6881,-48 85.4661,-48 93.6448,-48"/><polygon fill="#191970" stroke="#191970" points="68.083 -44.5 58.083 -48 68.083 -51.5 68.083 -44.5"/></g><g id="node4" class="node"><title>Node3</title><g id="a_node4"><a target="_top" xlink:href="classarm__compute_1_1_memory.xhtml" xlink:title="CPU implementation of memory object."><polygon fill="#fff" stroke="#000" points="101 -.5 101 -19.5 157 -19.5 157 -.5 101 -.5"/><text x="129" y="-7.5" font-family="Helvetica,sans-Serif" font-size="10" text-anchor="middle">Memory</text></a></g></g><g id="edge3" class="edge"><title>Node0-&gt;Node3</title><path fill="none" stroke="#191970" d="M64.2086,-34.7354C77.0742,-29.7467 91.4411,-24.1759 103.278,-19.5859"/><polygon fill="#191970" stroke="#191970" points="62.788 -31.532 54.73 -38.411 65.319 -38.059 62.788 -31.532"/></g></g></svg>