<svg xmlns="http://www.w3.org/2000/svg" xmlns:xlink="http://www.w3.org/1999/xlink" width="206pt" height="104pt" viewBox="0 0 206 104"><g id="graph0" class="graph" transform="scale(1 1) rotate(0) translate(4 100)"><title>Graphical Class Hierarchy</title><polygon fill="#fff" stroke="none" points="-4 4 -4 -100 202 -100 202 4 -4 4"/><g id="node1" class="node"><title>Node0</title><g id="a_node1"><a target="_top" xlink:href="classarm__compute_1_1_i_allocator.xhtml" xlink:title="Allocator interface."><polygon fill="#fff" stroke="#000" points="0 -38.5 0 -57.5 61 -57.5 61 -38.5 0 -38.5"/><text x="30.5" y="-45.5" font-family="Helvetica,sans-Serif" font-size="10" text-anchor="middle">IAllocator</text></a></g></g><g id="node2" class="node"><title>Node1</title><g id="a_node2"><a target="_top" xlink:href="classarm__compute_1_1_allocator.xhtml" xlink:title="Default malloc allocator implementation."><polygon fill="#fff" stroke="#000" points="118 -76.5 118 -95.5 177 -95.5 177 -76.5 118 -76.5"/><text x="147.5" y="-83.5" font-family="Helvetica,sans-Serif" font-size="10" text-anchor="middle">Allocator</text></a></g></g><g id="edge1" class="edge"><title>Node0-&gt;Node1</title><path fill="none" stroke="#191970" d="M70.3927,-60.8515C85.9479,-65.9915 103.539,-71.8043 117.888,-76.5457"/><polygon fill="#191970" stroke="#191970" points="71.113 -57.403 60.519 -57.589 68.916 -64.05 71.113 -57.403"/></g><g id="node3" class="node"><title>Node2</title><g id="a_node3"><a target="_top" xlink:href="classarm__compute_1_1_c_l_buffer_allocator.xhtml" xlink:title="Default OpenCL cl buffer allocator implementation."><polygon fill="#fff" stroke="#000" points="98 -38.5 98 -57.5 197 -57.5 197 -38.5 98 -38.5"/><text x="147.5" y="-45.5" font-family="Helvetica,sans-Serif" font-size="10" text-anchor="middle">CLBufferAllocator</text></a></g></g><g id="edge2" class="edge"><title>Node0-&gt;Node2</title><path fill="none" stroke="#191970" d="M71.2176,-48C79.7851,-48 88.9368,-48 97.8026,-48"/><polygon fill="#191970" stroke="#191970" points="71.115 -44.5 61.115 -48 71.115 -51.5 71.115 -44.5"/></g><g id="node4" class="node"><title>Node3</title><g id="a_node4"><a target="_top" xlink:href="classarm__compute_1_1_g_c_buffer_allocator.xhtml" xlink:title="Default GLES buffer allocator implementation."><polygon fill="#fff" stroke="#000" points="97 -.5 97 -19.5 198 -19.5 198 -.5 97 -.5"/><text x="147.5" y="-7.5" font-family="Helvetica,sans-Serif" font-size="10" text-anchor="middle">GCBufferAllocator</text></a></g></g><g id="edge3" class="edge"><title>Node0-&gt;Node3</title><path fill="none" stroke="#191970" d="M70.3153,-35.1741C85.7459,-30.0753 103.191,-24.3109 117.49,-19.5859"/><polygon fill="#191970" stroke="#191970" points="68.916 -31.95 60.519 -38.411 71.113 -38.597 68.916 -31.95"/></g></g></svg>