<svg xmlns="http://www.w3.org/2000/svg" xmlns:xlink="http://www.w3.org/1999/xlink" width="293pt" height="104" viewBox="0 0 293 77.5"><g id="graph0" class="graph" transform="scale(1 1) rotate(0) translate(4 73.5)"><title>Graphical Class Hierarchy</title><polygon fill="#fff" stroke="none" points="-4 4 -4 -73.5 289 -73.5 289 4 -4 4"/><g id="node1" class="node"><title>Node0</title><g id="a_node1"><a target="_top" xlink:href="classarm__compute_1_1test_1_1framework_1_1_test_case_factory.xhtml" xlink:title="Abstract factory class to create test cases."><polygon fill="#fff" stroke="#000" points="0 -22.5 0 -41.5 94 -41.5 94 -22.5 0 -22.5"/><text x="47" y="-29.5" font-family="Helvetica,sans-Serif" font-size="10" text-anchor="middle">TestCaseFactory</text></a></g></g><g id="node2" class="node"><title>Node1</title><g id="a_node2"><a target="_top" xlink:href="classarm__compute_1_1test_1_1framework_1_1_data_test_case_factory.xhtml" xlink:title="Implementation of a test case factory to create data test cases."><polygon fill="#fff" stroke="#000" points="149 -39 149 -69 266 -69 266 -39 149 -39"/><text x="157" y="-57" font-family="Helvetica,sans-Serif" font-size="10" text-anchor="start">DataTestCaseFactory</text><text x="207.5" y="-46" font-family="Helvetica,sans-Serif" font-size="10" text-anchor="middle">&lt; T, D &gt;</text></a></g></g><g id="edge1" class="edge"><title>Node0-&gt;Node1</title><path fill="none" stroke="#191970" d="M104.537,-39.8474C118.943,-41.847 134.444,-43.9985 148.902,-46.0054"/><polygon fill="#191970" stroke="#191970" points="104.657 -36.331 94.271 -38.422 103.695 -43.264 104.657 -36.331"/></g><g id="node3" class="node"><title>Node2</title><g id="a_node3"><a target="_top" xlink:href="classarm__compute_1_1test_1_1framework_1_1_simple_test_case_factory.xhtml" xlink:title="Implementation of a test case factory to create non-data test cases."><polygon fill="#fff" stroke="#000" points="130 -.5 130 -19.5 285 -19.5 285 -.5 130 -.5"/><text x="207.5" y="-7.5" font-family="Helvetica,sans-Serif" font-size="10" text-anchor="middle">SimpleTestCaseFactory&lt; T &gt;</text></a></g></g><g id="edge2" class="edge"><title>Node0-&gt;Node2</title><path fill="none" stroke="#191970" d="M104.411,-24.17C115.217,-22.6702 126.642,-21.0844 137.784,-19.5379"/><polygon fill="#191970" stroke="#191970" points="103.695 -20.736 94.271 -25.578 104.657 -27.669 103.695 -20.736"/></g></g></svg>