<svg xmlns="http://www.w3.org/2000/svg" xmlns:xlink="http://www.w3.org/1999/xlink" width="480" height="218pt" viewBox="0 0 360 218"><g id="graph0" class="graph" transform="scale(1 1) rotate(0) translate(4 214)"><title>Graphical Class Hierarchy</title><polygon fill="#fff" stroke="none" points="-4 4 -4 -214 356 -214 356 4 -4 4"/><g id="node1" class="node"><title>Node0</title><g id="a_node1"><a target="_top" xlink:href="classarm__compute_1_1test_1_1_i_accessor.xhtml" xlink:title="Common interface to provide information and access to tensor like structures."><polygon fill="#fff" stroke="#000" points="0 -95.5 0 -114.5 62 -114.5 62 -95.5 0 -95.5"/><text x="31" y="-102.5" font-family="Helvetica,sans-Serif" font-size="10" text-anchor="middle">IAccessor</text></a></g></g><g id="node2" class="node"><title>Node1</title><g id="a_node2"><a target="_top" xlink:href="classarm__compute_1_1test_1_1_accessor.xhtml" xlink:title="Accessor implementation for Tensor objects."><polygon fill="#fff" stroke="#000" points="144 -190.5 144 -209.5 204 -209.5 204 -190.5 144 -190.5"/><text x="174" y="-197.5" font-family="Helvetica,sans-Serif" font-size="10" text-anchor="middle">Accessor</text></a></g></g><g id="edge1" class="edge"><title>Node0-&gt;Node1</title><path fill="none" stroke="#191970" d="M43.1373,-123.314C54.703,-140.764 74.3955,-166.466 98,-181 111.84,-189.522 129.352,-194.232 143.973,-196.831"/><polygon fill="#191970" stroke="#191970" points="45.903 -121.141 37.575 -114.592 40.001 -124.905 45.903 -121.141"/></g><g id="node3" class="node"><title>Node2</title><g id="a_node3"><a target="_top" xlink:href="classarm__compute_1_1test_1_1_c_l_accessor.xhtml" xlink:title="Accessor implementation for CLTensor objects."><polygon fill="#fff" stroke="#000" points="138 -152.5 138 -171.5 210 -171.5 210 -152.5 138 -152.5"/><text x="174" y="-159.5" font-family="Helvetica,sans-Serif" font-size="10" text-anchor="middle">CLAccessor</text></a></g></g><g id="edge2" class="edge"><title>Node0-&gt;Node2</title><path fill="none" stroke="#191970" d="M54.8142,-120.217C67.1767,-127.919 82.9637,-136.902 98,-143 110.572,-148.098 124.898,-152.131 137.637,-155.146"/><polygon fill="#191970" stroke="#191970" points="56.408 -117.082 46.097 -114.646 52.639 -122.98 56.408 -117.082"/></g><g id="node4" class="node"><title>Node3</title><g id="a_node4"><a target="_top" xlink:href="classarm__compute_1_1test_1_1_g_c_accessor.xhtml" xlink:title="Accessor implementation for GCTensor objects."><polygon fill="#fff" stroke="#000" points="137 -114.5 137 -133.5 211 -133.5 211 -114.5 137 -114.5"/><text x="174" y="-121.5" font-family="Helvetica,sans-Serif" font-size="10" text-anchor="middle">GCAccessor</text></a></g></g><g id="edge3" class="edge"><title>Node0-&gt;Node3</title><path fill="none" stroke="#191970" d="M72.1643,-110.412C92.5179,-113.155 117.04,-116.459 136.805,-119.123"/><polygon fill="#191970" stroke="#191970" points="72.626 -106.943 62.248 -109.076 71.691 -113.88 72.626 -106.943"/></g><g id="node5" class="node"><title>Node4</title><g id="a_node5"><a target="_top" xlink:href="classarm__compute_1_1test_1_1_simple_tensor.xhtml" xlink:title="Simple tensor object that stores elements in a consecutive chunk of memory."><polygon fill="#fff" stroke="#000" points="120 -76.5 120 -95.5 228 -95.5 228 -76.5 120 -76.5"/><text x="174" y="-83.5" font-family="Helvetica,sans-Serif" font-size="10" text-anchor="middle">SimpleTensor&lt; T &gt;</text></a></g></g><g id="edge4" class="edge"><title>Node0-&gt;Node4</title><path fill="none" stroke="#191970" d="M72.5365,-99.5376C87.251,-97.5548 104.105,-95.2837 119.751,-93.1754"/><polygon fill="#191970" stroke="#191970" points="71.691 -96.12 62.248 -100.924 72.626 -103.057 71.691 -96.12"/></g><g id="node6" class="node"><title>Node5</title><g id="a_node6"><a target="_top" xlink:href="classarm__compute_1_1test_1_1_simple_tensor_accessor.xhtml" xlink:title="Accessor implementation for SimpleTensor objects."><polygon fill="#fff" stroke="#000" points="98 -38.5 98 -57.5 250 -57.5 250 -38.5 98 -38.5"/><text x="174" y="-45.5" font-family="Helvetica,sans-Serif" font-size="10" text-anchor="middle">SimpleTensorAccessor&lt; T &gt;</text></a></g></g><g id="edge5" class="edge"><title>Node0-&gt;Node5</title><path fill="none" stroke="#191970" d="M54.8142,-89.7831C67.1767,-82.0814 82.9637,-73.0976 98,-67 107.087,-63.3151 117.09,-60.1868 126.748,-57.5973"/><polygon fill="#191970" stroke="#191970" points="52.639 -87.02 46.097 -95.354 56.408 -92.918 52.639 -87.02"/></g><g id="node7" class="node"><title>Node6</title><g id="a_node7"><a target="_top" xlink:href="classarm__compute_1_1test_1_1_simple_tensor.xhtml"><polygon fill="#fff" stroke="#000" points="106 -.5 106 -19.5 242 -19.5 242 -.5 106 -.5"/><text x="174" y="-7.5" font-family="Helvetica,sans-Serif" font-size="10" text-anchor="middle">SimpleTensor&lt; uint8_t &gt;</text></a></g></g><g id="edge6" class="edge"><title>Node0-&gt;Node6</title><path fill="none" stroke="#191970" d="M43.1373,-86.6859C54.703,-69.2361 74.3955,-43.5341 98,-29 104.291,-25.1265 111.34,-22.0404 118.532,-19.5822"/><polygon fill="#191970" stroke="#191970" points="40.001 -85.095 37.575 -95.408 45.903 -88.859 40.001 -85.095"/></g><g id="node8" class="node"><title>Node7</title><g id="a_node8"><a target="_top" xlink:href="classarm__compute_1_1test_1_1_raw_tensor.xhtml" xlink:title="Subclass of SimpleTensor using uint8_t as value type."><polygon fill="#fff" stroke="#000" points="286 -.5 286 -19.5 352 -19.5 352 -.5 286 -.5"/><text x="319" y="-7.5" font-family="Helvetica,sans-Serif" font-size="10" text-anchor="middle">RawTensor</text></a></g></g><g id="edge7" class="edge"><title>Node6-&gt;Node7</title><path fill="none" stroke="#191970" d="M252.659,-10C264.404,-10 275.926,-10 285.944,-10"/><polygon fill="#191970" stroke="#191970" points="252.313 -6.5 242.313 -10 252.313 -13.5 252.313 -6.5"/></g></g></svg>