<svg xmlns="http://www.w3.org/2000/svg" xmlns:xlink="http://www.w3.org/1999/xlink" width="208" height="95pt" viewBox="0 0 155.5 95"><g id="graph0" class="graph" transform="scale(1 1) rotate(0) translate(4 91)"><title>ExecutionWorkload</title><polygon fill="#fff" stroke="none" points="-4 4 -4 -91 151.5 -91 151.5 4 -4 4"/><g id="node1" class="node"><title>Node0</title><g id="a_node1"><a xlink:title="Execution workload."><polygon fill="#bfbfbf" stroke="#000" points="11 -.5 11 -19.5 117 -19.5 117 -.5 11 -.5"/><text x="64" y="-7.5" font-family="Helvetica,sans-Serif" font-size="10" text-anchor="middle">ExecutionWorkload</text></a></g></g><g id="node2" class="node"><title>Node1</title><g id="a_node2"><a target="_top" xlink:href="classarm__compute_1_1graph_1_1_graph.xhtml" xlink:title="Graph class."><polygon fill="#fff" stroke="#000" points="0 -67.5 0 -86.5 46 -86.5 46 -67.5 0 -67.5"/><text x="23" y="-74.5" font-family="Helvetica,sans-Serif" font-size="10" text-anchor="middle">Graph</text></a></g></g><g id="edge1" class="edge"><title>Node1-&gt;Node0</title><path fill="none" stroke="#9a32cd" stroke-dasharray="5 2" d="M34.0166,-58.5347C41.9547,-45.9499 52.3262,-29.5072 58.5582,-19.6273"/><polygon fill="#9a32cd" stroke="#9a32cd" points="30.904 -56.908 28.529 -67.234 36.825 -60.643 30.904 -56.908"/><text x="61.5" y="-41" font-family="Helvetica,sans-Serif" font-size="10" text-anchor="middle">graph</text></g><g id="node3" class="node"><title>Node2</title><g id="a_node3"><a target="_top" xlink:href="classarm__compute_1_1graph_1_1_graph_context.xhtml" xlink:title="Graph context."><polygon fill="#fff" stroke="#000" points="64.5 -67.5 64.5 -86.5 147.5 -86.5 147.5 -67.5 64.5 -67.5"/><text x="106" y="-74.5" font-family="Helvetica,sans-Serif" font-size="10" text-anchor="middle">GraphContext</text></a></g></g><g id="edge2" class="edge"><title>Node2-&gt;Node0</title><path fill="none" stroke="#9a32cd" stroke-dasharray="5 2" d="M94.7147,-58.5347C86.583,-45.9499 75.9585,-29.5072 69.5746,-19.6273"/><polygon fill="#9a32cd" stroke="#9a32cd" points="91.969 -60.734 100.336 -67.234 97.848 -56.935 91.969 -60.734"/><text x="97" y="-41" font-family="Helvetica,sans-Serif" font-size="10" text-anchor="middle">ctx</text></g></g></svg>