<svg xmlns="http://www.w3.org/2000/svg" xmlns:xlink="http://www.w3.org/1999/xlink" width="230pt" height="156" viewBox="0 0 230 117"><g id="graph0" class="graph" transform="scale(1 1) rotate(0) translate(4 113)"><title>WinogradInfo</title><polygon fill="#fff" stroke="none" points="-4 4 -4 -113 226 -113 226 4 -4 4"/><g id="node1" class="node"><title>Node0</title><g id="a_node1"><a xlink:title="Winograd information."><polygon fill="#bfbfbf" stroke="#000" points="53 -.5 53 -19.5 131 -19.5 131 -.5 53 -.5"/><text x="92" y="-7.5" font-family="Helvetica,sans-Serif" font-size="10" text-anchor="middle">WinogradInfo</text></a></g></g><g id="node2" class="node"><title>Node1</title><g id="a_node2"><a target="_top" xlink:href="classarm__compute_1_1_pad_stride_info.xhtml" xlink:title="Padding and stride information class."><polygon fill="#fff" stroke="#000" points="0 -89.5 0 -108.5 80 -108.5 80 -89.5 0 -89.5"/><text x="40" y="-96.5" font-family="Helvetica,sans-Serif" font-size="10" text-anchor="middle">PadStrideInfo</text></a></g></g><g id="edge1" class="edge"><title>Node1-&gt;Node0</title><path fill="none" stroke="#9a32cd" stroke-dasharray="5 2" d="M35.6362,-79.2296C33.7773,-66.6542 33.4998,-50.2255 41,-38 46.1341,-29.6313 54.8113,-23.7132 63.5664,-19.5958"/><polygon fill="#9a32cd" stroke="#9a32cd" points="32.205 -79.922 37.521 -89.086 39.081 -78.607 32.205 -79.922"/><text x="81.5" y="-52" font-family="Helvetica,sans-Serif" font-size="10" text-anchor="middle">convolution_info</text></g><g id="node3" class="node"><title>Node2</title><g id="a_node3"><a target="_top" xlink:href="classarm__compute_1_1_size2_d.xhtml" xlink:title="Class for specifying the size of an image or rectangle."><polygon fill="#fff" stroke="#000" points="119 -89.5 119 -108.5 169 -108.5 169 -89.5 119 -89.5"/><text x="144" y="-96.5" font-family="Helvetica,sans-Serif" font-size="10" text-anchor="middle">Size2D</text></a></g></g><g id="edge2" class="edge"><title>Node2-&gt;Node0</title><path fill="none" stroke="#9a32cd" stroke-dasharray="5 2" d="M139.729,-79.5029C136.274,-67.0485 130.558,-50.652 122,-38 117.21,-30.9191 110.173,-24.4551 104.117,-19.6283"/><polygon fill="#9a32cd" stroke="#9a32cd" points="136.348 -80.407 142.199 -89.24 143.133 -78.686 136.348 -80.407"/><text x="179.5" y="-63" font-family="Helvetica,sans-Serif" font-size="10" text-anchor="middle">kernel_size</text><text x="179.5" y="-52" font-family="Helvetica,sans-Serif" font-size="10" text-anchor="middle">output_tile_size</text><text x="179.5" y="-41" font-family="Helvetica,sans-Serif" font-size="10" text-anchor="middle">input_dimensions</text></g></g></svg>