<svg xmlns="http://www.w3.org/2000/svg" xmlns:xlink="http://www.w3.org/1999/xlink" width="356" height="95pt" viewBox="0 0 266.5 95"><g id="graph0" class="graph" transform="scale(1 1) rotate(0) translate(4 91)"><title>CommonGraphParams</title><polygon fill="#fff" stroke="none" points="-4 4 -4 -91 262.5 -91 262.5 4 -4 4"/><g id="node1" class="node"><title>Node0</title><g id="a_node1"><a xlink:title="Structure holding all the common graph parameters."><polygon fill="#bfbfbf" stroke="#000" points="70.5 -.5 70.5 -19.5 196.5 -19.5 196.5 -.5 70.5 -.5"/><text x="133.5" y="-7.5" font-family="Helvetica,sans-Serif" font-size="10" text-anchor="middle">CommonGraphParams</text></a></g></g><g id="node2" class="node"><title>Node1</title><g id="a_node2"><a><polygon fill="#fff" stroke="#bfbfbf" points="0 -67.5 0 -86.5 79 -86.5 79 -67.5 0 -67.5"/><text x="39.5" y="-74.5" font-family="Helvetica,sans-Serif" font-size="10" text-anchor="middle">CLTunerMode</text></a></g></g><g id="edge1" class="edge"><title>Node1-&gt;Node0</title><path fill="none" stroke="#9a32cd" stroke-dasharray="5 2" d="M49.4961,-58.4256C54.2207,-51.3365 60.3902,-43.5413 67.5,-38 77.9481,-29.8569 91.1924,-23.804 103.07,-19.5167"/><polygon fill="#9a32cd" stroke="#9a32cd" points="46.249 -57.024 43.996 -67.377 52.214 -60.689 46.249 -57.024"/><text x="98.5" y="-41" font-family="Helvetica,sans-Serif" font-size="10" text-anchor="middle">tuner_mode</text></g><g id="node3" class="node"><title>Node2</title><g id="a_node3"><a><polygon fill="#fff" stroke="#bfbfbf" points="97.5 -67.5 97.5 -86.5 169.5 -86.5 169.5 -67.5 97.5 -67.5"/><text x="133.5" y="-74.5" font-family="Helvetica,sans-Serif" font-size="10" text-anchor="middle">DataLayout</text></a></g></g><g id="edge2" class="edge"><title>Node2-&gt;Node0</title><path fill="none" stroke="#9a32cd" stroke-dasharray="5 2" d="M133.5,-57.037C133.5,-44.6703 133.5,-29.1198 133.5,-19.6273"/><polygon fill="#9a32cd" stroke="#9a32cd" points="130 -57.234 133.5 -67.234 137 -57.234 130 -57.234"/><text x="163.5" y="-41" font-family="Helvetica,sans-Serif" font-size="10" text-anchor="middle">data_layout</text></g><g id="node4" class="node"><title>Node3</title><g id="a_node4"><a><polygon fill="#fff" stroke="#bfbfbf" points="188 -67.5 188 -86.5 249 -86.5 249 -67.5 188 -67.5"/><text x="218.5" y="-74.5" font-family="Helvetica,sans-Serif" font-size="10" text-anchor="middle">DataType</text></a></g></g><g id="edge3" class="edge"><title>Node3-&gt;Node0</title><path fill="none" stroke="#9a32cd" stroke-dasharray="5 2" d="M211.069,-57.9631C207.493,-51.0085 202.631,-43.437 196.5,-38 187.241,-29.7891 175.107,-23.7936 163.963,-19.5684"/><polygon fill="#9a32cd" stroke="#9a32cd" points="208.042 -59.757 215.389 -67.391 214.405 -56.841 208.042 -59.757"/><text x="232.5" y="-41" font-family="Helvetica,sans-Serif" font-size="10" text-anchor="middle">data_type</text></g></g></svg>