<svg xmlns="http://www.w3.org/2000/svg" xmlns:xlink="http://www.w3.org/1999/xlink" width="244pt" height="95pt" viewBox="0 0 244 95"><g id="graph0" class="graph" transform="scale(1 1) rotate(0) translate(4 91)"><title>ConcatLayerDescriptor</title><polygon fill="#fff" stroke="none" points="-4 4 -4 -91 240 -91 240 4 -4 4"/><g id="node1" class="node"><title>Node0</title><g id="a_node1"><a xlink:title="Concatenate layer descriptor."><polygon fill="#bfbfbf" stroke="#000" points="47.5 -.5 47.5 -19.5 173.5 -19.5 173.5 -.5 47.5 -.5"/><text x="110.5" y="-7.5" font-family="Helvetica,sans-Serif" font-size="10" text-anchor="middle">ConcatLayerDescriptor</text></a></g></g><g id="node2" class="node"><title>Node1</title><g id="a_node2"><a target="_top" xlink:href="classarm__compute_1_1_quantization_info.xhtml" xlink:title="Quantization information."><polygon fill="#fff" stroke="#000" points="0 -67.5 0 -86.5 95 -86.5 95 -67.5 0 -67.5"/><text x="47.5" y="-74.5" font-family="Helvetica,sans-Serif" font-size="10" text-anchor="middle">QuantizationInfo</text></a></g></g><g id="edge1" class="edge"><title>Node1-&gt;Node0</title><path fill="none" stroke="#9a32cd" stroke-dasharray="5 2" d="M63.0108,-59.9968C75.3658,-47.2496 92.1867,-29.8947 102.138,-19.6273"/><polygon fill="#9a32cd" stroke="#9a32cd" points="60.443 -57.617 55.996 -67.234 65.469 -62.489 60.443 -57.617"/><text x="115.5" y="-41" font-family="Helvetica,sans-Serif" font-size="10" text-anchor="middle">output_qinfo</text></g><g id="node3" class="node"><title>Node2</title><g id="a_node3"><a><polygon fill="#fff" stroke="#bfbfbf" points="113 -67.5 113 -86.5 236 -86.5 236 -67.5 113 -67.5"/><text x="174.5" y="-74.5" font-family="Helvetica,sans-Serif" font-size="10" text-anchor="middle">DataLayoutDimension</text></a></g></g><g id="edge2" class="edge"><title>Node2-&gt;Node0</title><path fill="none" stroke="#9a32cd" stroke-dasharray="5 2" d="M165.92,-58.2454C162.101,-51.4384 157.177,-43.8977 151.5,-38 144.407,-30.6318 134.955,-24.2386 126.914,-19.5254"/><polygon fill="#9a32cd" stroke="#9a32cd" points="162.968 -60.156 170.684 -67.416 169.18 -56.929 162.968 -60.156"/><text x="170.5" y="-41" font-family="Helvetica,sans-Serif" font-size="10" text-anchor="middle">axis</text></g></g></svg>