<svg xmlns="http://www.w3.org/2000/svg" xmlns:xlink="http://www.w3.org/1999/xlink" width="557pt" height="229pt" viewBox="0 0 557 229"><g id="graph0" class="graph" transform="scale(1 1) rotate(0) translate(4 225)"><title>TensorDescriptor</title><polygon fill="#fff" stroke="none" points="-4 4 -4 -225 553 -225 553 4 -4 4"/><g id="node1" class="node"><title>Node0</title><g id="a_node1"><a xlink:title="Tensor metadata class."><polygon fill="#bfbfbf" stroke="#000" points="260 -.5 260 -19.5 357 -19.5 357 -.5 260 -.5"/><text x="308.5" y="-7.5" font-family="Helvetica,sans-Serif" font-size="10" text-anchor="middle">TensorDescriptor</text></a></g></g><g id="node2" class="node"><title>Node1</title><g id="a_node2"><a target="_top" xlink:href="classarm__compute_1_1misc_1_1_i_cloneable.xhtml"><polygon fill="#fff" stroke="#000" points="0 -67.5 0 -86.5 169 -86.5 169 -67.5 0 -67.5"/><text x="84.5" y="-74.5" font-family="Helvetica,sans-Serif" font-size="10" text-anchor="middle">ICloneable&lt; TensorDescriptor &gt;</text></a></g></g><g id="edge1" class="edge"><title>Node1-&gt;Node0</title><path fill="none" stroke="#191970" d="M124.096,-64.5101C168.43,-51.6454 239.252,-31.0942 278.988,-19.5637"/><polygon fill="#191970" stroke="#191970" points="122.874 -61.22 114.245 -67.368 124.825 -67.943 122.874 -61.22"/></g><g id="node3" class="node"><title>Node2</title><g id="a_node3"><a target="_top" xlink:href="classarm__compute_1_1misc_1_1_i_cloneable.xhtml" xlink:title="Clonable Interface."><polygon fill="#fff" stroke="#000" points="37.5 -134.5 37.5 -153.5 131.5 -153.5 131.5 -134.5 37.5 -134.5"/><text x="84.5" y="-141.5" font-family="Helvetica,sans-Serif" font-size="10" text-anchor="middle">ICloneable&lt; T &gt;</text></a></g></g><g id="edge2" class="edge"><title>Node2-&gt;Node1</title><path fill="none" stroke="orange" stroke-dasharray="5 2" d="M84.5,-124.037C84.5,-111.67 84.5,-96.1198 84.5,-86.6273"/><polygon fill="orange" stroke="orange" points="81 -124.234 84.5 -134.234 88 -124.234 81 -124.234"/><text x="137.5" y="-108" font-family="Helvetica,sans-Serif" font-size="10" text-anchor="middle">&lt; TensorDescriptor &gt;</text></g><g id="node4" class="node"><title>Node3</title><g id="a_node4"><a><polygon fill="#fff" stroke="#bfbfbf" points="187.5 -67.5 187.5 -86.5 259.5 -86.5 259.5 -67.5 187.5 -67.5"/><text x="223.5" y="-74.5" font-family="Helvetica,sans-Serif" font-size="10" text-anchor="middle">DataLayout</text></a></g></g><g id="edge3" class="edge"><title>Node3-&gt;Node0</title><path fill="none" stroke="#9a32cd" stroke-dasharray="5 2" d="M241.898,-61.159C250.779,-54.0666 261.626,-45.5069 271.5,-38 279.73,-31.7436 289.142,-24.8788 296.414,-19.6368"/><polygon fill="#9a32cd" stroke="#9a32cd" points="239.694 -58.44 234.082 -67.427 244.073 -63.901 239.694 -58.44"/><text x="288" y="-41" font-family="Helvetica,sans-Serif" font-size="10" text-anchor="middle">layout</text></g><g id="node5" class="node"><title>Node4</title><g id="a_node5"><a><polygon fill="#fff" stroke="#bfbfbf" points="278 -67.5 278 -86.5 339 -86.5 339 -67.5 278 -67.5"/><text x="308.5" y="-74.5" font-family="Helvetica,sans-Serif" font-size="10" text-anchor="middle">DataType</text></a></g></g><g id="edge4" class="edge"><title>Node4-&gt;Node0</title><path fill="none" stroke="#9a32cd" stroke-dasharray="5 2" d="M308.5,-57.037C308.5,-44.6703 308.5,-29.1198 308.5,-19.6273"/><polygon fill="#9a32cd" stroke="#9a32cd" points="305 -57.234 308.5 -67.234 312 -57.234 305 -57.234"/><text x="334.5" y="-41" font-family="Helvetica,sans-Serif" font-size="10" text-anchor="middle">data_type</text></g><g id="node6" class="node"><title>Node5</title><g id="a_node6"><a target="_top" xlink:href="classarm__compute_1_1_tensor_shape.xhtml" xlink:title="Shape of a tensor."><polygon fill="#fff" stroke="#000" points="357.5 -67.5 357.5 -86.5 435.5 -86.5 435.5 -67.5 357.5 -67.5"/><text x="396.5" y="-74.5" font-family="Helvetica,sans-Serif" font-size="10" text-anchor="middle">TensorShape</text></a></g></g><g id="edge5" class="edge"><title>Node5-&gt;Node0</title><path fill="none" stroke="#9a32cd" stroke-dasharray="5 2" d="M384.624,-58.905C379.095,-51.8075 372.069,-43.8753 364.5,-38 354.61,-30.3229 342.185,-24.0594 331.552,-19.5048"/><polygon fill="#9a32cd" stroke="#9a32cd" points="382.007 -61.254 390.755 -67.231 387.644 -57.103 382.007 -61.254"/><text x="392" y="-41" font-family="Helvetica,sans-Serif" font-size="10" text-anchor="middle">shape</text></g><g id="node7" class="node"><title>Node6</title><g id="a_node7"><a target="_top" xlink:href="classarm__compute_1_1_dimensions.xhtml"><polygon fill="#fff" stroke="#000" points="335 -134.5 335 -153.5 458 -153.5 458 -134.5 335 -134.5"/><text x="396.5" y="-141.5" font-family="Helvetica,sans-Serif" font-size="10" text-anchor="middle">Dimensions&lt; size_t &gt;</text></a></g></g><g id="edge6" class="edge"><title>Node6-&gt;Node5</title><path fill="none" stroke="#191970" d="M396.5,-124.037C396.5,-111.67 396.5,-96.1198 396.5,-86.6273"/><polygon fill="#191970" stroke="#191970" points="393 -124.234 396.5 -134.234 400 -124.234 393 -124.234"/></g><g id="node8" class="node"><title>Node7</title><g id="a_node8"><a target="_top" xlink:href="classarm__compute_1_1_dimensions.xhtml" xlink:title="Dimensions with dimensionality."><polygon fill="#fff" stroke="#000" points="346 -201.5 346 -220.5 447 -220.5 447 -201.5 346 -201.5"/><text x="396.5" y="-208.5" font-family="Helvetica,sans-Serif" font-size="10" text-anchor="middle">Dimensions&lt; T &gt;</text></a></g></g><g id="edge7" class="edge"><title>Node7-&gt;Node6</title><path fill="none" stroke="orange" stroke-dasharray="5 2" d="M396.5,-191.037C396.5,-178.67 396.5,-163.12 396.5,-153.627"/><polygon fill="orange" stroke="orange" points="393 -191.234 396.5 -201.234 400 -191.234 393 -191.234"/><text x="423.5" y="-175" font-family="Helvetica,sans-Serif" font-size="10" text-anchor="middle">&lt; size_t &gt;</text></g><g id="node9" class="node"><title>Node8</title><g id="a_node9"><a target="_top" xlink:href="classarm__compute_1_1_quantization_info.xhtml" xlink:title="Quantization information."><polygon fill="#fff" stroke="#000" points="454 -67.5 454 -86.5 549 -86.5 549 -67.5 454 -67.5"/><text x="501.5" y="-74.5" font-family="Helvetica,sans-Serif" font-size="10" text-anchor="middle">QuantizationInfo</text></a></g></g><g id="edge8" class="edge"><title>Node8-&gt;Node0</title><path fill="none" stroke="#9a32cd" stroke-dasharray="5 2" d="M474.219,-63.094C456.814,-55.1768 433.635,-45.2101 412.5,-38 391.137,-30.7121 366.735,-24.2817 346.939,-19.5262"/><polygon fill="#9a32cd" stroke="#9a32cd" points="473.193 -66.475 483.739 -67.482 476.123 -60.118 473.193 -66.475"/><text x="467.5" y="-41" font-family="Helvetica,sans-Serif" font-size="10" text-anchor="middle">quant_info</text></g></g></svg>