<svg xmlns="http://www.w3.org/2000/svg" xmlns:xlink="http://www.w3.org/1999/xlink" width="322pt" height="292" viewBox="0 0 321.5 219"><g id="graph0" class="graph" transform="scale(1 1) rotate(0) translate(4 215)"><title>CLQuantization</title><polygon fill="#fff" stroke="none" points="-4 4 -4 -215 317.5 -215 317.5 4 -4 4"/><g id="node1" class="node"><title>Node0</title><g id="a_node1"><a xlink:title="OpenCL quantization data."><polygon fill="#bfbfbf" stroke="#000" points="93 -.5 93 -19.5 182 -19.5 182 -.5 93 -.5"/><text x="137.5" y="-7.5" font-family="Helvetica,sans-Serif" font-size="10" text-anchor="middle">CLQuantization</text></a></g></g><g id="node2" class="node"><title>Node1</title><g id="a_node2"><a target="_top" xlink:href="classarm__compute_1_1_i_c_l_array.xhtml"><polygon fill="#fff" stroke="#000" points="8 -67.5 8 -86.5 121 -86.5 121 -67.5 8 -67.5"/><text x="64.5" y="-74.5" font-family="Helvetica,sans-Serif" font-size="10" text-anchor="middle">ICLArray&lt; cl_float &gt;</text></a></g></g><g id="edge1" class="edge"><title>Node1-&gt;Node0</title><path fill="none" stroke="#9a32cd" stroke-dasharray="5 2" d="M82.069,-60.3564C96.4205,-47.5777 116.171,-29.9915 127.811,-19.6273"/><polygon fill="#9a32cd" stroke="#9a32cd" points="79.486 -57.97 74.345 -67.234 84.141 -63.198 79.486 -57.97"/><text x="119.5" y="-41" font-family="Helvetica,sans-Serif" font-size="10" text-anchor="middle">scale</text></g><g id="node3" class="node"><title>Node2</title><g id="a_node3"><a target="_top" xlink:href="classarm__compute_1_1_i_array.xhtml" xlink:title="Array of type T."><polygon fill="#fff" stroke="#000" points="0 -134.5 0 -153.5 101 -153.5 101 -134.5 0 -134.5"/><text x="50.5" y="-141.5" font-family="Helvetica,sans-Serif" font-size="10" text-anchor="middle">IArray&lt; cl_float &gt;</text></a></g></g><g id="edge2" class="edge"><title>Node2-&gt;Node1</title><path fill="none" stroke="#191970" d="M54.503,-124.415C57.1794,-111.988 60.5764,-96.2166 62.6418,-86.6273"/><polygon fill="#191970" stroke="#191970" points="51.072 -123.721 52.388 -134.234 57.915 -125.195 51.072 -123.721"/></g><g id="node4" class="node"><title>Node3</title><g id="a_node4"><a target="_top" xlink:href="classarm__compute_1_1_i_c_l_array.xhtml" xlink:title="Interface for OpenCL Array."><polygon fill="#fff" stroke="#000" points="119.5 -134.5 119.5 -153.5 203.5 -153.5 203.5 -134.5 119.5 -134.5"/><text x="161.5" y="-141.5" font-family="Helvetica,sans-Serif" font-size="10" text-anchor="middle">ICLArray&lt; T &gt;</text></a></g></g><g id="edge3" class="edge"><title>Node3-&gt;Node1</title><path fill="none" stroke="orange" stroke-dasharray="5 2" d="M134.539,-129.617C126.921,-125.523 118.739,-120.821 111.5,-116 97.8756,-106.927 83.4031,-94.8005 74.1753,-86.7116"/><polygon fill="orange" stroke="orange" points="132.966 -132.744 143.45 -134.276 136.209 -126.541 132.966 -132.744"/><text x="141.5" y="-108" font-family="Helvetica,sans-Serif" font-size="10" text-anchor="middle">&lt; cl_float &gt;</text></g><g id="node6" class="node"><title>Node5</title><g id="a_node6"><a target="_top" xlink:href="classarm__compute_1_1_i_c_l_array.xhtml"><polygon fill="#fff" stroke="#000" points="139.5 -67.5 139.5 -86.5 243.5 -86.5 243.5 -67.5 139.5 -67.5"/><text x="191.5" y="-74.5" font-family="Helvetica,sans-Serif" font-size="10" text-anchor="middle">ICLArray&lt; cl_int &gt;</text></a></g></g><g id="edge7" class="edge"><title>Node3-&gt;Node5</title><path fill="none" stroke="orange" stroke-dasharray="5 2" d="M169.905,-124.79C175.666,-112.308 183.048,-96.3135 187.518,-86.6273"/><polygon fill="orange" stroke="orange" points="166.559 -123.687 165.546 -134.234 172.914 -126.621 166.559 -123.687"/><text x="204" y="-108" font-family="Helvetica,sans-Serif" font-size="10" text-anchor="middle">&lt; cl_int &gt;</text></g><g id="node5" class="node"><title>Node4</title><g id="a_node5"><a target="_top" xlink:href="classarm__compute_1_1_i_array.xhtml" xlink:title="Array of type T."><polygon fill="#fff" stroke="#000" points="125.5 -191.5 125.5 -210.5 197.5 -210.5 197.5 -191.5 125.5 -191.5"/><text x="161.5" y="-198.5" font-family="Helvetica,sans-Serif" font-size="10" text-anchor="middle">IArray&lt; T &gt;</text></a></g></g><g id="edge4" class="edge"><title>Node4-&gt;Node3</title><path fill="none" stroke="#191970" d="M161.5,-181.117C161.5,-171.817 161.5,-161.056 161.5,-153.715"/><polygon fill="#191970" stroke="#191970" points="158 -181.406 161.5 -191.406 165 -181.406 158 -181.406"/></g><g id="edge5" class="edge"><title>Node5-&gt;Node0</title><path fill="none" stroke="#9a32cd" stroke-dasharray="5 2" d="M177.602,-59.2705C167.073,-46.5972 153.036,-29.701 144.667,-19.6273"/><polygon fill="#9a32cd" stroke="#9a32cd" points="175.135 -61.779 184.217 -67.234 180.519 -57.305 175.135 -61.779"/><text x="184" y="-41" font-family="Helvetica,sans-Serif" font-size="10" text-anchor="middle">offset</text></g><g id="node7" class="node"><title>Node6</title><g id="a_node7"><a target="_top" xlink:href="classarm__compute_1_1_i_array.xhtml" xlink:title="Array of type T."><polygon fill="#fff" stroke="#000" points="221.5 -134.5 221.5 -153.5 313.5 -153.5 313.5 -134.5 221.5 -134.5"/><text x="267.5" y="-141.5" font-family="Helvetica,sans-Serif" font-size="10" text-anchor="middle">IArray&lt; cl_int &gt;</text></a></g></g><g id="edge6" class="edge"><title>Node6-&gt;Node5</title><path fill="none" stroke="#191970" d="M254.117,-126.125C248.187,-119.178 240.888,-111.301 233.5,-105 225.321,-98.0253 215.212,-91.4726 206.961,-86.5695"/><polygon fill="#191970" stroke="#191970" points="251.74 -128.744 260.799 -134.237 257.143 -124.293 251.74 -128.744"/></g></g></svg>