<svg xmlns="http://www.w3.org/2000/svg" xmlns:xlink="http://www.w3.org/1999/xlink" width="264" height="232" viewBox="0 0 198 174"><g id="graph0" class="graph" transform="scale(1 1) rotate(0) translate(4 170)"><title>is_contained&lt; T, std::tuple&lt; U, Ts... &gt; &gt;</title><polygon fill="#fff" stroke="none" points="-4 4 -4 -170 194 -170 194 4 -4 4"/><g id="node1" class="node"><title>Node0</title><g id="a_node1"><a><polygon fill="#bfbfbf" stroke="#000" points="10 -.5 10 -30.5 124 -30.5 124 -.5 10 -.5"/><text x="18" y="-18.5" font-family="Helvetica,sans-Serif" font-size="10" text-anchor="start">is_contained&lt; T, std</text><text x="67" y="-7.5" font-family="Helvetica,sans-Serif" font-size="10" text-anchor="middle">::tuple&lt; U, Ts... &gt; &gt;</text></a></g></g><g id="node2" class="node"><title>Node1</title><g id="a_node2"><a target="_top" xlink:href="structarm__compute_1_1traits_1_1is__contained.xhtml"><polygon fill="#fff" stroke="#000" points="10 -68.5 10 -98.5 124 -98.5 124 -68.5 10 -68.5"/><text x="18" y="-86.5" font-family="Helvetica,sans-Serif" font-size="10" text-anchor="start">is_contained&lt; T, std</text><text x="67" y="-75.5" font-family="Helvetica,sans-Serif" font-size="10" text-anchor="middle">::tuple&lt; Ts... &gt; &gt;</text></a></g></g><g id="edge1" class="edge"><title>Node1-&gt;Node0</title><path fill="none" stroke="#191970" d="M67,-58.0322C67,-48.8606 67,-38.7449 67,-30.7931"/><polygon fill="#191970" stroke="#191970" points="63.5 -58.179 67 -68.179 70.5 -58.179 63.5 -58.179"/></g><g id="node3" class="node"><title>Node2</title><g id="a_node3"><a target="_top" xlink:href="structarm__compute_1_1traits_1_1is__contained.xhtml" xlink:title="Check if a type T is contained in a tuple Tuple of types."><polygon fill="#fff" stroke="#000" points="0 -146.5 0 -165.5 134 -165.5 134 -146.5 0 -146.5"/><text x="67" y="-153.5" font-family="Helvetica,sans-Serif" font-size="10" text-anchor="middle">is_contained&lt; T, Tuple &gt;</text></a></g></g><g id="edge2" class="edge"><title>Node2-&gt;Node1</title><path fill="none" stroke="orange" stroke-dasharray="5 2" d="M67,-136.236C67,-124.408 67,-109.383 67,-98.5762"/><polygon fill="orange" stroke="orange" points="63.5 -136.355 67 -146.355 70.5 -136.355 63.5 -136.355"/><text x="128.5" y="-120" font-family="Helvetica,sans-Serif" font-size="10" text-anchor="middle">&lt; T, std::tuple&lt; Ts... &gt; &gt;</text></g></g></svg>