<svg xmlns="http://www.w3.org/2000/svg" xmlns:xlink="http://www.w3.org/1999/xlink" width="676" height="106pt" viewBox="0 0 507 106"><g id="graph0" class="graph" transform="scale(1 1) rotate(0) translate(4 102)"><title>StreamHints</title><polygon fill="#fff" stroke="none" points="-4 4 -4 -102 503 -102 503 4 -4 4"/><g id="node1" class="node"><title>Node0</title><g id="a_node1"><a xlink:title="Hints that can be passed to the stream to expose parameterization."><polygon fill="#bfbfbf" stroke="#000" points="133.5 -.5 133.5 -19.5 210.5 -19.5 210.5 -.5 133.5 -.5"/><text x="172" y="-7.5" font-family="Helvetica,sans-Serif" font-size="10" text-anchor="middle">StreamHints</text></a></g></g><g id="node2" class="node"><title>Node1</title><g id="a_node2"><a><polygon fill="#fff" stroke="#bfbfbf" points="0 -78.5 0 -97.5 46 -97.5 46 -78.5 0 -78.5"/><text x="23" y="-85.5" font-family="Helvetica,sans-Serif" font-size="10" text-anchor="middle">Target</text></a></g></g><g id="edge1" class="edge"><title>Node1-&gt;Node0</title><path fill="none" stroke="#9a32cd" stroke-dasharray="5 2" d="M34.0802,-69.7598C41.7984,-59.0933 53.0144,-45.961 66,-38 86.3186,-25.5435 112.19,-18.8113 133.287,-15.1846"/><polygon fill="#9a32cd" stroke="#9a32cd" points="30.992 -68.075 28.241 -78.307 36.772 -72.024 30.992 -68.075"/><text x="94" y="-46.5" font-family="Helvetica,sans-Serif" font-size="10" text-anchor="middle">target_hint</text></g><g id="node3" class="node"><title>Node2</title><g id="a_node3"><a><polygon fill="#fff" stroke="#bfbfbf" points="64 -78.5 64 -97.5 144 -97.5 144 -78.5 64 -78.5"/><text x="104" y="-85.5" font-family="Helvetica,sans-Serif" font-size="10" text-anchor="middle">FastMathHint</text></a></g></g><g id="edge2" class="edge"><title>Node2-&gt;Node0</title><path fill="none" stroke="#9a32cd" stroke-dasharray="5 2" d="M116.303,-70.3026C123.702,-60.584 133.502,-48.2642 143,-38 148.98,-31.5374 156.23,-24.7874 161.985,-19.6531"/><polygon fill="#9a32cd" stroke="#9a32cd" points="113.458 -68.263 110.259 -78.363 119.058 -72.462 113.458 -68.263"/><text x="181" y="-46.5" font-family="Helvetica,sans-Serif" font-size="10" text-anchor="middle">fast_math_hint</text></g><g id="node4" class="node"><title>Node3</title><g id="a_node4"><a><polygon fill="#fff" stroke="#bfbfbf" points="162 -78.5 162 -97.5 320 -97.5 320 -78.5 162 -78.5"/><text x="241" y="-85.5" font-family="Helvetica,sans-Serif" font-size="10" text-anchor="middle">DepthwiseConvolutionMethod</text></a></g></g><g id="edge3" class="edge"><title>Node3-&gt;Node0</title><path fill="none" stroke="#9a32cd" stroke-dasharray="5 2" d="M235.868,-68.7386C232.365,-58.7766 226.905,-46.7324 219,-38 211.927,-30.1863 202.047,-24.0416 193.169,-19.6011"/><polygon fill="#9a32cd" stroke="#9a32cd" points="232.591 -69.983 238.925 -78.476 239.269 -67.887 232.591 -69.983"/><text x="233" y="-52" font-family="Helvetica,sans-Serif" font-size="10" text-anchor="start">depthwise_convolution</text><text x="289" y="-41" font-family="Helvetica,sans-Serif" font-size="10" text-anchor="middle">_method_hint</text></g><g id="node5" class="node"><title>Node4</title><g id="a_node5"><a><polygon fill="#fff" stroke="#bfbfbf" points="338.5 -78.5 338.5 -97.5 447.5 -97.5 447.5 -78.5 338.5 -78.5"/><text x="393" y="-85.5" font-family="Helvetica,sans-Serif" font-size="10" text-anchor="middle">ConvolutionMethod</text></a></g></g><g id="edge4" class="edge"><title>Node4-&gt;Node0</title><path fill="none" stroke="#9a32cd" stroke-dasharray="5 2" d="M382.336,-70.0251C374.499,-59.0526 362.832,-45.4712 349,-38 325.753,-25.4431 255.327,-17.6569 210.634,-13.8426"/><polygon fill="#9a32cd" stroke="#9a32cd" points="379.503 -72.084 387.982 -78.437 385.315 -68.183 379.503 -72.084"/><text x="437" y="-46.5" font-family="Helvetica,sans-Serif" font-size="10" text-anchor="middle">convolution_method_hint</text></g></g></svg>